<svg width="32" height="33" viewBox="0 0 32 33" fill="none" xmlns="http://www.w3.org/2000/svg">
<path d="M10.7114 32.5C10.6443 32.5 10.5102 32.5 10.4438 32.4324C4.21763 30.2046 0 24.2633 0 17.5801C0 12.9217 2.00855 8.60153 5.48981 5.56359C5.82446 5.29374 6.29324 5.3607 6.56083 5.63122C6.82908 5.96869 6.76135 6.44143 6.49376 6.71128C3.34781 9.41175 1.54044 13.3945 1.54044 17.5801C1.54044 23.5884 5.28928 28.9893 10.9119 31.0148C11.3136 31.1494 11.5148 31.6228 11.3807 31.9596C11.3136 32.2971 10.9796 32.5 10.7114 32.5Z" fill="#055346"/>
<path d="M21.2895 32.5C20.9548 32.5 20.6872 32.2971 20.5531 31.9596C20.419 31.5545 20.6202 31.1494 21.0219 31.0148C26.6451 28.9893 30.4604 23.5884 30.4604 17.5801C30.4604 13.4621 28.7201 9.54632 25.6412 6.84652C25.3059 6.57601 25.3059 6.10395 25.5741 5.76581C25.8417 5.42833 26.3105 5.42833 26.6452 5.69885C30.0594 8.66916 32.0008 12.9894 32.0008 17.5801C32.0008 24.2633 27.7832 30.2046 21.557 32.4324C21.4906 32.4324 21.4236 32.5 21.2895 32.5Z" fill="#055346"/>
<path d="M12.1828 27.6379H20.551V7.72289C20.551 7.58763 20.551 7.45304 20.6181 7.38541L23.5635 2.11974H20.3498L17.0027 8.06037C16.8692 8.33088 16.601 8.46548 16.3334 8.46548C16.0658 8.46548 15.7982 8.33088 15.6641 8.06037L12.317 2.05211H9.10326L12.0494 7.31778C12.1158 7.45304 12.1158 7.58763 12.1158 7.65593V27.6379H12.1828ZM21.2874 29.1914H11.3794C10.9784 29.1914 10.6431 28.8539 10.6431 28.4482V7.92578L7.2295 1.647C7.09538 1.44478 7.09538 1.1073 7.2295 0.904415C7.36296 0.702198 7.63055 0.499325 7.8988 0.499325H12.8521C13.1204 0.499325 13.388 0.634569 13.5221 0.904415L16.4005 6.10315L19.2788 0.904415C19.4129 0.634569 19.6805 0.499325 19.9488 0.499325H24.9021C25.1704 0.499325 25.4379 0.634569 25.5721 0.904415C25.7055 1.17426 25.7055 1.44478 25.5721 1.647L22.1579 7.92578V28.4482C22.0908 28.8539 21.7561 29.1914 21.2874 29.1914Z" fill="#055346"/>
<path d="M16.334 29.1914C15.9323 29.1914 15.5977 28.8539 15.5977 28.4482V17.7146C15.5977 17.3095 15.9323 16.972 16.334 16.972C16.7357 16.972 17.0704 17.3095 17.0704 17.7146V28.4482C17.1374 28.8539 16.8028 29.1914 16.334 29.1914Z" fill="#055346"/>
<path d="M15.6641 14.1372H17.0697V15.5547H15.6641V14.1372Z" fill="#055346"/>
<path d="M15.6641 11.977H17.0697V13.3945H15.6641V11.977Z" fill="#055346"/>
<path d="M15.6641 9.88423H17.0697V11.3018H15.6641V9.88423Z" fill="#055346"/>
</svg>
