<svg width="33" height="32" viewBox="0 0 33 32" fill="none" xmlns="http://www.w3.org/2000/svg">
<path d="M17.8199 14.3316H20.4536C20.8205 14.3316 21.1267 14.6386 21.1267 15.0079V15.9314L23.8825 13.5314L21.1267 11.1313V12.0543C21.1267 12.4235 20.8205 12.7312 20.4536 12.7312H17.8199V14.3316ZM20.4536 18.1465C20.3309 18.1465 20.2696 18.1465 20.1469 18.0848C19.9021 17.9621 19.7187 17.7162 19.7187 17.4702V15.7465H17.1463C16.7788 15.7465 16.4727 15.4388 16.4727 15.0695V12.1159C16.4727 11.7466 16.7788 11.439 17.1463 11.439H19.7794V9.65422C19.7794 9.40823 19.9635 9.16163 20.2082 9.03895C20.4536 8.91565 20.7598 8.9773 20.9432 9.16163L25.4138 13.0388C25.5365 13.1621 25.6586 13.3464 25.6586 13.593C25.6586 13.7774 25.5972 13.9623 25.4138 14.1467L20.9432 18.0238C20.8205 18.0848 20.6365 18.1465 20.4536 18.1465Z" fill="#055346"/>
<path d="M9.00341 15.8073H10.2899L12.1273 14.4535C12.2494 14.3918 12.3721 14.3308 12.5562 14.3308H13.9034V12.792H12.0046C11.8212 12.792 11.6371 12.7303 11.5144 12.6077L10.2286 11.3149H9.00341L10.5353 13.0996C10.7801 13.3456 10.7801 13.7149 10.5353 14.0232L9.00341 15.8073ZM10.4733 17.1611H7.47272C7.22793 17.1611 6.98314 16.9768 6.86044 16.7308C6.73835 16.4842 6.79909 16.1766 6.98314 15.9923L9.06537 13.5306L6.98314 11.0689C6.79909 10.8845 6.73835 10.5769 6.86044 10.3303C6.98314 10.0843 7.22793 9.89939 7.47272 9.89939H10.4733C10.6574 9.89939 10.8414 9.96105 10.9635 10.0843L12.2494 11.3765H14.5151C14.8832 11.3765 15.1893 11.6842 15.1893 12.0534V15.0071C15.1893 15.3764 14.8832 15.6846 14.5151 15.6846H12.6783L10.8414 17.0384C10.7795 17.1001 10.6574 17.1611 10.4733 17.1611Z" fill="#055346"/>
<path d="M15.2503 22.2085H16.4755V8.9156C16.4755 8.66961 16.5976 8.42364 16.8424 8.30034C17.4552 7.93106 17.8227 7.31579 17.8227 6.63888C17.8227 5.59268 16.9657 4.73082 15.9246 4.73082C14.8835 4.73082 14.0258 5.59268 14.0258 6.63888C14.0258 7.31579 14.3933 7.93106 15.0056 8.30034C15.1896 8.42364 15.3736 8.66961 15.3736 8.9156V22.2085H15.2503ZM17.1491 23.624H14.5767C14.2098 23.624 13.9037 23.3158 13.9037 22.9471V9.28488C13.1074 8.66962 12.6172 7.68508 12.6172 6.63888C12.6172 4.79247 14.0865 3.31594 15.9246 3.31594C17.7614 3.31594 19.2313 4.79247 19.2313 6.63888C19.2313 7.68508 18.7411 8.66962 17.9454 9.28488V22.9471C17.8227 23.3158 17.5166 23.624 17.1491 23.624Z" fill="#055346"/>
<path d="M15.249 26.7619H16.4741V25.5307H15.249V26.7619ZM17.1477 28.1768H14.5754C14.2085 28.1768 13.9023 27.8691 13.9023 27.5004V24.9155C13.9023 24.5462 14.2085 24.2386 14.5754 24.2386H17.1477C17.5152 24.2386 17.8214 24.5462 17.8214 24.9155V27.5004C17.8214 27.8691 17.5152 28.1768 17.1477 28.1768Z" fill="#055346"/>
<path d="M12.6168 24.1773H18.9861V23.6237H12.6168V24.1773ZM19.7211 25.5928H11.9431C11.5763 25.5928 11.2695 25.2851 11.2695 24.9159V22.9468C11.2695 22.5769 11.5763 22.2692 11.9431 22.2692H19.7211C20.0879 22.2692 20.3941 22.5769 20.3941 22.9468V24.9159C20.3941 25.2235 20.0879 25.5928 19.7211 25.5928Z" fill="#055346"/>
<path d="M16.2289 1.41488C8.02273 1.41488 1.40859 7.93866 1.40859 16C1.40859 24.062 8.08347 30.5851 16.2289 30.5851C24.4344 30.5851 31.0486 24.062 31.0486 16C31.0486 7.93866 24.4344 1.41488 16.2289 1.41488ZM16.2289 32C11.8804 32 7.83868 30.3392 4.77671 27.3232C1.71474 24.3079 0 20.2464 0 16C0 11.7536 1.71474 7.69207 4.77671 4.67677C7.83868 1.66147 11.9418 0 16.2289 0C20.5154 0 24.6185 1.66147 27.6804 4.67677C30.7424 7.69207 32.4571 11.6919 32.4571 16C32.4571 20.3075 30.7424 24.3079 27.6804 27.3232C24.6185 30.3392 20.5767 32 16.2289 32Z" fill="#055346"/>
<path d="M24.2507 20.3623H20.3918C20.0249 20.3623 19.7188 20.0541 19.7188 19.6854C19.7188 19.3161 20.0249 19.0085 20.3918 19.0085H24.2507C24.6176 19.0085 24.9237 19.3161 24.9237 19.6854C24.9237 20.0541 24.6176 20.3623 24.2507 20.3623Z" fill="#055346"/>
<path d="M28.1711 22.3311H22.3533C21.9858 22.3311 21.6797 22.0234 21.6797 21.6547C21.6797 21.2849 21.9858 20.9772 22.3533 20.9772H28.1711C28.5386 20.9772 28.8447 21.2849 28.8447 21.6547C28.8447 22.0234 28.5386 22.3311 28.1711 22.3311Z" fill="#055346"/>
<path d="M11.9421 20.3623H8.08377C7.71628 20.3623 7.41016 20.0541 7.41016 19.6854C7.41016 19.3161 7.71628 19.0085 8.08377 19.0085H11.9421C12.3102 19.0085 12.6157 19.3161 12.6157 19.6854C12.6157 20.0541 12.3102 20.3623 11.9421 20.3623Z" fill="#055346"/>
<path d="M9.983 22.3311H4.16518C3.7983 22.3311 3.49219 22.0234 3.49219 21.6547C3.49219 21.2849 3.7983 20.9772 4.16518 20.9772H9.983C10.3511 20.9772 10.6572 21.2849 10.6572 21.6547C10.718 22.0234 10.4124 22.3311 9.983 22.3311Z" fill="#055346"/>
</svg>
