<svg width="32" height="31" viewBox="0 0 32 31" fill="none" xmlns="http://www.w3.org/2000/svg">
<path d="M31.3627 25.0598H0.629003C0.2792 25.0598 0.0273438 24.8079 0.0273438 24.4651V3.76377C0.0273438 3.42096 0.2792 3.16211 0.629003 3.16211H4.38589C4.73569 3.16211 5.01554 3.44195 5.01554 3.79175C5.01554 4.14156 4.73569 4.4214 4.38589 4.4214H1.28664V23.8704H30.7401V4.4214H27.5988C27.249 4.4214 26.9692 4.14156 26.9692 3.79175C26.9692 3.44195 27.249 3.16211 27.5988 3.16211H31.3627C31.7055 3.16211 31.9994 3.42096 31.9994 3.76377V24.4651C31.9994 24.8079 31.7055 25.0598 31.3627 25.0598Z" fill="#4D5E81"/>
<path fill-rule="evenodd" clip-rule="evenodd" d="M20.6945 30.7262H11.2918C10.942 30.7262 10.6621 30.4534 10.6621 30.1106V28.2287C10.6621 27.9908 10.802 27.7739 11.0119 27.669L13.1807 26.5846V24.4648C13.1807 24.115 13.4535 23.8701 13.7963 23.8701H18.1899C18.5327 23.8701 18.8475 24.115 18.8475 24.4648V26.5846L20.9813 27.669C21.1912 27.7739 21.2961 27.9908 21.2961 28.2287V30.1106C21.2961 30.4534 21.0443 30.7262 20.6945 30.7262ZM11.9214 29.467H20.0368V28.6134L17.903 27.5361C17.6932 27.4311 17.5882 27.2072 17.5882 26.9764V25.0594H14.44V26.9764C14.44 27.2072 14.3001 27.4311 14.0902 27.5361L11.9214 28.6134V29.467Z" fill="#4D5E81"/>
<path d="M31.3634 21.3521H0.629646C0.279843 21.3521 0 21.0722 0 20.7224C0 20.3726 0.279843 20.0928 0.629646 20.0928H31.3634C31.7062 20.0928 31.986 20.3726 31.986 20.7224C31.986 21.0722 31.7062 21.3521 31.3634 21.3521Z" fill="#4D5E81"/>
<path fill-rule="evenodd" clip-rule="evenodd" d="M27.5993 18.1897H4.38632C4.04351 18.1897 3.76367 17.9099 3.76367 17.5671V0.629645C3.76367 0.279842 4.04351 0 4.38632 0H27.5993C27.9421 0 28.2219 0.279842 28.2219 0.629645V17.5671C28.2219 17.9099 27.9421 18.1897 27.5993 18.1897ZM5.01596 16.9374H26.9696V1.25929H5.01596V16.9374Z" fill="#4D5E81"/>
<path d="M22.5755 30.7271H9.40894C9.05914 30.7271 8.7793 30.4472 8.7793 30.0974C8.7793 29.7476 9.05914 29.4678 9.40894 29.4678H22.5755C22.9253 29.4678 23.2052 29.7476 23.2052 30.0974C23.2052 30.4472 22.9253 30.7271 22.5755 30.7271Z" fill="#4D5E81"/>
<path d="M11.9143 15.0561H11.0398C9.44467 15.0561 8.15039 13.7618 8.15039 12.1737V10.4177C8.15039 8.82259 9.44467 7.52832 11.0398 7.52832H11.9143C12.2641 7.52832 12.5439 7.80816 12.5439 8.15797C12.5439 8.50077 12.2641 8.78761 11.9143 8.78761H11.0398C10.1373 8.78761 9.40968 9.5152 9.40968 10.4177V12.1737C9.40968 13.0692 10.1373 13.8038 11.0398 13.8038H11.9143C12.2641 13.8038 12.5439 14.0836 12.5439 14.4264C12.5439 14.7762 12.2641 15.0561 11.9143 15.0561Z" fill="#4D5E81"/>
<path fill-rule="evenodd" clip-rule="evenodd" d="M15.9936 15.0561C14.7833 15.0561 13.7969 14.0696 13.7969 12.8593V9.72508C13.7969 8.51476 14.7833 7.52832 15.9936 7.52832C17.204 7.52832 18.1904 8.51476 18.1904 9.72508V12.8593C18.1904 14.0696 17.204 15.0561 15.9936 15.0561ZM15.9936 8.78761C15.4759 8.78761 15.0562 9.20737 15.0562 9.72508V12.8593C15.0562 13.377 15.4759 13.8038 15.9936 13.8038C16.5113 13.8038 16.9381 13.377 16.9381 12.8593V9.72508C16.9381 9.20737 16.5113 8.78761 15.9936 8.78761Z" fill="#4D5E81"/>
<path d="M23.2063 8.75969H20.6947C20.3519 8.75969 20.0371 8.50084 20.0371 8.15803V5.64645C20.0371 5.30364 20.3519 5.05178 20.6947 5.05178H22.5557V3.79249H20.6947C20.3519 3.79249 20.0721 3.51265 20.0721 3.16285C20.0721 2.81305 20.3519 2.5332 20.6947 2.5332H23.2063C23.5561 2.5332 23.815 2.79206 23.815 3.14186V5.64645C23.815 5.99625 23.5561 6.31107 23.2063 6.31107H21.2964V7.5004H23.2063C23.5561 7.5004 23.836 7.78024 23.836 8.13005C23.836 8.47985 23.5561 8.75969 23.2063 8.75969Z" fill="#4D5E81"/>
</svg>
