<svg width="32" height="37" viewBox="0 0 32 37" fill="none" xmlns="http://www.w3.org/2000/svg">
<path d="M25.592 24.505C25.1958 24.505 24.8789 24.1881 24.8789 23.7919V18.8244C24.8789 18.4282 25.1958 18.1113 25.592 18.1113C25.9881 18.1113 26.305 18.4282 26.305 18.8244V23.7919C26.305 24.1881 25.9881 24.505 25.592 24.505Z" fill="#4D5E81"/>
<path d="M25.6078 24.5045C25.4256 24.5045 25.2513 24.4332 25.1087 24.2985L22.9775 22.1673C22.7002 21.89 22.7002 21.4384 22.9775 21.1611C23.2548 20.8838 23.7064 20.8838 23.9837 21.1611L25.6078 22.7853L27.2399 21.1611C27.5172 20.8838 27.9688 20.8838 28.2461 21.1611C28.5234 21.4384 28.5234 21.89 28.2461 22.1673L26.1149 24.2985C25.9723 24.4332 25.7901 24.5045 25.6078 24.5045Z" fill="#4D5E81"/>
<path d="M25.6073 31.9286H5.00819C4.61998 31.9286 4.2793 31.6434 4.2793 31.2552V0.705122C4.2793 0.316909 4.61998 0 5.00819 0H20.6397C20.8299 0 21.0042 0.0713051 21.1389 0.205991L26.1064 5.18146C26.2411 5.30823 26.3045 5.49045 26.3045 5.6806V15.6236C26.3045 16.0198 25.9876 16.3367 25.5914 16.3367C25.1953 16.3367 24.8784 16.0198 24.8784 15.6236V5.97374L20.3466 1.42609H5.70539V30.5817H24.8784V26.9927C24.8784 26.5966 25.1953 26.2797 25.5914 26.2797C25.9876 26.2797 26.3045 26.5966 26.3045 26.9927V31.2552C26.3045 31.6434 26.0034 31.9286 25.6073 31.9286Z" fill="#4D5E81"/>
<path d="M20.6387 36.2066H0.744736C0.356522 36.2066 0 35.9055 0 35.5094V6.39338C0 5.99724 0.356522 5.7041 0.744736 5.7041H5.00717C5.4033 5.7041 5.72021 6.02101 5.72021 6.41715C5.72021 6.81328 5.4033 7.13019 5.00717 7.13019H1.42609V34.7805H19.9653V31.2549C19.9653 30.8588 20.2426 30.5419 20.6387 30.5419C21.0348 30.5419 21.3121 30.8588 21.3121 31.2549V35.5094C21.3121 35.9055 21.0269 36.2066 20.6387 36.2066Z" fill="#4D5E81"/>
<path d="M25.6058 6.41741H20.6383C20.2421 6.41741 19.9648 6.06881 19.9648 5.6806V0.705122C19.9648 0.316909 20.2421 0 20.6383 0C21.0344 0 21.3117 0.316909 21.3117 0.705122V4.99132H25.6058C26.002 4.99132 26.3189 5.30823 26.3189 5.70437C26.3189 6.1005 26.002 6.41741 25.6058 6.41741Z" fill="#4D5E81"/>
<path fill-rule="evenodd" clip-rule="evenodd" d="M25.6064 27.6974C22.0808 27.6974 19.2207 24.8294 19.2207 21.3038C19.2207 17.7782 22.0808 14.9102 25.6064 14.9102C29.132 14.9102 32.0001 17.7782 32.0001 21.3038C32.0001 24.8294 29.132 27.6974 25.6064 27.6974ZM25.6064 16.3362C22.8652 16.3362 20.6389 18.5625 20.6389 21.3038C20.6389 24.0451 22.8652 26.2793 25.6064 26.2793C28.3477 26.2793 30.5819 24.0451 30.5819 21.3038C30.5819 18.5625 28.3477 16.3362 25.6064 16.3362Z" fill="#4D5E81"/>
<path d="M17.0895 6.4173H8.56461C8.16847 6.4173 7.85156 6.10039 7.85156 5.70426C7.85156 5.30812 8.16847 4.99121 8.56461 4.99121H17.0895C17.4777 4.99121 17.7946 5.30812 17.7946 5.70426C17.7946 6.10039 17.4777 6.4173 17.0895 6.4173Z" fill="#4D5E81"/>
<path d="M22.057 9.98273H8.56461C8.16847 9.98273 7.85156 9.66582 7.85156 9.26969C7.85156 8.87355 8.16847 8.55664 8.56461 8.55664H22.057C22.4532 8.55664 22.7701 8.87355 22.7701 9.26969C22.7701 9.66582 22.4532 9.98273 22.057 9.98273Z" fill="#4D5E81"/>
<path d="M22.057 13.4691H8.56461C8.16847 13.4691 7.85156 13.1522 7.85156 12.756C7.85156 12.3599 8.16847 12.043 8.56461 12.043H22.057C22.4532 12.043 22.7701 12.3599 22.7701 12.756C22.7701 13.1522 22.4532 13.4691 22.057 13.4691Z" fill="#4D5E81"/>
<path d="M17.7946 17.0335H8.56461C8.16847 17.0335 7.85156 16.7166 7.85156 16.3205C7.85156 15.9243 8.16847 15.6074 8.56461 15.6074H17.7946C18.1907 15.6074 18.5076 15.9243 18.5076 16.3205C18.5076 16.7166 18.1907 17.0335 17.7946 17.0335Z" fill="#4D5E81"/>
<path d="M16.3764 20.5989H8.56461C8.16847 20.5989 7.85156 20.282 7.85156 19.8859C7.85156 19.4898 8.16847 19.1729 8.56461 19.1729H16.3764C16.7646 19.1729 17.0895 19.4898 17.0895 19.8859C17.0895 20.282 16.7646 20.5989 16.3764 20.5989Z" fill="#4D5E81"/>
<path d="M16.3764 24.1644H8.56461C8.16847 24.1644 7.85156 23.8475 7.85156 23.4513C7.85156 23.0552 8.16847 22.7383 8.56461 22.7383H16.3764C16.7646 22.7383 17.0895 23.0552 17.0895 23.4513C17.0895 23.8475 16.7646 24.1644 16.3764 24.1644Z" fill="#4D5E81"/>
<path d="M17.7946 27.7298H8.56461C8.16847 27.7298 7.85156 27.4129 7.85156 27.0168C7.85156 26.6206 8.16847 26.3037 8.56461 26.3037H17.7946C18.1907 26.3037 18.5076 26.6206 18.5076 27.0168C18.5076 27.4129 18.1907 27.7298 17.7946 27.7298Z" fill="#4D5E81"/>
</svg>
