<svg width="32" height="32" viewBox="0 0 32 32" fill="none" xmlns="http://www.w3.org/2000/svg">
<path d="M6.58387 12.5494C6.38789 12.5494 6.19191 12.4514 6.07293 12.2765L5.65999 11.6955C5.00207 10.7507 4.66611 9.6518 4.68011 8.51794C4.7151 6.33421 5.58998 4.30446 7.15079 2.80665C9.03355 0.993876 11.5042 0 14.1149 0C14.1149 0 14.1173 0 14.1219 0C18.1884 0 21.828 2.45669 23.3958 6.26422C23.4144 6.31554 23.4331 6.36687 23.4518 6.4182C24.0747 8.06999 23.8227 9.94576 22.7658 11.4226L22.1569 12.2835C21.9539 12.5634 21.562 12.6334 21.282 12.4304C21.0021 12.2275 20.9321 11.8425 21.135 11.5556L21.744 10.6947C22.5559 9.56081 22.7588 8.12599 22.2829 6.85914C22.2642 6.81715 22.2479 6.77749 22.2339 6.74016C20.8621 3.40857 17.6775 1.25284 14.1219 1.25284C14.1173 1.25284 14.1149 1.25284 14.1149 1.25284C11.8332 1.25284 9.67047 2.12773 8.02568 3.70954C6.70284 4.97638 5.96794 6.69116 5.93294 8.53193C5.91895 9.40683 6.18492 10.2467 6.68885 10.9746L7.10179 11.5626C7.29777 11.8425 7.22778 12.2345 6.94081 12.4374C6.83582 12.5144 6.70985 12.5494 6.58387 12.5494Z" fill="#4D5E81"/>
<path d="M26.35 29.4658H1.88107C1.53111 29.4658 1.24414 29.2069 1.24414 28.8639V26.2602C1.24414 24.7204 2.23801 23.3906 3.70783 22.9497L10.77 20.8359L11.5119 17.9873C11.5958 17.6513 11.9388 17.4484 12.2748 17.5393C12.6107 17.6233 12.8137 17.9663 12.7227 18.3022L11.8968 21.4868C11.8408 21.7038 11.6798 21.8718 11.4699 21.9348L4.07178 24.1535C3.1479 24.4335 2.50398 25.2944 2.50398 26.2602V28.206H26.35C26.7 28.206 26.9799 28.486 26.9799 28.8359C26.9799 29.1859 26.7 29.4658 26.35 29.4658Z" fill="#4D5E81"/>
<path d="M18.1957 22.3337C18.1351 22.3384 18.0744 22.3314 18.0138 22.3127L16.7609 21.9348C16.551 21.8718 16.383 21.7038 16.334 21.4868L15.5081 18.3022C15.4171 17.9663 15.6201 17.6233 15.956 17.5393C16.292 17.4484 16.635 17.6513 16.7189 17.9873L17.4608 20.8359L18.3707 21.1089C18.7067 21.2069 18.8957 21.5568 18.7977 21.8928C18.7137 22.1588 18.4617 22.3337 18.1957 22.3337Z" fill="#4D5E81"/>
<path d="M14.1164 23.2934C13.0385 23.2934 11.9537 22.8805 11.1278 22.0616L10.8478 21.7746C10.6028 21.5296 10.6028 21.1377 10.8478 20.8927C11.0928 20.6477 11.4917 20.6477 11.7367 20.8927L12.0166 21.1727C13.1785 22.3275 15.0543 22.3275 16.2161 21.1727L16.4961 20.8927C16.7411 20.6477 17.14 20.6477 17.385 20.8927C17.63 21.1377 17.63 21.5296 17.385 21.7746L17.098 22.0616C16.2791 22.8805 15.1942 23.2934 14.1164 23.2934Z" fill="#4D5E81"/>
<path fill-rule="evenodd" clip-rule="evenodd" d="M14.116 19.1353C12.6252 19.1353 11.1764 18.6033 10.0426 17.6375C9.04869 16.7836 8.34177 15.6497 8.02681 14.3899C6.85096 14.1869 5.95508 13.158 5.95508 11.9192C5.95508 10.7503 6.75997 9.77044 7.83784 9.49048V9.28051C7.83784 7.86668 8.8947 6.66283 10.2875 6.48785C12.5342 6.19389 13.4861 5.284 13.4861 3.45023C13.4861 3.10028 13.7661 2.82031 14.116 2.82031C14.459 2.82031 14.746 3.10028 14.746 3.45023C14.746 5.284 15.6979 6.19389 17.9446 6.48785C19.3374 6.66283 20.3943 7.86668 20.3943 9.28051V9.49048C21.4721 9.77044 22.27 10.7503 22.27 11.9192C22.27 13.158 21.3811 14.1869 20.2053 14.3899C19.8833 15.6497 19.1834 16.7836 18.1896 17.6375C17.0557 18.6033 15.6069 19.1353 14.116 19.1353ZM14.116 5.82994C13.9387 6.10523 13.7241 6.3502 13.4721 6.56484C12.7652 7.18077 11.7713 7.55872 10.4485 7.7267C9.67861 7.83169 9.09768 8.4966 9.09768 9.28051V10.0364C9.09768 10.3864 8.81771 10.6663 8.46776 10.6663C7.77484 10.6663 7.21492 11.2263 7.21492 11.9192C7.21492 12.6121 7.77484 13.172 8.46776 13.172H8.54475C8.85272 13.172 9.11168 13.396 9.16767 13.697C9.57362 16.1257 11.6524 17.8824 14.116 17.8824C16.5797 17.8824 18.6585 16.1257 19.0644 13.697C19.1134 13.396 19.3794 13.172 19.6874 13.172H19.7644C20.4573 13.172 21.0172 12.6121 21.0172 11.9192C21.0172 11.2263 20.4573 10.6663 19.7644 10.6663C19.4144 10.6663 19.1344 10.3864 19.1344 10.0364V9.28051C19.1344 8.4966 18.5535 7.83169 17.7836 7.7267C16.4538 7.55872 15.4669 7.18077 14.76 6.56484C14.508 6.3502 14.2934 6.10523 14.116 5.82994Z" fill="#4D5E81"/>
<path d="M6.24225 23.4756C6.06727 23.4756 5.8923 23.3986 5.76632 23.2586C4.66046 21.9707 4.19151 20.109 4.45048 18.0162C4.68145 16.1195 5.49335 14.2367 6.6762 12.8579C6.90018 12.5989 7.29912 12.5639 7.55808 12.7879C7.82405 13.0189 7.85205 13.4108 7.62808 13.6768C6.6062 14.8736 5.8993 16.5114 5.69633 18.1702C5.47935 19.906 5.8433 21.4178 6.71819 22.4397C6.94916 22.6987 6.91417 23.0976 6.6552 23.3216C6.53622 23.4266 6.38923 23.4756 6.24225 23.4756Z" fill="#4D5E81"/>
<path d="M23.109 20.7039C23.081 20.7039 23.0506 20.7016 23.018 20.6969C22.675 20.6549 22.437 20.3329 22.486 19.99C22.787 17.8833 22.0241 15.3426 20.6033 13.6768C20.3723 13.4108 20.4073 13.0119 20.6663 12.7879C20.9322 12.5639 21.3312 12.5989 21.5552 12.8579C23.2279 14.8176 24.0818 17.6873 23.7319 20.165C23.6829 20.4799 23.4169 20.7039 23.109 20.7039Z" fill="#4D5E81"/>
<path fill-rule="evenodd" clip-rule="evenodd" d="M31.3701 31.9999H0.622932C0.279975 31.9999 0 31.7199 0 31.37V28.8643C0 28.5143 0.279975 28.2344 0.622932 28.2344H31.3701C31.72 28.2344 32 28.5143 32 28.8643V31.37C32 31.7199 31.72 31.9999 31.3701 31.9999ZM1.25285 30.7471H30.7472V29.4942H1.25285V30.7471Z" fill="#4D5E81"/>
<path fill-rule="evenodd" clip-rule="evenodd" d="M30.7477 29.4939H18.1983C17.8483 29.4939 17.5684 29.207 17.5684 28.864V20.0801C17.5684 19.7302 17.8483 19.4502 18.1983 19.4502H30.7477C31.0907 19.4502 31.3706 19.7302 31.3706 20.0801V28.864C31.3706 29.207 31.0907 29.4939 30.7477 29.4939ZM18.8212 28.2341H30.1178V20.703H18.8212V28.2341Z" fill="#4D5E81"/>
<path fill-rule="evenodd" clip-rule="evenodd" d="M24.4687 26.3515C23.4328 26.3515 22.5859 25.5116 22.5859 24.4687C22.5859 23.4328 23.4328 22.5859 24.4687 22.5859C25.5116 22.5859 26.3515 23.4328 26.3515 24.4687C26.3515 25.5116 25.5116 26.3515 24.4687 26.3515ZM24.4687 23.8458C24.1258 23.8458 23.8458 24.1257 23.8458 24.4687C23.8458 24.8187 24.1258 25.0986 24.4687 25.0986C24.8187 25.0986 25.0986 24.8187 25.0986 24.4687C25.0986 24.1257 24.8187 23.8458 24.4687 23.8458Z" fill="#4D5E81"/>
</svg>
