<svg width="52" height="44" viewBox="0 0 52 44" fill="none" xmlns="http://www.w3.org/2000/svg">
<path d="M47.0378 33.926C41.6104 34.0168 36.1831 34.0713 30.7557 34.0894C25.3101 34.1257 19.8736 34.1166 14.4462 34.0622C11.7416 34.0259 9.02792 33.9896 6.30515 33.9533C5.61538 33.9351 4.92562 33.926 4.23585 33.926C4.09971 33.926 4.1814 33.926 4.23585 33.926C4.16324 33.9079 4.09064 33.8988 4.01803 33.8988C3.90912 33.8807 3.80021 33.8535 3.6913 33.8171C3.58239 33.799 3.47347 33.7718 3.36456 33.7355C3.47347 33.7627 3.39179 33.7355 3.36456 33.7082C3.2738 33.6719 3.19213 33.6356 3.11952 33.5993C3.02876 33.5449 2.938 33.4813 2.84724 33.4087C2.81094 33.3906 2.77463 33.3724 2.73833 33.3543C2.7111 33.327 2.54774 33.1909 2.65665 33.2998C2.49328 33.1546 2.34806 32.9912 2.22099 32.8097C2.18469 32.7553 2.1484 32.7008 2.11209 32.6463C2.03041 32.5374 2.08485 32.6191 2.08485 32.6463C2.0304 32.5374 1.98502 32.4376 1.94872 32.3468C1.89426 32.2379 1.84888 32.129 1.81258 32.0201C1.81258 32.0201 1.75812 31.8023 1.81258 31.9656C1.79443 31.893 1.77629 31.8295 1.75814 31.775C1.64922 31.1488 1.67644 30.4953 1.67644 29.8691C1.64014 29.1975 1.61291 28.5168 1.59476 27.827C1.57661 26.4837 1.54938 25.1405 1.51308 23.7972C1.48585 21.1289 1.45863 18.4333 1.48586 15.7378C1.50401 13.0331 1.54939 10.3194 1.622 7.59659C1.64015 6.90682 1.65829 6.21705 1.67644 5.52728C1.70367 4.92826 1.64922 4.27479 1.75814 3.67578C1.75814 3.64855 1.81259 3.48518 1.75814 3.67578C1.77629 3.62132 1.79443 3.56685 1.81258 3.5124C1.83981 3.40349 1.86704 3.29459 1.92149 3.18568C1.81258 3.37627 1.94872 3.04954 1.92149 3.18568C1.93965 3.13122 1.96687 3.08584 2.00317 3.04954C2.05763 2.94062 2.11209 2.80448 2.19377 2.7228C2.03041 2.88617 2.16654 2.75003 2.22099 2.7228C2.23915 2.68649 2.26639 2.65018 2.30269 2.61388C2.3753 2.52312 2.45697 2.44144 2.54773 2.36884C2.38436 2.5322 2.62941 2.31437 2.68387 2.28714C2.73832 2.23268 2.79279 2.19639 2.84724 2.17824C2.87447 2.15101 3.06505 2.04209 2.90169 2.12378C3.10136 2.03302 3.31012 1.96041 3.52794 1.90596C3.3918 1.93319 3.52793 1.90595 3.55516 1.87872C3.60961 1.87872 3.66406 1.86965 3.71852 1.8515C3.88188 1.83335 4.03618 1.82428 4.18139 1.82428C4.85301 1.82428 5.52463 1.81519 6.19625 1.79704C7.53949 1.77889 8.89179 1.76073 10.2532 1.74258C12.9759 1.70628 15.6896 1.67905 18.3943 1.6609C23.8398 1.6246 29.2763 1.63368 34.7037 1.68814C37.4083 1.70629 40.122 1.73351 42.8448 1.76982C44.188 1.78797 45.5312 1.80613 46.8745 1.82428C47.0923 1.85151 46.7383 1.82427 46.9562 1.8515C47.0106 1.8515 47.056 1.8515 47.0923 1.8515C47.2012 1.86965 47.3101 1.89688 47.419 1.93318C47.5279 1.95133 47.6368 1.98764 47.7458 2.0421C47.6096 1.98764 47.8002 2.06932 47.8002 2.06932C47.8728 2.10562 47.9364 2.13285 47.9908 2.151C48.0816 2.20546 48.1723 2.26899 48.2631 2.3416C48.3175 2.35975 48.3629 2.38698 48.3992 2.42328C48.4265 2.45051 48.5354 2.55943 48.4537 2.45052C48.6352 2.61389 48.7986 2.79541 48.9438 2.99508C48.9619 3.03138 48.9801 3.06768 48.9982 3.10398C49.1344 3.26735 48.9438 2.99508 49.0527 3.18568C49.1071 3.27644 49.1525 3.37627 49.1888 3.48518C49.2433 3.57594 49.2796 3.67577 49.2977 3.78468C49.325 3.81191 49.3522 3.92082 49.325 3.78468C49.325 3.87544 49.334 3.95713 49.3522 4.02974C49.4611 4.62875 49.4339 5.25499 49.4339 5.88124C49.4883 7.24263 49.5246 8.61312 49.5428 9.99267C49.5973 12.6882 49.6245 15.3293 49.6245 18.0521C49.6245 20.7568 49.5973 23.4705 49.5428 26.1933C49.5246 27.5366 49.4883 28.8798 49.4339 30.2231C49.4339 30.8493 49.4339 31.4755 49.3522 32.1018C49.325 32.3196 49.3794 31.9929 49.3522 32.129C49.334 32.1835 49.3159 32.2379 49.2977 32.2924C49.2705 32.4013 49.216 32.483 49.1888 32.5919C49.2433 32.4285 49.216 32.5102 49.1888 32.5647C49.1707 32.6191 49.1434 32.6826 49.1071 32.7552C49.089 32.7916 49.0618 32.8279 49.0255 32.8642C48.9982 32.8914 48.8893 33.1637 48.971 32.9458C48.9438 33.0275 48.8349 33.1092 48.7532 33.1909C48.726 33.2453 48.4809 33.4359 48.6443 33.327C48.5535 33.3996 48.4627 33.4632 48.372 33.5176C48.3357 33.5358 48.2994 33.563 48.2631 33.5993C48.2359 33.5993 48.0453 33.7082 48.2086 33.6265C48.0271 33.7173 47.8274 33.7899 47.6096 33.8444C47.5007 33.8988 47.8002 33.8171 47.5824 33.8716C47.5279 33.8716 47.4735 33.8807 47.419 33.8988C47.292 33.917 47.1649 33.926 47.0378 33.926C46.1666 33.9533 45.8398 35.587 46.8745 35.5597C47.9636 35.5325 49.0255 34.9879 49.7606 34.1711C50.1418 33.7355 50.4413 33.2453 50.6319 32.7008C50.8497 32.1018 50.8769 31.5028 50.8769 30.8765C50.9859 28.0993 51.0585 25.3129 51.0948 22.5175C51.1492 16.8904 51.0948 11.2633 50.9314 5.63619C50.8769 4.60153 50.9586 3.53964 50.5774 2.58666C50.5774 2.58666 50.5684 2.57757 50.5502 2.55942C50.5502 2.54127 50.5411 2.52313 50.523 2.50498C50.523 2.48682 50.523 2.46867 50.523 2.45052C50.5048 2.43237 50.4958 2.41421 50.4958 2.39606C50.4776 2.37791 50.4685 2.35975 50.4685 2.3416C50.4322 2.28714 50.405 2.24176 50.3868 2.20546C49.8423 1.25248 48.971 0.544553 47.9091 0.299501C47.3101 0.163361 46.6566 0.190599 46.0576 0.190599C45.3497 0.172447 44.6509 0.154292 43.9611 0.13614C42.5634 0.117988 41.1657 0.0998326 39.768 0.0816806C34.1773 0.0272246 28.5865 0 22.9958 0C17.405 0.018152 11.8233 0.0726013 6.25071 0.163361C5.57002 0.163361 4.86209 0.163371 4.18139 0.190599C3.66407 0.217827 3.14674 0.353957 2.68387 0.571781C1.64921 1.08911 0.805151 2.01486 0.451191 3.10398C0.260597 3.70299 0.233373 4.27478 0.233373 4.8738C0.197069 5.56357 0.169845 6.25336 0.151693 6.94313C0.115389 8.35899 0.0881647 9.76577 0.0700129 11.1635C-0.0388981 16.8087 -0.0207429 22.4449 0.124472 28.072C0.142623 28.7618 0.160762 29.4516 0.178914 30.1414C0.206142 30.7948 0.206155 31.4483 0.26061 32.1018C0.369521 33.1909 0.968528 34.1711 1.83982 34.8246C2.24823 35.1241 2.7111 35.3419 3.2012 35.4508C3.82744 35.6142 4.50814 35.5597 5.1616 35.587C6.52299 35.6051 7.89344 35.6233 9.27298 35.6414C14.8637 35.714 20.4636 35.7503 26.0725 35.7503C31.6451 35.7503 37.2177 35.7049 42.7903 35.6142C44.1517 35.596 45.5131 35.5779 46.8745 35.5597C47.7458 35.5325 48.0725 33.8988 47.0378 33.926Z" fill="#1499FC"/>
<path d="M46.3852 30.0867C40.976 30.1774 35.5758 30.241 30.1847 30.2773C24.7755 30.2954 19.3662 30.2773 13.957 30.2228C10.9075 30.1865 7.85798 30.1411 4.80848 30.0867C4.95369 30.2682 5.08983 30.4497 5.2169 30.6312C5.05353 27.2186 4.9537 23.8061 4.9174 20.3935C4.88109 16.9628 4.90832 13.5411 4.99908 10.1286C5.05353 8.20445 5.12614 6.28033 5.2169 4.35622C5.05353 4.61035 4.89017 4.85541 4.7268 5.09138C10.136 4.98247 15.5453 4.91893 20.9545 4.90078C26.3456 4.88263 31.7458 4.90079 37.155 4.95524C40.2045 4.99155 43.254 5.03693 46.3035 5.09138C46.1583 4.90986 46.0222 4.72834 45.8951 4.54682C46.0585 7.9594 46.1583 11.372 46.1946 14.7845C46.2309 18.2153 46.2037 21.6369 46.1129 25.0495C46.0585 26.9736 45.9859 28.8886 45.8951 30.7946C45.8951 31.0941 46.1402 31.4208 46.4397 31.3664C46.7936 31.3119 46.9025 30.9307 46.9298 30.6312C47.0931 27.2186 47.193 23.8061 47.2293 20.3935C47.2656 16.9628 47.2383 13.5411 47.1476 10.1286C47.0931 8.20445 47.0205 6.28033 46.9298 4.35622C46.9025 4.16563 46.7936 3.81166 46.5214 3.81166C41.094 3.70275 35.6575 3.63922 30.212 3.62106C24.7664 3.60291 19.3118 3.62107 13.8481 3.67552C10.7986 3.71183 7.74 3.75721 4.67234 3.81166C4.34561 3.81166 4.20947 4.27454 4.18225 4.54682C4.01888 7.9594 3.91905 11.372 3.88275 14.7845C3.84644 18.2153 3.87367 21.6369 3.96443 25.0495C4.01888 26.9736 4.09149 28.8886 4.18225 30.7946C4.20947 31.0124 4.34561 31.3664 4.59066 31.3664C10.0181 31.4753 15.4545 31.5388 20.9001 31.557C26.3456 31.5751 31.8002 31.557 37.2639 31.5025C40.3134 31.4662 43.372 31.4208 46.4397 31.3664C46.7664 31.3664 46.9298 30.9035 46.9298 30.6312C46.9025 30.3045 46.7119 30.0594 46.3852 30.0867Z" fill="#1499FC"/>
<path d="M32.0364 39.1528C28.7328 39.2073 25.42 39.2163 22.0983 39.18C21.1362 39.18 20.1832 39.171 19.2394 39.1528C19.439 39.3343 19.6478 39.5159 19.8656 39.6974C19.7295 38.0909 19.7295 36.5117 19.8656 34.9053C19.5933 35.1957 19.3301 35.477 19.076 35.7493C22.3796 35.713 25.6923 35.7039 29.0141 35.7221C29.9762 35.7403 30.9291 35.7493 31.873 35.7493C31.6734 35.586 31.4646 35.4135 31.2468 35.232C31.3829 36.8384 31.3829 38.4177 31.2468 40.0241C31.2196 40.4053 31.4646 40.7865 31.873 40.732C32.2814 40.7048 32.6354 40.2964 32.6626 39.888C32.7988 38.1726 32.7988 36.43 32.6626 34.7147C32.6354 34.3607 32.3631 34.1701 32.0364 34.1701C28.7328 34.1338 25.42 34.1247 22.0983 34.1429C21.1362 34.161 20.1832 34.1701 19.2394 34.1701C18.8309 34.1973 18.477 34.6602 18.4498 35.0414C18.3136 36.7568 18.3136 38.4994 18.4498 40.2147C18.477 40.5414 18.7493 40.732 19.076 40.732C22.3796 40.7683 25.6923 40.7774 29.0141 40.7593C29.9762 40.7593 30.9291 40.7502 31.873 40.732C32.7171 40.732 33.0438 39.1528 32.0364 39.1528Z" fill="#1499FC"/>
<path d="M36.2847 42.4476C30.7484 42.4839 25.2121 42.493 19.6758 42.4749C18.1147 42.4749 16.5537 42.4658 14.9926 42.4476C15.1923 42.6836 15.392 42.9196 15.5916 43.1556C15.5916 42.965 15.5644 42.8016 15.5372 42.6382C15.5372 42.7744 15.5372 42.5566 15.5372 42.5293C15.5553 42.493 15.5644 42.4477 15.5644 42.3932C15.5644 42.3932 15.5916 42.2571 15.5644 42.3387C15.5372 42.4204 15.5916 42.2298 15.6188 42.2026C15.6188 42.1754 15.7005 41.9575 15.6733 42.0665C15.6189 42.1481 15.7278 41.9575 15.7278 41.9303C15.7822 41.8577 15.8276 41.7851 15.8639 41.7125C15.755 41.8759 15.9184 41.658 15.9456 41.6308C16 41.5763 16.0454 41.531 16.0817 41.4947C16.118 41.4584 16.1543 41.4311 16.1906 41.413C16.0545 41.4947 16.1634 41.413 16.1906 41.413C16.2632 41.3585 16.3359 41.3041 16.4085 41.2496C16.4629 41.2133 16.5264 41.1679 16.5991 41.1135C16.6354 41.1135 16.6626 41.1044 16.6807 41.0862C16.6535 41.0862 16.5718 41.1407 16.708 41.059C16.8532 40.9864 17.0075 40.932 17.1708 40.8957C17.2434 40.8594 17.3251 40.8321 17.4159 40.814C17.307 40.8412 17.4976 40.814 17.5248 40.7867C17.6882 40.7686 17.8515 40.7595 18.0149 40.7595C18.4868 40.7595 18.9588 40.7595 19.4307 40.7595C20.3746 40.7595 21.3185 40.7595 22.2624 40.7595C24.1684 40.7414 26.0652 40.7414 27.953 40.7595C28.8969 40.7595 29.8408 40.7595 30.7847 40.7595C31.2566 40.7595 31.7286 40.7595 32.2005 40.7595C32.6362 40.7595 32.9357 40.7323 33.2896 40.7867C33.4893 40.823 33.6799 40.8775 33.8614 40.9501C33.8796 40.9501 33.9068 40.9592 33.9431 40.9773C33.8614 40.9501 33.9976 40.9773 33.9976 41.0046C34.0883 41.0409 34.17 41.0772 34.2426 41.1135C34.5966 41.3041 34.8144 41.4674 35.0322 41.7125C35.3045 42.012 35.359 42.1209 35.5223 42.4749C35.5496 42.611 35.5223 42.5293 35.5223 42.5021C35.5223 42.5384 35.5314 42.5747 35.5495 42.611C35.5677 42.7018 35.5768 42.8016 35.5768 42.9105C35.5768 42.9922 35.5768 42.8833 35.5768 42.8833C35.5768 42.9378 35.5768 42.9922 35.5768 43.0467C35.5495 43.1283 35.5223 43.21 35.5223 43.2917C35.5223 43.6457 35.7129 43.9996 36.1486 43.9724C36.5025 43.9452 36.8837 43.5368 36.8837 43.1556C36.8837 42.9922 36.9382 42.8561 36.9382 42.6927C36.9382 42.4749 36.9382 42.257 36.8837 42.0392C36.802 41.658 36.6387 41.3041 36.4208 40.9501C36.0124 40.3511 35.4134 39.861 34.7327 39.5887C34.3788 39.4253 33.9976 39.3164 33.5891 39.262C33.1263 39.2075 32.6362 39.2347 32.1733 39.2347C31.1386 39.2347 30.1131 39.2347 29.0966 39.2347C27.0454 39.2347 25.0033 39.2347 22.9703 39.2347C21.9357 39.2347 20.9101 39.2347 19.8936 39.2347C18.9679 39.2347 18.0421 39.1531 17.1436 39.3981C16.3268 39.6159 15.5099 40.1333 14.9926 40.7867C14.6931 41.1679 14.4208 41.5763 14.3119 42.0392C14.2302 42.2843 14.1758 42.5021 14.1758 42.7472C14.1758 42.8742 14.1758 43.0013 14.1758 43.1283C14.1758 43.21 14.2302 43.564 14.2302 43.2917C14.2302 43.6729 14.3936 43.9724 14.8293 43.9724C20.3656 43.9906 25.9019 43.9996 31.4382 43.9996C32.9992 43.9815 34.5693 43.9724 36.1486 43.9724C36.5297 43.9724 36.8565 43.5095 36.8837 43.1556C36.9382 42.7472 36.6931 42.4476 36.2847 42.4476Z" fill="#1499FC"/>
<path d="M10.9324 14.7027C9.95221 14.5757 8.97202 14.5757 7.99182 14.7027C7.774 14.7299 7.63786 14.9205 7.63786 15.1384C7.60156 18.3876 7.59249 21.6459 7.61064 24.9132C7.61064 25.839 7.61971 26.7647 7.63786 27.6905C7.63786 27.8266 7.69231 28.0444 7.85568 28.0716C8.83588 28.1806 9.81607 28.1806 10.7963 28.0716C11.0141 28.0444 11.1502 27.8266 11.1502 27.636C11.1684 24.3687 11.1775 21.1104 11.1775 17.8612C11.1775 16.9354 11.1684 16.0097 11.1502 15.0839C11.1502 14.5393 10.4696 14.621 10.4696 15.1384C10.4877 18.3876 10.4968 21.6459 10.4968 24.9132C10.4786 25.839 10.4696 26.7647 10.4696 27.6905C10.5966 27.5452 10.7146 27.4 10.8235 27.2548C9.92499 27.3637 8.99924 27.3637 8.0735 27.2548C8.14611 27.3819 8.2278 27.5089 8.31855 27.636C8.28225 24.3687 8.27318 21.1104 8.29133 17.8612C8.29133 16.9354 8.3004 16.0097 8.31855 15.0839C8.19149 15.2291 8.07351 15.3743 7.9646 15.5196C8.86311 15.3834 9.78885 15.3834 10.7146 15.4923C10.9324 15.5195 11.0958 15.3834 11.1502 15.1928C11.1775 15.0295 11.123 14.7299 10.9324 14.7027Z" fill="#1499FC"/>
<path d="M16.2988 20.1209C15.3549 20.0483 14.411 20.0483 13.4671 20.1209C13.2493 20.1209 13.1132 20.3659 13.1132 20.5565C13.0769 22.9344 13.0769 25.3123 13.1132 27.6903C13.1132 27.8808 13.2221 28.0442 13.4399 28.0714C14.3838 28.144 15.3277 28.144 16.2716 28.0714C16.4894 28.0442 16.6255 27.8264 16.6255 27.6358C16.6619 25.2579 16.6619 22.88 16.6255 20.5021C16.6255 19.9575 15.9449 20.0664 15.9449 20.5565C15.9812 22.9344 15.9812 25.3123 15.9449 27.6903C16.0719 27.545 16.1899 27.3998 16.2988 27.2546C15.3549 27.3091 14.411 27.3091 13.4671 27.2546C13.576 27.3817 13.6849 27.5087 13.7939 27.6358C13.7576 25.2579 13.7576 22.88 13.7939 20.5021C13.6668 20.6473 13.5488 20.7925 13.4399 20.9377C14.3838 20.8651 15.3277 20.8651 16.2716 20.9377C16.7072 20.9649 16.7889 20.1481 16.2988 20.1209Z" fill="#1499FC"/>
<path d="M22.2888 18.3513C21.1634 18.2787 20.047 18.2787 18.9398 18.3513C18.722 18.3786 18.5858 18.5964 18.5858 18.787C18.5495 21.7458 18.5495 24.7136 18.5858 27.6905C18.5858 27.8811 18.6947 28.0445 18.9126 28.0717C20.0198 28.1625 21.1271 28.1625 22.2343 28.0717C22.4521 28.0445 22.5883 27.8267 22.6155 27.6361C22.6337 24.6773 22.6337 21.7095 22.6155 18.7325C22.5883 18.2152 21.9076 18.2969 21.9076 18.787C21.9439 21.7458 21.9439 24.7136 21.9076 27.6905C22.0347 27.5453 22.1617 27.4001 22.2888 27.2549C21.1634 27.3275 20.047 27.3275 18.9398 27.2549C19.0487 27.3819 19.1576 27.509 19.2665 27.6361C19.2302 24.6773 19.2302 21.7095 19.2665 18.7325C19.1395 18.8777 19.0215 19.023 18.9126 19.1682C20.0198 19.0956 21.1271 19.0956 22.2343 19.1682C22.67 19.2226 22.7517 18.4058 22.2888 18.3513Z" fill="#1499FC"/>
<path d="M27.7615 22.1365C26.636 22.0821 25.5197 22.0821 24.4124 22.1365C24.2218 22.1365 24.0585 22.3816 24.0585 22.5722C24.0222 24.2785 24.0222 25.9848 24.0585 27.6911C24.0585 27.8817 24.1674 28.045 24.3852 28.0722C25.4925 28.1267 26.6088 28.1267 27.7342 28.0722C27.9248 28.0722 28.0882 27.8272 28.0882 27.6366C28.1063 25.9303 28.1063 24.224 28.0882 22.5177C28.0609 21.9732 27.3803 22.0821 27.4075 22.5722C27.4256 24.2785 27.4256 25.9848 27.4075 27.6911C27.5164 27.5458 27.6344 27.4006 27.7615 27.2554C26.636 27.2917 25.5197 27.2917 24.4124 27.2554C24.5213 27.3825 24.6303 27.5095 24.7392 27.6366C24.7029 25.9303 24.7029 24.224 24.7392 22.5177C24.6303 22.663 24.5123 22.8082 24.3852 22.9534C25.4925 22.8989 26.6088 22.8989 27.7342 22.9534C28.1426 22.9806 28.2243 22.1638 27.7615 22.1365Z" fill="#1499FC"/>
<path d="M35.6835 7.37849C35.6653 8.50391 35.6562 9.62934 35.6562 10.7548C35.6562 10.9454 35.7651 11.1359 35.983 11.1359C37.0449 11.1359 38.0523 11.735 38.5152 12.7152C39.0325 13.7498 38.8419 15.0296 37.9706 15.8464C37.8072 15.9825 37.6983 16.282 37.8889 16.4999C38.6513 17.3348 39.4137 18.1698 40.176 19.0048C40.3122 19.1682 40.5028 19.1138 40.6389 18.9776C42.3543 17.3439 43.2255 14.9206 42.7899 12.6063C42.4359 10.5914 41.1835 8.73989 39.3864 7.75968C38.379 7.1879 37.2082 6.88839 36.0374 6.94284C35.629 6.97007 35.5473 7.78691 36.0102 7.75968C37.8889 7.678 39.6587 8.57653 40.8295 9.99238C42.0548 11.5171 42.5176 13.532 42.0275 15.4107C41.7008 16.5815 41.0473 17.589 40.2033 18.4331C40.3666 18.4149 40.5209 18.4058 40.6661 18.4058C39.9038 17.5527 39.1414 16.7086 38.379 15.8736C38.3427 16.0914 38.3155 16.3093 38.2973 16.5271C39.4137 15.4652 39.8221 13.8043 39.1959 12.3612C38.6513 11.1087 37.3716 10.2919 36.0102 10.3191C36.1191 10.4462 36.228 10.5732 36.3369 10.7003C36.3369 9.57488 36.346 8.44945 36.3642 7.32403C36.3914 6.77947 35.7107 6.88838 35.6835 7.37849Z" fill="#1499FC"/>
<path d="M29.9104 11.762C30.9451 12.1976 31.9888 12.6423 33.0416 13.0961C33.1777 13.1506 33.3956 12.9872 33.45 12.8783C33.8857 11.8164 34.8931 11.1629 36.0639 11.1357C36.2545 11.1357 36.4178 10.8907 36.4178 10.7001C36.4178 9.57465 36.3997 8.44922 36.3634 7.32379C36.3634 7.1332 36.2817 6.94261 36.0367 6.94261C33.3139 6.88816 30.7817 8.6852 29.7198 11.1629C29.6381 11.3535 29.6381 11.5986 29.8287 11.7075C29.9921 11.8164 30.2099 11.7075 30.2916 11.5441C31.2718 9.25698 33.5317 7.70499 36.0094 7.75945C35.9005 7.63239 35.7916 7.50532 35.6827 7.37825C35.719 8.50368 35.7372 9.62911 35.7372 10.7545C35.8461 10.6093 35.964 10.4641 36.0911 10.3189C34.6753 10.3461 33.4228 11.2174 32.8782 12.4971C33.0053 12.4245 33.1324 12.3519 33.2594 12.2793C32.2066 11.8436 31.1538 11.3989 30.101 10.9451C29.7198 10.7818 29.502 11.5714 29.9104 11.762Z" fill="#1499FC"/>
<path d="M30.2111 16.9899C31.2458 16.527 32.2804 16.0369 33.2879 15.5468C33.5329 15.4379 33.6418 15.1656 33.5329 14.9478C33.2334 14.2671 33.1789 13.5047 33.4512 12.824C33.5601 12.6062 33.5329 12.3611 33.2879 12.2522C32.226 11.7893 31.1913 11.3537 30.1567 10.918C29.9933 10.8636 29.8027 11.027 29.7483 11.1359C28.9859 12.9874 29.0131 15.0022 29.8572 16.8265C30.075 17.3166 30.6468 16.7721 30.4562 16.3909C29.7483 14.8389 29.6666 13.0963 30.32 11.5171C30.193 11.5897 30.0659 11.6623 29.9389 11.7349C31.0007 12.1433 32.0354 12.6062 33.07 13.0418C33.0156 12.8422 32.9521 12.6425 32.8795 12.4428C32.4983 13.3958 32.4983 14.4577 32.9339 15.3834C33.0065 15.1838 33.0791 14.9841 33.1517 14.7844C32.1443 15.2745 31.1097 15.7646 30.075 16.2275C29.8844 16.3092 29.7755 16.527 29.8027 16.7448C29.8572 16.9082 30.0205 17.0988 30.2111 16.9899Z" fill="#1499FC"/>
<path d="M36.0662 16.5544C34.9771 16.5272 33.9697 15.9009 33.5068 14.9207C33.4524 14.7846 33.289 14.6757 33.1256 14.7301C32.091 15.2202 31.0563 15.7104 30.0217 16.2005C29.8038 16.3094 29.6677 16.5817 29.7766 16.7995C30.4573 18.2698 31.6553 19.4406 33.0984 20.1213C34.6776 20.8564 36.4202 20.9926 38.0811 20.448C39.034 20.1485 39.9053 19.6312 40.6405 18.9777C40.8038 18.8143 40.9127 18.5148 40.7494 18.3242C39.987 17.4892 39.2156 16.6543 38.435 15.8193C38.3261 15.7103 38.1355 15.6831 38.0266 15.792C37.4548 16.2821 36.8014 16.5272 36.0662 16.5544C35.6306 16.5544 35.5489 17.3713 36.039 17.3713C36.883 17.344 37.6999 17.0445 38.3261 16.4727C38.1809 16.4546 38.0448 16.4364 37.9177 16.4183C38.6982 17.2533 39.4697 18.0883 40.2321 18.9233C40.2684 18.7054 40.3047 18.4876 40.341 18.2698C39.0885 19.3589 37.5093 20.0124 35.8756 19.9579C34.3781 19.9307 32.935 19.3044 31.8459 18.3242C31.2469 17.7797 30.7296 17.099 30.4028 16.3638C30.3121 16.5635 30.2304 16.7722 30.1578 16.9901C31.2106 16.5 32.2543 16.0099 33.289 15.5198C33.1619 15.4653 33.0349 15.4108 32.9078 15.3564C33.4524 16.5816 34.6776 17.344 36.039 17.3713C36.4474 17.3713 36.5291 16.5544 36.0662 16.5544Z" fill="#1499FC"/>
<path d="M10.1725 17.2901C10.3359 17.0723 10.4992 16.9361 10.7715 16.7727C10.9621 16.6638 11.0166 16.3915 10.9076 16.2282C10.7715 16.0104 10.5265 15.9831 10.3359 16.0648C10.0364 16.2282 9.76408 16.4732 9.57348 16.7183C9.43734 16.9089 9.41012 17.1539 9.57348 17.3173C9.73685 17.4534 10.0091 17.4807 10.1725 17.2901Z" fill="#1499FC"/>
<path d="M10.3896 19.0052C10.4441 18.9689 10.4894 18.9235 10.5258 18.8691C10.5621 18.8509 10.5893 18.8328 10.6074 18.8146C10.6619 18.7602 10.5258 18.8691 10.6347 18.7874C10.7436 18.7148 10.8525 18.6513 10.9614 18.5968C11.152 18.4879 11.2065 18.1884 11.0975 18.025C10.9614 17.8344 10.7163 17.7528 10.5258 17.8889C10.2535 18.025 10.0084 18.2156 9.81784 18.4335C9.65447 18.5968 9.65447 18.8691 9.81784 19.0325C9.9812 19.1686 10.2535 19.1686 10.3896 19.0052Z" fill="#1499FC"/>
<path d="M10.6631 20.721C10.6631 20.6847 10.6812 20.6485 10.7175 20.6121C10.7175 20.5849 10.772 20.5305 10.772 20.5032C10.772 20.5305 10.7175 20.5577 10.7448 20.5305C10.7629 20.5123 10.7811 20.4942 10.7992 20.476C10.8355 20.4397 10.8718 20.4125 10.9081 20.3943C11.0715 20.2309 11.0443 19.9314 10.8809 19.7953C10.6903 19.6319 10.4725 19.6592 10.3091 19.8225C10.1457 19.9587 10.0096 20.122 9.92793 20.3399C9.87348 20.4216 9.87347 20.5305 9.90069 20.6394C9.92792 20.7483 10.0096 20.8572 10.0913 20.8844C10.2819 20.9933 10.5542 20.9389 10.6631 20.721Z" fill="#1499FC"/>
<path d="M10.4169 22.6812C10.6165 22.427 10.8253 22.182 11.0431 21.946C11.1792 21.7826 11.1792 21.5103 11.0159 21.347C10.8797 21.2108 10.5802 21.2108 10.4441 21.3742C10.2262 21.6102 10.0175 21.8552 9.81784 22.1094C9.65447 22.2727 9.65447 22.545 9.81784 22.6812C9.9812 22.8445 10.2535 22.8445 10.4169 22.6812Z" fill="#1499FC"/>
<path d="M10.2781 24.5864C10.4687 24.2325 10.7137 23.933 11.0404 23.6607C11.2038 23.5246 11.1766 23.2251 11.0132 23.0617C10.8499 22.8983 10.6048 22.9528 10.4414 23.0889C10.0875 23.3884 9.78796 23.7696 9.54291 24.2053C9.29786 24.6681 10.0058 25.0766 10.2781 24.5864Z" fill="#1499FC"/>
<path d="M10.4171 26.1657C10.5804 25.8934 10.7983 25.6756 11.0433 25.4578C11.2067 25.3216 11.1795 25.0221 11.0161 24.886C10.8527 24.7226 10.6077 24.7498 10.4443 24.886C10.1448 25.1583 9.89975 25.4305 9.68192 25.7573C9.54578 25.9479 9.65469 26.2202 9.84528 26.3291C10.0631 26.438 10.2809 26.3291 10.4171 26.1657Z" fill="#1499FC"/>
<path d="M15.4555 22.5451C15.7822 22.2002 16.118 21.8644 16.4629 21.5377C16.8441 21.1837 16.2451 20.6119 15.8639 20.9659C15.519 21.2926 15.1832 21.6284 14.8565 21.9733C14.4753 22.3273 15.0743 22.8991 15.4555 22.5451Z" fill="#1499FC"/>
<path d="M15.5905 24.0423C15.8446 23.8063 16.1078 23.5885 16.3801 23.3888C16.5707 23.2527 16.6523 23.0076 16.5162 22.817C16.4073 22.6264 16.135 22.5447 15.9444 22.6809C15.6177 22.9169 15.3 23.1801 14.9915 23.4705C14.8281 23.6339 14.8553 23.9061 14.9915 24.0695C15.182 24.2056 15.4271 24.2057 15.5905 24.0423Z" fill="#1499FC"/>
<path d="M15.6195 25.6218C15.8918 25.3495 16.1641 25.0772 16.4364 24.8049C16.8176 24.4237 16.2185 23.8519 15.8373 24.2331C15.5651 24.5054 15.2928 24.7777 15.0205 25.05C14.6393 25.4312 15.2383 26.0029 15.6195 25.6218Z" fill="#1499FC"/>
<path d="M15.6452 26.9827C15.8811 26.6923 16.1352 26.4291 16.4075 26.1931C16.5981 26.057 16.5437 25.7575 16.4075 25.6213C16.2169 25.458 15.9991 25.4852 15.8085 25.6213C15.5362 25.8573 15.2821 26.1205 15.0461 26.411C14.91 26.5743 14.8828 26.8466 15.0461 27.01C15.2095 27.1461 15.509 27.1461 15.6452 26.9827Z" fill="#1499FC"/>
<path d="M21.3321 20.6655C21.5771 20.4205 21.8494 20.2027 22.1489 20.0665C22.3667 19.9849 22.5029 19.7943 22.4212 19.5492C22.3667 19.3586 22.1217 19.168 21.9311 19.2769C21.4682 19.4675 21.087 19.7126 20.7331 20.0938C20.3791 20.475 20.9781 21.0467 21.3321 20.6655Z" fill="#1499FC"/>
<path d="M21.4167 22.2181C21.689 21.8913 21.9613 21.6463 22.3152 21.4557C22.7781 21.1834 22.3424 20.4755 21.8796 20.7478C21.4711 20.9656 21.1172 21.2923 20.8177 21.6463C20.6815 21.8097 20.6815 22.0547 20.8449 22.2181C20.981 22.3814 21.2805 22.3814 21.4167 22.2181Z" fill="#1499FC"/>
<path d="M21.4438 23.6889C21.716 23.3985 22.0155 23.1534 22.3423 22.9537C22.8051 22.6815 22.3695 21.9735 21.9338 22.2458C21.5345 22.4818 21.1715 22.7722 20.8447 23.1171C20.4635 23.4983 21.0626 24.0701 21.4438 23.6889Z" fill="#1499FC"/>
<path d="M21.363 25.2677C21.7079 24.9955 22.0437 24.7141 22.3704 24.4237C22.561 24.2875 22.5066 23.988 22.3704 23.8519C22.1798 23.6613 21.962 23.7157 21.7714 23.8519C21.4447 24.1423 21.1089 24.4237 20.764 24.696C20.5734 24.8321 20.6279 25.1316 20.764 25.2677C20.9546 25.4583 21.1724 25.4039 21.363 25.2677Z" fill="#1499FC"/>
<path d="M21.3089 26.6014C21.6356 26.3655 21.9623 26.1204 22.2891 25.8663C22.4797 25.7301 22.5614 25.5123 22.4252 25.2945C22.3163 25.1311 22.044 25.0222 21.8534 25.1583C21.5267 25.4125 21.2 25.6575 20.8732 25.8935C20.7099 26.0296 20.6282 26.2475 20.7371 26.4653C20.846 26.6287 21.1455 26.7376 21.3089 26.6014Z" fill="#1499FC"/>
<path d="M26.5352 24.2869C26.9164 24.0691 27.2976 23.8512 27.6788 23.6334C28.1416 23.3611 27.706 22.6532 27.2431 22.9255C26.8619 23.1433 26.4808 23.3611 26.0996 23.579C25.6639 23.8512 26.0723 24.5592 26.5352 24.2869Z" fill="#1499FC"/>
<path d="M26.7266 25.8385C27.1078 25.6207 27.4981 25.3938 27.8974 25.1578C28.3331 24.8856 27.9246 24.1776 27.4618 24.4499C27.0806 24.6859 26.6903 24.9128 26.291 25.1306C25.8553 25.4029 26.2637 26.1108 26.7266 25.8385Z" fill="#1499FC"/>
<path d="M26.7543 27.2281C27.0628 27.0647 27.3533 26.8741 27.6256 26.6563C27.8161 26.5202 27.8978 26.3023 27.7617 26.0845C27.6528 25.9212 27.3805 25.8122 27.2171 25.9484C26.9267 26.1662 26.6272 26.3568 26.3186 26.5202C25.8557 26.7924 26.2914 27.5004 26.7543 27.2281Z" fill="#1499FC"/>
<path d="M36.3942 10.0743C37.1385 9.43894 37.9281 8.85807 38.7631 8.33166C39.2259 8.05938 38.7903 7.35146 38.3274 7.62374C37.438 8.2046 36.5939 8.83084 35.7952 9.50246C35.6046 9.6386 35.6591 9.93812 35.7952 10.0743C35.9858 10.2649 36.2036 10.2104 36.3942 10.0743Z" fill="#1499FC"/>
<path d="M37.5067 11.1636C38.4325 10.5101 39.3491 9.85665 40.2567 9.20318C40.6924 8.87644 40.2567 8.16852 39.8483 8.49526C38.9226 9.14873 37.9968 9.80219 37.0711 10.4557C36.6354 10.7824 37.0711 11.4903 37.5067 11.1636Z" fill="#1499FC"/>
<path d="M38.5995 12.1437C39.1169 11.9804 39.5253 11.6264 39.9609 11.3269C40.4147 11.0002 40.8685 10.6734 41.3223 10.3467C41.7307 10.0472 41.3223 9.33926 40.8867 9.63877C40.451 9.94735 40.0245 10.2559 39.607 10.5645C39.2258 10.8368 38.8174 11.1908 38.3817 11.3541C37.8916 11.5447 38.1094 12.3343 38.5995 12.1437Z" fill="#1499FC"/>
<path d="M39.5222 13.6951C40.3753 13.0598 41.2557 12.4608 42.1633 11.8981C42.6262 11.6258 42.1905 10.9179 41.7276 11.1901C40.8201 11.7529 39.9397 12.3519 39.0866 12.9872C38.896 13.1233 38.8143 13.3684 38.9504 13.559C39.0593 13.7496 39.3316 13.8313 39.5222 13.6951Z" fill="#1499FC"/>
<path d="M39.223 15.4113C40.3484 14.7941 41.4375 14.1134 42.4903 13.3692C42.926 13.0696 42.4903 12.3617 42.0547 12.6612C41.0019 13.4055 39.9128 14.0862 38.7874 14.7033C38.3245 14.9756 38.7601 15.6835 39.223 15.4113Z" fill="#1499FC"/>
<path d="M39.004 17.0988C40.1838 16.3909 41.3728 15.7192 42.5708 15.0839C43.0337 14.8389 42.598 14.131 42.1352 14.376C40.9371 15.0113 39.7482 15.683 38.5683 16.3909C38.1327 16.6632 38.5411 17.3711 39.004 17.0988Z" fill="#1499FC"/>
<path d="M40.0685 18.1066C40.8036 17.7799 41.4571 17.2898 42.1106 16.8541C42.5734 16.5818 42.1378 15.8739 41.6749 16.1462C41.3663 16.364 41.0487 16.5728 40.722 16.7724C40.4224 16.963 40.1502 17.1536 39.8234 17.2898C39.6328 17.3987 39.4967 17.5893 39.5512 17.8071C39.6056 17.9977 39.8507 18.1883 40.0685 18.1066Z" fill="#1499FC"/>
<path d="M32.1154 17.6713C32.6328 17.6713 32.6328 16.8545 32.1154 16.8545C31.5709 16.8545 31.5709 17.6713 32.1154 17.6713Z" fill="#1499FC"/>
<path d="M33.6424 17.8071C34.1597 17.8071 34.1597 16.9902 33.6151 16.9902C33.0978 16.9902 33.0978 17.8071 33.6424 17.8071Z" fill="#1499FC"/>
<path d="M33.7225 19.2778C34.267 19.2778 34.2398 18.4609 33.7225 18.4609C33.1779 18.4609 33.2052 19.2778 33.7225 19.2778Z" fill="#1499FC"/>
<path d="M35.4373 18.3247C35.9819 18.3247 35.9547 17.5078 35.4373 17.5078C34.8928 17.5078 34.92 18.3247 35.4373 18.3247Z" fill="#1499FC"/>
<path d="M35.74 19.5229C36.2573 19.5229 36.2573 18.7061 35.7128 18.7061C35.1955 18.7061 35.1955 19.5229 35.74 19.5229Z" fill="#1499FC"/>
<path d="M36.9353 18.3784C37.4526 18.3784 37.4527 17.5615 36.9081 17.5615C36.3908 17.5615 36.3908 18.3784 36.9353 18.3784Z" fill="#1499FC"/>
<path d="M37.6736 19.3588C38.1909 19.3588 38.1909 18.542 37.6464 18.542C37.1291 18.542 37.129 19.3588 37.6736 19.3588Z" fill="#1499FC"/>
<path d="M38.3264 18.4329C38.8709 18.4329 38.8437 17.5889 38.3264 17.5889C37.7818 17.5889 37.7818 18.4329 38.3264 18.4329Z" fill="#1499FC"/>
<path d="M32.3079 10.8089C32.5257 10.4005 32.9341 10.1282 33.3153 9.85596C33.6965 9.55646 34.1594 9.22971 34.6495 9.14803C34.8673 9.1208 35.0579 8.98466 35.0579 8.73961C35.0579 8.54901 34.8673 8.30396 34.6495 8.33119C33.9688 8.4401 33.4242 8.73961 32.8797 9.14803C32.3896 9.50199 31.8723 9.85596 31.5728 10.4277C31.3277 10.8906 32.0628 11.299 32.3079 10.8089Z" fill="#1499FC"/>
</svg>
