<svg width="39" height="44" viewBox="0 0 39 44" fill="none" xmlns="http://www.w3.org/2000/svg">
<path d="M5.98725 22.1676C4.79878 22.1676 3.6103 22.1676 2.42183 22.1676C2.51209 22.2729 2.60236 22.3782 2.69262 22.4835C2.69262 21.6109 2.69262 20.7384 2.69262 19.8658C2.58731 19.9862 2.48953 20.1065 2.39926 20.2269C3.58774 20.2118 4.77621 20.2043 5.96469 20.2043C5.87442 20.099 5.78416 19.9937 5.6939 19.8884C5.6939 20.776 5.6939 21.6561 5.6939 22.5286C5.6939 22.9799 6.25805 22.9122 6.25805 22.506C6.25805 21.6184 6.25805 20.7309 6.25805 19.8433C6.25805 19.6853 6.16778 19.5273 5.98725 19.5273C4.79878 19.5273 3.6103 19.5349 2.42183 19.5499C2.2413 19.5499 2.12847 19.753 2.12847 19.911C2.11343 20.7835 2.11343 21.6561 2.12847 22.5286C2.12847 22.7091 2.21873 22.8445 2.39926 22.8445C3.58774 22.8445 4.77621 22.8521 5.96469 22.8671C6.32574 22.8671 6.37088 22.1676 5.98725 22.1676Z" fill="#1499FC"/>
<path d="M5.98769 26.9968C4.79922 26.9817 3.61074 26.9742 2.42226 26.9742C2.51253 27.0795 2.60279 27.1848 2.69306 27.2901C2.69306 26.4025 2.69306 25.5225 2.69306 24.6499C2.58775 24.7703 2.48996 24.8906 2.3997 25.011C3.58817 25.011 4.77665 25.0185 5.96512 25.0335C5.87486 24.9282 5.7846 24.8154 5.69433 24.695C5.69433 25.5826 5.69433 26.4702 5.69433 27.3578C5.69433 27.7866 6.28105 27.7189 6.25848 27.3127C6.25848 26.4251 6.25848 25.545 6.25848 24.6725C6.25848 24.4919 6.16822 24.334 5.98769 24.334C4.79922 24.334 3.61074 24.334 2.42226 24.334C2.24174 24.334 2.12891 24.5371 2.12891 24.695C2.12891 25.5676 2.12891 26.4477 2.12891 27.3353C2.12891 27.4932 2.21917 27.6512 2.3997 27.6512C3.58817 27.6512 4.77665 27.6587 5.96512 27.6737C6.32618 27.6737 6.39388 26.9968 5.98769 26.9968Z" fill="#1499FC"/>
<path d="M6.03369 31.8035C4.84522 31.7885 3.65674 31.7734 2.46827 31.7584C2.55853 31.8637 2.64879 31.969 2.73906 32.0743C2.72401 31.2018 2.71649 30.3217 2.71649 29.4341C2.61119 29.5544 2.5134 29.6748 2.42313 29.7951C3.61161 29.8102 4.80009 29.8252 5.98856 29.8403C5.8983 29.735 5.80803 29.6297 5.71777 29.5243C5.71777 30.3969 5.72529 31.277 5.74033 32.1646C5.74033 32.6159 6.30448 32.5256 6.30448 32.1194C6.28944 31.2318 6.28192 30.3518 6.28192 29.4792C6.28192 29.3213 6.19165 29.1633 6.01112 29.1633C4.82265 29.1482 3.63418 29.1332 2.4457 29.1182C2.26517 29.1182 2.15234 29.3438 2.15234 29.4792C2.15234 30.3668 2.15986 31.2469 2.17491 32.1194C2.17491 32.2774 2.26517 32.4354 2.4457 32.4354C3.63418 32.4504 4.82265 32.4654 6.01112 32.4805C6.34961 32.4805 6.41731 31.8035 6.03369 31.8035Z" fill="#1499FC"/>
<path d="M6.07666 36.6101C4.88819 36.5951 3.70723 36.5725 2.5338 36.5425C2.62407 36.6478 2.71433 36.7531 2.80459 36.8584C2.78955 35.9858 2.77451 35.1133 2.75946 34.2407C2.6692 34.3611 2.57141 34.4814 2.4661 34.6018C3.65458 34.6168 4.84305 34.6319 6.03153 34.6469C5.94126 34.5416 5.851 34.4363 5.76074 34.331C5.76074 35.2186 5.76826 36.0987 5.7833 36.9712C5.7833 37.4225 6.34745 37.3548 6.34745 36.9261C6.33241 36.0535 6.32489 35.1735 6.32489 34.2859C6.32489 34.1279 6.23462 33.9699 6.0541 33.9699C4.86562 33.9549 3.67715 33.9398 2.48867 33.9248C2.33071 33.9248 2.19531 34.1279 2.19531 34.2859C2.21036 35.1584 2.2254 36.031 2.24044 36.9035C2.24044 37.084 2.33071 37.2194 2.51123 37.2194C3.68467 37.2495 4.86562 37.2721 6.0541 37.2871C6.41515 37.3097 6.46028 36.6327 6.07666 36.6101Z" fill="#1499FC"/>
<path d="M6.14697 41.4385C4.97354 41.4084 3.80011 41.3783 2.62668 41.3482C2.71694 41.4535 2.80721 41.5588 2.89747 41.6641C2.88243 40.7916 2.86738 39.9115 2.85234 39.0239C2.74703 39.1443 2.64172 39.2646 2.53642 39.385C3.72489 39.4151 4.90584 39.4376 6.07927 39.4527C5.98901 39.3474 5.89875 39.2421 5.80848 39.1368C5.82353 40.0243 5.83857 40.9044 5.85361 41.777C5.85361 42.2283 6.41776 42.1606 6.41776 41.7544C6.40272 40.8668 6.38768 39.9792 6.37263 39.0916C6.37263 38.9337 6.28237 38.7757 6.10184 38.7757C4.92841 38.7607 3.74746 38.7381 2.55898 38.708C2.40102 38.708 2.26562 38.9111 2.26562 39.0691C2.28067 39.9416 2.30324 40.8217 2.33332 41.7093C2.33332 41.8672 2.42359 42.0252 2.60411 42.0252C3.77755 42.0553 4.95097 42.0854 6.12441 42.1155C6.48546 42.1155 6.53059 41.4385 6.14697 41.4385Z" fill="#1499FC"/>
<path d="M35.7524 22.1676C34.564 22.1676 33.3755 22.1676 32.187 22.1676C32.2773 22.2729 32.3675 22.3857 32.4578 22.506C32.4578 21.6184 32.4503 20.7309 32.4352 19.8433C32.345 19.9636 32.2472 20.084 32.1419 20.2043C33.3304 20.2043 34.5264 20.2118 35.7299 20.2269C35.6396 20.1216 35.5493 20.0163 35.4591 19.911C35.4591 20.7835 35.4591 21.6561 35.4591 22.5286C35.4591 22.9799 36.0232 22.9122 36.0232 22.4835C36.0232 21.6109 36.0232 20.7384 36.0232 19.8658C36.0232 19.6853 35.933 19.5499 35.7524 19.5499C34.564 19.5349 33.368 19.5273 32.1644 19.5273C32.0065 19.5273 31.8711 19.7304 31.8711 19.8884C31.8711 20.776 31.8711 21.6561 31.8711 22.5286C31.8711 22.7091 31.9614 22.8671 32.1419 22.8671C33.3454 22.8521 34.5414 22.8445 35.7299 22.8445C36.0684 22.8445 36.1361 22.1676 35.7524 22.1676Z" fill="#1499FC"/>
<path d="M35.7299 26.9742C34.5414 26.9742 33.3529 26.9817 32.1644 26.9968C32.2547 27.1021 32.345 27.2074 32.4352 27.3127C32.4352 26.4251 32.4352 25.545 32.4352 24.6725C32.345 24.7928 32.2472 24.9132 32.1419 25.0335C33.3304 25.0185 34.5264 25.011 35.7299 25.011C35.6396 24.9057 35.5493 24.8003 35.4591 24.695C35.444 25.5676 35.4365 26.4477 35.4365 27.3353C35.4365 27.7866 36.0007 27.6963 36.0007 27.2901C36.0157 26.4176 36.0232 25.5375 36.0232 24.6499C36.0232 24.4919 35.933 24.334 35.7524 24.334C34.564 24.334 33.368 24.334 32.1644 24.334C32.0065 24.334 31.8711 24.5596 31.8711 24.695C31.8711 25.5826 31.8711 26.4702 31.8711 27.3578C31.8711 27.5158 31.9614 27.6737 32.1419 27.6737C33.3304 27.6587 34.5188 27.6512 35.7073 27.6512C36.0684 27.6512 36.1135 26.9742 35.7299 26.9742Z" fill="#1499FC"/>
<path d="M35.6839 31.7584C34.5104 31.7734 33.3295 31.7885 32.141 31.8035C32.2313 31.9088 32.3215 32.0141 32.4118 32.1194C32.4118 31.2469 32.4193 30.3668 32.4344 29.4792C32.3291 29.5996 32.2238 29.7199 32.1185 29.8403C33.3069 29.8252 34.4954 29.8177 35.6839 29.8177C35.5936 29.6974 35.5033 29.5845 35.4131 29.4792C35.4131 30.3668 35.4056 31.2469 35.3905 32.1194C35.3905 32.5708 35.9547 32.4805 35.9547 32.0743C35.9697 31.2018 35.9848 30.3292 35.9998 29.4567C35.9998 29.2761 35.887 29.1182 35.729 29.1182C34.5405 29.1332 33.3521 29.1482 32.1636 29.1633C31.9831 29.1633 31.8477 29.3664 31.8477 29.5243C31.8477 30.3969 31.8477 31.277 31.8477 32.1646C31.8477 32.3225 31.9379 32.4805 32.1185 32.4805C33.2919 32.4654 34.4728 32.4504 35.6613 32.4354C36.0224 32.4354 36.0901 31.7584 35.6839 31.7584Z" fill="#1499FC"/>
<path d="M35.64 36.5641C34.4516 36.5791 33.2631 36.5941 32.0746 36.6092C32.1799 36.7295 32.2777 36.8424 32.368 36.9477C32.368 36.0601 32.3755 35.1725 32.3905 34.2849C32.2852 34.4052 32.1874 34.5256 32.0972 34.6459C33.2706 34.6309 34.4516 34.6159 35.64 34.6008C35.5498 34.4955 35.4595 34.3902 35.3692 34.2849C35.3542 35.1574 35.3467 36.0375 35.3467 36.9251C35.3241 37.3539 35.8883 37.2862 35.9108 36.88C35.9259 35.9924 35.9334 35.1123 35.9334 34.2397C35.9334 34.0818 35.8431 33.9238 35.6626 33.9238C34.4892 33.9389 33.3082 33.9539 32.1197 33.969C31.9392 33.969 31.8264 34.1721 31.8264 34.33C31.8113 35.2176 31.7963 36.0977 31.7812 36.9702C31.7812 37.1508 31.8941 37.3087 32.052 37.3087C33.2405 37.2786 34.429 37.2561 35.6175 37.241C35.956 37.2185 36.0237 36.5415 35.64 36.5641Z" fill="#1499FC"/>
<path d="M35.5511 41.3482C34.3776 41.3783 33.1967 41.4084 32.0082 41.4385C32.0985 41.5438 32.1887 41.6491 32.279 41.7544C32.294 40.8668 32.3091 39.9867 32.3241 39.1142C32.2339 39.2345 32.1361 39.3549 32.0308 39.4752C33.2192 39.4452 34.4002 39.4151 35.5736 39.385C35.4834 39.2797 35.3931 39.1744 35.3028 39.0691C35.2878 39.9567 35.2727 40.8367 35.2577 41.7093C35.2351 42.1606 35.7993 42.0703 35.8219 41.6641C35.8369 40.7916 35.8519 39.919 35.867 39.0465C35.867 38.866 35.7767 38.708 35.5962 38.708C34.4228 38.7381 33.2418 38.7682 32.0533 38.7983C31.8954 38.7983 31.76 39.0014 31.76 39.1593C31.7449 40.0319 31.7299 40.9119 31.7148 41.7995C31.7148 41.9575 31.8051 42.1155 31.9856 42.1155C33.1741 42.0854 34.3551 42.0553 35.5285 42.0252C35.867 42.0252 35.9347 41.3482 35.5511 41.3482Z" fill="#1499FC"/>
<path d="M24.6506 28.7572C21.9577 27.4033 19.2573 26.0493 16.5494 24.6953C16.053 24.4471 15.5114 24.3117 14.9698 24.4471C14.4508 24.6051 13.9769 24.921 13.6835 25.3723C13.2999 25.9139 13.2773 26.5232 13.2773 27.1776C13.2773 27.9298 13.2773 28.682 13.2773 29.4342C13.2773 30.9386 13.2849 32.4355 13.2999 33.9248C13.2999 34.6018 13.2322 35.3013 13.503 35.9332C13.6835 36.3845 14.0672 36.7907 14.5185 37.0164C14.9924 37.242 15.5565 37.2872 16.053 37.1292C16.3914 37.0164 16.6848 36.8358 17.0007 36.6779C17.3317 36.5124 17.6702 36.3469 18.0162 36.1814C19.3551 35.5044 20.7015 34.8199 22.0555 34.1279C22.7174 33.7969 23.3869 33.4585 24.0639 33.1124C24.5829 32.8417 25.1019 32.5934 25.4404 32.0744C26.0046 31.2169 25.9594 29.9983 25.2599 29.2085C25.0794 29.028 24.8763 28.87 24.6506 28.7572C24.109 28.4639 23.748 29.5245 24.2444 29.7727C24.4475 29.8855 24.5378 29.9532 24.6732 30.1337C24.6957 30.1337 24.7634 30.224 24.7183 30.1563C24.7484 30.2014 24.7709 30.2466 24.786 30.2917C24.8161 30.3218 24.8386 30.3594 24.8537 30.4045C24.8687 30.4196 24.8763 30.4421 24.8763 30.4722C24.8537 30.382 24.9214 30.5399 24.8763 30.4722C24.8913 30.5174 24.9063 30.5625 24.9214 30.6076C24.9214 30.6528 24.944 30.743 24.9214 30.6528C24.944 30.743 24.944 30.8333 24.944 30.9461C24.944 31.0138 24.944 30.901 24.944 30.901C24.944 30.9311 24.944 30.9536 24.944 30.9687C24.9289 31.0138 24.9139 31.0665 24.8988 31.1266C24.8988 31.2169 24.944 31.0589 24.8988 31.1492C24.8838 31.1943 24.8612 31.2395 24.8311 31.2846C24.8311 31.3147 24.8236 31.3373 24.8086 31.3523C24.8086 31.3523 24.8537 31.2846 24.8311 31.3297C24.801 31.3749 24.7709 31.4125 24.7409 31.4426C24.7409 31.4651 24.6732 31.5554 24.6957 31.5328C24.7183 31.5103 24.6055 31.6005 24.5829 31.6231C24.5528 31.6532 24.5152 31.6833 24.4701 31.7134C24.4249 31.7585 24.4701 31.7359 24.4701 31.7134C24.455 31.7284 24.44 31.7434 24.4249 31.7585C24.2895 31.8262 24.1541 31.8939 24.0188 31.9616C23.3869 32.2775 22.7626 32.5934 22.1458 32.9094C20.8971 33.5412 19.656 34.173 18.4224 34.8049C17.8206 35.1058 17.2113 35.4142 16.5945 35.7301C16.3689 35.8429 16.0755 36.0235 15.8499 36.0686C15.6242 36.1137 15.4888 36.1363 15.2857 36.0912C14.9247 36.046 14.5862 35.8204 14.3831 35.527C14.3605 35.5044 14.2928 35.369 14.2702 35.3013C14.2552 35.2713 14.2477 35.2487 14.2477 35.2337C14.2326 35.1735 14.2176 35.1133 14.2025 35.0531C14.2025 35.1434 14.18 34.9854 14.18 34.9629C14.18 34.8876 14.18 34.8199 14.18 34.7598C14.18 34.5792 14.18 34.3987 14.18 34.2182C14.18 32.8492 14.1725 31.4727 14.1574 30.0886C14.1574 29.3966 14.1574 28.7121 14.1574 28.0351C14.1574 27.6891 14.1574 27.3431 14.1574 26.9971C14.1574 26.8466 14.1574 26.6887 14.1574 26.5232C14.1574 26.636 14.18 26.4781 14.18 26.4329C14.18 26.4104 14.2251 26.2524 14.18 26.3652C14.195 26.305 14.2176 26.2524 14.2477 26.2073C14.2477 26.1847 14.3154 26.0719 14.2702 26.1621C14.2853 26.117 14.3079 26.0719 14.3379 26.0267C14.3605 26.0042 14.4733 25.8913 14.4056 25.9365C14.5636 25.7785 14.6539 25.7108 14.8344 25.6205C15.0149 25.5529 15.1729 25.5077 15.3985 25.5077C15.5114 25.5077 15.7822 25.5528 15.9176 25.598C16.5268 25.8913 17.1361 26.2073 17.7228 26.5232C18.3547 26.8391 18.9865 27.155 19.6184 27.4709C20.8369 28.0878 22.063 28.7046 23.2966 29.3214C23.6126 29.4718 23.9285 29.6222 24.2444 29.7727C24.786 30.066 25.147 29.0054 24.6506 28.7572Z" fill="#1499FC"/>
<path d="M19.7984 21.3317C17.4966 21.3317 15.4206 19.8874 14.6082 17.7211C13.8409 15.5999 14.5179 13.1402 16.2555 11.7185C18.0382 10.2518 20.6107 10.0712 22.574 11.2672C24.5147 12.4407 25.6204 14.7649 25.1465 17.0215C24.7178 19.2104 22.8673 20.948 20.6559 21.2639C20.37 21.3091 20.0842 21.3317 19.7984 21.3317C19.4373 21.3317 19.3696 22.0312 19.7532 22.0086C22.3032 22.0086 24.5824 20.3613 25.4624 17.9919C26.3425 15.5773 25.5753 12.8243 23.6346 11.177C21.6713 9.55221 18.8506 9.34912 16.6843 10.6805C14.4954 11.9893 13.3445 14.6296 13.841 17.1344C14.3148 19.5715 16.3232 21.5573 18.7829 21.9409C19.1139 21.9861 19.4373 22.0086 19.7532 22.0086C20.1143 22.0312 20.182 21.3317 19.7984 21.3317Z" fill="#1499FC"/>
<path d="M25.5295 20.1135C25.5145 20.1435 25.4919 20.1736 25.4618 20.2037C25.4317 20.2489 25.3941 20.3015 25.349 20.3617C25.2437 20.482 25.1384 20.5949 25.0331 20.7002C24.9428 20.8055 24.845 20.9108 24.7397 21.0161C24.6946 21.0612 24.6495 21.0988 24.6043 21.1289C24.5742 21.159 24.5441 21.1891 24.5141 21.2192C24.4915 21.2192 24.3787 21.332 24.4238 21.2869C24.4464 21.2643 24.3335 21.3772 24.311 21.3997C24.2508 21.4298 24.1906 21.4674 24.1304 21.5126C24.0101 21.6028 23.8897 21.6931 23.7694 21.7833C23.649 21.8586 23.5287 21.9338 23.4083 22.009C23.3482 22.0391 23.288 22.0692 23.2278 22.0993C23.1977 22.1143 23.1751 22.1294 23.1601 22.1444C22.9796 22.2347 23.1827 22.1218 23.0924 22.167C21.9867 22.7085 20.8584 22.9568 19.6398 22.9342C18.4889 22.9116 17.3381 22.5732 16.3226 22.009C15.8262 21.7156 15.3523 21.3772 14.9687 20.9935C14.758 20.798 14.5549 20.5873 14.3594 20.3617C14.2691 20.2564 14.1864 20.1511 14.1111 20.0458C14.0434 19.9781 13.9983 19.8878 13.9081 19.8427C13.7952 19.7524 13.6373 19.775 13.5019 19.775C11.7116 19.775 9.92892 19.775 8.15373 19.775C7.86037 19.775 7.56701 20.136 7.56701 20.4294C7.55197 25.7249 7.57454 31.0279 7.63471 36.3384C7.64976 37.8578 7.6648 39.3698 7.67984 40.8742C7.67984 41.1901 7.81524 41.4158 8.15373 41.4158C11.0121 41.4609 13.878 41.491 16.7514 41.506C19.6248 41.5211 22.4906 41.5135 25.349 41.4834C26.9738 41.4684 28.591 41.4458 30.2007 41.4158C30.494 41.4158 30.7874 41.0547 30.7874 40.7839C30.8626 35.4734 30.9078 30.1628 30.9228 24.8523C30.9228 23.3479 30.9228 21.836 30.9228 20.3166C30.9228 20.0232 30.7874 19.775 30.4489 19.775C28.9746 19.775 27.5003 19.775 26.026 19.775C25.7101 19.775 25.4618 20.136 25.4393 20.4068C25.3941 20.7227 25.5972 20.9484 25.8906 20.9484C27.3649 20.9484 28.8467 20.9484 30.3361 20.9484C30.1706 20.7679 30.0126 20.5949 29.8622 20.4294C29.8622 25.7249 29.8396 31.0279 29.7945 36.3384C29.7795 37.8578 29.7644 39.3698 29.7494 40.8742C29.9449 40.6635 30.1405 40.4529 30.3361 40.2423C27.4627 40.2874 24.5893 40.3175 21.7159 40.3326C18.8575 40.3476 15.9916 40.3401 13.1182 40.31C11.4935 40.295 9.87626 40.2724 8.26656 40.2423C8.417 40.4228 8.57496 40.6034 8.74044 40.7839C8.66522 35.4734 8.62009 30.1628 8.60505 24.8523C8.60505 23.3479 8.60505 21.836 8.60505 20.3166C8.40947 20.5272 8.2139 20.7378 8.01833 20.9484C9.8537 20.9484 11.6891 20.9484 13.5244 20.9484C13.4041 20.9033 13.2912 20.8581 13.1859 20.813C14.3368 22.3926 16.0744 23.5435 18.0151 23.9497C20.0234 24.3559 22.1672 23.9722 23.9273 22.9116C24.8977 22.3249 25.7101 21.5351 26.387 20.6099C26.545 20.3843 26.5224 19.9781 26.2742 19.8427C25.9809 19.6621 25.6875 19.8878 25.5295 20.1135Z" fill="#1499FC"/>
<path d="M26.6354 17.7894C26.5602 18.0903 26.4624 18.3912 26.342 18.6921C26.3119 18.7522 26.2818 18.8199 26.2518 18.8951C26.2066 19.008 26.2292 18.9177 26.2518 18.8951C26.2367 18.9252 26.2217 18.9553 26.2066 18.9854C26.1314 19.1359 26.0487 19.2863 25.9584 19.4367C25.808 19.7075 25.6425 19.9708 25.4619 20.2265C25.5296 20.1137 25.3942 20.2717 25.3942 20.2942C25.3341 20.3544 25.2814 20.4146 25.2363 20.4748C25.131 20.5951 25.0257 20.7155 24.9204 20.8358C24.8151 20.9411 24.7022 21.0464 24.5819 21.1517C24.5367 21.1969 24.4841 21.242 24.4239 21.2872C24.4465 21.2872 24.5142 21.2195 24.4239 21.2872C24.3788 21.3323 24.3336 21.3699 24.2885 21.4C24.0478 21.5805 23.7996 21.7535 23.5438 21.919C23.2279 22.0995 23.1151 22.1672 22.7992 22.3252C22.4983 22.4455 22.1974 22.5508 21.8965 22.6411C21.3324 22.8216 20.7231 22.9119 20.0687 22.9345C19.4368 22.957 18.8275 22.8893 18.1957 22.7314C17.5413 22.5734 17.0448 22.3929 16.4807 22.077C16.2099 21.9265 15.9466 21.761 15.6909 21.5805C15.5705 21.5053 15.4502 21.415 15.3298 21.3097C15.1944 21.2194 15.1493 21.1743 15.0139 21.0389C13.9759 20.0686 13.2763 18.9403 12.9153 17.5412C12.8476 17.3607 12.6445 17.293 12.4865 17.293C9.40249 17.308 6.31848 17.3231 3.23446 17.3381C2.36191 17.3381 1.48935 17.3381 0.616803 17.3381C0.323446 17.3381 0.00752253 17.6992 0.00752253 17.9925C-0.00752146 21.2721 -1.52998e-06 24.5592 0.0300864 27.8538C0.0451304 31.1635 0.0827404 34.4657 0.142916 37.7603C0.188048 39.6107 0.233182 41.4611 0.278314 43.3115C0.278314 43.5598 0.526539 43.6952 0.729633 43.6952C5.52867 43.8456 10.3277 43.9434 15.1267 43.9885C19.9258 44.0186 24.7248 43.9885 29.5238 43.8983C32.2167 43.8531 34.9096 43.7854 37.6024 43.6952C37.8958 43.6952 38.1892 43.3341 38.1892 43.0633C38.2794 39.7837 38.3471 36.5041 38.3923 33.2245C38.4374 29.96 38.46 26.6955 38.46 23.4309C38.46 21.5805 38.46 19.7301 38.46 17.8797C38.46 17.5863 38.3246 17.3381 37.9861 17.3381C35.1879 17.3231 32.3822 17.3155 29.569 17.3155C28.7716 17.3005 27.9818 17.293 27.1995 17.293C26.8836 17.293 26.6354 17.654 26.6128 17.9248C26.5677 18.2407 26.7708 18.4664 27.0641 18.4664C29.8774 18.4814 32.6831 18.4965 35.4812 18.5115C36.2786 18.5115 37.0759 18.5115 37.8732 18.5115C37.7078 18.331 37.5498 18.158 37.3994 17.9925C37.4144 21.2571 37.4144 24.5291 37.3994 27.8087C37.3693 31.0733 37.3241 34.3378 37.264 37.6024C37.2339 39.4528 37.1963 41.3032 37.1511 43.1536C37.3467 42.943 37.5423 42.7323 37.7378 42.5217C32.9388 42.6722 28.1398 42.77 23.3407 42.8151C18.5417 42.8452 13.7427 42.8151 8.94365 42.7248C6.25078 42.6797 3.5579 42.612 0.86503 42.5217C1.01547 42.6571 1.16591 42.785 1.31635 42.9054C1.24113 39.6408 1.18095 36.3763 1.13582 33.1117C1.09069 29.8773 1.06812 26.6353 1.06812 23.3858C1.06812 21.5504 1.06812 19.715 1.06812 17.8797C0.872551 18.0903 0.676978 18.3009 0.481406 18.5115C3.56542 18.4965 6.64944 18.4814 9.73346 18.4664C10.606 18.4664 11.4786 18.4664 12.3511 18.4664C12.2157 18.3761 12.0728 18.2934 11.9224 18.2182C12.6445 20.881 14.7657 23.0022 17.3833 23.792C20.1364 24.6043 23.1377 23.8371 25.2363 21.919C26.3872 20.881 27.2221 19.4819 27.6283 17.9925C27.696 17.7217 27.6508 17.3832 27.3349 17.3155C27.0416 17.2478 26.7256 17.4961 26.6354 17.7894Z" fill="#1499FC"/>
<path d="M26.8622 15.9615C26.8622 16.3677 26.8321 16.7589 26.772 17.135C26.7569 17.2403 26.7419 17.3381 26.7268 17.4283C26.7268 17.4283 26.6817 17.6089 26.7268 17.4735C26.7118 17.5186 26.6967 17.5562 26.6817 17.5863C26.6366 17.7819 26.5839 17.9774 26.5237 18.173C26.4786 18.3385 26.4184 18.504 26.3432 18.6695C26.3131 18.7597 26.2755 18.8425 26.2304 18.9177C26.1627 19.0756 26.2981 18.8049 26.2078 18.9628C26.1928 19.008 26.1702 19.0606 26.1401 19.1208C25.9746 19.4517 25.7866 19.7677 25.576 20.0685C25.5459 20.0986 25.5233 20.1287 25.5083 20.1588C25.3954 20.2942 25.576 20.046 25.4857 20.204C25.4255 20.2641 25.3653 20.3318 25.3052 20.407C25.1848 20.5575 25.0569 20.7004 24.9216 20.8358C24.8012 20.9561 24.6733 21.0765 24.5379 21.1968C24.5078 21.2269 24.4778 21.2495 24.4477 21.2645C24.3123 21.3774 24.5379 21.1968 24.4025 21.3097C24.3273 21.3699 24.2446 21.4376 24.1543 21.5128C23.8685 21.7234 23.5601 21.919 23.2291 22.0995C23.199 22.1145 23.1614 22.1371 23.1163 22.1672C23.2065 22.122 23.1163 22.1672 23.0937 22.1898C23.0034 22.2198 22.9207 22.2575 22.8455 22.3026C22.665 22.3778 22.492 22.4455 22.3265 22.5057C22.1459 22.5658 21.9729 22.626 21.8074 22.6862C21.7172 22.7013 21.6269 22.7238 21.5367 22.7539C21.3561 22.799 21.6269 22.7313 21.4464 22.7765C21.4013 22.7765 21.3486 22.784 21.2884 22.799C20.8973 22.8743 20.5061 22.9194 20.115 22.9344C19.7088 22.957 19.4155 22.9344 19.0093 22.8893C18.6181 22.8442 18.242 22.7689 17.881 22.6636C16.5044 22.2574 15.2633 21.4451 14.3381 20.3393C13.3903 19.211 12.8262 17.8345 12.7134 16.3452C12.6682 15.939 12.6908 15.6908 12.7134 15.2394C12.7284 15.0589 12.751 14.8784 12.7811 14.6978C12.7961 14.6076 12.8111 14.5173 12.8262 14.4271C12.8412 14.3819 12.8488 14.3443 12.8488 14.3142C12.8262 14.4271 12.8713 14.224 12.8939 14.2014C12.9841 13.8403 13.097 13.4868 13.2324 13.1408C13.2474 13.0957 13.2625 13.0505 13.2775 13.0054C13.2775 13.0054 13.3452 12.8474 13.3226 12.9377C13.2775 13.028 13.3452 12.87 13.3452 12.87C13.3753 12.8249 13.3979 12.7797 13.4129 12.7346C13.5032 12.5691 13.5934 12.4112 13.6837 12.2607C13.774 12.0952 13.8793 11.9373 13.9996 11.7868C14.0147 11.7417 14.0372 11.7041 14.0673 11.674C14.1576 11.5386 14.0222 11.7417 14.0899 11.6514C14.1501 11.5762 14.2102 11.501 14.2704 11.4258C14.5111 11.1399 14.7669 10.8692 15.0377 10.6134C15.0828 10.5833 15.1204 10.5532 15.1505 10.5231C15.1505 10.5231 15.0828 10.5908 15.173 10.5006C15.2332 10.4554 15.3009 10.4028 15.3761 10.3426C15.5266 10.2223 15.6845 10.1094 15.85 10.0041C16.0005 9.89882 16.1509 9.80855 16.3013 9.73333C16.3465 9.70324 16.3841 9.68068 16.4142 9.66564C16.4367 9.64307 16.5496 9.59793 16.4593 9.64306C16.5496 9.59793 16.6474 9.5528 16.7527 9.50767C18.1292 8.87582 19.6185 8.71786 21.1079 9.01122C21.8751 9.16918 22.4619 9.39484 23.1388 9.77847C23.7932 10.1621 24.3348 10.5683 24.8313 11.0873C25.087 11.3581 25.3277 11.6439 25.5534 11.9448C25.7791 12.2833 25.9145 12.4864 26.095 12.8474C26.2605 13.1784 26.3959 13.5169 26.5012 13.8629C26.5463 13.9682 26.5764 14.066 26.5914 14.1563C26.6366 14.2691 26.614 14.224 26.6591 14.3368C26.7043 14.5324 26.7419 14.7204 26.772 14.9009C26.802 15.0965 26.8246 15.2846 26.8397 15.4651C26.8397 15.5554 26.8472 15.6456 26.8622 15.7359C26.8622 15.7961 26.8622 15.8487 26.8622 15.8938C26.8622 15.8938 26.8622 16.0744 26.8622 15.9615C26.8622 16.2549 26.9976 16.5257 27.3361 16.5031C27.6069 16.4806 27.9228 16.1646 27.9228 15.8713C27.9003 14.1337 27.3812 12.4864 26.3883 11.0647C25.4406 9.73334 24.0866 8.74042 22.5747 8.17627C19.3929 7.00284 15.7146 8.08601 13.5934 10.7037C12.5103 12.0125 11.8107 13.6373 11.6753 15.3523C11.5174 17.0447 11.901 18.7597 12.7811 20.2265C13.616 21.603 14.8797 22.7313 16.3465 23.3857C17.881 24.0853 19.6185 24.2884 21.2884 23.9499C22.9357 23.6114 24.4251 22.7765 25.5985 21.5579C26.7268 20.3845 27.4941 18.8951 27.7874 17.2929C27.8025 17.2328 27.81 17.1726 27.81 17.1124C27.8852 16.7062 27.9228 16.2925 27.9228 15.8713C27.9228 15.6005 27.7649 15.3071 27.4489 15.3297C27.1556 15.3523 26.8622 15.6682 26.8622 15.9615Z" fill="#1499FC"/>
<path d="M13.7717 2.51244C13.7566 5.32567 13.7416 8.14642 13.7266 10.9747C13.7266 11.4034 14.3133 11.3357 14.3133 10.9296C14.3133 8.11633 14.3208 5.30311 14.3358 2.48988C14.3584 2.03856 13.7717 2.10626 13.7717 2.51244Z" fill="#1499FC"/>
<path d="M17.25 1.47405C17.25 2.37669 17.25 3.27933 17.25 4.18197C17.25 4.63329 17.8141 4.56559 17.8141 4.13684C17.8141 3.2342 17.8141 2.33156 17.8141 1.42892C17.8141 0.977599 17.25 1.06787 17.25 1.47405Z" fill="#1499FC"/>
<path d="M17.25 5.53589C17.25 5.8819 17.25 6.22791 17.25 6.57392C17.25 7.02524 17.8141 6.93497 17.8141 6.52878C17.8141 6.18277 17.8141 5.84428 17.8141 5.51331C17.8141 5.06199 17.25 5.1297 17.25 5.53589Z" fill="#1499FC"/>
<path d="M20.6992 2.01605C20.7143 3.46027 20.7218 4.91201 20.7218 6.37128C20.7218 6.8226 21.2859 6.73234 21.2859 6.32616C21.2859 4.86689 21.2859 3.41513 21.2859 1.97091C21.2634 1.51959 20.6992 1.60986 20.6992 2.01605Z" fill="#1499FC"/>
<path d="M24.1523 0.346123C24.1674 2.36202 24.1824 4.37791 24.1975 6.3938C24.1975 6.82256 24.7616 6.75486 24.7616 6.34867C24.7466 4.33277 24.7315 2.31688 24.7165 0.300989C24.7165 -0.150331 24.1523 -0.0600644 24.1523 0.346123Z" fill="#1499FC"/>
<path d="M18.9847 15.3754C19.3307 14.9391 19.6767 14.5029 20.0227 14.0666C19.6918 13.9462 19.3683 13.8184 19.0524 13.683C18.9772 15.4431 18.9321 17.2033 18.917 18.9634C18.917 19.2793 19.075 19.6178 19.4586 19.5727C19.7971 19.5501 20.1356 19.1891 20.1356 18.8506C20.1506 17.0904 20.1882 15.3303 20.2484 13.5701C20.271 13.3445 20.1807 13.0962 19.9325 12.9834C19.7294 12.9157 19.436 13.006 19.2781 13.1865C18.9321 13.6228 18.586 14.0515 18.24 14.4728C18.0369 14.7436 17.9015 15.1497 18.1498 15.4431C18.3529 15.6913 18.8042 15.6236 18.9847 15.3754Z" fill="#1499FC"/>
<path d="M14.157 33.631C14.3375 33.4053 14.5406 33.1797 14.7889 32.9991C14.9243 32.8863 14.9919 32.7058 14.9017 32.5253C14.8114 32.3899 14.5632 32.2996 14.4278 32.4124C14.1344 32.6381 13.8862 32.8863 13.6831 33.1571C13.5703 33.3151 13.5477 33.5182 13.6831 33.6536C13.7959 33.7664 14.0442 33.789 14.157 33.631Z" fill="#1499FC"/>
<path d="M14.2469 35.5044C14.5929 35.038 14.9464 34.5716 15.3075 34.1053C15.3977 33.9473 15.4203 33.7442 15.2849 33.6088C15.1721 33.496 14.9238 33.4734 14.811 33.6314C14.45 34.0978 14.0964 34.5641 13.7504 35.0305C13.6376 35.1659 13.615 35.369 13.773 35.5044C13.8858 35.6172 14.134 35.6398 14.2469 35.5044Z" fill="#1499FC"/>
<path d="M15.3519 36.5199C15.4422 36.2492 15.6453 35.9784 15.8032 35.7527C15.9687 35.4669 16.1417 35.181 16.3223 34.8952C16.5705 34.5341 15.9612 34.1956 15.7355 34.5567C15.54 34.8726 15.3444 35.181 15.1488 35.4819C14.9683 35.7527 14.7878 36.0235 14.6975 36.3394C14.5621 36.7682 15.2391 36.9487 15.3519 36.5199Z" fill="#1499FC"/>
<path d="M17.3381 35.9551C17.4885 35.3985 17.6916 34.8644 17.9473 34.3529C18.1504 33.9693 17.5637 33.6308 17.3606 34.0145C17.0597 34.5861 16.8266 35.1729 16.6611 35.7746C16.5482 36.2034 17.2252 36.3839 17.3381 35.9551Z" fill="#1499FC"/>
<path d="M18.9168 35.2776C19.0673 34.6608 19.3005 34.0816 19.6164 33.5401C19.8195 33.179 19.2328 32.8405 19.0071 33.2241C18.6686 33.8108 18.4204 34.4427 18.2624 35.0971C18.1722 35.5259 18.8266 35.7064 18.9168 35.2776Z" fill="#1499FC"/>
<path d="M20.4964 34.5333C20.6167 34.1873 20.7446 33.8488 20.88 33.5178C20.9703 33.2471 21.0605 32.9537 21.2636 32.728C21.5344 32.3895 21.0605 31.9157 20.7672 32.2541C20.5189 32.5475 20.3835 32.8634 20.2481 33.2019C20.1127 33.5931 19.9774 33.9767 19.842 34.3528C19.7743 34.5333 19.9096 34.7364 20.0902 34.7815C20.2707 34.8267 20.4287 34.7138 20.4964 34.5333Z" fill="#1499FC"/>
<path d="M22.1228 33.518C22.3259 32.9538 22.5966 32.4123 22.9126 31.8932C23.1608 31.5322 22.5515 31.1937 22.3259 31.5547C21.9648 32.1189 21.694 32.7282 21.4458 33.3375C21.3781 33.518 21.536 33.7211 21.694 33.7662C21.8971 33.8113 22.0551 33.6985 22.1228 33.518Z" fill="#1499FC"/>
<path d="M23.9027 32.7056C24.0531 32.2092 24.2487 31.7353 24.4894 31.284C24.7151 30.9003 24.1058 30.5844 23.9027 30.968C23.6169 31.4645 23.3987 31.991 23.2483 32.5476C23.1129 32.9764 23.7899 33.1344 23.9027 32.7056Z" fill="#1499FC"/>
<path d="M16.6407 20.791C16.8814 20.5653 17.1296 20.3472 17.3854 20.1366C17.5433 20.0238 17.4982 19.7755 17.3854 19.6401C17.2274 19.5047 17.0469 19.5499 16.8889 19.6627C16.6332 19.8733 16.3849 20.0915 16.1442 20.3171C15.8509 20.633 16.3473 21.1069 16.6407 20.791Z" fill="#1499FC"/>
<path d="M17.9022 21.3779C18.173 21.1372 18.4438 20.8965 18.7146 20.6558C18.85 20.5204 18.8274 20.2722 18.692 20.1593C18.5566 20.0239 18.3535 20.0465 18.2182 20.1819C17.9474 20.4226 17.6766 20.6633 17.4058 20.904C17.2704 21.0168 17.2929 21.2651 17.4058 21.3779C17.5637 21.5133 17.7668 21.4907 17.9022 21.3779Z" fill="#1499FC"/>
<path d="M19.1198 21.7388C19.5034 21.4454 19.8419 21.0844 20.1352 20.6782C20.2481 20.5202 20.1578 20.2946 19.9998 20.2043C19.8193 20.114 19.6388 20.2043 19.5259 20.3397C19.3229 20.6556 19.0521 20.9264 18.7587 21.1521C18.6007 21.2649 18.533 21.468 18.6459 21.626C18.7361 21.7839 18.9618 21.8516 19.1198 21.7388Z" fill="#1499FC"/>
<path d="M21.0609 21.7386C21.3016 21.3324 21.5499 20.9187 21.8056 20.4975C22.0313 20.1139 21.422 19.7754 21.1963 20.159C20.9556 20.5802 20.7074 21.0014 20.4517 21.4227C20.226 21.8063 20.8353 22.1222 21.0609 21.7386Z" fill="#1499FC"/>
<path d="M22.9112 21.084C23.1368 20.9035 23.2271 20.6327 23.3399 20.3845C23.4453 20.0836 23.5506 19.7752 23.6559 19.4593C23.7913 19.0531 23.1143 18.8726 22.9789 19.3013C22.9037 19.5571 22.8209 19.8128 22.7307 20.0685C22.6404 20.2716 22.5727 20.4747 22.4147 20.6101C22.2568 20.723 22.3019 20.9938 22.4147 21.1066C22.5727 21.242 22.7532 21.1968 22.9112 21.084Z" fill="#1499FC"/>
<path d="M24.6517 19.5493C24.9 19.1206 24.8548 18.5564 24.8548 18.1051C24.8323 17.6538 24.1553 17.6538 24.1553 18.1051C24.1703 18.3157 24.1703 18.5188 24.1553 18.7144C24.1553 18.8949 24.1553 19.0529 24.065 19.2108C23.8394 19.5945 24.4486 19.9329 24.6517 19.5493Z" fill="#1499FC"/>
<path d="M16.1662 14.3375C16.5499 13.322 17.4299 12.5096 18.4454 12.1937C18.8742 12.0809 18.6936 11.4039 18.2649 11.5393C16.9786 11.9229 15.9632 12.9158 15.4893 14.157C15.4441 14.3375 15.5795 14.5406 15.7375 14.5857C15.9406 14.6308 16.0985 14.4955 16.1662 14.3375Z" fill="#1499FC"/>
</svg>
