<svg width="45" height="44" viewBox="0 0 45 44" fill="none" xmlns="http://www.w3.org/2000/svg">
<path d="M3.93685 36.9452C3.87434 32.8511 3.83528 28.757 3.81965 24.6629C3.80402 20.5532 3.81964 16.4512 3.86652 12.3571C3.89777 10.0444 3.92903 7.73171 3.96028 5.41901C3.75714 5.6534 3.554 5.87999 3.35086 6.09876C6.3355 6.03625 9.31231 5.98937 12.2813 5.95811C15.266 5.92686 18.2428 5.91124 21.2118 5.91124C22.8994 5.91124 24.5793 5.91905 26.2513 5.93468C26.5795 5.93468 26.8373 5.55964 26.8842 5.25493C26.9076 4.92677 26.6966 4.69238 26.3919 4.69238C23.4073 4.67676 20.4227 4.67676 17.438 4.69238C14.469 4.70801 11.4922 4.73145 8.50756 4.7627C6.83554 4.79395 5.16351 4.82521 3.49149 4.85646C3.16334 4.85646 2.8586 5.23149 2.8586 5.5362C2.78047 9.66157 2.7336 13.7869 2.71797 17.9123C2.68672 22.0533 2.69453 26.1865 2.74141 30.3118C2.75703 32.6558 2.78829 34.9998 2.83517 37.3437C2.83517 37.6719 3.21022 37.8359 3.46806 37.7187C3.79621 37.6015 3.96029 37.2734 3.93685 36.9452Z" fill="#1499FC"/>
<path d="M16.8317 40.6017C15.9098 40.6017 14.9956 40.5939 14.0893 40.5783C13.8705 40.5783 13.6439 40.5783 13.4095 40.5783C13.3158 40.5783 13.1986 40.5783 13.0814 40.5783C13.1752 40.5783 12.8939 40.508 12.9876 40.5549C12.9173 40.508 12.847 40.4845 12.8001 40.4377C12.8704 40.4845 12.7298 40.3439 12.7298 40.3205C12.7767 40.3908 12.6829 40.2267 12.6595 40.2033C12.7064 40.297 12.6829 40.0392 12.6595 40.1564C12.6595 40.1251 12.6673 40.0861 12.6829 40.0392C12.6595 40.1798 12.6829 40.0861 12.6829 40.0626C12.6595 40.1095 12.6595 40.1564 12.6829 40.0626C12.7532 39.9454 12.6829 40.0861 12.6595 40.0861C12.6829 40.0626 12.7532 40.0392 12.6595 40.0861C12.6907 40.0548 12.722 40.0314 12.7532 40.0157C12.6595 40.0861 12.7298 40.0392 12.7532 40.0157C12.8236 39.9689 12.7298 40.0157 12.8235 39.9923C13.2689 39.9923 13.7143 39.9923 14.1362 40.0157C14.605 40.0157 15.0659 40.0157 15.5191 40.0157C15.7379 40.0157 15.9566 40.0157 16.1754 40.0157C16.2848 40.0157 16.402 40.0157 16.527 40.0157C16.5739 40.0157 16.6208 40.0157 16.6911 40.0157C16.6208 40.0157 16.7145 40.0392 16.738 40.0392C16.7614 40.0392 16.8551 40.0861 16.8083 40.0626C16.7614 40.0392 16.8786 40.0861 16.8786 40.1095C16.9098 40.1251 16.9411 40.1408 16.9724 40.1564C16.902 40.1095 17.0192 40.2267 17.0192 40.2267C17.0192 40.2501 17.0661 40.3205 17.0427 40.2501C17.0583 40.2814 17.0739 40.3205 17.0896 40.3673C17.113 40.4611 17.0896 40.297 17.0896 40.3908C17.0896 40.4142 17.0896 40.5314 17.0896 40.4377C17.0896 40.4689 17.0896 40.508 17.0896 40.5549C17.113 40.4142 17.0661 40.6017 17.0896 40.508C17.1364 40.4142 17.0896 40.5314 17.0661 40.5549C16.9958 40.6017 17.1599 40.4611 17.0661 40.5549C17.0036 40.5861 16.9958 40.5939 17.0427 40.5783C17.0895 40.547 17.0817 40.547 17.0192 40.5783C16.9958 40.5783 16.902 40.6017 16.9958 40.6017C16.9489 40.6017 16.8942 40.6017 16.8317 40.6017C16.1285 40.6252 15.8707 41.9144 16.6911 41.8909C17.8396 41.8675 18.66 40.4845 18.074 39.4766C17.8162 38.9844 17.3474 38.75 16.8083 38.7266C16.2457 38.7266 15.6598 38.7266 15.0738 38.7266C14.48 38.7109 13.894 38.7031 13.3158 38.7031C12.7064 38.7031 12.1907 38.8906 11.8157 39.4063C11.2062 40.2736 11.5578 41.68 12.6829 41.844C13.0111 41.8909 13.3627 41.8675 13.6908 41.8675C14.0346 41.8831 14.3706 41.8909 14.6987 41.8909C15.3706 41.8909 16.0348 41.8909 16.6911 41.8909C17.0427 41.8909 17.3239 41.5159 17.3474 41.2112C17.3708 40.8596 17.1599 40.6017 16.8317 40.6017Z" fill="#1499FC"/>
<path d="M15.1666 3.07405C15.1666 3.09749 15.1666 3.23813 15.1666 3.16781C15.1901 3.07405 15.1432 3.23813 15.1432 3.23813C15.1666 3.19125 15.1666 3.14438 15.1432 3.2147C15.1666 3.12094 15.2135 3.19126 15.1432 3.2147C15.0729 3.23813 15.237 3.14438 15.1198 3.2147C15.0729 3.26157 15.0729 3.23813 15.1198 3.23813C15.0963 3.23813 14.9791 3.26156 15.0494 3.26156C15.0963 3.23812 14.9791 3.26156 14.9791 3.26156C14.9323 3.26156 14.9323 3.26156 14.9791 3.26156C14.9635 3.26156 14.9479 3.26156 14.9322 3.26156C14.9088 3.23812 14.7916 3.21469 14.8385 3.23813C14.8854 3.23813 14.6744 3.09749 14.7447 3.19125C14.7135 3.15999 14.69 3.12093 14.6744 3.07405C14.6041 3.02717 14.6979 3.14437 14.651 3.07405C14.6354 3.0428 14.6197 3.00373 14.6041 2.95685C14.6276 3.02717 14.6041 2.95685 14.6041 2.90997C14.6041 2.81621 14.5807 2.98029 14.6041 2.88654C14.6276 2.81622 14.5807 2.9803 14.6275 2.8631C14.6041 2.90998 14.5807 2.93341 14.6041 2.88654C14.6979 2.72246 14.5572 2.93342 14.6275 2.8631C14.6588 2.83185 14.651 2.83966 14.6041 2.88654C14.6197 2.87091 14.6275 2.85528 14.6275 2.83965C14.651 2.81621 14.7213 2.81621 14.651 2.83965C14.651 2.83965 14.7916 2.79277 14.7213 2.79277C14.6744 2.81621 14.8151 2.79277 14.8385 2.79277C14.7682 2.79277 14.9791 2.83965 14.9557 2.83965C14.9088 2.81621 15.0963 2.95685 15.0494 2.88654C15.0807 2.91779 15.1041 2.95685 15.1198 3.00373C15.1667 3.05061 15.1198 2.90998 15.1432 3.05062C15.1666 3.07405 15.1666 3.12093 15.1666 3.05062C15.1666 3.11312 15.1666 3.17562 15.1666 3.23813C15.1901 3.56628 15.5417 3.73036 15.823 3.63661C16.1746 3.49597 16.3152 3.14437 16.3152 2.81622C16.2917 2.06615 15.6589 1.48016 14.9088 1.52704C14.0415 1.59736 13.4087 2.44119 13.4556 3.28501C13.5024 4.01164 14.1119 4.57419 14.8385 4.52731C15.6355 4.50387 16.2917 3.75381 16.3152 2.9803C16.3386 2.65215 16.1511 2.34743 15.823 2.39431C15.4948 2.41775 15.1901 2.7459 15.1666 3.07405Z" fill="#1499FC"/>
<path d="M22.3375 25.389C20.1811 25.389 18.0481 25.3656 15.8917 25.389C15.8682 25.389 15.751 25.3656 15.8682 25.389C15.8213 25.389 15.7823 25.3812 15.751 25.3656C15.5869 25.3422 15.7979 25.4125 15.7276 25.3656C15.6807 25.3344 15.6338 25.3109 15.5869 25.2953C15.5166 25.225 15.5635 25.2718 15.5869 25.2953C15.5557 25.264 15.5322 25.225 15.5166 25.1781C15.4463 25.1078 15.5401 25.3187 15.4932 25.1546C15.4932 25.1312 15.4463 24.9906 15.4697 25.1078C15.4697 25.0765 15.4619 25.0374 15.4463 24.9906C15.4697 25.1078 15.4463 24.9671 15.4463 24.9437C15.4463 24.8187 15.4463 24.6859 15.4463 24.5452C15.4463 24.2639 15.4463 23.9827 15.4463 23.7014C15.4463 22.6388 15.4463 21.5762 15.4463 20.5136C15.4463 19.9979 15.4463 19.4745 15.4463 18.9432C15.4463 18.8025 15.4697 18.6619 15.4697 18.5447C15.4463 18.4978 15.4932 18.4041 15.4463 18.5681L15.4697 18.4509C15.4697 18.4822 15.4619 18.5134 15.4463 18.5447C15.4619 18.5134 15.4775 18.4822 15.4932 18.4509C15.4932 18.4509 15.376 18.5916 15.4697 18.4744C15.376 18.5916 15.4229 18.5212 15.4697 18.4978C15.5322 18.4509 15.5244 18.4509 15.4463 18.4978C15.4619 18.4978 15.4775 18.49 15.4932 18.4744C15.5088 18.4744 15.5244 18.4666 15.5401 18.4509C15.4776 18.4666 15.4697 18.4744 15.5166 18.4744C15.5635 18.4587 15.6104 18.4509 15.6573 18.4509C15.7823 18.4509 15.9073 18.4509 16.0323 18.4509C16.3136 18.4509 16.5948 18.4509 16.8761 18.4509C17.4074 18.4509 17.9387 18.4509 18.47 18.4509C19.5482 18.4509 20.6186 18.4509 21.6812 18.4509C21.7906 18.4509 21.9078 18.4509 22.0328 18.4509C22.0094 18.4509 22.2672 18.4509 22.1734 18.4509C22.0797 18.4275 22.2672 18.4744 22.2438 18.4744C22.361 18.4744 22.2907 18.4744 22.2672 18.4744C22.2985 18.49 22.3375 18.5056 22.3844 18.5212C22.4078 18.5447 22.4782 18.6384 22.4078 18.5447C22.4391 18.5916 22.4704 18.6306 22.5016 18.6619C22.4782 18.5681 22.4782 18.6384 22.5016 18.6619C22.5016 18.6853 22.5485 18.8494 22.5485 18.7556C22.525 18.6619 22.5485 18.8494 22.5485 18.826C22.5485 18.8025 22.5485 18.7088 22.5485 18.8728C22.5485 19.1541 22.5485 19.4354 22.5485 19.7167C22.5485 20.9199 22.5485 22.1231 22.5485 23.3264C22.5485 23.9045 22.5485 24.4905 22.5485 25.0843C22.5485 25.1468 22.5485 25.2093 22.5485 25.2718C22.5485 25.3031 22.5485 25.3344 22.5485 25.3656C22.5641 25.2718 22.5641 25.2562 22.5485 25.3187C22.5016 25.4359 22.5719 25.3656 22.5719 25.3187C22.5719 25.3422 22.4078 25.5062 22.5485 25.3187C22.525 25.3656 22.4547 25.4125 22.5954 25.3187C22.5251 25.3656 22.4547 25.389 22.5485 25.3422C22.5485 25.3422 22.3844 25.4125 22.4782 25.389C22.5485 25.3656 22.361 25.389 22.3375 25.389C21.564 25.4125 21.2827 26.8657 22.1969 26.8188C22.7829 26.8188 23.322 26.4438 23.6033 25.9281C23.908 25.389 23.8376 24.803 23.8376 24.2171C23.8376 23.0138 23.8376 21.8106 23.8376 20.6074C23.8376 20.0136 23.8376 19.412 23.8376 18.8025C23.8376 18.4978 23.8376 18.2165 23.7205 17.9118C23.6267 17.654 23.4392 17.443 23.2282 17.279C22.7594 16.9274 22.1735 17.0211 21.6344 17.0211C21.0249 17.0211 20.4233 17.0211 19.8295 17.0211C18.6263 17.0211 17.423 17.0211 16.2198 17.0211C15.962 17.0211 15.6807 16.9977 15.4229 17.0914C15.1416 17.1617 14.8837 17.3258 14.6962 17.5368C14.4853 17.7243 14.3212 18.0056 14.2509 18.2868C14.1571 18.5916 14.1571 18.8963 14.1571 19.2244C14.1571 20.412 14.1571 21.5918 14.1571 22.7638C14.1571 23.3732 14.1571 23.9749 14.1571 24.5687C14.1571 25.1546 14.0868 25.7641 14.4853 26.2797C14.6728 26.5141 14.9072 26.6782 15.1885 26.772C15.4932 26.8657 15.8213 26.8188 16.1261 26.8188C16.798 26.8188 17.4699 26.8188 18.1419 26.8188C19.4857 26.8188 20.8374 26.8188 22.1969 26.8188C22.5719 26.8188 22.9001 26.3969 22.9001 26.0453C22.9235 25.6703 22.736 25.389 22.3375 25.389Z" fill="#1499FC"/>
<path d="M20.9993 25.3887C19.8116 25.3887 18.6162 25.3887 17.413 25.3887C16.9911 25.3887 16.6161 25.9512 16.7098 26.3497C17.0224 27.7873 17.3427 29.2328 17.6708 30.686C17.8271 31.4048 17.9912 32.1236 18.1631 32.8425C18.3037 33.4988 18.374 34.2488 18.7725 34.8114C19.5694 35.8896 21.1868 35.8193 22.0306 34.8583C22.4994 34.3426 22.7338 33.6628 22.64 32.9831C22.5697 32.2565 22.4291 31.5298 22.3119 30.8032C22.0618 29.1624 21.8118 27.5217 21.5618 25.8809C21.5149 25.5293 21.1633 25.2949 20.8352 25.4356C20.4836 25.5762 20.2258 25.9747 20.2726 26.3497C20.4914 27.6936 20.7023 29.0296 20.9055 30.3579C20.9992 31.0454 21.1008 31.7252 21.2102 32.3971C21.2571 32.694 21.304 32.9987 21.3508 33.3112C21.3665 33.3738 21.3743 33.4363 21.3743 33.4988C21.3977 33.6863 21.3977 33.3816 21.3743 33.5691C21.3587 33.616 21.3508 33.6707 21.3508 33.7332C21.3977 33.5222 21.3274 33.8035 21.304 33.8035C21.3509 33.78 21.3743 33.6863 21.3274 33.78C21.304 33.8035 21.2571 33.9207 21.2336 33.9207C21.2493 33.9051 21.2727 33.8816 21.304 33.8504C21.2727 33.8816 21.2415 33.9129 21.2102 33.9441C21.1868 33.9676 21.0696 34.0847 21.2102 33.9676C21.1633 33.9988 21.1165 34.0301 21.0696 34.0613C20.9289 34.1785 21.1868 34.0379 21.0227 34.0847C20.9758 34.116 20.9211 34.1395 20.8586 34.1551C20.7805 34.1707 20.7805 34.1707 20.8586 34.1551C20.8117 34.1707 20.7727 34.1785 20.7414 34.1785C20.6945 34.1785 20.6399 34.1785 20.5774 34.1785C20.4836 34.1785 20.718 34.202 20.5539 34.1785C20.4914 34.1629 20.4367 34.1473 20.3898 34.1316C20.3664 34.1316 20.2023 34.0848 20.3195 34.1316C20.2023 34.0848 20.1086 34.0144 20.0148 33.9676C19.8742 33.8738 20.0851 34.0379 19.9679 33.9207C19.921 33.8738 19.8742 33.8191 19.8273 33.7566C19.8273 33.7566 19.7335 33.5925 19.7804 33.6863C19.8038 33.7566 19.7335 33.5925 19.7335 33.5925C19.7023 33.53 19.6788 33.4753 19.6632 33.4284C19.7101 33.5691 19.6398 33.3112 19.6398 33.3112C19.5616 32.9518 19.4835 32.5924 19.4054 32.233C19.2647 31.5923 19.1163 30.9439 18.96 30.2875C18.6319 28.8187 18.3037 27.3498 17.9755 25.8809C17.7411 26.1934 17.5068 26.506 17.2724 26.8185C18.46 26.8185 19.6476 26.8185 20.8352 26.8185C21.2102 26.8185 21.5384 26.3966 21.5618 26.045C21.5852 25.6699 21.3743 25.3887 20.9993 25.3887Z" fill="#1499FC"/>
<path d="M15.4013 25.1311C15.3857 24.006 15.3779 22.8731 15.3779 21.7324C15.3779 21.1855 15.3779 20.6307 15.3779 20.0682C15.3779 19.7869 15.3779 19.5056 15.3779 19.2243C15.4013 18.9665 15.3779 18.7087 15.4013 18.4508C15.4482 18.1461 15.2138 17.818 14.8856 17.8648C14.2059 17.9117 13.4558 18.0289 12.9167 18.4977C12.4245 18.9665 12.4714 19.5994 12.4714 20.2088C12.4714 21.1933 12.4714 22.1699 12.4714 23.1388C12.4714 23.631 12.4479 24.1232 12.4714 24.592C12.4948 24.8264 12.5651 25.0139 12.7058 25.2014C13.1277 25.7405 13.9715 25.8343 14.6044 25.8812C15.0966 25.9281 15.4013 25.5061 15.4013 25.0374C15.3857 25.0061 15.3779 24.9827 15.3779 24.967C15.3779 24.6389 15.0029 24.4748 14.7216 24.5686C14.3934 24.6858 14.2293 25.0608 14.2293 25.3889C14.2293 25.4202 14.2293 25.4436 14.2293 25.4593C14.495 25.178 14.7606 24.8967 15.0263 24.6154C14.6981 24.592 14.37 24.5451 14.0418 24.4514C13.9949 24.4357 13.9481 24.4201 13.9012 24.4045C13.784 24.381 13.9012 24.4045 13.9246 24.4045C13.8934 24.4045 13.8699 24.3967 13.8543 24.381C13.8074 24.3654 13.7683 24.3498 13.7371 24.3342C13.7215 24.3185 13.7059 24.3029 13.6902 24.2873C13.5965 24.2404 13.7371 24.3107 13.7137 24.3107C13.7137 24.3342 13.6668 24.2639 13.6433 24.2639C13.5496 24.1467 13.6902 24.2638 13.6668 24.2873C13.6668 24.2873 13.6199 24.217 13.6199 24.1935C13.5965 24.1467 13.6433 24.3576 13.6433 24.2404C13.6433 24.2092 13.6355 24.1779 13.6199 24.1467C13.6433 24.2873 13.6433 24.0295 13.6433 23.9826C13.6433 23.7638 13.6433 23.545 13.6433 23.3263C13.6277 22.4668 13.6277 21.5995 13.6433 20.7245C13.6433 20.3026 13.6433 19.8728 13.6433 19.4353C13.6433 19.3884 13.6668 19.2712 13.6433 19.2243C13.6668 19.3181 13.5965 19.3884 13.6433 19.2712C13.6199 19.3415 13.5496 19.4353 13.6199 19.3415C13.6199 19.3415 13.5027 19.5056 13.5496 19.4119C13.573 19.4119 13.5965 19.3884 13.5965 19.365C13.6199 19.3415 13.5261 19.4353 13.5261 19.4353C13.5261 19.4353 13.573 19.3884 13.5965 19.3884C13.6121 19.3884 13.6277 19.3806 13.6433 19.365C13.6902 19.3181 13.5027 19.4119 13.6199 19.365C13.6668 19.3493 13.7137 19.3337 13.7605 19.3181C13.8387 19.2868 13.909 19.2634 13.9715 19.2478C14.0653 19.2243 13.9012 19.2712 13.9949 19.2478C14.0418 19.2321 14.0887 19.2243 14.1356 19.2243C14.3387 19.1775 14.5497 19.1462 14.7684 19.1306C14.5966 18.9431 14.4247 18.7477 14.2528 18.5446C14.2059 18.8024 14.2293 19.0603 14.2293 19.2947C14.2293 19.5759 14.2293 19.8572 14.2293 20.1385C14.2293 20.701 14.2293 21.2714 14.2293 21.8496C14.2293 22.9747 14.2293 24.0998 14.2293 25.2249C14.2293 25.5296 14.3934 25.8577 14.745 25.8343C15.0732 25.7874 15.4013 25.4593 15.4013 25.1311Z" fill="#1499FC"/>
<path d="M23.6974 25.7171C23.838 25.389 23.838 25.0608 23.838 24.7092C23.838 24.3811 23.838 24.0529 23.838 23.7248C23.838 23.0685 23.838 22.4043 23.838 21.7324C23.838 21.0917 23.838 20.4432 23.838 19.7869C23.838 19.4431 23.838 19.1072 23.838 18.779C23.838 18.404 23.8146 18.0758 23.6271 17.7477C23.4083 18.1227 23.1895 18.4977 22.9708 18.8728C25.1038 18.4274 27.1196 17.607 28.901 16.3413C29.2526 16.1069 29.5807 15.8491 29.6042 15.3803C29.6042 15.0756 29.6042 14.7474 29.6042 14.4427C29.5886 13.8333 29.5807 13.2238 29.5807 12.6144C29.5807 11.3955 29.5807 10.1767 29.5807 8.95783C29.5651 7.72334 29.5495 6.49667 29.5338 5.27781C29.5338 4.64494 29.5338 4.01207 29.5338 3.40265C29.5104 2.93385 29.4166 2.46507 29.2291 2.04315C28.8307 1.19933 28.1275 0.543009 27.2602 0.214855C26.8383 0.0507778 26.3929 0.00390723 25.9242 0.00390723C25.2991 0.00390723 24.674 0.00390723 24.049 0.00390723C19.1892 -0.0117192 14.3294 0.019525 9.46959 0.097657C8.25073 0.12891 7.03188 0.152361 5.81302 0.167987C5.21922 0.183614 4.61759 0.199228 4.00816 0.214855C3.53937 0.238294 3.07057 0.308616 2.62522 0.496133C1.68764 0.894605 0.984467 1.62123 0.562555 2.55881C0.117204 3.51984 0.210968 4.64494 0.187528 5.69972C0.0781433 10.5752 0.0156264 15.4506 0 20.326C0 25.2327 0.0390659 30.1472 0.117198 35.0695C0.148451 36.2884 0.171902 37.5072 0.187528 38.7261C0.210968 39.7574 0.117192 40.8591 0.609423 41.7967C1.03133 42.6405 1.75798 43.2734 2.64868 43.6015C3.11747 43.7656 3.58626 43.7656 4.05506 43.789C4.68011 43.8047 5.30517 43.8203 5.93022 43.8359C10.79 43.9453 15.6498 44 20.5096 44C21.7285 44 22.9473 44 24.1662 44C24.7522 44 25.3382 44 25.9476 44C26.3929 43.9766 26.8617 43.8828 27.2837 43.6953C28.1978 43.2734 28.901 42.5233 29.276 41.5857C29.4635 41.1404 29.5338 40.6716 29.5338 40.1793C29.5338 39.5699 29.5417 38.9605 29.5573 38.351C29.5729 35.929 29.5807 33.4991 29.5807 31.0613C29.5807 30.4363 29.5886 29.8112 29.6042 29.1862C29.6042 28.9049 29.6042 28.6236 29.6042 28.3423C29.6042 28.108 29.6276 27.8736 29.4635 27.686C29.3698 27.5688 29.1823 27.4751 29.0651 27.3813C28.2212 26.7719 27.3071 26.2562 26.3461 25.8578C25.3616 25.4358 24.3537 25.1077 23.3224 24.8967C22.9708 24.8264 22.5957 25.1311 22.502 25.4827C22.4082 25.7874 22.4785 26.2328 22.8536 26.3031C24.9397 26.725 26.8617 27.5688 28.5728 28.858C28.4947 28.6705 28.4088 28.4752 28.315 28.272C28.315 30.3972 28.3072 32.5224 28.2915 34.6476C28.2915 35.6946 28.2837 36.7415 28.2681 37.7885C28.2681 38.3198 28.2681 38.8433 28.2681 39.3589C28.2681 39.8277 28.2916 40.32 28.2212 40.7888C28.2212 40.8356 28.2134 40.8825 28.1978 40.9294C28.1978 41.0466 28.2447 40.7653 28.1978 40.9529C28.1822 41.031 28.1587 41.1013 28.1275 41.1638C28.1275 41.2107 28.1197 41.2497 28.104 41.281C28.104 41.281 28.0337 41.4685 28.0806 41.3513C28.1275 41.2341 28.0571 41.3982 28.0337 41.3982C28.0181 41.4607 27.9947 41.5154 27.9634 41.5623C27.9165 41.6248 27.8696 41.6873 27.8227 41.7498C27.729 41.8904 27.9165 41.6795 27.8227 41.7498C27.7993 41.7732 27.7759 41.8201 27.7524 41.8436C27.6899 41.9061 27.6352 41.9608 27.5884 42.0076C27.5884 42.0076 27.4477 42.1483 27.5415 42.0545C27.6118 41.9842 27.4712 42.1014 27.4477 42.1248C27.3852 42.1717 27.3149 42.2186 27.2368 42.2655C27.2133 42.2889 27.0258 42.3827 27.143 42.3123C26.9711 42.4061 26.7992 42.4764 26.6273 42.5233C26.7445 42.4764 26.5102 42.5467 26.4633 42.5467C26.3851 42.5624 26.2992 42.5702 26.2054 42.5702C25.9476 42.5702 25.6663 42.5702 25.4085 42.5702C23.3146 42.5858 21.2206 42.5858 19.1267 42.5702C14.9232 42.5545 10.7119 42.5077 6.49275 42.4295C5.96145 42.4139 5.43017 42.3983 4.89887 42.3827C4.63323 42.3827 4.37538 42.3749 4.12536 42.3592C4.06285 42.3592 4.00817 42.3592 3.96129 42.3592C3.79721 42.3592 3.86752 42.3592 3.9144 42.3592C3.82064 42.3592 3.72689 42.3514 3.63313 42.3358C3.46124 42.3045 3.28936 42.2576 3.11747 42.1951C3.23467 42.242 3.11746 42.1951 3.07058 42.1717C3.03932 42.1561 3.00026 42.1405 2.95338 42.1248C2.85962 42.0779 2.77368 42.0311 2.69555 41.9842C2.63304 41.9373 2.56272 41.8904 2.48459 41.8436C2.45334 41.8123 2.41427 41.781 2.36739 41.7498C2.39083 41.7732 2.46115 41.8201 2.36739 41.7498C2.24238 41.6248 2.12518 41.4919 2.0158 41.3513C1.95329 41.2732 1.89861 41.2029 1.85173 41.1404C1.78141 41.0232 1.82829 41.0935 1.85173 41.1169C1.82048 41.0857 1.79703 41.0466 1.7814 40.9997C1.70327 40.8435 1.63294 40.6716 1.57044 40.4841C1.61732 40.6013 1.57044 40.4841 1.57044 40.4606C1.55481 40.4137 1.54701 40.3669 1.54701 40.32C1.53138 40.2418 1.52357 40.1637 1.52357 40.0856C1.50013 39.8277 1.50014 39.5699 1.50014 39.3121C1.46888 38.2651 1.44543 37.2181 1.42981 36.1712C1.33605 31.9755 1.28918 27.8032 1.28918 23.6076C1.27355 19.3884 1.297 15.1615 1.35951 10.9267C1.39076 8.81718 1.43763 6.70762 1.50014 4.59806C1.50014 4.36366 1.50014 4.12927 1.50014 3.89487C1.50014 3.78549 1.50795 3.67611 1.52357 3.56673C1.52357 3.51985 1.53138 3.48078 1.54701 3.44953C1.54701 3.42609 1.59388 3.23857 1.54701 3.40265C1.57826 3.23076 1.63297 3.06667 1.7111 2.91041C1.75798 2.76977 1.68764 2.91041 1.68764 2.93385C1.68764 2.88698 1.73453 2.8401 1.75797 2.81666C1.80485 2.7229 1.85953 2.62914 1.92203 2.53538C1.99235 2.44162 1.92204 2.58225 1.8986 2.55881C1.8986 2.55881 1.96893 2.4885 1.96893 2.46506C2.03143 2.40256 2.09392 2.34005 2.15643 2.27755C2.17987 2.25411 2.39083 2.09002 2.25019 2.20722C2.3127 2.14471 2.38302 2.08221 2.46115 2.01971C2.53929 1.97283 2.62523 1.92595 2.71898 1.87907C2.57835 1.94939 2.76587 1.85563 2.81275 1.83219C2.90651 1.80094 3.00025 1.76968 3.09401 1.73843C3.12526 1.7228 3.15652 1.71499 3.18777 1.71499C3.37529 1.64467 3.07059 1.715 3.2581 1.69156C3.70346 1.62124 4.17223 1.62123 4.61758 1.62123C5.13325 1.6056 5.65675 1.58999 6.18805 1.57436C7.25064 1.55874 8.31323 1.54311 9.37582 1.52748C11.4698 1.4806 13.5715 1.44934 15.6811 1.43372C17.775 1.41809 19.8689 1.41028 21.9629 1.41028C23.0255 1.41028 24.0802 1.41809 25.1272 1.43372C25.3928 1.43372 25.6507 1.43372 25.9007 1.43372C25.9242 1.43372 26.0648 1.43372 25.9476 1.43372C25.9945 1.43372 26.0335 1.43372 26.0648 1.43372C26.1742 1.44934 26.2757 1.46497 26.3695 1.4806C26.4633 1.49622 26.557 1.51966 26.6508 1.55091C26.682 1.56654 26.7133 1.58217 26.7445 1.5978C26.9321 1.69155 27.0961 1.76188 27.2368 1.87907C27.2993 1.92595 27.3618 1.97283 27.4243 2.01971C27.3305 1.92595 27.4243 2.01971 27.4477 2.04315C27.479 2.07441 27.5102 2.10565 27.5415 2.1369C27.6665 2.26191 27.7837 2.40255 27.8931 2.55881C27.8931 2.58225 27.9634 2.67602 27.9165 2.58226C27.9321 2.61351 27.9478 2.64476 27.9634 2.67601C27.9947 2.75414 28.0259 2.82447 28.0571 2.88697C28.0884 2.98073 28.1197 3.06667 28.1509 3.1448C28.1743 3.16824 28.1978 3.28545 28.1743 3.16825C28.19 3.21513 28.1978 3.26982 28.1978 3.33233C28.2134 3.42609 28.229 3.51203 28.2447 3.59016C28.2447 3.63704 28.2447 3.69173 28.2447 3.75424C28.2447 3.75424 28.2681 3.84799 28.2447 3.77767C28.2603 4.05895 28.2681 4.34023 28.2681 4.62151C28.2681 5.13718 28.2681 5.64504 28.2681 6.14508C28.2837 8.27027 28.2994 10.3954 28.315 12.5206C28.315 13.5363 28.315 14.5599 28.315 15.5912C28.4556 15.3725 28.5885 15.1537 28.7135 14.9349C27.0493 16.1772 25.1272 17.0445 23.1114 17.4429C22.8536 17.4898 22.6661 17.6305 22.5254 17.8414C22.4317 18.0289 22.3379 18.3571 22.4551 18.5446C22.4864 18.6071 22.5176 18.6696 22.5488 18.7321C22.502 18.6384 22.5488 18.7556 22.5488 18.779C22.5488 18.8024 22.5488 18.8493 22.5488 18.9196C22.5488 18.9978 22.5488 19.0681 22.5488 19.1306C22.5488 19.4431 22.5488 19.7557 22.5488 20.0682C22.5488 20.6932 22.5488 21.3183 22.5488 21.9433C22.5488 22.5528 22.5488 23.17 22.5488 23.7951C22.5488 24.092 22.5488 24.3889 22.5488 24.6858C22.5488 24.842 22.5488 24.9983 22.5488 25.1546C22.5488 25.2249 22.5488 25.3186 22.5488 25.389C22.5723 25.2718 22.502 25.4593 22.502 25.4827C22.3613 25.7874 22.502 26.2328 22.8536 26.3031C23.252 26.3969 23.5333 26.0453 23.6974 25.7171Z" fill="#1499FC"/>
<path d="M32.6041 19.2942C32.6041 20.9194 32.6041 22.5445 32.6041 24.1696C32.6041 24.4978 32.7448 24.7791 33.1198 24.7791C34.4324 24.7556 35.581 23.8649 36.0263 22.6695C36.4951 21.4507 36.1435 20.0677 35.1591 19.2473C34.6199 18.7785 33.9636 18.591 33.2605 18.5676C32.9089 18.5676 32.6276 18.9661 32.6041 19.2942C32.5573 19.6458 32.7682 19.9036 33.1198 19.9036C33.198 19.9036 33.2058 19.9036 33.1433 19.9036C33.1901 19.9036 33.2292 19.9036 33.2605 19.9036C33.3386 19.9193 33.4167 19.9349 33.4949 19.9505C33.573 19.9661 33.6433 19.9818 33.7058 19.9974C33.7527 20.013 33.7918 20.0287 33.823 20.0443C33.7605 20.0287 33.7683 20.0287 33.8464 20.0443C33.9636 20.1146 34.1043 20.1849 34.2215 20.2787C34.2684 20.3099 34.3152 20.3412 34.3621 20.3724C34.409 20.4193 34.409 20.4193 34.3621 20.3724C34.3934 20.4037 34.4246 20.4271 34.4559 20.4428C34.5496 20.5521 34.6434 20.6693 34.7371 20.7944C34.7528 20.8256 34.7684 20.8568 34.784 20.8881C34.7528 20.8412 34.7606 20.8412 34.8075 20.8881C34.8387 20.9662 34.87 21.0366 34.9012 21.0991C34.9169 21.1459 34.9325 21.2006 34.9481 21.2631C34.9637 21.2944 34.9794 21.3256 34.995 21.3569C34.9794 21.2944 34.9794 21.3022 34.995 21.3803C35.0106 21.4585 35.0184 21.5288 35.0184 21.5913C35.0419 21.6147 35.0419 21.8491 35.0419 21.7319C35.0419 21.8882 35.0262 22.0366 34.995 22.1773C35.0184 22.0366 34.995 22.2242 34.9715 22.271C34.9559 22.3335 34.9325 22.3961 34.9012 22.4586C34.87 22.5211 34.8778 22.5133 34.9247 22.4351C34.909 22.4664 34.8934 22.4976 34.8778 22.5289C34.8309 22.5914 34.7918 22.6539 34.7606 22.7164C34.745 22.7476 34.7215 22.7789 34.6903 22.8102C34.7528 22.732 34.7606 22.7242 34.7137 22.7867C34.6668 22.8492 34.6121 22.9039 34.5496 22.9508C34.534 22.982 34.5106 23.0055 34.4793 23.0211C34.5418 22.9742 34.5418 22.9742 34.4793 23.0211C34.4324 23.0524 34.3934 23.0836 34.3621 23.1149C34.2996 23.1617 34.2293 23.2008 34.1511 23.2321C34.0886 23.2789 34.0886 23.2789 34.1511 23.2321C34.1199 23.2477 34.0887 23.2633 34.0574 23.2789C33.9949 23.3102 33.9246 23.3415 33.8464 23.3727C33.8152 23.3727 33.7761 23.3805 33.7292 23.3961C33.7918 23.3805 33.7918 23.3805 33.7292 23.3961C33.573 23.4274 33.4167 23.443 33.2605 23.443C33.4323 23.6462 33.612 23.8493 33.7996 24.0524C33.7996 22.4273 33.7917 20.8022 33.7761 19.177C33.7761 18.8723 33.6355 18.5442 33.2605 18.5676C32.9323 18.591 32.6041 18.9661 32.6041 19.2942Z" fill="#1499FC"/>
<path d="M32.1608 31.46C32.2311 31.46 32.1139 31.46 32.0905 31.46C32.0436 31.4444 32.0045 31.4288 31.9733 31.4131C31.9967 31.4131 32.0436 31.46 31.9967 31.4131C31.9342 31.3975 31.8873 31.3741 31.8561 31.3428C31.7858 31.3194 31.8326 31.3428 31.8561 31.3428C31.8248 31.3272 31.8014 31.3037 31.7857 31.2725C31.7623 31.2491 31.6685 31.1319 31.692 31.1553C31.692 31.2022 31.6451 31.085 31.6451 31.0615C31.6295 31.0303 31.6217 30.9912 31.6217 30.9443C31.6217 30.8975 31.6217 30.874 31.6217 30.7803C31.6217 30.0458 31.6295 29.3036 31.6451 28.5535C31.6451 27.069 31.6451 25.5845 31.6451 24.1C31.6451 21.1466 31.6373 18.1854 31.6217 15.2164C31.6217 14.4819 31.6217 13.7397 31.6217 12.9896C31.6217 12.8177 31.6217 12.638 31.6217 12.4505C31.6217 12.3724 31.6217 12.2942 31.6217 12.2161C31.6217 12.1692 31.6451 12.0052 31.6217 12.1224C31.6373 12.0911 31.6451 12.0599 31.6451 12.0286C31.6451 12.0286 31.6217 12.1458 31.6451 12.052C31.6451 12.0286 31.6685 12.0052 31.6685 11.9817C31.6685 12.0052 31.5982 12.0755 31.6451 12.0286C31.6686 12.0052 31.7858 11.9114 31.7154 11.9583C31.6451 12.0052 31.7389 11.9348 31.7623 11.9348C31.6686 11.9583 31.8561 11.888 31.7623 11.9348C31.7857 11.9114 31.9264 11.888 31.8795 11.888C31.8561 11.888 31.9967 11.888 32.0201 11.888C31.9498 11.888 32.0905 11.888 32.1139 11.888C32.1452 11.9036 32.1686 11.9114 32.1842 11.9114C32.278 11.9348 32.1373 11.888 32.2077 11.9348C32.2702 11.9661 32.3249 11.9974 32.3717 12.0286C32.3014 11.9817 32.4186 12.052 32.4186 12.0755C32.4655 12.1224 32.5046 12.1692 32.5358 12.2161C32.4889 12.1458 32.5593 12.3099 32.5827 12.3333C32.5358 12.2396 32.5827 12.3802 32.5827 12.4036C32.5827 12.474 32.5827 12.4505 32.5827 12.5208C32.5827 12.724 32.5827 12.9193 32.5827 13.1068C32.5983 13.4975 32.6061 13.8803 32.6061 14.2554C32.6218 17.2088 32.6296 20.1621 32.6296 23.1155C32.6296 24.6 32.6218 26.0845 32.6061 27.569C32.6061 28.3035 32.6061 29.0457 32.6061 29.7958C32.6061 30.1552 32.6061 30.5146 32.6061 30.874C32.6061 30.9678 32.5983 31.0615 32.5827 31.1553C32.5827 31.2022 32.5593 31.2959 32.5827 31.2022C32.5593 31.2725 32.5124 31.3428 32.5827 31.2491C32.5827 31.2491 32.5593 31.3194 32.5358 31.3194C32.5046 31.3663 32.5202 31.3584 32.5827 31.2959C32.5671 31.2959 32.5515 31.3037 32.5358 31.3194C32.4889 31.3663 32.4186 31.4131 32.5124 31.3663C32.4655 31.3897 32.3717 31.4366 32.4655 31.3897C32.4186 31.4131 32.3014 31.46 32.3249 31.46C32.3483 31.4366 32.2077 31.46 32.1608 31.46C31.481 31.4835 31.2232 32.7726 32.0436 32.7492C32.7702 32.7258 33.4031 32.1632 33.6375 31.4835C33.7781 31.1319 33.7312 30.7568 33.7547 30.4052C33.7547 29.999 33.7547 29.5927 33.7547 29.1864C33.7547 27.5769 33.7625 25.9673 33.7781 24.3578C33.7781 21.1232 33.7703 17.8885 33.7547 14.6538C33.7547 13.8569 33.7469 13.0599 33.7312 12.263C33.7312 11.5364 33.3562 10.9035 32.653 10.6691C31.9733 10.4582 31.2466 10.7863 30.8482 11.3254C30.3559 11.9583 30.4731 12.8021 30.4731 13.5756C30.4888 16.7946 30.4966 20.0137 30.4966 23.2327C30.4966 24.8422 30.4966 26.4596 30.4966 28.0847C30.4966 28.8973 30.4888 29.7099 30.4731 30.5224C30.4731 30.9209 30.4263 31.3194 30.5669 31.7178C30.6607 32.0226 30.8482 32.2804 31.106 32.4679C31.3873 32.6554 31.7154 32.7258 32.0436 32.7492C32.3717 32.7492 32.653 32.3507 32.6765 32.046C32.6999 31.7179 32.5124 31.46 32.1608 31.46Z" fill="#1499FC"/>
<path d="M30.7052 13.1533C29.9082 14.0674 29.1347 14.7472 28.1268 15.4035C27.1423 16.0598 26.1579 16.5286 25.0093 16.9271C24.3843 17.1458 23.7514 17.3177 23.1107 17.4427C22.8763 17.4896 22.7123 17.6068 22.5951 17.7943C22.5013 17.9584 22.431 18.2397 22.5247 18.4038C22.6419 18.6147 22.6419 18.7554 22.6419 19.0132C22.6419 19.3257 22.6419 19.6304 22.6419 19.9273C22.6419 20.5368 22.6419 21.1384 22.6419 21.7322C22.6419 22.326 22.6419 22.9198 22.6419 23.5136C22.6419 23.8261 22.6419 24.1308 22.6419 24.4277C22.6419 24.5684 22.6419 24.709 22.6419 24.8497C22.6419 24.9278 22.6419 25.0059 22.6419 25.084C22.6185 25.1309 22.6185 25.1778 22.6419 25.1075C22.5013 25.3888 22.4544 25.881 22.8763 25.9747C25.2203 26.4435 27.4002 27.4514 29.2284 28.975C29.7207 29.3735 30.1895 29.8423 30.6114 30.3111C30.963 30.7095 31.5959 30.2407 31.5959 29.7954C31.6271 25.5763 31.6349 21.3571 31.6193 17.138C31.6193 15.9348 31.6115 14.7316 31.5959 13.5283C31.5959 13.2236 31.4552 12.9189 31.1036 12.9658C30.8223 12.9892 30.4942 13.3174 30.4942 13.6221C30.5098 17.8412 30.5176 22.0682 30.5176 26.3029C30.5176 27.5061 30.5098 28.7094 30.4942 29.9126C30.8223 29.7407 31.1583 29.5688 31.5021 29.3969C29.8379 27.5218 27.7049 26.1388 25.3375 25.3184C24.6656 25.084 23.9858 24.8965 23.2983 24.7559C23.3764 25.0528 23.4545 25.3497 23.5327 25.6466C23.6967 25.2716 23.7436 24.9668 23.7436 24.5684C23.7436 24.2402 23.7436 23.9121 23.7436 23.5839C23.7436 22.9276 23.7436 22.2713 23.7436 21.615C23.7436 20.9743 23.7436 20.3258 23.7436 19.6695C23.7436 19.3413 23.7436 19.0054 23.7436 18.6616C23.7436 18.3334 23.7436 18.0287 23.5561 17.724C23.3686 18.0365 23.1732 18.3569 22.9701 18.685C25.4781 18.1928 27.869 17.138 29.8144 15.4973C30.377 15.0285 30.9161 14.5128 31.3849 13.9737C31.5959 13.7393 31.7131 13.3642 31.5021 13.1064C31.2911 12.8486 30.8927 12.9423 30.7052 13.1533Z" fill="#1499FC"/>
<path d="M23.6729 25.7167C23.837 25.3886 23.8136 25.0604 23.8136 24.7088C23.8136 24.3806 23.8136 24.0447 23.8136 23.7009C23.8136 23.0446 23.8136 22.3883 23.8136 21.732C23.8136 21.0757 23.8136 20.4194 23.8136 19.7631C23.8136 19.4349 23.8136 19.0989 23.8136 18.7552C23.8136 18.4036 23.8136 18.0754 23.6261 17.7707C23.4073 18.1301 23.1885 18.4895 22.9697 18.8489C24.1652 18.6145 25.3372 18.2395 26.4388 17.7473C26.6967 17.6066 26.9779 17.3253 26.9779 17.0206C26.9779 13.9735 26.9701 10.9185 26.9545 7.85575C26.9545 6.98068 26.9545 6.1134 26.9545 5.25395C26.9545 4.87892 26.7904 4.62109 26.3919 4.62109C23.4073 4.60547 20.4305 4.60547 17.4615 4.62109C14.4768 4.62109 11.5 4.64453 8.53098 4.69141C6.84334 4.72266 5.1635 4.75391 3.49148 4.78516C3.13989 4.78516 2.78829 5.20708 2.78829 5.53523C2.71016 9.6606 2.66329 13.786 2.64766 17.9113C2.61641 22.0523 2.62421 26.1855 2.67109 30.3109C2.68672 32.6705 2.71798 35.0222 2.76486 37.3662C2.76486 37.6709 3.04611 37.835 3.32738 37.835C6.2964 37.8975 9.27324 37.9365 12.2579 37.9522C15.2425 37.9834 18.2271 37.999 21.2118 37.999C22.8994 37.999 24.5793 37.999 26.2513 37.999C26.6029 37.999 26.9545 37.5771 26.9545 37.249C26.9701 33.7018 26.9779 30.1546 26.9779 26.6074C26.9779 26.4199 26.9545 26.1386 26.7435 26.0449C25.6419 25.5292 24.4933 25.1542 23.3213 24.9198C22.9697 24.8494 22.5947 25.1542 22.501 25.4823C22.4072 25.787 22.4775 26.2089 22.8526 26.2793C23.9308 26.5137 24.9856 26.8418 25.97 27.2872C25.8919 27.0996 25.8138 26.9121 25.7356 26.7246C25.7356 30.2718 25.7278 33.819 25.7122 37.3662C25.9309 37.1162 26.1575 36.8661 26.3919 36.6161C23.4073 36.6161 20.4305 36.6161 17.4615 36.6161C14.4768 36.6005 11.4922 36.5692 8.50755 36.5224C6.8199 36.5067 5.14007 36.4833 3.46804 36.452C3.63993 36.6083 3.81962 36.7646 4.00714 36.9208C3.93682 32.8189 3.88994 28.7639 3.88994 24.6619C3.87431 20.5522 3.88996 16.4503 3.93684 12.3562C3.96809 10.0435 3.99932 7.73074 4.03057 5.41803C3.8118 5.66805 3.58524 5.91808 3.35085 6.1681C6.31986 6.1056 9.29668 6.05872 12.2813 6.02747C15.266 5.99622 18.2428 5.98059 21.2118 5.98059C22.8838 5.98059 24.5636 5.98839 26.2513 6.00402C26.0638 5.78525 25.8762 5.57429 25.6887 5.37115C25.7044 8.4183 25.72 11.4733 25.7356 14.536C25.7356 15.3955 25.7356 16.2627 25.7356 17.1378C25.9075 16.9034 26.0872 16.6612 26.2747 16.4112C25.2668 16.88 24.1886 17.255 23.1104 17.466C22.876 17.5129 22.665 17.6301 22.5478 17.8645C22.4306 18.0285 22.3369 18.3567 22.4541 18.5442C22.501 18.6067 22.5322 18.6614 22.5478 18.7083C22.5244 18.638 22.5713 18.802 22.5713 18.8255C22.5478 18.7317 22.5713 18.8958 22.5713 18.9192C22.5713 18.9974 22.5713 19.0677 22.5713 19.1302C22.5713 19.4427 22.5713 19.7474 22.5713 20.0443C22.5713 20.6694 22.5713 21.3023 22.5713 21.9429C22.5713 22.5524 22.5713 23.1618 22.5713 23.7712C22.5713 24.0837 22.5713 24.3963 22.5713 24.7088C22.5713 24.8494 22.5713 24.9979 22.5713 25.1542C22.5713 25.2245 22.5713 25.3182 22.5478 25.3886C22.5713 25.2714 22.5244 25.4589 22.501 25.4823C22.3603 25.787 22.5244 26.2089 22.8526 26.2793C23.251 26.373 23.5323 26.0449 23.6729 25.7167Z" fill="#1499FC"/>
<path d="M6.58708 13.154C7.80594 11.4663 9.16543 9.89585 10.689 8.46604C11.0172 8.16132 10.5015 7.6691 10.1733 7.97381C8.6029 9.45051 7.21996 11.0678 5.95422 12.8024C5.83703 12.9664 5.95422 13.2008 6.09486 13.2946C6.28237 13.3884 6.46988 13.318 6.58708 13.154Z" fill="#1499FC"/>
<path d="M6.98371 18.2634C9.35892 15.8257 11.7263 13.388 14.0859 10.9502C14.7422 10.2627 15.4063 9.57512 16.0782 8.88756C16.383 8.5594 15.8673 8.06718 15.5626 8.39533C13.203 10.833 10.8356 13.2708 8.46038 15.7085C7.80408 16.396 7.13996 17.0836 6.46802 17.7712C6.16331 18.0993 6.679 18.5915 6.98371 18.2634Z" fill="#1499FC"/>
<path d="M24.5879 25.4594C24.8458 25.0609 25.1505 24.6859 25.5489 24.4046C25.9005 24.1468 25.5489 23.5374 25.1739 23.8187C24.6895 24.1624 24.291 24.5922 23.9785 25.1078C23.7441 25.5063 24.3535 25.8579 24.5879 25.4594Z" fill="#1499FC"/>
<path d="M25.5505 25.8574C25.9959 25.5293 26.4881 25.248 27.0038 25.037C27.1913 24.9667 27.3085 24.8027 27.2382 24.6151C27.1913 24.4276 26.9804 24.287 26.8163 24.3573C26.2303 24.5917 25.6912 24.873 25.1755 25.248C25.0349 25.3652 24.9646 25.5762 25.0583 25.7402C25.1521 25.9043 25.4099 25.9746 25.5505 25.8574Z" fill="#1499FC"/>
<path d="M26.7921 26.4206C27.3078 26.0456 27.8938 25.858 28.5032 25.8346C28.972 25.8346 28.9485 25.108 28.5032 25.1314C27.7531 25.1549 27.0265 25.3658 26.4171 25.8112C26.042 26.069 26.4171 26.6784 26.7921 26.4206Z" fill="#1499FC"/>
<path d="M28.5047 27.4284C28.9032 27.1003 29.4189 26.9596 29.9345 26.9831C30.4033 27.0065 30.3799 26.3033 29.9345 26.2799C29.2079 26.233 28.5516 26.4908 27.9891 26.9362C27.8484 27.0534 27.8953 27.3112 28.0125 27.4284C28.1531 27.5925 28.3641 27.5456 28.5047 27.4284Z" fill="#1499FC"/>
<path d="M18.3539 28.7872C18.5414 28.6231 18.729 28.4591 18.8696 28.2715C18.9868 28.1075 19.0337 27.8965 18.8696 27.7559C18.729 27.6387 18.4946 27.6152 18.3539 27.7793C18.2914 27.8574 18.2289 27.9356 18.1664 28.0137C18.1352 28.045 18.0961 28.0762 18.0492 28.1075C18.0336 28.1231 18.018 28.1387 18.0023 28.1543C18.0023 28.1543 17.932 28.2247 17.9789 28.1778C17.8382 28.295 17.7445 28.5059 17.8617 28.67C17.9554 28.8107 18.1899 28.9044 18.3539 28.7872Z" fill="#1499FC"/>
<path d="M18.9874 30.0067C19.0186 29.9754 19.0421 29.9442 19.0577 29.9129C19.0577 29.8895 19.1046 29.8426 19.0811 29.8895C19.0577 29.9364 19.1046 29.866 19.1046 29.866C19.1514 29.7879 19.2061 29.7254 19.2686 29.6785C19.4093 29.5379 19.4093 29.28 19.2686 29.1628C19.1045 29.0222 18.917 29.0457 18.753 29.1863C18.6123 29.3269 18.4873 29.491 18.3779 29.6785C18.2842 29.8426 18.3545 30.077 18.5186 30.1473C18.6826 30.2411 18.8936 30.1942 18.9874 30.0067Z" fill="#1499FC"/>
<path d="M19.335 31.6702C19.3506 31.6389 19.3663 31.6077 19.3819 31.5764C19.3819 31.5764 19.4053 31.553 19.4053 31.5296C19.4053 31.5452 19.3975 31.5608 19.3819 31.5764C19.3975 31.5608 19.4053 31.553 19.4053 31.553C19.4522 31.4905 19.4991 31.4358 19.546 31.3889C19.6866 31.2483 19.6866 30.9905 19.546 30.8733C19.4053 30.7561 19.1709 30.7561 19.0303 30.8967C18.9053 31.0217 18.7959 31.1623 18.7022 31.3186C18.6084 31.4827 18.6787 31.7171 18.8428 31.8108C19.0303 31.9046 19.2178 31.8343 19.335 31.6702Z" fill="#1499FC"/>
<path d="M19.6172 32.8431C19.711 32.7337 19.8048 32.6165 19.8985 32.4915C20.0157 32.3508 20.0392 32.1399 19.8751 31.9992C19.7345 31.882 19.5 31.8586 19.3828 31.9992C19.2891 32.1242 19.1953 32.2414 19.1016 32.3508C18.9609 32.4915 18.9609 32.7259 19.1016 32.8431C19.2422 32.9602 19.4766 32.9837 19.6172 32.8431Z" fill="#1499FC"/>
<path d="M20.0889 34.1085C20.1514 33.9991 20.2139 33.8897 20.2764 33.7803C20.3702 33.6162 20.2999 33.3818 20.1358 33.2881C19.9717 33.1943 19.7608 33.2646 19.667 33.4287C19.5889 33.5381 19.5186 33.6475 19.4561 33.7569C19.3623 33.921 19.4326 34.1553 19.5967 34.2491C19.7842 34.3429 19.9717 34.2726 20.0889 34.1085Z" fill="#1499FC"/>
<path d="M37.4786 16.7165C39.0569 16.2165 40.6351 15.7086 42.2134 15.1929C42.6588 15.0523 42.4713 14.3725 42.0259 14.5132C40.4476 15.0132 38.8615 15.5211 37.2677 16.0368C36.8457 16.1774 37.0333 16.8571 37.4786 16.7165Z" fill="#1499FC"/>
<path d="M38.9561 22.3887C40.55 22.3106 42.1361 22.3341 43.7144 22.4591C44.1832 22.5059 44.1597 21.7793 43.7144 21.7559C42.1205 21.6309 40.5266 21.5996 38.9327 21.6621C38.4874 21.6856 38.4873 22.4122 38.9561 22.3887Z" fill="#1499FC"/>
<path d="M37.6909 26.2101C37.7612 26.4445 38.0659 26.5617 38.2534 26.6789C38.6129 26.8976 38.9644 27.1086 39.3082 27.3117C40.1286 27.8274 40.9725 28.3431 41.6756 28.9759C42.0272 29.2806 42.5195 28.765 42.1679 28.4603C41.4647 27.8274 40.6209 27.3117 39.8239 26.8195C39.4645 26.5851 39.1051 26.3585 38.7457 26.1398C38.6207 26.0772 38.5035 26.0069 38.3941 25.9288C38.3472 25.8975 38.3082 25.8741 38.2769 25.8585C38.23 25.8116 38.3472 25.9053 38.3003 25.8819C38.23 25.8116 38.3941 26.046 38.3706 25.9991C38.23 25.5772 37.5503 25.7647 37.6909 26.2101Z" fill="#1499FC"/>
<path d="M38.9805 24.6866C39.4493 24.6866 39.9102 24.7335 40.3634 24.8272C40.8322 24.921 40.9963 24.2178 40.5509 24.1475C40.0353 24.0381 39.5118 23.9834 38.9805 23.9834C38.5117 23.9834 38.5117 24.6866 38.9805 24.6866Z" fill="#1499FC"/>
<path d="M43.2921 25.3419C43.6906 25.3419 44.0656 25.3887 44.4406 25.4825C44.886 25.5997 45.0501 24.8965 44.6047 24.7793C44.1828 24.6699 43.7452 24.6152 43.2921 24.6152C42.8233 24.6152 42.8467 25.3419 43.2921 25.3419Z" fill="#1499FC"/>
<path d="M38.2994 19.8105C38.5807 19.8574 38.8151 19.7636 39.0729 19.6698C39.3386 19.5761 39.612 19.5136 39.8933 19.4823C40.1042 19.4589 40.2683 19.3183 40.2449 19.1073C40.2449 18.9432 40.0808 18.7323 39.8933 18.7557C39.6355 18.8026 39.3542 18.8495 39.0964 18.9198C38.987 18.951 38.8776 18.9823 38.7682 19.0135C38.6979 19.037 38.5338 19.1307 38.4635 19.1307C38.276 19.1073 38.0885 19.1776 38.0416 19.3886C37.9947 19.5526 38.1119 19.787 38.2994 19.8105Z" fill="#1499FC"/>
<path d="M42.6114 19.0601C43.0646 18.9038 43.5334 18.7788 44.0178 18.685C44.2053 18.6616 44.2991 18.4272 44.2522 18.2631C44.1819 18.0522 43.9944 17.9818 43.8068 18.0053C43.3381 18.099 42.8693 18.224 42.4005 18.3803C41.9786 18.5209 42.1661 19.2007 42.6114 19.0601Z" fill="#1499FC"/>
</svg>
