<svg width="46" height="44" viewBox="0 0 46 44" fill="none" xmlns="http://www.w3.org/2000/svg">
<path d="M34.9604 25.7248C36.624 24.0612 37.7249 21.9328 38.1164 19.6331C38.4589 17.4802 38.1408 15.205 37.1867 13.2478C36.1836 11.1683 34.5445 9.38236 32.5139 8.25699C30.6057 7.18054 28.3549 6.69123 26.1531 6.93588C23.8534 7.15606 21.7249 8.15912 20.0124 9.7004C18.3243 11.1927 17.0766 13.2478 16.5629 15.4496C16.0491 17.627 16.147 19.9267 16.9543 22.0306C17.7616 24.1591 19.2784 26.0184 21.1622 27.2661C22.9971 28.4649 25.1989 29.0765 27.4008 29.0031C29.6271 28.9542 31.8289 28.1958 33.6148 26.8747C34.0878 26.5159 34.5363 26.1326 34.9604 25.7248C35.2295 25.4557 35.3274 24.9664 35.0827 24.6728C34.8136 24.3548 34.3977 24.5016 34.153 24.7462C33.9573 24.9256 33.7616 25.1051 33.5659 25.2845C33.7127 25.1621 33.5414 25.3089 33.517 25.3089C33.468 25.3579 33.4191 25.3986 33.3702 25.4313C33.256 25.5291 33.1418 25.6188 33.0277 25.7004C32.8156 25.8472 32.6036 25.9858 32.3916 26.1163C32.2774 26.1815 32.1714 26.2467 32.0735 26.312C32.0083 26.3446 31.9512 26.3772 31.9023 26.4098C31.8778 26.4098 31.6332 26.5322 31.78 26.4588C31.3233 26.6871 30.8503 26.8828 30.361 27.0459C30.1327 27.1275 29.8962 27.2009 29.6515 27.2661C29.6026 27.2824 29.5455 27.2987 29.4803 27.315C29.6271 27.2661 29.4314 27.315 29.4314 27.315C29.2846 27.3477 29.1378 27.3721 28.991 27.3884C28.5017 27.4863 28.0042 27.5352 27.4986 27.5352C27.254 27.5352 27.0093 27.5352 26.7647 27.5352C26.9115 27.5352 26.7157 27.5352 26.6913 27.5352C26.626 27.5189 26.569 27.5108 26.52 27.5108C26.3733 27.4945 26.2346 27.4781 26.1041 27.4618C25.5985 27.3966 25.1011 27.2906 24.6118 27.1438C24.0491 26.997 23.731 26.8747 23.2662 26.6545C22.7932 26.4425 22.3447 26.1897 21.9206 25.8961C21.7086 25.7493 21.5047 25.6025 21.309 25.4557C21.0399 25.2355 20.991 25.1866 20.7463 24.9664C20.3712 24.6076 20.0205 24.2325 19.6944 23.841C19.5313 23.6453 19.3763 23.4415 19.2295 23.2294C19.1643 23.1153 19.099 23.0092 19.0338 22.9114C19.0338 22.9114 18.9115 22.7401 18.9849 22.838C18.9359 22.7727 18.8952 22.6994 18.8625 22.6178C18.6016 22.1774 18.3814 21.7208 18.202 21.2478C18.1205 21.0194 18.0389 20.783 17.9574 20.5383C17.941 20.4894 17.9247 20.4323 17.9084 20.367C17.8595 20.1713 17.9329 20.4894 17.8839 20.2937C17.8513 20.1632 17.8187 20.0327 17.7861 19.9022C17.6882 19.3966 17.623 18.891 17.5904 18.3854C17.5904 18.2712 17.5822 18.1571 17.5659 18.0429C17.5659 18.0184 17.5659 17.8227 17.5659 17.9695C17.5659 17.9206 17.5659 17.8635 17.5659 17.7982C17.5659 17.5373 17.5822 17.2763 17.6148 17.0154C17.6312 16.7707 17.6556 16.5342 17.6882 16.3059C17.7209 16.1754 17.7453 16.0531 17.7616 15.9389C17.7779 15.8737 17.7861 15.8166 17.7861 15.7677C17.7616 15.9389 17.8106 15.6943 17.835 15.6454C17.9492 15.1561 18.1041 14.6749 18.2999 14.2019C18.3488 14.0878 18.3977 13.9736 18.4467 13.8594C18.52 13.6637 18.3488 14.0307 18.4467 13.835C18.4793 13.7697 18.5119 13.7126 18.5445 13.6637C18.6587 13.419 18.781 13.1826 18.9115 12.9542C19.042 12.7422 19.1806 12.5302 19.3274 12.3181C19.36 12.2692 19.4008 12.2203 19.4497 12.1713C19.4742 12.1469 19.5965 11.9756 19.4742 12.1469C19.5557 12.0164 19.6454 11.8941 19.7433 11.7799C20.0858 11.3885 20.4528 11.0133 20.8442 10.6545C20.8931 10.6219 20.9421 10.5811 20.991 10.5322C20.8442 10.6545 21.0155 10.5077 21.0399 10.5077C21.1378 10.4262 21.2356 10.3446 21.3335 10.2631C21.5455 10.1 21.7739 9.94505 22.0185 9.79826C22.2305 9.65147 22.4426 9.521 22.6546 9.40683C22.6791 9.40683 22.8503 9.30896 22.7035 9.38236C22.7688 9.34974 22.8258 9.32528 22.8748 9.30897C23.0053 9.24373 23.1357 9.17849 23.2662 9.11325C23.7392 8.91753 24.2203 8.75444 24.7096 8.62396C24.7749 8.60765 24.832 8.59133 24.8809 8.57502C24.7586 8.62395 24.9298 8.57502 24.9543 8.57502C25.0685 8.54241 25.1908 8.51794 25.3213 8.50163C25.5822 8.4527 25.8432 8.42008 26.1041 8.40377C26.3325 8.37115 26.569 8.35484 26.8136 8.35484C26.9278 8.35484 27.0501 8.35484 27.1806 8.35484C27.2458 8.35484 27.3029 8.35484 27.3518 8.35484C27.3763 8.35484 27.621 8.3793 27.4986 8.35484C28.5017 8.42823 29.5047 8.64842 30.4589 8.99093C30.6546 9.06432 30.3366 8.94199 30.5323 9.01539C30.5975 9.04801 30.6546 9.07247 30.7035 9.08878C30.8177 9.13771 30.9319 9.1948 31.046 9.26004C31.2907 9.3742 31.5353 9.49653 31.78 9.62701C32.2366 9.88796 32.677 10.1816 33.1011 10.5077C33.1989 10.5893 33.2968 10.6708 33.3946 10.7524C33.2968 10.679 33.4681 10.8258 33.4681 10.8258C33.517 10.8584 33.5659 10.8992 33.6148 10.9481C33.8106 11.1275 33.9981 11.3151 34.1775 11.5108C34.5526 11.9022 34.8952 12.3181 35.205 12.7585C35.4986 13.1989 35.6943 13.5169 35.939 14.0307C36.1673 14.5037 36.3549 14.9848 36.5017 15.4741C36.518 15.5393 36.5343 15.5964 36.5506 15.6454C36.5751 15.6698 36.624 15.8655 36.5751 15.7187C36.6077 15.8329 36.6403 15.9552 36.6729 16.0857C36.7219 16.3304 36.7708 16.5832 36.8197 16.8441C36.8523 17.0888 36.8768 17.3334 36.8931 17.5781C36.8931 17.6922 36.9013 17.8146 36.9176 17.945C36.9176 17.994 36.9176 18.051 36.9176 18.1163C36.9176 17.945 36.9176 18.1897 36.9176 18.2386C36.9176 18.7442 36.8768 19.2417 36.7953 19.731C36.7626 19.8451 36.7382 19.9674 36.7219 20.0979C36.7219 20.1224 36.6729 20.3181 36.7219 20.1469C36.7055 20.1958 36.6892 20.2529 36.6729 20.3181C36.6077 20.5628 36.5343 20.8156 36.4527 21.0765C36.3712 21.3049 36.2815 21.5332 36.1836 21.7615C36.1673 21.8105 36.1429 21.8675 36.1102 21.9328C36.1102 21.9572 36.0124 22.153 36.1102 21.9573C36.045 22.0877 35.9798 22.2182 35.9145 22.3487C35.6699 22.8135 35.4008 23.2539 35.0827 23.6943C34.9604 23.8655 35.1806 23.5475 35.0583 23.7187C35.0093 23.7677 34.9686 23.8166 34.9359 23.8655C34.8544 23.9797 34.7728 24.0775 34.6913 24.1591C34.5119 24.3711 34.3325 24.5668 34.153 24.7462C33.8839 24.9909 33.7861 25.5047 34.0307 25.7982C34.2998 26.0918 34.7158 25.9695 34.9604 25.7248Z" fill="#1499FC"/>
<path d="M30.6068 21.3696C32.0257 19.9262 32.4906 17.651 31.6098 15.7917C30.7536 14.0057 28.8209 12.9048 26.8392 13.1006C24.8086 13.3207 23.0472 14.8865 22.5823 16.8681C22.1175 18.8253 22.8514 20.9048 24.5395 22.0302C25.4447 22.6418 26.5456 22.9109 27.5976 22.7886C28.7475 22.6907 29.775 22.1525 30.6068 21.3696C30.827 21.1495 30.9248 20.7091 30.7047 20.44C30.46 20.1709 30.093 20.2932 29.8728 20.5134C29.8239 20.546 29.7831 20.5868 29.7505 20.6357C29.7261 20.6602 29.6527 20.7336 29.7261 20.6602C29.6445 20.7254 29.563 20.7906 29.4814 20.8559C29.3999 20.9048 29.3183 20.9537 29.2368 21.0027C29.2041 21.0353 29.1634 21.0598 29.1144 21.0761C29.1144 21.0761 28.9432 21.1739 29.041 21.125C28.8616 21.2065 28.6822 21.2799 28.5028 21.3452C28.4213 21.3778 28.3316 21.4023 28.2337 21.4186C28.0625 21.4675 28.3316 21.3941 28.1603 21.443C28.0951 21.4593 28.0298 21.4675 27.9646 21.4675C27.7852 21.5001 27.6058 21.5164 27.4264 21.5164C27.1817 21.5164 27.1083 21.5164 26.8637 21.492C26.4722 21.443 26.1053 21.3207 25.8117 21.1984C25.6323 21.1168 25.461 21.019 25.2979 20.9048C25.1511 20.807 24.9554 20.6602 24.8576 20.5868C24.6945 20.44 24.5477 20.2769 24.4172 20.0975C24.2949 19.9751 24.1725 19.755 24.0992 19.6571C24.0176 19.494 23.9361 19.3228 23.8545 19.1434C23.8219 19.0618 23.7893 18.9721 23.7566 18.8742C23.7403 18.8253 23.724 18.7682 23.7077 18.703C23.7322 18.8008 23.7077 18.6296 23.7077 18.6296C23.6588 18.4502 23.6262 18.2708 23.6099 18.0914C23.6099 18.0261 23.6099 17.9609 23.6099 17.8956C23.6099 17.7815 23.6099 17.6673 23.6099 17.5531C23.6262 17.4716 23.6343 17.3819 23.6343 17.284C23.6506 17.2351 23.6669 17.178 23.6832 17.1128C23.6832 17.0883 23.7077 16.9905 23.6832 17.1128C23.7159 16.9008 23.773 16.705 23.8545 16.5256C23.8708 16.4604 23.8953 16.4033 23.9279 16.3544C23.8545 16.4767 23.9034 16.3788 23.9279 16.3544C23.9768 16.2565 24.0258 16.1668 24.0747 16.0853C24.1236 15.9874 24.1807 15.8977 24.2459 15.8161C24.2622 15.7835 24.2867 15.7509 24.3193 15.7183C24.2215 15.8406 24.3438 15.6694 24.3438 15.6694C24.4906 15.5063 24.6455 15.3513 24.8086 15.2045C24.7108 15.2779 24.882 15.1311 24.9065 15.1067C25.0207 15.0251 25.1267 14.9517 25.2245 14.8865C25.5181 14.7152 25.8362 14.5684 26.2765 14.4706C26.1787 14.495 26.3988 14.4461 26.4478 14.4217C26.5293 14.4053 26.619 14.3972 26.7169 14.3972C26.9126 14.3727 27.1572 14.3727 27.304 14.3727C27.6221 14.3972 28.0624 14.4706 28.405 14.6174C29.1144 14.862 29.7994 15.4002 30.2398 16.0608C30.46 16.3544 30.6557 16.7947 30.7781 17.2106C30.7536 17.1372 30.7781 17.2351 30.7781 17.2351C30.7944 17.3167 30.8107 17.39 30.827 17.4553C30.8433 17.5694 30.8596 17.6755 30.8759 17.7733C30.8759 17.8222 30.8759 17.8712 30.8759 17.9201C30.8759 17.9446 30.8759 18.1648 30.8759 18.0424C30.8759 18.1403 30.8759 18.2382 30.8759 18.336C30.8596 18.4665 30.8433 18.5888 30.827 18.703C30.827 18.7356 30.8188 18.7764 30.8025 18.8253C30.7781 18.9721 30.827 18.7519 30.8025 18.8987C30.7373 19.1107 30.6639 19.3228 30.5823 19.5348C30.5089 19.706 30.6557 19.4125 30.5579 19.5837C30.5252 19.6326 30.4926 19.6897 30.46 19.755C30.4111 19.8528 30.354 19.9507 30.2888 20.0486C30.2561 20.0812 30.2235 20.1219 30.1909 20.1709C30.2643 20.073 30.1664 20.1953 30.1419 20.2198C30.0604 20.3177 29.9707 20.4155 29.8728 20.5134C29.6527 20.7336 29.5548 21.1739 29.775 21.4186C29.9952 21.6877 30.3866 21.5654 30.6068 21.3696Z" fill="#1499FC"/>
<path d="M27.6235 18.4102C31.4889 14.5448 35.3544 10.6793 39.2198 6.81391C40.2636 5.78639 41.2993 4.75071 42.3268 3.70688C42.5715 3.46223 42.6938 2.99741 42.4491 2.70383C42.2045 2.41025 41.7886 2.53258 41.5684 2.77722C37.7519 6.59373 33.9435 10.4021 30.1433 14.2023C29.0506 15.295 27.9578 16.3878 26.8651 17.4806C26.6204 17.7252 26.4981 18.19 26.7427 18.4836C26.9874 18.7772 27.4033 18.6304 27.6235 18.4102Z" fill="#1499FC"/>
<path d="M16.0978 29.0768C14.8012 27.8046 13.7248 26.3123 12.9419 24.6976C12.7462 24.3061 12.3058 24.3551 12.0367 24.6242C11.792 24.8851 11.5392 25.1379 11.2783 25.3826C11.0581 25.6028 10.9602 25.823 10.9602 26.1165C10.9765 26.2959 10.9847 26.4754 10.9847 26.6548C10.9847 27.3724 10.9847 28.09 10.9847 28.8077C11.1967 28.5793 11.4169 28.351 11.6452 28.1226C10.9928 28.1226 10.3486 28.1145 9.71253 28.0982C9.39449 28.0982 9.07644 28.0737 8.7584 28.0982C8.39143 28.1226 8.09785 28.563 7.82874 28.8077C7.5107 29.1257 7.1682 29.3948 7.19266 29.8596C7.19266 30.1858 7.19266 30.5039 7.19266 30.8138C7.20897 31.4499 7.22527 32.0859 7.24158 32.722C7.45361 32.4448 7.66564 32.1593 7.87767 31.8658C7.24159 31.8494 6.6055 31.8413 5.96942 31.8413C5.65138 31.8168 5.30886 31.7924 5.01529 31.8168C4.64831 31.8413 4.35474 32.2572 4.08563 32.5018C3.79205 32.8199 3.44953 33.089 3.44953 33.5783C3.46584 33.8882 3.47401 34.1981 3.47401 34.5079C3.49032 35.144 3.51478 35.772 3.5474 36.3917C3.75943 36.1145 3.97145 35.829 4.18348 35.5355C3.64525 35.5192 3.10703 35.5028 2.56881 35.4865C2.30785 35.4865 2.05505 35.4784 1.8104 35.4621C1.66361 35.4621 1.54128 35.4376 1.41896 35.4621C1.17431 35.4621 1.00306 35.5599 0.83181 35.7312C0.660556 35.9024 0.464834 36.0982 0.293581 36.2694C0.146792 36.4162 0.0244648 36.5875 0 36.8076C0 36.9789 0.0244588 37.1501 0.0244588 37.3214C0.0407687 37.8596 0.0652455 38.406 0.0978652 38.9605C0.114175 39.4825 0.138637 39.9962 0.171257 40.5018C0.171257 40.6975 0.195716 40.8443 0.31804 40.9911C0.415899 41.089 0.513761 41.1624 0.61162 41.2602C0.807339 41.4559 0.994899 41.6435 1.17431 41.8229C1.54944 42.198 1.92457 42.5813 2.2997 42.9728C2.49542 43.1522 2.68298 43.3316 2.86239 43.511C2.96025 43.6088 3.03364 43.7312 3.15597 43.7801C3.30276 43.878 3.52293 43.8535 3.69418 43.8535C4.2161 43.8861 4.74617 43.9106 5.28439 43.9269C5.79815 43.9513 6.33638 44.0003 6.87461 44.0003C7.21711 44.0003 7.4373 43.7312 7.65748 43.4865C7.83689 43.3071 8.0163 43.1277 8.19571 42.9483C8.57084 42.5732 8.94596 42.198 9.32109 41.8229C10.7727 40.3387 12.2324 38.8627 13.7003 37.3948C15.3965 35.6823 17.0927 33.9697 18.789 32.2572C19.0336 31.9881 19.1315 31.4743 18.789 31.2541C17.8104 30.6181 16.9133 29.8923 16.0978 29.0768C15.8532 28.8566 15.4862 28.9055 15.266 29.1502C15.0703 29.3703 14.9235 29.8107 15.1682 30.0554C16.0489 30.9361 17.0275 31.719 18.0795 32.404C18.0795 32.0778 18.0795 31.7434 18.0795 31.4009C15.0948 34.4019 12.1101 37.4111 9.12537 40.4284C8.30988 41.2602 7.48624 42.1002 6.65443 42.9483C6.80122 42.8667 6.94801 42.7933 7.0948 42.7281C5.92048 42.6792 4.74617 42.6221 3.57186 42.5569C3.70234 42.6221 3.83282 42.6792 3.9633 42.7281C3.04995 41.8148 2.13659 40.9014 1.22324 39.9881C1.25586 40.0696 1.28849 40.1593 1.32111 40.2572C1.25587 39.0176 1.19878 37.7781 1.14985 36.5385C1.08461 36.7505 1.01121 36.9626 0.92966 37.1746C1.158 36.9626 1.38633 36.7424 1.61467 36.5141C1.46788 36.5793 1.32926 36.6527 1.19878 36.7342C2.14475 36.7669 3.09072 36.7995 4.03669 36.8321C4.47706 36.8321 4.69724 36.3183 4.67277 35.9758C4.64015 35.0299 4.61569 34.0839 4.59938 33.1379C4.51783 33.35 4.44445 33.562 4.37921 33.774C4.6891 33.4804 4.99082 33.1787 5.28439 32.8688C5.15391 32.9504 5.01529 33.0238 4.8685 33.089C5.83079 33.1053 6.7849 33.1216 7.73087 33.1379C8.17124 33.1624 8.39143 32.6486 8.39143 32.3061C8.35881 31.3438 8.34249 30.3897 8.34249 29.4437C8.26095 29.6558 8.18756 29.8678 8.12232 30.0798C8.43221 29.7699 8.74209 29.46 9.05198 29.1502C8.90519 29.2317 8.75841 29.3051 8.61162 29.3703C9.5739 29.3867 10.5362 29.3948 11.4985 29.3948C11.8165 29.4193 12.1345 29.0034 12.1345 28.7098C12.1345 27.7638 12.1264 26.8097 12.1101 25.8474C12.0448 26.0105 11.9714 26.1655 11.8899 26.3122C12.1835 26.035 12.4689 25.7577 12.7462 25.4804C12.4526 25.4478 12.159 25.4234 11.8654 25.407C12.6972 27.1196 13.8226 28.6853 15.1682 30.0554C15.4128 30.2755 15.7798 30.2266 15.9755 29.982C16.1712 29.7618 16.3425 29.3214 16.0978 29.0768Z" fill="#1499FC"/>
<path d="M39.2886 0.844167C39.4843 2.19788 39.6719 3.55974 39.8513 4.92977C39.9328 4.71774 40.0062 4.50572 40.0715 4.29369C38.6688 5.71265 37.258 7.13161 35.8391 8.55057C36.1326 8.61581 36.4344 8.68105 36.7442 8.74629C36.7116 6.91958 36.6627 5.09287 36.5975 3.26617C36.4833 3.51082 36.3691 3.75547 36.2549 4.00011C37.5271 3.05414 38.7993 2.10818 40.0715 1.16221C40.3406 0.966488 40.5118 0.599507 40.365 0.281465C40.2427 -0.0121123 39.8757 -0.0854947 39.6311 0.110224C38.9135 0.632139 38.204 1.16221 37.5027 1.70043C37.1439 1.96139 36.7932 2.22234 36.4507 2.48329C36.2713 2.63008 36.0837 2.76872 35.888 2.8992C35.7167 3.04599 35.5944 3.16832 35.521 3.36404C35.4721 3.53529 35.4721 3.68207 35.4965 3.82886C35.5455 5.60663 35.5862 7.38442 35.6189 9.16219C35.6189 9.35791 35.7901 9.52915 35.9858 9.57808C36.1816 9.62701 36.3773 9.52915 36.5241 9.38236C37.7636 8.14281 39.0032 6.90326 40.2427 5.66372C40.3895 5.51693 40.5608 5.34568 40.7076 5.19889C40.9522 4.92978 41.0011 4.68513 40.9522 4.34263C40.9033 3.91857 40.8462 3.49451 40.7809 3.07046C40.6668 2.18972 40.5444 1.30899 40.414 0.428263C40.365 0.110221 40.0715 -0.0855066 39.7779 0.0368172C39.4598 0.134676 39.2397 0.50166 39.2886 0.844167Z" fill="#1499FC"/>
<path d="M44.7229 4.66C43.8421 4.52952 42.9614 4.4072 42.0807 4.29303C41.6403 4.22779 41.2081 4.1707 40.784 4.12177C40.6128 4.09731 40.466 4.04838 40.2947 4.12177C40.1479 4.1707 40.0256 4.29303 39.9277 4.39089C39.7646 4.55399 39.6015 4.71709 39.4384 4.88019C38.2152 6.10343 36.9838 7.33481 35.7443 8.57436C35.3528 8.9658 35.4262 9.74868 36.0623 9.77314C37.8401 9.80576 39.6097 9.84654 41.3712 9.89547C41.5669 9.89547 41.7137 9.89547 41.8849 9.77314C42.0317 9.67528 42.1296 9.50403 42.2519 9.35724C42.3661 9.19414 42.4884 9.03104 42.6189 8.86794C42.8798 8.50913 43.1408 8.15847 43.4018 7.81596C43.94 7.09833 44.4701 6.38885 44.992 5.68752C45.2122 5.39395 45.1877 4.90465 44.8697 4.70893C44.5027 4.48875 44.1602 4.78232 43.9644 5.05143C43.0022 6.3236 42.048 7.59577 41.1021 8.86794C41.2978 8.73746 41.4935 8.59883 41.6892 8.45204C39.8625 8.40311 38.0358 8.36233 36.2091 8.32971C36.3233 8.72115 36.4374 9.12075 36.5516 9.52849C37.9543 8.10954 39.3651 6.69058 40.784 5.27162C40.572 5.35317 40.36 5.43472 40.1479 5.51627C41.518 5.69567 42.8799 5.88323 44.2336 6.07895C44.6005 6.12788 44.9675 5.85878 45.0898 5.49181C45.1632 5.19823 45.1143 4.70893 44.7229 4.66Z" fill="#1499FC"/>
<path d="M36.5244 9.50421C37.3562 8.69688 38.2614 7.93847 38.9953 7.03328C39.191 6.76416 39.3378 6.3972 39.1421 6.10362C38.9708 5.83451 38.6039 5.78558 38.3592 5.98129C37.4051 6.71524 36.6467 7.6449 35.7904 8.50116C36.1329 8.58271 36.4754 8.6561 36.8179 8.72134C36.7853 7.54703 36.7527 6.36456 36.7201 5.17394C36.7201 4.89668 36.7119 4.62757 36.6956 4.36661C36.6956 4.17089 36.6956 3.99964 36.5733 3.85286C36.4754 3.73053 36.3042 3.63267 36.1819 3.55928C35.8067 3.31463 35.4234 3.08629 35.032 2.87427C33.4907 2.018 31.8027 1.38191 30.0412 1.06387C26.6161 0.427782 23.0198 0.941548 19.9128 2.50729C16.6589 4.1709 13.8944 6.86202 12.1819 10.1158C10.5917 13.1495 9.88219 16.6479 10.2736 20.073C10.6406 23.4981 12.1085 26.7519 14.3837 29.2962C16.8302 32.0852 20.1574 33.9201 23.8027 34.5806C27.4968 35.2412 31.4112 34.7274 34.7629 33.0393C38.4326 31.18 41.3684 28.1464 42.9831 24.3543C44.5977 20.5868 44.6712 16.3299 43.3011 12.4889C42.9586 11.4859 42.4938 10.5317 41.98 9.62654C41.8332 9.36558 41.6783 9.11278 41.5152 8.86813C41.3439 8.59902 41.1237 8.45223 40.7812 8.45223C40.6344 8.43592 40.4877 8.42777 40.3409 8.42777C39.2318 8.41146 38.1146 8.38698 36.9892 8.35436C36.7445 8.35436 36.4754 8.3299 36.2063 8.35436C36.3205 8.7458 36.4265 9.12909 36.5244 9.50421C36.769 9.25957 36.8914 8.79473 36.6467 8.52562C36.4021 8.23204 35.9861 8.35436 35.7659 8.59901C35.7659 8.59901 35.7578 8.59901 35.7415 8.59901C35.399 8.94152 35.4235 9.79779 36.0595 9.74886C36.3042 9.7244 36.5733 9.74887 36.8179 9.77333C37.3562 9.77333 37.8944 9.78148 38.4326 9.79779C38.9545 9.8141 39.4765 9.82225 39.9984 9.82225C40.1615 9.82225 40.3246 9.83042 40.4877 9.84673C40.504 9.84673 40.5203 9.84673 40.5366 9.84673C40.561 9.84673 40.5611 9.84673 40.5855 9.84673C40.5366 9.87119 40.4143 9.7978 40.4143 9.77333C40.4143 9.82226 40.5611 9.99351 40.5855 10.0424C40.6508 10.1403 40.7078 10.2382 40.7568 10.336C41.7354 12.0241 42.4449 13.8345 42.7874 15.7183C43.1054 17.5287 43.1054 19.2412 42.7384 21.0516C42.7221 21.1821 42.6977 21.3044 42.665 21.4186C42.6895 21.2962 42.6406 21.5409 42.6406 21.5653C42.5917 21.7937 42.5264 22.022 42.4449 22.2504C42.3307 22.6907 42.1921 23.1229 42.029 23.547C41.9474 23.7427 41.8659 23.9384 41.7843 24.1341C41.7354 24.2483 41.6864 24.3625 41.6375 24.4767C41.662 24.4522 41.6864 24.3543 41.6375 24.4767C41.6049 24.5419 41.5723 24.6071 41.5397 24.6724C41.3439 25.0801 41.1237 25.4797 40.8791 25.8712C40.6508 26.2626 40.398 26.6459 40.1207 27.021C40.0881 27.0699 40.0636 27.1107 40.0473 27.1433C39.9005 27.339 40.0962 27.0699 39.9984 27.1922C39.9331 27.2738 39.8679 27.3553 39.8026 27.4369C39.6559 27.6326 39.5009 27.8202 39.3378 27.9996C39.0279 28.3584 38.7099 28.6928 38.3837 29.0026C38.0412 29.3451 37.7476 29.5898 37.4296 29.8344C34.6895 32.0607 31.3868 33.3084 27.8638 33.4552C24.5611 33.5776 21.2094 32.6968 18.4204 30.8864C17.7109 30.4216 17.0748 29.9323 16.4877 29.3941C15.8842 28.8232 15.3215 28.2116 14.7996 27.5592C14.555 27.233 14.3185 26.9068 14.0901 26.5806C13.976 26.4175 13.8699 26.2544 13.7721 26.0913C13.7395 26.0424 13.7069 26.0016 13.6742 25.969C13.6742 25.9445 13.6253 25.8711 13.6742 25.9445C13.609 25.8467 13.5519 25.757 13.503 25.6754C13.1115 24.9904 12.7772 24.2809 12.4999 23.547C12.3531 23.1882 12.2227 22.8212 12.1085 22.4461C12.0432 22.2667 11.9862 22.0954 11.9372 21.9323C11.9862 22.0302 11.9372 21.9079 11.9372 21.8834C11.9209 21.8345 11.9046 21.7855 11.8883 21.7366C11.872 21.6387 11.8557 21.5409 11.8394 21.443C11.66 20.6928 11.5376 19.9344 11.4724 19.1678C11.4561 18.9884 11.4479 18.8008 11.4479 18.6051C11.4316 18.5236 11.4235 18.4339 11.4235 18.336C11.4235 18.2871 11.4235 18.2381 11.4235 18.1892C11.4235 18.1647 11.4235 17.9935 11.4235 18.1158C11.4235 17.7407 11.4316 17.3574 11.4479 16.966C11.4969 16.1994 11.6029 15.441 11.766 14.6907C11.766 14.6581 11.7741 14.6174 11.7904 14.5684C11.766 14.7152 11.7904 14.6174 11.7904 14.5684C11.8068 14.4706 11.8312 14.3727 11.8638 14.2748C11.9128 14.0954 11.9617 13.9079 12.0106 13.7122C12.1085 13.337 12.2308 12.9701 12.3776 12.6112C12.5081 12.2361 12.6549 11.8691 12.818 11.5103C12.8343 11.4777 12.8506 11.4369 12.8669 11.388C12.818 11.5103 12.8669 11.4125 12.8669 11.388C12.8995 11.3065 12.9403 11.2249 12.9892 11.1434C13.0871 10.9476 13.1849 10.7601 13.2828 10.5807C13.6579 9.87934 14.082 9.21064 14.555 8.57455C14.555 8.57455 14.6773 8.4033 14.6039 8.50116C14.5305 8.59902 14.6773 8.42777 14.6528 8.42777C14.7181 8.34622 14.7833 8.27282 14.8485 8.20758C14.979 8.04448 15.1095 7.88139 15.24 7.71829C15.5172 7.4084 15.8027 7.10666 16.0962 6.81309C16.4061 6.48689 16.7242 6.18516 17.0504 5.90789C17.083 5.87527 17.1156 5.84266 17.1482 5.81004C17.0259 5.9079 17.1972 5.76111 17.2216 5.76111C17.2869 5.69587 17.3521 5.63878 17.4174 5.58985C17.5968 5.44306 17.7762 5.30442 17.9556 5.17394C18.6243 4.68465 19.3338 4.24429 20.084 3.85286C19.9861 3.90179 20.084 3.85285 20.084 3.82838C20.1329 3.81207 20.1819 3.79577 20.2308 3.77946C20.3287 3.73054 20.4184 3.6816 20.4999 3.63267C20.6956 3.55112 20.8914 3.46957 21.0871 3.38802C21.4622 3.22492 21.8373 3.07814 22.2125 2.94766C22.6039 2.81718 22.9872 2.703 23.3623 2.60514C23.4112 2.60514 23.6069 2.55622 23.5091 2.58068C23.6233 2.56437 23.7293 2.53991 23.8271 2.50729C24.0229 2.47467 24.2267 2.44205 24.4388 2.40943C25.2216 2.27895 26.0045 2.20556 26.7874 2.18925C26.9668 2.18925 27.1543 2.1974 27.3501 2.21371C27.4316 2.21371 27.5213 2.21371 27.6192 2.21371C27.8149 2.21371 27.5702 2.21371 27.6926 2.21371C27.7578 2.21371 27.8149 2.22186 27.8638 2.23817C28.2716 2.25448 28.6712 2.29526 29.0626 2.3605C29.8455 2.47466 30.6202 2.65408 31.3868 2.89872C31.5662 2.94765 31.7456 3.00474 31.925 3.06998C32.0228 3.1026 32.1207 3.14337 32.2185 3.1923C32.2675 3.20861 32.3083 3.21676 32.3409 3.21676C32.4632 3.26569 32.3409 3.21677 32.4387 3.2657C32.8302 3.41248 33.2053 3.57558 33.5641 3.75499C34.2981 4.13012 35.0076 4.54603 35.6926 5.0027C35.611 4.87222 35.5295 4.74174 35.4479 4.61126C35.4805 6.14438 35.5132 7.66936 35.5458 9.18617C35.5703 9.40636 35.7415 9.60208 35.9617 9.65101C36.1819 9.69994 36.402 9.57761 36.5733 9.43082C36.9647 9.01492 37.3317 8.59902 37.7231 8.20758C37.9188 8.01186 38.1146 7.81614 38.3103 7.62042C38.5305 7.40024 38.6284 7.32685 38.8485 7.1556C38.6365 6.79678 38.4245 6.44612 38.2124 6.10362C37.4785 7.03328 36.5733 7.76721 35.7659 8.59901C35.5213 8.8192 35.399 9.30849 35.6436 9.5776C35.8883 9.87118 36.3042 9.74886 36.5244 9.50421Z" fill="#1499FC"/>
<path d="M2.42136 41.7007C4.72105 39.3276 6.99627 36.979 9.32042 34.6304C9.93204 34.0187 10.5437 33.3826 11.2287 32.82C11.3755 32.6976 11.351 32.4285 11.2042 32.3062C11.0574 32.1594 10.8373 32.1839 10.6905 32.3062C9.49169 33.3337 8.41523 34.508 7.28985 35.6334C6.14816 36.8077 4.99832 37.9902 3.84032 39.1808C3.18792 39.8495 2.53553 40.5182 1.88313 41.1869C1.54062 41.5294 2.07885 42.0432 2.42136 41.7007Z" fill="#1499FC"/>
<path d="M3.89011 42.8258C6.1898 40.6892 8.38347 38.4466 10.4711 36.098C11.0746 35.4456 11.6618 34.7769 12.2326 34.0919C12.5262 33.7494 12.0124 33.2111 11.6944 33.5781C9.65564 35.9757 7.51904 38.2672 5.28459 40.4527C4.64851 41.0888 4.00428 41.7086 3.35188 42.312C3.00937 42.6301 3.5476 43.1438 3.89011 42.8258Z" fill="#1499FC"/>
<path d="M15.756 10.9485C17.2484 8.42866 19.5725 6.39807 22.2637 5.29716C23.0302 4.97096 23.8213 4.72631 24.6368 4.56322C25.1016 4.46536 24.9059 3.73141 24.4411 3.82927C21.4319 4.48982 18.6429 6.15342 16.6368 8.47758C16.0741 9.11366 15.5603 9.82315 15.1199 10.5816C14.8753 10.9975 15.5359 11.3644 15.756 10.9485Z" fill="#1499FC"/>
<path d="M7.5123 40.5252C7.56123 41.1939 7.602 41.8707 7.63462 42.5558C7.65909 43.0206 8.39303 43.0206 8.36857 42.5313C8.33595 41.8626 8.30332 41.1939 8.2707 40.5252C8.24624 40.0359 7.48783 40.0359 7.5123 40.5252Z" fill="#1499FC"/>
<path d="M8.85472 39.1317C8.8058 39.5965 8.87919 40.0858 9.05044 40.5262C9.12383 40.7219 9.29509 40.8442 9.51528 40.7953C9.68653 40.7464 9.83332 40.5262 9.75993 40.3304C9.61314 39.939 9.5642 39.5476 9.61313 39.1072C9.63759 38.9115 9.41742 38.7402 9.2217 38.7402C9.00151 38.7402 8.87919 38.9115 8.85472 39.1317Z" fill="#1499FC"/>
<path d="M10.2736 37.6395C10.2247 38.0798 10.2736 38.5202 10.347 38.9606C10.4693 39.4254 11.1788 39.2297 11.0809 38.7649C10.9831 38.3734 10.9831 38.0065 11.0075 37.615C11.032 37.4193 10.8363 37.248 10.6406 37.248C10.4204 37.248 10.2981 37.4193 10.2736 37.6395Z" fill="#1499FC"/>
<path d="M11.5 36.5629C11.5 36.8565 11.5 37.1501 11.5 37.4437C11.5 37.933 12.2339 37.933 12.2339 37.4437C12.2339 37.1501 12.2339 36.8565 12.2339 36.5629C12.2339 36.0736 11.5 36.0981 11.5 36.5629Z" fill="#1499FC"/>
<path d="M13.7722 36.8808C13.7396 36.2447 13.7151 35.6087 13.6988 34.9726C13.6988 34.5077 12.9648 34.5077 12.9648 34.997C12.9648 35.6168 12.9893 36.2447 13.0382 36.8808C13.0627 37.3701 13.8211 37.3457 13.7722 36.8808Z" fill="#1499FC"/>
<path d="M14.9975 35.6336C15.0464 34.9242 14.9975 34.1902 14.8752 33.4807C14.8262 33.285 14.5816 33.1872 14.4103 33.2361C14.1902 33.285 14.1167 33.5052 14.1412 33.7009C14.288 34.337 14.3125 34.9976 14.2635 35.6581C14.2146 36.123 14.9486 36.1229 14.9975 35.6336Z" fill="#1499FC"/>
<path d="M16.221 34.3607C16.2944 33.7002 16.221 33.0396 16.0742 32.3791C15.9763 31.9142 15.2668 32.11 15.3647 32.5748C15.5115 33.1864 15.536 33.7736 15.487 34.3852C15.4626 34.5809 15.6828 34.7522 15.854 34.7522C16.0742 34.7277 16.221 34.5564 16.221 34.3607Z" fill="#1499FC"/>
<path d="M20.3799 32.8691C20.9508 32.7223 21.5135 32.5348 22.068 32.3064C22.2637 32.2086 22.386 32.0618 22.3371 31.8416C22.2882 31.6703 22.0435 31.4991 21.8723 31.5969C21.3178 31.8253 20.7469 32.0129 20.1598 32.1596C19.6949 32.282 19.9151 32.9914 20.3799 32.8691Z" fill="#1499FC"/>
<path d="M22.8486 33.7735C23.8028 33.7246 24.7079 33.4066 25.4419 32.8194C25.5887 32.6971 25.6621 32.5014 25.5642 32.3057C25.4664 32.1589 25.1972 32.061 25.0505 32.1833C24.4144 32.6726 23.656 32.9907 22.8486 33.0151C22.3838 33.0396 22.3838 33.798 22.8486 33.7735Z" fill="#1499FC"/>
<path d="M26.692 34.3858C27.6461 34.1412 28.4779 33.5051 28.9183 32.6244C29.1385 32.184 28.5024 31.817 28.2822 32.2574C27.9152 32.9669 27.2791 33.4806 26.4963 33.6763C26.0314 33.7987 26.2271 34.5081 26.692 34.3858Z" fill="#1499FC"/>
<path d="M30.335 34.0681C31.4848 33.8723 32.4634 32.9182 32.6836 31.7928C32.7815 31.3035 32.072 31.1323 31.9741 31.5971C31.8029 32.5023 31.0445 33.2118 30.1393 33.3341C29.9436 33.3831 29.8212 33.6277 29.8702 33.7989C29.9436 34.0191 30.1393 34.0925 30.335 34.0681Z" fill="#1499FC"/>
<path d="M34.665 32.6727C35.032 32.6483 35.3011 32.4526 35.5702 32.2079C35.8149 32.0122 36.0106 31.7675 36.2063 31.5229C36.5488 31.0091 36.7935 30.3975 36.8669 29.7614C36.8913 29.5657 36.8179 29.37 36.5978 29.3211C36.4265 29.2721 36.1819 29.37 36.1574 29.5657C36.0922 30.0713 35.9291 30.5443 35.6681 30.9847C35.5376 31.1804 35.3827 31.368 35.2033 31.5474C35.0809 31.6697 34.8607 31.9143 34.665 31.9388C34.2002 31.9633 34.2002 32.7217 34.665 32.6727Z" fill="#1499FC"/>
<path d="M39.1922 29.541C39.6081 29.1496 39.9751 28.7336 40.1463 28.171C40.3176 27.5593 40.391 26.9477 40.4644 26.3361C40.4644 26.1159 40.2687 25.9447 40.0729 25.9691C39.8528 25.9691 39.7304 26.1404 39.706 26.3361C39.657 26.8743 39.5836 27.3881 39.4368 27.9019C39.3145 28.3911 38.9965 28.7092 38.654 29.0272C38.287 29.3453 38.8252 29.859 39.1922 29.541Z" fill="#1499FC"/>
<path d="M23.4138 27.7065C23.9276 27.7554 24.4903 27.6086 24.9551 27.4374C25.371 27.2906 25.7625 27.0459 25.9337 26.63C26.0071 26.4588 25.9827 26.2386 25.7869 26.1407C25.6401 26.0429 25.371 26.0918 25.2976 26.2875C25.1753 26.5566 24.9062 26.6789 24.6371 26.7523C24.2457 26.8991 23.8297 26.997 23.4138 26.9481C23.2181 26.9236 23.0469 27.1438 23.0469 27.3395C23.0469 27.5352 23.2181 27.682 23.4138 27.7065Z" fill="#1499FC"/>
<path d="M26.9378 27.9762C27.158 28.6613 27.9898 28.1475 28.3568 27.9029C28.8461 27.5604 29.2376 27.12 29.5556 26.6307C29.8002 26.2393 29.1397 25.8723 28.895 26.2882C28.6993 26.5818 28.4547 26.8753 28.1856 27.0955C28.0388 27.2097 27.892 27.3157 27.7452 27.4136C27.6636 27.4625 27.5821 27.5033 27.5005 27.5359C27.4027 27.5848 27.4027 27.5604 27.4271 27.5848C27.4761 27.6011 27.525 27.6256 27.5739 27.6582C27.5739 27.6582 27.5658 27.6501 27.5495 27.6338C27.5821 27.699 27.6147 27.7561 27.6473 27.805C27.6473 27.7887 27.6473 27.7724 27.6473 27.7561C27.5005 27.3157 26.7911 27.5114 26.9378 27.9762Z" fill="#1499FC"/>
<path d="M31.4869 27.633C32.3431 27.2171 32.6612 26.2874 32.9058 25.4556C33.0526 24.9908 32.3187 24.7951 32.1964 25.2599C32.0006 25.9205 31.756 26.6544 31.0954 26.9969C30.6795 27.2171 31.071 27.8287 31.4869 27.633Z" fill="#1499FC"/>
<path d="M34.7147 25.554C35.7912 24.7956 35.5954 23.4745 35.6199 22.3247C35.6199 21.8354 34.886 21.8598 34.8615 22.3247C34.8615 23.132 35.1061 24.3552 34.3233 24.9179C33.9563 25.187 34.3233 25.8231 34.7147 25.554Z" fill="#1499FC"/>
<path d="M25.6134 16.5746C25.1241 16.9171 25.0262 17.5287 24.9773 18.0914C24.9284 18.7764 25.2709 19.3147 25.8336 19.7061C26.8121 20.3911 28.1577 20.2443 28.8672 19.2413C28.9651 19.07 28.8672 18.8254 28.7204 18.7275C28.5247 18.6296 28.329 18.703 28.2066 18.8743C27.7663 19.5104 26.8855 19.5104 26.2984 19.1189C25.9559 18.9232 25.7112 18.6052 25.7112 18.1893C25.7357 17.9202 25.7357 17.3819 26.0048 17.2107C26.3718 16.9171 26.0048 16.281 25.6134 16.5746Z" fill="#1499FC"/>
</svg>
