<svg width="41" height="38" viewBox="0 0 41 38" fill="none" xmlns="http://www.w3.org/2000/svg">
<path d="M25.6577 34.1164C22.992 34.131 20.3189 34.131 17.6386 34.1164C16.8666 34.1164 16.1018 34.1164 15.3444 34.1164C15.5046 34.3058 15.6648 34.4951 15.8251 34.6845C15.8105 33.3007 15.8032 31.9168 15.8032 30.5329C15.5993 30.7514 15.3953 30.97 15.1914 31.1885C17.8717 31.203 20.5593 31.2103 23.2542 31.2103C24.0262 31.2103 24.7983 31.203 25.5703 31.1885C25.3955 30.9991 25.228 30.8097 25.0677 30.6204C25.0677 32.0042 25.0605 33.3881 25.0459 34.7719C25.0459 35.0778 25.1988 35.3837 25.5485 35.34C25.8325 35.3182 26.1603 34.9904 26.1603 34.6845C26.1748 33.3007 26.1821 31.9168 26.1821 30.5329C26.1821 30.2052 26.0292 29.9648 25.7014 29.9648C23.0065 29.9794 20.3117 29.9794 17.6168 29.9648C16.8447 29.9648 16.0727 29.9648 15.3007 29.9648C15.0166 29.9648 14.6888 30.3363 14.6888 30.6204C14.7034 32.0042 14.7107 33.3881 14.7107 34.7719C14.7107 35.0997 14.8636 35.34 15.2133 35.34C17.879 35.3546 20.552 35.3619 23.2323 35.3619C24.0044 35.3619 24.7764 35.3546 25.5485 35.34C25.8544 35.34 26.1384 34.9686 26.1603 34.6845C26.1821 34.3568 25.9855 34.1164 25.6577 34.1164Z" fill="white"/>
<path d="M29.0664 36.649C24.6089 36.7072 20.1515 36.7218 15.694 36.6927C14.4413 36.6781 13.1958 36.6635 11.9576 36.649C12.1178 36.8529 12.2854 37.0568 12.4602 37.2608C12.4602 37.1297 12.4675 36.9986 12.482 36.8675C12.4966 36.8383 12.5039 36.8019 12.5039 36.7582C12.482 36.8238 12.5039 36.7364 12.5039 36.7364C12.5184 36.6927 12.533 36.649 12.5476 36.6053C12.5621 36.547 12.584 36.4887 12.6131 36.4305C12.6131 36.4086 12.635 36.3649 12.6568 36.343C12.6568 36.343 12.5913 36.4523 12.635 36.3868C12.6787 36.2994 12.7442 36.1027 12.8316 36.059C12.8098 36.059 12.7224 36.1901 12.8098 36.0809C12.8243 36.0663 12.8389 36.0517 12.8535 36.0372C12.8972 35.9935 12.9336 35.9497 12.9627 35.906C13.0064 35.8842 13.1157 35.7531 13.0501 35.8187C12.9846 35.8842 13.072 35.8186 13.0938 35.7968C13.123 35.7822 13.1448 35.7604 13.1594 35.7313C13.2176 35.7021 13.2686 35.673 13.3123 35.6438C13.3342 35.622 13.4871 35.5346 13.4216 35.5783C13.356 35.6001 13.4434 35.5564 13.4653 35.5564C13.4944 35.5419 13.5163 35.5346 13.5308 35.5346C13.6037 35.5055 13.6692 35.4763 13.7275 35.4472C13.7493 35.4472 13.9023 35.4035 13.8586 35.4253C13.793 35.4253 13.9678 35.4035 13.9897 35.4035C14.1208 35.3889 14.2592 35.3817 14.4048 35.3817C14.7836 35.3817 15.1623 35.3817 15.5411 35.3817C16.284 35.3817 17.0342 35.3817 17.7916 35.3817C19.3212 35.3962 20.8434 35.4035 22.3584 35.4035C23.1158 35.3889 23.8733 35.3817 24.6308 35.3817C24.995 35.3817 25.3664 35.3817 25.7452 35.3817C25.9345 35.3817 26.1166 35.3817 26.2914 35.3817C26.3351 35.3817 26.3715 35.3817 26.4007 35.3817C26.4225 35.3817 26.5318 35.3817 26.4662 35.3817C26.4007 35.3817 26.4881 35.3817 26.5099 35.3817C26.5536 35.3817 26.5973 35.3889 26.641 35.4035C26.7721 35.4181 26.9032 35.4472 27.0343 35.4909C27.0562 35.4909 27.1654 35.5346 27.0999 35.5127C27.0343 35.4909 27.1217 35.5346 27.1436 35.5346C27.2019 35.5637 27.2601 35.5929 27.3184 35.622C27.4495 35.6948 27.5733 35.7749 27.6898 35.8623C27.6898 35.8623 27.7554 35.9279 27.7117 35.8842C27.6461 35.8186 27.7554 35.9279 27.7554 35.9279C27.8137 35.9716 27.8646 36.0226 27.9083 36.0809C27.9957 36.1828 28.0759 36.2921 28.1487 36.4086C28.0831 36.2994 28.1705 36.4742 28.1924 36.496C28.2215 36.5543 28.2507 36.6198 28.2798 36.6927C28.3089 36.7655 28.3308 36.8383 28.3454 36.9112C28.3672 36.9767 28.3454 36.8893 28.3454 36.8893C28.3599 36.933 28.3672 36.9767 28.3672 37.0204C28.3818 37.0787 28.389 37.1442 28.389 37.2171C28.4036 37.2462 28.4109 37.2753 28.4109 37.3045C28.4109 37.3263 28.4109 37.5011 28.4109 37.3482C28.4109 37.6759 28.5639 37.9818 28.9353 37.96C29.2412 37.9381 29.569 37.5885 29.569 37.2608C29.5908 36.0153 28.9572 34.8135 27.7772 34.3328C27.1217 34.0488 26.4444 34.0706 25.7233 34.0706C24.9076 34.0852 24.0918 34.0925 23.2761 34.0925C21.63 34.0925 19.9912 34.0925 18.3598 34.0925C17.544 34.0925 16.7283 34.0852 15.9125 34.0706C15.1696 34.0706 14.4267 34.0051 13.7056 34.1799C12.3072 34.5295 11.2802 35.9279 11.3021 37.3482C11.3021 37.6978 11.4551 37.96 11.8047 37.96C16.2621 38.0037 20.7196 38.011 25.1771 37.9818C26.4298 37.9818 27.6826 37.9745 28.9353 37.96C29.6127 37.9381 29.8749 36.649 29.0664 36.649Z" fill="white"/>
<path d="M10.7558 20.3723C10.7558 20.7875 10.6247 21.2026 10.3844 21.5741C10.1222 21.9237 9.77256 22.1859 9.35741 22.3607C8.50524 22.7103 7.47828 22.4699 6.82277 21.8363C6.49501 21.5085 6.27651 21.1152 6.18911 20.6782C6.10171 20.2412 6.14541 19.8042 6.34206 19.4109C6.69167 18.6243 7.56568 18.0999 8.46154 18.0999C9.70701 18.1436 10.734 19.1268 10.7558 20.3723C10.7558 20.569 10.9088 20.7875 11.1273 20.7656C11.3676 20.7219 11.4769 20.4597 11.4769 20.263C11.455 18.8428 10.4718 17.5536 9.07335 17.2696C7.84973 17.0292 6.58242 17.5973 5.92691 18.6461C5.24955 19.7386 5.29325 21.1371 6.03616 22.1859C6.73537 23.1473 8.00268 23.628 9.16075 23.3221C10.5592 22.9506 11.455 21.6615 11.4769 20.263C11.4769 20.0664 11.3021 19.8479 11.1054 19.8697C10.8651 19.9134 10.7558 20.1756 10.7558 20.3723Z" fill="white"/>
<path d="M9.0952 20.3699C9.11705 20.3044 9.0952 20.4573 9.0952 20.4792C9.08063 20.5083 9.08063 20.5083 9.0952 20.4792C9.08063 20.5083 9.06606 20.5374 9.0515 20.5666C9.07335 20.501 9.0078 20.6321 9.0078 20.6321C8.92039 20.7195 9.02965 20.6103 8.94224 20.6977C8.83299 20.7851 8.65819 20.8506 8.48339 20.8506C8.30859 20.8506 8.11193 20.7851 7.98083 20.654C7.84973 20.5229 7.80603 20.3918 7.80603 20.2388C7.80603 20.3262 7.80603 20.1733 7.80603 20.1733C7.82788 20.0859 7.78418 20.1733 7.82788 20.1077C7.87158 20.064 7.91528 19.9766 7.95898 19.9329C8.06823 19.8236 8.24303 19.7581 8.41784 19.7581C8.61449 19.7581 8.78929 19.8455 8.9204 19.9548C8.98595 20.0422 9.02965 20.064 9.07335 20.1514C9.0952 20.2388 9.0952 20.2825 9.0952 20.3699C9.11705 20.5884 9.27 20.8506 9.51035 20.8069C9.77256 20.7632 9.90366 20.4792 9.88181 20.2388C9.88181 19.6489 9.5322 19.0807 8.94224 18.8622C8.35229 18.6437 7.74048 18.8622 7.36902 19.343C6.95387 19.8455 6.88832 20.6103 7.23792 21.1565C7.54383 21.6591 8.11193 21.9431 8.70189 21.812C9.4448 21.6591 9.88181 20.9599 9.88181 20.2388C9.90366 20.0203 9.70701 19.7799 9.4885 19.8236C9.2263 19.8673 9.11705 20.1514 9.0952 20.3699Z" fill="white"/>
<path d="M18.9497 14.6253C18.9497 15.0404 18.7967 15.4556 18.5345 15.827C18.4689 15.9363 18.4471 15.9581 18.3597 16.0455C18.2577 16.1329 18.1558 16.213 18.0538 16.2859C17.9008 16.3951 17.6605 16.5262 17.442 16.6136C16.5461 16.8977 15.5192 16.5918 14.9292 15.8707C14.6451 15.543 14.4485 15.0841 14.4266 14.6908C14.4048 14.2538 14.4922 13.8168 14.7107 13.4672C14.9729 13.0957 15.2788 12.7898 15.7377 12.5932C16.1528 12.3965 16.6554 12.3528 17.1361 12.4621C17.6386 12.5495 18.0975 12.8335 18.4252 13.2268C18.7749 13.6201 18.9497 14.1227 18.9497 14.6253C18.9497 14.8438 19.1245 15.106 19.3648 15.0623C19.627 15.0186 19.7363 14.7345 19.7363 14.4942C19.7363 13.2268 18.9715 12.0251 17.7697 11.5881C16.5243 11.1292 15.1696 11.5444 14.3392 12.5713C13.5089 13.5764 13.3778 15.1278 14.077 16.2422C14.7325 17.3347 15.9999 17.9247 17.2672 17.6625C18.753 17.3347 19.7363 15.98 19.7363 14.4942C19.7363 14.2757 19.5615 14.0134 19.3211 14.0571C19.0589 14.1008 18.9497 14.4067 18.9497 14.6253Z" fill="white"/>
<path d="M17.3764 14.6246C17.3545 14.7339 17.3108 14.865 17.2016 14.9742C17.0705 15.0835 16.8957 15.149 16.7209 15.149C16.3276 15.149 15.9998 14.8431 15.9998 14.4935C15.9998 14.3843 16.0654 14.2531 16.1746 14.1439C16.3057 14.0346 16.4805 13.9691 16.6553 13.9691C17.0486 13.9691 17.3545 14.2968 17.3764 14.6246C17.3764 14.8213 17.5293 15.0398 17.7478 15.0179C17.9882 14.9742 18.0974 14.712 18.0974 14.4935C18.0756 13.9035 17.7478 13.3573 17.1797 13.1388C16.5898 12.9421 15.9998 13.1606 15.6065 13.6195C15.235 14.1002 15.1695 14.8431 15.4754 15.3894C15.7813 15.8701 16.3713 16.1541 16.9394 16.023C17.6604 15.8701 18.0756 15.2146 18.0974 14.4935C18.0974 14.2969 17.9226 14.0784 17.7041 14.1002C17.4638 14.1439 17.3764 14.4061 17.3764 14.6246Z" fill="white"/>
<path d="M27.2091 18.3405C27.2091 18.7556 27.0561 19.1708 26.7939 19.5423C26.5317 19.8919 26.1384 20.1978 25.6795 20.3507C24.7837 20.6348 23.7567 20.3507 23.123 19.6078C22.839 19.2582 22.6642 18.8212 22.6205 18.406C22.5986 17.9472 22.686 17.5102 22.9264 17.1606C23.429 16.3521 24.4122 15.937 25.3736 16.1336C25.8762 16.2429 26.335 16.5051 26.6847 16.8984C27.0343 17.3135 27.1872 17.8161 27.2091 18.3405C27.2091 18.5371 27.362 18.7775 27.5805 18.7338C27.8209 18.6901 27.952 18.4279 27.952 18.2094C27.9301 16.9639 27.1654 15.7621 25.9854 15.3251C24.7618 14.8881 23.4071 15.2814 22.5768 16.2866C21.7683 17.2917 21.6372 18.8212 22.3146 19.9356C22.9701 21.0062 24.2374 21.5962 25.4829 21.334C26.9469 21.0062 27.9301 19.6734 27.952 18.2094C27.952 17.9909 27.7772 17.7724 27.5587 17.7942C27.3183 17.8379 27.2091 18.122 27.2091 18.3405Z" fill="white"/>
<path d="M25.5266 18.3381C25.5266 18.2288 25.5266 18.4036 25.5047 18.4255C25.5047 18.4692 25.512 18.4619 25.5266 18.4036C25.512 18.4473 25.4974 18.4838 25.4829 18.5129C25.5266 18.4255 25.461 18.5347 25.4392 18.5566C25.3518 18.6658 25.4829 18.5129 25.3955 18.6003C25.2862 18.7095 25.1114 18.7751 24.9585 18.7751C24.7618 18.7751 24.5652 18.6877 24.4559 18.5784C24.3685 18.491 24.3685 18.4692 24.3248 18.3599C24.3102 18.3308 24.3102 18.3308 24.3248 18.3599C24.3102 18.3308 24.303 18.3017 24.303 18.2725C24.303 18.3599 24.303 18.207 24.303 18.1851C24.303 18.2944 24.303 18.1414 24.303 18.1196C24.3248 18.0103 24.2811 18.1633 24.3248 18.0759C24.3539 18.0176 24.3539 18.0103 24.3248 18.054C24.3394 18.0395 24.3539 18.0176 24.3685 17.9885C24.3831 17.9739 24.3976 17.9521 24.4122 17.9229C24.3831 17.9666 24.3904 17.9666 24.4341 17.9229C24.5433 17.8137 24.6963 17.7481 24.8711 17.7481C25.0677 17.7481 25.2425 17.8355 25.3518 17.9448C25.4392 18.0322 25.4392 18.054 25.5047 18.1414C25.5484 18.2288 25.4829 18.1196 25.5266 18.207C25.5266 18.2653 25.5266 18.2725 25.5266 18.2288C25.5266 18.2725 25.5266 18.309 25.5266 18.3381C25.5484 18.5784 25.7014 18.8407 25.9854 18.797C26.2476 18.7533 26.4006 18.4473 26.3787 18.1851C26.3787 17.5733 26.0073 16.9834 25.4173 16.7649C24.8274 16.5464 24.1937 16.7867 23.8004 17.2674C23.3852 17.77 23.3197 18.5784 23.6475 19.1247C23.9752 19.6491 24.5652 19.955 25.177 19.8239C25.9199 19.6491 26.3569 18.928 26.3787 18.1851C26.4006 17.9666 26.2039 17.6826 25.9417 17.7263C25.6577 17.77 25.5484 18.0977 25.5266 18.3381Z" fill="white"/>
<path d="M33.786 12.4624C33.786 12.3532 33.7641 12.528 33.7641 12.5498C33.7496 12.5935 33.7496 12.5862 33.7641 12.528C33.7496 12.5571 33.735 12.5862 33.7204 12.6154C33.7641 12.5498 33.6986 12.6591 33.6767 12.6809C33.6112 12.7902 33.7423 12.6372 33.633 12.7246C33.5238 12.812 33.3708 12.8994 33.196 12.8994C32.9994 12.8994 32.8246 12.812 32.7153 12.7028C32.6061 12.6154 32.6061 12.5935 32.5624 12.4843C32.5478 12.4551 32.5478 12.4551 32.5624 12.4843C32.5478 12.4551 32.5405 12.426 32.5405 12.3969C32.5624 12.4843 32.5405 12.3313 32.5405 12.3095C32.5405 12.4187 32.5405 12.2658 32.5405 12.2439C32.5624 12.1347 32.5187 12.2876 32.5624 12.2002C32.5915 12.1419 32.5988 12.1346 32.5842 12.1783C32.5842 12.1492 32.5915 12.1274 32.6061 12.1128C32.6206 12.0982 32.6425 12.0764 32.6716 12.0473C32.6425 12.091 32.6425 12.091 32.6716 12.0473C32.8027 11.938 32.9557 11.8725 33.1086 11.8725C33.3053 11.8725 33.5019 11.9598 33.6112 12.0691C33.6986 12.1565 33.6986 12.1565 33.7423 12.2658C33.786 12.3532 33.7204 12.2439 33.7641 12.3313C33.7787 12.3896 33.7787 12.3969 33.7641 12.3532C33.7787 12.3823 33.786 12.4187 33.786 12.4624C33.786 12.7028 33.9608 12.965 34.223 12.9213C34.4852 12.8776 34.6382 12.5498 34.6382 12.3095C34.6163 11.6977 34.2667 11.1077 33.6549 10.8892C33.0649 10.6707 32.4313 10.8892 32.038 11.3917C31.6228 11.8943 31.5573 12.6809 31.9069 13.249C32.2128 13.7734 32.8027 14.0793 33.4145 13.9264C34.1793 13.7734 34.6163 13.0524 34.6382 12.3095C34.6382 12.0691 34.4415 11.8069 34.1793 11.8506C33.8952 11.8943 33.786 12.2002 33.786 12.4624Z" fill="white"/>
<path d="M35.4249 12.4598C35.4249 12.8968 35.2938 13.3119 35.0097 13.6834C34.7694 14.033 34.3761 14.317 33.9391 14.47C33.0213 14.7759 31.9944 14.47 31.3607 13.7489C31.0548 13.3993 30.8582 12.9623 30.8363 12.5253C30.7926 12.0883 30.88 11.6513 31.0985 11.2798C31.6011 10.4495 32.5625 10.0562 33.5021 10.231C34.5946 10.4277 35.403 11.3891 35.4249 12.4598C35.4249 12.6564 35.5778 12.8749 35.7963 12.8531C36.0148 12.8094 36.1241 12.5472 36.1241 12.3505C36.1022 11.0613 35.2938 9.88143 34.0702 9.46627C32.8684 9.02927 31.5574 9.46627 30.7708 10.4495C29.9841 11.4547 29.8967 12.9623 30.5741 14.033C31.2296 15.0818 32.4751 15.6718 33.7206 15.4096C35.1627 15.1037 36.1241 13.7926 36.1241 12.3505C36.1241 12.1539 35.9711 11.9353 35.7526 11.9572C35.5341 12.0009 35.4249 12.2631 35.4249 12.4598Z" fill="white"/>
<path fill-rule="evenodd" clip-rule="evenodd" d="M33.1306 13.8155C32.344 13.8155 31.6885 13.16 31.6885 12.3734C31.6885 12.0019 31.8196 11.6305 32.1036 11.3683C32.3658 11.1061 32.7154 10.9531 33.1087 10.9531C33.8954 10.9531 34.5509 11.6086 34.5509 12.3952C34.5509 12.7667 34.4198 13.1382 34.1357 13.4004C33.8735 13.6626 33.5239 13.8155 33.1306 13.8155ZM33.1087 11.7397C32.9339 11.7397 32.781 11.8053 32.6499 11.9145C32.5406 12.0456 32.4751 12.1986 32.4751 12.3734C32.4751 12.7449 32.7591 13.0289 33.1306 13.0289C33.3054 13.0289 33.4584 12.9634 33.5895 12.8541C33.6987 12.723 33.7643 12.57 33.7643 12.3952C33.7643 12.0456 33.4802 11.7397 33.1087 11.7397Z" fill="white"/>
<path d="M24.9367 5.83884C24.9367 6.73471 24.6527 7.60872 24.1282 8.35163C23.6038 9.07269 22.8391 9.64081 21.9869 9.94672C20.1952 10.5804 18.1413 9.99041 16.9395 8.54829C16.3714 7.84908 16.0218 6.97506 15.9562 6.10105C15.8907 5.18334 16.1092 4.26563 16.5899 3.50087C17.5513 1.92765 19.4523 1.05363 21.3096 1.44694C23.1668 1.81839 24.5653 3.34791 24.8712 5.18333C24.9149 5.35814 24.9149 5.64219 24.9367 5.83884C24.9367 6.05735 25.0897 6.29771 25.3082 6.25401C25.5485 6.21031 25.6796 5.9481 25.6796 5.72959C25.6578 3.54456 24.3031 1.49064 22.2273 0.725878C20.1296 -0.0388833 17.8135 0.660322 16.4151 2.3865C15.0167 4.11267 14.7982 6.69102 15.9562 8.59199C17.0706 10.4711 19.2993 11.4981 21.4625 11.0392C23.6038 10.6022 25.2863 8.78864 25.6141 6.60361C25.6578 6.31227 25.6796 6.02093 25.6796 5.72959C25.6796 5.51109 25.5048 5.27074 25.2863 5.31445C25.046 5.35815 24.9367 5.64219 24.9367 5.83884Z" fill="white"/>
<path d="M22.9264 5.84025C22.9264 6.32095 22.7735 6.77982 22.4894 7.17312C22.2054 7.56643 21.7902 7.87233 21.3095 8.04714C20.3263 8.39674 19.2119 8.09083 18.5345 7.30422C18.2068 6.93276 18.0101 6.45206 17.9664 5.9932C17.9227 5.49064 18.0101 5.00994 18.2723 4.57293C18.7967 3.67707 19.8674 3.19636 20.8944 3.41487C22.0524 3.63337 22.9046 4.66033 22.9264 5.84025C22.9264 6.0369 23.0794 6.2554 23.2979 6.2117C23.5164 6.18985 23.6257 5.92765 23.6257 5.73099C23.6038 4.37627 22.7735 3.10896 21.5062 2.6501C20.217 2.19125 18.7967 2.67195 17.9664 3.74262C17.1143 4.81329 17.005 6.38651 17.7261 7.54458C18.4253 8.6808 19.7582 9.2926 21.0692 9.00854C22.5987 8.68079 23.6257 7.26052 23.6257 5.73099C23.6257 5.53434 23.4727 5.31584 23.2542 5.33769C23.0357 5.38139 22.9264 5.64359 22.9264 5.84025Z" fill="white"/>
<path d="M19.9548 4.42125C19.9548 4.31199 19.9329 4.46496 19.9329 4.48681C19.9548 4.39941 19.9111 4.55235 19.9111 4.5742C19.8965 4.60333 19.8965 4.60333 19.9111 4.5742C19.8965 4.58877 19.882 4.60334 19.8674 4.6179C19.8383 4.64704 19.8383 4.65432 19.8674 4.63975C19.8383 4.65432 19.8164 4.67618 19.8018 4.70531C19.7144 4.77086 19.5396 4.83641 19.3867 4.83641C19.19 4.83641 19.0371 4.77086 18.9278 4.66161C18.7967 4.50865 18.753 4.42126 18.753 4.2683C18.753 4.37756 18.7749 4.22459 18.7749 4.20274C18.753 4.31199 18.7967 4.15904 18.7967 4.13719C18.8404 4.04979 18.7749 4.15904 18.8404 4.09349C18.906 4.00609 18.8186 4.09349 18.8841 4.02794C18.9934 3.91869 19.1463 3.85314 19.3211 3.85314C19.4959 3.85314 19.6707 3.91869 19.7581 4.02794C19.8455 4.09349 19.8674 4.11534 19.9111 4.20274C19.9548 4.29014 19.9548 4.31199 19.9548 4.42125C19.9548 4.63975 20.1296 4.92381 20.3918 4.88011C20.654 4.83641 20.7851 4.50866 20.7851 4.2683C20.7633 3.65649 20.4137 3.06653 19.8018 2.86988C19.2337 2.67323 18.6219 2.91358 18.2723 3.37243C17.8572 3.87499 17.8135 4.63975 18.1194 5.18601C18.4034 5.68856 18.9934 5.99447 19.5833 5.88522C20.3481 5.71042 20.7633 5.01121 20.7851 4.2683C20.7851 4.0498 20.6103 3.78759 20.3481 3.80944C20.064 3.87499 19.9548 4.18089 19.9548 4.42125Z" fill="white"/>
<path d="M29.9405 5.5348C29.9623 5.51295 30.1153 5.33814 30.006 5.42555C29.9769 5.46925 29.9477 5.50566 29.9186 5.5348C29.8021 5.6659 29.6855 5.78972 29.569 5.90626C29.3796 6.08106 29.1903 6.25585 29.0009 6.43066C28.8844 6.54719 28.7678 6.65644 28.6513 6.75841C28.6222 6.78754 28.5857 6.81668 28.542 6.84582C28.5202 6.86767 28.6731 6.73656 28.5639 6.82396C28.4911 6.88223 28.4182 6.94778 28.3454 7.02062C27.6899 7.54502 27.0052 8.02573 26.2915 8.46273C26.1021 8.57927 25.9127 8.69581 25.7233 8.81235C25.6068 8.87061 25.4976 8.9216 25.3956 8.9653C25.5048 8.9216 25.3956 8.96529 25.3519 8.98715C25.2936 9.01628 25.2354 9.0527 25.1771 9.0964C24.7401 9.30033 24.2885 9.4897 23.8224 9.6645C23.5893 9.7519 23.3489 9.82474 23.1013 9.883C22.9848 9.9267 22.8682 9.96312 22.7517 9.99226C22.7226 9.99226 22.6862 9.99955 22.6425 10.0141C22.6425 10.0141 22.555 10.036 22.6206 10.0141C22.6643 10.0141 22.5769 10.0141 22.5769 10.0141C22.5332 10.0287 22.4895 10.0433 22.4458 10.0578C21.936 10.1598 21.4261 10.2253 20.9163 10.2545C20.6395 10.2545 20.37 10.2545 20.1078 10.2545C20.1078 10.2545 19.9986 10.2326 20.0641 10.2545C20.1297 10.2545 19.9986 10.2326 19.9986 10.2326C19.9403 10.2326 19.882 10.2326 19.8238 10.2326C19.6781 10.2181 19.5397 10.2035 19.4086 10.1889C18.8988 10.1161 18.3962 10.0068 17.9009 9.86116C17.6679 9.78832 17.4275 9.70821 17.1799 9.62081C17.0779 9.59168 16.9687 9.55526 16.8521 9.51156C16.9395 9.53341 16.7866 9.48971 16.7647 9.46786C16.7064 9.45329 16.6482 9.43144 16.5899 9.40231C16.1383 9.21294 15.7013 8.99443 15.2789 8.7468C14.5141 8.33164 13.7931 7.85093 13.0939 7.30467C12.9482 7.2027 12.8025 7.09345 12.6569 6.97691C12.584 6.91865 12.5112 6.86038 12.4384 6.80211C12.4092 6.77298 12.3801 6.74384 12.351 6.71471C12.4821 6.82396 12.3728 6.71471 12.3291 6.69286C12.1106 6.50349 11.8921 6.29956 11.6736 6.08106C11.4114 5.86255 11.1929 5.60035 10.9744 5.38184C10.9088 5.31629 10.9088 5.2726 10.9962 5.46925C10.8943 5.76059 10.7923 6.0592 10.6903 6.36511C10.7777 6.32141 10.8651 6.21216 10.9525 6.12476C11.0545 6.00822 11.171 5.8844 11.3021 5.7533C11.4915 5.5785 11.6809 5.39641 11.8702 5.20704C11.9868 5.10507 12.1033 5.0031 12.2198 4.90113C12.2781 4.84287 12.3437 4.7846 12.4165 4.72633C12.4602 4.68263 12.351 4.79189 12.351 4.77004C12.3728 4.77004 12.3947 4.74818 12.4165 4.72633C12.4456 4.6972 12.4821 4.66806 12.5258 4.63893C13.1667 4.09995 13.8513 3.60468 14.5797 3.15311C14.7691 3.02201 14.973 2.89818 15.1915 2.78165C15.2789 2.73795 15.3736 2.68697 15.4755 2.62871C15.5338 2.59957 15.5848 2.57043 15.6285 2.5413C15.694 2.51945 15.6066 2.56315 15.6066 2.56315C15.6503 2.53401 15.6868 2.51216 15.7159 2.4976C16.1529 2.27909 16.6045 2.08244 17.0706 1.90764C17.3037 1.82023 17.544 1.74012 17.7917 1.66729C17.9082 1.63815 18.032 1.60902 18.1631 1.57988C18.2068 1.56531 18.2578 1.55076 18.3161 1.53619C18.3379 1.53619 18.4253 1.51434 18.3161 1.53619C18.3598 1.52162 18.3962 1.51433 18.4253 1.51433C18.9352 1.3978 19.4523 1.32496 19.9767 1.29583C20.2389 1.29583 20.5011 1.29583 20.7633 1.29583C20.6759 1.29583 20.8507 1.31769 20.8726 1.31769C20.9308 1.31769 20.9964 1.32497 21.0692 1.33953C21.2003 1.33953 21.3314 1.3541 21.4625 1.38324C21.9724 1.45607 22.4749 1.56532 22.9702 1.71099C23.2033 1.78383 23.4436 1.86394 23.6913 1.95134C23.735 1.96591 23.7787 1.98048 23.8224 1.99504C23.9316 2.03874 23.8661 2.01689 23.8442 1.99504C23.8734 2.00961 23.8952 2.02418 23.9098 2.03875C24.0409 2.08245 24.1647 2.13343 24.2812 2.1917C24.7182 2.38107 25.148 2.59957 25.5704 2.84721C26.3352 3.28422 27.0781 3.76492 27.7773 4.33303C27.9375 4.44956 28.0905 4.56609 28.2361 4.68263C28.2944 4.7409 28.36 4.79916 28.4328 4.85743C28.3454 4.77003 28.3891 4.83558 28.4546 4.85743C28.4838 4.90113 28.5202 4.93755 28.5639 4.96668C28.7824 5.17062 29.0009 5.37456 29.2194 5.5785C29.4598 5.797 29.6783 6.0592 29.9186 6.2777C29.9623 6.3214 30.006 6.38696 30.0497 6.40881C30.3556 6.58361 30.7271 6.38695 30.88 6.1029C31.0111 5.8407 31.0767 5.40369 30.7708 5.22889C30.8145 5.27259 30.9019 5.38184 30.8363 5.29444C30.8072 5.25074 30.7708 5.21432 30.7271 5.18518C30.6105 5.05408 30.4867 4.92298 30.3556 4.79188C29.8895 4.34031 29.4015 3.9033 28.8916 3.48086C27.4277 2.27909 25.8107 1.27398 24.0409 0.64032C23.0139 0.268865 21.9651 0.0503695 20.8944 0.0066689C19.8238 -0.0370317 18.7312 0.137763 17.7043 0.421817C15.8252 0.968075 14.099 1.97319 12.5695 3.15311C11.7173 3.83047 10.8651 4.55154 10.1441 5.36C10.0785 5.42555 10.0785 5.38184 10.2315 5.29444C9.96927 5.44739 9.79446 5.8844 9.92556 6.19031C10.0348 6.43066 10.297 6.62731 10.4718 6.82396C10.9307 7.26096 11.4332 7.69798 11.9358 8.11313C13.3779 9.3149 14.9948 10.2982 16.7866 10.91C17.8208 11.2887 18.8842 11.4999 19.9767 11.5436C21.0692 11.5873 22.1836 11.4344 23.2324 11.1285C25.1115 10.6041 26.8377 9.59896 28.3672 8.41904C29.1975 7.78538 30.0497 7.08616 30.7489 6.2777C30.7926 6.234 30.8363 6.16845 30.88 6.1029C31.0111 5.81885 31.0767 5.42554 30.7708 5.22889C30.4867 5.07594 30.0716 5.27259 29.9405 5.5348Z" fill="white"/>
<path d="M30.0715 5.64355C30.1152 5.55615 30.1152 5.53429 30.1589 5.49059C30.1808 5.46874 30.2245 5.42504 30.1589 5.49059C30.1298 5.51973 30.1006 5.55614 30.0715 5.59984C29.955 5.71638 29.8312 5.8402 29.7001 5.9713C29.2776 6.39374 28.8333 6.79433 28.3672 7.17307C27.0125 8.28743 25.4829 9.22699 23.8005 9.81695C22.8391 10.1666 21.8339 10.3851 20.8288 10.4288C19.8019 10.4725 18.753 10.3195 17.7698 10.0355C15.9999 9.5329 14.383 8.57149 12.919 7.45712C12.6787 7.26047 12.3946 7.04196 12.1324 6.80161C11.8993 6.61224 11.6735 6.40831 11.455 6.1898C11.2147 5.9713 10.9962 5.73094 10.7558 5.49059C10.7121 5.44689 10.734 5.40319 10.7777 5.53429C10.7121 5.40319 10.6029 5.35949 10.4499 5.35949C8.14835 5.37406 5.85407 5.40319 3.56707 5.44689C3.30487 5.44689 3.19562 5.7965 3.19562 5.9713C3.13735 8.73901 3.10093 11.4994 3.08636 14.2526C3.0718 16.9911 3.0718 19.737 3.08636 22.4901C3.08636 24.0488 3.10093 25.6074 3.13006 27.1661C3.13006 27.2972 3.23932 27.5594 3.41412 27.5594C7.84245 27.6031 12.2708 27.6323 16.6991 27.6468C21.1129 27.6614 25.5266 27.6541 29.9404 27.625C32.4313 27.6104 34.915 27.5885 37.3914 27.5594C37.6317 27.5594 37.7628 27.2098 37.7628 27.035C37.792 24.2673 37.8065 21.5069 37.8065 18.7537C37.8065 16.0152 37.7847 13.2693 37.741 10.5162C37.7264 8.95751 37.7046 7.39885 37.6754 5.84019C37.6754 5.70909 37.5662 5.44689 37.3914 5.44689C35.0898 5.40319 32.7882 5.37406 30.4867 5.35949C30.2463 5.33764 30.0715 5.51244 30.0497 5.7528C30.006 5.9276 30.0715 6.29906 30.3337 6.29906C32.6207 6.31362 34.915 6.34275 37.2166 6.38645C37.1146 6.25535 37.0199 6.11697 36.9325 5.9713C36.9762 8.73901 37.0053 11.4994 37.0199 14.2526C37.049 16.9911 37.0563 19.737 37.0418 22.4901C37.0272 24.0488 37.0126 25.6074 36.9981 27.1661C37.1146 26.9767 37.2384 26.7946 37.3695 26.6198C32.9703 26.6635 28.5784 26.6927 24.1938 26.7072C19.8091 26.7072 15.4245 26.7 11.0399 26.6854C8.54894 26.6708 6.06529 26.649 3.58892 26.6198C3.67632 26.7509 3.77101 26.8893 3.87297 27.035C3.84384 24.2673 3.82927 21.5069 3.82927 18.7537C3.82927 16.0152 3.84384 13.2693 3.87297 10.5162C3.90211 8.95751 3.93124 7.39885 3.96038 5.84019C3.82928 6.02956 3.70545 6.21165 3.58892 6.38645C5.89049 6.34275 8.19205 6.31362 10.4936 6.29906C10.3771 6.24079 10.2606 6.17523 10.144 6.1024C10.1877 6.1898 10.2751 6.25535 10.3188 6.3209C10.4354 6.452 10.5592 6.57582 10.6903 6.69236C11.1273 7.12937 11.5789 7.54452 12.045 7.93783C13.509 9.11775 15.1259 10.1229 16.9176 10.7565C18.9497 11.4776 21.1347 11.565 23.2324 10.975C25.0896 10.4288 26.8158 9.4455 28.3453 8.26558C29.1538 7.65378 29.9186 6.97642 30.5959 6.23351C30.6615 6.14611 30.7052 6.10241 30.7489 6.015C30.8363 5.81835 30.7926 5.49059 30.5959 5.38134C30.3774 5.27209 30.1589 5.44689 30.0715 5.64355Z" fill="white"/>
<path d="M37.741 2.62952C35.017 2.57125 32.3002 2.52754 29.5908 2.49841C28.8187 2.48384 28.0394 2.47656 27.2528 2.47656C27.0125 2.47656 26.794 2.73877 26.7066 2.95727C26.641 3.17578 26.6847 3.43797 26.8814 3.59092C28.0176 4.35568 29.0882 5.2297 29.9841 6.25666C29.9841 6.03816 29.9841 5.81238 29.9841 5.57931C30.006 5.53561 30.1371 5.38265 30.0497 5.4919C30.0205 5.52104 29.9914 5.55018 29.9622 5.57931C29.8457 5.71041 29.7292 5.83422 29.6126 5.95076C29.4233 6.14012 29.2339 6.32221 29.0445 6.49701C28.928 6.59898 28.8042 6.70095 28.6731 6.80292C28.6439 6.83206 28.6148 6.8612 28.5857 6.89033C28.5638 6.91218 28.6731 6.80293 28.5857 6.89033C28.5128 6.9486 28.44 7.00686 28.3672 7.06513C27.7262 7.58954 27.0489 8.07024 26.3351 8.50725C26.1457 8.62378 25.9491 8.74032 25.7451 8.85686C25.6432 8.91513 25.5339 8.97339 25.4174 9.03166C25.5048 8.98796 25.3955 9.0535 25.3737 9.0535C25.3008 9.08264 25.2353 9.11178 25.177 9.14091C24.74 9.35941 24.2885 9.55607 23.8223 9.73087C23.5892 9.80371 23.3489 9.87654 23.1013 9.94937C22.9847 9.97851 22.8682 10.0076 22.7516 10.0368C22.6205 10.0805 22.5987 10.0805 22.4239 10.1242C21.9286 10.2261 21.4188 10.2917 20.8944 10.3208C19.8893 10.3645 18.8841 10.2116 17.879 9.92752C17.6314 9.85468 17.391 9.77457 17.158 9.68717C17.0487 9.66532 16.9176 9.59977 16.8521 9.57792C16.7865 9.55607 16.6336 9.49051 16.5462 9.44681C16.0946 9.25744 15.6576 9.04622 15.2351 8.81315C14.4922 8.398 13.7493 7.91729 13.072 7.39288C12.9117 7.26178 12.7588 7.13796 12.6131 7.02143C12.5403 6.96316 12.4747 6.90489 12.4164 6.84663C12.3873 6.83206 12.3582 6.81021 12.329 6.78108C12.4383 6.86848 12.3072 6.75922 12.2853 6.73737C12.0523 6.54801 11.8338 6.35135 11.6298 6.14741C11.3676 5.90706 11.1491 5.66671 10.9088 5.42636C10.8651 5.3608 10.8651 5.3171 10.9525 5.4919C10.8942 5.73954 10.8359 5.97989 10.7777 6.21296C11.0617 5.90706 11.3458 5.623 11.6298 5.33895C11.7755 5.20785 11.9212 5.07675 12.0668 4.94565C12.2853 4.77084 12.3509 4.70529 12.5475 4.55234C12.9846 4.18817 13.4288 3.85312 13.8804 3.54722C14.2737 3.26317 14.3611 2.47656 13.7275 2.47656C11.8629 2.49113 9.99834 2.51298 8.13378 2.54211C7.21607 2.55668 6.29836 2.57125 5.38064 2.58581C4.92907 2.58581 4.47021 2.59309 4.00407 2.60766C3.61077 2.60766 3.19561 2.58581 2.82415 2.67321C1.38203 2.95726 0.202115 4.22458 0.158414 5.73225C0.071013 7.58953 0.071013 9.44681 0.0491627 11.3041C0.00546202 15.0186 -0.0091042 18.7332 0.00546268 22.4477C0.0200296 23.38 0.0273143 24.305 0.0273143 25.2227C0.0491647 26.1623 0.0273137 27.1237 0.0710143 28.0633C0.136565 29.4399 1.27278 30.6635 2.6275 30.8383C3.06451 30.882 3.52337 30.8601 3.96037 30.882C4.42651 30.882 4.88537 30.882 5.33694 30.882C6.28379 30.8965 7.22335 30.9111 8.15563 30.9257C10.0202 30.9402 11.8848 30.9548 13.7493 30.9694C17.4784 30.9839 21.2076 30.9839 24.9367 30.9694C28.6658 30.9548 32.3949 30.9257 36.124 30.882C36.5902 30.882 37.0563 30.8747 37.5225 30.8601C37.8939 30.8601 38.2435 30.8164 38.5931 30.7072C39.2923 30.4668 39.8604 29.9861 40.2756 29.3962C40.4722 29.1121 40.6252 28.7843 40.7126 28.4347C40.8 28.0196 40.8219 27.6481 40.8219 27.233C40.8364 26.2861 40.8437 25.3466 40.8437 24.4143C40.8874 20.6997 40.8874 16.9779 40.8437 13.2488C40.8291 11.3842 40.8 9.51965 40.7563 7.65509C40.7563 7.17438 40.749 6.70096 40.7345 6.23482C40.7345 5.84151 40.7563 5.42635 40.6689 5.0549C40.516 4.33384 40.1445 3.72203 39.5764 3.26317C39.052 2.84801 38.4183 2.65137 37.741 2.62952C37.4351 2.60767 37.1947 2.97912 37.151 3.24132C37.1292 3.56908 37.3258 3.76573 37.6099 3.78758C37.6973 3.78758 37.8721 3.80943 38.0032 3.85313C38.1561 3.87498 38.2654 3.91868 38.3746 3.96238C38.5057 4.02065 38.6295 4.09348 38.7461 4.18088C38.8043 4.22459 38.8626 4.26828 38.9209 4.31198C38.9864 4.35568 38.8772 4.26829 38.9427 4.33384C38.9719 4.36297 39.001 4.3921 39.0301 4.42123C39.4671 4.85824 39.6638 5.29526 39.6856 5.90707C39.7512 7.69879 39.7512 9.51236 39.773 11.3259C39.8313 14.8948 39.8459 18.471 39.8167 22.0544C39.8167 23.8462 39.8022 25.6379 39.773 27.4296C39.773 27.6263 39.773 27.8229 39.7512 27.9977C39.7512 28.0706 39.7439 28.1434 39.7293 28.2162C39.7075 28.3255 39.7293 28.2599 39.7293 28.2162C39.7148 28.2745 39.7002 28.3328 39.6856 28.391C39.6565 28.4493 39.6347 28.5148 39.6201 28.5877C39.5545 28.6969 39.5982 28.6095 39.6201 28.5877C39.6055 28.6168 39.591 28.646 39.5764 28.6751C39.5327 28.7334 39.4963 28.7916 39.4671 28.8499C39.438 28.879 39.4161 28.9082 39.4016 28.9373C39.4671 28.8281 39.3797 28.9591 39.3797 28.981C39.336 29.0247 39.2851 29.0757 39.2268 29.1339C39.2049 29.1558 39.052 29.2869 39.1612 29.1995C39.0301 29.3015 38.899 29.3962 38.7679 29.4836C38.8553 29.418 38.6805 29.5054 38.6587 29.5273C38.5858 29.5564 38.5203 29.5782 38.462 29.5928C38.4402 29.6147 38.2435 29.6584 38.3309 29.6365C38.2435 29.6511 38.1488 29.6656 38.0469 29.6802C37.6317 29.7239 37.2166 29.7021 36.8014 29.7021C36.3498 29.7166 35.8983 29.7239 35.4467 29.7239C34.5581 29.7385 33.6622 29.753 32.7591 29.7676C30.9528 29.7822 29.1538 29.7894 27.3621 29.7894C23.7495 29.8186 20.1369 29.8259 16.5243 29.8113C12.9117 29.7968 9.30642 29.7676 5.7084 29.7239C5.25682 29.7239 4.80525 29.7166 4.35367 29.7021C4.13517 29.7021 3.92395 29.7021 3.72002 29.7021C3.61805 29.7021 3.5088 29.7021 3.39226 29.7021C3.34856 29.7021 3.29758 29.7021 3.23931 29.7021C3.26116 29.7021 3.06451 29.6802 3.13006 29.7021C2.5401 29.6584 2.03754 29.3961 1.66609 29.0028C1.25093 28.5221 1.11983 28.0851 1.09798 27.4296C1.08341 26.5556 1.07613 25.6816 1.07613 24.8076C1.03243 21.2241 1.02514 17.6407 1.05428 14.0572C1.08341 12.2509 1.11254 10.4446 1.14168 8.63835C1.15625 7.73521 1.17081 6.83206 1.18538 5.92891C1.18538 5.75411 1.18538 5.5793 1.20723 5.4045C1.22908 5.38265 1.27278 5.16415 1.22908 5.2734C1.25822 5.186 1.28735 5.10589 1.31648 5.03305C1.38203 4.8364 1.51313 4.61789 1.64424 4.46494C1.7025 4.40667 1.75349 4.35568 1.79719 4.31198C1.81904 4.29013 1.90644 4.20273 1.81904 4.29014C1.84817 4.261 1.87731 4.23915 1.90644 4.22459C1.96471 4.18089 2.02298 4.13718 2.08124 4.09348C2.11038 4.07891 2.13951 4.06435 2.16864 4.04979C2.16864 4.02794 2.29975 3.96238 2.23419 4.00608C2.19049 4.02794 2.2779 3.98423 2.29975 3.96238C2.32888 3.94781 2.35801 3.94054 2.38715 3.94054C2.45998 3.9114 2.5401 3.88226 2.6275 3.85313C2.73675 3.83128 2.82415 3.80943 2.99896 3.78758C3.41411 3.76573 3.85112 3.76572 4.26627 3.76572C4.73241 3.75116 5.19855 3.74388 5.66469 3.74388C7.44185 3.71474 9.2263 3.68561 11.018 3.65647C11.8775 3.65647 12.7442 3.64919 13.6182 3.63463C13.5745 3.28502 13.5235 2.92813 13.4653 2.56396C12.6131 3.17576 11.7828 3.83128 11.0399 4.55234C10.734 4.8364 10.4281 5.12045 10.144 5.4482C9.99106 5.623 9.85996 5.90706 9.99106 6.14741C10.1003 6.38777 10.3407 6.58442 10.5155 6.75922C10.9816 7.21079 11.4623 7.64052 11.9576 8.04839C13.4216 9.25016 15.0385 10.2334 16.7865 10.8452C17.8135 11.2167 18.8841 11.4352 19.9767 11.4789C21.0692 11.5226 22.1617 11.3696 23.2323 11.0637C25.0896 10.5393 26.8158 9.55607 28.3453 8.37615C29.1756 7.74249 30.0278 7.04328 30.7052 6.23482C30.7489 6.19112 30.7926 6.12557 30.8363 6.08186C30.9237 5.86336 30.9892 5.5793 30.8144 5.38265C29.8748 4.29014 28.6949 3.35058 27.515 2.52027C27.3839 2.899 27.2601 3.27045 27.1436 3.63463C29.8676 3.66376 32.5843 3.70018 35.2937 3.74388C36.0658 3.75845 36.8378 3.77301 37.6099 3.78758C37.9376 3.78758 38.178 3.43797 38.1998 3.15392C38.2435 2.84801 38.0469 2.62952 37.741 2.62952Z" fill="white"/>
<path d="M27.2528 17.0731C28.5638 16.1408 29.8675 15.2085 31.164 14.2762C31.5354 14.014 31.2514 13.2274 30.7707 13.5552C29.4742 14.4874 28.1778 15.4197 26.8813 16.352C26.5098 16.6361 26.7939 17.4008 27.2528 17.0731Z" fill="white"/>
<path d="M18.9498 16.0683C20.0714 16.5781 21.1931 17.088 22.3147 17.5978C22.7736 17.7945 23.0795 16.9423 22.6643 16.7675C21.5281 16.2576 20.3992 15.7478 19.2775 15.238C18.8187 15.0195 18.5346 15.8935 18.9498 16.0683Z" fill="white"/>
<path d="M10.8213 19.1457C12.1178 18.2571 13.4069 17.3613 14.6888 16.4581C15.0821 16.1741 14.7762 15.3875 14.3174 15.7152C13.0209 16.6184 11.7317 17.5215 10.4498 18.4247C10.0565 18.6869 10.3624 19.4953 10.8213 19.1457Z" fill="white"/>
<path d="M14.3174 4.22343C14.1208 4.85709 14.0552 5.51259 14.1208 6.1681C14.1426 6.49585 14.6452 6.49585 14.6233 6.1681C14.5651 5.54172 14.6233 4.9372 14.7981 4.35452C14.9074 4.02677 14.4048 3.91752 14.3174 4.22343Z" fill="white"/>
<path d="M27.6461 6.14514C27.6461 6.1597 27.6534 6.18155 27.668 6.21068C27.668 6.22525 27.668 6.2471 27.668 6.27623C27.668 6.26166 27.668 6.25439 27.668 6.25439C27.668 6.28352 27.668 6.30537 27.668 6.31993C27.668 6.34907 27.6607 6.37092 27.6461 6.38548C27.6316 6.40005 27.617 6.41462 27.6024 6.42919C27.617 6.42919 27.6243 6.42919 27.6243 6.42919C27.6097 6.44375 27.5879 6.45832 27.5587 6.47289C27.5733 6.47289 27.5806 6.46561 27.5806 6.45104C27.5515 6.46561 27.5296 6.48017 27.515 6.49473C27.5005 6.49473 27.4786 6.49473 27.4495 6.49473C27.4495 6.49473 27.4568 6.49473 27.4713 6.49473C27.4422 6.49473 27.4131 6.49473 27.3839 6.49473C27.3985 6.49473 27.4058 6.49473 27.4058 6.49473C27.3767 6.48017 27.3548 6.47289 27.3402 6.47289C27.4058 6.49474 27.4713 6.51659 27.5369 6.49473C27.6024 6.47288 27.6461 6.42919 27.6898 6.36364C27.7117 6.31994 27.7335 6.23253 27.7117 6.16698C27.6826 6.10871 27.6389 6.05774 27.5806 6.01404C27.4713 5.97034 27.3402 5.99219 27.2528 6.07959C27.1654 6.16699 27.1436 6.29809 27.2091 6.40734C27.2528 6.47289 27.2965 6.51659 27.3621 6.51659C27.4276 6.53844 27.515 6.53844 27.5587 6.49473C27.6243 6.45103 27.668 6.40734 27.668 6.34179C27.6898 6.27624 27.6898 6.21069 27.6461 6.14514Z" fill="white"/>
<path d="M5.92697 17.7073C6.49508 16.6803 7.69684 16.3526 8.78936 16.3963C9.11712 16.3963 9.11712 15.8937 8.78936 15.8719C7.50019 15.85 6.14547 16.287 5.48996 17.4669C5.31516 17.751 5.75217 17.9914 5.92697 17.7073Z" fill="white"/>
<path d="M15.388 18.7742C15.7158 18.9272 16.0654 18.949 16.4368 18.9927C16.7864 19.0146 17.136 19.0583 17.4638 19.0146C18.2067 18.9272 18.753 18.5339 19.3211 18.075C19.5614 17.8565 19.2118 17.5069 18.9496 17.7254C18.4908 18.1187 18.0101 18.4683 17.3983 18.512C17.0924 18.5339 16.7864 18.512 16.4805 18.4902C16.2183 18.4683 15.8906 18.4465 15.6502 18.3372C15.3443 18.1843 15.104 18.6431 15.388 18.7742Z" fill="white"/>
<path d="M22.7079 15.3021C23.429 14.6248 24.456 14.3189 25.4392 14.4937C25.7451 14.5374 25.8762 14.0348 25.5485 13.9911C24.3904 13.7945 23.2105 14.1441 22.3583 14.9525C22.118 15.171 22.4894 15.5206 22.7079 15.3021Z" fill="white"/>
<path d="M32.5406 16.6769C33.5894 16.9609 34.7474 16.7861 35.6433 16.1743C35.9274 15.9776 35.6652 15.5625 35.3811 15.7373C34.5726 16.2836 33.5894 16.4365 32.6498 16.1961C32.3439 16.1087 32.2128 16.5895 32.5406 16.6769Z" fill="white"/>
<path d="M16.9613 32.2808C17.3546 31.8729 17.7771 31.5014 18.2287 31.1664C18.4909 30.9698 18.2287 30.5327 17.9665 30.7294C17.4857 31.0936 17.0269 31.4942 16.5899 31.9312C16.3495 32.1497 16.721 32.4993 16.9613 32.2808Z" fill="white"/>
<path d="M18.3379 32.2578C18.9205 31.8645 19.4449 31.4129 19.9111 30.9031C20.1296 30.6627 19.7581 30.3131 19.5396 30.5534C19.1026 31.0341 18.6146 31.4639 18.0757 31.8426C17.8134 32.0174 18.0756 32.4544 18.3379 32.2578Z" fill="white"/>
<path d="M19.9111 32.346C20.4646 31.9527 20.9599 31.4939 21.3969 30.9695C21.5936 30.7291 21.244 30.3795 21.0255 30.6199C20.6176 31.1151 20.1587 31.5449 19.6489 31.909C19.3867 32.1057 19.6489 32.5427 19.9111 32.346Z" fill="white"/>
<path d="M21.681 32.3226C22.1909 31.9002 22.6716 31.4413 23.1231 30.946C23.3635 30.7057 22.992 30.3561 22.7735 30.5964C22.3511 31.0626 21.8922 31.4923 21.397 31.8856C21.2877 31.973 21.244 32.1259 21.3314 32.2352C21.397 32.3444 21.5718 32.41 21.681 32.3226Z" fill="white"/>
<path d="M23.4727 32.3032C23.8515 31.8807 24.2229 31.4583 24.5871 31.0359C24.8056 30.7955 24.4342 30.4459 24.2157 30.6863C23.8515 31.1087 23.48 31.5311 23.1013 31.9536C22.8828 32.2158 23.2542 32.5654 23.4727 32.3032Z" fill="white"/>
<path d="M24.7182 32.3875C25.0095 32.169 25.2936 31.9359 25.5703 31.6883C25.8107 31.4698 25.4392 31.1202 25.1989 31.3387C24.9658 31.5572 24.7182 31.7684 24.456 31.9723C24.3467 32.0379 24.303 32.1909 24.3686 32.322C24.456 32.4312 24.6089 32.4749 24.7182 32.3875Z" fill="white"/>
<path d="M5.42431 9.81914C5.48257 9.4404 5.51899 9.05438 5.53356 8.66107C5.54813 8.45714 5.54813 8.2532 5.53356 8.04927C5.53356 8.00557 5.53356 7.95458 5.53356 7.89631C5.54813 7.80891 5.53356 7.80163 5.48986 7.87447C5.55541 7.83077 5.64281 7.83076 5.73021 7.83076C6.49497 7.69966 7.25973 7.65596 8.04634 7.67781C8.3741 7.69966 8.35225 7.1971 8.02449 7.17525C7.58749 7.16069 7.1432 7.16796 6.69163 7.1971C6.25462 7.2408 5.79576 7.26265 5.35876 7.3719C4.92175 7.48115 5.031 7.94001 5.031 8.28961C5.031 8.75575 4.99458 9.2219 4.92175 9.68804C4.87805 10.0158 5.35876 10.125 5.42431 9.81914Z" fill="white"/>
<path d="M32.8902 25.77C33.4 25.7554 33.9099 25.7481 34.4197 25.7481C34.6674 25.7335 34.915 25.7262 35.1626 25.7262C35.3811 25.7262 35.6433 25.7481 35.8618 25.6826C36.0803 25.617 36.1022 25.3985 36.124 25.2018C36.124 24.9542 36.124 24.6993 36.124 24.4371C36.124 23.9272 36.124 23.4247 36.124 22.9294C36.1022 22.6017 35.5996 22.6017 35.5996 22.9294C35.5996 23.3664 35.5996 23.7961 35.5996 24.2186C35.5996 24.4371 35.5996 24.6556 35.5996 24.8741C35.5996 24.9833 35.5778 25.1144 35.5996 25.2018C35.5996 25.231 35.5996 25.2601 35.5996 25.2892C35.6288 25.2601 35.6579 25.231 35.687 25.2018C35.687 25.2018 35.5559 25.2018 35.5341 25.2018C34.6455 25.231 33.7569 25.2528 32.8683 25.2674C32.5406 25.2674 32.5624 25.77 32.8902 25.77Z" fill="white"/>
<path d="M17.9228 6.6488C18.4035 6.37203 18.8696 6.05885 19.3212 5.70924C19.5615 5.51259 19.2993 5.07558 19.0371 5.29408C18.6001 5.62912 18.1413 5.93502 17.6605 6.2118C17.3765 6.36475 17.6387 6.80175 17.9228 6.6488Z" fill="white"/>
<path d="M20.5448 4.94676C21.1275 4.61172 21.7101 4.27669 22.2928 3.94165C22.5769 3.7887 22.3147 3.35169 22.0306 3.50464C21.4334 3.83968 20.8434 4.17471 20.2607 4.50975C19.9767 4.6627 20.2607 5.09971 20.5448 4.94676Z" fill="white"/>
<path d="M18.5564 7.71905C19.9839 6.83047 21.4115 5.93461 22.839 5.03146C23.1231 4.85666 22.8609 4.4415 22.5768 4.6163C21.1493 5.50488 19.7217 6.39346 18.2942 7.28204C18.032 7.45685 18.2942 7.89385 18.5564 7.71905Z" fill="white"/>
<path d="M19.4303 8.65768C19.7144 8.57028 19.9766 8.41733 20.2388 8.24252C20.4864 8.08229 20.7341 7.90749 20.9817 7.71812C21.6955 7.15002 22.4675 6.66202 23.2978 6.25415C23.5819 6.1012 23.3197 5.66419 23.0138 5.81714C22.2272 6.21045 21.477 6.68387 20.7632 7.23741C20.5447 7.42678 20.3116 7.60159 20.064 7.76183C19.8236 7.91478 19.5614 8.08957 19.2774 8.17698C18.9715 8.26438 19.1026 8.74509 19.4303 8.65768Z" fill="white"/>
<path d="M20.3918 3.57003C21.2076 4.70625 21.9651 5.87888 22.6643 7.08793C22.8172 7.37198 23.2542 7.10978 23.0794 6.82572C22.3948 5.61667 21.6446 4.44404 20.8288 3.30783C20.6322 3.04562 20.217 3.30783 20.3918 3.57003Z" fill="white"/>
<path d="M20.1515 5.31814C20.6905 6.26499 21.193 7.2264 21.6592 8.20239C21.7903 8.48644 22.2273 8.22423 22.0962 7.91832C21.6155 6.95691 21.1129 6.00278 20.5885 5.05593C20.4137 4.77188 19.9985 5.03409 20.1515 5.31814Z" fill="white"/>
<path d="M18.6001 5.44705C19.2993 6.51043 19.9402 7.60295 20.5229 8.7246C20.6758 9.00865 21.091 8.74644 20.9381 8.46239C20.3554 7.34074 19.7217 6.24822 19.0371 5.18484C18.8623 4.90079 18.4253 5.16299 18.6001 5.44705Z" fill="white"/>
</svg>
