<svg width="38" height="38" viewBox="0 0 38 38" fill="none" xmlns="http://www.w3.org/2000/svg">
<path d="M24.1651 9.46771C25.7228 11.0459 26.7681 13.0546 27.1575 15.2477C27.5059 17.3383 27.1985 19.5108 26.2967 21.458C25.3743 23.4256 23.7551 25.1473 21.8285 26.2131C19.9223 27.2789 17.7292 27.7298 15.5566 27.5249C13.384 27.2994 11.2729 26.4181 9.59224 24.9834C7.91155 23.5281 6.68177 21.581 6.16936 19.4289C5.90291 18.3836 5.80043 17.3382 5.86192 16.2519C5.88242 16.17 5.88242 16.047 5.90292 15.924C5.91658 15.7737 5.93025 15.6302 5.94391 15.4936C5.9849 15.2203 6.03272 14.9539 6.08737 14.6942C6.21035 14.1408 6.33333 13.7104 6.53829 13.198C7.31715 11.1279 8.75189 9.30375 10.6375 8.07398C12.4412 6.8852 14.6138 6.2498 16.7864 6.31129C19 6.37278 21.1316 7.09016 22.9148 8.38143C23.352 8.70936 23.7688 9.07145 24.1651 9.46771C24.534 9.83664 24.9644 9.07828 24.6365 8.75034C22.9763 7.09015 20.8037 5.96286 18.4671 5.57343C16.2125 5.2045 13.8555 5.53244 11.7853 6.49576C9.61274 7.50007 7.76806 9.22175 6.59978 11.3329C5.47249 13.3825 4.98058 15.7396 5.18555 18.0556C5.41101 20.4332 6.35383 22.6878 7.91154 24.4914C9.44876 26.2951 11.5599 27.5863 13.8555 28.1397C16.0895 28.6931 18.4671 28.5292 20.5987 27.7093C22.8328 26.869 24.7799 25.2908 26.0917 23.2822C27.383 21.3145 28.0593 18.978 27.9979 16.6209C27.9364 14.2843 27.1575 11.9887 25.7842 10.0826C25.429 9.61801 25.0464 9.17393 24.6365 8.75034C24.2675 8.38141 23.8371 9.13977 24.1651 9.46771Z" fill="url(#paint0_linear_4001_95786)"/>
<path d="M19.4099 11.0691C20.4347 11.0691 21.4664 11.0691 22.5049 11.0691C22.6552 11.0691 22.7986 11.0691 22.9353 11.0691C22.8123 10.9325 22.6825 10.7958 22.5459 10.6592C22.5459 11.971 22.5459 13.2827 22.5459 14.5945C22.5459 16.6714 22.5459 18.7484 22.5459 20.8253C22.5459 21.3036 22.5459 21.7818 22.5459 22.26C22.6688 22.0824 22.7918 21.9048 22.9148 21.7271C21.8763 21.7271 20.8447 21.7271 19.8199 21.7271C19.6695 21.7271 19.5193 21.7271 19.3689 21.7271C19.5056 21.8638 19.6422 22.0004 19.7789 22.1371C19.7789 20.8253 19.7789 19.5135 19.7789 18.2018C19.7789 16.1248 19.7789 14.0479 19.7789 11.971C19.7789 11.4927 19.7789 11.0145 19.7789 10.5362C19.7789 10.3313 19.6149 10.1058 19.3689 10.1263C19.1435 10.1673 19.0205 10.4542 19.0205 10.6592C19.0205 11.971 19.0205 13.2827 19.0205 14.5945C19.0205 16.6714 19.0205 18.7484 19.0205 20.8253C19.0205 21.3036 19.0205 21.7818 19.0205 22.26C19.0205 22.506 19.1845 22.67 19.4099 22.67C20.4347 22.67 21.4664 22.67 22.5049 22.67C22.6552 22.67 22.7986 22.67 22.9353 22.67C23.1812 22.67 23.3042 22.3215 23.3042 22.1371C23.3042 20.8253 23.3042 19.5135 23.3042 18.2018C23.3042 16.1248 23.3042 14.0479 23.3042 11.971C23.3042 11.4927 23.3042 11.0145 23.3042 10.5362C23.3042 10.3108 23.1403 10.1263 22.9148 10.1263C21.8763 10.1263 20.8447 10.1263 19.8199 10.1263C19.6695 10.1263 19.5193 10.1263 19.3689 10.1263C19.1435 10.1263 19.0205 10.4747 19.0205 10.6592C19.0205 10.9052 19.164 11.0691 19.4099 11.0691Z" fill="url(#paint1_linear_4001_95786)"/>
<path d="M14.3473 16.0293C15.3858 16.0293 16.4175 16.0293 17.4423 16.0293C17.5926 16.0293 17.7429 16.0293 17.8932 16.0293C17.7702 15.9063 17.6541 15.7833 17.5447 15.6603C17.5447 16.4119 17.5447 17.1565 17.5447 17.8944C17.5447 19.0832 17.5447 20.2651 17.5447 21.4403C17.5447 21.7135 17.5447 21.9868 17.5447 22.2601C17.6404 22.0961 17.7429 21.939 17.8522 21.7887C16.8274 21.7887 15.8026 21.7887 14.7778 21.7887C14.6274 21.7887 14.4771 21.7887 14.3268 21.7887C14.4361 21.898 14.5523 22.0142 14.6753 22.1371C14.6753 21.3993 14.6753 20.6614 14.6753 19.9235C14.6753 18.7348 14.6753 17.5528 14.6753 16.3777C14.6753 16.1044 14.6753 15.8311 14.6753 15.5579C14.6753 15.3734 14.5318 15.1684 14.3268 15.1889C14.1014 15.2299 13.9989 15.4759 13.9989 15.6603C13.9989 16.4119 13.9989 17.1565 13.9989 17.8944C13.9989 19.0832 13.9989 20.2651 13.9989 21.4403C13.9989 21.7135 13.9989 21.9868 13.9989 22.2601C13.9989 22.4651 14.1424 22.6085 14.3473 22.6085C15.3858 22.6085 16.4175 22.6085 17.4423 22.6085C17.5926 22.6085 17.7429 22.6085 17.8932 22.6085C18.0981 22.6085 18.2006 22.3011 18.2006 22.1371C18.2006 21.3993 18.2006 20.6614 18.2006 19.9235C18.2006 18.7348 18.2006 17.5528 18.2006 16.3777C18.2006 16.1044 18.2006 15.8311 18.2006 15.5579C18.2006 15.3529 18.0572 15.1889 17.8522 15.1889C16.8274 15.1889 15.8026 15.1889 14.7778 15.1889C14.6274 15.1889 14.4771 15.1889 14.3268 15.1889C14.1219 15.1889 13.9989 15.4964 13.9989 15.6603C14.0194 15.8858 14.1424 16.0293 14.3473 16.0293Z" fill="url(#paint2_linear_4001_95786)"/>
<path d="M9.30525 14.4082C10.3301 14.4082 11.3549 14.4082 12.3797 14.4082C12.53 14.4082 12.6803 14.4082 12.8306 14.4082C12.7076 14.2852 12.5915 14.1622 12.4822 14.0393C12.4822 14.9684 12.4822 15.8976 12.4822 16.8267C12.4822 18.3025 12.4822 19.7714 12.4822 21.2334C12.4822 21.575 12.4822 21.9166 12.4822 22.2582C12.5915 22.0943 12.694 21.9371 12.7896 21.7868C11.7648 21.7868 10.74 21.7868 9.71517 21.7868C9.56487 21.7868 9.41456 21.7868 9.26425 21.7868C9.37357 21.9098 9.48971 22.0259 9.61269 22.1353C9.61269 21.2061 9.61269 20.2838 9.61269 19.3683C9.61269 17.8925 9.61269 16.4168 9.61269 14.9411C9.61269 14.6131 9.61269 14.2784 9.61269 13.9368C9.61269 13.7523 9.46921 13.5473 9.26425 13.5678C9.05929 13.6088 8.95681 13.8548 8.95681 14.0393C8.95681 14.9684 8.95681 15.8976 8.95681 16.8267C8.95681 18.3025 8.95681 19.7714 8.95681 21.2334C8.95681 21.575 8.95681 21.9166 8.95681 22.2582C8.95681 22.4632 9.10028 22.6066 9.30525 22.6066C10.3301 22.6066 11.3549 22.6066 12.3797 22.6066C12.53 22.6066 12.6803 22.6066 12.8306 22.6066C13.0356 22.6066 13.138 22.2992 13.138 22.1353C13.138 21.2061 13.138 20.2838 13.138 19.3683C13.138 17.8925 13.138 16.4168 13.138 14.9411C13.138 14.6131 13.138 14.2784 13.138 13.9368C13.138 13.7318 12.9946 13.5678 12.7896 13.5678C11.7648 13.5678 10.74 13.5678 9.71517 13.5678C9.56487 13.5678 9.41456 13.5678 9.26425 13.5678C9.05929 13.5678 8.93631 13.8753 8.95681 14.0393C8.95681 14.2647 9.07979 14.4082 9.30525 14.4082Z" fill="url(#paint3_linear_4001_95786)"/>
<path d="M33.4498 12.9741C32.507 12.6735 31.571 12.3729 30.6419 12.0723C30.5052 12.0313 30.3754 11.9834 30.2524 11.9288C30.3481 12.0244 30.4437 12.1133 30.5394 12.1952C30.3481 11.5804 30.109 10.9791 29.822 10.3916C29.7947 10.5965 29.7742 10.8015 29.7605 11.0065C30.1978 10.1456 30.635 9.27795 31.0723 8.40344C31.1406 8.28047 31.2089 8.15748 31.2772 8.0345C31.3797 7.82954 31.4617 7.5016 31.2772 7.31714C30.7307 6.77057 30.1909 6.23083 29.658 5.69793C28.8109 4.85075 27.9569 3.99675 27.096 3.1359C26.9047 2.94461 26.7066 2.7465 26.5016 2.54153C26.3786 2.41856 26.1737 2.33657 25.9892 2.43905C25.1694 2.84898 24.3495 3.26573 23.5297 3.68932C23.4067 3.74397 23.2905 3.80547 23.1812 3.87379C23.3179 3.87379 23.4545 3.88061 23.5912 3.89428C22.8943 3.52535 22.1701 3.21108 21.4186 2.95146C21.5279 3.03344 21.6304 3.12225 21.726 3.21789C21.4117 2.23408 21.0906 1.25025 20.7627 0.266436C20.7012 0.0614736 20.5167 0 20.3323 0C19.5671 0 18.8087 0 18.0572 0C16.8411 0 15.6318 0 14.4293 0C14.1424 0 13.8623 0 13.589 0C13.3225 0 13.0971 0.266456 13.0151 0.491914C12.7145 1.39375 12.4207 2.3024 12.1338 3.21789C12.2704 3.06759 12.4139 2.91047 12.5642 2.7465C11.7307 2.99245 10.9177 3.31355 10.1251 3.70981C10.2618 3.70981 10.3984 3.71664 10.5351 3.7303C9.70154 3.30671 8.87487 2.88313 8.05502 2.45954C7.80906 2.33657 7.56311 2.41854 7.37864 2.60301C6.84574 3.13591 6.31283 3.66882 5.77993 4.20172C4.91909 5.06256 4.06508 5.9234 3.2179 6.78424C3.01294 6.97554 2.81481 7.16684 2.62352 7.35814C2.45955 7.54261 2.33657 7.87054 2.45955 8.11649C2.85581 8.89535 3.25207 9.67421 3.64833 10.4531C3.66199 10.2481 3.68248 10.0431 3.70981 9.83818C3.2179 10.74 2.80798 11.6828 2.52103 12.6666C2.65768 12.5027 2.80114 12.3455 2.95145 12.1952C2.11794 12.4685 1.29126 12.735 0.471411 12.9946C0.245952 13.0766 0 13.384 0 13.63C0 14.3815 0 15.133 0 15.8846C0 17.1007 0 18.3168 0 19.5329C0 19.8062 0 20.0794 0 20.3527C0 20.6192 0.0819749 20.8241 0.348426 20.9061C1.16828 21.1794 1.99496 21.4459 2.82848 21.7055C2.71916 21.6235 2.61668 21.5415 2.52103 21.4595C2.80798 22.375 3.18375 23.2632 3.64833 24.124C3.66199 23.9191 3.68248 23.7141 3.70981 23.5091C3.31355 24.288 2.91729 25.0669 2.52103 25.8457C2.41855 26.0507 2.33657 26.3991 2.52103 26.5836C3.05394 27.1165 3.58684 27.6494 4.11974 28.1823C4.98058 29.0431 5.84142 29.8971 6.70226 30.7443C6.89356 30.9493 7.08486 31.1474 7.27616 31.3387C7.41964 31.4617 7.6246 31.5437 7.78857 31.4617C8.62208 31.0381 9.45558 30.6145 10.2891 30.1909C10.1525 30.1772 10.0158 30.1636 9.87917 30.1499C10.699 30.5598 11.5599 30.9083 12.4412 31.1542C12.3456 31.0722 12.2431 30.9902 12.1338 30.9083C12.4344 31.8101 12.7282 32.7188 13.0151 33.6343C13.0766 33.8187 13.2815 33.9007 13.466 33.9007C14.2175 33.9007 14.9691 33.9007 15.7206 33.9007C16.9367 33.9007 18.1528 33.9007 19.3689 33.9007C19.6422 33.9007 19.9155 33.9007 20.1888 33.9007C20.4552 33.9007 20.7012 33.6138 20.7832 33.3883C21.0974 32.4045 21.4117 31.4207 21.726 30.4369C21.5894 30.6008 21.4459 30.758 21.2956 30.9083C24.6775 29.7195 27.5879 27.3009 29.3506 24.1855C29.8425 23.3042 30.2524 22.4023 30.5599 21.4595C30.4096 21.6098 30.2661 21.767 30.1295 21.9309C31.0586 21.6303 31.9878 21.3229 32.9169 21.0086C33.0536 20.9676 33.1834 20.9266 33.3064 20.8856C33.5523 20.8037 33.7778 20.5167 33.7778 20.2502C33.7778 19.4987 33.7778 18.7472 33.7778 17.9957C33.7778 16.7795 33.7778 15.5703 33.7778 14.3678C33.7778 14.0809 33.7778 13.8008 33.7778 13.5275C33.7778 13.2405 33.6343 12.9331 33.3064 12.9741C32.9989 12.9946 32.6915 13.3225 32.6915 13.63C32.6915 14.3815 32.6915 15.133 32.6915 15.8846C32.6915 17.1007 32.6915 18.3168 32.6915 19.5329C32.6915 19.8062 32.6915 20.0794 32.6915 20.3527C32.8418 20.1478 32.9989 19.9428 33.1629 19.7378C32.343 19.9974 31.5232 20.2639 30.7033 20.5372C30.3549 20.6397 29.822 20.7217 29.5966 21.0906C29.4736 21.2956 29.4121 21.5825 29.3301 21.808C29.2481 22.0539 29.1525 22.293 29.0431 22.5253C29.0295 22.5663 29.009 22.6073 28.9817 22.6483C28.8997 22.8328 29.0431 22.5458 28.9612 22.7303C28.9065 22.8396 28.8519 22.9489 28.7972 23.0582C28.6879 23.2769 28.5717 23.4955 28.4488 23.7141C28.2028 24.124 27.9432 24.5203 27.6699 24.9029C27.6289 24.9575 27.5948 25.0122 27.5674 25.0668C27.5469 25.0668 27.4239 25.2308 27.5059 25.1283C27.4513 25.2103 27.3898 25.2923 27.3215 25.3743C27.1575 25.5656 26.9935 25.7569 26.8296 25.9482C26.488 26.3308 26.1259 26.6997 25.7433 27.055C25.4153 27.3419 25.1079 27.6084 24.698 27.8953C24.3154 28.1823 23.9123 28.4419 23.4887 28.6742C23.2974 28.7972 23.1061 28.9065 22.9148 29.0021C22.9968 28.9611 22.8123 29.0431 22.8328 29.0431C22.7781 29.0704 22.7235 29.0978 22.6688 29.1251C22.5322 29.1934 22.4024 29.2549 22.2794 29.3096C22.0744 29.4052 21.8695 29.494 21.6645 29.576C21.3366 29.699 20.9676 29.7605 20.7832 30.0679C20.7012 30.1909 20.6807 30.3344 20.6397 30.4574C20.3391 31.3592 20.0453 32.2679 19.7584 33.1834C19.9497 33.0194 20.141 32.8486 20.3323 32.671C19.5671 32.671 18.8087 32.671 18.0572 32.671C16.8411 32.671 15.6318 32.671 14.4293 32.671C14.1424 32.671 13.8623 32.671 13.589 32.671C13.7393 32.7666 13.8896 32.8554 14.0399 32.9374C13.753 32.0561 13.4865 31.1542 13.1586 30.2729C13.0971 30.1089 12.9946 30.0064 12.8101 29.945C12.5232 29.863 12.2157 29.7605 11.9288 29.658C11.6555 29.5624 11.3891 29.4599 11.1295 29.3506C10.9928 29.2822 10.8562 29.2139 10.7195 29.1456C10.5351 29.0636 10.3506 28.9406 10.1251 29.0431C9.7357 29.1866 9.36678 29.4326 8.97735 29.617C8.54009 29.8493 8.09601 30.0816 7.64509 30.3139C7.80906 30.3412 7.97986 30.3754 8.1575 30.4164C7.6246 29.8835 7.0917 29.3506 6.55879 28.8177C5.69795 27.9568 4.8371 27.1028 3.97626 26.2556C3.78496 26.0507 3.59367 25.8525 3.40237 25.6612C3.40237 25.9072 3.40237 26.1463 3.40237 26.3786C3.7918 25.5998 4.20172 24.8414 4.59115 24.0626C4.61164 24.0011 4.65264 23.9396 4.67314 23.8781C4.75512 23.6116 4.65264 23.4272 4.52966 23.1812C4.39302 22.9352 4.26321 22.6756 4.14023 22.4023C4.01725 22.1291 3.90794 21.8558 3.81229 21.5825C3.75764 21.4595 3.70981 21.3297 3.66882 21.1931C3.60733 21.0496 3.58684 20.8446 3.50485 20.7217C3.38187 20.5372 3.13592 20.4757 2.93096 20.4142C2.67134 20.3322 2.41172 20.2503 2.1521 20.1683C1.68752 20.018 1.22293 19.8676 0.758351 19.7173C0.867664 19.895 0.983812 20.0726 1.10679 20.2502C1.10679 19.4987 1.10679 18.7472 1.10679 17.9957C1.10679 16.7795 1.10679 15.5703 1.10679 14.3678C1.10679 14.0809 1.10679 13.8008 1.10679 13.5275C0.942819 13.7325 0.785684 13.9374 0.635378 14.1424C1.01797 14.0194 1.40741 13.8964 1.80367 13.7734C2.23409 13.63 2.685 13.5275 3.09493 13.343C3.44336 13.1996 3.52535 12.8716 3.64833 12.5642C3.73031 12.2909 3.82595 12.0176 3.93527 11.7443C3.98992 11.6077 4.05142 11.471 4.11974 11.3344C4.14707 11.2797 4.1744 11.2183 4.20173 11.1499C4.16074 11.2114 4.18123 11.1704 4.20173 11.1499C4.21539 11.1089 4.23589 11.0679 4.26321 11.0269C4.31787 10.904 4.37935 10.781 4.44767 10.658C4.55015 10.4326 4.69363 10.2276 4.69363 9.98164C4.69363 9.79718 4.59116 9.63321 4.50917 9.46924C4.38619 9.22328 4.25638 8.97733 4.11974 8.73138C3.90111 8.29413 3.68248 7.85687 3.46386 7.41962C3.4092 7.66557 3.35454 7.91152 3.29989 8.15747C3.83279 7.62457 4.36569 7.09169 4.89859 6.55879C5.75943 5.71161 6.61344 4.8576 7.46062 3.99676C7.66558 3.80546 7.86372 3.60733 8.05502 3.40237C7.83639 3.45702 7.61093 3.50484 7.37864 3.54583C8.21899 3.97625 9.01834 4.42718 9.85868 4.81661C9.85868 4.81661 9.86551 4.81661 9.87917 4.81661C10.1046 4.93959 10.2891 4.8371 10.5146 4.73462C10.7878 4.61164 11.068 4.48865 11.3549 4.36568C11.6419 4.25636 11.9356 4.15388 12.2362 4.05823C12.3797 3.99675 12.5232 3.97626 12.6462 3.91477C12.8921 3.83279 13.0629 3.66881 13.1586 3.42286C13.3225 3.01293 13.425 2.58252 13.5685 2.1521C13.7188 1.67386 13.8759 1.19561 14.0399 0.717367C13.8486 0.881337 13.6573 1.04531 13.466 1.20928C14.2175 1.20928 14.9691 1.20928 15.7206 1.20928C16.9367 1.20928 18.1528 1.20928 19.3689 1.20928C19.6422 1.20928 19.9155 1.20928 20.1888 1.20928C20.0521 1.11363 19.9087 1.02481 19.7584 0.94282C20.0726 1.89931 20.3801 2.8558 20.6807 3.81229C20.7217 3.91477 20.7627 3.97625 20.8447 4.05823C20.9676 4.18121 21.2136 4.22222 21.3776 4.28371C21.5142 4.33837 21.6509 4.39301 21.7875 4.44767C22.0881 4.57064 22.3819 4.70729 22.6688 4.85759C22.8943 4.98057 23.0993 5.10356 23.3657 5.00108C23.8371 4.81661 24.288 4.52966 24.7389 4.3042C25.2035 4.05825 25.6749 3.81913 26.1532 3.58684C25.9756 3.54584 25.8048 3.50486 25.6408 3.46386C26.1737 3.99677 26.7066 4.52965 27.2395 5.06255C28.1003 5.92339 28.9543 6.78423 29.8015 7.64507C30.0065 7.83637 30.2046 8.02768 30.3959 8.21897C30.3959 7.98668 30.3959 7.74756 30.3959 7.50161C29.904 8.4581 29.4189 9.40776 28.9407 10.3506C28.9133 10.3916 28.8929 10.4326 28.8792 10.4736C28.7562 10.74 28.7562 10.945 28.8792 11.2114C28.9475 11.3617 29.0158 11.5189 29.0842 11.6828C29.2208 12.0108 29.3506 12.3456 29.4736 12.6872C29.5351 12.8921 29.6171 13.0561 29.8425 13.1381C29.8562 13.1381 29.8698 13.1449 29.8835 13.1586C30.3959 13.3225 30.9288 13.4865 31.4617 13.671C31.981 13.8349 32.507 14.0057 33.0399 14.1834C33.3474 14.2653 33.6753 13.9579 33.7573 13.6915C33.8393 13.384 33.7573 13.0766 33.4498 12.9741Z" fill="url(#paint4_linear_4001_95786)"/>
<path d="M36.7088 31.2585C35.8616 30.3977 35.0144 29.5437 34.1672 28.6965C32.8145 27.3438 31.4618 25.991 30.109 24.6383C29.8084 24.3376 29.501 24.0302 29.1867 23.7159C28.9202 23.4495 28.5103 23.6134 28.3258 23.9209C28.1755 24.1668 28.0184 24.4128 27.8544 24.6587C27.7861 24.7681 27.7109 24.8842 27.6289 25.0072C27.588 25.0482 27.547 25.096 27.506 25.1507C27.5675 25.0687 27.424 25.2736 27.4035 25.2736C27.0482 25.7382 26.6656 26.1686 26.2557 26.5649C25.8458 26.9953 25.4768 27.3233 25.0464 27.6512C24.5818 28.0065 24.0968 28.3344 23.5912 28.635C23.3247 28.799 23.1198 29.3319 23.3657 29.5778C23.9396 30.1517 24.5067 30.7188 25.0669 31.279C26.1737 32.3858 27.2805 33.4926 28.3873 34.5994C29.1662 35.3783 29.9519 36.164 30.7444 36.9565C31.2158 37.4279 31.7487 37.7968 32.4046 37.9403C33.0195 38.0633 33.6753 38.0018 34.2492 37.7558C34.6797 37.5714 35.0486 37.2844 35.3765 36.9565C35.807 36.5261 36.2374 36.1161 36.6473 35.6857C37.5696 34.7224 37.8566 33.2262 37.2622 32.0169C37.1187 31.7504 36.9342 31.484 36.7088 31.2585C36.5038 31.0331 36.1554 31.0741 35.9504 31.2995C35.7865 31.5045 35.643 31.9144 35.8684 32.1399C35.9641 32.2492 36.0529 32.3585 36.1349 32.4678C36.2374 32.6113 36.2374 32.5908 36.2989 32.7547C36.3672 32.8777 36.415 33.0075 36.4423 33.1442C36.4218 33.0622 36.4628 33.2057 36.4628 33.2262C36.4765 33.3082 36.4902 33.3833 36.5038 33.4516C36.5038 33.4926 36.5038 33.6771 36.5038 33.5541C36.5038 33.6224 36.5038 33.6907 36.5038 33.7591C36.4902 33.8137 36.4833 33.8752 36.4833 33.9435C36.4697 33.9709 36.4628 34.005 36.4628 34.046C36.4423 34.1075 36.4833 33.9435 36.4628 34.0665C36.4219 34.1895 36.374 34.3125 36.3194 34.4355C36.3808 34.3125 36.3194 34.4559 36.2784 34.4969C36.251 34.5652 36.2101 34.6336 36.1554 34.7019C36.0939 34.8044 36.1554 34.7019 36.1759 34.7019C36.1486 34.7292 36.1281 34.7566 36.1144 34.7839C36.0597 34.8385 36.0051 34.8864 35.9504 34.9274C35.9368 34.941 35.9231 34.9547 35.9094 34.9683C35.8274 35.064 35.7455 35.1528 35.6635 35.2348C35.4039 35.4944 35.1442 35.754 34.8846 36.0137C34.8026 36.0956 34.7207 36.1708 34.6387 36.2391C34.6113 36.2801 34.5772 36.3143 34.5362 36.3416C34.4542 36.4236 34.5362 36.3621 34.5362 36.3416C34.5225 36.3689 34.502 36.3894 34.4747 36.4031C34.42 36.4441 34.3585 36.4851 34.2902 36.5261C34.2697 36.5466 34.0853 36.649 34.1877 36.5876C34.1331 36.6149 34.0716 36.6422 34.0033 36.6695C33.9486 36.6969 33.894 36.7174 33.8393 36.731C33.7983 36.7447 33.7642 36.7515 33.7368 36.7515C33.6753 36.772 33.7983 36.7515 33.6959 36.772C33.5729 36.7994 33.4431 36.813 33.3064 36.813C33.2381 36.813 33.1766 36.813 33.1219 36.813C33.04 36.813 33.1834 36.8335 33.1015 36.813C33.0605 36.813 33.0195 36.8062 32.9785 36.7925C32.8418 36.7789 32.712 36.7515 32.589 36.7105C32.5481 36.6969 32.5139 36.69 32.4866 36.69C32.4866 36.69 32.4046 36.649 32.4661 36.6695C32.5071 36.69 32.4046 36.649 32.4046 36.649C32.3636 36.6354 32.3226 36.6149 32.2816 36.5876C32.1586 36.5192 32.0425 36.4441 31.9332 36.3621C31.9058 36.3484 31.8785 36.3279 31.8512 36.3006C31.8512 36.3211 31.8922 36.3416 31.8512 36.3006C31.8102 36.2733 31.776 36.2459 31.7487 36.2186C31.7077 36.164 31.6667 36.1161 31.6257 36.0751C30.8742 35.3373 30.1295 34.5926 29.3916 33.8411C28.3122 32.7753 27.2327 31.7026 26.1532 30.6232C25.5178 29.9878 24.9234 29.3319 24.2471 28.717C24.2471 28.7033 24.2402 28.6965 24.2266 28.6965C24.1583 29.0108 24.0831 29.3251 24.0011 29.6393C26.1327 28.3686 27.9159 26.5649 29.1867 24.4333C28.8997 24.5016 28.6196 24.5631 28.3463 24.6178C29.1935 25.4649 30.0407 26.319 30.8879 27.1798C32.2406 28.5189 33.5934 29.8648 34.9461 31.2175C35.2467 31.5318 35.5542 31.8393 35.8684 32.1399C36.0734 32.3653 36.4218 32.3243 36.6268 32.0989C36.7908 31.8939 36.9342 31.484 36.7088 31.2585Z" fill="url(#paint5_linear_4001_95786)"/>
<path d="M25.3538 30.8891C25.8662 30.8071 26.3991 30.9711 26.9115 30.9506C27.4649 30.9506 27.9978 30.8276 28.5307 30.7047C28.9202 30.6022 28.7357 30.0078 28.3463 30.0898C27.8544 30.2127 27.3625 30.3357 26.8501 30.3357C26.3377 30.3357 25.8457 30.1923 25.3538 30.2537C25.1694 30.2742 25.0259 30.3972 25.0464 30.5817C25.0464 30.7252 25.1899 30.9096 25.3538 30.8891Z" fill="url(#paint6_linear_4001_95786)"/>
<path d="M27.588 32.7719C28.5718 32.9768 29.5761 32.9563 30.56 32.7309C30.9494 32.6489 30.7649 32.034 30.3755 32.1365C29.5146 32.321 28.6128 32.3415 27.752 32.1775C27.3421 32.0955 27.1986 32.7104 27.588 32.7719Z" fill="url(#paint7_linear_4001_95786)"/>
<path d="M29.6171 34.8241C30.5804 34.7831 31.5232 34.5782 32.4046 34.1887C32.548 34.1272 32.6505 33.9838 32.6095 33.7993C32.5685 33.6558 32.384 33.5329 32.2201 33.5944C31.4002 33.9428 30.5189 34.1477 29.6171 34.1887C29.2071 34.2092 29.2276 34.8446 29.6171 34.8241Z" fill="url(#paint8_linear_4001_95786)"/>
<path d="M31.1952 36.2163C31.4207 36.8106 32.1996 36.3597 32.5685 36.2163C33.0877 35.9976 33.5933 35.7448 34.0852 35.4579C34.4336 35.2529 34.1057 34.72 33.7573 34.925C33.402 35.13 33.0399 35.3213 32.671 35.4989C32.4934 35.5809 32.3089 35.656 32.1176 35.7243C32.0356 35.7517 31.9468 35.7858 31.8511 35.8268C31.8101 35.8405 31.7623 35.8542 31.7076 35.8678C31.6803 35.8815 31.653 35.8883 31.6257 35.8883C31.571 35.902 31.6052 35.9156 31.7281 35.9293C31.7555 35.984 31.7828 36.0318 31.8101 36.0728C31.8101 36.0591 31.8033 36.0523 31.7896 36.0523C31.6667 35.6629 31.0723 35.8473 31.1952 36.2163Z" fill="url(#paint9_linear_4001_95786)"/>
<path d="M11.6624 15.5151C11.9494 15.8431 12.2363 16.1642 12.5233 16.4785C12.7282 16.7244 13.0562 16.376 12.8512 16.1505C12.5643 15.8226 12.2773 15.4947 11.9904 15.1667C11.7854 14.9413 11.4575 15.2897 11.6624 15.5151Z" fill="url(#paint10_linear_4001_95786)"/>
<path d="M11.4164 16.8049C11.799 17.2695 12.1747 17.7409 12.5437 18.2191C12.7281 18.4651 13.1381 18.2191 12.9331 17.9731C12.5642 17.4949 12.1952 17.0235 11.8263 16.5589C11.6418 16.313 11.2319 16.5589 11.4164 16.8049Z" fill="url(#paint11_linear_4001_95786)"/>
<path d="M11.4779 18.6517C11.7922 19.0616 12.1065 19.4647 12.4207 19.861C12.6052 20.1069 13.0151 19.8609 12.8102 19.615C12.5096 19.2187 12.2021 18.8156 11.8878 18.4057C11.7034 18.1803 11.2934 18.4262 11.4779 18.6517Z" fill="url(#paint12_linear_4001_95786)"/>
<path d="M11.7034 20.3542C12.0108 20.3542 11.9903 19.8828 11.6829 19.8828C11.3754 19.8828 11.3959 20.3542 11.7034 20.3542Z" fill="url(#paint13_linear_4001_95786)"/>
<path d="M11.4984 20.2697C11.881 20.748 12.2499 21.2399 12.6052 21.7454C12.7692 21.9914 13.1791 21.7454 12.9946 21.479C12.6393 20.9871 12.2704 20.502 11.8878 20.0237C11.7034 19.7778 11.2934 20.0238 11.4984 20.2697Z" fill="url(#paint14_linear_4001_95786)"/>
<path d="M11.0884 21.5614C11.2934 21.8073 11.512 22.0465 11.7443 22.2788C11.9493 22.5042 12.2772 22.1558 12.0722 21.9303C11.84 21.698 11.6213 21.4657 11.4164 21.2334C11.3344 21.131 11.1499 21.1515 11.0679 21.2334C10.986 21.3359 11.0064 21.4794 11.0884 21.5614Z" fill="url(#paint15_linear_4001_95786)"/>
<path d="M16.6224 17.1362C16.964 17.4915 17.2988 17.8468 17.6267 18.202C17.8317 18.4275 18.1596 18.0791 17.9546 17.8536C17.6267 17.4983 17.2919 17.1431 16.9503 16.7878C16.7454 16.5624 16.4174 16.9108 16.6224 17.1362Z" fill="url(#paint16_linear_4001_95786)"/>
<path d="M16.4994 18.6519C16.8547 19.0618 17.2168 19.4786 17.5857 19.9022C17.7702 20.1276 18.0982 19.7792 17.8932 19.5537C17.5379 19.1438 17.1827 18.727 16.8274 18.3034C16.6429 18.078 16.315 18.4264 16.4994 18.6519Z" fill="url(#paint17_linear_4001_95786)"/>
<path d="M16.438 20.2111C16.8343 20.703 17.2373 21.1881 17.6473 21.6663C17.8522 21.9123 18.1802 21.5639 17.9752 21.3384C17.5926 20.8875 17.2168 20.4297 16.8479 19.9652C16.6634 19.7192 16.2535 19.9652 16.438 20.2111Z" fill="url(#paint18_linear_4001_95786)"/>
<path d="M16.274 21.6022C16.479 21.7935 16.6635 22.0053 16.8274 22.2376C16.9914 22.4836 17.4013 22.2376 17.2169 21.9712C17.0392 21.7115 16.8343 21.4724 16.602 21.2538C16.3765 21.0488 16.0486 21.3973 16.274 21.6022Z" fill="url(#paint19_linear_4001_95786)"/>
<path d="M21.5415 12.1128C21.9924 12.6184 22.3955 13.1649 22.7507 13.7525C22.9147 14.019 23.3246 13.773 23.1607 13.5066C22.7781 12.8917 22.3476 12.3109 21.8694 11.7644C21.6644 11.5389 21.3365 11.8873 21.5415 12.1128Z" fill="url(#paint20_linear_4001_95786)"/>
<path d="M21.5825 13.8745C22.0197 14.3528 22.4092 14.8652 22.7508 15.4117C22.9148 15.6782 23.3042 15.4322 23.1607 15.1658C22.7918 14.5782 22.375 14.0317 21.9104 13.5261C21.685 13.3006 21.357 13.6491 21.5825 13.8745Z" fill="url(#paint21_linear_4001_95786)"/>
<path d="M21.5211 15.946C21.9856 16.4105 22.3682 16.9366 22.6689 17.5242C22.8123 17.7906 23.2018 17.5447 23.0788 17.2577C22.7508 16.6633 22.3409 16.0895 21.849 15.5975C21.644 15.3926 21.3161 15.741 21.5211 15.946Z" fill="url(#paint22_linear_4001_95786)"/>
<path d="M21.6235 17.7697C21.9924 18.2479 22.334 18.7467 22.6483 19.2659C22.8123 19.5324 23.2017 19.2864 23.0582 19.02C22.744 18.5007 22.3955 18.002 22.0129 17.5238C21.8285 17.2778 21.4185 17.5237 21.6235 17.7697Z" fill="url(#paint23_linear_4001_95786)"/>
<path d="M21.7056 19.7574C21.767 19.7574 21.9105 19.9623 21.9515 20.0033C22.0335 20.1127 22.1155 20.222 22.1975 20.3313C22.3614 20.5636 22.5118 20.8027 22.6484 21.0486C22.8124 21.3151 23.2018 21.0691 23.0583 20.8027C22.8807 20.4748 22.6757 20.1673 22.4434 19.8804C22.259 19.6344 22.0335 19.2655 21.7056 19.286C21.3981 19.286 21.3981 19.7574 21.7056 19.7574Z" fill="url(#paint24_linear_4001_95786)"/>
<path d="M21.5825 21.2541C21.8285 21.5683 22.0676 21.8895 22.2999 22.2174C22.4844 22.4839 22.8943 22.2174 22.7098 21.9714C22.4775 21.6435 22.2384 21.3224 21.9924 21.0081C21.808 20.7622 21.3981 21.0081 21.5825 21.2541Z" fill="url(#paint25_linear_4001_95786)"/>
<path d="M10.5556 10.289C11.9083 8.87481 13.794 7.99349 15.7411 7.87051C16.0486 7.85001 16.0486 7.37859 15.7411 7.39909C13.6505 7.52206 11.6624 8.44439 10.2276 9.96111C10.0022 10.1866 10.3506 10.5145 10.5556 10.289Z" fill="url(#paint26_linear_4001_95786)"/>
<defs>
<linearGradient id="paint0_linear_4001_95786" x1="5.14014" y1="16.9447" x2="28.0017" y2="16.9447" gradientUnits="userSpaceOnUse">
<stop stop-color="white"/>
<stop offset="1" stop-color="white"/>
</linearGradient>
<linearGradient id="paint1_linear_4001_95786" x1="19.0205" y1="16.3975" x2="23.3042" y2="16.3975" gradientUnits="userSpaceOnUse">
<stop stop-color="white"/>
<stop offset="1" stop-color="white"/>
</linearGradient>
<linearGradient id="paint2_linear_4001_95786" x1="13.9989" y1="18.898" x2="18.2006" y2="18.898" gradientUnits="userSpaceOnUse">
<stop stop-color="white"/>
<stop offset="1" stop-color="white"/>
</linearGradient>
<linearGradient id="paint3_linear_4001_95786" x1="8.95459" y1="18.0865" x2="13.138" y2="18.0865" gradientUnits="userSpaceOnUse">
<stop stop-color="white"/>
<stop offset="1" stop-color="white"/>
</linearGradient>
<linearGradient id="paint4_linear_4001_95786" x1="0" y1="16.9504" x2="33.7871" y2="16.9504" gradientUnits="userSpaceOnUse">
<stop stop-color="white"/>
<stop offset="1" stop-color="white"/>
</linearGradient>
<linearGradient id="paint5_linear_4001_95786" x1="23.2554" y1="30.7919" x2="37.573" y2="30.7919" gradientUnits="userSpaceOnUse">
<stop stop-color="white"/>
<stop offset="1" stop-color="white"/>
</linearGradient>
<linearGradient id="paint6_linear_4001_95786" x1="25.0444" y1="30.5172" x2="28.7464" y2="30.5172" gradientUnits="userSpaceOnUse">
<stop stop-color="white"/>
<stop offset="1" stop-color="white"/>
</linearGradient>
<linearGradient id="paint7_linear_4001_95786" x1="27.3594" y1="32.5193" x2="30.7756" y2="32.5193" gradientUnits="userSpaceOnUse">
<stop stop-color="white"/>
<stop offset="1" stop-color="white"/>
</linearGradient>
<linearGradient id="paint8_linear_4001_95786" x1="29.3173" y1="34.2014" x2="32.6186" y2="34.2014" gradientUnits="userSpaceOnUse">
<stop stop-color="white"/>
<stop offset="1" stop-color="white"/>
</linearGradient>
<linearGradient id="paint9_linear_4001_95786" x1="31.1786" y1="35.6971" x2="34.2339" y2="35.6971" gradientUnits="userSpaceOnUse">
<stop stop-color="white"/>
<stop offset="1" stop-color="white"/>
</linearGradient>
<linearGradient id="paint10_linear_4001_95786" x1="11.5975" y1="15.8283" x2="12.9161" y2="15.8283" gradientUnits="userSpaceOnUse">
<stop stop-color="white"/>
<stop offset="1" stop-color="white"/>
</linearGradient>
<linearGradient id="paint11_linear_4001_95786" x1="11.3698" y1="17.389" x2="12.9891" y2="17.389" gradientUnits="userSpaceOnUse">
<stop stop-color="white"/>
<stop offset="1" stop-color="white"/>
</linearGradient>
<linearGradient id="paint12_linear_4001_95786" x1="11.4313" y1="19.1396" x2="12.8662" y2="19.1396" gradientUnits="userSpaceOnUse">
<stop stop-color="white"/>
<stop offset="1" stop-color="white"/>
</linearGradient>
<linearGradient id="paint13_linear_4001_95786" x1="11.4623" y1="20.1185" x2="11.924" y2="20.1185" gradientUnits="userSpaceOnUse">
<stop stop-color="white"/>
<stop offset="1" stop-color="white"/>
</linearGradient>
<linearGradient id="paint14_linear_4001_95786" x1="11.4424" y1="20.8843" x2="13.0414" y2="20.8843" gradientUnits="userSpaceOnUse">
<stop stop-color="white"/>
<stop offset="1" stop-color="white"/>
</linearGradient>
<linearGradient id="paint15_linear_4001_95786" x1="11.0157" y1="21.7579" x2="12.1371" y2="21.7579" gradientUnits="userSpaceOnUse">
<stop stop-color="white"/>
<stop offset="1" stop-color="white"/>
</linearGradient>
<linearGradient id="paint16_linear_4001_95786" x1="16.5575" y1="17.4949" x2="18.0195" y2="17.4949" gradientUnits="userSpaceOnUse">
<stop stop-color="white"/>
<stop offset="1" stop-color="white"/>
</linearGradient>
<linearGradient id="paint17_linear_4001_95786" x1="16.4449" y1="19.1028" x2="17.9583" y2="19.1028" gradientUnits="userSpaceOnUse">
<stop stop-color="white"/>
<stop offset="1" stop-color="white"/>
</linearGradient>
<linearGradient id="paint18_linear_4001_95786" x1="16.3914" y1="20.807" x2="18.0401" y2="20.807" gradientUnits="userSpaceOnUse">
<stop stop-color="white"/>
<stop offset="1" stop-color="white"/>
</linearGradient>
<linearGradient id="paint19_linear_4001_95786" x1="16.1982" y1="21.7652" x2="17.2636" y2="21.7652" gradientUnits="userSpaceOnUse">
<stop stop-color="white"/>
<stop offset="1" stop-color="white"/>
</linearGradient>
<linearGradient id="paint20_linear_4001_95786" x1="21.4766" y1="12.7793" x2="23.1987" y2="12.7793" gradientUnits="userSpaceOnUse">
<stop stop-color="white"/>
<stop offset="1" stop-color="white"/>
</linearGradient>
<linearGradient id="paint21_linear_4001_95786" x1="21.5067" y1="14.4898" x2="23.1919" y2="14.4898" gradientUnits="userSpaceOnUse">
<stop stop-color="white"/>
<stop offset="1" stop-color="white"/>
</linearGradient>
<linearGradient id="paint22_linear_4001_95786" x1="21.4562" y1="16.5868" x2="23.1024" y2="16.5868" gradientUnits="userSpaceOnUse">
<stop stop-color="white"/>
<stop offset="1" stop-color="white"/>
</linearGradient>
<linearGradient id="paint23_linear_4001_95786" x1="21.5675" y1="18.4013" x2="23.0894" y2="18.4013" gradientUnits="userSpaceOnUse">
<stop stop-color="white"/>
<stop offset="1" stop-color="white"/>
</linearGradient>
<linearGradient id="paint24_linear_4001_95786" x1="21.475" y1="20.2243" x2="23.0895" y2="20.2243" gradientUnits="userSpaceOnUse">
<stop stop-color="white"/>
<stop offset="1" stop-color="white"/>
</linearGradient>
<linearGradient id="paint25_linear_4001_95786" x1="21.5359" y1="21.6173" x2="22.7564" y2="21.6173" gradientUnits="userSpaceOnUse">
<stop stop-color="white"/>
<stop offset="1" stop-color="white"/>
</linearGradient>
<linearGradient id="paint26_linear_4001_95786" x1="10.1544" y1="8.88163" x2="15.9717" y2="8.88163" gradientUnits="userSpaceOnUse">
<stop stop-color="white"/>
<stop offset="1" stop-color="white"/>
</linearGradient>
</defs>
</svg>
