<svg width="48" height="32" viewBox="0 0 48 32" fill="none" xmlns="http://www.w3.org/2000/svg">
<path d="M5.54391 4.30794C5.5697 4.23058 5.54391 4.41108 5.54391 4.43687C5.52672 4.48844 5.52672 4.48844 5.54391 4.43687C5.52672 4.47125 5.50953 4.50563 5.49234 4.54001C5.54391 4.46265 5.44078 4.59158 5.44078 4.61737C5.33764 4.7463 5.49234 4.5658 5.36341 4.66894C5.23448 4.79787 5.05399 4.90101 4.82192 4.90101C4.58985 4.90101 4.35778 4.79787 4.22885 4.64316C4.12571 4.54001 4.09992 4.51423 4.04835 4.3853C4.03116 4.35092 4.03116 4.35092 4.04835 4.3853C4.03116 4.33373 4.01397 4.29075 3.99678 4.25637C4.02256 4.33373 3.99678 4.15323 3.99678 4.15323C3.99678 4.25637 4.02257 4.07587 4.02257 4.07587C4.04836 3.94694 3.99678 4.10166 4.04835 3.99851C4.07414 3.94694 4.12571 3.8438 4.17728 3.79223C4.33199 3.6633 4.51249 3.58594 4.74456 3.58594C4.97664 3.58594 5.2087 3.68909 5.33763 3.81802C5.44077 3.92116 5.46656 3.94694 5.51813 4.05009C5.54392 4.15323 5.54391 4.17901 5.54391 4.30794C5.5697 4.59158 5.7502 4.90101 6.05963 4.84944C6.36905 4.79787 6.54955 4.43687 6.52376 4.15323C6.52376 3.40544 6.08542 2.70923 5.38921 2.45138C4.66721 2.19352 3.91942 2.47716 3.45528 3.04445C2.96536 3.6633 2.888 4.59158 3.27478 5.26201C3.66156 5.88087 4.38356 6.24186 5.07977 6.08715C5.98227 5.88087 6.49798 5.05572 6.52376 4.15323C6.54955 3.89537 6.31749 3.58594 6.03385 3.63751C5.69863 3.68908 5.5697 4.0243 5.54391 4.30794Z" fill="white"/>
<path d="M9.85012 4.30785C9.85012 4.20471 9.82434 4.41099 9.82434 4.43678C9.80715 4.48835 9.80715 4.47975 9.82434 4.41099C9.80715 4.46256 9.78996 4.50554 9.77277 4.53992C9.82434 4.43678 9.74698 4.59149 9.72119 4.59149C9.61805 4.72042 9.77276 4.5657 9.66962 4.66885C9.54069 4.77199 9.33441 4.87513 9.12813 4.87513C8.89605 4.87513 8.66399 4.77199 8.53506 4.64306C8.43192 4.51413 8.40613 4.48835 8.35456 4.38521C8.33737 4.33364 8.33737 4.32504 8.35456 4.35942C8.33737 4.32504 8.32876 4.29066 8.32876 4.25628C8.32876 4.33364 8.32876 4.15313 8.32876 4.15313C8.32876 4.25628 8.32876 4.07578 8.32876 4.07578C8.35455 3.94685 8.30299 4.10156 8.35456 3.99842C8.38034 3.94685 8.43191 3.84371 8.50926 3.81792C8.63819 3.68899 8.81869 3.61164 9.02498 3.61164C9.28283 3.61164 9.48911 3.71478 9.61804 3.84371C9.72119 3.94685 9.74697 3.97264 9.79855 4.07578C9.85012 4.17892 9.79856 4.04999 9.82434 4.15313C9.84153 4.23909 9.84153 4.24768 9.82434 4.17892C9.84153 4.23049 9.85012 4.27347 9.85012 4.30785C9.85012 4.59149 10.0564 4.9267 10.3658 4.87513C10.6753 4.82356 10.8558 4.43678 10.8558 4.15313C10.83 3.40535 10.3916 2.70914 9.69541 2.45128C8.97341 2.19343 8.19984 2.45128 7.73569 3.04435C7.24577 3.63742 7.16842 4.59149 7.58099 5.2877C7.94199 5.88077 8.66398 6.26756 9.38598 6.08706C10.2885 5.88077 10.83 5.05563 10.8558 4.15313C10.8558 3.86949 10.6237 3.56007 10.3143 3.61164C9.97905 3.66321 9.85012 4.02421 9.85012 4.30785Z" fill="white"/>
<path d="M14.1821 4.3055C14.1821 4.22815 14.1563 4.40865 14.1563 4.43443C14.1392 4.486 14.1392 4.486 14.1563 4.43443C14.1392 4.46881 14.122 4.50319 14.1048 4.53757C14.1306 4.46022 14.0532 4.61493 14.0532 4.61493C13.9501 4.74386 14.079 4.58914 13.9758 4.69229C13.8469 4.82122 13.6406 4.89857 13.4086 4.89857C13.1765 4.89857 12.9444 4.79543 12.8155 4.6665C12.635 4.486 12.5834 4.33129 12.5834 4.15079C12.5834 4.25393 12.6092 4.07343 12.6092 4.07343C12.6092 3.94451 12.5834 4.07343 12.635 3.97029C12.6608 3.91872 12.7124 3.81557 12.7897 3.764C12.9186 3.63507 13.1249 3.55772 13.3312 3.55772C13.5633 3.55772 13.7954 3.66086 13.9501 3.81558C14.0274 3.89293 14.079 3.9445 14.1048 4.04765C14.1563 4.125 14.1563 4.17657 14.1821 4.3055C14.1821 4.56336 14.3626 4.87279 14.6721 4.82122C14.9557 4.76964 15.1104 4.43443 15.1104 4.15079C15.0846 3.42879 14.6721 2.73258 13.9758 2.47472C13.2796 2.21686 12.5061 2.47472 12.0677 3.06779C11.5778 3.66086 11.5004 4.58914 11.8872 5.25957C12.274 5.85264 12.9702 6.21364 13.6922 6.05893C14.5689 5.85264 15.0846 5.0275 15.1104 4.15079C15.1104 3.89293 14.9041 3.60929 14.6205 3.63507C14.3111 3.68665 14.1821 4.04765 14.1821 4.3055Z" fill="white"/>
<path d="M35.249 19.2602C33.7706 18.0569 32.2836 16.8622 30.7881 15.676C30.5818 15.5041 30.3669 15.3322 30.1434 15.1603C29.8598 14.9282 29.4214 15.2377 29.2925 15.4697C29.112 15.805 29.112 16.166 29.3956 16.398C30.8912 17.5842 32.3782 18.7789 33.8565 19.9822C34.08 20.1541 34.2949 20.326 34.5012 20.4979C34.7848 20.73 35.249 20.4206 35.3779 20.1627C35.5584 19.8533 35.5584 19.4923 35.249 19.2602Z" fill="white"/>
<path d="M27.6165 20.5502C27.3844 21.3238 27.1523 22.0973 26.9461 22.8967C26.8429 23.3092 26.8429 23.7476 27.1266 24.0828C27.4876 24.5212 28.0548 24.4696 28.4932 24.2375C28.8542 24.0484 29.2066 23.8593 29.5504 23.6702C29.9286 23.464 30.3154 23.2577 30.7108 23.0514C31.1749 22.7935 31.2523 22.0457 30.8397 21.7105C30.1177 21.1433 29.3957 20.5674 28.6737 19.9829C28.3643 19.725 27.8743 20.0603 27.7196 20.3439C27.5133 20.7049 27.5133 21.0917 27.8486 21.3753C28.5706 21.9426 29.2926 22.5185 30.0146 23.103C30.0661 22.656 30.1177 22.2176 30.1693 21.7879C29.4816 22.1489 28.8026 22.5099 28.1322 22.8709C28.0806 22.9053 28.0377 22.9311 28.0033 22.9482C27.9861 22.9482 27.9775 22.9568 27.9775 22.974C27.9517 22.974 28.0806 22.8967 28.0806 22.8967C28.115 22.8967 28.1494 22.8967 28.1838 22.8967C28.2181 22.9139 28.2096 22.9139 28.158 22.8967C28.158 22.8967 28.1666 22.8967 28.1838 22.8967C28.2353 22.9139 28.2267 22.9139 28.158 22.8967C28.1838 22.8709 28.2611 22.9998 28.1838 22.8967C28.2611 22.974 28.2869 23.103 28.2096 23.2061C28.2353 23.1803 28.2354 23.1545 28.2611 23.1287C28.3643 22.7162 28.476 22.3122 28.5963 21.9168C28.6995 21.5386 28.8026 21.169 28.9058 20.808C29.0089 20.4728 28.9316 20.0087 28.519 19.9313C28.1322 19.8282 27.7196 20.1892 27.6165 20.5502Z" fill="white"/>
<path d="M40.9734 0.669291C40.2171 1.61476 39.4607 2.56024 38.7043 3.50571C37.14 5.44823 35.5756 7.39075 34.0113 9.33327C32.6877 11.0007 31.364 12.6596 30.0403 14.3099C29.7825 14.6193 29.5332 14.9288 29.2926 15.2382C29.1121 15.4703 29.0605 15.6508 28.9831 15.9344C28.8628 16.347 28.7424 16.7681 28.6221 17.1979C28.0806 19.106 27.4876 21.0142 26.9718 22.9481C26.8429 23.5154 26.9976 24.1342 27.6165 24.3405C27.9259 24.4437 28.2353 24.3147 28.519 24.16C28.7768 24.0225 29.0347 23.885 29.2926 23.7475C30.3412 23.1802 31.3984 22.6129 32.4642 22.0456C33.3237 21.5643 34.1832 21.0915 35.0427 20.6274C35.4037 20.4469 35.61 20.1375 35.8421 19.828C37.4408 17.8339 39.0395 15.8399 40.6382 13.8458C42.4604 11.5766 44.2912 9.29889 46.1306 7.01256C46.44 6.61718 46.7322 6.20461 47.0073 5.77485C47.1878 5.49121 47.3167 5.156 47.2909 4.82078C47.2651 4.51136 47.1104 4.2535 46.9557 4.04721C46.5174 3.50571 45.9243 3.11893 45.4086 2.70636C44.5319 2.00155 43.6551 1.30534 42.7784 0.61772C42.6925 0.548959 42.6151 0.480196 42.5464 0.411434C42.0306 0.050435 41.3602 0.230935 40.9734 0.669291C40.7414 0.927147 40.6124 1.39129 40.8445 1.67493C41.1024 1.95858 41.5149 1.85543 41.747 1.59758C41.8244 1.52022 41.747 1.59758 41.6954 1.62336C41.6954 1.62336 41.6868 1.63196 41.6697 1.64915C41.6868 1.64915 41.704 1.64915 41.7212 1.64915C41.704 1.64915 41.6868 1.64055 41.6697 1.62336C41.6439 1.62336 41.747 1.67493 41.7728 1.70072C41.8244 1.7351 41.8759 1.77807 41.9275 1.82965C42.1682 2.01874 42.4002 2.19924 42.6237 2.37115C43.2254 2.85248 43.8185 3.33381 44.4029 3.81514C44.5405 3.91829 44.678 4.02143 44.8155 4.12457C45.039 4.31367 45.2625 4.49416 45.4859 4.66607C45.5891 4.74342 45.6664 4.82078 45.7696 4.92392C45.8211 4.9755 45.8727 5.03567 45.9243 5.10443C45.9415 5.13881 45.9673 5.16459 46.0016 5.18178C46.0532 5.25914 45.9759 5.13021 46.0016 5.20757C46.0274 5.23335 46.0274 5.28492 46.0532 5.31071C46.0016 5.28492 46.0274 5.13021 46.0274 5.13021C46.0446 5.09583 46.0532 5.06145 46.0532 5.02707C46.036 5.09583 46.036 5.09583 46.0532 5.02707C46.079 4.94971 46.0532 5.02707 46.0274 5.05285C45.9587 5.19038 45.8727 5.3279 45.7696 5.46542C45.7352 5.517 45.7008 5.56857 45.6664 5.62014C45.6492 5.65452 45.632 5.6889 45.6149 5.72328C45.5633 5.82642 45.6922 5.64593 45.6149 5.74907C45.5289 5.85221 45.443 5.95535 45.357 6.0585C45.1335 6.33354 44.91 6.60859 44.6866 6.88364C43.5176 8.34482 42.3573 9.79741 41.2055 11.2414C39.9678 12.7714 38.7301 14.3099 37.4924 15.857C36.6501 16.9057 35.8077 17.9543 34.9654 19.0029C34.8794 19.1232 34.7849 19.2436 34.6817 19.3639C34.656 19.3897 34.5012 19.5444 34.656 19.4155C34.7849 19.3123 34.7075 19.3639 34.6817 19.3897C34.613 19.4241 34.5528 19.4584 34.5012 19.4928C34.3121 19.596 34.1145 19.6991 33.9082 19.8023C32.5845 20.5243 31.2523 21.2462 29.9114 21.9682C29.3957 22.2605 28.8714 22.5441 28.3385 22.8192C28.2181 22.8879 28.1064 22.9481 28.0033 22.9997C28.0033 22.9997 27.9947 23.0083 27.9775 23.0255C28.0548 22.9739 28.1064 22.9481 28.1838 22.9481C28.1838 22.9481 28.0806 22.9481 28.158 22.9481C28.1924 22.9653 28.1924 22.9653 28.158 22.9481C28.1236 22.9309 28.1236 22.9309 28.158 22.9481C28.158 22.9481 28.1838 22.9739 28.158 22.9223C28.158 22.9481 28.1838 22.9739 28.1838 22.9997C28.2095 23.0512 28.2095 23.1544 28.1838 23.206C28.1838 23.206 28.1838 23.1974 28.1838 23.1802C28.3127 22.8192 28.39 22.4324 28.4932 22.0456C28.6995 21.3236 28.9058 20.6102 29.112 19.9054C29.473 18.6161 29.8426 17.3354 30.2208 16.0633C30.238 15.9774 30.2552 15.9 30.2724 15.8313C30.2036 15.9344 30.1349 16.0461 30.0661 16.1665C30.4615 15.6851 30.8483 15.2038 31.2265 14.7225C32.1548 13.5707 33.083 12.4104 34.0113 11.2414C35.1459 9.84898 36.2719 8.44797 37.3892 7.03835C38.3691 5.83502 39.3403 4.62309 40.303 3.40257C40.7843 2.8181 41.2571 2.22503 41.7212 1.62336C41.7384 1.62336 41.747 1.61477 41.747 1.59758C41.9791 1.33972 42.1338 0.901365 41.8759 0.591937C41.6439 0.33408 41.1797 0.411434 40.9734 0.669291Z" fill="white"/>
<path d="M34.7075 19.3135C32.6962 20.4136 30.6849 21.5052 28.6736 22.5882C28.433 22.7086 28.1923 22.8375 27.9516 22.975C28.0806 22.9234 28.0806 22.8977 28.2095 22.8977C28.1923 22.8977 28.1751 22.8977 28.1579 22.8977C28.2267 22.932 28.2267 22.932 28.1579 22.8977C28.1751 22.8977 28.1923 22.9063 28.2095 22.9235C28.1751 22.8719 28.1837 22.8805 28.2353 22.9492C28.2353 23.0266 28.2869 23.1039 28.2095 23.2071C28.2353 23.2071 28.2353 23.1813 28.2353 23.1555C28.2868 23.018 28.3298 22.8805 28.3642 22.7429C28.7252 21.4709 29.0862 20.1988 29.4472 18.9267C29.7394 17.8952 30.0317 16.8638 30.3239 15.8324C30.2552 15.9527 30.1778 16.0817 30.0918 16.2192C30.7967 15.3425 31.5015 14.4658 32.2063 13.589C33.5299 11.9388 34.8536 10.2885 36.1772 8.6382C36.9508 7.65834 37.7502 6.67848 38.5238 5.69863C38.8332 5.31184 38.8074 5.00242 38.8074 4.53827C38.8074 4.10851 38.8074 3.67875 38.8074 3.24899C38.7816 2.42385 38.4722 1.59871 37.8791 1.00564C37.2345 0.386783 36.4609 0.0773578 35.5842 0.0773578C33.5213 0.0257864 31.4327 0.0515721 29.3441 0.0773578C27.2296 0.0773578 25.1238 0.0773578 23.0266 0.0773578C20.8606 0.0773578 18.7204 0 16.5802 0C14.3884 0.0257857 12.2224 0.0257849 10.0306 0.0515705C7.86463 0.0773562 5.72441 0.0773578 3.55842 0.0773578C1.77921 0.0773578 0.257866 1.41821 0.0257951 3.22321C9.4426e-06 3.48106 0 3.73892 0 3.99678C0 4.52968 0 5.06258 0 5.59549C0 7.41767 0 9.23986 0 11.062C0 15.4198 0.0257856 19.7518 0 24.1096C0 25.2442 9.4426e-06 26.3529 0.0257951 27.4875C0.0429855 28.0376 0.0601633 28.5791 0.0773538 29.112C0.103139 29.6535 0.154711 30.0919 0.464138 30.556C0.721995 30.917 1.083 31.2264 1.41821 31.4843C1.83078 31.7679 2.34649 31.9484 2.83642 31.9742C3.00832 31.9914 3.18023 32 3.35213 32C4.10851 32 4.86489 32 5.62127 32C7.1856 32 8.74993 32 10.3143 32C12.3599 32 14.397 32 16.4255 32C18.6086 32 20.7918 32 22.975 32C24.9691 32 26.9632 32 28.9573 32C30.4528 32 31.9398 32 33.4182 32C34.0714 32 34.7247 32 35.3779 32C36.8219 32 38.0338 31.0201 38.5753 29.7309C38.8074 29.1378 38.8074 28.5447 38.8074 27.9259C38.8074 26.1553 38.8074 24.3846 38.8074 22.614C38.8074 20.7231 38.8074 18.8321 38.8074 16.9412C38.8074 16.6146 38.8074 16.2965 38.8074 15.9871C38.8074 15.7035 38.73 15.4198 38.4464 15.3167C38.1885 15.2135 37.8533 15.3167 37.6986 15.523C36.7875 16.6747 35.8678 17.8179 34.9395 18.9525C34.8192 19.1244 34.6903 19.2877 34.5528 19.4424C34.3207 19.7518 34.1402 20.1902 34.4238 20.5254C34.6817 20.8348 35.1716 20.7317 35.4037 20.448C36.3148 19.3135 37.2259 18.1789 38.137 17.0443C38.2745 16.8724 38.412 16.7091 38.5495 16.5544C38.1713 16.3997 37.8018 16.245 37.4408 16.0903C37.4408 16.9498 37.4408 17.8093 37.4408 18.6688C37.4408 20.4222 37.4408 22.1671 37.4408 23.9033C37.4408 25.2957 37.4408 26.6967 37.4408 28.1064C37.4408 28.4416 37.4408 28.7768 37.3892 29.112C37.3892 29.1636 37.3634 29.2409 37.3892 29.0862C37.3892 29.1206 37.3806 29.155 37.3634 29.1894C37.3462 29.2581 37.329 29.3269 37.3118 29.3956C37.286 29.4214 37.286 29.4988 37.2603 29.4988C37.2603 29.4988 37.3376 29.3441 37.2603 29.473C37.2259 29.5418 37.1915 29.6105 37.1571 29.6793C37.1313 29.7051 37.1055 29.7309 37.1055 29.7567C37.054 29.8598 37.2087 29.6535 37.1313 29.7309C37.0798 29.7824 37.0282 29.8598 36.9766 29.9114C36.925 29.9629 36.8735 29.9887 36.8219 30.0403C36.7703 30.1176 36.8735 30.0145 36.8735 30.0145C36.8391 30.0489 36.7961 30.0833 36.7445 30.1176C36.693 30.152 36.6328 30.1864 36.564 30.2208C36.5297 30.238 36.4953 30.2638 36.4609 30.2981C36.4867 30.2724 36.5898 30.2208 36.4867 30.2724C36.332 30.3411 36.1858 30.3927 36.0483 30.4271C35.971 30.4529 36.0483 30.4271 36.0741 30.4271C36.0225 30.4271 35.9796 30.4357 35.9452 30.4529C35.8592 30.4529 35.7819 30.4615 35.7131 30.4786C35.6615 30.4786 35.61 30.4786 35.5584 30.4786C35.1458 30.4786 34.7247 30.4786 34.2949 30.4786C33.2463 30.4786 32.1977 30.4786 31.149 30.4786C29.6535 30.4786 28.1665 30.4786 26.6881 30.4786C24.9347 30.4786 23.1813 30.4786 21.4279 30.4786C19.6229 30.4786 17.8093 30.4786 15.9871 30.4786C14.2852 30.4786 12.592 30.4786 10.9073 30.4786C9.5149 30.4786 8.13107 30.4786 6.75584 30.4786C5.86194 30.4786 4.97663 30.4786 4.09992 30.4786C3.89364 30.4786 3.69595 30.4786 3.50686 30.4786C3.47248 30.4786 3.43809 30.4786 3.40371 30.4786C3.12007 30.4786 2.78485 30.3755 2.52699 30.2466C2.37228 30.1778 2.22617 30.0833 2.08865 29.9629C2.08865 29.9371 1.98549 29.8856 2.06285 29.9371C2.04566 29.92 2.01988 29.8942 1.9855 29.8598C1.91674 29.8082 1.84798 29.7395 1.77922 29.6535C1.72764 29.6019 1.67606 29.5418 1.62449 29.473C1.6073 29.4558 1.59012 29.43 1.57293 29.3956C1.57293 29.4214 1.59871 29.4988 1.54714 29.3699C1.52995 29.3355 1.52136 29.3097 1.52136 29.2925C1.49557 29.2667 1.46978 29.1378 1.49556 29.2152C1.49556 29.2925 1.46978 29.1636 1.46978 29.1636C1.46978 29.0948 1.46978 29.0261 1.46978 28.9573C1.4354 28.5103 1.41821 28.0548 1.41821 27.5907C1.39242 26.7139 1.36664 25.863 1.36664 24.9863C1.38383 24.0752 1.39243 23.1727 1.39243 22.2788C1.39243 21.3763 1.36665 20.448 1.39243 19.5713C1.41822 15.9871 1.39243 12.4029 1.39243 8.79291C1.39243 7.46924 1.39243 6.13698 1.39243 4.79613C1.39243 4.22885 1.34085 3.63578 1.41821 3.06849C1.41821 2.99113 1.46978 2.83642 1.41821 2.99113C1.4354 2.90518 1.45259 2.82783 1.46978 2.75906C1.49557 2.70749 1.52135 2.60435 1.54714 2.57857C1.46978 2.65592 1.49557 2.65592 1.54714 2.60435C1.56433 2.55278 1.59011 2.5098 1.62449 2.47542C1.65028 2.42385 1.67607 2.32071 1.72764 2.29492C1.72764 2.29492 1.59872 2.42385 1.70186 2.32071C1.71905 2.28633 1.74483 2.26054 1.77922 2.24335C1.8136 2.19178 1.85657 2.14021 1.90814 2.08864C1.94252 2.05426 1.9769 2.02847 2.01128 2.01128C1.95971 2.03707 1.90814 2.08864 1.9855 2.01128C2.10583 1.94252 2.22617 1.86516 2.3465 1.77921C2.19179 1.88235 2.42385 1.75343 2.44964 1.75343C2.5184 1.71904 2.59576 1.69326 2.68171 1.67607C2.71609 1.65888 2.75907 1.64169 2.81064 1.6245C2.78486 1.6245 2.70749 1.65028 2.78485 1.65028C2.85361 1.63309 2.92238 1.6159 2.99114 1.59871C3.14586 1.59871 3.30057 1.59871 3.45528 1.59871C5.26028 1.59871 7.06527 1.59871 8.87027 1.59871C12.4803 1.57292 16.116 1.52135 19.726 1.57292C23.2586 1.59871 26.7913 1.59871 30.3239 1.59871C32.0258 1.59871 33.7276 1.59871 35.4295 1.59871C35.5326 1.59871 35.3521 1.59871 35.4553 1.59871C35.4896 1.59871 35.5154 1.59871 35.5326 1.59871C35.6186 1.6159 35.6959 1.63309 35.7647 1.65028C35.8334 1.66747 35.9022 1.68466 35.971 1.70185C36.0053 1.71904 36.0483 1.72764 36.0999 1.72764C36.203 1.77921 36.0741 1.72764 36.1257 1.75343C36.2632 1.805 36.3921 1.87376 36.5125 1.95971C36.564 1.99409 36.6156 2.03706 36.6672 2.08864C36.693 2.08864 36.7703 2.16599 36.693 2.08864C36.7102 2.10583 36.736 2.13161 36.7703 2.16599C36.8735 2.26914 36.968 2.37228 37.054 2.47542C37.0798 2.50121 37.1829 2.70749 37.1313 2.57857C37.1657 2.64733 37.2001 2.72468 37.2345 2.81064C37.2689 2.8794 37.2946 2.94816 37.3118 3.01692C37.3376 3.04271 37.3892 3.22321 37.3634 3.09428C37.3892 3.27478 37.415 3.42949 37.415 3.60999C37.415 3.53264 37.415 3.53263 37.4408 3.5842C37.4408 3.65297 37.4408 3.71313 37.4408 3.7647C37.4408 3.9538 37.4408 4.15149 37.4408 4.35777C37.4408 4.65001 37.4408 4.95084 37.4408 5.26027C37.5267 5.07118 37.6127 4.88208 37.6986 4.69299C36.564 6.08541 35.4381 7.47784 34.3207 8.87027C32.7736 10.7956 31.2264 12.7209 29.6793 14.6463C29.5418 14.8182 29.4128 14.9901 29.2925 15.162C29.0862 15.4198 29.0346 15.6261 28.9315 15.9097C28.6049 17.0443 28.2868 18.1789 27.9774 19.3135C27.6508 20.4308 27.3328 21.5482 27.0233 22.6656C26.989 22.7515 26.9632 22.8461 26.946 22.9492C26.7913 23.5165 26.9718 24.2643 27.6422 24.3932C28.1063 24.5222 28.5189 24.2385 28.9315 24.0064C30.9772 22.9063 33.0314 21.7975 35.0943 20.6801C35.1458 20.6457 35.1974 20.6113 35.249 20.577C35.5842 20.3965 35.7647 19.8807 35.61 19.5197C35.4553 19.133 35.0427 19.133 34.7075 19.3135Z" fill="white"/>
<path d="M34.7333 19.392C32.722 20.475 30.7107 21.5666 28.6994 22.6668C28.4674 22.7957 28.2353 22.9504 28.0032 23.0536C28.1064 23.002 28.0806 23.002 28.1837 22.9762C28.1665 22.9762 28.1494 22.9762 28.1322 22.9762C28.1837 22.9934 28.1837 22.9934 28.1322 22.9762C28.1322 22.9762 28.1408 22.9848 28.158 23.002C28.1236 22.9332 28.1236 22.9246 28.158 22.9762C28.158 23.0536 28.2095 23.1309 28.158 23.2083C28.158 23.1825 28.158 23.1567 28.158 23.1309C28.2095 22.9934 28.2525 22.8559 28.2869 22.7183C28.6479 21.4463 29.0089 20.1828 29.3699 18.9279C29.6621 17.8964 29.9543 16.865 30.2466 15.8336C30.1778 15.9367 30.1177 16.0399 30.0661 16.143C30.8053 15.2319 31.5445 14.3122 32.2837 13.3839C33.4526 11.9227 34.6215 10.4702 35.7905 9.02616C35.9624 8.7855 36.1429 8.55343 36.332 8.32995C36.5125 8.09788 36.7446 7.86581 36.7446 7.55638C36.7446 7.22117 36.5899 6.93752 36.2031 6.93752C34.6559 6.93752 33.1346 6.96331 31.6132 6.93752C29.8426 6.88595 28.0634 6.85157 26.2756 6.83438C24.419 6.80859 22.5367 6.78281 20.6801 6.86016C16.9928 7.01488 13.3054 6.93752 9.64387 6.93752C7.34035 6.93752 5.02824 6.93752 2.70753 6.93752C2.67315 6.93752 2.63878 6.93752 2.6044 6.93752C2.26918 6.93752 1.93396 7.35009 1.93396 7.68531C1.93396 8.39012 1.93396 9.10352 1.93396 9.82551C1.93396 11.5446 1.93396 13.2636 1.93396 14.9826C1.93396 17.0627 1.93396 19.1341 1.93396 21.197C1.93396 23.002 1.93396 24.7984 1.93396 26.5862C1.93396 27.4629 1.93396 28.3396 1.93396 29.2163C1.93396 29.2163 1.93396 29.2249 1.93396 29.2421C1.93396 29.6031 2.08868 29.861 2.47547 29.861C2.76771 29.861 3.06854 29.861 3.37797 29.861C4.18591 29.861 4.99386 29.861 5.80181 29.861C7.00514 29.861 8.20847 29.861 9.41179 29.861C10.8902 29.861 12.3686 29.861 13.8469 29.861C15.4456 29.861 17.0529 29.861 18.6688 29.861C20.2847 29.861 21.9006 29.861 23.5165 29.861C25.0465 29.861 26.5678 29.861 28.0806 29.861C29.3699 29.861 30.6506 29.861 31.9227 29.861C32.8509 29.861 33.7706 29.861 34.6817 29.861C35.1201 29.861 35.5584 29.8868 35.9968 29.861C36.014 29.861 36.0312 29.861 36.0484 29.861C36.3836 29.861 36.7446 29.4484 36.7446 29.139C36.7446 27.9356 36.7446 26.7323 36.7446 25.529C36.7446 23.6208 36.7446 21.7041 36.7446 19.7788C36.7446 19.349 36.7446 18.9107 36.7446 18.4637C36.7446 18.2316 36.6672 17.9738 36.4094 17.8706C36.2031 17.7933 35.8937 17.8706 35.7389 18.0769C35.3607 18.5583 34.9826 19.031 34.6044 19.4951C34.3981 19.753 34.2434 20.1656 34.5012 20.475C34.7075 20.7329 35.1459 20.6555 35.3522 20.3976C35.7303 19.9163 36.1171 19.4436 36.5125 18.9794C36.1687 18.8419 35.8335 18.7044 35.5069 18.5669C35.5069 19.7702 35.5069 20.9735 35.5069 22.1768C35.5069 24.1022 35.5069 26.0189 35.5069 27.927C35.5069 28.3568 35.5069 28.7952 35.5069 29.2421C35.7303 29.0015 35.9624 28.7522 36.2031 28.4943C35.8937 28.4943 35.5928 28.4943 35.3006 28.4943C34.4926 28.4943 33.6761 28.4943 32.8509 28.4943C31.6476 28.4943 30.4443 28.4943 29.241 28.4943C27.7626 28.4943 26.2928 28.4943 24.8316 28.4943C23.2157 28.4943 21.6084 28.4943 20.0097 28.4943C18.3766 28.4943 16.7521 28.4943 15.1362 28.4943C13.6235 28.4943 12.1021 28.4943 10.5721 28.4943C9.30006 28.4943 8.02797 28.4943 6.75588 28.4943C5.82759 28.4943 4.89931 28.4943 3.97103 28.4943C3.53268 28.4943 3.09431 28.4943 2.65595 28.4943C2.63876 28.4943 2.62159 28.4943 2.6044 28.4943C2.79349 28.7178 2.97398 28.9327 3.14589 29.139C3.14589 28.417 3.14589 27.695 3.14589 26.973C3.14589 25.2711 3.14589 23.5607 3.14589 21.8416C3.14589 19.7616 3.14589 17.6815 3.14589 15.6015C3.14589 13.7965 3.14589 12.0001 3.14589 10.2123C3.14589 9.33559 3.19746 8.45888 3.14589 7.60795C3.14589 7.59076 3.14589 7.57357 3.14589 7.55638C2.92241 7.79705 2.69894 8.04631 2.47547 8.30416C4.36641 8.30416 6.26595 8.30416 8.17409 8.30416C11.8356 8.30416 15.4972 8.35573 19.1588 8.27838C20.1902 8.25259 21.2216 8.20102 22.253 8.17523C23.2845 8.17523 24.3073 8.17523 25.3215 8.17523C27.2297 8.19242 29.1378 8.2268 31.0459 8.27838C32.6704 8.30416 34.2692 8.30416 35.8936 8.30416C35.9452 8.30416 35.9968 8.30416 36.0484 8.30416C35.8764 8.09788 35.696 7.89159 35.5069 7.68531C35.5069 7.7025 35.5069 7.71969 35.5069 7.73688C35.5928 7.56497 35.6702 7.39307 35.7389 7.22117C34.6559 8.57921 33.5729 9.93726 32.4899 11.2953C31.7508 12.2236 31.003 13.1433 30.2466 14.0544C30.0231 14.3638 29.7911 14.6646 29.5504 14.9569C29.3957 15.1374 29.1894 15.3694 29.112 15.5757C28.88 16.2204 28.7252 16.9166 28.5447 17.587C28.2009 18.7731 27.8571 19.9679 27.5133 21.1712C27.393 21.6182 27.2641 22.0651 27.1265 22.5121C27.0492 22.7957 26.9202 23.1309 26.946 23.4403C26.9976 24.0592 27.5907 24.4976 28.2095 24.2913C28.3385 24.2655 28.4416 24.1881 28.5705 24.1108C28.8628 23.9561 29.155 23.8013 29.4472 23.6466C31.321 22.6324 33.2034 21.6182 35.0943 20.6039C35.1287 20.5695 35.1717 20.5438 35.2232 20.5266C35.5327 20.3461 35.6874 19.8819 35.5584 19.5725C35.4037 19.2115 35.0169 19.2373 34.7333 19.392Z" fill="white"/>
<path d="M7.45204 16.2205C8.63818 15.9368 9.95324 16.0916 11.1652 16.1431C12.4716 16.1775 13.7781 16.1947 15.0846 16.1947C17.6632 16.2119 20.2417 16.1775 22.8203 16.0916C24.2987 16.04 25.777 15.9712 27.2554 15.8853C27.9516 15.8337 28.2353 14.4928 27.3843 14.5444C22.1499 14.8538 16.8896 14.957 11.6293 14.8023C10.1595 14.7765 8.71554 14.6218 7.27154 14.957C6.93633 15.0343 6.73004 15.4985 6.75583 15.8079C6.8074 16.1689 7.11683 16.2978 7.45204 16.2205Z" fill="white"/>
<path d="M7.52939 20.5754C12.4029 20.1112 17.3279 20.0339 22.2272 20.2659C23.6196 20.3175 25.0121 20.3175 26.4045 20.2401C27.2554 20.1628 27.5648 18.5899 26.585 18.6672C25.3473 18.736 24.1181 18.7532 22.8976 18.7188C21.6599 18.6672 20.4222 18.5899 19.1845 18.5641C16.7435 18.5125 14.311 18.5555 11.8872 18.693C10.4776 18.7618 9.07653 18.8649 7.6841 19.0024C7.27153 19.054 6.91054 19.4408 6.88475 19.8533C6.85897 20.2401 7.09104 20.6269 7.52939 20.5754Z" fill="white"/>
<path d="M7.94197 24.831C12.4115 24.5904 16.8724 24.513 21.3247 24.599C22.5968 24.6161 23.8603 24.6505 25.1152 24.7021C25.502 24.7279 25.8114 24.2637 25.8372 23.9285C25.8888 23.5417 25.6309 23.2839 25.2699 23.2839C20.8004 23.112 16.3395 23.0948 11.8872 23.2323C10.6151 23.2667 9.3516 23.3183 8.0967 23.387C7.32313 23.4386 7.03948 24.8826 7.94197 24.831Z" fill="white"/>
<path d="M35.0685 16.3995C35.017 16.9926 35.0943 17.5599 35.249 18.1272C35.3264 18.3593 35.5584 18.514 35.7905 18.4108C36.0226 18.2819 36.1257 17.9467 36.0484 17.7146C35.9194 17.2505 35.8679 16.7605 35.8937 16.2706C35.9195 16.0385 35.7132 15.7807 35.4553 15.8065C35.1717 15.858 35.0685 16.1675 35.0685 16.3995Z" fill="white"/>
<path d="M36.2545 14.9035C36.3061 15.5395 36.4092 16.1584 36.5639 16.76C36.6413 17.0437 36.9249 17.25 37.2085 17.121C37.4922 16.9663 37.6211 16.5795 37.518 16.2959C37.3976 15.7802 37.3117 15.2559 37.2601 14.723C37.2343 14.4393 37.0538 14.1299 36.7444 14.1815C36.435 14.233 36.2287 14.6198 36.2545 14.9035Z" fill="white"/>
<path d="M39.1427 15.1097C39.1771 14.4221 39.1513 13.7259 39.0653 13.0211C39.0395 12.789 38.8848 12.5053 38.6012 12.5569C38.3691 12.6085 38.1628 12.9179 38.2144 13.1758C38.3004 13.8634 38.3261 14.5596 38.2918 15.2644C38.266 15.4965 38.4723 15.7543 38.7301 15.7286C39.0138 15.677 39.1169 15.3676 39.1427 15.1097Z" fill="white"/>
<path d="M40.6897 13.3045C40.7069 12.5309 40.6983 11.7573 40.6639 10.9838C40.6639 10.7517 40.4834 10.468 40.1998 10.4938C39.9161 10.5454 39.7614 10.8806 39.7872 11.1385C39.8044 11.912 39.8044 12.6856 39.7872 13.4592C39.7872 13.6912 39.9935 13.9749 40.2514 13.9233C40.5608 13.8975 40.6897 13.5623 40.6897 13.3045Z" fill="white"/>
<path d="M42.1595 11.4216C42.2884 10.3644 42.34 9.30717 42.2368 8.24996C42.2368 7.99211 42.0563 7.70846 41.7727 7.76003C41.489 7.8116 41.3085 8.14682 41.3343 8.40467C41.4203 9.36734 41.3945 10.3214 41.257 11.2669C41.2312 11.5247 41.3085 11.86 41.5922 11.9115C41.8758 11.9631 42.1079 11.6795 42.1595 11.4216Z" fill="white"/>
<path d="M43.6036 9.95235C43.7411 9.00688 43.8099 8.05281 43.8099 7.09014C43.7841 6.8065 43.5778 6.49707 43.2941 6.54864C42.9589 6.60022 42.8042 6.96121 42.8042 7.24486C42.8214 8.08719 42.7698 8.92952 42.6495 9.77185C42.5979 10.0555 42.7011 10.4165 43.0105 10.4681C43.3199 10.5196 43.552 10.2102 43.6036 9.95235Z" fill="white"/>
<path d="M44.9959 8.17436C45.2022 7.32344 45.3053 6.44672 45.3053 5.57001C45.2795 5.33794 45.1248 5.08008 44.867 5.13165C44.5833 5.15744 44.4544 5.46687 44.4544 5.72473C44.4716 6.4983 44.377 7.26327 44.1708 8.01965C44.1192 8.25172 44.2481 8.56115 44.506 8.61272C44.7638 8.66429 44.9185 8.38065 44.9959 8.17436Z" fill="white"/>
<path d="M34.3466 14.5693C36.7876 11.5094 39.2372 8.44949 41.6955 5.38959C42.3831 4.51288 43.0707 3.64476 43.7583 2.78524C43.9388 2.57896 43.9388 2.16638 43.7583 1.9601C43.5262 1.75381 43.2684 1.85696 43.0879 2.06324C40.6469 5.12314 38.1972 8.18304 35.739 11.2429C35.0514 12.1025 34.3638 12.9706 33.6761 13.8473C33.4956 14.0536 33.4956 14.4661 33.7019 14.6724C33.9082 14.8787 34.1661 14.7756 34.3466 14.5693Z" fill="white"/>
<path d="M28.9315 22.3568C28.9315 22.331 28.8799 22.2021 28.9057 22.2537C28.9315 22.331 28.8283 22.331 28.9057 22.2795C28.8541 22.3052 28.9057 22.3568 28.9057 22.2795C28.9057 22.3052 28.8025 22.3826 28.9057 22.3052C28.665 22.2193 28.4243 22.1333 28.1837 22.0474C28.2868 22.331 28.4415 22.5889 28.7252 22.7178C28.8799 22.7952 29.0346 22.821 29.1893 22.7952C29.2237 22.7952 29.2667 22.7952 29.3182 22.7952C29.3698 22.778 29.4214 22.7608 29.473 22.7436C29.5417 22.7092 29.5245 22.7092 29.4214 22.7436C29.3183 22.6576 29.2151 22.5803 29.112 22.5115C29.112 22.5115 29.112 22.5201 29.112 22.5373C29.112 22.331 29.112 22.1247 29.112 21.9185C29.0948 21.9185 29.0862 21.927 29.0862 21.9442C29.1549 21.8583 29.2151 21.7723 29.2667 21.6864C29.2495 21.7036 29.2409 21.7122 29.2409 21.7122C29.3268 21.6778 29.4042 21.6348 29.473 21.5832C29.473 21.5832 29.4644 21.5832 29.4472 21.5832C29.6019 21.6692 29.748 21.7551 29.8855 21.8411C29.8855 21.8239 29.8855 21.8153 29.8855 21.8153C29.7566 21.5575 29.4214 21.5059 29.2151 21.6864C28.983 21.8927 28.9057 22.2795 29.0604 22.5631C29.1377 22.7178 29.3182 22.8467 29.4987 22.821C30.0918 22.692 30.2465 21.6348 29.6019 21.5059C29.473 21.4801 29.3956 21.5317 29.2667 21.5575C29.2151 21.5918 29.2065 21.6004 29.2409 21.5832C29.1893 21.5832 29.1807 21.5832 29.2151 21.5832C29.1635 21.5661 29.1549 21.5661 29.1893 21.5832C29.1549 21.5661 29.1205 21.5489 29.0862 21.5317C29.1205 21.566 29.1205 21.5575 29.0862 21.5059C29.1034 21.5231 29.112 21.5489 29.112 21.5832C29.0088 21.248 28.6736 21.0675 28.39 21.3254C28.0032 21.6864 27.7969 22.3052 28.0032 22.821C28.1063 23.0788 28.3126 23.2851 28.622 23.1562C28.8541 23.0272 29.0346 22.6147 28.9315 22.3568Z" fill="white"/>
</svg>
