<svg width="32" height="32" viewBox="0 0 32 32" fill="none" xmlns="http://www.w3.org/2000/svg">
<path d="M23.7326 29.637C22.6881 30.6649 21.1491 30.8813 19.0602 30.3403C12.5733 28.6091 3.39266 19.5743 1.63374 13.1905C1.08395 11.1888 1.30366 9.6199 2.34824 8.6461C4.21737 6.80669 7.2958 6.75259 9.16471 8.592C11.0338 10.4314 11.0338 13.461 9.10971 15.3004C8.945 15.4627 8.83501 15.5709 8.67008 15.6791C8.34043 15.9496 8.34043 16.3824 8.61535 16.707L15.4868 23.4695C15.7615 23.74 16.2565 23.74 16.5313 23.4154C18.4554 21.0891 21.8083 21.035 23.7326 22.9826C25.6564 24.7679 25.6564 27.7976 23.7326 29.637ZM16.0363 22.0088L10.1543 16.2201C12.5733 13.8397 12.5733 9.9986 10.1543 7.6182C7.73565 5.23779 3.83273 5.29189 1.41382 7.6723C0.0395361 9.0248 -0.345539 11.0806 0.31424 13.5692C2.78788 22.5498 18.7852 36.4536 24.7222 30.6108C27.141 28.2304 27.141 24.3351 24.7771 22.0088C22.3583 19.6284 18.4554 19.6284 16.0363 22.0088Z" fill="white"/>
<path d="M9.38509 11.9457C9.38509 10.1063 7.84565 8.53741 5.92153 8.53741C5.53689 8.53741 5.20703 8.86201 5.20703 9.24071C5.20703 9.61942 5.53689 9.94402 5.92153 9.94402C7.0761 9.94402 8.01081 10.8637 8.01081 11.9998C8.01081 12.3785 8.34066 12.7031 8.7253 12.7031C9.10994 12.7031 9.38509 12.3244 9.38509 11.9457Z" fill="white"/>
<path d="M19.721 22.7662C20.1155 22.7662 20.4356 23.0811 20.4356 23.4695C20.4356 23.858 20.1155 24.1729 19.721 24.1729C19.3259 24.1729 19.0059 23.858 19.0059 23.4695C19.0059 23.0811 19.3259 22.7662 19.721 22.7662Z" fill="white"/>
<path d="M12.8473 2.47914C13.242 2.47914 13.5621 2.794 13.5621 3.18244C13.5621 3.57088 13.242 3.88574 12.8473 3.88574C12.4527 3.88574 12.1328 3.57088 12.1328 3.18244C12.1328 2.794 12.4527 2.47914 12.8473 2.47914Z" fill="white"/>
<path d="M3.22861 3.12758C3.62325 3.12758 3.94311 3.44244 3.94311 3.83088C3.94311 4.21932 3.62325 4.53418 3.22861 4.53418C2.83375 4.53418 2.51367 4.21932 2.51367 3.83088C2.51367 3.44244 2.83375 3.12758 3.22861 3.12758Z" fill="white"/>
<path d="M1.85345 20.7106C2.24825 20.7106 2.56816 21.0254 2.56816 21.4139C2.56816 21.8023 2.24825 22.1172 1.85345 22.1172C1.45881 22.1172 1.13867 21.8023 1.13867 21.4139C1.13867 21.0254 1.45881 20.7106 1.85345 20.7106Z" fill="white"/>
<path d="M10.7595 28.8258C11.1543 28.8258 11.4744 29.1407 11.4744 29.5291C11.4744 29.9176 11.1543 30.2324 10.7595 30.2324C10.3648 30.2324 10.0449 29.9176 10.0449 29.5291C10.0449 29.1407 10.3648 28.8258 10.7595 28.8258Z" fill="white"/>
<path d="M27.966 28.1754C28.3611 28.1754 28.6806 28.4903 28.6806 28.8787C28.6806 29.2672 28.3611 29.582 27.966 29.582C27.5715 29.582 27.252 29.2672 27.252 28.8787C27.252 28.4903 27.5715 28.1754 27.966 28.1754Z" fill="white"/>
<path d="M30.7146 16.652C31.1097 16.652 31.4298 16.9669 31.4298 17.3553C31.4298 17.7437 31.1097 18.0586 30.7146 18.0586C30.3201 18.0586 30 17.7437 30 17.3553C30 16.9669 30.3201 16.652 30.7146 16.652Z" fill="white"/>
<path d="M30.5496 10.9186C29.6698 15.6253 24.7773 18.6008 20.05 17.2483C19.8848 17.1942 19.775 17.1942 19.6098 17.2483L16.8615 18.2221L17.576 16.7073C17.6858 16.4368 17.631 16.1122 17.3558 15.8958C12.9581 12.4875 13.1781 5.88728 17.7407 2.80358C19.5 1.61337 21.6988 1.12647 23.898 1.50517C28.4058 2.31668 31.374 6.53649 30.5496 10.9186ZM24.1725 0.152668C21.6439 -0.280132 19.1153 0.206768 16.9712 1.66747C11.8037 5.18398 11.4191 12.5416 16.0915 16.5991L14.9374 19.0877C14.8272 19.3582 14.8822 19.6287 15.0471 19.8451C15.2118 20.0615 15.5418 20.1156 15.7617 20.0074L19.8299 18.6008C25.2718 20.0615 30.8246 16.6532 31.8142 11.1891C32.8581 6.04959 29.3948 1.12647 24.1725 0.152668Z" fill="white"/>
<path d="M22.0292 8.5368C21.9744 8.4827 21.9195 8.4286 21.9195 8.3204C21.9195 8.104 22.0292 7.9958 22.3042 7.9958V8.6991C22.1939 8.645 22.139 8.5909 22.0292 8.5368ZM22.6341 9.72701C22.7439 9.78111 22.8542 9.83521 22.9639 9.88931C23.0188 9.94341 23.0737 9.99751 23.0737 10.1057C23.0737 10.268 22.9091 10.3762 22.6341 10.3762V9.72701ZM21.3695 9.99751C21.3146 9.94341 21.2597 9.94341 21.2597 9.88931L20.875 10.7008C21.3146 10.9713 21.864 11.1336 22.3591 11.1877V11.8369H22.7439V11.1877C23.2389 11.1877 23.7883 10.9713 24.0084 10.5385C24.1731 10.268 24.1731 9.78111 24.0084 9.51061C23.8986 9.29421 23.7334 9.07781 23.3487 8.96961C23.0188 8.80731 22.689 8.75321 22.6341 8.75321V7.9958C23.0188 8.0499 23.5139 8.3204 23.5688 8.3745L23.9535 7.6171C23.7883 7.5089 23.6237 7.4548 23.4036 7.3466C23.184 7.2384 22.9639 7.1843 22.689 7.1843V6.6433H22.3042V7.1843C21.4244 7.2925 20.9848 7.7794 20.9848 8.4827C20.9848 9.13191 21.4244 9.40241 22.0841 9.56471L22.3591 9.61881V10.3762C21.9744 10.3221 21.5896 10.1598 21.3695 9.99751Z" fill="white"/>
<path d="M22.4691 6.04981C24.2287 6.04981 25.7128 7.45641 25.7128 9.24172C25.7128 11.027 24.2836 12.4336 22.4691 12.4336C20.71 12.4336 19.2259 11.027 19.2259 9.24172C19.2259 7.45641 20.6551 6.04981 22.4691 6.04981ZM22.4691 13.7861C24.9982 13.7861 27.0872 11.7303 27.0872 9.24172C27.0872 6.75311 24.9982 4.69731 22.4691 4.69731C19.9405 4.69731 17.8516 6.75311 17.8516 9.24172C17.8516 11.7303 19.8856 13.7861 22.4691 13.7861Z" fill="white"/>
<path d="M22.4695 2.47848C22.0847 2.47848 21.7549 2.80308 21.7549 3.18178C21.7549 3.56048 22.0847 3.88508 22.4695 3.88508C25.4931 3.88508 27.9668 6.31959 27.9668 9.2951C27.9668 12.2706 25.4931 14.7051 22.4695 14.7051C19.4464 14.7051 16.9724 12.2706 16.9724 9.2951C16.9724 8.9164 16.6425 8.59179 16.2579 8.59179C15.873 8.59179 15.543 8.9164 15.543 9.2951C15.543 13.028 18.6214 16.0576 22.4146 16.0576C26.2077 16.0576 29.2863 13.028 29.2863 9.2951C29.2863 5.56219 26.2077 2.47848 22.4695 2.47848Z" fill="white"/>
<path d="M3.88788 27.526C3.50297 27.526 3.17311 27.2014 3.17311 26.8227C3.17311 26.444 3.50297 26.1194 3.88788 26.1194C4.27274 26.1194 4.60261 26.444 4.60261 26.8227C4.60261 27.2014 4.27274 27.526 3.88788 27.526ZM3.88788 24.821C2.73326 24.821 1.79883 25.7407 1.79883 26.8768C1.79883 28.0129 2.73326 28.9326 3.88788 28.9326C5.04224 28.9326 5.97667 28.0129 5.97667 26.8768C5.97667 25.7407 5.04224 24.821 3.88788 24.821Z" fill="white"/>
<path d="M8.34108 1.82935C8.5058 1.82935 8.67073 1.99165 8.67073 2.15395C8.67073 2.31625 8.56079 2.47855 8.34108 2.47855C8.12094 2.47855 8.01122 2.31625 8.01122 2.15395C8.01122 1.99165 8.17593 1.82935 8.34108 1.82935ZM8.34108 3.83105C9.27551 3.83105 10.045 3.07365 10.045 2.15395C10.045 1.23425 9.27551 0.476845 8.34108 0.476845C7.40644 0.476845 6.63672 1.23425 6.63672 2.15395C6.63672 3.07365 7.40644 3.83105 8.34108 3.83105Z" fill="white"/>
<path d="M28.9559 22.7662C28.4065 22.7662 27.9114 22.3334 27.9114 21.7383C27.9114 21.1432 28.3511 20.7104 28.9559 20.7104C29.5608 20.7104 30.0004 21.1432 30.0004 21.7383C30.0004 22.3334 29.5608 22.7662 28.9559 22.7662ZM28.9559 19.412C27.637 19.412 26.5371 20.494 26.5371 21.7924C26.5371 23.0908 27.637 24.1729 28.9559 24.1729C30.2754 24.1729 31.3747 23.0908 31.3747 21.7924C31.3747 20.494 30.2754 19.412 28.9559 19.412Z" fill="white"/>
</svg>
