<svg width="32" height="32" viewBox="0 0 32 32" fill="none" xmlns="http://www.w3.org/2000/svg">
<path d="M15.9697 25.4365C10.7429 25.4365 6.50367 21.197 6.50367 15.9701C6.50367 10.7432 10.7429 6.50367 15.9697 6.50367C21.1964 6.50367 25.4363 10.7432 25.4363 15.9701C25.4363 21.197 21.1964 25.4365 15.9697 25.4365ZM30.4891 15.2732H26.8302C26.4817 9.87209 22.1259 5.51637 16.6667 5.10984V1.45104C16.6667 1.04451 16.3182 0.696049 15.9117 0.696049C15.5052 0.696049 15.1567 1.04451 15.1567 1.45104V5.10984C9.75602 5.4583 5.39964 9.81401 4.99316 15.2732H1.45086C1.04381 15.2732 0.695312 15.6216 0.695312 16.0282C0.695312 16.4347 1.04381 16.7832 1.45086 16.7832H5.1097C5.45761 22.1842 9.81343 26.54 15.2727 26.9465V30.4891C15.2727 30.8957 15.6218 31.2441 16.0282 31.2441C16.4347 31.2441 16.7832 30.8957 16.7832 30.4891V26.8303C22.1839 26.4819 26.5397 22.1262 26.9462 16.667H30.4891C30.8955 16.667 31.244 16.3186 31.244 15.912C31.244 15.5636 30.8955 15.2732 30.4891 15.2732Z" fill="white"/>
<path d="M28.9806 17.423C28.5741 17.365 28.2256 17.5973 28.167 18.0038C27.2967 23.1726 23.2308 27.2379 18.062 28.1091C17.6556 28.1671 17.4231 28.5737 17.4816 28.9221C17.539 29.3287 17.9455 29.561 18.2945 29.5029C24.1017 28.5156 28.6321 23.9856 29.619 18.178C29.619 17.8876 29.3871 17.4811 28.9806 17.423Z" fill="white"/>
<path d="M3.07722 14.5186C3.42571 14.5186 3.71565 14.2862 3.77421 13.9378C4.64514 8.76901 8.71047 4.70367 13.8792 3.83253C14.2857 3.77445 14.5188 3.36792 14.4602 3.01946C14.4022 2.61293 13.9958 2.38062 13.6473 2.4387C7.83953 3.426 3.30917 7.95594 2.32227 13.7636C2.32227 14.112 2.61219 14.5186 3.07722 14.5186Z" fill="white"/>
<path d="M13.9376 28.1672C8.76887 27.296 4.70298 23.2307 3.83204 18.0619C3.77406 17.6554 3.36756 17.4231 3.0185 17.4812C2.61202 17.5392 2.3801 17.9458 2.43866 18.2942C3.42557 24.1019 7.95534 28.6318 13.7631 29.6191C14.1696 29.6772 14.5186 29.4449 14.576 29.0383C14.576 28.5737 14.2855 28.2253 13.9376 28.1672Z" fill="white"/>
<path d="M18.0042 3.77589C23.173 4.64703 27.2383 8.71237 28.1098 13.8812C28.1672 14.2296 28.4577 14.4619 28.8062 14.4619C29.2713 14.4619 29.6192 14.0554 29.5032 13.5908C28.5163 7.78315 23.9859 3.2532 18.1788 2.26591C17.7717 2.20783 17.4232 2.44014 17.3652 2.84667C17.3652 3.36936 17.6557 3.71781 18.0042 3.77589Z" fill="white"/>
<path d="M16.203 17.4228V16.6097C16.3769 16.6678 16.4935 16.7259 16.6095 16.784C16.7254 16.842 16.784 16.9582 16.784 17.0744C16.7254 17.3067 16.5515 17.4228 16.203 17.4228ZM15.8545 15.274C15.68 15.2159 15.564 15.1578 15.506 15.0998C15.448 15.0417 15.3895 14.9255 15.3895 14.8094C15.3895 14.5771 15.564 14.4609 15.8545 14.4028V15.274ZM17.0739 15.6805C16.6095 15.5063 16.261 15.4482 16.203 15.3901V14.4609C16.6675 14.519 17.2485 14.8094 17.3065 14.9255L17.8289 13.9963C17.6549 13.8802 17.4224 13.764 17.1319 13.6479C16.842 13.5317 16.6095 13.4736 16.261 13.4736V12.7767H15.7965V13.4736C15.1575 13.5317 14.5765 13.8221 14.3446 14.4028C14.286 14.5771 14.2286 14.8094 14.2286 15.0417C14.2286 15.3901 14.286 15.6805 14.5765 15.9128C14.8096 16.1451 15.2161 16.3194 15.564 16.4355L15.9125 16.5517V17.4809C15.448 17.4228 14.983 17.1905 14.6925 17.0163C14.6351 16.9582 14.5765 16.9001 14.5191 16.9001L13.9961 17.8874C14.5191 18.2359 15.1575 18.4101 15.7965 18.4682V19.2812H16.261V18.4682C16.4935 18.4682 16.6675 18.4101 16.9 18.352C17.3064 18.2359 17.597 18.0036 17.8289 17.6551C18.0034 17.3067 18.0034 16.7259 17.8875 16.3774C17.7709 16.2032 17.5384 15.8548 17.0739 15.6805Z" fill="white"/>
<path d="M15.9698 20.095C13.7049 20.095 11.8464 18.2365 11.8464 15.9716C11.8464 13.7066 13.7049 11.8481 15.9698 11.8481C18.2346 11.8481 20.0936 13.7066 20.0936 15.9716C20.0936 18.2365 18.2346 20.095 15.9698 20.095ZM21.5456 15.9716C21.5456 12.8935 19.0476 10.3962 15.9698 10.3962C12.8919 10.3962 10.3945 12.8935 10.3945 15.9716C10.3945 19.0496 12.8919 21.5469 15.9698 21.5469C19.0476 21.5469 21.5456 19.0496 21.5456 15.9716Z" fill="white"/>
<path d="M3.65807 29.0388C3.2516 29.0388 2.90255 28.6904 2.90255 28.2839C2.90255 27.8773 3.2516 27.5289 3.65807 27.5289C4.06454 27.5289 4.41303 27.8773 4.41303 28.2839C4.35504 28.6904 4.00598 29.0388 3.65807 29.0388ZM3.65807 26.135C2.43865 26.135 1.45117 27.1223 1.45117 28.3419C1.45117 29.5615 2.43865 30.5488 3.65807 30.5488C4.87749 30.5488 5.86441 29.5615 5.86441 28.3419C5.86441 27.1223 4.81951 26.135 3.65807 26.135Z" fill="white"/>
<path d="M28.6882 2.20591C29.2692 2.20591 29.7917 2.67052 29.7917 3.30936C29.7917 3.9482 29.2692 4.35473 28.6882 4.35473C28.1078 4.35473 27.5848 3.89013 27.5848 3.25129C27.5848 2.61245 28.0492 2.20591 28.6882 2.20591ZM28.6882 5.80664C30.0822 5.80664 31.2436 4.64512 31.2436 3.25129C31.2436 1.85746 30.0822 0.695932 28.6882 0.695932C27.2948 0.695932 26.1328 1.85746 26.1328 3.25129C26.1328 4.64512 27.2948 5.80664 28.6882 5.80664Z" fill="white"/>
<path d="M2.20634 2.90283C2.61281 2.90283 2.96185 3.25129 2.96185 3.65782C2.96185 4.06435 2.61281 4.41281 2.20634 4.41281C1.79986 4.41281 1.45194 4.00628 1.45194 3.65782C1.45194 3.25129 1.79986 2.90283 2.20634 2.90283ZM2.20634 5.80664C3.42633 5.80664 4.41379 4.81934 4.41379 3.59974C4.41379 2.38014 3.36835 1.45092 2.20634 1.45092C1.0449 1.45092 0 2.43822 0 3.65782C0 4.87742 0.986915 5.80664 2.20634 5.80664Z" fill="white"/>
<path d="M28.3409 24.6824C28.7577 24.6824 29.0959 25.0204 29.0959 25.4374C29.0959 25.8544 28.7577 26.1924 28.3409 26.1924C27.9241 26.1924 27.5859 25.8544 27.5859 25.4374C27.5859 25.0204 27.9241 24.6824 28.3409 24.6824Z" fill="white"/>
<path d="M23.9855 30.49C24.4023 30.49 24.7404 30.828 24.7404 31.245C24.7404 31.662 24.4023 32 23.9855 32C23.5686 32 23.2305 31.662 23.2305 31.245C23.2305 30.828 23.5686 30.49 23.9855 30.49Z" fill="white"/>
<path d="M10.1637 29.7342C10.58 29.7342 10.9181 30.0722 10.9181 30.4891C10.9181 30.9061 10.58 31.2441 10.1637 31.2441C9.74637 31.2441 9.4082 30.9061 9.4082 30.4891C9.4082 30.0722 9.74637 29.7342 10.1637 29.7342Z" fill="white"/>
<path d="M1.45086 22.4763C1.86709 22.4763 2.20525 22.8144 2.20525 23.2313C2.20525 23.6483 1.86709 23.9863 1.45086 23.9863C1.03348 23.9863 0.695312 23.6483 0.695312 23.2313C0.695312 22.8144 1.03348 22.4763 1.45086 22.4763Z" fill="white"/>
<path d="M31.2452 8.7117C31.662 8.7117 32.0001 9.0497 32.0001 9.46669C32.0001 9.88368 31.662 10.2217 31.2452 10.2217C30.8284 10.2217 30.4902 9.88368 30.4902 9.46669C30.4902 9.0497 30.8284 8.7117 31.2452 8.7117Z" fill="white"/>
<path d="M23.9855 0.696073C24.4023 0.696073 24.7404 1.03408 24.7404 1.45106C24.7404 1.86805 24.4023 2.20605 23.9855 2.20605C23.5686 2.20605 23.2305 1.86805 23.2305 1.45106C23.2305 1.03408 23.5686 0.696073 23.9855 0.696073Z" fill="white"/>
<path d="M8.01531 -0.000216126C8.43212 -0.000216126 8.77027 0.337788 8.77027 0.754775C8.77027 1.17176 8.43212 1.50977 8.01531 1.50977C7.59793 1.50977 7.25977 1.17176 7.25977 0.754775C7.25977 0.337788 7.59793 -0.000216126 8.01531 -0.000216126Z" fill="white"/>
<path d="M0.754957 7.95682C1.17176 7.95682 1.50935 8.29482 1.50935 8.71181C1.50935 9.12879 1.17176 9.4668 0.754957 9.4668C0.337574 9.4668 0 9.12879 0 8.71181C0 8.29482 0.337574 7.95682 0.754957 7.95682Z" fill="white"/>
<path d="M29.794 29.0388C30.2114 29.0388 30.5496 29.3769 30.5496 29.7938C30.5496 30.2108 30.2114 30.5488 29.794 30.5488C29.3772 30.5488 29.0391 30.2108 29.0391 29.7938C29.0391 29.3769 29.3772 29.0388 29.794 29.0388Z" fill="white"/>
<path d="M21.7772 9.46636H20.3253C19.9188 9.46636 19.5703 9.81482 19.5703 10.2214C19.5703 10.6279 19.9188 10.9763 20.3253 10.9763H21.0803V11.7313C21.0803 12.1379 21.4287 12.4863 21.8358 12.4863C22.2422 12.4863 22.5902 12.1379 22.5902 11.7313V10.1633C22.5328 9.75675 22.1837 9.46636 21.7772 9.46636Z" fill="white"/>
<path d="M10.1637 12.3691C10.5702 12.3691 10.9181 12.0207 10.9181 11.6141V10.8592H11.6737C12.0801 10.8592 12.4286 10.5107 12.4286 10.1042C12.4286 9.69763 12.0801 9.34918 11.6737 9.34918H10.1637C9.75727 9.34918 9.4082 9.69763 9.4082 10.1042V11.5561C9.46676 12.0207 9.75727 12.3691 10.1637 12.3691Z" fill="white"/>
<path d="M11.6145 21.0813H10.8601V20.3263C10.8601 19.9198 10.5111 19.5713 10.1046 19.5713C9.69812 19.5713 9.34961 19.9198 9.34961 20.3263V21.7782C9.34961 22.1847 9.69812 22.5332 10.1046 22.5332H11.5565C11.963 22.5332 12.3115 22.1847 12.3115 21.7782C12.3115 21.3717 12.021 21.0813 11.6145 21.0813Z" fill="white"/>
<path d="M21.7785 19.5718C21.3721 19.5718 21.0236 19.9203 21.0236 20.3268V21.0818H20.2686C19.8622 21.0818 19.5137 21.4303 19.5137 21.8368C19.5137 22.2433 19.8622 22.5918 20.2686 22.5918H21.7785C22.185 22.5918 22.5341 22.2433 22.5341 21.8368V20.3849C22.5341 19.9203 22.185 19.5718 21.7785 19.5718Z" fill="white"/>
</svg>
