<svg width="33" height="32" viewBox="0 0 33 32" fill="none" xmlns="http://www.w3.org/2000/svg">
<path d="M3.71876 2.83671C4.12545 2.83671 4.47422 3.17728 4.47422 3.57462C4.47422 3.97195 4.12545 4.31252 3.71876 4.31252C3.31184 4.31252 2.96306 3.97195 2.96306 3.57462C2.96306 3.17728 3.31184 2.83671 3.71876 2.83671ZM3.71876 5.6748C4.9393 5.6748 5.92752 4.70985 5.92752 3.51785C5.92752 2.32585 4.88115 1.41767 3.71876 1.41767C2.55609 1.41767 1.50977 2.38262 1.50977 3.57462C1.50977 4.76661 2.498 5.6748 3.71876 5.6748Z" fill="white"/>
<path d="M28.0165 1.41912C28.5979 1.41912 29.1208 1.87321 29.1208 2.4976C29.1208 3.12198 28.656 3.57607 28.0165 3.57607C27.3775 3.57607 26.9121 3.12198 26.9121 2.4976C26.9121 1.87321 27.4356 1.41912 28.0165 1.41912ZM28.0165 4.99512C29.4116 4.99512 30.5739 3.85988 30.5739 2.4976C30.5739 1.13531 29.4116 7.29561e-05 28.0165 7.29561e-05C26.6214 7.29561e-05 25.459 1.13531 25.459 2.4976C25.459 3.85988 26.6214 4.99512 28.0165 4.99512Z" fill="white"/>
<path d="M8.77724 2.83767C9.19444 2.83767 9.5327 3.16802 9.5327 3.57557C9.5327 3.98312 9.19444 4.31348 8.77724 4.31348C8.35997 4.31348 8.02148 3.98312 8.02148 3.57557C8.02148 3.16802 8.35997 2.83767 8.77724 2.83767Z" fill="white"/>
<path d="M12.4391 -0.000222445C12.8563 -0.000222445 13.1948 0.330132 13.1948 0.737682C13.1948 1.14523 12.8563 1.47559 12.4391 1.47559C12.0218 1.47559 11.6836 1.14523 11.6836 0.737682C11.6836 0.330132 12.0218 -0.000222445 12.4391 -0.000222445Z" fill="white"/>
<path d="M21.1574 1.41775C21.5751 1.41775 21.9129 1.7481 21.9129 2.15565C21.9129 2.5632 21.5751 2.89355 21.1574 2.89355C20.7402 2.89355 20.4023 2.5632 20.4023 2.15565C20.4023 1.7481 20.7402 1.41775 21.1574 1.41775Z" fill="white"/>
<path d="M31.3278 6.3572C31.7456 6.3572 32.084 6.68755 32.084 7.0951C32.084 7.50265 31.7456 7.83301 31.3278 7.83301C30.9107 7.83301 30.5723 7.50265 30.5723 7.0951C30.5723 6.68755 30.9107 6.3572 31.3278 6.3572Z" fill="white"/>
<path d="M21.8552 25.5427C22.2729 25.5427 22.6108 25.8731 22.6108 26.2807C22.6108 26.6882 22.2729 27.0186 21.8552 27.0186C21.438 27.0186 21.0996 26.6882 21.0996 26.2807C21.0996 25.8731 21.438 25.5427 21.8552 25.5427Z" fill="white"/>
<path d="M0.814347 7.09353C1.23178 7.09353 1.57004 7.42388 1.57004 7.83143C1.57004 8.23898 1.23178 8.56934 0.814347 8.56934C0.397083 8.56934 0.0585938 8.23898 0.0585938 7.83143C0.0585938 7.42388 0.397083 7.09353 0.814347 7.09353Z" fill="white"/>
<path d="M29.7016 27.6993L31.2708 29.2319L30.2245 30.2536L28.6553 28.721C28.3645 28.4372 27.8997 28.4372 27.609 28.721L26.0398 30.2536L25.0515 29.2319L26.6207 27.6993C26.9114 27.4155 26.9114 26.9614 26.6207 26.6776L25.0515 25.145L26.0978 24.1233L27.6676 25.6559C27.9577 25.9397 28.4226 25.9397 28.7133 25.6559L30.2825 24.1233L31.3288 25.145L29.7596 26.6776C29.4109 26.9614 29.4109 27.4155 29.7016 27.6993ZM1.51099 26.9614H19.6463C20.0532 26.9614 20.4019 26.6208 20.4019 26.2235C20.4019 25.8262 20.0532 25.4856 19.6463 25.4856H1.51099V12.8277C1.51099 12.3736 1.62746 11.9763 1.85976 11.6357L5.92875 19.4688C6.04481 19.6959 6.27758 19.8662 6.56797 19.8662H8.7768V20.6041C8.7768 21.7961 9.76479 22.761 10.9856 22.761C12.2059 22.761 13.1941 21.7961 13.1941 20.6041V19.8662H19.0068V20.6041C19.0068 21.7961 19.9945 22.761 21.2155 22.761C22.436 22.761 23.4242 21.7961 23.4242 20.6041V19.8662H25.6329C25.9231 19.8662 26.1558 19.6959 26.2719 19.4688L30.3405 11.6357C30.5732 11.9763 30.6893 12.3736 30.6893 12.8277V22.5907C30.3991 22.4205 30.0504 22.4772 29.8177 22.7043L28.2485 24.2368L26.6793 22.7043C26.3885 22.4205 25.9231 22.4205 25.6329 22.7043L23.5403 24.6909C23.2496 24.9747 23.2496 25.4288 23.5403 25.7126L25.1095 27.2452L23.5403 28.7778C23.4242 28.8913 23.3662 29.0048 23.3662 29.1751H3.7779C2.55731 29.1184 1.56931 28.1534 1.51099 26.9614ZM5.17282 8.79761C5.17282 8.62733 5.28929 8.5138 5.4635 8.5138H6.33544C6.50988 8.5138 6.62612 8.62733 6.62612 8.79761V9.25171H5.17282V8.79761ZM11.6829 7.94618C11.6829 7.49209 12.0899 7.09476 12.5547 7.09476H19.5297C19.9945 7.09476 20.4019 7.49209 20.4019 7.94618V9.25171H11.6829V7.94618ZM25.5163 8.79761C25.5163 8.62733 25.633 8.5138 25.8071 8.5138H26.6793C26.8534 8.5138 26.9694 8.62733 26.9694 8.79761V9.25171H25.5163V8.79761ZM10.2296 17.766H11.6829V20.6041C11.6829 21.0014 11.3341 21.342 10.9274 21.342C10.5203 21.342 10.2296 20.9447 10.2296 20.6041V17.766ZM23.3076 17.766C23.715 17.766 24.0638 17.4254 24.0638 17.0281C24.0638 16.6307 23.715 16.2902 23.3076 16.2902C21.6804 16.2902 20.4019 16.2902 18.9482 16.2902C18.5414 16.2902 18.1926 16.6307 18.1926 17.0281C18.1926 17.4254 18.5414 17.766 18.9482 17.766V18.4471H13.136V17.7092C13.5429 17.7092 13.8915 17.3687 13.8915 16.9713C13.8915 16.574 13.5429 16.2334 13.136 16.2334C11.5085 16.2334 10.2296 16.2334 8.7768 16.2334C8.36987 16.2334 8.02104 16.574 8.02104 16.9713C8.02104 17.3687 8.36987 17.7092 8.7768 17.7092V18.4471H7.03304L3.02238 10.7843C3.25491 10.7275 3.48722 10.6708 3.7779 10.6708C12.3805 10.6708 20.46 10.6708 28.3645 10.6708C28.5972 10.6708 28.888 10.7275 29.1201 10.7843L25.0515 18.4471H23.3076V17.766ZM20.4019 17.766H21.8545V20.6041C21.8545 21.0014 21.5057 21.342 21.0989 21.342C20.6921 21.342 20.3433 21.0014 20.3433 20.6041V17.766H20.4019ZM31.2127 27.1885L32.7819 25.6559C33.0727 25.3721 33.0727 24.918 32.7819 24.6342L32.0264 23.8963V12.8277C32.0264 10.8978 30.3991 9.25171 28.3645 9.19494V8.79761C28.3645 7.83266 27.609 7.09476 26.6207 7.09476H25.749C24.7607 7.09476 24.0052 7.83266 24.0052 8.79761V9.25171H21.8545V7.94618C21.8545 6.69742 20.8087 5.67571 19.5297 5.67571H12.5547C11.276 5.67571 10.2296 6.69742 10.2296 7.94618V9.25171H8.02104V8.79761C8.02104 7.83266 7.26558 7.09476 6.27758 7.09476H5.40559C4.41736 7.09476 3.66183 7.83266 3.66183 8.79761V9.25171C1.62746 9.30847 0 10.8978 0 12.8845V26.9614C0 28.9481 1.6856 30.5942 3.71998 30.5942H24.2959L25.5163 31.7862C25.8071 32.07 26.2719 32.07 26.5626 31.7862L28.1324 30.2536L29.7016 31.7862C29.9918 32.07 30.4572 32.07 30.7479 31.7862L32.7819 29.7995C33.0727 29.5157 33.0727 29.0616 32.7819 28.7778L31.2127 27.1885Z" fill="white"/>
</svg>
