<svg width="38" height="38" viewBox="0 0 38 38" fill="none" xmlns="http://www.w3.org/2000/svg">
<path d="M18.5033 2.26546C18.5033 3.38254 18.5033 4.49961 18.5033 5.61669C18.5033 5.83765 18.6138 6.07703 18.89 6.05862C19.1293 6.04021 19.3871 5.78241 19.3871 5.52463C19.3871 4.41982 19.3871 3.30888 19.3871 2.1918C19.3871 1.95243 19.2582 1.71305 19.0004 1.73147C18.7611 1.74988 18.5033 2.02609 18.5033 2.26546Z" fill="white"/>
<path d="M18.448 32.4808C18.448 33.5979 18.448 34.7149 18.448 35.832C18.448 36.1082 18.5769 36.366 18.8899 36.3476C19.1661 36.3108 19.4423 36.0161 19.4423 35.7399C19.4423 34.6229 19.4423 33.5119 19.4423 32.4071C19.4423 32.1309 19.3134 31.8731 19.0004 31.8916C18.7242 31.91 18.448 32.2046 18.448 32.4808Z" fill="white"/>
<path d="M2.11532 19.4809C3.2324 19.4809 4.34948 19.4809 5.46656 19.4809C5.96372 19.4809 6.16627 18.5234 5.55862 18.5234C4.44154 18.5234 3.32447 18.5234 2.20739 18.5234C1.69182 18.5234 1.50768 19.4809 2.11532 19.4809Z" fill="white"/>
<path d="M32.3318 19.5378C33.4489 19.5378 34.5598 19.5378 35.6646 19.5378C35.9408 19.5378 36.1802 19.2248 36.1986 18.967C36.217 18.6908 36.0697 18.4883 35.7751 18.4883C34.6703 18.4883 33.5593 18.4883 32.4422 18.4883C32.166 18.4883 31.9267 18.8013 31.9083 19.0591C31.8899 19.3353 32.0372 19.5378 32.3318 19.5378Z" fill="white"/>
<path d="M36.3643 11.6016C34.8728 8.17668 32.3686 5.21212 29.2567 3.1314C25.9976 0.958619 22.1123 -0.164592 18.1903 0.0195419C14.305 0.185263 10.5487 1.67675 7.51049 4.07049C4.50911 6.42741 2.17058 9.63133 0.955299 13.2588C-0.33364 17.0888 -0.315213 21.2686 0.99214 25.0802C2.22584 28.6524 4.56434 31.7827 7.54731 34.1028C10.6223 36.4781 14.3971 37.8591 18.2823 37.988C22.186 38.1353 26.0896 36.92 29.312 34.7288C32.4422 32.5744 34.9465 29.5546 36.4195 26.0745C37.9847 22.4102 38.3345 18.2304 37.3218 14.382C37.0763 13.4245 36.7571 12.4977 36.3643 11.6016C36.2538 11.3254 35.9408 11.2885 35.7198 11.4543C35.4805 11.6016 35.3331 11.9514 35.4436 12.2092C36.9535 15.7078 37.3218 19.6666 36.3827 23.3125C35.462 26.8295 33.5286 29.9045 30.8035 32.3351C29.5698 33.4583 28.023 34.4895 26.4947 35.2076C24.7823 36.0178 22.9593 36.5518 21.0996 36.7727C17.3432 37.233 13.5501 36.4044 10.2909 34.5263C7.21587 32.7586 4.638 30.107 2.99921 26.9584C1.24993 23.5887 0.605444 19.7403 1.2315 16.0024C1.37881 15.1001 1.61819 14.2163 1.93122 13.3324C2.24425 12.4118 2.5757 11.6568 2.99921 10.8466C3.41658 10.061 3.88918 9.31217 4.41703 8.60019C4.45386 8.52653 4.56434 8.37923 4.58275 8.36081C4.61958 8.32399 4.71165 8.1951 4.76689 8.12144C4.9142 7.93731 5.06151 7.75931 5.20882 7.58745C5.50343 7.24373 5.80416 6.9123 6.11105 6.59313C6.75552 5.93025 7.36318 5.37785 8.06289 4.84386C8.77488 4.30373 9.51755 3.81271 10.2909 3.37078C11.8376 2.48694 13.6053 1.80564 15.3914 1.45579C19.1109 0.700836 23.0146 1.19799 26.4211 2.8552C29.6618 4.42034 32.4054 6.92457 34.2836 9.98119C34.7255 10.6993 35.1122 11.4543 35.4436 12.2092C35.5725 12.4854 35.8855 12.5038 36.1065 12.3565C36.3275 12.2092 36.4932 11.8594 36.3643 11.6016Z" fill="white"/>
<path d="M19.0005 33.5514C18.8041 33.5514 18.6077 33.5452 18.4113 33.533C18.3622 33.533 18.3131 33.533 18.264 33.533C18.3376 33.533 18.2272 33.533 18.1903 33.5146C18.0921 33.5146 17.9939 33.5084 17.8957 33.4961C17.5152 33.4716 17.1285 33.4225 16.7357 33.3488C15.9869 33.2261 15.2503 33.0481 14.5261 32.8149C14.3419 32.7535 14.1578 32.6859 13.9737 32.6123C13.9368 32.6 13.8939 32.5816 13.8448 32.5571C13.8325 32.5571 13.8141 32.5509 13.7895 32.5387C13.8079 32.5387 13.8632 32.5755 13.8079 32.5387C13.7097 32.5141 13.6177 32.4773 13.5317 32.4282C13.188 32.2809 12.8443 32.1213 12.5006 31.9494C11.8377 31.6057 11.1994 31.219 10.5856 30.7894C10.2787 30.5684 9.97795 30.3352 9.68334 30.0897C9.64651 30.0651 9.60969 30.0406 9.57286 30.016C9.51762 29.9424 9.6097 30.0344 9.53604 29.9792C9.46239 29.9178 9.39486 29.8503 9.33348 29.7766C9.18617 29.6539 9.04501 29.525 8.90998 29.3899C8.36986 28.8744 7.8727 28.322 7.4185 27.7327C7.18526 27.4381 6.96428 27.1312 6.7556 26.8121C6.65739 26.6525 6.55306 26.4929 6.44258 26.3333C6.42417 26.2781 6.46099 26.3333 6.46099 26.3333C6.44871 26.321 6.43645 26.3026 6.42417 26.2781C6.39962 26.2413 6.37506 26.2044 6.35051 26.1676C6.30141 26.0817 6.2523 25.9958 6.2032 25.9098C5.83493 25.2592 5.52191 24.5779 5.26412 23.8659C5.12909 23.5099 5.00633 23.1478 4.89585 22.7795C4.88357 22.7304 4.87131 22.6875 4.85903 22.6506C4.85903 22.6322 4.82221 22.5217 4.84062 22.5586C4.84062 22.5954 4.8222 22.4849 4.80378 22.4665C4.79151 22.4174 4.77924 22.3683 4.76696 22.3192C4.71786 22.1228 4.67488 21.9325 4.63806 21.7484C4.49075 20.9873 4.39868 20.2201 4.36186 19.4467C4.34958 19.3485 4.34345 19.2503 4.34345 19.1521C4.34345 19.1153 4.34345 19.0048 4.34345 19.0969C4.34345 19.0478 4.34345 18.9925 4.34345 18.9311C4.34345 18.7347 4.34958 18.5445 4.36186 18.3603C4.37413 17.9675 4.40482 17.5747 4.45392 17.1819C4.50303 16.8013 4.5644 16.4208 4.63806 16.0402C4.65033 15.9911 4.66262 15.942 4.6749 15.8929C4.65648 16.0034 4.6749 15.9113 4.6749 15.8745C4.69945 15.7763 4.724 15.6781 4.74856 15.5799C4.79766 15.3958 4.84675 15.2055 4.89585 15.0091C5.00633 14.6531 5.12909 14.2971 5.26412 13.9411C5.3255 13.757 5.39301 13.579 5.46666 13.4071C5.50349 13.3335 5.54033 13.2537 5.57716 13.1677C5.58944 13.1309 5.60784 13.088 5.63239 13.0389C5.63239 13.0266 5.63852 13.0082 5.6508 12.9836C5.61397 13.0573 5.70604 12.8547 5.6508 12.9836C5.98224 12.3023 6.33209 11.6578 6.7556 11.0318C6.8538 10.8722 6.96429 10.7126 7.08705 10.553C7.13615 10.4794 7.18526 10.4119 7.23437 10.3505C7.24664 10.3259 7.25891 10.3075 7.27118 10.2952C7.30801 10.24 7.25278 10.3321 7.25278 10.3321C7.27119 10.3137 7.32643 10.2216 7.34484 10.2032C7.57808 9.90857 7.81746 9.62009 8.06297 9.33775C8.32076 9.05541 8.58467 8.78535 8.85473 8.52757C8.98976 8.40481 9.12481 8.28205 9.25984 8.1593C9.3335 8.08564 9.40101 8.01812 9.46238 7.95674C9.48694 7.94447 9.50534 7.93219 9.51761 7.91991C9.51761 7.91991 9.44396 7.97516 9.4992 7.93833C9.53603 7.91378 9.57285 7.88309 9.60968 7.84627C10.1866 7.36752 10.7943 6.93787 11.4326 6.55733C11.5922 6.44685 11.7579 6.34864 11.9298 6.26271C12.0034 6.21361 12.0832 6.17065 12.1691 6.13382C12.206 6.10927 12.2428 6.08472 12.2796 6.06016C12.3349 6.04175 12.2612 6.07857 12.2612 6.07857C12.2858 6.0663 12.3103 6.05403 12.3349 6.04176C12.6786 5.8699 13.0223 5.71031 13.366 5.563C14.078 5.26839 14.8023 5.02902 15.5388 4.84488C15.5879 4.83261 15.6309 4.82646 15.6677 4.82646C15.7229 4.80805 15.6677 4.82646 15.6493 4.82646C15.6738 4.81419 15.6984 4.80806 15.7229 4.80806C15.8211 4.7835 15.9193 4.76509 16.0176 4.75282C16.2017 4.71599 16.392 4.67916 16.5884 4.64233C16.9689 4.58095 17.3556 4.53185 17.7484 4.49503C18.1412 4.47047 18.5341 4.4582 18.9269 4.4582C19.1233 4.4582 19.3197 4.46434 19.5161 4.47662C19.5407 4.47662 19.5652 4.47662 19.5898 4.47662C19.5898 4.47662 19.6634 4.47662 19.6082 4.47662C19.5713 4.47662 19.645 4.47662 19.645 4.47662C19.6695 4.47662 19.6941 4.47662 19.7186 4.47662C19.8168 4.48889 19.9151 4.50116 20.0133 4.51343C20.7866 4.57481 21.5477 4.69757 22.2965 4.8817C22.6648 4.97991 23.0331 5.0904 23.4013 5.21315C23.5732 5.27453 23.7512 5.33591 23.9353 5.39729C23.9844 5.42184 24.0335 5.44025 24.0826 5.45252C24.1195 5.47094 24.0642 5.45252 24.0642 5.45252C24.0888 5.45252 24.1072 5.45866 24.1195 5.47093C24.2177 5.50776 24.3097 5.54459 24.3957 5.58142C25.0954 5.87604 25.7644 6.22588 26.4027 6.63098C27.0411 7.01152 27.6487 7.44117 28.2257 7.91991C28.2625 7.95674 28.2932 7.98743 28.3177 8.01198C28.373 8.04881 28.3177 8.01199 28.3177 7.99357C28.3423 8.01812 28.3607 8.04268 28.3729 8.06723C28.4466 8.12861 28.5203 8.18999 28.5939 8.25137C28.729 8.37412 28.864 8.49688 28.999 8.61963C29.2691 8.8897 29.5268 9.1659 29.7724 9.44824C30.2757 10.0006 30.736 10.596 31.1534 11.2343C31.2516 11.3816 31.3498 11.5351 31.448 11.6947C31.4112 11.621 31.4664 11.7131 31.4848 11.7315C31.4971 11.7806 31.5155 11.8236 31.5401 11.8604C31.5892 11.9463 31.6444 12.0323 31.7058 12.1182C31.8899 12.4496 32.0556 12.7872 32.2029 13.1309C32.5221 13.8184 32.786 14.5242 32.9947 15.2485C33.007 15.2976 33.0193 15.3405 33.0315 15.3773C33.05 15.4142 33.0684 15.5062 33.05 15.4326C33.0745 15.5308 33.0991 15.629 33.1236 15.7272C33.1727 15.9113 33.2157 16.0955 33.2525 16.2796C33.3262 16.6602 33.3875 17.0468 33.4366 17.4396C33.4857 17.8202 33.5164 18.2069 33.5287 18.5997C33.541 18.6979 33.5471 18.79 33.5471 18.8759C33.5471 18.9004 33.5471 18.925 33.5471 18.9496C33.5471 18.9496 33.5471 18.8759 33.5471 18.9311C33.5471 18.9802 33.5471 19.0355 33.5471 19.0969C33.5471 19.2933 33.541 19.4958 33.5287 19.7045C33.4919 20.4779 33.3937 21.239 33.2341 21.9878C33.2341 22.043 33.1973 22.1535 33.2341 22.043C33.2218 22.0921 33.2095 22.1351 33.1973 22.1719C33.1727 22.2701 33.1482 22.3683 33.1236 22.4665C33.0868 22.6506 33.0377 22.8286 32.9763 23.0005C32.8781 23.3688 32.7615 23.7309 32.6264 24.0869C32.5528 24.271 32.4791 24.4552 32.4055 24.6393C32.3687 24.713 32.3318 24.7927 32.295 24.8787C32.2827 24.9155 32.2643 24.9585 32.2398 25.0076L32.2214 25.0628C32.2214 25.0628 32.2582 24.9523 32.2214 25.0444C32.0618 25.3881 31.8899 25.7195 31.7058 26.0387C31.5216 26.3702 31.3252 26.6955 31.1166 27.0146C31.0061 27.1619 30.9017 27.3092 30.8035 27.4565C30.7422 27.5302 30.6869 27.6039 30.6378 27.6775C30.6378 27.6959 30.601 27.7143 30.601 27.7327C30.601 27.6959 30.6562 27.6591 30.6194 27.7143C30.5826 27.7512 30.5519 27.7941 30.5273 27.8432C30.0609 28.4202 29.5575 28.9726 29.0174 29.5004C28.8824 29.6232 28.7412 29.7521 28.5939 29.8871C28.5325 29.9362 28.4712 29.9915 28.4098 30.0528C28.3177 30.1265 28.465 29.9976 28.3729 30.0713C28.3361 30.1081 28.2993 30.1449 28.2625 30.1817C27.9679 30.415 27.6671 30.6421 27.3602 30.863C27.0533 31.084 26.7403 31.2865 26.4211 31.4707C26.2615 31.5689 26.102 31.6671 25.9424 31.7653C25.8565 31.8021 25.7705 31.8451 25.6846 31.8942C25.6662 31.9126 25.5557 31.9678 25.6109 31.931C25.6478 31.9126 25.5373 31.9678 25.5189 31.9863C24.8314 32.33 24.1256 32.6184 23.4013 32.8517C23.0453 32.9622 22.6894 33.0665 22.3334 33.1647C22.2965 33.1647 22.2658 33.1709 22.2413 33.1831C22.2229 33.1831 22.1676 33.2015 22.2045 33.1831C22.2597 33.1831 22.1492 33.2015 22.1308 33.2015C22.0326 33.2261 21.9344 33.2445 21.8362 33.2568C21.6521 33.2936 21.4679 33.3304 21.2838 33.3673C20.5227 33.49 19.7616 33.5514 19.0005 33.5514C18.7243 33.5514 18.4665 33.8828 18.4481 34.1406C18.4297 34.4352 18.5954 34.6562 18.89 34.6562C20.492 34.6378 22.1124 34.38 23.6407 33.8644C25.1322 33.3673 26.55 32.6491 27.8205 31.7285C29.0911 30.8078 30.2511 29.7214 31.1902 28.4693C32.1845 27.1803 32.9947 25.7809 33.5655 24.2526C34.1364 22.7427 34.4494 21.1407 34.523 19.5388C34.5967 17.8816 34.3757 16.2428 33.9338 14.6592C33.4919 13.1309 32.8106 11.7131 31.9452 10.3873C31.0797 9.07996 30.0302 7.93833 28.8149 6.9256C27.6364 5.94969 26.3106 5.13949 24.8928 4.55026C23.4013 3.92421 21.8362 3.53752 20.2342 3.40863C18.5954 3.27974 16.9382 3.42705 15.3363 3.83215C13.808 4.20042 12.3349 4.84488 10.9907 5.67349C9.64651 6.48368 8.43122 7.51483 7.40007 8.67487C6.31368 9.89016 5.42985 11.2343 4.76696 12.7074C4.08567 14.1621 3.66216 15.7088 3.45962 17.2923C3.25707 18.9127 3.33072 20.5515 3.66216 22.1535C3.9936 23.7002 4.546 25.2101 5.31937 26.5911C6.09273 27.9537 7.05023 29.2058 8.17345 30.2922C9.31508 31.3602 10.5856 32.2993 11.985 32.999C13.4028 33.7171 14.9312 34.2143 16.4963 34.4536C17.2881 34.5825 18.0799 34.6562 18.89 34.6562C19.1662 34.6562 19.424 34.3247 19.4424 34.0485C19.4609 33.7723 19.2951 33.5514 19.0005 33.5514Z" fill="white"/>
<path d="M23.1067 14.8242C23.1067 15.0943 23.0883 15.3705 23.0514 15.6528C23.0392 15.7756 23.0208 15.9045 22.9962 16.0395C22.9839 16.064 22.9778 16.0947 22.9778 16.1316C22.9778 16.1132 22.9962 16.0395 22.9778 16.1316C22.9533 16.2052 22.9348 16.285 22.9226 16.3709C22.8489 16.6164 22.763 16.862 22.6648 17.1075C22.6464 17.1443 22.5727 17.2916 22.6279 17.1811C22.6034 17.2425 22.5727 17.2977 22.5359 17.3468C22.4745 17.4696 22.4131 17.5862 22.3517 17.6967C22.2904 17.8072 22.2229 17.9054 22.1492 17.9913C22.1247 18.0404 22.094 18.0895 22.0571 18.1386C22.1308 18.0466 22.0019 18.1939 21.9835 18.2123C21.8362 18.4087 21.6704 18.5867 21.4863 18.7463C21.4618 18.7585 21.4434 18.777 21.4311 18.8015C21.3758 18.8567 21.4863 18.7463 21.4311 18.8015C21.382 18.8383 21.339 18.8752 21.3022 18.912C21.204 18.9734 21.1058 19.0409 21.0076 19.1145C20.9094 19.1759 20.8112 19.2373 20.7129 19.2987C20.6945 19.2987 20.6209 19.3355 20.6761 19.3171C20.7314 19.2803 20.6393 19.3171 20.6393 19.3355C20.5779 19.36 20.5165 19.3846 20.4552 19.4091C20.3569 19.446 20.2587 19.4828 20.1605 19.5196C20.0992 19.5442 20.0378 19.5626 19.9764 19.5749C19.958 19.5749 19.7923 19.6301 19.8659 19.6117C19.6327 19.6608 19.3995 19.6915 19.1662 19.7038C19.0557 19.7038 18.9391 19.7038 18.8164 19.7038C18.89 19.7038 18.7611 19.7038 18.7243 19.6854C18.6629 19.6854 18.5954 19.6792 18.5217 19.6669C18.2885 19.6301 18.0614 19.5749 17.8405 19.5012C17.7914 19.4889 17.7361 19.4705 17.6747 19.446C17.7668 19.4828 17.6195 19.4091 17.6011 19.4091C17.4906 19.36 17.3863 19.3109 17.2881 19.2618C17.0794 19.1391 16.8768 19.0102 16.6804 18.8752C16.6436 18.8383 16.6006 18.8015 16.5515 18.7647C16.4963 18.7094 16.6068 18.8015 16.5515 18.7463C16.527 18.734 16.5024 18.7156 16.4779 18.691C16.3919 18.6051 16.2999 18.5192 16.2017 18.4332C16.0421 18.2614 15.8948 18.0772 15.7597 17.8808C15.1889 17.0706 14.8575 16.0763 14.7838 15.0636C14.7838 14.9899 14.7838 14.9224 14.7838 14.861C14.7838 14.8242 14.7838 14.7874 14.7838 14.7506C14.7838 14.7874 14.7838 14.8242 14.7838 14.7321C14.7838 14.5971 14.79 14.4559 14.8022 14.3086C14.8145 14.0386 14.8452 13.7685 14.8943 13.4985C14.9127 13.48 14.9311 13.388 14.9127 13.4432C14.8943 13.4984 14.9311 13.4064 14.9311 13.388C14.9434 13.3266 14.9557 13.2652 14.968 13.2038C15.0048 13.0688 15.0478 12.9338 15.0969 12.7987C15.1337 12.6883 15.1766 12.5778 15.2257 12.4673C15.238 12.4305 15.2503 12.3998 15.2626 12.3752C15.281 12.3568 15.3178 12.2647 15.281 12.3384C15.2626 12.3936 15.2994 12.32 15.2994 12.3016C15.324 12.2648 15.3424 12.2279 15.3546 12.1911C15.4651 11.9701 15.594 11.7553 15.7413 11.5466C15.7782 11.4975 15.815 11.4484 15.8518 11.3993C15.7781 11.5098 15.8702 11.3625 15.8886 11.3441C15.9746 11.2459 16.0605 11.1477 16.1464 11.0495C16.2323 10.9635 16.3121 10.8837 16.3858 10.8101C16.4226 10.7917 16.5331 10.6812 16.4595 10.7548C16.5086 10.718 16.5638 10.6751 16.6252 10.626C16.8093 10.4786 17.0057 10.3498 17.2144 10.2393C17.2328 10.2393 17.2881 10.2024 17.2144 10.2393C17.239 10.227 17.2635 10.2147 17.2881 10.2024C17.3372 10.1779 17.3862 10.1533 17.4354 10.1288C17.5458 10.092 17.6563 10.0551 17.7668 10.0183C17.8773 9.98148 17.9878 9.94466 18.0983 9.90784C18.0062 9.94466 18.1719 9.90784 18.1903 9.90784C18.2517 9.89556 18.3131 9.88328 18.3745 9.87101C18.4849 9.85873 18.5954 9.84645 18.7059 9.83418C18.7673 9.83418 18.8286 9.83418 18.89 9.83418C18.9146 9.83418 18.9453 9.83418 18.9821 9.83418C18.9821 9.83418 19.0926 9.83418 19.0557 9.83418C19.0005 9.83418 19.0926 9.83418 19.0926 9.83418C19.1171 9.84645 19.1478 9.85259 19.1846 9.85259C19.2337 9.85259 19.289 9.85873 19.3504 9.87101C19.4608 9.88328 19.5713 9.90783 19.6818 9.94465C19.8046 9.9692 19.9212 9.99989 20.0317 10.0367C20.0808 10.049 20.1299 10.0674 20.179 10.092C20.2526 10.1104 20.1237 10.0551 20.1974 10.092C20.2219 10.1042 20.2526 10.1165 20.2894 10.1288C20.4981 10.227 20.7007 10.3436 20.8971 10.4786C20.9953 10.54 21.0874 10.6014 21.1733 10.6628C21.2224 10.6996 21.2653 10.7364 21.3022 10.7733C21.3758 10.8285 21.339 10.7917 21.3206 10.7733C21.3451 10.7978 21.3758 10.8285 21.4127 10.8653C21.5968 11.0249 21.7625 11.2029 21.9098 11.3993C22.5359 12.1543 22.9041 13.0934 23.0514 14.0509C23.0637 14.1859 23.076 14.3271 23.0883 14.4744C23.1006 14.5357 23.1067 14.5971 23.1067 14.6585C23.1067 14.6953 23.1067 14.7321 23.1067 14.769C23.1067 14.7874 23.1067 14.8794 23.1067 14.8242C23.1067 15.0636 23.2356 15.303 23.5118 15.2661C23.7512 15.2477 24.009 14.9899 24.009 14.7321C23.9905 12.5041 22.9226 10.1104 20.7682 9.20812C19.7739 8.7662 18.6506 8.71096 17.6195 9.07923C16.5515 9.42909 15.6861 10.184 15.0416 11.0679C13.679 13.0013 13.4949 15.7633 14.5813 17.8624C15.0784 18.8199 15.815 19.6669 16.7725 20.1825C17.7484 20.6981 18.8532 20.827 19.9212 20.5692C22.186 20.0352 23.6407 17.8256 23.9537 15.616C23.9905 15.3214 24.009 15.0268 24.009 14.7321C24.009 14.4928 23.88 14.2534 23.6038 14.2718C23.3645 14.2902 23.1067 14.5664 23.1067 14.8242Z" fill="white"/>
<path d="M27.8942 25.2635C27.7592 24.4533 27.6242 23.637 27.4891 22.8145C27.3786 22.1516 27.2681 21.4887 27.0104 20.8627C26.55 19.7579 25.7583 18.8004 24.7455 18.1743C24.1747 17.806 23.5487 17.5483 22.8858 17.4009C22.6832 17.3641 22.4807 17.493 22.3886 17.6587C22.3149 17.7938 22.229 17.9227 22.1308 18.0454C22.1185 18.07 22.1001 18.1007 22.0756 18.1375C22.0142 18.2111 21.959 18.2787 21.9098 18.34C21.8116 18.4505 21.7134 18.5549 21.6152 18.6531C21.5661 18.7022 21.517 18.7451 21.4679 18.782C21.3943 18.8556 21.4311 18.8188 21.4495 18.8004C21.4127 18.8372 21.3759 18.8679 21.339 18.8924C20.8603 19.2607 20.4552 19.4633 19.8844 19.629C19.8107 19.6474 19.6634 19.6658 19.5529 19.6842C19.3933 19.7088 19.2399 19.721 19.0926 19.721C18.8348 19.721 18.5954 19.7026 18.3192 19.6474C17.7484 19.5369 17.2881 19.3159 16.8093 18.9845C16.3306 18.6347 15.8702 18.1191 15.5572 17.6035C15.4836 17.493 15.3731 17.3641 15.2074 17.4009C13.5502 17.7692 12.1139 18.782 11.2485 20.255C11.0459 20.6417 10.8618 21.0284 10.7329 21.4335C10.5856 21.8938 10.5119 22.3726 10.4199 22.8513C10.3339 23.416 10.2419 23.9745 10.1437 24.5269C10.07 25.0057 9.90431 25.5397 9.99638 26.0368C10.07 26.4788 10.3278 26.8654 10.6961 27.1232C11.1012 27.3994 11.5799 27.3994 12.0587 27.3994C13.188 27.3994 14.3174 27.3994 15.4467 27.3994C17.7177 27.4117 19.9887 27.4117 22.2597 27.3994C23.4013 27.3994 24.5368 27.3994 25.6662 27.3994C25.924 27.3994 26.1818 27.4178 26.4211 27.3626C26.6605 27.3258 26.8815 27.2337 27.084 27.1048C27.4523 26.847 27.7469 26.4419 27.8574 26C27.9188 25.7545 27.931 25.509 27.8942 25.2635C27.8574 25.0241 27.6364 24.8952 27.4155 24.9689C27.1761 25.0609 27.0104 25.3371 27.0472 25.5765C27.0656 25.7422 27.0472 25.8527 27.0104 25.9632C27.0104 25.9816 26.9551 26.1105 27.0104 26C26.9858 26.0369 26.9613 26.0737 26.9367 26.1105C26.8815 26.221 26.992 26.0737 26.9367 26.1289C26.8999 26.1657 26.863 26.2026 26.8262 26.2394C26.7526 26.3315 26.8999 26.1841 26.8078 26.2578C26.771 26.2823 26.7342 26.3069 26.6973 26.3315C26.5869 26.4051 26.7526 26.313 26.6421 26.3499C26.6053 26.3744 26.5623 26.3928 26.5132 26.4051C26.4027 26.4419 26.1265 26.4235 25.9424 26.4235C24.8867 26.4358 23.8248 26.4419 22.7569 26.4419C20.6577 26.4419 18.5525 26.4419 16.4411 26.4419C15.3976 26.4419 14.3542 26.4419 13.3108 26.4419C12.7768 26.4419 12.2428 26.4603 11.7272 26.4235C11.6167 26.4235 11.4326 26.3867 11.3221 26.313C11.1564 26.2394 11.1012 26.1842 10.9907 26.0184C10.9907 26.0184 10.917 25.9079 10.9539 25.9816C10.9293 25.9325 10.9109 25.8895 10.8986 25.8527C10.8863 25.8159 10.8741 25.7791 10.8618 25.7422C10.8802 25.7975 10.8618 25.7238 10.8434 25.7238C10.8434 25.6747 10.8434 25.6256 10.8434 25.5765C10.825 25.466 10.825 25.6502 10.825 25.5213C10.8495 25.3862 10.8741 25.2573 10.8986 25.1346C10.9845 24.619 11.0705 24.1034 11.1564 23.5879C11.2485 23.0907 11.3221 22.5751 11.4142 22.078C11.4326 21.9307 11.3958 22.1332 11.4142 22.0411C11.4265 22.0043 11.4387 21.9675 11.451 21.9307C11.4756 21.8447 11.5001 21.7527 11.5247 21.6545C11.5861 21.4703 11.6536 21.2862 11.7272 21.1021C11.7456 21.0836 11.7825 20.9916 11.7457 21.0836C11.7702 21.0345 11.7947 20.9793 11.8193 20.9179C11.8684 20.8197 11.9175 20.7276 11.9666 20.6417C12.0771 20.4699 12.1876 20.3041 12.2981 20.1446C12.2244 20.2366 12.3165 20.1261 12.3349 20.1077C12.3717 20.0586 12.4085 20.0095 12.4453 19.9604C12.519 19.8868 12.5927 19.8131 12.6663 19.7395C12.7277 19.6658 12.7891 19.5983 12.8505 19.5369C12.8873 19.5124 12.9241 19.4817 12.9609 19.4448C12.9855 19.4326 13.01 19.4142 13.0346 19.3896C12.9855 19.4264 12.9855 19.4264 13.0346 19.3896C13.1942 19.2668 13.3538 19.1502 13.5133 19.0397C13.5993 18.9784 13.6913 18.9231 13.7895 18.874C13.8264 18.8495 13.8632 18.8249 13.9 18.8004C13.9491 18.7758 13.9552 18.7758 13.9184 18.8004C13.943 18.7881 13.9675 18.7758 13.9921 18.7635C14.1762 18.6653 14.3603 18.5856 14.5445 18.5242C14.6427 18.4873 14.747 18.4505 14.8575 18.4137C14.8943 18.4014 14.9373 18.3891 14.9864 18.3769C15.0048 18.3769 15.1521 18.34 15.0969 18.3584C14.9864 18.2848 14.8698 18.2111 14.747 18.1375C15.4467 19.2975 16.4779 20.2182 17.7852 20.5496C19.0742 20.8811 20.4552 20.5681 21.5232 19.8131C22.1492 19.3528 22.6832 18.7451 23.0883 18.0822C22.9165 18.1682 22.7446 18.2602 22.5727 18.3584C23.6039 18.5794 24.5614 19.1318 25.2611 19.9052C25.6478 20.3287 25.9056 20.7338 26.1265 21.2309C26.4027 21.8202 26.4764 22.2989 26.5869 22.9434C26.7464 23.8272 26.8999 24.7049 27.0472 25.5765C27.084 25.8159 27.305 25.9632 27.5259 25.8711C27.7653 25.7975 27.9494 25.5213 27.8942 25.2635Z" fill="white"/>
<path d="M32.2397 11.3056C31.2086 11.4161 30.3247 12.0053 29.7171 12.8339C29.0542 13.7178 28.7964 14.8594 28.8701 15.9458C28.9069 16.6271 29.1094 17.3084 29.4593 17.8976C29.6312 17.603 29.803 17.3145 29.9749 17.0322C28.999 17.2531 28.1151 17.7503 27.4891 18.5421C27.176 18.9472 26.9183 19.4075 26.7525 19.9047C26.55 20.4571 26.4947 21.0647 26.3843 21.654C26.3659 21.7829 26.329 21.8933 26.3474 22.0222C26.3658 22.0959 26.3843 22.1879 26.4027 22.2616C26.4395 22.4335 26.4702 22.6053 26.4947 22.7772C26.5561 23.1332 26.6175 23.4953 26.6789 23.8636C26.7157 24.1029 26.8814 24.2318 27.1208 24.2318C29.1586 24.2318 31.1902 24.2257 33.2156 24.2134C33.455 24.2134 33.676 23.9556 33.7496 23.7531C34.7992 20.586 34.7992 17.1058 33.7128 13.9387C33.4182 13.1101 33.0683 12.3184 32.6448 11.545C32.5159 11.3056 32.2213 11.232 32.0004 11.3977C31.7794 11.545 31.5768 11.9133 31.7242 12.1711C33.2156 14.8778 33.8233 17.9344 33.4182 20.9727C33.2893 21.8933 33.1051 22.6667 32.8105 23.5505C32.9824 23.4032 33.1604 23.2559 33.3445 23.1086C31.3068 23.1209 29.269 23.127 27.2313 23.127C27.3786 23.2498 27.5259 23.3725 27.6732 23.4953C27.5811 22.9429 27.5075 22.3721 27.3786 21.8013C27.3417 21.6908 27.3786 21.6171 27.397 21.4698C27.4216 21.3225 27.4461 21.1691 27.4706 21.0095C27.4952 20.8745 27.5197 20.7394 27.5443 20.6044C27.5566 20.543 27.5689 20.4878 27.5811 20.4387C27.5811 20.365 27.5811 20.4571 27.5627 20.4571C27.575 20.4203 27.5873 20.3834 27.5995 20.3466C27.6241 20.2484 27.6548 20.1502 27.6916 20.052C27.7039 20.0029 27.7223 19.9599 27.7468 19.9231C27.7468 19.8985 27.753 19.874 27.7653 19.8494C27.7653 19.8494 27.8021 19.739 27.7837 19.8126C27.7469 19.8863 27.8205 19.739 27.8205 19.7205C27.845 19.6837 27.8696 19.6469 27.8942 19.6101C27.9433 19.5119 27.9985 19.4198 28.0599 19.3339C28.0844 19.297 28.109 19.2602 28.1335 19.2234C28.0599 19.3155 28.1335 19.2234 28.1704 19.1866C28.244 19.1006 28.3177 19.0208 28.3913 18.9472C28.4159 18.9226 28.4465 18.8919 28.4834 18.8551C28.5018 18.8367 28.5939 18.7446 28.5386 18.7999C28.4834 18.8551 28.557 18.7815 28.5754 18.7815C28.6 18.7569 28.6184 18.7385 28.6307 18.7262C28.6675 18.7017 28.7105 18.671 28.7596 18.6342C28.8455 18.5728 28.9376 18.5114 29.0358 18.45C29.0726 18.4316 29.2199 18.3579 29.1278 18.4132C29.1647 18.3886 29.2076 18.3641 29.2568 18.3395C29.3672 18.2904 29.4777 18.2475 29.5882 18.2106C29.6373 18.1984 29.6925 18.18 29.7539 18.1554C29.7907 18.1554 29.938 18.1186 29.846 18.137C30.0485 18.0817 30.1958 18.0081 30.3063 17.824C30.3984 17.6767 30.472 17.4373 30.38 17.2716C30.1038 16.8112 29.9565 16.3693 29.8828 15.8906C29.8705 15.7555 29.8582 15.6205 29.846 15.4855C29.846 15.4118 29.846 15.4486 29.846 15.375C29.846 15.3013 29.846 15.2338 29.846 15.1724C29.8582 15.062 29.8705 14.9515 29.8828 14.841C29.8951 14.7919 29.9012 14.7366 29.9012 14.6753C29.9135 14.6507 29.9196 14.6323 29.9196 14.62C29.9565 14.4543 29.9012 14.6753 29.9196 14.5832C29.9749 14.3807 30.0485 14.1781 30.1222 13.9756C30.1406 13.9203 30.1958 13.8283 30.1406 13.9203C30.1651 13.8712 30.1897 13.8283 30.2142 13.7914C30.2633 13.6932 30.3186 13.6012 30.38 13.5152C30.4045 13.4784 30.4291 13.4354 30.4536 13.3863C30.472 13.3679 30.5273 13.2943 30.4536 13.4048C30.4659 13.3925 30.4782 13.3741 30.4904 13.3495C30.5518 13.2636 30.6193 13.1838 30.693 13.1101C30.7298 13.0856 30.7605 13.0549 30.7851 13.0181C30.8035 13.0181 30.9139 12.9076 30.8587 12.9628C30.8035 12.9997 30.914 12.9076 30.9324 12.8892C30.9815 12.8646 31.0244 12.8339 31.0613 12.7971C31.1595 12.7357 31.2577 12.6805 31.3559 12.6314C31.2454 12.6866 31.3743 12.613 31.4111 12.5946C31.4602 12.5823 31.5032 12.5639 31.54 12.5393C31.6014 12.527 31.6566 12.5086 31.7057 12.4841C31.7241 12.4841 31.8715 12.4472 31.8162 12.4657C31.761 12.4657 31.8346 12.4473 31.853 12.4473C31.8899 12.4473 31.9206 12.4411 31.9451 12.4288C32.0065 12.4288 32.0679 12.4227 32.1292 12.4104C32.4239 12.392 32.6632 12.0974 32.6816 11.8212C32.7001 11.545 32.5343 11.2872 32.2397 11.3056Z" fill="white"/>
<path d="M11.451 22.2266C11.4633 22.1652 11.4755 22.1039 11.4878 22.0425C11.4694 22.0977 11.5062 21.9688 11.5062 21.9504C11.5431 21.8277 11.5799 21.7049 11.6167 21.5822C11.6535 21.4594 11.6965 21.3489 11.7456 21.2507C11.8193 21.0482 11.8377 20.8824 11.8008 20.6799C11.7272 20.238 11.6351 19.8145 11.4694 19.4094C11.138 18.6544 10.5856 18.01 9.88584 17.568C9.49916 17.3102 9.03883 17.1445 8.5969 17.034C8.67056 17.2918 8.73809 17.5558 8.79947 17.8258C9.53601 16.5737 9.68331 15.027 9.16774 13.6828C8.76264 12.5964 7.87878 11.6942 6.75556 11.3995C6.47936 11.3075 6.16635 11.2891 5.87173 11.2891C5.54029 11.3075 5.37457 11.4916 5.22726 11.7678C5.14133 11.9274 5.0554 12.0931 4.96947 12.265C4.63803 12.9463 4.34342 13.6276 4.12246 14.3457C3.64371 15.7451 3.38591 17.2366 3.34908 18.7097C3.31226 20.4958 3.58847 22.2819 4.14087 23.9759C4.21452 24.1416 4.38023 24.2153 4.54595 24.2153C6.5837 24.2275 8.62147 24.2337 10.6592 24.2337C10.9538 24.2337 11.1564 23.9022 11.2116 23.6445C11.2853 23.1657 11.3651 22.6931 11.451 22.2266C11.4878 21.9504 11.2853 21.6926 11.0091 21.711C10.6961 21.7479 10.5119 22.0241 10.4567 22.3187C10.383 22.7852 10.3032 23.2578 10.2173 23.7365C10.4014 23.5401 10.5856 23.3376 10.7697 23.1289C8.73194 23.1289 6.70034 23.1227 4.67486 23.1105C4.79762 23.1841 4.92651 23.2639 5.06154 23.3498C4.58279 21.8768 4.325 20.2564 4.34341 18.7097C4.35569 17.9486 4.42935 17.1875 4.56439 16.4264C4.63804 16.0213 4.67486 15.8003 4.78534 15.3953C4.88354 15.027 4.99403 14.6648 5.11679 14.3089C5.25182 13.916 5.40526 13.5294 5.57712 13.1488C5.60167 13.0997 5.62007 13.0567 5.63235 13.0199C5.706 12.8542 5.57712 13.1304 5.66919 12.9463C5.70602 12.8603 5.74897 12.7683 5.79807 12.6701C5.89628 12.4737 6.00061 12.2834 6.11109 12.0992C5.95151 12.1975 5.79807 12.3018 5.65076 12.4123C5.72441 12.4 5.79195 12.3939 5.85332 12.3939C5.87788 12.3939 5.90241 12.3939 5.92696 12.3939C5.85331 12.3939 6.00061 12.3939 5.92696 12.3939C6.02516 12.4061 6.12339 12.4246 6.22159 12.4491C6.33207 12.4614 6.43641 12.4859 6.53461 12.5228C6.57144 12.535 6.61439 12.5473 6.6635 12.5596C6.57143 12.5412 6.70033 12.5964 6.73715 12.5964C6.93356 12.6946 7.1177 12.8051 7.28956 12.9278C7.30797 12.9463 7.40005 13.0383 7.3264 12.9831C7.36322 13.0076 7.40005 13.0383 7.43687 13.0752C7.5228 13.1488 7.60258 13.2286 7.67623 13.3145C7.73761 13.4005 7.79899 13.4803 7.86037 13.5539C7.88492 13.603 7.91561 13.646 7.95243 13.6828C7.96471 13.7074 7.977 13.7319 7.98927 13.7565C7.95245 13.7012 7.98927 13.7565 8.00768 13.7933C8.11816 13.9897 8.21023 14.1922 8.28388 14.4009C8.29616 14.45 8.31458 14.5053 8.33913 14.5666C8.33913 14.5912 8.34527 14.6219 8.35754 14.6587C8.33913 14.5666 8.35754 14.6219 8.35754 14.6587C8.38209 14.7815 8.40665 14.8981 8.4312 15.0086C8.44348 15.1313 8.45574 15.2541 8.46802 15.3768C8.46802 15.4382 8.47415 15.4935 8.48643 15.5426C8.48643 15.6346 8.48643 15.4689 8.46802 15.561C8.46802 15.6101 8.46802 15.6592 8.46802 15.7083C8.46802 15.8679 8.45575 16.0213 8.4312 16.1686C8.41893 16.2177 8.41277 16.2607 8.41277 16.2975C8.41277 16.2975 8.37595 16.4448 8.39436 16.3896C8.39436 16.3343 8.37595 16.4264 8.37595 16.4264C8.36368 16.4755 8.35141 16.5185 8.33913 16.5553C8.30231 16.7149 8.2532 16.8622 8.19182 16.9972C8.17954 17.034 8.16112 17.0709 8.13657 17.1077C8.15498 17.0709 8.1734 17.0525 8.13657 17.1077C8.09974 17.1813 8.05679 17.2611 8.00768 17.3471C7.86038 17.6049 7.86037 18.0468 8.22864 18.1204C8.32684 18.145 8.42506 18.1695 8.52327 18.1941C8.56009 18.2186 8.60305 18.2371 8.65215 18.2493C8.67057 18.2493 8.78105 18.2862 8.74422 18.2862C8.70739 18.2677 8.83628 18.323 8.8547 18.323C8.89152 18.3475 8.92835 18.3659 8.96517 18.3782C9.0511 18.4273 9.1309 18.4703 9.20456 18.5071C9.36414 18.6053 9.51758 18.7097 9.66489 18.8201C9.73854 18.8938 9.62806 18.8017 9.70171 18.857C9.72626 18.8938 9.75695 18.9245 9.79378 18.949C9.86743 19.0227 9.93496 19.0963 9.99634 19.17C10.1191 19.3173 10.2357 19.4708 10.3462 19.6303C10.4014 19.704 10.3094 19.5751 10.3646 19.6672C10.3892 19.7163 10.4137 19.7592 10.4382 19.796C10.4751 19.882 10.5119 19.9679 10.5487 20.0538C10.5856 20.1398 10.6224 20.2257 10.6592 20.3116C10.6715 20.3485 10.6838 20.3914 10.696 20.4405C10.7329 20.551 10.6776 20.3853 10.7144 20.4958C10.7513 20.7351 10.8065 20.9561 10.8434 21.1955C10.8556 21.0973 10.8618 20.9991 10.8618 20.9009C10.6776 21.3612 10.5487 21.8215 10.4567 22.3187C10.4198 22.5765 10.6224 22.8343 10.8986 22.8159C11.2116 22.7974 11.3957 22.5028 11.451 22.2266Z" fill="white"/>
<path d="M6.03742 25.3373C6.45479 24.8831 6.87215 24.4228 7.28952 23.9563C7.47365 23.7537 7.16063 23.4407 6.9765 23.6617C6.55913 24.1281 6.14175 24.5885 5.72438 25.0427C5.54024 25.2636 5.85329 25.5583 6.03742 25.3373Z" fill="white"/>
<path d="M7.45533 25.8157C7.82359 25.1528 8.32076 24.5452 8.90999 24.0664C9.13095 23.9007 8.90998 23.5324 8.68901 23.6981C8.02613 24.2321 7.49216 24.8766 7.06865 25.6131C6.93975 25.8525 7.30802 26.0551 7.45533 25.8157Z" fill="white"/>
<path d="M8.90997 25.8911C9.30279 25.2037 9.75083 24.5531 10.2541 23.9393C10.4199 23.7183 10.1068 23.4237 9.94111 23.6447C9.42554 24.283 8.95907 24.9643 8.5417 25.6885C8.39439 25.9279 8.76266 26.1305 8.90997 25.8911Z" fill="white"/>
<path d="M9.57276 27.4909C9.77531 26.9017 10.0883 26.3493 10.475 25.8705C10.6407 25.668 10.3461 25.3733 10.162 25.5759C9.73233 26.1283 9.39475 26.7298 9.14924 27.3804C9.05717 27.6382 9.48069 27.7487 9.57276 27.4909Z" fill="white"/>
<path d="M10.696 28.1355C10.9538 27.7304 11.2852 27.3806 11.6719 27.0859C11.8929 26.9202 11.6719 26.552 11.4509 26.7177C10.9967 27.0614 10.6223 27.4665 10.3277 27.933C10.1804 28.1724 10.5487 28.3749 10.696 28.1355Z" fill="white"/>
<path d="M12.5373 28.9275C12.7951 28.2646 13.2002 27.6754 13.7158 27.1967C13.9183 27.0125 13.6053 26.7179 13.4028 26.902C12.832 27.436 12.4085 28.0989 12.1138 28.8355C12.077 28.9459 12.1691 29.0564 12.2795 29.0932C12.4084 29.1301 12.5005 29.038 12.5373 28.9275Z" fill="white"/>
<path d="M13.8815 29.0017C14.305 28.3204 14.839 27.6944 15.4467 27.142C15.6492 26.9578 15.3362 26.6632 15.1336 26.8474C14.5076 27.4182 13.9552 28.0811 13.5133 28.7992C13.3659 29.0386 13.7342 29.2411 13.8815 29.0017Z" fill="white"/>
<path d="M15.907 28.4856C16.3367 27.9332 16.797 27.4176 17.288 26.9388C17.4906 26.7547 17.1776 26.4601 16.9934 26.6442C16.4901 27.123 16.0236 27.6324 15.594 28.1725C15.4283 28.3935 15.7413 28.6881 15.907 28.4856Z" fill="white"/>
<path d="M17.8035 28.5961C18.0061 28.2462 18.3191 27.9884 18.6137 27.7122C18.9452 27.4176 19.2766 27.1168 19.6081 26.8099C19.8106 26.6258 19.4976 26.3312 19.2951 26.5153C18.9513 26.8345 18.6076 27.1537 18.2639 27.4728C17.9509 27.749 17.6378 28.0252 17.4353 28.3751C17.3064 28.6145 17.6747 28.8354 17.8035 28.5961Z" fill="white"/>
<path d="M19.7186 28.5776C20.2096 27.9639 20.762 27.4115 21.3758 26.9204C21.5783 26.7363 21.2653 26.4417 21.0627 26.6074C20.4612 27.1107 19.9088 27.6631 19.4055 28.2646C19.2214 28.4856 19.5344 28.7802 19.7186 28.5776Z" fill="white"/>
<path d="M21.3205 28.5252C21.8729 27.9851 22.4191 27.4511 22.9593 26.9232C23.1618 26.7391 22.8488 26.4445 22.6462 26.6286C22.1061 27.1565 21.5599 27.6905 21.0075 28.2306C20.8049 28.4147 21.1179 28.7093 21.3205 28.5252Z" fill="white"/>
<path d="M23.254 28.6527C23.6713 28.0758 24.1255 27.5234 24.6165 26.9955C24.8191 26.793 24.5061 26.4983 24.3219 26.7009C23.7941 27.2533 23.3092 27.8364 22.8673 28.4502C22.812 28.5422 22.8673 28.6895 22.9593 28.7448C23.0698 28.8 23.1803 28.7448 23.254 28.6527Z" fill="white"/>
<path d="M25.39 28.6707C25.7214 28.0569 26.0958 27.4615 26.5132 26.8845C26.5869 26.7925 26.5316 26.6452 26.4396 26.6083C26.3291 26.5347 26.2002 26.5899 26.1449 26.682C25.7276 27.259 25.3532 27.8543 25.0217 28.4681C24.8744 28.7075 25.2611 28.91 25.39 28.6707Z" fill="white"/>
<path d="M26.9182 28.1569C27.7038 26.8434 28.4158 25.487 29.0541 24.0876C29.1646 23.8482 28.7964 23.6272 28.6859 23.885C28.0475 25.2844 27.3355 26.6409 26.5499 27.9544C26.421 28.1938 26.7893 28.3963 26.9182 28.1569Z" fill="white"/>
<path d="M29.5329 25.6886C29.8644 25.0748 30.1958 24.461 30.5272 23.8472C30.6561 23.5894 30.2879 23.3869 30.159 23.6263C29.8275 24.2401 29.4961 24.86 29.1647 25.486C29.0358 25.7254 29.404 25.9279 29.5329 25.6886Z" fill="white"/>
<path d="M30.8956 25.5941C31.3927 25.0601 31.7794 24.4525 32.0556 23.7712C32.1661 23.5134 31.7978 23.3108 31.6873 23.5686C31.4296 24.2131 31.0613 24.7839 30.5825 25.2995C30.3984 25.502 30.7114 25.7966 30.8956 25.5941Z" fill="white"/>
<path d="M5.68759 23.718C6.33206 24.252 6.92129 24.8412 7.41845 25.5041C7.58417 25.7251 7.95244 25.5041 7.78672 25.2832C7.27114 24.5835 6.66349 23.9574 5.9822 23.4234C5.77965 23.2393 5.48504 23.5523 5.68759 23.718Z" fill="white"/>
<path d="M7.58413 24.086C8.21018 24.5156 8.80556 24.976 9.37024 25.467C9.5912 25.6511 9.88581 25.3381 9.66485 25.1724C9.07562 24.6445 8.44957 24.1596 7.78669 23.7177C7.56573 23.5704 7.36317 23.9387 7.58413 24.086Z" fill="white"/>
<path d="M9.14924 26.2419C9.66481 26.782 10.1804 27.3221 10.696 27.8622C10.8801 28.0648 11.1747 27.7518 10.9906 27.5492C10.475 27.0091 9.95944 26.469 9.44387 25.9288C9.25974 25.7263 8.9651 26.0393 9.14924 26.2419Z" fill="white"/>
<path d="M11.4694 27.2723C12.1813 27.702 12.8258 28.2053 13.4028 28.7822C13.6053 28.9848 13.8999 28.6718 13.6974 28.4876C13.0897 27.88 12.4268 27.346 11.6903 26.9041C11.4509 26.7567 11.2484 27.1434 11.4694 27.2723Z" fill="white"/>
<path d="M14.1025 27.5094C14.747 27.7488 15.3178 28.1354 15.7966 28.651C15.9807 28.8536 16.2753 28.5405 16.0912 28.338C15.594 27.804 14.9864 27.3989 14.3235 27.1227C14.213 27.0859 14.0841 27.1043 14.0289 27.2148C13.9736 27.3068 14.0105 27.4541 14.1025 27.5094Z" fill="white"/>
<path d="M16.1648 27.4187C16.84 27.7869 17.4967 28.192 18.135 28.6339C18.3744 28.7812 18.577 28.413 18.3376 28.2657C17.7115 27.8238 17.0548 27.4187 16.3674 27.0504C16.128 26.9215 15.9254 27.2898 16.1648 27.4187Z" fill="white"/>
<path d="M18.135 27.1251C18.7979 27.5424 19.424 28.0089 20.0132 28.5245C20.2157 28.7086 20.5104 28.3956 20.3078 28.2115C19.694 27.6713 19.0373 27.1864 18.3376 26.7568C18.0982 26.6095 17.8957 26.9777 18.135 27.1251Z" fill="white"/>
<path d="M20.1973 27.1055C21.0443 27.6211 21.7808 28.284 22.3701 29.0757C22.5174 29.2967 22.8857 29.0758 22.7199 28.8548C22.0939 28.0078 21.3021 27.2712 20.3999 26.7373C20.1605 26.5899 19.9579 26.9582 20.1973 27.1055Z" fill="white"/>
<path d="M22.9778 27.4919C23.6223 27.7865 24.2115 28.21 24.7271 28.7256C24.9112 28.9097 25.2058 28.5967 25.0217 28.4126C24.4877 27.8786 23.8616 27.4367 23.1803 27.1236C22.941 26.9948 22.72 27.3814 22.9778 27.4919Z" fill="white"/>
<path d="M25.1505 27.4376C25.6538 27.7322 26.1265 28.0759 26.5684 28.4687C26.7709 28.6528 27.0655 28.3398 26.863 28.1557C26.3965 27.7383 25.8932 27.3762 25.3531 27.0693C25.1137 26.922 24.9112 27.2902 25.1505 27.4376Z" fill="white"/>
<path d="M26.4026 27.1778C27.0103 27.3988 27.5442 27.7671 28.0046 28.209C28.1887 28.4116 28.4833 28.0985 28.2992 27.896C27.7836 27.3988 27.176 27.0121 26.5131 26.7543C26.4026 26.7175 26.2737 26.8096 26.2553 26.9201C26.2185 27.0305 26.2921 27.141 26.4026 27.1778Z" fill="white"/>
<path d="M27.397 24.3249C27.9863 24.6195 28.4834 25.043 28.8517 25.577C28.999 25.798 29.3673 25.577 29.2015 25.3561C28.7964 24.7484 28.2625 24.2697 27.618 23.9566C27.3602 23.8277 27.1577 24.196 27.397 24.3249Z" fill="white"/>
<path d="M28.7044 24.1413C29.3857 24.6568 29.9933 25.2829 30.4904 25.9826C30.6562 26.2036 31.006 25.9826 30.8587 25.7432C30.3431 25.0251 29.7171 24.3622 28.999 23.8282C28.778 23.6625 28.4834 23.9756 28.7044 24.1413Z" fill="white"/>
<path d="M30.601 24.235C31.0183 24.5665 31.3989 24.9286 31.7426 25.3214C31.9267 25.5424 32.2213 25.2293 32.0372 25.0268C31.6935 24.6217 31.313 24.2534 30.8956 23.922C30.6746 23.7563 30.38 24.0693 30.601 24.235Z" fill="white"/>
<path d="M9.75686 10.406C11.0826 8.78557 12.7951 7.51505 14.7285 6.74169C14.9863 6.63121 14.8574 6.22612 14.618 6.31819C12.6109 7.12838 10.8248 8.43572 9.44384 10.1113C9.27812 10.3323 9.59114 10.6269 9.75686 10.406Z" fill="white"/>
<path d="M13.0162 9.42804C13.587 8.80199 14.3051 8.34165 15.1337 8.1391C15.4099 8.06545 15.281 7.64194 15.0048 7.7156C14.121 7.95497 13.3108 8.45214 12.7031 9.13343C12.519 9.33598 12.832 9.649 13.0162 9.42804Z" fill="white"/>
<path d="M16.1279 14.0684C16.4041 12.8531 17.2327 11.822 18.3559 11.288C18.6137 11.1591 18.3743 10.8092 18.135 10.9197C16.9197 11.5089 16.0174 12.6506 15.7228 13.9579C15.6676 14.2341 16.0727 14.3262 16.1279 14.0684Z" fill="white"/>
<path d="M20.4551 35.3185C20.7681 35.0423 21.0259 34.7293 21.2101 34.361C21.339 34.1216 20.9707 33.9007 20.8418 34.1585C20.6577 34.4899 20.4244 34.7784 20.1421 35.0239C19.9395 35.208 20.2526 35.5027 20.4551 35.3185Z" fill="white"/>
<path d="M21.9651 34.9111C22.1247 34.5183 22.3395 34.1623 22.6096 33.8432C22.7937 33.6406 22.4807 33.346 22.2965 33.5485C22.0019 33.8984 21.7625 34.2851 21.5968 34.7086C21.56 34.8191 21.5784 34.9295 21.6889 35.0032C21.7625 35.0584 21.9283 35.0216 21.9651 34.9111Z" fill="white"/>
<path d="M23.4012 34.6355C23.6836 34.2304 23.972 33.8315 24.2667 33.4387C24.414 33.2177 24.0457 33.0151 23.88 33.2361C23.5976 33.6289 23.3153 34.0218 23.0329 34.4146C22.8672 34.6355 23.2539 34.8565 23.4012 34.6355Z" fill="white"/>
<path d="M24.6717 34.5612C24.8559 34.1316 25.0645 33.7081 25.2978 33.2907C25.4267 33.0513 25.0584 32.8304 24.9111 33.0882C24.6901 33.4932 24.4815 33.9167 24.285 34.3587C24.1746 34.598 24.5428 34.819 24.6717 34.5612Z" fill="white"/>
<path d="M25.795 33.901C26.1265 33.41 26.4272 32.9006 26.6973 32.3727C26.8262 32.1334 26.4395 31.9124 26.329 32.1702C26.059 32.698 25.7582 33.2075 25.4268 33.6985C25.2611 33.9194 25.6293 34.122 25.795 33.901Z" fill="white"/>
<path d="M26.9735 33.4416C27.3418 32.8156 27.71 32.1956 28.0783 31.5819C28.2256 31.3425 27.8389 31.1215 27.71 31.3609C27.3418 31.987 26.9735 32.613 26.6052 33.2391C26.4579 33.4784 26.8446 33.681 26.9735 33.4416Z" fill="white"/>
<path d="M28.152 32.8339C28.5571 32.171 28.9008 31.4713 29.1831 30.7348C29.2199 30.6243 29.1279 30.5138 29.0174 30.477C28.9069 30.4402 28.7964 30.5322 28.7596 30.6427C28.5018 31.324 28.1704 32.0053 27.7837 32.6314C27.6364 32.8708 28.0231 33.0733 28.152 32.8339Z" fill="white"/>
<path d="M29.9749 31.0828C30.1713 30.4936 30.3247 29.8921 30.4352 29.2783C30.4904 29.0021 30.0669 28.8916 30.0117 29.1678C29.9135 29.7816 29.76 30.3831 29.5513 30.9723C29.4593 31.2301 29.8828 31.3406 29.9749 31.0828Z" fill="white"/>
<path d="M31.1901 29.8668C31.4663 29.0935 31.3558 28.2649 31.632 27.4915C31.7241 27.2337 31.3006 27.1417 31.2085 27.3994C30.9323 28.1544 31.0612 29.0014 30.785 29.7563C30.6929 30.0141 31.098 30.1246 31.1901 29.8668Z" fill="white"/>
<path d="M32.6264 27.8982C32.8289 27.2537 32.6816 26.554 32.8842 25.9096C32.9578 25.6518 32.5528 25.5413 32.4607 25.7991C32.2766 26.4619 32.4054 27.1432 32.2213 27.7877C32.1477 28.0639 32.5527 28.156 32.6264 27.8982Z" fill="white"/>
<path d="M33.6391 25.7794C33.7742 24.8096 33.854 23.8398 33.8785 22.87C33.8969 22.5938 33.4734 22.6123 33.455 22.8885C33.4305 23.8214 33.3568 24.7482 33.2341 25.6689C33.1972 25.9451 33.6023 26.0371 33.6391 25.7794Z" fill="white"/>
</svg>
