<svg width="44" height="43" viewBox="0 0 44 43" fill="none" xmlns="http://www.w3.org/2000/svg">
<path d="M40.7074 42.0169H3.29211C2.02007 42.0169 0.972602 40.9812 0.972602 39.7237C0.972602 38.4661 2.02007 37.4305 3.29211 37.4305H5.61213V38.836C5.61213 39.0579 5.83635 39.2798 6.06115 39.2798H11.2246C11.4488 39.2798 11.6733 39.0579 11.6733 38.836V37.4305H16.8367V38.836C16.8367 39.0579 17.0609 39.2798 17.2857 39.2798H26.6399C26.8641 39.2798 27.0882 39.0579 27.0882 38.836V37.4305H32.2516V38.836C32.2516 39.0579 32.4764 39.2798 32.7006 39.2798H37.8639C38.0888 39.2798 38.3129 39.0579 38.3129 38.836V37.4305H40.7074C41.9798 37.4305 43.0273 38.4661 43.0273 39.7237C43.0273 40.9812 41.9798 42.0169 40.7074 42.0169ZM6.58474 37.4305H10.7755V38.3922H6.58474V37.4305ZM2.84302 33.5839V12.5755C2.84302 10.9481 4.19014 9.69052 5.76149 9.69052C6.8841 9.69052 37.3402 9.69052 38.2382 9.69052C39.8841 9.69052 41.1565 11.022 41.1565 12.5755V33.5839C41.1565 35.2113 39.8094 36.4689 38.2382 36.4689C36.667 36.4689 28.3606 36.4689 26.6392 36.4689C26.4151 36.4689 26.1902 36.6908 26.1902 36.9127V38.3182H17.8094V36.9127C17.8094 36.6908 17.5851 36.4689 17.3603 36.4689C15.5647 36.4689 10.6255 36.4689 5.76149 36.4689C4.11528 36.4689 2.84302 35.2113 2.84302 33.5839ZM22.0001 7.84119V4.58636C22.0001 4.06855 22.3743 3.69868 22.8979 3.69868H24.5443L24.0202 4.29047C23.7212 4.58636 23.9454 5.0302 24.3941 5.0302C24.5443 5.0302 24.619 4.95623 24.7684 4.88225L25.8913 3.62471H30.4555L31.1294 4.36444C31.2788 4.58636 31.5784 4.58636 31.8025 4.43841C32.0274 4.29047 32.0274 3.99457 31.878 3.77265L31.7278 3.62471H32.9255C33.4492 3.62471 33.8235 3.99457 33.8235 4.51239V7.76721C33.8235 8.28503 33.4492 8.65489 32.9255 8.65489H22.8979C22.3743 8.72887 22.0001 8.359 22.0001 7.84119ZM28.061 1.10961L29.4827 2.73703H26.6399L28.061 1.10961ZM33.2243 37.4305H37.4149V38.3922H33.2243V37.4305ZM40.7822 36.4689C41.6055 35.8031 42.1292 34.6935 42.1292 33.5839V12.5755C42.1292 10.5042 40.4079 8.72887 38.2382 8.72887H34.3472C34.4966 8.43297 34.5714 8.13708 34.5714 7.84119V4.58636C34.5714 3.55073 33.748 2.73703 32.7006 2.73703H30.6804L28.3606 0.147961C28.2859 0.0739861 28.1364 1.14441e-05 27.9863 1.14441e-05C27.9863 1.14441e-05 27.7621 1.14441e-05 27.6127 0.147961L25.2921 2.73703H22.8234C21.7753 2.73703 20.9524 3.55073 20.9524 4.58636V7.84119C20.9524 8.13708 21.0272 8.50695 21.1769 8.72887H5.76149C3.66627 8.72887 1.87042 10.4303 1.87042 12.5755V33.5839C1.87042 34.7675 2.3943 35.8031 3.21755 36.4689C1.42133 36.4689 0 37.9483 0 39.7237C0 41.499 1.49619 42.9785 3.29211 42.9785H40.7074C42.5035 42.9785 44 41.499 44 39.7237C44 37.9483 42.5782 36.5428 40.7822 36.4689Z" fill="white"/>
<path d="M8.45639 12.8715V14.277H6.13696V12.8715H8.45639ZM11.7491 14.277H9.42966V12.8715H11.7491V14.277ZM14.9666 14.277H12.6472V12.8715H14.9666V14.277ZM18.2593 14.277H15.9395V12.8715H18.2593V14.277ZM21.552 14.277H19.2319V12.8715H21.552V14.277ZM24.8441 14.277H22.5246V12.8715H24.8441V14.277ZM28.0619 14.277H25.7421V12.8715H28.0619V14.277ZM31.3545 14.277H29.0347V12.8715H31.3545V14.277ZM34.647 14.277H32.328V12.8715H34.647V14.277ZM37.9396 14.277H35.6198V12.8715H37.9396V14.277ZM6.13696 33.2141V31.8086H37.9396V33.2141H6.13696ZM11.7491 30.921H6.0621V26.2606H8.90549C9.05543 28.2579 10.1775 29.9593 11.7491 30.921ZM8.90549 18.5674C9.72873 19.603 11.3001 19.603 12.1981 18.5674C13.0211 19.603 14.5925 19.603 15.4908 18.5674C16.3141 19.603 17.8851 19.603 18.7832 18.5674C19.6062 19.603 21.1778 19.603 22.0759 18.5674C22.8989 19.603 24.4698 19.603 25.3685 18.5674C26.1911 19.603 27.7631 19.603 28.6611 18.5674C29.4837 19.603 31.0556 19.603 31.9536 18.5674C32.7762 19.603 34.3482 19.603 35.2455 18.5674C35.9194 19.3811 37.117 19.603 38.0897 19.0112V30.921H18.1845C19.7561 29.9593 20.8784 28.2579 21.0279 26.2606H30.8307C31.0556 26.2606 31.2798 26.0387 31.2798 25.8168C31.2798 25.5949 31.0556 25.373 30.8307 25.373H20.5788C20.3546 25.373 20.1301 25.5949 20.1301 25.8168C20.1301 28.6278 17.8103 30.921 14.9666 30.921C12.1233 30.921 9.80352 28.6278 9.80352 25.8168C9.80352 25.5949 9.57901 25.373 9.3545 25.373H6.0621V19.0112C7.03478 19.603 8.23218 19.4551 8.90549 18.5674ZM9.3545 15.2386H11.6742V17.3099C11.6742 17.9756 11.1507 18.4934 10.4771 18.4934C9.80352 18.4934 9.27964 17.9756 9.27964 17.3099V15.2386H9.3545ZM12.6472 15.2386H14.9666V17.3099C14.9666 17.9756 14.4428 18.4934 13.7695 18.4934C13.0959 18.4934 12.5723 17.9756 12.5723 17.3099V15.2386H12.6472ZM15.9395 15.2386H18.2593V17.3099C18.2593 17.9756 17.7358 18.4934 17.0619 18.4934C16.3886 18.4934 15.8647 17.9756 15.8647 17.3099V15.2386H15.9395ZM19.2319 15.2386H21.552V17.3099C21.552 17.9756 21.0279 18.4934 20.3546 18.4934C19.681 18.4934 19.1574 17.9756 19.1574 17.3099V15.2386H19.2319ZM22.4498 15.2386H24.7694V17.3099C24.7694 17.9756 24.2456 18.4934 23.5721 18.4934C22.8989 18.4934 22.3752 17.9756 22.3752 17.3099V15.2386H22.4498ZM25.7421 15.2386H28.0619V17.3099C28.0619 17.9756 27.5382 18.4934 26.865 18.4934C26.1911 18.4934 25.7421 17.9016 25.7421 17.3099V15.2386ZM29.0347 15.2386H31.3545V17.3099C31.3545 17.9756 30.8307 18.4934 30.1576 18.4934C29.4837 18.4934 28.96 17.9756 28.96 17.3099V15.2386H29.0347ZM32.328 15.2386H34.647V17.3099C34.647 17.9756 34.1233 18.4934 33.4501 18.4934C32.7762 18.4934 32.2525 17.9756 32.2525 17.3099V15.2386H32.328ZM35.5451 15.2386H37.8649V17.3099C37.8649 17.9756 37.3411 18.4934 36.668 18.4934C35.9941 18.4934 35.4703 17.9756 35.4703 17.3099V15.2386H35.5451ZM6.13696 15.2386H8.45639V17.3099C8.45639 17.9756 7.93251 18.4934 7.25958 18.4934C6.58568 18.4934 6.0621 17.9756 6.0621 17.3099V15.2386H6.13696ZM5.61308 34.1758H38.3886C38.6135 34.1758 38.8376 33.9539 38.8376 33.7319C38.8376 33.2141 38.8376 12.7235 38.8376 12.4276C38.8376 12.2057 38.6135 11.9838 38.3886 11.9838C32.7762 11.9838 9.72874 11.9838 5.61308 11.9838C5.38857 11.9838 5.16406 12.2057 5.16406 12.4276C5.16406 12.6495 5.16406 33.2141 5.16406 33.7319C5.16406 33.9539 5.38857 34.1758 5.61308 34.1758Z" fill="white"/>
<path d="M14.9655 22.6359C16.7617 22.6359 18.2582 24.1153 18.2582 25.8907C18.2582 27.6661 16.7617 29.1455 14.9655 29.1455C13.1697 29.1455 11.6731 27.6661 11.6731 25.8907C11.6731 24.1153 13.1697 22.6359 14.9655 22.6359ZM14.9655 30.0332C17.2856 30.0332 19.1563 28.1839 19.1563 25.8907C19.1563 23.5975 17.2856 21.7482 14.9655 21.7482C12.6461 21.7482 10.7754 23.5235 10.7754 25.8167C10.7754 28.1099 12.6461 30.0332 14.9655 30.0332Z" fill="white"/>
<path d="M14.6662 25.2252C14.5911 25.2252 14.5162 25.1512 14.5162 25.0772C14.5162 24.9293 14.6662 24.7813 14.8904 24.7813V25.4471C14.8159 25.3731 14.741 25.2991 14.6662 25.2252ZM15.1897 26.3348C15.3395 26.4087 15.4145 26.4087 15.4894 26.4827C15.5643 26.5567 15.5643 26.6306 15.5643 26.7046C15.5643 26.8526 15.4145 27.0005 15.1897 27.0005V26.3348ZM13.8429 26.5567L13.4688 27.2964C13.8429 27.5923 14.3668 27.7402 14.8159 27.7402V28.332H15.2646V27.7402C15.7885 27.7402 16.2372 27.5183 16.4621 27.1485C16.6117 26.8526 16.6117 26.4827 16.4621 26.1868C16.3872 25.9649 16.1627 25.8169 15.8633 25.669C15.5643 25.521 15.2646 25.4471 15.1897 25.4471V24.7073C15.5643 24.7813 16.013 25.0032 16.013 25.0772L16.3872 24.3375C16.2372 24.2635 16.0878 24.1895 15.8633 24.1156C15.6388 24.0416 15.4145 23.9676 15.1897 23.9676V23.4498H14.8159V23.9676C14.292 24.0416 13.9178 24.2635 13.6933 24.7073C13.5435 25.0032 13.5435 25.3731 13.6933 25.595C13.7681 25.8169 13.9926 25.9649 14.2171 26.1128C14.5162 26.2608 14.8159 26.3348 14.8904 26.3348V27.0005C14.4413 26.9265 13.9178 26.6306 13.8429 26.5567Z" fill="white"/>
<path d="M33.2239 23.9678H28.5096C28.2854 23.9678 28.0605 24.1897 28.0605 24.4116C28.0605 24.6335 28.2854 24.8555 28.5096 24.8555H33.2239C33.4488 24.8555 33.6729 24.6335 33.6729 24.4116C33.6729 24.1897 33.4488 23.9678 33.2239 23.9678Z" fill="white"/>
<path d="M25.742 23.5234H35.5449C35.7698 23.5234 35.9939 23.3015 35.9939 23.0796C35.9939 22.8577 35.7698 22.6358 35.5449 22.6358H25.742C25.5178 22.6358 25.293 22.8577 25.293 23.0796C25.293 23.3015 25.5178 23.5234 25.742 23.5234Z" fill="white"/>
<path d="M28.5841 22.1182H35.6182C35.8431 22.1182 36.0672 21.8962 36.0672 21.6743C36.0672 21.4524 35.8431 21.2305 35.6182 21.2305H28.5841C28.3599 21.2305 28.1358 21.4524 28.1358 21.6743C28.0603 21.9702 28.2852 22.1182 28.5841 22.1182Z" fill="white"/>
<path d="M6.13643 1.33161C6.88453 1.33161 7.55813 1.92339 7.55813 2.7371C7.55813 3.47683 6.95939 4.14259 6.13643 4.14259C5.31319 4.14259 4.71444 3.55081 4.71444 2.7371C4.71444 1.99737 5.31319 1.33161 6.13643 1.33161ZM6.13643 5.03027C7.40841 5.03027 8.45587 3.99465 8.45587 2.7371C8.45587 1.47955 7.40841 0.443927 6.13643 0.443927C4.86417 0.443927 3.81641 1.47955 3.81641 2.7371C3.81641 3.99465 4.78931 5.03027 6.13643 5.03027Z" fill="white"/>
<path d="M40.2575 4.14287C40.7812 4.14287 41.2303 4.58671 41.2303 5.10452C41.2303 5.62234 40.7812 6.06618 40.2575 6.06618C39.7338 6.06618 39.2848 5.62234 39.2848 5.10452C39.2848 4.51274 39.7338 4.14287 40.2575 4.14287ZM40.2575 6.87988C41.3057 6.87988 42.1283 6.06618 42.1283 5.03055C42.1283 3.99492 41.3057 3.18122 40.2575 3.18122C39.21 3.18122 38.3867 3.99492 38.3867 5.03055C38.3867 6.06618 39.21 6.87988 40.2575 6.87988Z" fill="white"/>
<path d="M35.7696 0.443871C36.141 0.443871 36.4428 0.741983 36.4428 1.10963C36.4428 1.47728 36.141 1.77539 35.7696 1.77539C35.3975 1.77539 35.0957 1.47728 35.0957 1.10963C35.0957 0.741983 35.3975 0.443871 35.7696 0.443871Z" fill="white"/>
<path d="M24.3197 22.6358C24.5682 22.6358 24.7687 22.8347 24.7687 23.0796C24.7687 23.3244 24.5682 23.5234 24.3197 23.5234C24.0722 23.5234 23.8711 23.3244 23.8711 23.0796C23.8711 22.8347 24.0722 22.6358 24.3197 22.6358Z" fill="white"/>
<path d="M19.9044 0.88723C20.2762 0.88723 20.5773 1.18534 20.5773 1.55299C20.5773 1.92064 20.2762 2.21875 19.9044 2.21875C19.5321 2.21875 19.2305 1.92064 19.2305 1.55299C19.2305 1.18534 19.5321 0.88723 19.9044 0.88723Z" fill="white"/>
<path d="M13.8434 4.58645C14.2157 4.58645 14.5168 4.88456 14.5168 5.25221C14.5168 5.61986 14.2157 5.91797 13.8434 5.91797C13.4716 5.91797 13.1699 5.61986 13.1699 5.25221C13.1699 4.88456 13.4716 4.58645 13.8434 4.58645Z" fill="white"/>
<path d="M2.09578 5.99172C2.46734 5.99172 2.769 6.28983 2.769 6.65748C2.769 7.02513 2.46734 7.32324 2.09578 7.32324C1.72362 7.32324 1.42188 7.02513 1.42188 6.65748C1.42188 6.28983 1.72362 5.99172 2.09578 5.99172Z" fill="white"/>
</svg>
