<svg width="250" height="250" viewBox="0 0 250 250" fill="none" xmlns="http://www.w3.org/2000/svg">
<circle cx="125" cy="125" r="124" stroke="url(#paint0_linear_2407_36906)" stroke-width="2"/>
<mask id="mask0_2407_36906" style="mask-type:alpha" maskUnits="userSpaceOnUse" x="25" y="25" width="200" height="200">
<rect x="25" y="25" width="200" height="200" rx="100" fill="#D9D9D9"/>
</mask>
<g mask="url(#mask0_2407_36906)">
<rect x="25" y="25" width="200" height="200" rx="100" fill="#F8F7FF"/>
<path d="M194.205 126.273C192.685 215.248 60.3384 215.234 58.832 126.27C60.3516 37.2972 192.698 37.3111 194.205 126.273Z" fill="#FFD6E4"/>
<path d="M57.9518 178.417H48.7857C48.4705 178.417 48.2148 178.162 48.2148 177.846C48.2148 177.531 48.4705 177.275 48.7857 177.275H57.9518C58.6899 177.265 58.6945 178.428 57.9518 178.417Z" fill="#2E0F07"/>
<path d="M114.991 178.417H105.825C105.51 178.417 105.254 178.162 105.254 177.846C105.254 177.531 105.509 177.275 105.825 177.275H114.991C115.729 177.265 115.733 178.428 114.991 178.417Z" fill="#2E0F07"/>
<path d="M100.607 178.417H63.9439C63.6287 178.417 63.373 178.162 63.373 177.846C63.373 177.531 63.6287 177.275 63.9439 177.275H100.607C101.337 177.265 101.356 178.428 100.607 178.417Z" fill="#2E0F07"/>
<path d="M197.548 178.416C196.946 177.852 108.387 179.5 108.49 177.847C108.349 176.185 196.987 177.842 197.549 177.273C198.262 177.264 198.306 178.427 197.548 178.416Z" fill="#2E0F07"/>
<path d="M177.155 177.452H75.1367C67.5325 177.108 66.1881 170.728 66.726 164.359H185.565C186.124 170.68 184.716 177.151 177.155 177.452Z" fill="#CBDBEC"/>
<path d="M177.152 173.717H75.1345C70.4894 173.717 66.7236 169.951 66.7236 165.306C66.087 171.324 68.2338 177.256 75.1348 177.452H177.152C184.043 177.236 186.205 171.367 185.563 165.306C185.563 169.951 181.798 173.717 177.152 173.717Z" fill="#A0BDDD"/>
<path d="M177.154 178.381H75.1357C67.1317 178.096 65.1134 171.24 65.7978 164.361C65.5825 161.678 184.646 164.346 185.566 163.431C186.076 163.433 186.492 163.849 186.492 164.361C187.144 171.245 185.218 178.072 177.154 178.381ZM67.6524 165.289C67.1314 170.809 68.6689 176.276 75.1359 176.526H177.154C183.557 176.304 185.19 170.8 184.637 165.289H67.6524Z" fill="#2E0F07"/>
<path d="M167.912 164.458C59.8481 159.894 74.8906 187.679 74.2211 101.023C74.2201 95.4111 78.7685 90.8626 84.3793 90.8626C192.444 95.4264 177.401 67.6412 178.071 154.298C178.072 159.909 173.523 164.458 167.912 164.458Z" fill="#CBDBEC"/>
<path d="M174.905 93.6562C175.243 94.5636 175.428 95.5448 175.428 96.5697V153.465C175.428 158.076 171.69 161.815 167.079 161.815H79.9271C78.9024 161.815 77.9208 161.629 77.0137 161.291C78.8644 163.239 81.4774 164.455 84.3758 164.455H167.909C173.52 164.455 178.068 159.906 178.068 154.296V101.019C178.068 98.1201 176.852 95.507 174.905 93.6562Z" fill="#A0BDDD"/>
<path d="M167.912 165.385C60.4175 160.77 73.5744 188.864 73.2934 101.023C73.2925 94.9082 78.2657 89.9346 84.379 89.9346C191.874 94.5497 178.717 66.4558 178.998 154.297C178.999 160.412 174.025 165.385 167.912 165.385ZM84.379 91.7899C79.2889 91.7899 75.1475 95.9312 75.1475 101.022C76.2606 186.366 59.1279 159.065 167.913 163.531C173.002 163.53 177.143 159.389 177.143 154.298C176.031 68.9539 193.163 96.255 84.379 91.7899Z" fill="#2E0F07"/>
<path d="M167.833 157.87H84.801C82.3122 157.87 80.2949 155.852 80.2949 153.364V101.408C80.2949 98.9187 82.3124 96.9014 84.801 96.9014H167.833C170.322 96.9014 172.339 98.919 172.339 101.408V153.364C172.339 155.852 170.321 157.87 167.833 157.87Z" fill="#F3956E"/>
<path d="M83.902 102.774C83.902 101.306 85.0923 100.116 86.5605 100.116H172.15C171.595 98.2558 169.873 96.8994 167.833 96.8994H84.801C82.3122 96.8994 80.2949 98.917 80.2949 101.406V153.362C80.2949 155.543 81.8441 157.362 83.902 157.778V102.774Z" fill="#F17D4C"/>
<path d="M167.833 158.796H84.8009C81.8048 158.796 79.3672 156.358 79.3672 153.362V101.406C79.3672 98.4091 81.8048 95.9717 84.8009 95.9717H167.833C170.829 95.9717 173.266 98.4094 173.266 101.406V153.362C173.266 156.358 170.829 158.796 167.833 158.796ZM84.8007 97.8268C82.8276 97.8268 81.2223 99.4321 81.2223 101.406V153.362C81.2223 155.335 82.8276 156.94 84.8007 156.94H167.832C169.805 156.94 171.411 155.335 171.411 153.362V101.406C171.411 99.4321 169.805 97.8268 167.832 97.8268H84.8007Z" fill="#2E0F07"/>
<path d="M144.138 168.978H108.149C105.561 168.944 104.944 166.511 105.182 164.359H147.105C147.34 166.512 146.729 168.943 144.138 168.978Z" fill="#8BAFD6"/>
<path d="M144.14 169.906H108.151C105.085 169.876 103.916 167.058 104.256 164.36C104.256 163.847 104.671 163.432 105.184 163.432H147.107C148.378 163.404 147.978 165.24 148.035 166.011C148.035 168.159 146.288 169.906 144.14 169.906ZM106.111 165.287C105.925 166.625 106.657 168.067 108.151 168.051H144.14C145.622 168.067 146.377 166.624 146.18 165.287H106.111Z" fill="#2E0F07"/>
<path d="M135.401 133.38H116.886C115.082 133.38 113.619 131.918 113.619 130.113C113.619 128.309 115.082 126.846 116.886 126.846H135.401C139.668 126.864 139.677 133.362 135.401 133.38Z" fill="#B1C9E3"/>
<path d="M137.545 127.649C137.915 129.622 136.34 131.511 134.329 131.49C132.966 131.191 114.166 132.281 113.67 130.686C113.941 132.217 115.277 133.38 116.886 133.38H135.4C138.353 133.486 139.803 129.472 137.545 127.649Z" fill="#96B6DA"/>
<path d="M135.398 134.306H116.884C111.377 134.209 111.367 126.015 116.884 125.916H135.398C137.711 125.916 139.593 127.798 139.593 130.111C139.593 132.424 137.711 134.306 135.398 134.306ZM116.884 127.771C113.855 127.729 113.845 132.493 116.884 132.451H135.398C138.427 132.493 138.437 127.729 135.398 127.771H116.884Z" fill="#2E0F07"/>
<path d="M126.143 144.667C123.737 144.667 121.787 142.717 121.787 140.311C121.886 134.583 130.403 134.587 130.5 140.311C130.5 142.717 128.549 144.667 126.143 144.667Z" fill="#95B5D9"/>
<path d="M126.143 145.596C119.199 145.472 119.2 135.152 126.143 135.028C133.087 135.153 133.086 145.473 126.143 145.596ZM126.143 136.884C121.66 136.907 121.661 143.718 126.143 143.741C130.626 143.717 130.626 136.907 126.143 136.884Z" fill="#2E0F07"/>
<path d="M135.401 140.311H116.886C115.082 140.311 113.619 138.848 113.619 137.044C113.619 135.239 115.082 133.776 116.886 133.776H135.401C139.668 133.795 139.677 140.292 135.401 140.311Z" fill="#B1C9E3"/>
<path d="M137.545 134.579C137.915 136.552 136.34 138.44 134.329 138.419C132.966 138.12 114.166 139.21 113.67 137.616C113.941 139.147 115.277 140.31 116.886 140.31H135.4C138.353 140.416 139.803 136.401 137.545 134.579Z" fill="#96B6DA"/>
<path d="M135.4 141.237H116.886C111.379 141.139 111.369 132.945 116.886 132.847H135.4C137.713 132.847 139.595 134.729 139.595 137.042C139.595 139.355 137.713 141.237 135.4 141.237ZM116.886 134.702C113.857 134.66 113.847 139.423 116.886 139.381H135.4C138.429 139.423 138.439 134.659 135.4 134.702H116.886Z" fill="#2E0F07"/>
<path d="M151.192 96.7499C151.192 82.9165 139.978 71.7023 126.145 71.7023C103.296 70.8829 92.3349 102.096 110.004 115.902C109.472 121.476 111.046 127 117.567 127.243H134.723C141.234 127.004 142.824 121.472 142.286 115.902C147.731 111.307 151.192 104.433 151.192 96.7499Z" fill="#F9F27F"/>
<path d="M144.7 79.9258C151.603 89.8383 149.158 105.368 139.808 112.682C140.341 118.257 138.765 123.779 132.245 124.023C128.754 123.578 113.203 125.3 110.553 122.511C111.674 125.284 114.39 127.241 117.565 127.241H134.72C141.235 127.001 142.82 121.469 142.283 115.9C152.885 107.705 154.163 89.5362 144.7 79.9258Z" fill="#F6EB3A"/>
<path d="M134.723 128.167C124.441 127.157 107.543 132.999 109.077 116.324C91.0602 101.546 102.753 70.0482 126.146 70.771C149.532 70.0489 161.234 101.549 143.213 116.324C143.878 122.263 141.387 128 134.723 128.167ZM126.145 72.6256C103.238 72.547 93.9564 101.555 110.933 115.898C110.519 120.935 111.506 126.029 117.567 126.311H134.722C140.777 126.023 141.773 120.948 141.357 115.898C158.328 101.565 149.052 72.5343 126.145 72.6256Z" fill="#2E0F07"/>
<path d="M141.144 100.122V94.2816H136.446C136.217 93.4734 135.894 92.7044 135.491 91.9856L138.816 88.6609L134.686 84.5314L131.362 87.8558C130.643 87.4532 129.874 87.1303 129.066 86.9009V82.2031H123.226V86.9009C122.418 87.1303 121.649 87.4532 120.93 87.8558L117.606 84.5314L113.476 88.6609L116.801 91.9856C116.398 92.7042 116.076 93.4734 115.846 94.2816H111.148V100.122H115.846C116.076 100.93 116.398 101.699 116.801 102.418L113.477 105.742L117.606 109.872L120.931 106.547C121.649 106.95 122.418 107.273 123.226 107.502V112.2H129.066V107.502C129.874 107.273 130.644 106.95 131.362 106.547L134.686 109.872L138.816 105.742L135.491 102.418C135.894 101.699 136.217 100.93 136.446 100.122H141.144ZM126.146 102.689C118.934 102.56 118.936 91.8425 126.146 91.7142C133.358 91.8434 133.356 102.561 126.146 102.689Z" fill="#EE682F"/>
<path d="M129.064 113.131C121.841 112.74 122.195 115.029 122.297 108.183C121.891 108.04 121.493 107.875 121.104 107.687C120.672 107.979 118.193 110.968 117.604 110.802C117.091 111.065 113.189 106.621 112.79 106.37C112.432 106.014 112.508 105.362 112.82 105.088C112.876 105.033 115.663 102.245 115.663 102.245C115.475 101.857 115.309 101.458 115.167 101.052C108.323 101.155 110.609 101.506 110.219 94.2846C110.219 93.7725 110.635 93.3572 111.147 93.3572H115.167C115.309 92.9514 115.475 92.5528 115.663 92.164C110.727 87.3902 112.153 89.2345 116.948 83.8786C117.294 83.5197 117.915 83.5192 118.26 83.8788L121.104 86.7225C121.493 86.5347 121.891 86.3691 122.297 86.2262C122.195 79.3822 121.843 81.6682 129.065 81.2789C129.577 81.2792 129.992 81.6945 129.992 82.2066V86.2262C130.398 86.3691 130.796 86.5349 131.185 86.7225C135.959 81.7869 134.115 83.2126 139.47 88.0082C139.829 88.3535 139.83 88.9748 139.47 89.3201L136.626 92.164C136.814 92.5528 136.98 92.9514 137.122 93.3572C143.967 93.2546 141.68 92.9029 142.07 100.125C142.07 100.637 141.654 101.052 141.142 101.052H137.122C136.98 101.458 136.814 101.857 136.626 102.245L139.47 105.089C139.829 105.435 139.829 106.056 139.47 106.401C134.107 111.205 135.959 112.618 131.185 107.687C130.796 107.875 130.398 108.04 129.992 108.183V112.203C129.992 112.715 129.577 113.131 129.064 113.131ZM124.152 111.275H128.137V107.505C128.137 107.09 128.412 106.726 128.811 106.613C129.887 106.536 131.017 105.098 132.016 105.894C132.016 105.894 134.685 108.563 134.685 108.563L137.502 105.746L134.834 103.077C134.037 102.079 135.476 100.947 135.552 99.8716C135.665 99.4727 136.03 99.1972 136.444 99.1972H140.215V95.2125H136.444C136.029 95.2125 135.665 94.9372 135.552 94.5381C135.476 93.4628 134.037 92.3313 134.833 91.3331C134.834 91.3331 137.502 88.6644 137.502 88.6644L134.685 85.8467L132.016 88.5155C131.018 89.3124 129.887 87.8729 128.811 87.7972C128.412 87.6836 128.137 87.3192 128.137 86.9046V83.1345H124.152V86.9046C124.152 87.3192 123.877 87.6836 123.478 87.7969C122.401 87.8734 121.271 89.3117 120.273 88.5157C120.273 88.5155 117.604 85.8467 117.604 85.8467L114.786 88.6644L117.455 91.3331C118.252 92.3313 116.812 93.4628 116.737 94.5381C116.623 94.9372 116.259 95.2125 115.844 95.2125H112.074V99.1972H115.844C116.259 99.1972 116.623 99.4725 116.737 99.8716C116.813 100.947 118.252 102.078 117.455 103.077C117.455 103.077 114.786 105.746 114.786 105.746L117.604 108.563L120.273 105.894C121.271 105.098 122.402 106.537 123.478 106.613C123.877 106.726 124.152 107.09 124.152 107.505L124.152 111.275ZM126.145 103.62C117.714 103.469 117.715 90.9395 126.145 90.7897C134.575 90.9407 134.574 103.47 126.145 103.62ZM126.145 92.6448C120.152 92.7523 120.153 101.658 126.145 101.765C132.137 101.657 132.136 92.7514 126.145 92.6448Z" fill="#2E0F07"/>
<path d="M107.762 83.6187C107.762 83.6187 109.752 77.7347 118.059 75.9173C118.953 75.7219 120.205 75.2518 121.118 75.4588C118.481 77.3509 114.852 78.0984 112.433 80.4498C111.062 81.6582 109.875 83.0526 108.613 84.3695C108.223 84.7763 107.46 85.9319 107.222 85.0021C107.113 84.5791 107.634 83.9987 107.762 83.6187Z" fill="#FFFEF7"/>
<path d="M185.793 124.018C185.559 137.709 165.195 137.706 164.963 124.017C165.197 110.327 185.561 110.329 185.793 124.018Z" fill="#78CDEF"/>
<path d="M189.832 140.547L192.797 137.582L183.984 128.769L181.019 131.734L189.832 140.547Z" fill="#D5E2F0"/>
<path d="M189.826 141.479C189.58 141.479 189.344 141.381 189.17 141.207L180.358 132.394C179.995 132.032 179.995 131.444 180.358 131.082L183.323 128.117C183.668 127.758 184.289 127.757 184.635 128.117L193.447 136.93C193.81 137.292 193.81 137.88 193.447 138.242C193.023 138.53 190.408 141.652 189.826 141.479ZM182.325 131.738L189.826 139.239L191.48 137.586L183.979 130.085L182.325 131.738Z" fill="#2E0F07"/>
<path d="M202.759 150.521C204.101 149.179 204.101 147.003 202.759 145.661L191.434 134.336L186.574 139.196L197.899 150.521C199.241 151.863 201.417 151.863 202.759 150.521Z" fill="#5BC2EC"/>
<path d="M188.139 137.633L199.134 148.629C200.372 149.866 202.317 149.961 203.665 148.917C203.52 149.506 203.218 150.063 202.758 150.523C201.416 151.865 199.241 151.865 197.899 150.523L186.574 139.198L188.139 137.633Z" fill="#1BAAE4"/>
<path d="M200.327 152.458C199.161 152.458 198.065 152.005 197.241 151.18L185.916 139.855C185.554 139.493 185.554 138.905 185.916 138.543C186.207 138.348 191.086 133.033 191.431 133.412C191.678 133.412 191.913 133.51 192.087 133.684L203.412 145.009C206.17 147.576 204.095 152.595 200.327 152.458ZM187.884 139.199L198.553 149.868C199.487 150.841 201.167 150.842 202.101 149.868C203.079 148.89 203.079 147.299 202.101 146.321L191.431 135.651L187.884 139.199Z" fill="#2E0F07"/>
<path d="M176.167 137.252C158.596 136.937 158.599 110.824 176.168 110.512C193.739 110.827 193.736 136.94 176.167 137.252ZM176.167 114.936C164.41 115.146 164.412 132.619 176.168 132.828C187.925 132.617 187.923 115.145 176.167 114.936Z" fill="#FAF38F"/>
<path d="M183.552 131.87C175.091 136.701 166.669 131.5 162.801 123.637C162.438 139.753 186.377 142.106 189.293 126.43C187.793 128.593 185.924 130.475 183.552 131.87Z" fill="#F6EB3A"/>
<path d="M183.552 114.604C185.396 115.684 186.985 116.991 188.386 118.458C185.357 110.81 174.38 107.943 167.984 113.318C172.697 111.161 178.932 111.925 183.552 114.604Z" fill="white"/>
<path d="M176.168 138.18C157.377 137.843 157.381 109.918 176.168 109.584C194.958 109.921 194.955 137.846 176.168 138.18ZM176.168 111.439C159.816 111.732 159.818 136.034 176.168 136.325C192.52 136.031 192.517 111.73 176.168 111.439ZM176.168 133.756C163.191 133.523 163.193 114.239 176.168 114.008C189.144 114.241 189.142 133.525 176.168 133.756ZM176.168 115.863C165.629 116.052 165.631 131.713 176.168 131.901C186.706 131.712 186.704 116.051 176.168 115.863Z" fill="#2E0F07"/>
<path d="M175.653 129.049C173.091 127.722 171.099 126.066 170.706 123.021C170.562 121.911 168.881 121.828 168.907 123.021C168.733 129.599 177.906 132.822 175.653 129.049Z" fill="#EAF7FD"/>
<path d="M177.48 118.445C179.31 119.393 180.733 120.576 181.015 122.751C181.117 123.544 182.319 123.604 182.3 122.751C182.464 118.138 175.886 115.704 177.48 118.445Z" fill="#EAF7FD"/>
<path d="M60.4065 177.65H44.2951L41.4883 146.357H63.2133L60.4065 177.65Z" fill="#F7EFEB"/>
<path d="M63.2133 146.357H41.4883L41.77 149.498C41.7719 149.519 50.5817 149.271 51.3877 149.276C57.215 149.097 60.1257 148.298 59.8294 155.369C60.2841 161.979 59.5828 169.238 55.6756 174.844C54.5269 176.462 52.2283 176.89 50.4579 177.65H60.4065L63.2133 146.357Z" fill="#E8CEC4"/>
<path d="M60.4076 178.578H44.2959C43.8156 178.578 43.4149 178.211 43.3721 177.733C43.6376 176.835 39.9516 146.506 40.804 145.733C40.9804 145.539 41.2286 145.43 41.4891 145.43H63.2142C63.7428 145.419 64.1975 145.913 64.138 146.44L61.3314 177.733C61.2886 178.211 60.8879 178.578 60.4076 178.578ZM45.1442 176.723H59.5595L62.1998 147.285H42.504L45.1442 176.723Z" fill="#2E0F07"/>
<path d="M61.4912 144.082H43.2084C43.1563 142.575 42.9792 140.182 45.1201 140.177H59.5796C61.7111 140.178 61.5505 142.578 61.4912 144.082Z" fill="#743933"/>
<path d="M61.4926 145.009H43.2098C42.6975 145.009 42.2822 144.594 42.2822 144.082C42.0974 141.941 42.3976 139.293 45.1215 139.249H59.5807C61.1464 139.249 62.42 140.523 62.42 142.088C62.2948 142.878 62.8776 145.046 61.4926 145.009ZM44.1374 143.154H60.565C60.587 142.391 60.6871 141.087 59.5809 141.104H45.1215C44.0263 141.086 44.103 142.393 44.1374 143.154Z" fill="#2E0F07"/>
<path d="M64.7422 147.355H39.957C39.957 145.073 41.8066 143.224 44.0879 143.224H60.6113C62.8929 143.224 64.7422 145.073 64.7422 147.355Z" fill="#743933"/>
<path d="M64.7426 148.282C64.2876 147.784 37.9989 149.43 39.0295 147.355C39.0298 144.565 41.2989 142.296 44.0881 142.296H60.6114C64.0345 141.841 67.4512 147.659 64.7426 148.282ZM41.022 146.427H63.6782C63.2794 145.111 62.0557 144.151 60.6117 144.151H44.0883C42.6445 144.151 41.4206 145.111 41.022 146.427Z" fill="#2E0F07"/>
<path d="M46.6786 161.824C47.0819 166.737 45.3423 166.877 44.9547 161.962C44.5516 157.049 46.291 156.909 46.6786 161.824Z" fill="#EFDDD6"/>
<path d="M97.8676 69.2885C94.0131 69.2885 91.8905 67.1658 91.8905 63.3113C91.9117 61.8646 89.6328 61.8574 89.654 63.3116C89.4187 71.3059 82.8434 67.7637 82.5586 70.4067C82.8563 73.0444 89.4356 69.532 89.6538 77.5025C89.6327 78.9489 91.9117 78.9561 91.8902 77.5022C91.8902 73.6477 94.0129 71.525 97.8673 71.525C99.3142 71.5463 99.3214 69.2673 97.8676 69.2885Z" fill="#EE682F"/>
<path d="M103.528 56.9456C101.376 56.9456 100.19 55.7601 100.19 53.6075C100.202 52.7995 98.9292 52.7955 98.9412 53.6075C98.8167 58.0513 95.2105 56.0801 94.9785 57.57C95.1945 59.0525 98.8243 57.0964 98.9412 61.533C98.9295 62.3407 100.202 62.3448 100.19 61.5328C100.19 59.3802 101.376 58.1947 103.528 58.1947C104.336 58.2066 104.34 56.9336 103.528 56.9456Z" fill="#F6EB3A"/>
<path d="M170.458 80.6543C164.719 80.3534 162.739 82.1837 167.275 76.0817C167.54 75.6989 168.102 75.6886 168.382 76.0614L171.005 79.5625C171.342 80.0124 171.02 80.6543 170.458 80.6543Z" fill="#AD75F5"/>
<path d="M176.348 74.7739C172.794 74.5897 171.443 75.7341 174.334 71.8819C174.502 71.6399 174.858 71.6334 175.035 71.869L176.694 74.0833C176.907 74.3679 176.704 74.7739 176.348 74.7739Z" fill="#87BF02"/>
<path d="M162.455 74.2185C158.268 73.9972 156.728 75.3515 160.101 70.8381C160.297 70.5552 160.713 70.5476 160.92 70.8231L162.859 73.4113C163.108 73.7439 162.871 74.2185 162.455 74.2185Z" fill="#FF5957"/>
<path d="M151.139 73.7621C148.786 73.6529 147.84 74.3781 149.785 71.8176C150.197 71.2102 151.126 73.1501 151.371 73.2975C151.514 73.4892 151.378 73.7621 151.139 73.7621Z" fill="#FF5957"/>
<path d="M160.51 82.2962C158.157 82.187 157.212 82.9123 159.156 80.3518C159.568 79.7443 160.497 81.6843 160.742 81.8317C160.885 82.0231 160.749 82.2962 160.51 82.2962Z" fill="#FF5957"/>
<path d="M168.693 66.1175C166.34 66.0083 165.395 66.7336 167.34 64.1731C167.752 63.5656 168.68 65.5056 168.926 65.653C169.069 65.8446 168.932 66.1175 168.693 66.1175Z" fill="#FF5957"/>
</g>
<defs>
<linearGradient id="paint0_linear_2407_36906" x1="125" y1="250" x2="125" y2="0" gradientUnits="userSpaceOnUse">
<stop stop-color="white" stop-opacity="0"/>
<stop offset="1" stop-color="#7143FF"/>
</linearGradient>
</defs>
</svg>
