<svg width="44" height="44" viewBox="0 0 44 44" fill="none" xmlns="http://www.w3.org/2000/svg">
<path d="M15.1172 34.4972C17.5185 34.4972 19.7692 35.0958 21.7944 36.0686C20.5196 40.4834 18.0435 43.4017 15.1928 43.4766H15.1172V34.4972Z" fill="#079CFF"/>
<path d="M8.43984 36.1389C9.71464 40.5537 12.1908 43.472 15.0415 43.5469C10.9145 43.5469 7.1643 41.8258 4.53906 39.0572L4.61322 38.9824C5.66331 37.8599 6.93886 36.8872 8.43984 36.1389Z" fill="#079CFF"/>
<path d="M15.1159 28.9616V34.4989C12.7161 34.4989 10.4654 35.0975 8.44007 36.0703C7.83938 33.9751 7.46484 31.5058 7.46484 28.8868L15.1159 28.9616Z" fill="#079CFF"/>
<path d="M22.7682 28.9607H29.7451C29.7451 32.8518 28.1692 36.4435 25.6937 39.0625C24.5688 37.8652 23.2183 36.8925 21.793 36.1442C22.3929 33.9742 22.7682 31.5797 22.7682 28.9607Z" fill="#079CFF"/>
<path d="M15.1914 14.3693C19.3176 14.3693 23.0686 16.0904 25.6938 18.859C24.5688 20.0563 23.2184 21.0291 21.793 21.7773C20.4426 17.4373 18.0421 14.4442 15.1914 14.3693Z" fill="#079CFF"/>
<path d="M22.7697 28.9648H15.1172V23.4276C17.5185 23.4276 19.7692 22.8289 21.7944 21.8562C22.3944 23.9514 22.7697 26.3459 22.7697 28.9648Z" fill="#079CFF"/>
<path d="M8.44036 21.7813C7.83967 23.8765 7.46514 26.3459 7.46514 28.9648H0.488281C0.488281 25.0738 2.06341 21.482 4.53959 18.863C5.58968 20.0603 6.93938 21.0331 8.44036 21.7813Z" fill="#079CFF"/>
<path d="M15.1133 14.3677V23.4219C12.7135 23.4219 10.4628 22.8232 8.4375 21.8505C9.7123 17.4356 12.1885 14.5173 15.0391 14.4425C15.0391 14.3677 15.0391 14.3677 15.1133 14.3677Z" fill="#079CFF"/>
<path d="M25.6938 39.0572C23.0686 41.8258 19.3176 43.5469 15.1914 43.5469C18.0421 43.472 20.4426 40.4789 21.793 36.1389C23.2184 36.8872 24.5688 37.8599 25.6938 39.0572Z" fill="#5CBEFF"/>
<path d="M15.1133 34.4927V43.5469H15.0391C12.1885 43.472 9.78794 40.4789 8.4375 36.1389C10.3871 35.0913 12.6386 34.4927 15.1133 34.4927Z" fill="#5CBEFF"/>
<path d="M15.1172 28.9571H22.7697C22.7697 31.5761 22.3944 33.9706 21.7944 36.1406C19.7692 35.093 17.5185 34.5692 15.1172 34.5692V28.9571Z" fill="#5CBEFF"/>
<path d="M7.39162 28.9607C7.39162 31.5797 7.76612 33.9742 8.36681 36.1442C6.94073 36.8925 5.59104 37.8652 4.46531 38.9877L4.39039 39.0625C1.91496 36.4435 0.339844 32.9266 0.339844 28.9607H7.39162Z" fill="#5CBEFF"/>
<path d="M35.5973 0.448915C40.0224 0.448915 43.5487 4.04067 43.5487 8.38071C43.5487 12.7956 39.9483 16.3125 35.5973 16.3125H28.0198L30.5701 14.5166C28.7702 13.0949 27.6445 10.85 27.6445 8.38071C27.6445 4.04067 31.2449 0.448915 35.5973 0.448915Z" fill="#2A428C"/>
<path d="M30.2959 7.60495C30.2508 7.83654 30.2282 7.95237 30.3004 8.04013C30.3726 8.12793 30.498 8.12793 30.7488 8.12793H32.523C32.7402 8.12793 32.8488 8.12793 32.9181 8.06366C32.9873 7.99938 32.9957 7.88781 33.0126 7.66471C33.0895 6.64951 33.2882 5.72851 33.578 5.00084C33.7599 4.54429 33.9993 4.08929 34.354 3.74231C34.5055 3.59409 34.5812 3.51999 34.5639 3.48798C34.5465 3.45597 34.4502 3.47757 34.2576 3.52077C32.2568 3.96945 30.6914 5.57678 30.2959 7.60495Z" fill="white"/>
<path d="M30.7488 9.09766C30.498 9.09766 30.3726 9.09766 30.3004 9.18546C30.2282 9.27322 30.2508 9.38905 30.2959 9.62066C30.6914 11.6488 32.2568 13.2561 34.2575 13.7047C34.4501 13.7479 34.5464 13.7695 34.5637 13.7375C34.5811 13.7055 34.5054 13.6314 34.3539 13.4833C33.9993 13.1363 33.7598 12.6813 33.578 12.2248C33.2881 11.4971 33.0895 10.5761 33.0126 9.56093C32.9957 9.33778 32.9873 9.22621 32.918 9.16193C32.8488 9.09766 32.7402 9.09766 32.523 9.09766H30.7488Z" fill="white"/>
<path d="M36.431 13.4838C36.2796 13.6319 36.2038 13.706 36.2212 13.738C36.2385 13.77 36.3348 13.7484 36.5273 13.7054C38.5294 13.2576 40.0962 11.6497 40.4918 9.62066C40.537 9.38905 40.5595 9.27322 40.4874 9.18546C40.4152 9.09766 40.2898 9.09766 40.039 9.09766H38.2626C38.0453 9.09766 37.9367 9.09766 37.8675 9.16193C37.7983 9.22621 37.7899 9.33778 37.7729 9.56093C37.6961 10.5761 37.4974 11.4971 37.2076 12.2248C37.0256 12.6815 36.786 13.1368 36.431 13.4838Z" fill="white"/>
<path d="M40.0391 8.12842C40.2899 8.12842 40.4153 8.12842 40.4875 8.04062C40.5597 7.95286 40.5371 7.83703 40.492 7.60544C40.0964 5.57629 38.5296 3.96838 36.5274 3.5206C36.3348 3.47753 36.2385 3.45599 36.2212 3.488C36.2039 3.52002 36.2796 3.59408 36.4311 3.74221C36.7861 4.08925 37.0258 4.54453 37.2077 5.00133C37.4976 5.729 37.6962 6.65 37.7731 7.6652C37.79 7.8883 37.7984 7.99987 37.8677 8.06415C37.9369 8.12842 38.0455 8.12842 38.2627 8.12842H40.0391Z" fill="white"/>
<g opacity="0.4">
<path d="M36.3218 5.4087C36.5607 5.99484 36.7385 6.76337 36.8156 7.637C36.8358 7.86527 36.8459 7.97942 36.7739 8.05695C36.702 8.13452 36.5824 8.13452 36.3433 8.13452H34.448C34.2089 8.13452 34.0894 8.13452 34.0174 8.05695C33.9455 7.97942 33.9555 7.86527 33.9757 7.637C34.0528 6.76337 34.2306 5.99484 34.4695 5.4087C34.6324 5.00933 34.8141 4.71822 34.9909 4.53478C35.1667 4.35235 35.3037 4.30859 35.3957 4.30859C35.4876 4.30859 35.6246 4.35235 35.8004 4.53478C35.9772 4.71822 36.1589 5.00933 36.3218 5.4087Z" fill="white"/>
<path d="M34.4695 11.8157C34.2306 11.2295 34.0528 10.461 33.9757 9.58736C33.9555 9.35909 33.9455 9.24494 34.0174 9.16741C34.0894 9.08984 34.2089 9.08984 34.448 9.08984H36.3433C36.5824 9.08984 36.702 9.08984 36.7739 9.16741C36.8459 9.24494 36.8358 9.35909 36.8156 9.58736C36.7385 10.461 36.5607 11.2295 36.3218 11.8157C36.1589 12.215 35.9772 12.5062 35.8004 12.6896C35.6246 12.872 35.4876 12.9158 35.3957 12.9158C35.3037 12.9158 35.1667 12.872 34.9909 12.6896C34.8141 12.5062 34.6324 12.215 34.4695 11.8157Z" fill="white"/>
</g>
<path d="M37.4757 29.4888C39.0501 29.4888 40.3271 30.7617 40.3271 32.3323C40.3271 33.9022 39.0501 35.1758 37.4757 35.1758C35.9013 35.1758 34.625 33.9022 34.625 32.3323C34.625 30.7617 35.9013 29.4888 37.4757 29.4888Z" fill="#70F2A4"/>
<path d="M29.7451 28.9648H22.7682C22.7682 26.3459 22.3929 23.9514 21.793 21.7813C23.2183 21.0331 24.5688 20.0603 25.6937 18.863C28.1692 21.482 29.7451 25.0738 29.7451 28.9648Z" fill="#5CBEFF"/>
<path d="M21.7944 21.7802C19.7692 22.8278 17.5185 23.3516 15.1172 23.3516V14.3722H15.1928C18.0435 14.447 20.444 17.4401 21.7944 21.7802Z" fill="#5CBEFF"/>
<path d="M15.1165 23.4276V28.9648H7.39062C7.39062 26.3459 7.76512 23.9514 8.36581 21.7813C10.3904 22.8289 12.6418 23.4276 15.1165 23.4276Z" fill="#5CBEFF"/>
<path d="M14.9673 14.3693C12.1173 14.4442 9.71604 17.4373 8.36635 21.7773C6.94027 21.0291 5.59058 20.0563 4.46484 18.859C7.16572 16.0904 10.8418 14.3693 14.9673 14.3693Z" fill="#5CBEFF"/>
<path d="M7.46468 2.84821C9.03833 2.84821 10.3154 4.12104 10.3154 5.69168C10.3154 7.26233 9.03833 8.53516 7.46468 8.53516C5.89028 8.53516 4.61328 7.26233 4.61328 5.69168C4.61328 4.12104 5.89028 2.84821 7.46468 2.84821Z" fill="#70F2A4"/>
<path d="M39.1248 21.1062C39.4971 21.1062 39.7997 21.4078 39.7997 21.7797C39.7997 22.1516 39.4971 22.4531 39.1248 22.4531C38.7518 22.4531 38.4492 22.1516 38.4492 21.7797C38.4492 21.4078 38.7518 21.1062 39.1248 21.1062Z" fill="#081120"/>
<path d="M32.0733 38.4695C32.4463 38.4695 32.7481 38.7711 32.7481 39.143C32.7481 39.5141 32.4463 39.8164 32.0733 39.8164C31.7003 39.8164 31.3984 39.5141 31.3984 39.143C31.3984 38.7711 31.7003 38.4695 32.0733 38.4695Z" fill="#081120"/>
<path d="M22.2452 9.87965C22.6182 9.87965 22.92 10.1812 22.92 10.5531C22.92 10.925 22.6182 11.2266 22.2452 11.2266C21.8721 11.2266 21.5703 10.925 21.5703 10.5531C21.5703 10.1812 21.8721 9.87965 22.2452 9.87965Z" fill="#081120"/>
<path d="M16.1678 2.39919C16.5401 2.39919 16.8434 2.70074 16.8434 3.07264C16.8434 3.44454 16.5401 3.74609 16.1678 3.74609C15.7955 3.74609 15.4922 3.44454 15.4922 3.07264C15.4922 2.70074 15.7955 2.39919 16.1678 2.39919Z" fill="#081120"/>
<path d="M1.61312 14.5945C1.98614 14.5945 2.2887 14.8961 2.2887 15.268C2.2887 15.6398 1.98614 15.9414 1.61312 15.9414C1.24084 15.9414 0.9375 15.6398 0.9375 15.268C0.9375 14.8961 1.24084 14.5945 1.61312 14.5945Z" fill="#081120"/>
<path d="M23.2189 28.5107C23.2189 26.2659 22.8436 24.0211 22.3186 22.0756C23.5193 21.4021 24.6443 20.579 25.6944 19.6062C27.9452 22.0756 29.1452 25.2183 29.2957 28.5107H23.2189ZM22.0182 36.8166C23.0691 37.4152 24.1192 38.1635 25.0195 39.0614C23.144 40.8572 20.9681 42.1293 18.4926 42.7279C20.2176 41.2314 21.3434 38.9117 22.0182 36.8166ZM8.13961 36.8166C8.81448 38.9117 10.0152 41.2314 11.7409 42.7279C9.26538 42.1293 7.0146 40.8572 5.21395 39.0614C6.03863 38.1635 7.01457 37.4152 8.13961 36.8166ZM8.13961 21.1028C7.08948 20.5042 6.03863 19.7559 5.1383 18.858C7.01459 17.0621 9.26538 15.79 11.6653 15.1914C9.94025 16.688 8.81448 19.0076 8.13961 21.1028ZM22.0182 21.1028C21.3434 19.0076 20.1434 16.688 18.4177 15.1914C20.894 15.79 23.144 17.0621 24.9439 18.858C24.1192 19.7559 23.144 20.5042 22.0182 21.1028ZM15.5669 28.5107V23.8714C17.6672 23.7966 19.6184 23.3476 21.4932 22.4497C22.0182 24.3204 22.2437 26.3407 22.3186 28.5107H15.5669ZM21.4932 35.4697C19.6184 34.5717 17.6672 34.1228 15.5669 34.0479V29.4086H22.3186C22.2437 31.5038 21.9441 33.599 21.4932 35.4697ZM15.5669 43.0272V35.0207C17.5173 35.0955 19.4678 35.5445 21.1935 36.3676C19.9936 40.2586 17.8177 42.7279 15.5669 43.0272ZM14.5909 35.0207V43.1021C12.266 42.8028 10.1657 40.3335 8.96502 36.4424C10.7649 35.5445 12.6412 35.0207 14.5909 35.0207ZM14.5909 29.4086V34.0479C12.4907 34.1228 10.541 34.5717 8.66468 35.4697C8.13961 33.599 7.91491 31.5786 7.83927 29.4086H14.5909ZM8.7396 22.4497C10.6151 23.3476 12.5656 23.7966 14.6666 23.8714V28.5107H7.91491C7.91491 26.4155 8.21453 24.3204 8.7396 22.4497ZM14.5909 14.8921V22.9735C12.6412 22.8987 10.6908 22.4497 8.96502 21.6266C10.2399 17.6607 12.3409 15.1914 14.5909 14.8921ZM15.5669 14.8921C17.8926 15.1914 19.9936 17.6607 21.1935 21.5518C19.3929 22.3749 17.5173 22.8238 15.5669 22.8987V14.8921ZM4.53907 19.5314C5.51356 20.5042 6.63933 21.3273 7.91491 22.0007C7.38985 24.0211 7.08948 26.1911 7.01458 28.4359H1.01266C1.01266 25.1435 2.28826 22.0007 4.53907 19.5314ZM0.937014 29.4086H6.93893C6.93893 31.6535 7.3142 33.8983 7.83927 35.8438C6.63933 36.5173 5.51355 37.3404 4.46342 38.3131C2.28826 35.9186 1.01266 32.7759 0.937014 29.4086ZM25.6203 38.3879C24.6443 37.4152 23.5193 36.5921 22.2437 35.9186C22.7688 33.8983 23.0691 31.7283 23.144 29.4835H29.1452C29.1452 32.7759 27.8703 35.9186 25.6203 38.3879ZM15.116 13.9194C10.765 13.9194 6.93894 15.7152 4.16381 18.5587C-1.38794 24.3952 -1.38794 33.5242 4.16381 39.3607C7.01458 42.3538 10.9148 44 15.116 44C19.2431 44 23.144 42.3538 26.0697 39.3607C31.6207 33.5242 31.6207 24.3952 26.0697 18.5587C23.0691 15.4907 19.0933 13.9194 15.116 13.9194Z" fill="#081120"/>
<path d="M35.599 15.8632H29.5216L30.8728 14.8904C31.0968 14.7407 31.1724 14.3666 30.8728 14.1421C29.1464 12.7204 28.0963 10.6252 28.0963 8.30552C28.0963 4.18997 31.472 0.822697 35.599 0.822697C39.7244 0.822697 43.1001 4.18997 43.1001 8.30552C43.1001 12.4211 39.7244 15.8632 35.599 15.8632ZM35.599 -0.000413895C30.9469 -0.000413895 27.1211 3.741 27.1211 8.45518C27.1211 10.7749 28.0963 13.0197 29.7471 14.5911L27.6461 16.0128C27.4963 16.1625 27.4214 16.3121 27.4963 16.5366C27.5712 16.7611 27.7218 16.8359 27.9465 16.8359H35.5233C40.1746 16.8359 44.0004 13.0945 44.0004 8.38035C44.0004 3.66617 40.2495 -0.000413895 35.599 -0.000413895Z" fill="#081120"/>
<path d="M7.46487 3.36835C8.73966 3.36835 9.79052 4.41595 9.79052 5.68803C9.79052 6.96011 8.73966 8.0077 7.46487 8.0077C6.18933 8.0077 5.13852 6.96011 5.13852 5.68803C5.13852 4.41595 6.18933 3.36835 7.46487 3.36835ZM7.46487 8.98047C9.26545 8.98047 10.7649 7.4839 10.7649 5.68803C10.7649 3.89215 9.26545 2.39558 7.46487 2.39558C5.66354 2.39558 4.16406 3.89215 4.16406 5.68803C4.16406 7.4839 5.66354 8.98047 7.46487 8.98047Z" fill="#081120"/>
<path d="M37.4727 34.6444C36.1972 34.6444 35.1471 33.5968 35.1471 32.3247C35.1471 31.0527 36.1972 30.0051 37.4727 30.0051C38.7483 30.0051 39.7983 31.0527 39.7983 32.3247C39.8732 33.5968 38.7483 34.6444 37.4727 34.6444ZM37.4727 29.0323C35.6721 29.0323 34.1719 30.5289 34.1719 32.3247C34.1719 34.1206 35.6721 35.6172 37.4727 35.6172C39.2733 35.6172 40.7735 34.1206 40.7735 32.3247C40.7735 30.5289 39.2733 29.0323 37.4727 29.0323Z" fill="#081120"/>
</svg>
