<svg width="47" height="42" viewBox="0 0 47 42" fill="none" xmlns="http://www.w3.org/2000/svg">
<path d="M5.52317 14.4712C5.52317 14.3474 5.49841 14.5702 5.49841 14.595C5.52317 14.496 5.47366 14.6197 5.47366 14.6445C5.49842 14.5702 5.42414 14.7188 5.39938 14.7435C5.38287 14.7766 5.38287 14.7766 5.39938 14.7435C5.38287 14.7766 5.35814 14.8013 5.32513 14.8178C5.20134 14.9416 5.00326 15.0406 4.78045 15.0406C4.55763 15.0406 4.33484 14.9416 4.1863 14.8178C4.08727 14.7188 4.06249 14.694 4.01298 14.5455C4.03773 14.6445 3.98823 14.4712 3.98823 14.4712C3.97172 14.4052 3.96347 14.3969 3.96347 14.4464C3.96347 14.4134 3.96347 14.3804 3.96347 14.3474C3.96347 14.2979 3.96347 14.2979 3.96347 14.3474C3.96347 14.3144 3.97172 14.2814 3.98823 14.2484C4.01298 14.0998 3.93871 14.2979 4.01298 14.1741C4.04599 14.1081 4.04599 14.0998 4.01298 14.1494C4.02948 14.1163 4.046 14.0916 4.06251 14.0751C4.07901 14.0421 4.09551 14.0173 4.11201 14.0008C4.079 14.0338 4.08725 14.0256 4.13676 13.976C4.28531 13.8523 4.48338 13.7532 4.70619 13.7532C4.92901 13.7532 5.15183 13.8275 5.30037 13.9513C5.3994 14.0503 5.42415 14.0998 5.47366 14.2236C5.44891 14.1494 5.49841 14.2979 5.49841 14.2979C5.51492 14.3804 5.52317 14.3969 5.52317 14.3474C5.52317 14.3804 5.52317 14.4217 5.52317 14.4712C5.52317 14.7188 5.72122 15.0406 6.01831 14.9911C6.34016 14.9416 6.48871 14.5702 6.48871 14.2979C6.46395 13.5552 6.04308 12.8867 5.34988 12.6391C4.63192 12.3916 3.86443 12.6639 3.4188 13.2581C2.94841 13.8523 2.84938 14.7931 3.27026 15.4368C3.64162 16.0309 4.3596 16.3775 5.0528 16.2042C5.94406 15.9814 6.46395 15.1892 6.48871 14.2979C6.48871 14.0256 6.2659 13.7285 5.96881 13.778C5.67172 13.8275 5.52317 14.1741 5.52317 14.4712Z" fill="#1499FC"/>
<path d="M9.87875 14.4222C9.87875 14.4964 9.85398 14.5955 9.80446 14.6698C9.7797 14.7193 9.70544 14.8183 9.65592 14.8926C9.48262 15.0411 9.25981 15.1154 9.03699 15.1154C8.5666 15.1154 8.12098 14.744 8.14574 14.2984C8.14574 14.1498 8.22001 13.9765 8.39331 13.8528C8.54185 13.6794 8.76464 13.6052 8.98746 13.6052C9.4826 13.6052 9.87875 13.9765 9.87875 14.4222C9.87875 14.645 10.052 14.8926 10.2996 14.8431C10.5472 14.8183 10.671 14.5212 10.671 14.2984C10.6462 13.6052 10.2748 12.9615 9.60639 12.7139C8.93794 12.4663 8.19523 12.7139 7.74959 13.2833C7.30396 13.8528 7.2297 14.6945 7.60106 15.3135C7.94766 15.8829 8.61612 16.2295 9.28456 16.0809C10.1263 15.8829 10.6462 15.1154 10.671 14.2984C10.671 14.0756 10.4977 13.828 10.2501 13.8775C10.0025 13.9023 9.87875 14.1994 9.87875 14.4222Z" fill="#1499FC"/>
<path d="M14.1131 14.4218C14.1131 14.3475 14.0884 14.5456 14.0884 14.5704C14.1131 14.4713 14.0636 14.6199 14.0388 14.6446C14.0636 14.5951 13.9893 14.7437 13.9646 14.7684C13.9893 14.7189 13.8903 14.8427 13.8903 14.8427C13.7417 14.9665 13.5437 15.0655 13.3209 15.0655C13.0733 15.0655 12.8505 14.9665 12.7019 14.7932C12.5286 14.6446 12.4544 14.4713 12.4544 14.2733C12.4544 14.3476 12.4791 14.199 12.4791 14.1742C12.4956 14.1082 12.4956 14.1 12.4791 14.1495C12.4956 14.1165 12.5121 14.0835 12.5286 14.0505C12.5039 14.1247 12.5534 13.9762 12.5781 13.9762C12.6029 13.9267 12.6029 13.9267 12.6772 13.8524C12.8257 13.7286 13.0238 13.6296 13.2466 13.6296C13.4942 13.6296 13.717 13.7286 13.8903 13.8772C13.9646 13.9762 14.0141 14.0257 14.0636 14.1247C14.0966 14.2073 14.1131 14.3063 14.1131 14.4218C14.1131 14.6446 14.2864 14.917 14.5587 14.8922C14.8311 14.8427 14.9796 14.5209 14.9796 14.2733C14.9549 13.5801 14.5587 12.9116 13.915 12.664C13.1971 12.3917 12.4544 12.6393 11.984 13.2335C11.5384 13.8029 11.4641 14.6942 11.8354 15.3131C12.182 15.9073 12.8752 16.2539 13.5684 16.1054C14.4349 15.932 14.9549 15.115 14.9796 14.2733C14.9796 14.0257 14.7815 13.7534 14.534 13.8029C14.2369 13.8524 14.1131 14.1495 14.1131 14.4218Z" fill="#1499FC"/>
<path d="M17.4782 27.4936C14.1937 27.4771 10.9175 27.4606 7.64958 27.4441C6.7088 27.4441 5.77627 27.4358 4.85199 27.4193C4.96753 27.6009 5.08307 27.7742 5.1986 27.9392C5.1821 25.2159 5.17385 22.5008 5.17385 19.794C5.02531 20.0251 4.87675 20.2479 4.72821 20.4624C8.04568 20.4624 11.3549 20.4624 14.6559 20.4624C15.6132 20.4624 16.5622 20.4542 17.503 20.4377C17.3379 20.2726 17.1729 20.1076 17.0078 19.9425C17.0078 22.6824 17.0161 25.414 17.0326 28.1373C17.0326 28.4096 17.2306 28.682 17.503 28.6572C17.8 28.6077 17.9486 28.2611 17.9486 27.9888C17.9486 25.2654 17.9486 22.5338 17.9486 19.794C17.9486 19.4969 17.7505 19.2988 17.4535 19.2988C14.1525 19.2988 10.8433 19.2988 7.52579 19.2988C6.58502 19.2988 5.64423 19.2988 4.70346 19.2988C4.40637 19.2988 4.25781 19.7197 4.25781 19.9673C4.25781 22.6741 4.26606 25.3809 4.28256 28.0878C4.28256 28.2611 4.43111 28.5829 4.65392 28.5829C7.9879 28.6159 11.3301 28.6324 14.6806 28.6324C15.6214 28.649 16.5622 28.6572 17.503 28.6572C17.8 28.6572 17.9486 28.2363 17.9486 27.9888C17.9486 27.6917 17.7505 27.4936 17.4782 27.4936Z" fill="#1499FC"/>
<path d="M31.096 20.6853C29.7839 23.1611 28.5213 25.6863 27.4072 28.2859C27.3082 28.5087 27.3577 28.8553 27.6053 29.0039C28.348 29.433 29.0989 29.8621 29.8582 30.2912C30.18 30.4893 30.5019 30.2417 30.6999 29.9942C32.3587 27.7907 33.8688 25.4635 35.3295 23.1363C35.5028 22.8887 35.5276 22.4431 35.2057 22.2698C34.1164 21.6426 33.0271 21.0071 31.9378 20.3634C31.2941 20.0168 30.6009 21.2052 31.2198 21.5518C32.3091 22.1955 33.4067 22.831 34.5126 23.4581C34.463 23.1611 34.4218 22.864 34.3888 22.5669C32.9033 24.8941 31.3931 27.2213 29.7344 29.4247C30.015 29.3257 30.2956 29.2184 30.5761 29.1029C29.8169 28.6738 29.0577 28.2446 28.2984 27.8155C28.3645 28.0466 28.4305 28.2776 28.4965 28.5087C29.0164 27.3203 29.4373 26.4043 30.0067 25.2407C30.6669 23.9038 31.3519 22.5751 32.0616 21.2547C32.2101 20.9824 32.2596 20.5615 31.9378 20.3634C31.6407 20.1901 31.2446 20.413 31.096 20.6853Z" fill="#1499FC"/>
<path d="M30.7004 29.9942C32.161 28.0631 33.4979 26.0578 34.7853 24.0276C36.4028 21.4859 37.946 18.9028 39.4149 16.2785C40.7766 13.877 42.0639 11.426 43.2523 8.92551C44.1188 7.1182 44.9606 5.28613 45.5795 3.40455C45.7775 2.81036 45.9509 2.19142 46.0499 1.54773C46.1242 1.15161 46.1489 0.631707 45.8766 0.260343C45.5547 -0.135778 45.0348 -0.0120023 44.6387 0.186059C44.2178 0.433635 43.8465 0.805005 43.5246 1.15161C42.3115 2.43901 41.2965 3.89971 40.3062 5.33565C38.8207 7.48956 37.4343 9.69298 36.0974 11.9212C34.513 14.5125 32.9945 17.1533 31.5421 19.8436C30.3043 22.1461 29.0911 24.498 28.0018 26.8995C27.7872 27.3617 27.5809 27.8238 27.3829 28.2859C27.2838 28.5088 27.3581 28.8801 27.5809 29.0039C28.3402 29.4496 29.0994 29.8869 29.8586 30.3161C30.5023 30.6874 31.245 29.4743 30.5766 29.103C29.8339 28.6573 29.0829 28.2199 28.3237 27.7908C28.3897 28.0384 28.4557 28.2777 28.5217 28.5088C28.7198 28.0466 28.9261 27.5845 29.1406 27.1223C29.1571 27.0728 29.1819 27.0233 29.2149 26.9738C29.2149 26.9243 29.2644 26.8252 29.2149 26.9738C29.2314 26.9408 29.2397 26.9078 29.2397 26.8748C29.3057 26.7427 29.3717 26.6189 29.4377 26.5034C29.5533 26.2393 29.6771 25.9752 29.8091 25.7112C30.3538 24.5723 30.9232 23.4335 31.5173 22.2946C32.879 19.6951 34.3149 17.1203 35.8004 14.595C37.1868 12.243 38.6227 9.91581 40.1329 7.63811C40.7271 6.71382 41.346 5.80604 41.9897 4.91477C42.1217 4.73321 42.262 4.54341 42.4105 4.34535C42.4766 4.26282 42.5343 4.17204 42.5839 4.07301C42.6334 4.04 42.6746 3.99873 42.7076 3.94922C42.8067 3.80067 42.6581 3.99873 42.7324 3.8997C42.9635 3.5861 43.211 3.27251 43.4751 2.95891C43.8465 2.48852 44.2426 2.04289 44.6882 1.62201C44.7377 1.59725 44.8615 1.47346 44.7625 1.57249C44.6387 1.64677 44.7873 1.54773 44.812 1.52298C44.8945 1.45695 44.9688 1.40745 45.0348 1.37444C45.0596 1.34968 45.2081 1.2754 45.0596 1.34967C44.9358 1.39918 45.0596 1.34967 45.0843 1.34967C45.1091 1.32491 45.2329 1.30016 45.1091 1.32492C44.9605 1.37443 45.0596 1.34967 45.1091 1.34967C45.1834 1.32491 44.9111 1.30015 45.0348 1.34967C45.1091 1.34967 44.8615 1.25064 44.9606 1.30015C45.0348 1.37442 44.812 1.17637 44.8863 1.25065C44.9605 1.34968 44.8368 1.15161 44.8615 1.20113C44.8615 1.22589 44.8863 1.25065 44.8863 1.25065C44.911 1.32492 44.8615 1.12685 44.8615 1.15161C44.8615 1.17637 44.8615 1.20113 44.8615 1.20113C44.8615 1.23414 44.8698 1.26714 44.8863 1.30015C44.8863 1.31666 44.8863 1.33316 44.8863 1.34967C44.8863 1.4487 44.8863 1.17637 44.8863 1.2754C44.8615 1.47346 44.8368 1.67153 44.812 1.86959C44.812 1.9191 44.7625 2.0924 44.7873 1.96861C44.812 1.84482 44.7873 1.96862 44.7873 1.99338C44.7708 2.02639 44.7625 2.05939 44.7625 2.0924C44.7295 2.24094 44.6882 2.38124 44.6387 2.51328C44.1683 4.1968 43.4504 5.8308 42.7324 7.41528C42.6994 7.4648 42.6664 7.52257 42.6334 7.58859C42.6334 7.61335 42.5591 7.76189 42.6086 7.63811C42.5426 7.78665 42.4766 7.92695 42.4105 8.05899C42.295 8.32307 42.1712 8.58714 42.0392 8.85122C41.7586 9.4289 41.478 9.99008 41.1975 10.5347C40.5868 11.7561 39.9513 12.9692 39.2911 14.1741C37.8552 16.7984 36.3533 19.3732 34.7853 21.8985C33.4484 24.0276 32.0868 26.1568 30.6013 28.2117C30.3207 28.6078 30.0319 29.0039 29.7348 29.4C29.5368 29.6724 29.5615 30.1428 29.8586 30.3161C30.1805 30.5141 30.5023 30.2418 30.7004 29.9942Z" fill="#1499FC"/>
<path d="M30.6 29.0534C29.8573 28.6078 29.1063 28.1704 28.3471 27.7413C28.4131 28.0054 28.4874 28.2694 28.5699 28.5335C28.7515 28.1044 28.933 27.6753 29.1146 27.2461C29.1806 27.1306 29.2383 27.0233 29.2879 26.9243C29.1888 27.0976 29.2879 26.8995 29.3126 26.8748C29.3291 26.8088 29.3539 26.751 29.3869 26.7015C29.5024 26.4539 29.6097 26.2146 29.7087 25.9835C30.2204 24.9437 30.7403 23.9121 31.2684 22.8888C32.4815 20.5368 33.7689 18.1848 35.1058 15.8824C35.8815 14.5455 36.6655 13.2251 37.4578 11.9212C37.6558 11.5746 37.6311 11.2032 37.334 10.9556C36.9874 10.6585 36.5417 10.4357 36.0961 10.3367C35.601 10.2129 35.0563 10.2624 34.5364 10.2624C33.4801 10.2459 32.4155 10.2377 31.3427 10.2377C29.2136 10.2212 27.0845 10.2129 24.9553 10.2129C20.6806 10.2129 16.3976 10.2294 12.1063 10.2624C9.97719 10.2624 7.84805 10.2789 5.71893 10.3119C5.19077 10.3119 4.66261 10.3119 4.13446 10.3119C3.66407 10.3119 3.19368 10.3119 2.74805 10.411C1.88155 10.609 1.16358 11.1289 0.668435 11.8221C0.420862 12.1687 0.247567 12.5401 0.148538 12.9115C0.0495085 13.4066 0.0495085 13.8523 0.0247512 14.3474C0.0247512 15.4037 0.0165049 16.4683 0 17.5412C0 19.6703 0 21.7995 0 23.9286C0.0330097 28.2199 0.099011 32.5112 0.19804 36.8026C0.214545 37.3307 0.231068 37.8589 0.247573 38.3871C0.247573 38.8327 0.321851 39.2288 0.470395 39.6497C0.742725 40.3677 1.33688 41.0114 2.03009 41.358C2.89659 41.7789 3.86214 41.7046 4.80292 41.7293C5.89224 41.7458 6.9733 41.7706 8.04612 41.8036C12.3209 41.8696 16.5874 41.9109 20.8456 41.9274C25.1204 41.9439 29.3869 41.9191 33.6452 41.8531C34.5364 41.8531 35.5019 41.9521 36.3437 41.5313C37.1607 41.1351 37.7549 40.4915 38.1262 39.6497C38.4976 38.7832 38.3985 37.7929 38.3985 36.8521C38.4151 35.7957 38.4315 34.7312 38.4481 33.6584C38.5141 29.4001 38.5471 25.1417 38.5471 20.8834C38.5471 19.8436 38.5388 18.8038 38.5223 17.764C38.5223 17.4916 38.4481 17.1945 38.1262 17.1203C37.8291 17.046 37.5073 17.2688 37.3588 17.5164C35.4277 20.8587 33.3976 24.1514 31.1694 27.3204C30.6908 28.0136 30.1956 28.7068 29.684 29.4C29.4859 29.6724 29.5107 30.1675 29.8325 30.3656C30.1791 30.5637 30.5257 30.2913 30.7485 30.019C32.8282 27.2214 34.7345 24.2752 36.5418 21.2795C37.1689 20.2397 37.7879 19.1999 38.3985 18.1601C38.0189 18.0611 37.6311 17.9703 37.235 17.8877C37.2515 22.047 37.235 26.2063 37.1854 30.3656C37.1689 32.4452 37.1442 34.5166 37.1112 36.5797C37.0947 37.0914 37.0864 37.6113 37.0864 38.1395C37.0864 38.3623 37.0864 38.5851 37.0616 38.8079C37.0616 38.8327 37.0369 39.0555 37.0369 38.9812C37.0617 38.8575 37.0121 39.0555 37.0121 39.0555C36.9956 39.105 36.9791 39.1545 36.9626 39.204C36.9626 39.2288 36.8388 39.5011 36.9379 39.3031C36.9049 39.3856 36.8636 39.4599 36.8141 39.5259C36.7811 39.5919 36.7398 39.658 36.6903 39.724C36.8141 39.5507 36.6408 39.7735 36.5913 39.823C36.5417 39.8725 36.484 39.922 36.418 39.9716C36.5418 39.8725 36.3437 40.021 36.3189 40.0458C36.2447 40.0953 36.1704 40.1448 36.1209 40.1696C36.0219 40.2439 36.2694 40.1201 36.0961 40.1943C36.0466 40.2109 35.9971 40.2274 35.9476 40.2439C35.865 40.2769 35.7825 40.3099 35.7 40.3429C35.5762 40.3677 35.6752 40.3429 35.7 40.3429C35.667 40.3429 35.6257 40.3512 35.5762 40.3677C35.3782 40.3924 35.1553 40.3924 34.9573 40.3924C34.4291 40.4089 33.9092 40.4172 33.3976 40.4172C32.3578 40.4337 31.318 40.4419 30.2781 40.4419C28.1985 40.4584 26.1107 40.4667 24.0146 40.4667C19.8719 40.4832 15.7291 40.4584 11.5864 40.3924C9.50678 40.3594 7.43543 40.3264 5.37232 40.2934C4.84416 40.2769 4.32428 40.2604 3.81263 40.2439C3.74661 40.2439 3.68882 40.2439 3.63931 40.2439C3.46601 40.2439 3.76311 40.2686 3.56506 40.2439C3.48253 40.2439 3.40001 40.2356 3.31748 40.2191C3.23496 40.2026 3.15243 40.1779 3.06991 40.1448C3.0369 40.1448 3.00388 40.1366 2.97087 40.1201C2.79757 40.0706 3.06989 40.1696 2.89659 40.0953C2.74805 40.0128 2.59952 39.9303 2.45098 39.8478C2.41797 39.8148 2.38495 39.79 2.35194 39.7735C2.35194 39.7487 2.2529 39.6745 2.30241 39.724C2.37668 39.7735 2.22816 39.6497 2.22816 39.6497C2.19515 39.6167 2.16213 39.5837 2.12912 39.5507C2.01359 39.4186 1.91457 39.2866 1.83205 39.1545C1.88156 39.2536 1.78252 39.0555 1.75776 39.0308C1.72475 38.9317 1.69174 38.841 1.65873 38.7584C1.64222 38.7089 1.62573 38.6676 1.60922 38.6346C1.59272 38.5356 1.5762 38.4448 1.55969 38.3623C1.53493 38.1147 1.53494 37.8919 1.53494 37.6443C1.51843 37.1327 1.50194 36.6128 1.48544 36.0846C1.46893 35.0613 1.45241 34.0297 1.4359 32.9899C1.38639 30.935 1.36166 28.9049 1.3369 26.8748C1.28738 22.7155 1.28738 18.5562 1.3369 14.3969C1.3369 14.1494 1.3369 13.9018 1.3369 13.6542C1.3369 13.5552 1.34515 13.4644 1.36165 13.3819C1.36165 13.3324 1.36165 13.2911 1.36165 13.2581C1.36165 13.2333 1.41117 13.0353 1.36165 13.2086C1.41117 13.06 1.46067 12.9115 1.51019 12.7629C1.43592 12.961 1.55972 12.6887 1.58447 12.6639C1.60098 12.6309 1.61747 12.5979 1.63398 12.5649C1.65048 12.5319 1.66697 12.5071 1.68348 12.4906C1.63396 12.5731 1.62572 12.5896 1.65873 12.5401C1.70824 12.4741 1.75775 12.4163 1.80726 12.3668C1.83202 12.3173 2.03009 12.144 1.9063 12.2678C2.03834 12.1522 2.17865 12.0532 2.32719 11.9707C2.2034 12.045 2.40146 11.9459 2.45098 11.9212C2.517 11.8882 2.59124 11.8634 2.67377 11.8469C2.64901 11.8469 2.84708 11.7974 2.74805 11.8221C2.67378 11.8469 2.79758 11.8221 2.82234 11.8221C2.92137 11.8056 3.02038 11.7891 3.11941 11.7726C4.13446 11.7231 5.17427 11.7479 6.18932 11.7479C7.22913 11.7314 8.26893 11.7231 9.30873 11.7231C13.468 11.6901 17.6272 11.6736 21.7864 11.6736C25.9291 11.6736 30.0718 11.6818 34.2146 11.6983C34.6849 11.6983 35.1306 11.6736 35.5515 11.7479C35.6505 11.7809 35.7413 11.8056 35.8238 11.8221C35.8238 11.8221 35.9476 11.8717 35.8733 11.8469C35.9228 11.8634 35.9723 11.8799 36.0219 11.8964C36.2034 11.9955 36.3767 12.1192 36.5418 12.2678C36.4922 11.9377 36.451 11.6076 36.418 11.2775C33.6947 15.7586 31.0952 20.3388 28.8175 25.0427C28.2976 26.1073 27.8024 27.1966 27.3321 28.2612C27.233 28.5335 27.3073 28.9049 27.5548 29.0534C28.3141 29.4826 29.0733 29.92 29.8325 30.3656C30.5257 30.7617 31.318 29.4496 30.6 29.0534Z" fill="#1499FC"/>
<path d="M30.4258 29.1767C29.6666 28.7476 28.9074 28.3185 28.1482 27.8893C28.2142 28.1369 28.2802 28.3762 28.3462 28.6073C29.4851 25.9335 30.8467 23.3092 32.2331 20.7344C32.7118 19.8266 33.1987 18.9271 33.6938 18.0358C33.8919 17.6892 33.8423 17.1445 33.3472 17.1445C29.32 17.1445 25.3011 17.1445 21.2904 17.1445C17.2797 17.1445 13.269 17.1445 9.25837 17.1445C6.9972 17.161 4.73603 17.1693 2.47486 17.1693C2.17778 17.1693 2.05397 17.5902 2.05397 17.813C2.02096 23.3092 2.06222 28.8054 2.17776 34.3016C2.21077 35.8695 2.24378 37.4375 2.27679 39.0055C2.27679 39.1788 2.40059 39.4759 2.6234 39.4759C6.94768 39.5749 11.272 39.6409 15.5962 39.674C19.8875 39.707 24.187 39.7152 28.4948 39.6987C30.921 39.6822 33.3472 39.6575 35.7734 39.6244C36.0705 39.6244 36.1943 39.2283 36.1943 39.0055C36.2768 34.3511 36.3263 29.6966 36.3428 25.0422C36.3428 23.7218 36.3428 22.4014 36.3428 21.081C36.3428 20.6601 35.8229 20.4125 35.5753 20.8087C34.1147 23.1854 32.6292 25.5374 31.02 27.8151C30.6404 28.3432 30.2608 28.8549 29.8812 29.35C29.7326 29.5729 29.7326 29.9442 29.9059 30.1423C30.104 30.3651 30.3763 30.2413 30.5496 30.0432C32.0598 28.0131 33.471 25.884 34.8326 23.7301C35.3113 22.9873 35.7734 22.2446 36.219 21.5019C35.9715 21.4194 35.7156 21.3286 35.4516 21.2295C35.4516 25.884 35.4268 30.5384 35.3773 35.1928C35.3608 36.5132 35.3443 37.8336 35.3278 39.154C35.4598 38.9395 35.6001 38.7249 35.7487 38.5104C31.4574 38.5764 27.1579 38.6094 22.8501 38.6094C18.5918 38.5929 14.3253 38.5599 10.0506 38.5104C7.64088 38.4773 5.23118 38.4361 2.82147 38.3866C2.93701 38.5351 3.05252 38.6919 3.16805 38.857C3.01951 33.3608 2.94526 27.8646 2.94526 22.3684C2.92875 20.8004 2.92875 19.2324 2.94526 17.6645C2.79671 17.8625 2.65641 18.0688 2.52437 18.2834C6.53505 18.2669 10.554 18.2586 14.5812 18.2586C18.5919 18.2421 22.6025 18.2421 26.6132 18.2586C28.8744 18.2586 31.1356 18.2586 33.3967 18.2586C33.2812 17.9615 33.1656 17.6562 33.0501 17.3426C31.4161 20.2392 29.8564 23.1606 28.47 26.1811C28.1564 26.8413 27.8511 27.5097 27.554 28.1864C27.455 28.4093 27.5045 28.7806 27.7521 28.9044C28.4948 29.35 29.2457 29.7874 30.005 30.2166C30.5496 30.5384 30.921 29.4738 30.4258 29.1767Z" fill="#1499FC"/>
<path d="M24.5867 36.8766C24.3886 36.8766 24.1906 36.8024 24.042 36.6538C23.7945 36.431 23.7202 36.0844 23.844 35.7873C24.1906 34.9455 24.2401 34.0047 24.2896 33.0144C24.3639 32.0984 24.4134 31.1576 24.6857 30.2663C25.4284 27.7658 27.8794 27.9391 27.9784 27.9639L27.9537 28.4095L28.3746 28.5581L27.9042 28.8304C27.8299 28.8304 26.0721 28.7066 25.5275 30.5139C25.2799 31.3062 25.2304 32.1974 25.1809 33.064C25.1313 34.0047 25.0818 34.9951 24.76 35.8863C25.9979 35.2674 28.0279 34.1285 29.142 32.9402C30.6522 31.2814 29.8848 29.994 29.8352 29.9445C29.86 29.994 29.9343 30.0683 30.0828 30.1178L30.3551 29.276C30.5532 29.3503 30.6275 29.4988 30.7017 29.6474C30.7678 29.7959 30.8255 29.9527 30.875 30.1178C31.2464 31.6528 30.3551 32.9154 29.7857 33.5344C28.5231 34.9208 26.1959 36.1834 24.9333 36.8023C24.8177 36.8519 24.7022 36.8766 24.5867 36.8766Z" fill="#1499FC"/>
<path d="M6.78345 33.2127C9.08588 33.0147 11.4131 33.188 13.7155 33.3365C16.0427 33.4851 18.3699 33.5346 20.697 33.5098C22.0174 33.4933 23.3378 33.4768 24.6582 33.4603C24.98 33.4603 25.1286 33.0147 25.1286 32.7671C25.1038 32.47 24.9305 32.2472 24.6087 32.2472C22.3063 32.2967 20.0038 32.3215 17.7014 32.2719C15.3742 32.2472 13.0718 32.0244 10.7446 31.9501C9.40772 31.8758 8.07081 31.8758 6.73392 31.9996C6.13974 32.0491 6.115 33.2623 6.78345 33.2127Z" fill="#1499FC"/>
<path d="M7.37707 36.8029C11.1237 36.8194 14.8703 36.8359 18.6169 36.8524C19.6732 36.8689 20.7295 36.8772 21.7858 36.8772C22.0582 36.8772 22.2562 36.6791 22.3057 36.4068C22.3305 36.2087 22.2562 35.8126 21.9839 35.8126C18.2373 35.7961 14.4907 35.7796 10.7441 35.7631C9.68778 35.7466 8.63145 35.7383 7.57514 35.7383C7.30281 35.7383 7.10476 35.9363 7.05525 36.2087C7.03049 36.4067 7.10474 36.8029 7.37707 36.8029Z" fill="#1499FC"/>
<path d="M5.64466 29.2272C5.94174 28.9301 6.23058 28.633 6.51116 28.3359C6.75873 28.0636 6.36263 27.6674 6.0903 27.915C5.80972 28.2286 5.52088 28.534 5.22379 28.8311C4.97622 29.1034 5.39708 29.4995 5.64466 29.2272Z" fill="#1499FC"/>
<path d="M7.05549 29.4003C7.30306 29.0537 7.57539 28.7319 7.92199 28.4595C8.04578 28.3605 8.0953 28.212 8.02103 28.0634C7.94675 27.9644 7.72391 27.8901 7.62488 27.9891C7.25353 28.2862 6.90692 28.6081 6.63459 29.0042C6.53556 29.128 6.51081 29.2765 6.63459 29.4003C6.73362 29.4993 6.95646 29.5241 7.05549 29.4003Z" fill="#1499FC"/>
<path d="M8.49186 29.425C8.80545 29.0124 9.16032 28.6328 9.55643 28.2862C9.85352 28.0634 9.43265 27.6672 9.16032 27.8901C8.7477 28.2202 8.38459 28.5998 8.071 29.0289C7.84818 29.3012 8.26904 29.7221 8.49186 29.425Z" fill="#1499FC"/>
<path d="M10.0509 29.3998C10.3645 29.0697 10.6863 28.7396 11.0164 28.4095C11.264 28.1372 10.8431 27.7411 10.5956 28.0134C10.282 28.3435 9.96014 28.6736 9.63004 29.0037C9.38247 29.276 9.80333 29.6722 10.0509 29.3998Z" fill="#1499FC"/>
<path d="M11.6369 29.4492C11.9835 29.0365 12.3631 28.6404 12.7757 28.2608C13.048 28.038 12.6272 27.6418 12.3548 27.8647C11.9422 28.2278 11.5626 28.6239 11.216 29.053C10.9684 29.3501 11.3893 29.7462 11.6369 29.4492Z" fill="#1499FC"/>
<path d="M13.2697 29.5239C13.5832 29.1773 13.8969 28.8224 14.2104 28.4593C14.458 28.187 14.0371 27.7909 13.7896 28.0632C13.4925 28.4263 13.1789 28.7812 12.8488 29.1278C12.6012 29.4001 13.0221 29.7962 13.2697 29.5239Z" fill="#1499FC"/>
<path d="M14.6559 29.4741C14.9365 29.1275 15.2336 28.7974 15.5472 28.4838C15.8195 28.2114 15.3986 27.8153 15.1511 28.0876C14.821 28.4012 14.5156 28.7313 14.2351 29.0779C14.0122 29.375 14.4331 29.7712 14.6559 29.4741Z" fill="#1499FC"/>
<path d="M15.917 29.3999C16.1976 29.0698 16.4699 28.7315 16.734 28.3849C16.8083 28.2611 16.8331 28.0878 16.7093 27.964C16.6102 27.865 16.4122 27.865 16.3132 27.9888C16.0491 28.3354 15.785 28.6737 15.5209 29.0038C15.2733 29.3009 15.6942 29.697 15.917 29.3999Z" fill="#1499FC"/>
<path d="M25.3262 36.0595C25.8709 35.3415 26.4155 34.5492 26.6878 33.6827C26.8116 33.3361 26.267 33.1876 26.1432 33.5342C25.8709 34.3512 25.3262 35.0939 24.831 35.7871C24.732 35.9109 24.8063 36.109 24.9301 36.1832C25.0786 36.2575 25.2272 36.1832 25.3262 36.0595Z" fill="#1499FC"/>
<path d="M27.159 34.9953C27.4561 34.3846 27.6872 33.7492 27.8522 33.089C27.9265 32.7424 27.3818 32.5938 27.2828 32.9404C27.1342 33.5511 26.9279 34.1453 26.6639 34.723C26.4906 35.0448 27.0105 35.3419 27.159 34.9953Z" fill="#1499FC"/>
<path d="M28.2961 34.4261C28.5931 33.7576 28.6922 33.0644 28.816 32.3464C28.8655 31.9998 28.3208 31.8513 28.2466 32.2226C28.1475 32.8663 28.0732 33.5348 27.8009 34.1537C27.6524 34.4756 28.1475 34.7727 28.2961 34.4261Z" fill="#1499FC"/>
<path d="M29.5345 33.5344C29.8069 33.4602 29.8811 33.1383 29.9554 32.9155C30.0297 32.6432 30.0792 32.3461 30.0792 32.049C30.0792 31.5538 29.9059 31.0587 29.5345 30.7121C29.2622 30.4645 28.8661 30.8854 29.1384 31.1329C29.386 31.331 29.485 31.6281 29.5098 31.95C29.5098 32.1315 29.4933 32.3131 29.4603 32.4946C29.4438 32.5936 29.419 32.6844 29.386 32.7669C29.3695 32.8165 29.353 32.8742 29.3365 32.9403C29.287 33.0228 29.3035 33.031 29.386 32.965C29.0146 33.064 29.1879 33.6087 29.5345 33.5344Z" fill="#1499FC"/>
<path d="M7.20391 23.0617C7.33595 24.5142 7.45973 25.9584 7.57527 27.3943C7.60003 27.7657 8.16946 27.7657 8.1447 27.3943C8.02916 25.9419 7.90538 24.4977 7.77334 23.0617C7.74858 22.6904 7.17915 22.6904 7.20391 23.0617Z" fill="#1499FC"/>
<path d="M7.37526 23.2852C7.91992 23.3595 8.43982 23.2357 8.98448 23.1614C9.54564 23.0954 10.1068 23.0624 10.668 23.0624C10.569 22.9633 10.4782 22.8643 10.3957 22.7653C10.3131 24.3168 10.3049 25.86 10.3709 27.395C10.3957 27.7663 10.9651 27.7663 10.9403 27.395C10.8743 25.8435 10.8825 24.3003 10.9651 22.7653C10.9651 22.6167 10.8165 22.4682 10.668 22.493C10.1233 22.493 9.58692 22.526 9.05876 22.592C8.56362 22.6415 8.01897 22.79 7.52382 22.7158C7.15246 22.6662 7.0039 23.2357 7.37526 23.2852Z" fill="#1499FC"/>
<path d="M10.7668 24.1762C11.2124 24.1762 11.6498 24.1762 12.0789 24.1762C12.1284 24.1762 12.1862 24.1762 12.2522 24.1762C12.1202 23.9782 12.0542 23.9617 12.0542 24.1267C12.0294 24.201 12.0294 24.3743 12.0294 24.4733C12.0129 24.6714 11.9964 24.8777 11.9799 25.0923C11.8974 25.967 11.8231 26.8418 11.7571 27.7166C11.7323 28.0879 12.3017 28.0632 12.3265 27.6918C12.409 26.685 12.4915 25.6782 12.5741 24.6714C12.6236 24.3 12.7969 23.6316 12.2522 23.6068C11.7571 23.582 11.2619 23.6068 10.7668 23.582C10.3954 23.582 10.3954 24.1762 10.7668 24.1762Z" fill="#1499FC"/>
<path d="M14.135 27.7415C14.135 27.2298 14.1268 26.7182 14.1103 26.2065C14.1103 25.9589 14.102 25.7031 14.0855 25.439C14.0855 25.406 14.0855 25.373 14.0855 25.34C14.102 25.2905 14.102 25.2905 14.0855 25.34C14.0113 25.4143 14.1846 25.3152 14.2093 25.2905C14.3083 25.241 14.4074 25.1997 14.5064 25.1667C15.3481 24.8201 16.2642 24.7706 17.1307 24.9686C17.4773 25.0429 17.6258 24.4982 17.2792 24.3992C16.2394 24.1764 15.1501 24.2507 14.1598 24.6715C13.9617 24.7706 13.6894 24.8696 13.5656 25.0677C13.4418 25.2905 13.5161 25.6371 13.5409 25.8847C13.5409 26.5119 13.5491 27.139 13.5656 27.7662C13.5656 28.1376 14.1598 28.1128 14.135 27.7415Z" fill="#1499FC"/>
<path d="M14.8762 26.3793C15.2475 26.3793 15.2475 25.7852 14.8762 25.7852C14.5048 25.7852 14.5048 26.3793 14.8762 26.3793Z" fill="#1499FC"/>
<path d="M15.8442 26.3546C16.2156 26.3546 16.1908 25.7852 15.8194 25.7852C15.4728 25.7852 15.4728 26.3546 15.8442 26.3546Z" fill="#1499FC"/>
<path d="M8.6662 24.6713C9.03756 24.6713 9.01281 24.0771 8.64145 24.0771C8.27009 24.0771 8.29484 24.6713 8.6662 24.6713Z" fill="#1499FC"/>
<path d="M9.60761 24.5968C9.97897 24.5968 9.95422 24.0273 9.58286 24.0273C9.2115 24.0273 9.23625 24.5968 9.60761 24.5968Z" fill="#1499FC"/>
<path d="M8.68964 25.7358C9.061 25.7358 9.03625 25.1416 8.66489 25.1416C8.29353 25.1416 8.31828 25.7358 8.68964 25.7358Z" fill="#1499FC"/>
<path d="M9.65743 25.7358C10.0288 25.7358 10.0288 25.1416 9.65743 25.1416C9.28607 25.1416 9.28607 25.7358 9.65743 25.7358Z" fill="#1499FC"/>
<path d="M8.76388 27.0479C9.11048 27.0479 9.11045 26.4785 8.73909 26.4785C8.36774 26.4785 8.39252 27.0479 8.76388 27.0479Z" fill="#1499FC"/>
<path d="M9.6326 27.0977C10.004 27.0977 10.004 26.5283 9.6326 26.5283C9.26124 26.5283 9.28599 27.0977 9.6326 27.0977Z" fill="#1499FC"/>
<path d="M12.6995 22.691C12.7737 23.0871 13.3679 22.9633 13.665 22.9633C14.1106 22.9798 14.548 22.9633 14.9772 22.9138C15.299 22.889 15.8189 22.9138 16.0417 22.5919C16.1903 22.3196 16.116 21.9483 15.9427 21.7007C15.7199 21.4036 15.3733 21.2798 15.0267 21.3541C14.9524 21.3788 14.8286 21.4036 14.7791 21.4531C14.7626 21.4696 14.7379 21.4779 14.7048 21.4779C14.7874 21.4944 14.7791 21.4944 14.6801 21.4779C14.482 21.4036 14.2592 21.3541 14.0611 21.3541C13.8631 21.3541 13.7145 21.4036 13.566 21.4779C13.3927 21.5521 13.2194 21.5274 13.0708 21.6264C12.749 21.8245 12.6747 22.1711 12.6995 22.5177C12.7242 22.889 13.2937 22.8643 13.2689 22.4929C13.2689 22.3939 13.2689 22.2701 13.3184 22.1711C13.3679 22.0968 13.4175 22.0968 13.4917 22.0968C13.7393 22.072 13.8878 21.8987 14.1602 21.9235C14.383 21.973 14.6058 22.0968 14.8286 22.0473C15.0267 22.0225 15.1505 21.8245 15.3733 21.9483C15.4475 21.973 15.4971 22.0473 15.5218 22.1216C15.5466 22.1711 15.5713 22.2206 15.5466 22.2453C15.5466 22.2701 15.5466 22.2949 15.5466 22.2701C15.4971 22.3196 15.2 22.3196 15.1257 22.3196C15.0102 22.3361 14.8864 22.3526 14.7543 22.3691C14.4738 22.3856 14.1932 22.3939 13.9126 22.3939C13.764 22.3939 13.6155 22.3939 13.467 22.3939C13.3927 22.3939 13.1699 22.4434 13.1204 22.3939C13.1534 22.4434 13.1946 22.5012 13.2442 22.5672C13.2442 22.5507 13.2442 22.5342 13.2442 22.5177C13.1451 22.1711 12.6004 22.3444 12.6995 22.691Z" fill="#1499FC"/>
</svg>
