<svg width="44" height="44" viewBox="0 0 44 44" fill="none" xmlns="http://www.w3.org/2000/svg">
<path d="M40.9637 29.5972C42.3317 29.5972 43.44 30.7016 43.44 32.0638C43.44 33.4259 42.3317 34.5303 40.9637 34.5303C39.5973 34.5303 38.4883 33.4259 38.4883 32.0638C38.4883 30.7016 39.5973 29.5972 40.9637 29.5972Z" fill="#70F2A4"/>
<path d="M4.47308 7.6382C6.67856 7.6382 8.46569 9.41887 8.46569 11.6165C8.46569 13.8141 6.67856 15.5947 4.47308 15.5947C2.26838 15.5947 0.480469 13.8141 0.480469 11.6165C0.480469 9.41887 2.26838 7.6382 4.47308 7.6382Z" fill="#70F2A4"/>
<path d="M35.2147 2.70518C36.173 2.70518 36.9718 3.50084 36.9718 4.45562C36.9718 5.4104 36.173 6.20605 35.2147 6.20605H33.9375V2.70518H35.2147Z" fill="#E9EFFF"/>
<path d="M32.1809 0.714228C33.1392 0.714228 33.9381 1.50988 33.9381 2.46466C33.9381 3.26032 33.9381 5.64727 33.9381 6.44292C33.9381 7.39771 33.1392 8.19336 32.1809 8.19336C28.748 8.19336 19.484 8.19336 15.6516 8.19336C14.6933 8.19336 13.8945 7.39771 13.8945 6.44292V4.61292C13.8945 4.05597 14.215 3.49901 14.6933 3.18075L17.9668 1.03249C18.2873 0.873359 18.6062 0.714228 18.9251 0.714228C20.0437 0.714228 30.5035 0.714228 32.1809 0.714228Z" fill="#BEC8F7"/>
<path d="M25.9514 8.19431V17.583H18.4453V8.19431C20.2016 8.19431 24.3537 8.19431 25.9514 8.19431Z" fill="#A8B7EF"/>
<path d="M29.9449 8.1947V15.6738C29.9449 15.6738 26.1923 13.6847 25.9531 8.1947H29.9449Z" fill="#FF4155"/>
<path d="M30.4226 22.5949C31.5403 22.5949 32.4189 23.4701 32.4189 24.584C32.4189 25.6979 31.5403 26.5731 30.4226 26.5731V28.5622C31.5403 28.5622 32.4189 29.4375 32.4189 30.5514C32.4189 31.6653 31.5403 32.5405 30.4226 32.5405V34.5296C31.5403 34.5296 32.4189 35.4049 32.4189 36.5188C32.4189 37.6327 31.5403 38.5079 30.4226 38.5079V39.3831C30.4226 41.6905 28.5857 43.5205 26.2697 43.5205H11.0981C8.78294 43.5205 6.94531 41.6905 6.94531 39.3831V28.6418C6.94531 27.6075 7.34474 26.6527 7.98413 25.857L14.213 18.9349C15.011 18.0596 16.1288 17.5822 17.327 17.5822H18.4448C20.9202 17.5822 24.0343 17.5822 26.2697 17.5822C28.5857 17.5822 30.4226 19.4122 30.4226 21.7196V22.5949Z" fill="#464D58"/>
<path d="M25.9509 36.4408C25.9509 37.8729 24.7527 39.0664 23.3161 39.0664H14.0529C12.6154 39.0664 11.418 37.8729 11.418 36.4408V29.7573C11.418 29.1208 11.6571 28.4842 12.0566 28.0068L16.608 22.9147C17.0872 22.3577 17.8055 22.0394 18.5238 22.0394H23.2355C24.673 22.0394 25.8704 23.2329 25.8704 24.6651C25.9509 25.1425 25.9509 35.9634 25.9509 36.4408Z" fill="#9BD8F9"/>
<path d="M42.641 6.20454C43.0372 6.20454 43.3593 6.52519 43.3593 6.92063C43.3593 7.31607 43.0372 7.63672 42.641 7.63672C42.2439 7.63672 41.9219 7.31607 41.9219 6.92063C41.9219 6.52519 42.2439 6.20454 42.641 6.20454Z" fill="#081120"/>
<path d="M40.6441 23.0737C41.0412 23.0737 41.3624 23.3943 41.3624 23.7898C41.3624 24.1852 41.0412 24.5059 40.6441 24.5059C40.2471 24.5059 39.9258 24.1852 39.9258 23.7898C39.9258 23.3943 40.2471 23.0737 40.6441 23.0737Z" fill="#081120"/>
<path d="M35.6957 40.0219C36.092 40.0219 36.4148 40.3426 36.4148 40.738C36.4148 41.1335 36.092 41.4541 35.6957 41.4541C35.2994 41.4541 34.9766 41.1335 34.9766 40.738C34.9766 40.3426 35.2994 40.0219 35.6957 40.0219Z" fill="#081120"/>
<path d="M35.2144 13.685C35.6114 13.685 35.9327 14.0057 35.9327 14.4011C35.9327 14.7965 35.6114 15.1172 35.2144 15.1172C34.8173 15.1172 34.4961 14.7965 34.4961 14.4011C34.4961 14.0057 34.8173 13.685 35.2144 13.685Z" fill="#081120"/>
<path d="M13.734 12.6499C14.131 12.6499 14.4531 12.9705 14.4531 13.3659C14.4531 13.7614 14.131 14.082 13.734 14.082C13.3369 14.082 13.0156 13.7614 13.0156 13.3659C13.0156 12.9705 13.3369 12.6499 13.734 12.6499Z" fill="#081120"/>
<path d="M4.71052 -0.00151002C5.10757 -0.00151002 5.42962 0.319138 5.42962 0.714577C5.42962 1.11002 5.10757 1.43066 4.71052 1.43066C4.31426 1.43066 3.99219 1.11002 3.99219 0.714577C3.99219 0.319138 4.31426 -0.00151002 4.71052 -0.00151002Z" fill="#081120"/>
<path d="M1.27769 21.0825C1.67474 21.0825 1.99602 21.4031 1.99602 21.7986C1.99602 22.194 1.67474 22.5146 1.27769 22.5146C0.880643 22.5146 0.558594 22.194 0.558594 21.7986C0.558594 21.4031 0.880643 21.0825 1.27769 21.0825Z" fill="#081120"/>
<path d="M1.27769 38.5083C1.67474 38.5083 1.99602 38.8289 1.99602 39.2243C1.99602 39.6198 1.67474 39.9404 1.27769 39.9404C0.880643 39.9404 0.558594 39.6198 0.558594 39.2243C0.558594 38.8289 0.880643 38.5083 1.27769 38.5083Z" fill="#081120"/>
<path d="M23.396 38.5106H14.0538C12.9353 38.5106 11.9778 37.5558 11.9778 36.4419V29.7584C11.9778 29.281 12.1381 28.7241 12.5375 28.3262L17.0882 23.2341C17.4876 22.7567 18.0465 22.518 18.6858 22.518H23.396C24.5137 22.518 25.472 23.4727 25.472 24.5867V26.0188H21.001C20.7611 26.0188 20.5219 26.2575 20.5219 26.4962C20.5219 26.7349 20.7611 26.9736 21.001 26.9736H25.472V28.9627H21.001C20.7611 28.9627 20.5219 29.2014 20.5219 29.4401C20.5219 29.6788 20.7611 29.9175 21.001 29.9175H25.472V31.9067H21.001C20.7611 31.9067 20.5219 32.1454 20.5219 32.3841C20.5219 32.6227 20.7611 32.8614 21.001 32.8614H25.472V36.2827C25.472 37.5558 24.5137 38.5106 23.396 38.5106ZM23.396 21.5632H18.6858C17.8065 21.5632 16.9287 21.961 16.3698 22.5975L11.8176 27.6897C11.3392 28.2467 11.0195 28.9627 11.0195 29.7584V36.4419C11.0195 38.1127 12.3764 39.5449 14.1335 39.5449H23.396C25.0734 39.5449 26.5108 38.1923 26.5108 36.4419V24.6662C26.4311 22.9954 25.0734 21.5632 23.396 21.5632Z" fill="#081120"/>
<path d="M35.2148 5.6496H34.4965V3.18315H35.2148C35.9331 3.18315 36.4928 3.74009 36.4928 4.45616C36.4131 5.09266 35.8542 5.6496 35.2148 5.6496ZM33.4577 6.44524C33.4577 7.08174 32.8989 7.63868 32.2603 7.63868H15.7311C15.0925 7.63868 14.5336 7.08174 14.5336 6.44524V4.61528C14.5336 4.21747 14.7736 3.81965 15.0925 3.58096L18.366 1.43276C18.606 1.27363 18.7654 1.19407 19.0851 1.19407H22.0397V4.21747C22.0397 4.45616 22.2788 4.69485 22.5188 4.69485C22.758 4.69485 22.9972 4.45616 22.9972 4.21747V1.19407H25.4726V4.21747C25.4726 4.45616 25.7125 4.69485 25.9525 4.69485C26.1917 4.69485 26.4316 4.45616 26.4316 4.21747V1.19407H28.9071V4.21747C28.9071 4.45616 29.1463 4.69485 29.3854 4.69485C29.6254 4.69485 29.8653 4.45616 29.8653 4.21747V1.19407H32.1008C32.7394 1.19407 33.2983 1.75101 33.2983 2.38752C33.4577 3.26271 33.4577 5.6496 33.4577 6.44524ZM29.466 14.6402C28.5077 13.8446 26.8303 12.0147 26.5114 8.59344H29.466V14.6402ZM29.9443 21.7214V22.5965C29.9443 22.8352 30.1843 23.0739 30.4242 23.0739C31.2223 23.0739 31.9414 23.7104 31.9414 24.5856C31.9414 25.4608 31.302 26.0973 30.4242 26.0973C30.1843 26.0973 29.9443 26.336 29.9443 26.5747V28.5638C29.9443 28.8025 30.1843 29.0412 30.4242 29.0412C31.2223 29.0412 31.9414 29.6777 31.9414 30.5529C31.9414 31.4281 31.302 32.0646 30.4242 32.0646C30.1843 32.0646 29.9443 32.3032 29.9443 32.5419V34.531C29.9443 34.7697 30.1843 35.0084 30.4242 35.0084C31.2223 35.0084 31.9414 35.6449 31.9414 36.5201C31.9414 37.3157 31.302 38.0318 30.4242 38.0318C30.1843 38.0318 29.9443 38.2705 29.9443 38.5092V39.3844C29.9443 41.3734 28.3482 43.0443 26.2714 43.0443H11.0999C9.10362 43.0443 7.42704 41.453 7.42704 39.3844V28.6433C7.42704 27.7681 7.74595 26.893 8.38534 26.2564L14.6134 19.3345C15.3325 18.5388 16.29 18.141 17.3288 18.141H26.2714C28.3482 18.141 29.9443 19.7323 29.9443 21.7214ZM19.0054 8.673H20.5225V14.6402C20.5225 14.8789 20.7617 15.1176 21.0016 15.1176C21.2408 15.1176 21.4808 14.8789 21.4808 14.6402V8.673H25.4726V17.1067H19.0054V8.673ZM35.2148 2.22839H34.416C34.3371 1.11451 33.3788 0.239311 32.1805 0.239311H19.0054C18.5254 0.239311 18.1268 0.398438 17.8071 0.637127L14.5336 2.78533C13.8942 3.18315 13.5754 3.89922 13.5754 4.61528V6.44524C13.5754 7.63868 14.6134 8.673 15.8108 8.673H18.0471V17.1067H17.4077C16.0508 17.1067 14.8526 17.6636 13.9748 18.6184L7.66701 25.5404C6.86818 26.4156 6.46875 27.4499 6.46875 28.6433V39.3844C6.46875 41.9304 8.54476 43.999 11.0999 43.999H26.2714C28.8266 43.999 30.9026 41.9304 30.9026 39.3844V38.9865C32.0211 38.7479 32.8989 37.7135 32.8989 36.5201C32.8989 35.3266 32.0211 34.2923 30.9026 34.0536V32.9398C32.0211 32.7011 32.8989 31.6667 32.8989 30.4733C32.8989 29.2798 32.0211 28.2455 30.9026 28.0068V26.893C32.0211 26.6543 32.8989 25.6199 32.8989 24.4265C32.8989 23.2331 32.0211 22.1987 30.9026 21.96V21.5622C30.9026 19.0958 28.9071 17.0271 26.4316 16.9476V12.1738C27.6291 14.7994 29.5449 15.8337 29.7059 15.9132C30.0248 16.0724 30.4242 15.8337 30.4242 15.4359V8.43431H32.1805C33.2983 8.43431 34.2566 7.55912 34.416 6.44524H35.2148C36.4928 6.44524 37.4503 5.41092 37.4503 4.21747C37.4503 3.18315 36.4131 2.22839 35.2148 2.22839Z" fill="#081120"/>
<path d="M4.47174 15.1146C2.55516 15.1146 0.958299 13.5232 0.958299 11.6137C0.958299 9.70412 2.55516 8.11281 4.47174 8.11281C6.38753 8.11281 7.98522 9.70412 7.98522 11.6137C7.98522 13.5232 6.38753 15.1146 4.47174 15.1146ZM9.02323 11.6137C9.02323 9.14716 7.02693 7.15803 4.55149 7.15803C2.07683 7.15803 0 9.14716 0 11.6137C0 14.0802 1.99629 16.0693 4.47174 16.0693C6.9464 16.0693 9.02323 14.0802 9.02323 11.6137Z" fill="#081120"/>
<path d="M40.964 34.0535C39.8463 34.0535 38.9685 33.1783 38.9685 32.0644C38.9685 30.9505 39.8463 30.0753 40.964 30.0753C42.0825 30.0753 42.9611 30.9505 42.9611 32.0644C42.9611 33.1783 42.0028 34.0535 40.964 34.0535ZM40.964 29.0409C39.2874 29.0409 37.9297 30.3935 37.9297 32.0644C37.9297 33.7353 39.2874 35.0879 40.964 35.0879C42.6414 35.0879 43.9991 33.7353 43.9991 32.0644C43.9991 30.3935 42.5617 29.0409 40.964 29.0409Z" fill="#081120"/>
</svg>
