<svg width="32" height="32" viewBox="0 0 32 32" fill="none" xmlns="http://www.w3.org/2000/svg">
<path d="M22.3273 30.5927L22.6314 30.5927L22.8746 29.0021C22.9356 28.6956 23.1787 28.4511 23.4225 28.3898C24.2739 28.2678 25.004 27.9613 25.7341 27.4722C25.9773 27.2889 26.2814 27.2889 26.5246 27.4722L27.8026 28.513L28.0457 28.2678L27.1334 26.983C26.9505 26.7385 26.9505 26.432 27.1334 26.1874C27.6197 25.5144 27.9848 24.7194 28.1067 23.8625C28.1676 23.5567 28.4108 23.3115 28.7149 23.3115L30.2964 23.067L30.2964 22.7611L28.7758 22.5165C28.4717 22.4552 28.2286 22.2713 28.1676 21.9661C28.0457 21.1086 27.6807 20.3136 27.1943 19.6406C27.0115 19.396 27.0115 19.0896 27.1943 18.845L28.1676 17.5603L27.9238 17.3151L26.5855 18.2946C26.3423 18.4778 26.0382 18.4778 25.7944 18.2946C25.1259 17.8048 24.3348 17.499 23.4828 17.3151C23.1787 17.2544 22.9356 17.0098 22.9356 16.704L22.6924 15.1134L22.3877 15.1134L22.1445 16.704C22.0835 17.0098 21.9013 17.2544 21.5972 17.3151C20.7452 17.4383 20.0151 17.7441 19.3459 18.2333C19.1028 18.4172 18.7987 18.4172 18.5555 18.2333L17.2172 17.2544L16.9734 17.499L17.9473 18.7837C18.1295 19.0289 18.1295 19.3347 17.9473 19.5793C17.4603 20.2523 17.1562 21.0479 16.9734 21.8429C16.913 22.1488 16.6693 22.3939 16.3651 22.3939L14.7227 22.6385L14.7227 23.0057L16.3651 23.2508C16.6693 23.3115 16.913 23.4954 16.9734 23.8013C17.0953 24.5962 17.3994 25.3918 17.8863 26.0649C18.0685 26.31 18.0685 26.6159 17.8863 26.8605L16.913 28.2065L17.1562 28.4511L18.4336 27.4722C18.6768 27.2889 18.9809 27.2889 19.2247 27.4722C19.8938 27.9613 20.6849 28.2678 21.4753 28.4511C21.78 28.513 21.9623 28.7575 22.0232 29.0021L22.3273 30.5927ZM23.2397 32L21.7191 32C21.354 32 21.1103 31.7548 21.0499 31.3883L20.8062 29.6751C20.137 29.4912 19.4678 29.2473 18.9205 28.8795L17.5213 29.9197C17.2781 30.1035 16.8521 30.1035 16.6083 29.8584L15.5741 28.8188C15.3309 28.5736 15.3309 28.2065 15.5138 27.9006L16.548 26.4933C16.1829 25.8816 15.9391 25.2699 15.7569 24.5963L14.0535 24.3517C13.6885 24.291 13.4453 23.9851 13.4453 23.6793L13.4453 22.1488C13.4453 21.7822 13.6885 21.537 14.0535 21.4764L15.8179 21.2318C16.0001 20.5582 16.2439 19.9465 16.6083 19.3347L15.5741 17.9274C15.3919 17.6828 15.3919 17.2544 15.635 17.0098L16.6693 15.9697C16.913 15.7245 17.2781 15.7245 17.5822 15.9084L18.9809 16.9485C19.5897 16.5808 20.1979 16.3362 20.8671 16.1529L21.1103 14.4398C21.1712 14.0732 21.4753 13.8281 21.78 13.8281L23.3006 13.8281C23.6657 13.8281 23.9088 14.0732 23.9698 14.4398L24.2129 16.1529C24.8821 16.3362 25.5513 16.5808 26.1595 16.9485L27.4984 15.9084C27.7416 15.7245 28.1676 15.7245 28.4108 15.9697L29.445 17.0098C29.6882 17.2544 29.6882 17.6216 29.5059 17.9274L28.4717 19.2734C28.8368 19.8858 29.1409 20.5582 29.2622 21.2318L30.9052 21.4764C31.2703 21.537 31.5134 21.8429 31.5134 22.1488L31.5134 23.6793C31.5134 24.0458 31.2703 24.291 30.9052 24.3517L29.2012 24.5963C29.019 25.2699 28.7758 25.9423 28.3498 26.5546L29.3841 27.9006C29.5663 28.1452 29.5663 28.5736 29.3231 28.8188L28.2889 29.8584C28.0457 30.1035 27.6807 30.1035 27.3765 29.9197L26.0382 28.8795C25.43 29.2473 24.7608 29.4912 24.0917 29.6751L23.8479 31.3883C23.8479 31.7548 23.5438 32 23.2397 32Z" fill="#055346"/>
<path d="M22.5105 19.8859C20.8681 19.8859 19.5297 21.232 19.5297 22.8832C19.5297 24.5357 20.8681 25.8817 22.5105 25.8817C24.153 25.8817 25.4913 24.5357 25.4913 22.8832C25.4913 21.232 24.153 19.8859 22.5105 19.8859ZM22.5105 27.2891C20.138 27.2891 18.1914 25.3307 18.1914 22.9451C18.1914 20.5583 20.138 18.6012 22.5105 18.6012C24.8831 18.6012 26.8302 20.5583 26.8302 22.9451C26.8302 25.3307 24.8831 27.2891 22.5105 27.2891Z" fill="#055346"/>
<path d="M22.5091 22.2706C22.2049 22.2706 21.9008 22.5158 21.9008 22.8823C21.9008 23.2501 22.144 23.4946 22.5091 23.4946C22.8741 23.4946 23.1173 23.2501 23.1173 22.8823C23.1173 22.5158 22.8132 22.2706 22.5091 22.2706ZM22.5091 24.9014C21.4145 24.9014 20.5625 23.9844 20.5625 22.9442C20.5625 21.8422 21.4748 20.9859 22.5091 20.9859C23.5433 20.9859 24.4562 21.9035 24.4562 22.9442C24.4562 23.9844 23.6042 24.9014 22.5091 24.9014Z" fill="#055346"/>
<path d="M7.90874 15.1126L8.03002 15.1126L8.21284 13.766C8.27378 13.4601 8.51695 13.2155 8.76012 13.1542C9.49024 13.0317 10.1594 12.7871 10.7682 12.3586C11.0114 12.1754 11.3155 12.1754 11.5587 12.3586L12.6539 13.1542L12.7757 13.0317L11.9847 12.0534C11.8018 11.8082 11.8018 11.5017 11.9847 11.2572C12.4107 10.6455 12.7148 9.97245 12.8361 9.23814C12.897 8.93228 13.1408 8.68771 13.4449 8.68771L14.7832 8.50444L14.7832 8.32056L13.5059 8.13669C13.2011 8.076 12.958 7.89212 12.897 7.58626C12.7757 6.85195 12.4716 6.17894 12.0456 5.56722C11.8634 5.32265 11.8634 5.01679 12.0456 4.77161L12.8361 3.73206L12.7148 3.60887L11.6806 4.40447C11.4368 4.58835 11.1333 4.58835 10.8895 4.40447C10.2813 3.97663 9.61212 3.67016 8.88201 3.54818C8.5779 3.48689 8.33473 3.24232 8.33473 2.93646L8.15191 1.58983L8.03002 1.58983L7.84779 2.93646C7.78685 3.24232 7.60462 3.48689 7.30051 3.54818C6.5704 3.67016 5.90123 3.97663 5.293 4.34318C5.04983 4.52706 4.74511 4.52706 4.50194 4.34318L3.40678 3.48689L3.2855 3.60887L4.1369 4.71093C4.31973 4.95549 4.31973 5.26136 4.1369 5.50593C3.7109 6.11765 3.46772 6.79127 3.34584 7.46428C3.2855 7.77014 3.04172 8.01471 2.73761 8.01471L1.33833 8.19798L1.33833 8.32056L2.67666 8.50444C2.98078 8.56512 3.22455 8.74901 3.2855 9.05487C3.40678 9.78917 3.64996 10.4616 4.07595 11.0132C4.25818 11.2572 4.25818 11.5637 4.07595 11.8082L3.22455 12.9097L3.34584 13.0317L4.44101 12.236C4.68479 12.0534 4.98829 12.0534 5.23206 12.236C5.84028 12.6645 6.50945 12.9704 7.17862 13.0929C7.48273 13.1542 7.66496 13.3988 7.72651 13.7047L7.90874 15.1126ZM8.63884 16.458L7.30051 16.458C6.93545 16.458 6.69228 16.2134 6.63133 15.8469L6.4485 14.3783C5.90122 14.2551 5.35334 14.0105 4.867 13.7047L3.7109 14.6229C3.46773 14.8061 3.04172 14.8061 2.79855 14.5616L1.88562 13.644C1.64305 13.3988 1.64305 13.0317 1.82528 12.7258L2.73761 11.5017C2.4335 11.0126 2.25068 10.4616 2.06845 9.91116L0.608222 9.72728C0.243167 9.66659 -3.39579e-09 9.36073 -3.54213e-09 9.05487L-4.18644e-09 7.70824C-4.36182e-09 7.34169 0.243167 7.09712 0.608222 7.03583L2.12939 6.79126C2.25068 6.24023 2.49444 5.6892 2.79855 5.20067L1.88562 3.97663C1.70339 3.73206 1.70339 3.30361 1.94656 3.05844L2.8595 2.14087C3.10266 1.8963 3.46773 1.8963 3.77184 2.07957L4.98828 2.99775C5.47523 2.69189 6.02251 2.44673 6.63133 2.32414L6.81356 0.855531C6.87451 0.488984 7.17862 0.244413 7.48274 0.244413L8.82107 0.244413C9.18612 0.244413 9.4293 0.488984 9.49024 0.855531L9.67307 2.32414C10.2204 2.44673 10.8286 2.69189 11.3155 2.99775L12.4716 2.14087C12.7148 1.95759 13.1408 1.95759 13.384 2.20216L14.2963 3.11973C14.5401 3.3643 14.5401 3.73206 14.3572 4.03792L13.5059 5.20067C13.81 5.7511 14.0531 6.30152 14.175 6.85195L15.5737 7.03583C15.9388 7.09712 16.1825 7.40238 16.1825 7.70824L16.1825 9.05487C16.1825 9.42202 15.9388 9.66659 15.5737 9.72728L14.175 9.91116C13.9922 10.5235 13.81 11.0739 13.4449 11.5637L14.2963 12.7258C14.4785 12.9704 14.4785 13.3988 14.2354 13.644L13.323 14.5616C13.0799 14.8061 12.7148 14.8061 12.4107 14.6229L11.2546 13.766C10.7682 14.0724 10.1594 14.3164 9.61213 14.439L9.4293 15.9076C9.30801 16.2134 9.0039 16.458 8.63884 16.458Z" fill="#055346"/>
<path d="M8.02984 5.75198C6.63117 5.75198 5.47505 6.91412 5.47505 8.32144C5.47505 9.72815 6.63117 10.8915 8.02984 10.8915C9.42912 10.8915 10.5852 9.72815 10.5852 8.32144C10.5852 6.91412 9.42912 5.75198 8.02984 5.75198ZM8.02984 12.2988C5.84011 12.2988 4.13672 10.5244 4.13672 8.38273C4.13672 6.17981 5.90105 4.46725 8.02984 4.46725C10.2202 4.46725 11.9236 6.2411 11.9236 8.38273C11.9236 10.5244 10.1592 12.2988 8.02984 12.2988Z" fill="#055346"/>
<path d="M16.1221 31.7549C11.9243 31.7549 7.9093 30.1036 4.92852 27.1051C1.94713 24.1072 0.304687 20.1298 0.304687 15.8477C0.304687 15.48 0.608798 15.1741 0.973853 15.1741C1.33891 15.1741 1.64362 15.48 1.64362 15.8477C1.70396 23.8626 8.15247 30.3482 16.1221 30.3482C16.4872 30.3482 16.7913 30.654 16.7913 31.0212C16.7913 31.449 16.4872 31.7549 16.1221 31.7549Z" fill="#055346"/>
<path d="M31.2682 16.5195C30.9032 16.5195 30.5985 16.2137 30.5985 15.8471C30.5985 7.83105 24.15 1.34549 16.1809 1.34549C15.8158 1.34549 15.5117 1.03964 15.5117 0.673091C15.5117 0.30533 15.8158 -0.000534058 16.1809 -0.000534058C20.3781 -0.00053406 24.3937 1.65195 27.3745 4.64925C30.3553 7.64777 31.9984 11.6246 31.9984 15.9078C31.9368 16.2137 31.6333 16.5195 31.2682 16.5195Z" fill="#055346"/>
<path d="M11.5586 19.0287L12.836 19.0287L12.836 20.3135L11.5586 20.3135L11.5586 19.0287Z" fill="#055346"/>
<path d="M9.61328 19.0287L10.8907 19.0287L10.8907 20.3135L9.61328 20.3135L9.61328 19.0287Z" fill="#055346"/>
<path d="M7.72656 19.0287L9.00395 19.0287L9.00395 20.3135L7.72656 20.3135L7.72656 19.0287Z" fill="#055346"/>
<path d="M5.78125 19.0287L7.05924 19.0287L7.05924 20.3135L5.78125 20.3135L5.78125 19.0287Z" fill="#055346"/>
<path d="M24.457 8.01508L25.7344 8.01508L25.7344 9.2998L24.457 9.2998L24.457 8.01508Z" fill="#055346"/>
<path d="M22.5078 8.01508L23.7852 8.01508L23.7852 9.2998L22.5078 9.2998L22.5078 8.01508Z" fill="#055346"/>
<path d="M20.5625 8.01508L21.8399 8.01508L21.8399 9.2998L20.5625 9.2998L20.5625 8.01508Z" fill="#055346"/>
<path d="M18.6172 8.01508L19.8952 8.01508L19.8952 9.2998L18.6172 9.2998L18.6172 8.01508Z" fill="#055346"/>
</svg>
