<svg width="26" height="32" viewBox="0 0 26 32" fill="none" xmlns="http://www.w3.org/2000/svg">
<path d="M1.62941 28.7461C1.69748 29.4918 3.46229 30.5092 6.24549 30.5092C9.02895 30.5092 10.7938 29.4918 10.8619 28.7461C9.70779 29.4239 8.07844 29.8307 6.24549 29.8307C4.41254 29.8307 2.71559 29.4239 1.62941 28.7461ZM6.17735 32C2.64752 32 -6.81115e-10 30.5765 -1.58938e-09 28.6782C-1.88119e-09 28.0683 0.271478 27.5256 0.74697 27.0508C1.01838 26.7799 1.49367 26.7799 1.83295 27.0508C2.44391 27.6614 4.00546 28.2713 6.17735 28.2713C8.28198 28.2713 9.91133 27.6614 10.5221 27.0508C10.7938 26.7799 11.269 26.7799 11.6083 27.0508C12.0833 27.5256 12.355 28.0683 12.355 28.6782C12.355 30.5765 9.70779 32 6.17735 32Z" fill="#055346"/>
<path d="M1.62941 26.5092C1.69748 27.2549 3.46229 28.2717 6.24549 28.2717C9.02895 28.2717 10.7938 27.2549 10.8619 26.5092C9.70779 27.187 8.07844 27.5939 6.24549 27.5939C4.41254 27.5939 2.71559 27.187 1.62941 26.5092ZM6.17735 29.8311C2.64752 29.8311 -6.81115e-10 28.4075 -1.58938e-09 26.5092C-1.88119e-09 25.8993 0.271478 25.3566 0.74697 24.8819C1.01838 24.6109 1.49367 24.6109 1.83295 24.8819C2.44391 25.4925 4.00546 26.1024 6.17735 26.1024C8.28198 26.1024 9.91133 25.4925 10.5221 24.8819C10.7938 24.6109 11.269 24.6109 11.6083 24.8819C12.0833 25.3566 12.355 25.8993 12.355 26.5092C12.355 28.4075 9.70779 29.8311 6.17735 29.8311Z" fill="#055346"/>
<path d="M1.62941 24.3388C1.69748 25.0846 3.46229 26.1013 6.24549 26.1013C9.02895 26.1013 10.7938 25.0846 10.8619 24.3388C9.70779 25.0167 8.07844 25.4235 6.24549 25.4235C4.41254 25.4235 2.71559 25.0167 1.62941 24.3388ZM6.17735 27.5928C2.64752 27.5928 -6.81115e-10 26.1692 -1.58938e-09 24.2709C-1.88152e-09 23.6604 0.271478 23.1184 0.74697 22.6436C1.01838 22.3726 1.49367 22.3726 1.83295 22.6436C2.44391 23.2535 4.00546 23.8641 6.17735 23.8641C8.28198 23.8641 9.91133 23.2535 10.5221 22.6436C10.7938 22.3726 11.269 22.3726 11.6083 22.6436C12.0833 23.1184 12.355 23.6604 12.355 24.2709C12.355 26.1692 9.70779 27.5928 6.17735 27.5928Z" fill="#055346"/>
<path d="M1.62941 22.1692C1.69748 22.9156 3.46229 23.9324 6.24549 23.9324C9.02895 23.9324 10.7938 22.9156 10.8619 22.1692C9.70779 22.847 8.07844 23.2539 6.24549 23.2539C4.41254 23.2539 2.71559 22.847 1.62941 22.1692ZM6.17735 25.4238C2.64752 25.4238 -6.81437e-10 23.9996 -1.58938e-09 22.102C-1.88152e-09 21.4914 0.271478 20.9494 0.74697 20.4747C1.01838 20.203 1.49367 20.203 1.83295 20.4747C2.44391 21.0846 4.00546 21.6952 6.17735 21.6952C8.28198 21.6952 9.91133 21.0846 10.5221 20.4747C10.7938 20.203 11.269 20.203 11.6083 20.4747C12.0833 20.9494 12.355 21.4914 12.355 22.102C12.355 23.9996 9.70779 25.4238 6.17735 25.4238Z" fill="#055346"/>
<path d="M1.62941 19.9321C1.69748 20.6778 3.46229 21.6952 6.24549 21.6952C9.02895 21.6952 10.7938 20.6778 10.8619 19.9321C9.70779 20.6099 8.07844 21.0167 6.24549 21.0167C4.41254 21.0167 2.71559 20.6099 1.62941 19.9321ZM6.17735 23.2539C2.64752 23.2539 -6.81115e-10 21.8304 -1.58938e-09 19.9321C-1.88119e-09 19.3222 0.271478 18.7795 0.74697 18.3054C1.01838 18.0338 1.49367 18.0338 1.83295 18.3054C2.44391 18.9153 4.00546 19.5253 6.17735 19.5253C8.28198 19.5253 9.91133 18.9153 10.5221 18.3054C10.7938 18.0338 11.269 18.0338 11.6083 18.3054C12.0833 18.7795 12.355 19.3222 12.355 19.9321C12.355 21.8304 9.70779 23.2539 6.17735 23.2539Z" fill="#055346"/>
<path d="M6.17735 15.9323C3.39416 15.9323 1.56127 17.017 1.56127 17.7627C1.56127 18.5084 3.32662 19.5252 6.17735 19.5252C9.02895 19.5252 10.7938 18.4405 10.7938 17.7627C10.8619 17.017 9.02895 15.9323 6.17735 15.9323ZM6.17735 21.0166C2.64752 21.0166 -6.81115e-10 19.5931 -1.58938e-09 17.6948C-2.49764e-09 15.7965 2.64752 14.3729 6.17735 14.3729C9.70779 14.3729 12.355 15.7965 12.355 17.6948C12.355 19.5931 9.70779 21.0166 6.17735 21.0166Z" fill="#055346"/>
<path d="M15.2059 26.9155C15.2739 27.6612 17.0387 28.6779 19.8222 28.6779C22.5376 28.6779 24.3704 27.6612 24.4384 26.9155C23.2843 27.5933 21.6549 28.0001 19.8222 28.0001C18.0574 28.0001 16.36 27.5933 15.2059 26.9155ZM19.8222 30.2373C16.292 30.2373 13.6445 28.8138 13.6445 26.9155C13.6445 26.3728 13.9159 25.7629 14.3912 25.2882C14.5272 25.1523 14.7306 25.0851 14.9346 25.0851C15.1379 25.0851 15.3419 25.1523 15.478 25.2882C16.0886 25.8987 17.6501 26.5087 19.8222 26.5087C21.9262 26.5087 23.5557 25.8987 24.1663 25.2882C24.3024 25.1523 24.5064 25.0851 24.7097 25.0851C24.9137 25.0851 25.1171 25.1523 25.2531 25.2882C25.7284 25.7629 25.9998 26.3728 25.9998 26.9155C25.9998 28.8138 23.3523 30.2373 19.8222 30.2373Z" fill="#055346"/>
<path d="M15.2059 24.7461C15.2739 25.4918 17.0387 26.5086 19.8222 26.5086C22.5376 26.5086 24.3704 25.4918 24.4384 24.7461C23.2843 25.4239 21.6549 25.8307 19.8222 25.8307C18.0574 25.8307 16.36 25.4239 15.2059 24.7461ZM19.8222 28C16.292 28 13.6445 26.5765 13.6445 24.6782C13.6445 24.1355 13.9159 23.5256 14.3912 23.0508C14.5272 22.9157 14.7306 22.8471 14.9346 22.8471C15.1379 22.8471 15.3419 22.9157 15.478 23.0508C16.0886 23.6607 17.6501 24.2713 19.8222 24.2713C21.9262 24.2713 23.5557 23.6607 24.1663 23.0508C24.3024 22.9157 24.5064 22.8471 24.7097 22.8471C24.9137 22.8471 25.1171 22.9157 25.2531 23.0508C25.7284 23.5256 25.9998 24.1355 25.9998 24.6782C25.9998 26.5765 23.3523 28 19.8222 28Z" fill="#055346"/>
<path d="M15.2059 22.5765C15.2739 23.3229 17.0387 24.3396 19.8222 24.3396C22.5376 24.3396 24.3704 23.3229 24.4384 22.5765C23.2843 23.2543 21.6549 23.6611 19.8222 23.6611C18.0574 23.6611 16.36 23.2543 15.2059 22.5765ZM19.8222 25.8311C16.292 25.8311 13.6445 24.4068 13.6445 22.5092C13.6445 21.9666 13.9159 21.356 14.3912 20.8819C14.5272 20.7461 14.7306 20.6781 14.9346 20.6781C15.1379 20.6781 15.3419 20.7461 15.478 20.8819C16.0886 21.4918 17.6501 22.1024 19.8222 22.1024C21.9262 22.1024 23.4883 21.4918 24.1663 20.8819C24.3024 20.7461 24.5064 20.6781 24.7097 20.6781C24.9137 20.6781 25.1171 20.7461 25.2531 20.8819C25.7284 21.356 25.9998 21.9666 25.9998 22.5092C25.9998 24.4068 23.3523 25.8311 19.8222 25.8311Z" fill="#055346"/>
<path d="M19.8222 18.5089C16.9707 18.5089 15.2059 19.5935 15.2059 20.2714C15.2059 20.9498 16.9707 22.0345 19.8222 22.0345C22.6736 22.0345 24.4384 20.9498 24.4384 20.2714C24.4384 19.5935 22.6736 18.5089 19.8222 18.5089ZM19.8222 23.6611C16.292 23.6611 13.6445 22.2376 13.6445 20.3393C13.6445 18.441 16.292 17.0174 19.8222 17.0174C23.3523 17.0174 25.9998 18.441 25.9998 20.3393C25.9998 22.2376 23.3523 23.6611 19.8222 23.6611Z" fill="#055346"/>
<path d="M9.70845 10.8475L13.0345 14.6441L16.3609 10.8475L15.2068 10.8475C14.7995 10.8475 14.4601 10.5086 14.4601 10.1018L14.4601 1.55915L11.6771 1.55915L11.6771 10.1018C11.6771 10.5086 11.3375 10.8475 10.9302 10.8475L9.70845 10.8475ZM13.0345 16.6104C12.8312 16.6104 12.6274 16.5424 12.4914 16.3394L7.46814 10.5766C7.26426 10.3728 7.19666 10.0339 7.3324 9.7629C7.46814 9.49191 7.73955 9.28816 8.01096 9.28816L10.1156 9.28816L10.1156 0.746185C10.1156 0.339359 10.4551 -0.000226976 10.8626 -0.000226976L15.1388 -0.000226978C15.5462 -0.000226978 15.8862 0.339359 15.8862 0.746185L15.8862 9.28816L17.9903 9.28816C18.2616 9.28816 18.533 9.49191 18.669 9.7629C18.805 10.0339 18.737 10.3728 18.533 10.5766L13.5774 16.3394C13.4421 16.4745 13.2381 16.6104 13.0345 16.6104Z" fill="#055346"/>
<path d="M6.38313 18.6441C6.45073 18.6441 6.5864 18.5761 6.5864 18.5082C6.65454 18.4403 6.65454 18.3724 6.65454 18.2373C6.65454 18.1693 6.65454 18.1014 6.5864 18.0335C6.5188 17.9656 6.45073 17.8983 6.31499 17.8983L6.31499 18.6441L6.38313 18.6441ZM6.04331 16.6099C5.97571 16.6099 5.90757 16.6779 5.8397 16.7458C5.7719 16.813 5.77189 16.8809 5.77189 16.9488C5.77189 17.0168 5.7719 17.0847 5.8397 17.1526C5.90757 17.2198 5.90757 17.2878 6.04331 17.2878L6.04331 16.6099ZM6.04331 18.5761L6.04331 17.7625C5.7719 17.6946 5.56829 17.5588 5.50042 17.4236C5.36475 17.2878 5.29687 17.0847 5.29687 16.8809C5.29687 16.6778 5.36475 16.4741 5.50042 16.339C5.63643 16.2031 5.8397 16.1352 6.04331 16.0673L6.04331 15.8642L6.31499 15.8642L6.31499 16.0673C6.5188 16.0673 6.65454 16.1352 6.79028 16.271C6.92595 16.4062 6.99382 16.542 6.99382 16.7458L6.5864 16.9488C6.5864 16.813 6.45073 16.6778 6.38313 16.6778L6.38313 17.4236C6.72241 17.4915 6.92595 17.6267 7.06196 17.7625C7.19763 17.8983 7.26523 18.0335 7.26523 18.2373C7.26523 18.4403 7.19763 18.6441 7.06196 18.8471C6.92595 18.983 6.72241 19.1181 6.45073 19.1181L6.45073 19.457L6.17898 19.457L6.17898 19.0502C5.97571 19.0502 5.7719 18.915 5.63643 18.7792C5.50042 18.644 5.43255 18.4403 5.36474 18.2373L5.8397 18.1693C5.8397 18.3052 5.90757 18.3724 5.97571 18.4403C5.90757 18.5082 5.97571 18.5761 6.04331 18.5761Z" fill="#055346"/>
<path d="M20.0281 21.2201C20.0955 21.2201 20.2315 21.1522 20.2995 21.0843C20.3668 21.0163 20.3668 20.9491 20.3668 20.8133C20.3668 20.7453 20.3668 20.6774 20.2995 20.6095C20.2315 20.5423 20.1635 20.4744 20.0281 20.4744L20.0281 21.2201ZM19.6888 19.2539C19.6208 19.2539 19.5528 19.3218 19.4848 19.389C19.4848 19.389 19.4848 19.457 19.4848 19.5249C19.4848 19.5928 19.4848 19.6607 19.5528 19.7286C19.6208 19.7959 19.6888 19.8638 19.7561 19.8638L19.7561 19.2539L19.6888 19.2539ZM19.6888 21.2201L19.6888 20.4064C19.4168 20.3385 19.2134 20.2027 19.1454 20.0675C19.0094 19.9317 18.9414 19.7286 18.9414 19.5249C18.9414 19.3218 19.0094 19.1181 19.1454 18.9829C19.2814 18.8471 19.4848 18.7791 19.6888 18.7119L19.6888 18.5081L19.9601 18.5081L19.9601 18.7119C20.1635 18.7119 20.3668 18.7791 20.4348 18.915C20.5708 19.0501 20.6388 19.186 20.7068 19.389L20.2315 19.4569C20.2315 19.3218 20.0955 19.186 20.0281 19.186L20.0281 19.9317C20.3668 19.9996 20.5708 20.1354 20.7068 20.2706C20.8422 20.4064 20.9102 20.5423 20.9102 20.7454C20.9102 20.9491 20.8422 21.1522 20.7068 21.3552C20.5708 21.4911 20.3668 21.6269 20.0955 21.6269L20.0955 21.9658L19.8241 21.9658L19.8241 21.6269C19.6208 21.6269 19.4168 21.4911 19.2814 21.3552C19.1454 21.2201 19.0774 21.0163 19.0094 20.7454L19.5528 20.6774C19.5528 20.7453 19.6208 20.8812 19.6888 20.9491C19.5528 21.1522 19.6208 21.1522 19.6888 21.2201Z" fill="#055346"/>
<path d="M4.41406 2.91532L5.83959 2.91532L5.83959 4.33887L4.41406 4.33887L4.41406 2.91532Z" fill="#055346"/>
<path d="M4.41406 5.08459L5.83959 5.08459L5.83959 6.50879L4.41406 6.50879L4.41406 5.08459Z" fill="#055346"/>
<path d="M4.41406 7.25516L5.83959 7.25516L5.83959 8.67871L4.41406 8.67871L4.41406 7.25516Z" fill="#055346"/>
<path d="M4.41406 9.35575L5.83959 9.35575L5.83959 10.7793L4.41406 10.7793L4.41406 9.35575Z" fill="#055346"/>
<path d="M20.2305 7.25516L21.6559 7.25516L21.6559 8.67871L20.2305 8.67871L20.2305 7.25516Z" fill="#055346"/>
<path d="M20.2305 9.35575L21.6559 9.35575L21.6559 10.7793L20.2305 10.7793L20.2305 9.35575Z" fill="#055346"/>
<path d="M20.2305 11.5257L21.6559 11.5257L21.6559 12.9492L20.2305 12.9492L20.2305 11.5257Z" fill="#055346"/>
<path d="M20.2305 13.6956L21.6559 13.6956L21.6559 15.1191L20.2305 15.1191L20.2305 13.6956Z" fill="#055346"/>
</svg>
