<svg width="31" height="40" viewBox="0 0 31 40" fill="none" xmlns="http://www.w3.org/2000/svg">
<path d="M3.00091 1.65714C2.25091 1.65714 1.67343 2.22857 1.67343 2.97143V37.0286C1.67343 37.7714 2.25091 38.3429 3.00091 38.3429H27.2396C27.9899 38.3429 28.5665 37.7714 28.5665 37.0286V2.97143C28.5665 2.22857 27.9899 1.65714 27.2396 1.65714H3.00091ZM27.2396 40H3.00091C1.32726 40 0 38.6857 0 37.0286V2.97143C0 1.31429 1.32726 0 3.00091 0H27.2396C28.9128 0 30.2402 1.31429 30.2402 2.97143V37.0286C30.2402 38.6286 28.9128 40 27.2396 40Z" fill="#6F00FF"/>
<path d="M6.00269 32.5138H24.1817V7.54233H6.00269V32.5138ZM25.0474 34.1709H5.13709C4.67548 34.1709 4.27148 33.828 4.27148 33.3138V6.62804C4.27148 6.1709 4.61766 5.7709 5.13709 5.7709H25.0474C25.5091 5.7709 25.9131 6.11375 25.9131 6.62804V33.2566C25.9131 33.7709 25.5668 34.1709 25.0474 34.1709Z" fill="#6F00FF"/>
<path d="M15.2364 34.9711C15.9375 34.9711 16.5063 35.534 16.5063 36.2282C16.5063 36.9224 15.9375 37.4854 15.2364 37.4854C14.5353 37.4854 13.9668 36.9224 13.9668 36.2282C13.9668 35.534 14.5353 34.9711 15.2364 34.9711Z" fill="#6F00FF"/>
<path d="M15.2364 2.51403C15.9375 2.51403 16.5063 3.07689 16.5063 3.77118C16.5063 4.46546 15.9375 5.02832 15.2364 5.02832C14.5353 5.02832 13.9668 4.46546 13.9668 3.77118C13.9668 3.07689 14.5353 2.51403 15.2364 2.51403Z" fill="#6F00FF"/>
<path d="M9.2342 25.0289H21.0069V18.6289L15.5822 22.4003C15.2936 22.6289 14.832 22.6289 14.6012 22.3432L9.2342 18.0575V25.0289ZM21.8149 26.6289H8.42614C7.96432 26.6289 7.56055 26.286 7.56055 25.7718V16.6289C7.56055 16.1718 7.90677 15.7718 8.42614 15.7718H8.8302C9.00318 15.7718 9.17637 15.8289 9.34963 15.9432L15.1782 20.5718L21.4109 16.2289C21.6418 16.0575 21.9881 16.0003 22.2767 16.1718C22.5652 16.3432 22.7384 16.5718 22.7384 16.9146V25.7146C22.6807 26.286 22.3344 26.6289 21.8149 26.6289Z" fill="#6F00FF"/>
<path d="M11.1949 17.4851L15.1195 20.628L19.621 17.4851H11.1949ZM15.1195 22.5137C14.946 22.5137 14.773 22.4565 14.5998 22.3422L8.3094 17.3137C8.02077 17.0851 7.9054 16.7422 8.02077 16.3994C8.13643 16.0565 8.42477 15.828 8.82883 15.828H21.8713C22.333 15.828 22.737 16.1708 22.737 16.6851V17.028C22.737 17.3137 22.6216 17.5422 22.3907 17.7137L15.6962 22.3994C15.4656 22.4565 15.2922 22.5137 15.1195 22.5137Z" fill="#6F00FF"/>
</svg>
