<svg width="44" height="44" viewBox="0 0 44 44" fill="none" xmlns="http://www.w3.org/2000/svg">
<path d="M14.1937 19.0479H7.51087C3.60657 19.0479 0.453125 15.9103 0.453125 12.0258C0.453125 8.14123 3.60657 5.00371 7.51087 5.00371C11.4155 5.00371 14.5692 8.14123 14.5692 12.0258C14.5692 14.1922 13.593 16.1344 11.9415 17.4791L14.1937 19.0479Z" fill="#2A428C"/>
<path d="M7.43344 7.99166C9.68601 7.99166 11.4883 9.78453 11.4883 12.0256C11.4883 14.2667 9.68601 16.0596 7.43344 16.0596C5.18094 16.0596 3.37891 14.2667 3.37891 12.0256C3.37891 9.78453 5.18094 7.99166 7.43344 7.99166Z" fill="#FF4155"/>
<path d="M16.8203 35.8562H23.4277V40.5625H16.8203V35.8562Z" fill="#33383F"/>
<path d="M37.9943 3.13986C39.0305 3.13986 39.8707 3.97578 39.8707 5.00743C39.8707 6.03907 39.0305 6.875 37.9943 6.875C36.9574 6.875 36.1172 6.03907 36.1172 5.00743C36.1172 3.97578 36.9574 3.13986 37.9943 3.13986Z" fill="#FFDD40"/>
<path d="M6.08374 30.1771C7.65991 30.1771 8.9374 31.4478 8.9374 33.0158C8.9374 34.5838 7.65991 35.8545 6.08374 35.8545C4.50825 35.8545 3.23047 34.5838 3.23047 33.0158C3.23047 31.4478 4.50825 30.1771 6.08374 30.1771Z" fill="#FFDD40"/>
<path d="M28.6094 31.1482H31.4626V35.8545H28.6094V31.1482Z" fill="#33383F"/>
<path d="M31.3853 11.5765C38.1428 11.5765 43.6243 17.0299 43.6243 23.7531C43.6243 30.4764 38.1428 35.9297 31.3853 35.9297V31.1487C35.5145 31.1487 38.8932 27.7871 38.8932 23.6784C38.8932 19.5698 35.5145 16.2081 31.3853 16.2081H25.7539V11.5018H31.3853V11.5765Z" fill="#464D58"/>
<path d="M23.4276 2.46753V6.875H19.2227V2.46753C19.2227 1.27228 20.1992 0.375849 21.3253 0.375849C22.4517 0.375849 23.4276 1.27228 23.4276 2.46753Z" fill="#D3DCFB"/>
<path d="M23.8785 20.9182V25.1016H19.1484V20.9182C20.65 20.9182 22.3772 20.9182 23.8785 20.9182Z" fill="#D3DCFB"/>
<path d="M28.6086 31.1482V35.8545C27.032 35.8545 17.1203 35.8545 15.4685 35.8545C14.1919 35.8545 13.1406 34.8087 13.1406 33.5387C13.1406 32.2688 14.1919 31.2229 15.4685 31.2229C16.82 31.1482 27.182 31.1482 28.6086 31.1482Z" fill="#464D58"/>
<path d="M28.08 40.4884C28.8305 40.4884 29.5059 41.0861 29.5059 41.9078C29.5059 42.6548 28.9054 43.3271 28.08 43.3271H14.4893C13.7387 43.3271 13.0625 42.7295 13.0625 41.9078C13.0625 41.1608 13.6636 40.4884 14.4893 40.4884C15.841 40.4884 26.6534 40.4884 28.08 40.4884Z" fill="#464D58"/>
<path d="M17.3438 20.916V6.87187C18.1695 6.87187 23.6508 6.87187 25.8284 6.87187C25.8284 8.66474 25.8284 19.1978 25.8284 20.916C22.1489 20.916 23.5006 20.916 17.3438 20.916Z" fill="#464D58"/>
<path d="M8.70946 10.1603C9.23512 10.1603 9.61055 10.5338 9.61055 11.0567C9.61055 11.5796 9.23512 11.9531 8.70946 11.9531C8.18402 11.9531 7.80859 11.5796 7.80859 11.0567C7.80859 10.6085 8.25884 10.1603 8.70946 10.1603Z" fill="#FFDD40"/>
<path d="M41.4457 9.71101C41.8191 9.71101 42.1212 10.0121 42.1212 10.3833C42.1212 10.7546 41.8191 11.0557 41.4457 11.0557C41.0724 11.0557 40.7695 10.7546 40.7695 10.3833C40.7695 10.0121 41.0724 9.71101 41.4457 9.71101Z" fill="#081120"/>
<path d="M40.5434 37.2745C40.9167 37.2745 41.2188 37.5755 41.2188 37.9468C41.2188 38.3181 40.9167 38.6191 40.5434 38.6191C40.17 38.6191 39.8672 38.3181 39.8672 37.9468C39.8672 37.5755 40.17 37.2745 40.5434 37.2745Z" fill="#081120"/>
<path d="M30.7113 19.4971C31.0847 19.4971 31.3875 19.7982 31.3875 20.1695C31.3875 20.5407 31.0847 20.8418 30.7113 20.8418C30.338 20.8418 30.0352 20.5407 30.0352 20.1695C30.0352 19.7982 30.338 19.4971 30.7113 19.4971Z" fill="#081120"/>
<path d="M28.8317 3.13484C29.2051 3.13484 29.5071 3.43589 29.5071 3.80717C29.5071 4.17844 29.2051 4.47949 28.8317 4.47949C28.4584 4.47949 28.1562 4.17844 28.1562 3.80717C28.1562 3.43589 28.4584 3.13484 28.8317 3.13484Z" fill="#081120"/>
<path d="M12.3868 2.24226C12.7597 2.24226 13.0623 2.54331 13.0623 2.91459C13.0623 3.28586 12.7597 3.58691 12.3868 3.58691C12.0137 3.58691 11.7109 3.28586 11.7109 2.91459C11.7109 2.54331 12.0137 2.24226 12.3868 2.24226Z" fill="#081120"/>
<path d="M9.53497 26.5177C9.90839 26.5177 10.2108 26.8187 10.2108 27.19C10.2108 27.5613 9.90839 27.8623 9.53497 27.8623C9.16147 27.8623 8.85938 27.5613 8.85938 27.19C8.85938 26.8187 9.16147 26.5177 9.53497 26.5177Z" fill="#081120"/>
<path d="M6.38285 12.4766C6.75575 12.4766 7.05844 12.7777 7.05844 13.149C7.05844 13.5202 6.75575 13.8213 6.38285 13.8213C6.00942 13.8213 5.70703 13.5202 5.70703 13.149C5.70703 12.7777 6.00942 12.4766 6.38285 12.4766Z" fill="#081120"/>
<path d="M6.38324 11.2051C6.60822 11.2051 6.75875 11.0557 6.75875 10.8316C6.75875 10.6075 6.60822 10.458 6.38324 10.458C6.15767 10.458 6.00781 10.6075 6.00781 10.8316C6.00781 11.0557 6.15767 11.2051 6.38324 11.2051Z" fill="#081120"/>
<path d="M5.33147 40.0401C5.7049 40.0401 6.00766 40.3412 6.00766 40.7124C6.00766 41.0837 5.7049 41.3848 5.33147 41.3848C4.95864 41.3848 4.65625 41.0837 4.65625 40.7124C4.65625 40.3412 4.95864 40.0401 5.33147 40.0401Z" fill="#081120"/>
<path d="M3.00402 20.4688C3.37744 20.4688 3.67983 20.7699 3.67983 21.1412C3.67983 21.5124 3.37744 21.8135 3.00402 21.8135C2.63052 21.8135 2.32812 21.5124 2.32812 21.1412C2.32812 20.7699 2.63052 20.4688 3.00402 20.4688Z" fill="#081120"/>
<path d="M17.3446 40.0407V36.3056H22.9758V40.0407H17.3446ZM29.058 41.9083C29.058 42.4312 28.6075 42.8795 28.082 42.8795H14.4913C13.9656 42.8795 13.515 42.4312 13.515 41.9083C13.515 41.3854 13.9656 40.9372 14.4913 40.9372H28.082C28.6075 40.9372 29.058 41.3854 29.058 41.9083ZM13.5902 33.4669C13.5902 32.4211 14.4159 31.5993 15.4675 31.5993H28.1569V35.3345C25.0031 35.3345 17.7948 35.3345 15.4675 35.3345C14.4159 35.3345 13.5902 34.5127 13.5902 33.4669ZM19.2214 28.8353H24.8524V30.7029H19.2214V28.8353ZM39.3441 23.6808C39.3441 21.5891 38.5187 19.5722 37.0172 18.0781C35.5148 16.584 33.4878 15.7623 31.3857 15.7623H26.2048V12.0272H31.3857C37.8425 12.0272 43.0991 17.2564 43.0991 23.6808C43.0991 26.8183 41.8974 29.7317 39.6447 31.8981C37.5427 33.9898 34.7644 35.1851 31.8363 35.3345V31.5993C36.0404 31.3752 39.3441 27.8642 39.3441 23.6808ZM25.3037 20.3939C23.9517 20.3939 22.3753 20.3939 21.0987 20.3939V10.6078C21.0987 10.3837 20.8735 10.1596 20.6481 10.1596C20.4229 10.1596 20.1228 10.3837 20.1228 10.6078V20.3939C19.2967 20.3939 18.6209 20.3939 17.7949 20.3939V7.32088C20.273 7.32088 22.8256 7.32088 25.3037 7.32088V20.3939ZM23.4264 24.652H19.6719V21.365H23.4264V24.652ZM19.6719 2.46519C19.6719 1.56876 20.4229 0.821732 21.324 0.821732C22.2249 0.821732 22.9758 1.56876 22.9758 2.46519V6.42445H19.6719V2.46519ZM30.9352 35.3345H29.058V31.5993H30.9352V35.3345ZM31.3857 36.3056C34.7644 36.3056 37.9182 34.961 40.3202 32.6452C42.7236 30.2547 43.9995 27.1171 43.9995 23.7555C43.9995 16.8081 38.2931 11.1307 31.31 11.1307H26.1291V6.94737C26.1291 6.72326 25.9042 6.49915 25.6786 6.49915H23.8766V2.5399C23.8766 1.12054 22.7508 0 21.324 0C19.8972 0 18.7708 1.12054 18.7708 2.5399V6.49915H17.3446C17.1193 6.49915 16.894 6.72326 16.894 6.94737V20.9915C16.894 21.2156 17.1193 21.4397 17.3446 21.4397H18.7708V25.1749C18.7708 25.399 18.9963 25.6231 19.2214 25.6231H23.8766C24.1023 25.6231 24.3272 25.399 24.3272 25.1749V21.4397H25.7543C25.9792 21.4397 26.2048 21.2156 26.2048 20.9915V16.8081H31.3857C35.2899 16.8081 38.4438 19.9457 38.4438 23.8302C38.4438 27.7148 35.2899 30.8523 31.3857 30.8523H25.7543V28.9847H28.082C28.3069 28.9847 28.5325 28.7606 28.5325 28.5365C28.5325 28.3124 28.3069 28.0883 28.082 28.0883H15.9181C15.6925 28.0883 15.4675 28.3124 15.4675 28.5365C15.4675 28.7606 15.6925 28.9847 15.9181 28.9847H18.2454V30.8523H15.3924C13.8154 30.8523 12.5391 32.1222 12.5391 33.691C12.5391 35.2598 13.8154 36.5297 15.3924 36.5297H16.3683V40.2649H14.4913C13.4399 40.2649 12.6139 41.0866 12.6139 42.1324C12.6139 43.1783 13.4399 44 14.4913 44H28.082C29.133 44 29.9584 43.1783 29.9584 42.1324C29.9584 41.0866 29.133 40.2649 28.082 40.2649H23.8766V36.5297H31.3857V36.3056Z" fill="#081120"/>
<path d="M3.82928 12.0257C3.82928 10.0834 5.40566 8.43997 7.43319 8.43997C9.38567 8.43997 11.0375 10.0087 11.0375 12.0257C11.0375 13.968 9.46049 15.6114 7.43319 15.6114C5.48108 15.6114 3.82928 13.968 3.82928 12.0257ZM7.88381 17.2549V16.5079C8.33406 16.4332 8.86002 16.3585 9.23522 16.1344L9.61065 16.8067C9.76118 17.0308 10.0613 17.1055 10.2865 16.9561C10.5115 16.8067 10.5866 16.5079 10.4364 16.2838L10.0613 15.6114C10.4364 15.3126 10.8122 15.0138 11.0375 14.6403L11.713 15.0138C11.9386 15.1632 12.2387 15.0885 12.3889 14.8644C12.539 14.6403 12.464 14.3415 12.2387 14.1921L11.5631 13.8186C11.7881 13.3704 11.8632 12.9221 11.9386 12.4739H12.689C12.9145 12.4739 13.1395 12.2498 13.1395 12.0257C13.1395 11.8016 12.9145 11.5775 12.689 11.5775H11.9386C11.8632 11.1293 11.7881 10.6064 11.5631 10.2328L12.2387 9.85932C12.464 9.70992 12.539 9.4111 12.3889 9.187C12.2387 8.96289 11.9386 8.88818 11.713 9.03759L11.1126 9.3364C10.8122 8.96289 10.5115 8.58937 10.1363 8.36526L10.5115 7.69294C10.662 7.46883 10.5866 7.17002 10.3616 7.02061C10.1363 6.87121 9.83592 6.94591 9.68577 7.17002L9.31056 7.84234C8.86002 7.61823 8.40917 7.54353 7.95885 7.46883V6.7218C7.95885 6.49769 7.73358 6.27358 7.50801 6.27358C7.28303 6.27358 7.05776 6.49769 7.05776 6.7218V7.46883C6.60714 7.54353 6.08149 7.61823 5.70635 7.84234L5.25573 7.24472C5.10557 7.02061 4.80519 6.94591 4.58021 7.09531C4.35464 7.24472 4.27982 7.54353 4.42968 7.76764L4.80519 8.43997C4.42968 8.73878 4.05426 9.03759 3.82928 9.4111L3.15309 9.03759C2.92811 8.88818 2.62773 8.96289 2.47787 9.187C2.32734 9.4111 2.40275 9.70992 2.62773 9.85932L3.30362 10.2328C3.07827 10.6811 3.00323 11.1293 2.92812 11.5775H2.17718C1.95191 11.5775 1.72656 11.8016 1.72656 12.0257C1.72656 12.2498 1.95191 12.4739 2.17718 12.4739H2.92812C3.00323 12.9221 3.07827 13.4451 3.30362 13.8186L2.62773 14.1921C2.40275 14.3415 2.32734 14.6403 2.47787 14.8644C2.62773 15.0885 2.92811 15.1632 3.15309 15.0138L3.82928 14.6403C4.12937 15.0138 4.42968 15.3873 4.80519 15.6114L4.42968 16.2838C4.27982 16.5079 4.35464 16.8067 4.58021 16.9561C4.80519 17.1055 5.10557 17.0308 5.25573 16.8067L5.63124 16.1344C6.08148 16.3585 6.5321 16.4332 6.98265 16.5079V17.2549C6.98265 17.479 7.20792 17.7031 7.43319 17.7031C7.73358 17.7031 7.88381 17.479 7.88381 17.2549Z" fill="#081120"/>
<path d="M8.71079 11.5796C8.48574 11.5796 8.26017 11.3555 8.26017 11.1314C8.26017 10.9073 8.48574 10.6832 8.71079 10.6832C8.93636 10.6832 9.16133 10.9073 9.16133 11.1314C9.16133 11.3555 9.0111 11.5796 8.71079 11.5796ZM8.71079 9.71206C7.96008 9.71206 7.35938 10.3097 7.35938 11.0567C7.35938 11.8037 7.96008 12.4014 8.71079 12.4014C9.46172 12.4014 10.0625 11.8037 10.0625 11.0567C10.1375 10.3097 9.46172 9.71206 8.71079 9.71206Z" fill="#081120"/>
<path d="M0.901086 12.0263C0.901086 8.44056 3.82955 5.45244 7.50828 5.45244C11.1876 5.45244 14.1161 8.36586 14.1161 12.0263C14.1161 13.9686 13.2152 15.8361 11.7133 17.1061C11.4883 17.3302 11.4883 17.7037 11.7133 17.8531L12.7644 18.6002H7.58399C3.82955 18.5254 0.901086 15.612 0.901086 12.0263ZM14.1911 19.4966C14.4162 19.4966 14.6417 19.2725 14.6417 19.0484C14.6417 18.899 14.5666 18.7496 14.4162 18.6749L12.6893 17.4796C14.1911 16.0603 15.0172 14.118 15.0172 12.101C15.0172 7.99234 11.6382 4.63071 7.50828 4.63071C3.37893 4.63071 0 7.99234 0 12.101C0 16.2097 3.37893 19.5713 7.50828 19.5713C8.10936 19.4966 13.4402 19.4966 14.1911 19.4966Z" fill="#081120"/>
<path d="M37.9925 3.58419C38.7429 3.58419 39.4184 4.18181 39.4184 5.00355C39.4184 5.82528 38.8179 6.4229 37.9925 6.4229C37.2413 6.4229 36.5659 5.82528 36.5659 5.00355C36.5659 4.18181 37.1664 3.58419 37.9925 3.58419ZM37.9925 7.31934C39.2684 7.31934 40.3195 6.2735 40.3195 5.00355C40.3195 3.7336 39.2684 2.68776 37.9925 2.68776C36.7158 2.68776 35.6641 3.7336 35.6641 5.00355C35.6641 6.2735 36.6409 7.31934 37.9925 7.31934Z" fill="#081120"/>
<path d="M6.08087 35.3355C4.80457 35.3355 3.75355 34.2897 3.75355 33.0197C3.75355 31.7498 4.80457 30.7039 6.08087 30.7039C7.35753 30.7039 8.40856 31.7498 8.40856 33.0197C8.40856 34.2897 7.35753 35.3355 6.08087 35.3355ZM6.08087 29.7328C4.27921 29.7328 2.77734 31.2268 2.77734 33.0197C2.77734 34.8126 4.27921 36.3066 6.08087 36.3066C7.88319 36.3066 9.38506 34.8126 9.38506 33.0197C9.38506 31.2268 7.88319 29.7328 6.08087 29.7328Z" fill="#081120"/>
</svg>
