<svg width="250" height="250" viewBox="0 0 250 250" fill="none" xmlns="http://www.w3.org/2000/svg">
<circle cx="125" cy="125" r="124" stroke="url(#paint0_linear_2407_37056)" stroke-width="2"/>
<mask id="mask0_2407_37056" style="mask-type:alpha" maskUnits="userSpaceOnUse" x="25" y="25" width="200" height="200">
<rect x="25" y="25" width="200" height="200" rx="100" fill="#D9D9D9"/>
</mask>
<g mask="url(#mask0_2407_37056)">
<rect x="25" y="25" width="200" height="200" rx="100" fill="#F8F7FF"/>
<path d="M191 138.5C189.552 223.174 63.4357 223.16 62 138.498C63.448 53.8271 189.565 53.8403 191 138.5Z" fill="#FFD6E4"/>
<path d="M187.434 186H66.5662C64.0444 186 62 183.985 62 181.5C62 179.015 64.0442 177 66.5662 177H187.434C189.956 177 192 179.015 192 181.5C192 183.985 189.956 186 187.434 186Z" fill="#DEB7A8"/>
<path d="M189.303 179.705C188.617 178.83 61.2121 181.395 62.0037 178.809C61.8484 177.047 188.63 178.805 189.304 178.201C190.229 178.19 190.235 179.718 189.303 179.705Z" fill="#EBD4CB"/>
<path d="M187.434 184.246H66.5662C64.5181 184.246 62.7849 182.881 62.2061 181C62.0722 181.435 62 181.897 62 182.377C62 184.93 64.0442 187 66.5662 187H187.434C189.956 187 192 184.93 192 182.377C192 181.897 191.928 181.435 191.794 181C191.215 182.881 189.482 184.246 187.434 184.246Z" fill="#C0785B"/>
<path d="M186.659 188H66.4216C63.432 188 61 185.533 61 182.5C61 179.467 63.432 177 66.4216 177H186.659C193.745 177.117 193.815 187.867 186.659 188ZM66.4216 178.784C61.649 178.859 61.5745 186.125 66.4218 186.216C66.4216 186.216 186.659 186.216 186.659 186.216C188.679 186.216 190.322 184.549 190.322 182.5C190.322 180.451 188.679 178.784 186.659 178.784L66.4216 178.784Z" fill="#2E0F07"/>
<path d="M190.5 170C180.499 169.812 180.501 154.187 190.5 154C200.501 154.188 200.499 169.813 190.5 170ZM190.5 156.86C184.074 156.981 184.076 167.02 190.5 167.14C196.925 167.019 196.925 156.98 190.5 156.86Z" fill="#EE682F"/>
<path d="M190.5 171C179.166 170.8 179.167 154.199 190.5 154C201.834 154.2 201.832 170.801 190.5 171ZM190.5 155.723C181.463 155.882 181.464 169.119 190.5 169.277C199.537 169.118 199.536 155.881 190.5 155.723ZM190.5 168.269C182.807 168.133 182.808 156.866 190.5 156.731C198.193 156.867 198.191 168.134 190.5 168.269ZM190.5 158.454C185.104 158.549 185.105 166.452 190.5 166.547C195.895 166.451 195.895 158.548 190.5 158.454Z" fill="#2E0F07"/>
<path d="M184.398 176.919C178.782 176.731 169.27 178.738 169 170.261L169 151.755C169 150.233 170.223 149 171.732 149H188.268C189.777 149 191 150.233 191 151.755V170.261C191 173.938 188.044 176.919 184.398 176.919Z" fill="#F2895D"/>
<path d="M188.333 149H187.464V166.607C187.464 170.283 184.579 173.264 181.02 173.264C179.189 173.1 171.59 173.69 170 172.772C171.954 178.586 180.08 176.603 184.555 176.915C188.115 176.915 191 173.935 191 170.259V151.754C191 150.233 189.806 149 188.333 149Z" fill="#EE682F"/>
<path d="M185.44 177H176.56C172.391 177 169 173.693 169 169.628V151.562C169 149.598 170.639 148 172.653 148H189.347C191.361 148 193 149.598 193 151.562V169.628C193 173.693 189.609 177 185.44 177ZM172.653 149.747C171.626 149.747 170.791 150.561 170.791 151.562V169.628C170.791 172.73 173.379 175.253 176.56 175.253C181.5 174.979 191.061 177.116 191.209 169.628C189.946 145.55 197.826 150.149 172.653 149.747Z" fill="#2E0F07"/>
<path d="M175 155C174.988 159 172.012 159 172 155C172.012 151 174.988 151 175 155Z" fill="#FBDBCD"/>
<path d="M145.193 119.335C151.219 132.339 140.895 148.287 126.47 147.959C94.1347 146.141 103.626 98.0501 134.194 108.604L139.01 102.033C110.361 88.1923 84.0089 124.928 106.392 147.603C129.371 170.231 166.321 143.044 151.655 114.382L145.193 119.335Z" fill="#FF5E5C"/>
<path d="M153.179 137.886C156.001 130.323 155.519 121.146 151.904 114L145.655 119.062C148.367 125.255 147.644 133.482 144 138.991C147.097 139.062 150.204 138.718 153.179 137.886Z" fill="#FF2523"/>
<path d="M134.928 127.141C135.15 131.964 131.206 136.044 126.34 136.032C114.976 135.823 115.078 119.048 126.441 118.979L131.683 111.885C107.186 104.764 100.818 142.924 126.34 143.997C137.678 144.218 146.037 132.237 141.944 121.807L134.928 127.141Z" fill="#FF5E5C"/>
<path d="M141.989 122L135.019 127.45C135.186 131.083 133.068 134.356 130 135.76C132.541 137.734 135.642 138.645 138.836 139C142.744 134.715 144.144 127.615 141.989 122Z" fill="#FF2523"/>
<path d="M131 127C130.888 133.667 121.111 133.666 121 127C121.112 120.333 130.889 120.334 131 127Z" fill="#FF5E5C"/>
<path d="M128.227 122C122.841 122.958 122.507 130.608 127.774 132C133.159 131.042 133.493 123.392 128.227 122Z" fill="#FF2523"/>
<path d="M165.571 111.012C164.808 109.206 163.925 107.468 162.93 105.8L156.525 110.71C175.531 145.425 130.473 179.609 102.198 151.832C74.7212 123.909 107.902 79.0966 142.611 97.1125L147.381 90.6028C103.994 67.3095 62.4758 121.93 96.5362 157.497C129.798 189.874 183.029 154.003 165.571 111.012Z" fill="#FF5E5C"/>
<path d="M168 127.492C168.012 119.91 166 112.476 162.208 106L156 110.859C160.147 118.27 161.327 127.668 159.19 136C162.191 135.323 165.045 134.061 167.714 132.458C167.903 130.819 168 129.163 168 127.492Z" fill="#FF2523"/>
<path d="M91.9838 105.633C90.1072 109.586 91.1748 110.345 93.0163 106.367C94.8927 102.414 93.8253 101.655 91.9838 105.633Z" fill="#FFDCDC"/>
<path d="M103.984 113.633C102.107 117.586 103.175 118.345 105.016 114.367C106.893 110.414 105.825 109.655 103.984 113.633Z" fill="#FFDCDC"/>
<path d="M113.984 119.633C112.107 123.586 113.175 124.345 115.016 120.367C116.893 116.414 115.825 115.656 113.984 119.633Z" fill="#FFDCDC"/>
<path d="M126.337 156.985C87.2184 155.811 87.2237 99.1923 126.337 98.023C128.331 97.7682 141.019 99.6539 139.731 102.357L134.861 108.975C134.62 109.303 134.185 109.425 133.807 109.271C121.204 103.867 106.29 113.801 106.566 127.505C107.033 153.385 145.643 153.387 146.107 127.504C146.107 124.765 145.549 122.11 144.449 119.615C144.285 119.241 144.398 118.804 144.723 118.556L151.256 113.567C151.671 113.233 152.349 113.38 152.584 113.859C163.113 132.532 147.878 157.694 126.337 156.985ZM126.337 99.7937C102.121 99.2005 89.118 130.461 106.668 147.099C128.704 168.789 164.552 143.576 151.482 115.626L146.348 119.545C152.125 133.213 141.264 149.263 126.336 148.97C92.7555 147.191 101.75 97.4019 133.832 107.379L137.658 102.178C134.103 100.595 130.299 99.7937 126.337 99.7937Z" fill="#2E0F07"/>
<path d="M126.357 144.997C103.214 144.583 103.214 110.411 126.357 110C127.596 110.084 133.621 110.185 132.449 112.29L127.178 119.435C126.99 119.695 126.673 119.824 126.356 119.795C116.172 119.974 116.168 135.023 126.357 135.202C130.631 135.202 134.109 131.746 134.109 127.498C134.079 127.108 134.096 126.677 134.449 126.43L141.504 121.057C141.955 120.692 142.697 120.905 142.883 121.453C147.214 132.552 138.368 145.218 126.357 144.997ZM126.357 111.773C105.557 112.144 105.56 142.856 126.357 143.225C136.673 143.379 144.522 133.031 141.59 123.225L135.893 127.564C135.857 132.759 131.593 136.975 126.357 136.975C114.033 136.781 113.728 118.66 126.004 118.029L130.262 112.257C128.991 111.935 127.682 111.773 126.357 111.773Z" fill="#2E0F07"/>
<path d="M127 133C118.999 132.859 119.001 121.14 127 121C135.001 121.141 134.999 132.86 127 133ZM127 122.758C121.344 122.858 121.345 131.142 127 131.241C132.656 131.141 132.655 122.858 127 122.758Z" fill="#2E0F07"/>
<path d="M125.876 169.992C79.1011 169.38 66.3029 106.138 109.126 87.3744C121.195 82.1971 135.665 83.0182 147.059 89.5567C147.509 89.8004 147.649 90.4345 147.336 90.8414L142.593 97.3084C142.334 97.6606 141.856 97.7699 141.47 97.565C120.376 85.5535 91.7624 102.681 92.569 126.994C91.8533 155.963 129.431 171.529 149.428 150.527C159.91 140.373 162.205 123.328 154.951 110.727C154.737 110.346 154.836 109.865 155.183 109.599L161.551 104.722C163.153 103.53 164.82 109.196 165.522 110.254C177.766 137.796 156.048 170.569 125.876 169.992ZM125.876 85.7514C81.0115 86.3375 68.7399 146.998 109.811 164.992C145.827 180.201 181.052 140.75 161.827 106.725L156.852 110.536C175.285 145.942 129.566 179.785 101.079 151.771C73.3445 123.662 106.209 78.243 141.618 95.6626L145.325 90.6095C139.339 87.4091 132.698 85.7467 125.876 85.7514Z" fill="#2E0F07"/>
<path d="M161.909 82L171 90.4316L128.471 127.461C126.519 129.161 123.849 126.47 125.534 124.501L161.909 82Z" fill="#FAF38D"/>
<path d="M131.86 117.054L125.534 124.481C123.848 126.462 126.52 129.168 128.474 127.458L161 99C151.397 105.196 141.659 111.179 131.86 117.054Z" fill="#F6EB3A"/>
<path d="M154.523 91L162 82.1352L160.941 68L153 82.2643L154.523 91Z" fill="#FAF38D"/>
<path d="M154 91.7145L154.052 92L162 82.9595L161.3 74C158.799 79.8822 156.203 85.7339 154 91.7145Z" fill="#F6EB3A"/>
<path d="M171.369 91L184 91.3462L171.369 100L162 98.6026L171.369 91Z" fill="#FAF38D"/>
<path d="M171.314 91L162 98.8252L163.132 99C168.067 96.3757 173.058 93.8067 178 91.1898L171.314 91Z" fill="#F6EB3A"/>
<path d="M128.026 129C125.625 128.976 123.965 126.194 125.749 124.115L162.304 82.3015C162.615 81.9322 163.226 81.8952 163.578 82.2291L172.713 90.5242C172.899 90.6933 173.004 90.933 173 91.1827C173.131 92.2046 130.333 127.549 129.952 128.263C129.344 128.781 128.671 129 128.026 129ZM163.05 84.1311C111.71 142.08 116.32 137.994 170.778 91.1481L163.05 84.1311Z" fill="#2E0F07"/>
<path d="M154.444 92C154.026 92.0034 153.647 91.6861 153.578 91.2684L152.014 82.4587C151.977 82.2537 152.014 82.0423 152.116 81.8614C152.582 81.6484 160.288 66.0036 161.226 67.0503C162.504 66.4982 162.683 81.7275 162.997 82.1039C163.015 82.3404 162.939 82.5742 162.785 82.7536L155.11 91.6934C154.94 91.8908 154.696 92 154.444 92ZM153.803 82.463L154.986 89.1247L161.214 81.8707L160.375 70.8671L153.803 82.463Z" fill="#2E0F07"/>
<path d="M171.358 101C154.944 98.8784 160.577 99.6234 170.786 90.2044C170.953 90.0669 171.164 89.9953 171.384 90.0002L184.146 90.3568C184.967 90.3543 185.325 91.4797 184.635 91.9272L171.873 100.839C171.722 100.944 171.542 101 171.358 101ZM163.946 98.1308L171.137 99.2238L181.462 92.0145L171.672 91.7409L163.946 98.1308Z" fill="#2E0F07"/>
<path d="M58 143C58.2246 156.334 77.7772 156.332 78 143C77.7756 129.666 58.2228 129.668 58 143Z" fill="#78CDEF"/>
<path d="M62.8284 149.828L60 147L51.5147 155.485L54.3431 158.314L62.8284 149.828Z" fill="#D5E2F0"/>
<path d="M53.7119 158.992C53.1689 159.175 50.6537 156.164 50.2591 155.908C49.9136 155.562 49.9136 155.003 50.2591 154.657L58.6626 146.259C59.0081 145.914 59.5682 145.914 59.9136 146.259L62.7409 149.085C63.0864 149.43 63.0864 149.989 62.7409 150.335L54.3374 158.733C54.1646 158.906 53.9384 158.992 53.7119 158.992ZM52.1355 155.282L53.7121 156.858L60.8647 149.709L59.2881 148.134L52.1355 155.282Z" fill="#2E0F07"/>
<path d="M41.9368 168.063C40.6877 166.814 40.6877 164.79 41.9368 163.54L52.4771 153L57 157.523L46.4597 168.063C45.2106 169.312 43.1856 169.312 41.9368 168.063Z" fill="#5BC2EC"/>
<path d="M55.5351 156L45.2413 166.286C44.083 167.444 42.2617 167.533 41 166.556C41.1356 167.107 41.4183 167.628 41.8488 168.059C43.1049 169.314 45.1418 169.314 46.3979 168.059L57 157.464L55.5351 156Z" fill="#1BAAE4"/>
<path d="M44.1136 170C43.0129 170 41.9778 169.571 41.1991 168.792C39.6006 167.257 39.6 164.495 41.1991 162.96L51.8958 152.257C52.238 151.915 52.7925 151.914 53.1349 152.257C53.3162 152.534 58.3418 157.141 57.9815 157.469C57.9813 157.702 57.889 157.925 57.7247 158.089L47.028 168.792C46.2495 169.571 45.2146 170 44.1136 170ZM52.5154 154.117L42.438 164.2C41.5189 165.082 41.5187 166.67 42.438 167.552C43.3201 168.472 44.9068 168.472 45.7888 167.552L55.8662 157.469L52.5154 154.117Z" fill="#2E0F07"/>
<path d="M54 142.5C54.2947 125.832 78.7078 125.835 79 142.5C78.7053 159.168 54.2922 159.165 54 142.5ZM58.136 142.5C58.333 153.653 74.6685 153.651 74.864 142.499C74.667 131.347 58.3315 131.349 58.136 142.5Z" fill="#FAF38F"/>
<path d="M60.4172 149.99C68.4001 154.677 76.3468 149.631 79.9961 142C80.3388 157.639 57.7513 159.923 55 144.71C56.4155 146.809 58.179 148.636 60.4172 149.99Z" fill="#F6EB3A"/>
<path d="M60.5022 134.099C58.7844 135.192 57.3048 136.515 56 138C58.8209 130.259 69.0442 127.356 75 132.797C70.6108 130.614 64.8046 131.387 60.5022 134.099Z" fill="white"/>
<path d="M67.5 156C49.4985 155.682 49.5013 129.315 67.5006 129C85.5014 129.318 85.4984 155.684 67.5 156ZM67.5 130.752C51.8341 131.028 51.8366 153.974 67.5004 154.248C83.1656 153.971 83.1631 131.026 67.5 130.752ZM67.5 151.823C55.0684 151.603 55.0702 133.395 67.5004 133.177C79.9315 133.397 79.9295 151.605 67.5 151.823ZM67.5 134.929C57.4039 135.107 57.4055 149.894 67.5002 150.071C77.5958 149.893 77.5942 135.106 67.5 134.929Z" fill="#2E0F07"/>
<path d="M67.351 147.488C69.8752 146.239 71.8374 144.68 72.2253 141.813C72.3668 140.769 74.0232 140.69 73.9976 141.813C74.1692 148.006 65.1317 151.04 67.351 147.488Z" fill="#EAF7FD"/>
<path d="M65.7545 137.137C63.95 138.073 62.5472 139.242 62.2699 141.39C62.1689 142.173 60.9846 142.232 61.003 141.39C60.8409 136.835 67.325 134.431 65.7545 137.137Z" fill="#EAF7FD"/>
<path d="M185.675 138C183.494 137.216 187.186 133.216 188.446 132.36C187.077 128.171 190.553 124.68 194.772 124.331C194.942 120.349 199.307 117.456 202.694 119.897C203.008 120.109 203.095 120.542 202.887 120.863C202.679 121.184 202.255 121.273 201.94 121.06C199.457 119.264 196.399 121.369 196.152 124.227C199.35 124.338 200.125 126.884 198.565 128.263C197.524 129.23 195.062 127.646 194.86 125.727C192.084 125.874 188.75 128.365 189.634 131.6C195.702 128.949 194.452 137.685 189.188 133.537C187.888 134.539 186.513 136.127 186.351 137.393C186.307 137.744 186.013 138 185.675 138ZM190.4 132.771C190.792 133.153 192.181 133.41 192.321 133.04C192.369 132.331 191.517 132.288 190.4 132.771ZM196.244 125.624C196.372 126.309 197.214 127.334 197.799 127.109C198.303 126.341 197.491 125.669 196.244 125.624Z" fill="#1BAAE4"/>
<path d="M74.2587 112C73.6987 112.018 73.3713 111.281 73.7782 110.883C75.6079 109.088 74.3793 106.26 72.1031 105.599C71.4734 108.322 69.1588 108.577 68.2274 107C67.5621 105.969 69.2368 104.031 70.9218 104.118C71.1473 101.873 69.797 98.7192 67.057 98.8945C67.3284 100.304 66.8362 102.732 65.0287 102.828C63.389 102.397 64.0913 98.8454 65.3877 98.0956C64.7768 96.8645 63.5742 95.6817 62.4174 95.2213C62.0773 95.0858 61.9116 94.7013 62.0475 94.3621C63.1508 92.8621 66.1392 96.4313 66.6283 97.6165C70.3721 97.2032 72.5136 100.704 72.2455 104.265C75.7023 104.917 77.5944 110.109 74.2587 112ZM70.7748 105.46C70.2628 105.466 69.3507 106.055 69.4389 106.461C69.954 106.913 70.5442 106.386 70.7748 105.46ZM65.8106 99.5602C65.5427 99.9622 65.3835 100.711 65.4021 101.131C65.7002 100.667 65.8531 100.135 65.8106 99.5602Z" fill="#1BAAE4"/>
<path d="M180.73 75.9757C179.218 75.5521 180.351 73.5185 181.458 73.0818C181.436 67.2866 188.623 64.1174 186.661 67.2029C184.613 68.1369 183.079 70.2856 182.808 72.6093C188.34 72.011 184.37 78.9797 181.721 74.475C181.033 74.9084 181.74 75.9328 180.73 75.9757ZM182.919 73.9224C183.118 74.5784 184.145 75.0127 184.295 74.1887C184.11 73.769 183.477 73.8355 182.919 73.9224Z" fill="#1BAAE4"/>
<path d="M83.3316 73.9994C80.0363 72.779 84.1459 67.6558 79.5701 66.5322C78.4556 66.3908 77.3007 65.2439 77.4259 64.0626C77.2533 63.3519 77.4176 59.6454 76.6653 59.3691C76.2925 59.364 75.9949 59.061 76.0001 58.6925C76.6002 56.9918 78.579 58.7492 78.4993 60.4664C78.603 61.0658 78.6687 64.2639 78.9388 64.744C79.1815 65.1096 79.992 65.2307 80.4785 65.4213C82.6028 66.1722 83.6988 68.4841 83.3024 70.6198C83.2012 71.7564 83.1754 72.4675 83.6735 72.7565C84.2657 73.0709 83.9927 74.0265 83.3316 73.9994Z" fill="#FAD100"/>
<path d="M145.76 67C144.041 66.3303 145.654 63.9625 146.535 63.2284C147.884 62.1218 148.356 60.073 147.289 58.5889C146.567 57.7508 146.446 56.1056 147.278 55.272C147.598 54.6097 150.044 51.8411 149.67 51.1362C149.402 50.8884 149.375 50.4588 149.61 50.1767C151.127 49.3041 151.463 51.8796 150.316 53.1857C150.015 53.7205 148.057 56.2391 147.952 56.7897C147.899 57.2318 148.412 57.8555 148.647 58.3214C149.722 60.2925 149.069 62.8013 147.44 64.1982C145.477 65.8016 147.111 66.7088 145.76 67Z" fill="#FAD100"/>
<path d="M57.3084 118C57.014 118 56.7416 117.819 56.6496 117.537C54.9381 112.25 48.4786 116.063 47.9294 111.663C47.9518 111.335 47.7942 111.251 47.491 111.014C46.3729 110.221 45.795 108.82 46.0663 107.515C46.2276 106.679 47.6038 106.931 47.4203 107.768C47.2683 108.509 47.5666 109.34 48.1627 109.837C49.941 110.787 48.5752 112.29 50.4803 112.758C53.6174 112.793 57.0304 113.971 57.9674 117.148C58.1104 117.561 57.7638 118.007 57.3084 118Z" fill="#FAD100"/>
<path d="M105.939 66.9068C102.177 66.9068 100.106 64.8316 100.106 61.0634C100.127 59.6491 97.903 59.642 97.9238 61.0634C97.6941 68.8787 91.2779 65.4156 91 67.9996C91.2905 70.5783 97.7107 67.1446 97.9238 74.9368C97.9033 76.3509 100.127 76.3579 100.106 74.9366C100.106 71.1684 102.177 69.0932 105.939 69.0932C107.35 69.114 107.357 66.886 105.939 66.9068Z" fill="#EE682F"/>
<path d="M204.536 108.022C202.89 108.022 201.984 107.114 201.984 105.465C201.993 104.846 201.02 104.843 201.029 105.465C200.939 108.849 198.246 107.346 198 108.5C198.234 109.648 200.945 108.157 201.029 111.535C201.02 112.153 201.993 112.157 201.984 111.535C201.984 109.886 202.89 108.978 204.536 108.978C205.153 108.988 205.156 108.013 204.536 108.022Z" fill="#EE682F"/>
<path d="M114.403 50.885C112.287 50.885 111.122 49.7177 111.122 47.5982C111.134 46.8026 109.883 46.7986 109.895 47.5982C109.772 51.9738 106.228 50.0328 106 51.4999C106.212 52.9597 109.78 51.0335 109.895 55.402C109.883 56.1974 111.134 56.2014 111.122 55.4018C111.122 53.2822 112.287 52.1149 114.403 52.1149C115.197 52.1265 115.201 50.873 114.403 50.885Z" fill="#F6EB3A"/>
<path d="M55.3555 101.962C49.9472 101.656 48.081 103.522 52.3552 97.2994C52.6054 96.909 53.1353 96.8986 53.3985 97.2787L55.8705 100.849C56.188 101.308 55.8854 101.962 55.3555 101.962Z" fill="#AD75F5"/>
<path d="M125.569 61.9764C122.031 61.7982 120.684 62.905 123.564 59.1796C123.731 58.9454 124.085 58.9392 124.261 59.1671L125.913 61.3085C126.126 61.584 125.924 61.9764 125.569 61.9764Z" fill="#87BF02"/>
<path d="M189.569 101.976C186.031 101.798 184.684 102.905 187.564 99.1796C187.731 98.9455 188.085 98.9392 188.261 99.1671L189.913 101.309C190.126 101.584 189.923 101.976 189.569 101.976Z" fill="#87BF02"/>
<path d="M73.9997 72C74.0376 74.6667 69.9621 74.6667 70.0003 71.9998C69.9626 69.3334 74.0381 69.3334 73.9997 72Z" fill="#FF5957"/>
<path d="M201 90C201.038 92.6667 196.962 92.6667 197 89.9998C196.962 87.3334 201.038 87.3334 201 90Z" fill="#FF5957"/>
<path d="M73.8854 51.7828C74.7923 54.9645 70.0492 56.3903 69.1146 53.2172C68.2077 50.0355 72.951 48.6097 73.8854 51.7828Z" fill="#FF5957"/>
<path d="M156.755 45.5293C155.495 48.5472 150.898 46.4493 152.245 43.4704C153.505 40.4531 158.102 42.5507 156.755 45.5293Z" fill="#5DC3EC"/>
<path d="M72.9998 87.5001C73.0283 89.5 69.9714 89.5 70.0002 87.4998C69.9719 85.5001 73.0286 85.4999 72.9998 87.5001Z" fill="#C59DF8"/>
</g>
<defs>
<linearGradient id="paint0_linear_2407_37056" x1="125" y1="250" x2="125" y2="0" gradientUnits="userSpaceOnUse">
<stop stop-color="white" stop-opacity="0"/>
<stop offset="1" stop-color="#7143FF"/>
</linearGradient>
</defs>
</svg>
