<svg width="28" height="24" viewBox="0 0 28 24" fill="none" xmlns="http://www.w3.org/2000/svg">
<path d="M25.657 18.505C22.6966 18.5545 19.7362 18.5842 16.7758 18.5941C13.8055 18.6139 10.8402 18.6089 7.87977 18.5792C6.40452 18.5594 4.92432 18.5396 3.43917 18.5198C3.06294 18.5099 2.6867 18.505 2.31046 18.505C2.23621 18.505 2.28076 18.505 2.31046 18.505C2.27086 18.4951 2.23126 18.4901 2.19165 18.4901C2.13225 18.4802 2.07284 18.4654 2.01343 18.4456C1.95403 18.4357 1.89462 18.4208 1.83522 18.401C1.89462 18.4158 1.85007 18.401 1.83522 18.3861C1.78571 18.3663 1.74116 18.3465 1.70156 18.3267C1.65205 18.297 1.60255 18.2624 1.55304 18.2228C1.53324 18.2129 1.51343 18.203 1.49363 18.1931C1.47878 18.1782 1.38967 18.104 1.44908 18.1634C1.35997 18.0842 1.28076 17.9951 1.21145 17.896C1.19165 17.8663 1.17185 17.8366 1.15205 17.8069C1.1075 17.7475 1.13719 17.7921 1.13719 17.8069C1.10749 17.7475 1.08274 17.6931 1.06294 17.6436C1.03323 17.5842 1.00848 17.5248 0.988679 17.4653C0.988679 17.4653 0.958976 17.3465 0.988679 17.4356C0.978778 17.396 0.968884 17.3614 0.958983 17.3317C0.899577 16.9901 0.914421 16.6337 0.914421 16.2921C0.894619 15.9257 0.879769 15.5545 0.869868 15.1782C0.859967 14.4456 0.845118 13.7129 0.825316 12.9802C0.810464 11.5248 0.795617 10.0545 0.810468 8.58416C0.820369 7.10891 0.845121 5.62871 0.884725 4.14356C0.894626 3.76732 0.90452 3.39109 0.914421 3.01485C0.929273 2.68812 0.899577 2.33168 0.958983 2.00495C0.958983 1.9901 0.988686 1.90099 0.958983 2.00495C0.968884 1.97525 0.978778 1.94554 0.988679 1.91584C1.00353 1.85643 1.01839 1.79703 1.04809 1.73763C0.988682 1.84159 1.06294 1.66337 1.04809 1.73763C1.05799 1.70792 1.07284 1.68317 1.09264 1.66337C1.12234 1.60396 1.15205 1.5297 1.1966 1.48515C1.10749 1.57426 1.18175 1.5 1.21145 1.48515C1.22135 1.46535 1.23621 1.44554 1.25601 1.42574C1.29562 1.37623 1.34017 1.33169 1.38967 1.29208C1.30056 1.38119 1.43422 1.26237 1.46393 1.24752C1.49363 1.21782 1.52334 1.19802 1.55304 1.18812C1.56789 1.17327 1.67185 1.11386 1.58274 1.15841C1.69165 1.10891 1.80552 1.06931 1.92433 1.0396C1.85007 1.05446 1.92433 1.0396 1.93918 1.02475C1.96888 1.02475 1.99858 1.0198 2.02828 1.0099C2.11739 0.999999 2.20155 0.995052 2.28076 0.995052C2.6471 0.995052 3.01344 0.990096 3.37977 0.980195C4.11245 0.970294 4.85006 0.960391 5.59264 0.95049C7.07779 0.930688 8.55799 0.915838 10.0332 0.905937C13.0035 0.886135 15.9689 0.891091 18.9293 0.920794C20.4045 0.930695 21.8847 0.945545 23.3699 0.965347C24.1025 0.975248 24.8352 0.985151 25.5679 0.995052C25.6867 1.0099 25.4936 0.995048 25.6125 1.0099C25.6422 1.0099 25.6669 1.0099 25.6867 1.0099C25.7461 1.0198 25.8055 1.03465 25.8649 1.05445C25.9243 1.06435 25.9837 1.08416 26.0431 1.11386C25.9689 1.08416 26.0728 1.12871 26.0728 1.12871C26.1124 1.14851 26.1471 1.16336 26.1768 1.17326C26.2263 1.20297 26.2758 1.23762 26.3253 1.27722C26.355 1.28713 26.3798 1.30198 26.3996 1.32178C26.4144 1.33663 26.4738 1.39604 26.4293 1.33663C26.5283 1.42574 26.6174 1.52475 26.6966 1.63366C26.7065 1.65347 26.7164 1.67326 26.7263 1.69306C26.8006 1.78217 26.6966 1.63367 26.756 1.73763C26.7857 1.78713 26.8105 1.84158 26.8303 1.90099C26.86 1.95049 26.8798 2.00495 26.8897 2.06435C26.9045 2.0792 26.9194 2.13861 26.9045 2.06435C26.9045 2.11386 26.9095 2.15841 26.9194 2.19802C26.9788 2.52475 26.9639 2.86633 26.9639 3.20792C26.9936 3.95049 27.0134 4.69802 27.0233 5.4505C27.053 6.9208 27.0679 8.36139 27.0679 9.84654C27.0679 11.3218 27.053 12.802 27.0233 14.2871C27.0134 15.0198 26.9936 15.7525 26.9639 16.4852C26.9639 16.8267 26.9639 17.1683 26.9194 17.5099C26.9045 17.6287 26.9342 17.4505 26.9194 17.5248C26.9095 17.5545 26.8996 17.5842 26.8897 17.6139C26.8748 17.6733 26.8451 17.7178 26.8303 17.7772C26.86 17.6881 26.8451 17.7327 26.8303 17.7624C26.8204 17.7921 26.8055 17.8267 26.7857 17.8663C26.7758 17.8861 26.761 17.9059 26.7412 17.9258C26.7263 17.9406 26.6669 18.0891 26.7115 17.9703C26.6966 18.0149 26.6372 18.0594 26.5926 18.104C26.5778 18.1337 26.4441 18.2376 26.5332 18.1782C26.4837 18.2178 26.4342 18.2525 26.3847 18.2822C26.3649 18.2921 26.3451 18.3069 26.3253 18.3267C26.3105 18.3267 26.2065 18.3861 26.2956 18.3416C26.1966 18.3911 26.0877 18.4307 25.9689 18.4604C25.9095 18.4901 26.0728 18.4455 25.954 18.4752C25.9243 18.4752 25.8946 18.4802 25.8649 18.4901C25.7956 18.5 25.7263 18.505 25.657 18.505C25.1818 18.5198 25.0035 19.4109 25.5679 19.396C26.1619 19.3812 26.7412 19.0842 27.1422 18.6386C27.3501 18.401 27.5134 18.1337 27.6174 17.8366C27.7362 17.5099 27.7511 17.1832 27.7511 16.8416C27.8105 15.3267 27.8501 13.8069 27.8699 12.2822C27.8996 9.21288 27.8699 6.14357 27.7808 3.07426C27.7511 2.5099 27.7956 1.93069 27.5877 1.41089C27.5877 1.41089 27.5827 1.40594 27.5728 1.39603C27.5728 1.38613 27.5679 1.37624 27.558 1.36634C27.558 1.35644 27.558 1.34654 27.558 1.33663C27.5481 1.32673 27.5431 1.31683 27.5431 1.30693C27.5332 1.29703 27.5283 1.28713 27.5283 1.27722C27.5085 1.24752 27.4936 1.22277 27.4837 1.20297C27.1867 0.683165 26.7115 0.297026 26.1323 0.163363C25.8055 0.0891053 25.4491 0.103962 25.1223 0.103962C24.7362 0.0940612 24.355 0.0841584 23.9788 0.0742574C23.2164 0.0643565 22.454 0.0544536 21.6917 0.0445527C18.6421 0.0148497 15.5926 0 12.5431 0C9.49364 0.00990099 6.44908 0.0396003 3.40948 0.0891053C3.03819 0.0891053 2.65205 0.0891107 2.28076 0.103962C1.99858 0.118814 1.7164 0.193066 1.46393 0.311878C0.899571 0.594056 0.439174 1.099 0.246104 1.69306C0.142144 2.0198 0.127294 2.33168 0.127294 2.65841C0.107492 3.03465 0.0926425 3.41089 0.0827415 3.78713C0.0629395 4.55941 0.0480898 5.32673 0.0381888 6.08911C-0.0212171 9.16832 -0.0113143 12.2426 0.0678936 15.3119C0.0777946 15.6881 0.0876883 16.0644 0.0975893 16.4406C0.112441 16.797 0.112448 17.1535 0.142151 17.5099C0.201557 18.104 0.528288 18.6386 1.00354 18.9951C1.22631 19.1584 1.47878 19.2772 1.74611 19.3366C2.08769 19.4258 2.45898 19.396 2.81542 19.4109C3.55799 19.4208 4.30551 19.4307 5.05799 19.4406C8.10749 19.4802 11.162 19.5 14.2214 19.5C17.261 19.5 20.3006 19.4753 23.3402 19.4257C24.0827 19.4158 24.8253 19.4059 25.5679 19.396C26.0431 19.3812 26.2214 18.4901 25.657 18.505Z" fill="white"/>
<path d="M25.3005 16.412C22.35 16.4615 19.4045 16.4962 16.4639 16.516C13.5134 16.5259 10.5629 16.516 7.61242 16.4863C5.94906 16.4665 4.28569 16.4417 2.62232 16.412C2.70153 16.511 2.77578 16.61 2.84509 16.709C2.75598 14.8477 2.70153 12.9863 2.68173 11.1249C2.66193 9.25359 2.67678 7.38726 2.72628 5.52588C2.75598 4.47637 2.79559 3.42687 2.84509 2.37736C2.75598 2.51597 2.66688 2.64964 2.57777 2.77835C5.52826 2.71895 8.47876 2.68429 11.4293 2.67439C14.3699 2.66449 17.3154 2.67439 20.2659 2.7041C21.9293 2.7239 23.5926 2.74865 25.256 2.77835C25.1768 2.67934 25.1025 2.58033 25.0332 2.48132C25.1223 4.34271 25.1768 6.20409 25.1966 8.06548C25.2164 9.93677 25.2015 11.8031 25.152 13.6645C25.1223 14.714 25.0827 15.7585 25.0332 16.7982C25.0332 16.9615 25.1669 17.1397 25.3302 17.11C25.5233 17.0803 25.5827 16.8724 25.5976 16.709C25.6867 14.8477 25.7411 12.9863 25.7609 11.1249C25.7807 9.25359 25.7659 7.38726 25.7164 5.52588C25.6867 4.47637 25.6471 3.42687 25.5976 2.37736C25.5827 2.2734 25.5233 2.08033 25.3748 2.08033C22.4144 2.02093 19.4491 1.98627 16.4788 1.97637C13.5085 1.96647 10.5332 1.97637 7.55301 2.00607C5.88965 2.02588 4.22133 2.05063 2.54806 2.08033C2.36984 2.08033 2.29559 2.33281 2.28074 2.48132C2.19163 4.34271 2.13718 6.20409 2.11737 8.06548C2.09757 9.93677 2.11242 11.8031 2.16193 13.6645C2.19163 14.714 2.23123 15.7585 2.28074 16.7982C2.29559 16.917 2.36985 17.11 2.50351 17.11C5.4639 17.1694 8.42926 17.2041 11.3996 17.214C14.3699 17.2239 17.3451 17.214 20.3253 17.1843C21.9887 17.1645 23.657 17.1397 25.3302 17.11C25.5085 17.11 25.5976 16.8576 25.5976 16.709C25.5827 16.5308 25.4788 16.3972 25.3005 16.412Z" fill="white"/>
<path d="M17.4738 21.3548C15.6718 21.3845 13.8649 21.3895 12.053 21.3697C11.5282 21.3697 11.0084 21.3647 10.4936 21.3548C10.6025 21.4538 10.7164 21.5528 10.8352 21.6518C10.7609 20.7756 10.7609 19.9142 10.8352 19.038C10.6867 19.1964 10.5431 19.3499 10.4045 19.4984C12.2065 19.4786 14.0134 19.4736 15.8253 19.4835C16.35 19.4934 16.8698 19.4984 17.3847 19.4984C17.2758 19.4093 17.1619 19.3152 17.0431 19.2162C17.1174 20.0924 17.1174 20.9538 17.0431 21.8301C17.0282 22.038 17.1619 22.2459 17.3847 22.2162C17.6074 22.2013 17.8005 21.9786 17.8154 21.7558C17.8896 20.8202 17.8896 19.8697 17.8154 18.934C17.8005 18.741 17.652 18.637 17.4738 18.637C15.6718 18.6172 13.8649 18.6122 12.053 18.6221C11.5282 18.632 11.0084 18.637 10.4936 18.637C10.2708 18.6518 10.0777 18.9043 10.0629 19.1122C9.98864 20.0479 9.98864 20.9984 10.0629 21.934C10.0777 22.1122 10.2263 22.2162 10.4045 22.2162C12.2065 22.236 14.0134 22.241 15.8253 22.2311C16.35 22.2311 16.8698 22.2261 17.3847 22.2162C17.8451 22.2162 18.0233 21.3548 17.4738 21.3548Z" fill="white"/>
<path d="M19.7907 23.1541C16.7709 23.1739 13.7511 23.1789 10.7313 23.169C9.87984 23.169 9.02835 23.164 8.17687 23.1541C8.28578 23.2828 8.39469 23.4116 8.5036 23.5403C8.5036 23.4363 8.48875 23.3472 8.4739 23.2581C8.4739 23.3324 8.4739 23.2135 8.4739 23.1987C8.4838 23.1789 8.48875 23.1541 8.48875 23.1244C8.48875 23.1244 8.5036 23.0502 8.48875 23.0947C8.47389 23.1393 8.5036 23.0353 8.51845 23.0205C8.51845 23.0056 8.56301 22.8868 8.54815 22.9462C8.51845 22.9908 8.57786 22.8868 8.57786 22.872C8.60756 22.8324 8.63232 22.7928 8.65212 22.7531C8.59271 22.8423 8.68182 22.7234 8.69667 22.7086C8.72637 22.6789 8.75113 22.6541 8.77093 22.6343C8.79073 22.6145 8.81053 22.5997 8.83034 22.5898C8.75608 22.6343 8.81549 22.5898 8.83034 22.5898C8.86994 22.5601 8.90954 22.5304 8.94915 22.5007C8.97885 22.4809 9.01351 22.4561 9.05311 22.4264C9.07291 22.4264 9.08776 22.4215 9.09766 22.4116C9.08281 22.4116 9.03825 22.4413 9.11251 22.3967C9.19172 22.3571 9.27588 22.3274 9.36499 22.3076C9.40459 22.2878 9.44915 22.2729 9.49865 22.263C9.43925 22.2779 9.5432 22.263 9.55805 22.2482C9.64716 22.2383 9.73627 22.2333 9.82538 22.2333C10.0828 22.2333 10.3402 22.2333 10.5977 22.2333C11.1125 22.2333 11.6274 22.2333 12.1422 22.2333C13.1818 22.2234 14.2165 22.2234 15.2462 22.2333C15.761 22.2333 16.2759 22.2333 16.7907 22.2333C17.0482 22.2333 17.3056 22.2333 17.563 22.2333C17.8006 22.2333 17.964 22.2185 18.1571 22.2482C18.266 22.268 18.3699 22.2977 18.4689 22.3373C18.4788 22.3373 18.4937 22.3423 18.5135 22.3522C18.4689 22.3373 18.5432 22.3522 18.5432 22.367C18.5927 22.3868 18.6373 22.4066 18.6769 22.4264C18.8699 22.5304 18.9887 22.6195 19.1076 22.7531C19.2561 22.9165 19.2858 22.9759 19.3749 23.169C19.3897 23.2432 19.3749 23.1987 19.3749 23.1838C19.3749 23.2036 19.3798 23.2234 19.3897 23.2432C19.3996 23.2928 19.4046 23.3472 19.4046 23.4066C19.4046 23.4512 19.4046 23.3918 19.4046 23.3918C19.4046 23.4215 19.4046 23.4512 19.4046 23.4809C19.3897 23.5254 19.3749 23.57 19.3749 23.6145C19.3749 23.8076 19.4788 24.0007 19.7165 23.9858C19.9095 23.971 20.1175 23.7482 20.1175 23.5403C20.1175 23.4512 20.1472 23.3769 20.1472 23.2878C20.1472 23.169 20.1472 23.0502 20.1175 22.9314C20.0729 22.7234 19.9838 22.5304 19.865 22.3373C19.6422 22.0106 19.3155 21.7432 18.9442 21.5947C18.7511 21.5056 18.5432 21.4462 18.3204 21.4165C18.068 21.3868 17.8006 21.4017 17.5482 21.4017C16.9838 21.4017 16.4244 21.4017 15.8699 21.4017C14.7511 21.4017 13.6373 21.4017 12.5284 21.4017C11.964 21.4017 11.4046 21.4017 10.8501 21.4017C10.3452 21.4017 9.84024 21.3571 9.35014 21.4908C8.90459 21.6096 8.45905 21.8918 8.17687 22.2482C8.0135 22.4561 7.86499 22.6789 7.80558 22.9314C7.76103 23.065 7.73132 23.1838 7.73132 23.3175C7.73132 23.3868 7.73132 23.4561 7.73132 23.5254C7.73132 23.57 7.76103 23.763 7.76103 23.6145C7.76103 23.8225 7.85014 23.9858 8.08776 23.9858C11.1076 23.9957 14.1274 24.0007 17.1472 24.0007C17.9987 23.9908 18.8551 23.9858 19.7165 23.9858C19.9244 23.9858 20.1026 23.7333 20.1175 23.5403C20.1472 23.3175 20.0135 23.1541 19.7907 23.1541Z" fill="white"/>
<path d="M5.96392 8.02073C5.42927 7.95142 4.89461 7.95142 4.35996 8.02073C4.24115 8.03558 4.16689 8.13954 4.16689 8.25835C4.14709 10.0306 4.14215 11.8079 4.15205 13.59C4.15205 14.095 4.15699 14.5999 4.16689 15.1049C4.16689 15.1791 4.1966 15.298 4.2857 15.3128C4.82036 15.3722 5.35501 15.3722 5.88966 15.3128C6.00847 15.298 6.08274 15.1791 6.08274 15.0752C6.09264 13.293 6.09759 11.5158 6.09759 9.7435C6.09759 9.23855 6.09264 8.7336 6.08274 8.22865C6.08274 7.93162 5.71145 7.97617 5.71145 8.25835C5.72135 10.0306 5.7263 11.8079 5.7263 13.59C5.7164 14.095 5.71145 14.5999 5.71145 15.1049C5.78076 15.0257 5.84511 14.9465 5.90452 14.8673C5.41442 14.9267 4.90946 14.9267 4.40451 14.8673C4.44412 14.9366 4.48868 15.0059 4.53818 15.0752C4.51838 13.293 4.51343 11.5158 4.52333 9.7435C4.52333 9.23855 4.52828 8.7336 4.53818 8.22865C4.46887 8.30785 4.40452 8.38707 4.34511 8.46627C4.83521 8.39202 5.34016 8.39201 5.84511 8.45142C5.96392 8.46627 6.05304 8.39202 6.08274 8.28806C6.09759 8.19895 6.06788 8.03558 5.96392 8.02073Z" fill="white"/>
<path d="M8.88968 10.975C8.37483 10.9354 7.85999 10.9354 7.34514 10.975C7.22632 10.975 7.15206 11.1087 7.15206 11.2126C7.13226 12.5097 7.13226 13.8067 7.15206 15.1037C7.15206 15.2077 7.21147 15.2968 7.33028 15.3117C7.84513 15.3513 8.35998 15.3513 8.87484 15.3117C8.99365 15.2968 9.0679 15.178 9.0679 15.074C9.08771 13.777 9.08771 12.48 9.0679 11.1829C9.0679 10.8859 8.69662 10.9453 8.69662 11.2126C8.71642 12.5097 8.71642 13.8067 8.69662 15.1037C8.76592 15.0245 8.83028 14.9453 8.88968 14.8661C8.37483 14.8958 7.85999 14.8958 7.34514 14.8661C7.40454 14.9354 7.46394 15.0047 7.52335 15.074C7.50354 13.777 7.50354 12.48 7.52335 11.1829C7.45404 11.2621 7.38968 11.3414 7.33028 11.4206C7.84513 11.381 8.35998 11.381 8.87484 11.4206C9.11246 11.4354 9.15701 10.9899 8.88968 10.975Z" fill="white"/>
<path d="M12.157 10.0102C11.5431 9.97057 10.9342 9.97057 10.3302 10.0102C10.2114 10.025 10.1372 10.1438 10.1372 10.2478C10.1174 11.8617 10.1174 13.4805 10.1372 15.1042C10.1372 15.2082 10.1966 15.2973 10.3154 15.3122C10.9193 15.3617 11.5233 15.3617 12.1273 15.3122C12.2461 15.2973 12.3203 15.1785 12.3352 15.0745C12.3451 13.4607 12.3451 11.8419 12.3352 10.2181C12.3203 9.93592 11.949 9.98047 11.949 10.2478C11.9689 11.8617 11.9689 13.4805 11.949 15.1042C12.0184 15.025 12.0877 14.9458 12.157 14.8666C11.5431 14.9062 10.9342 14.9062 10.3302 14.8666C10.3896 14.9359 10.449 15.0052 10.5085 15.0745C10.4887 13.4607 10.4887 11.8419 10.5085 10.2181C10.4391 10.2973 10.3748 10.3765 10.3154 10.4557C10.9193 10.4161 11.5233 10.4161 12.1273 10.4557C12.3649 10.4854 12.4094 10.0399 12.157 10.0102Z" fill="white"/>
<path d="M15.1422 12.0731C14.5283 12.0434 13.9194 12.0434 13.3155 12.0731C13.2115 12.0731 13.1224 12.2067 13.1224 12.3107C13.1026 13.2414 13.1026 14.1721 13.1224 15.1028C13.1224 15.2067 13.1818 15.2958 13.3006 15.3107C13.9046 15.3404 14.5135 15.3404 15.1273 15.3107C15.2313 15.3107 15.3204 15.177 15.3204 15.0731C15.3303 14.1424 15.3303 13.2117 15.3204 12.281C15.3056 11.984 14.9343 12.0434 14.9491 12.3107C14.959 13.2414 14.959 14.1721 14.9491 15.1028C15.0085 15.0236 15.0729 14.9443 15.1422 14.8651C14.5283 14.8849 13.9194 14.8849 13.3155 14.8651C13.3749 14.9344 13.4343 15.0038 13.4937 15.0731C13.4739 14.1424 13.4739 13.2117 13.4937 12.281C13.4343 12.3602 13.3699 12.4394 13.3006 12.5186C13.9046 12.4889 14.5135 12.4889 15.1273 12.5186C15.3501 12.5335 15.3947 12.0879 15.1422 12.0731Z" fill="white"/>
<path d="M19.4639 4.02622C19.454 4.64009 19.4491 5.25395 19.4491 5.86781C19.4491 5.97177 19.5085 6.07573 19.6273 6.07573C20.2065 6.07573 20.756 6.40247 21.0085 6.93712C21.2907 7.50148 21.1867 8.1995 20.7115 8.64504C20.6224 8.7193 20.563 8.88266 20.6669 9.00147C21.0828 9.45692 21.4986 9.91237 21.9144 10.3678C21.9887 10.4569 22.0927 10.4272 22.1669 10.353C23.1026 9.46187 23.5778 8.14009 23.3402 6.87771C23.1471 5.7787 22.4639 4.7688 21.4837 4.23415C20.9342 3.92227 20.2956 3.7589 19.657 3.7886C19.4342 3.80346 19.3897 4.249 19.6422 4.23415C20.6669 4.18959 21.6323 4.6797 22.2709 5.45197C22.9392 6.28366 23.1917 7.38266 22.9243 8.40741C22.7461 9.04603 22.3897 9.59554 21.9293 10.0559C22.0184 10.046 22.1026 10.0411 22.1818 10.0411C21.7659 9.57573 21.3501 9.11534 20.9342 8.65989C20.9144 8.7787 20.8996 8.89752 20.8897 9.01633C21.4986 8.43712 21.7214 7.53117 21.3798 6.74405C21.0828 6.06088 20.3847 5.61533 19.6422 5.63018C19.7016 5.69949 19.761 5.7688 19.8204 5.83811C19.8204 5.22425 19.8253 4.61038 19.8352 3.99652C19.8501 3.69949 19.4788 3.7589 19.4639 4.02622Z" fill="white"/>
<path d="M16.3153 6.41453C16.8797 6.65215 17.449 6.89472 18.0233 7.14225C18.0975 7.17195 18.2163 7.08284 18.246 7.02344C18.4837 6.44423 19.0332 6.08779 19.6718 6.07294C19.7757 6.07294 19.8649 5.93928 19.8649 5.83532C19.8649 5.22146 19.855 4.60759 19.8352 3.99373C19.8352 3.88977 19.7906 3.78581 19.6569 3.78581C18.1718 3.75611 16.7906 4.73631 16.2114 6.08779C16.1668 6.19175 16.1668 6.32542 16.2708 6.38482C16.3599 6.44423 16.4787 6.38482 16.5233 6.29571C17.0579 5.04818 18.2906 4.20166 19.6421 4.23136C19.5827 4.16205 19.5233 4.09274 19.4639 4.02343C19.4837 4.6373 19.4936 5.25116 19.4936 5.86502C19.553 5.78581 19.6173 5.7066 19.6866 5.62739C18.9144 5.64224 18.2312 6.11749 17.9342 6.81551C18.0035 6.77591 18.0728 6.73631 18.1421 6.6967C17.5678 6.45908 16.9936 6.21651 16.4193 5.96898C16.2114 5.87988 16.0926 6.31057 16.3153 6.41453Z" fill="white"/>
<path d="M16.4787 9.267C17.0431 9.01452 17.6074 8.7472 18.1569 8.47987C18.2906 8.42047 18.35 8.27195 18.2906 8.15314C18.1272 7.78185 18.0975 7.36601 18.246 6.99472C18.3054 6.87591 18.2906 6.74225 18.1569 6.68285C17.5777 6.43037 17.0134 6.19274 16.449 5.95512C16.3599 5.92542 16.2559 6.01452 16.2262 6.07393C15.8104 7.08383 15.8252 8.18284 16.2856 9.17789C16.4044 9.44522 16.7163 9.14819 16.6124 8.94027C16.2262 8.09374 16.1817 7.14324 16.5381 6.28185C16.4688 6.32146 16.3995 6.36106 16.3302 6.40066C16.9094 6.62344 17.4738 6.87591 18.0381 7.11353C18.0084 7.00462 17.9738 6.89572 17.9342 6.78681C17.7262 7.30661 17.7262 7.88582 17.9639 8.39077C18.0035 8.28186 18.0431 8.17294 18.0827 8.06403C17.5332 8.33136 16.9688 8.59868 16.4045 8.85116C16.3005 8.89571 16.2411 9.01453 16.2559 9.13334C16.2856 9.22245 16.3748 9.32641 16.4787 9.267Z" fill="white"/>
<path d="M19.6719 9.03021C19.0779 9.01536 18.5284 8.67377 18.2759 8.13912C18.2462 8.06486 18.1571 8.00545 18.068 8.03515C17.5036 8.30248 16.9393 8.56981 16.3749 8.83714C16.2561 8.89654 16.1818 9.04506 16.2412 9.16387C16.6125 9.96585 17.266 10.6045 18.0531 10.9757C18.9145 11.3767 19.865 11.451 20.7709 11.154C21.2908 10.9906 21.766 10.7084 22.167 10.352C22.2561 10.2629 22.3155 10.0995 22.2264 9.99555C21.8106 9.54011 21.3898 9.08466 20.964 8.62921C20.9046 8.56981 20.8006 8.55496 20.7412 8.61437C20.4294 8.88169 20.0729 9.01536 19.6719 9.03021C19.4343 9.03021 19.3898 9.47575 19.6571 9.47575C20.1175 9.4609 20.563 9.29754 20.9046 8.98565C20.8254 8.97575 20.7511 8.96585 20.6818 8.95595C21.1076 9.41139 21.5284 9.86684 21.9442 10.3223C21.964 10.2035 21.9838 10.0847 22.0036 9.96585C21.3205 10.5599 20.4591 10.9163 19.568 10.8866C18.7511 10.8718 17.964 10.5302 17.37 9.99555C17.0432 9.69852 16.761 9.32723 16.5828 8.92624C16.5333 9.03516 16.4888 9.14901 16.4492 9.26783C17.0234 9.0005 17.5927 8.73318 18.1571 8.46585C18.0878 8.43615 18.0185 8.40644 17.9492 8.37674C18.2462 9.04505 18.9145 9.4609 19.6571 9.47575C19.8799 9.47575 19.9244 9.03021 19.6719 9.03021Z" fill="white"/>
<path d="M5.54816 9.4297C5.63727 9.31089 5.72638 9.23663 5.87489 9.14752C5.97885 9.08811 6.00855 8.9396 5.94915 8.85049C5.87489 8.73168 5.74123 8.71683 5.63727 8.76138C5.47391 8.85049 5.32538 8.98415 5.22142 9.11781C5.14717 9.22178 5.13231 9.35544 5.22142 9.44455C5.31053 9.51881 5.45905 9.53366 5.54816 9.4297Z" fill="white"/>
<path d="M5.66692 10.3645C5.69662 10.3447 5.72137 10.32 5.74117 10.2903C5.76098 10.2804 5.77584 10.2705 5.78574 10.2606C5.81544 10.2309 5.74118 10.2903 5.80058 10.2457C5.85999 10.2061 5.9194 10.1715 5.9788 10.1418C6.08276 10.0824 6.11247 9.91899 6.05306 9.82988C5.9788 9.72592 5.84514 9.68137 5.74117 9.75562C5.59266 9.82988 5.459 9.93384 5.35504 10.0527C5.26593 10.1418 5.26593 10.2903 5.35504 10.3794C5.44415 10.4536 5.59266 10.4536 5.66692 10.3645Z" fill="white"/>
<path d="M5.81536 11.3031C5.81536 11.2833 5.82527 11.2635 5.84507 11.2437C5.84507 11.2288 5.87477 11.1991 5.87477 11.1843C5.87477 11.1991 5.84507 11.214 5.85993 11.1991C5.86983 11.1892 5.87972 11.1793 5.88962 11.1694C5.90942 11.1496 5.92923 11.1348 5.94903 11.1249C6.03814 11.0358 6.02329 10.8724 5.93418 10.7982C5.83022 10.709 5.7114 10.7239 5.6223 10.813C5.53319 10.8873 5.45894 10.9764 5.41438 11.0952C5.38468 11.1397 5.38467 11.1991 5.39952 11.2585C5.41438 11.3179 5.45893 11.3774 5.50349 11.3922C5.60745 11.4516 5.75596 11.4219 5.81536 11.3031Z" fill="white"/>
<path d="M5.68177 12.3715C5.79069 12.2329 5.90454 12.0993 6.02336 11.9705C6.09761 11.8814 6.09762 11.7329 6.00851 11.6438C5.93425 11.5695 5.77088 11.5696 5.69662 11.6587C5.57781 11.7874 5.46395 11.921 5.35504 12.0597C5.26593 12.1488 5.26593 12.2973 5.35504 12.3715C5.44415 12.4606 5.59267 12.4606 5.68177 12.3715Z" fill="white"/>
<path d="M5.60749 13.4101C5.71145 13.217 5.84512 13.0536 6.02333 12.9051C6.11244 12.8309 6.09759 12.6675 6.00849 12.5784C5.91938 12.4893 5.78571 12.519 5.6966 12.5932C5.50353 12.7566 5.34016 12.9645 5.2065 13.2021C5.07284 13.4546 5.45898 13.6774 5.60749 13.4101Z" fill="white"/>
<path d="M5.68173 14.2711C5.77084 14.1226 5.88965 14.0038 6.02331 13.885C6.11242 13.8107 6.09757 13.6474 6.00846 13.5731C5.91936 13.484 5.78569 13.4988 5.69658 13.5731C5.53321 13.7216 5.39955 13.8701 5.28074 14.0484C5.20648 14.1523 5.26588 14.3008 5.36984 14.3602C5.48866 14.4196 5.60747 14.3602 5.68173 14.2711Z" fill="white"/>
<path d="M8.42933 12.2971C8.60755 12.109 8.79072 11.9258 8.97884 11.7476C9.18676 11.5546 8.86003 11.2427 8.65211 11.4358C8.46399 11.614 8.28082 11.7971 8.1026 11.9853C7.89468 12.1783 8.22141 12.4902 8.42933 12.2971Z" fill="white"/>
<path d="M8.50348 13.1154C8.64209 12.9867 8.78565 12.8679 8.93417 12.7589C9.03813 12.6847 9.08268 12.551 9.00842 12.4471C8.94902 12.3431 8.80051 12.2986 8.69655 12.3728C8.51833 12.5015 8.34506 12.6451 8.17674 12.8035C8.08764 12.8926 8.10249 13.0411 8.17674 13.1302C8.28071 13.2045 8.41437 13.2045 8.50348 13.1154Z" fill="white"/>
<path d="M8.51832 13.9744C8.66684 13.8259 8.81535 13.6774 8.96387 13.5289C9.17179 13.321 8.84505 13.0091 8.63713 13.217C8.48862 13.3655 8.3401 13.514 8.19159 13.6626C7.98367 13.8705 8.3104 14.1823 8.51832 13.9744Z" fill="white"/>
<path d="M8.53326 14.718C8.66198 14.5596 8.80059 14.4161 8.9491 14.2873C9.05306 14.2131 9.02336 14.0497 8.9491 13.9755C8.84514 13.8863 8.72633 13.9012 8.62237 13.9755C8.47385 14.1042 8.33524 14.2477 8.20653 14.4061C8.13227 14.4953 8.11742 14.6438 8.20653 14.7329C8.29564 14.8071 8.45901 14.8071 8.53326 14.718Z" fill="white"/>
<path d="M11.6373 11.2709C11.7709 11.1372 11.9194 11.0184 12.0828 10.9441C12.2016 10.8996 12.2759 10.7956 12.2313 10.662C12.2016 10.558 12.068 10.454 11.964 10.5134C11.7115 10.6174 11.5036 10.7511 11.3105 10.959C11.1175 11.1669 11.4442 11.4788 11.6373 11.2709Z" fill="white"/>
<path d="M11.6817 12.1205C11.8302 11.9423 11.9788 11.8087 12.1718 11.7047C12.4243 11.5562 12.1867 11.17 11.9342 11.3186C11.7114 11.4374 11.5184 11.6156 11.355 11.8087C11.2807 11.8978 11.2807 12.0314 11.3698 12.1205C11.4441 12.2096 11.6075 12.2096 11.6817 12.1205Z" fill="white"/>
<path d="M11.6967 12.9221C11.8452 12.7637 12.0085 12.63 12.1868 12.5211C12.4392 12.3726 12.2016 11.9865 11.964 12.135C11.7462 12.2637 11.5482 12.4221 11.3699 12.6102C11.162 12.8181 11.4887 13.13 11.6967 12.9221Z" fill="white"/>
<path d="M11.652 13.781C11.8401 13.6325 12.0232 13.479 12.2015 13.3206C12.3054 13.2463 12.2757 13.083 12.2015 13.0087C12.0975 12.9047 11.9787 12.9344 11.8747 13.0087C11.6965 13.1671 11.5133 13.3206 11.3252 13.4691C11.2213 13.5434 11.251 13.7067 11.3252 13.781C11.4292 13.8849 11.548 13.8552 11.652 13.781Z" fill="white"/>
<path d="M11.6224 14.5083C11.8006 14.3796 11.9788 14.2459 12.157 14.1073C12.261 14.033 12.3055 13.9142 12.2313 13.7954C12.1719 13.7063 12.0234 13.6469 11.9194 13.7211C11.7412 13.8597 11.563 13.9934 11.3848 14.1221C11.2956 14.1964 11.2511 14.3152 11.3105 14.434C11.3699 14.5231 11.5333 14.5825 11.6224 14.5083Z" fill="white"/>
<path d="M14.4738 13.2486C14.6817 13.1298 14.8897 13.011 15.0976 12.8922C15.3501 12.7437 15.1124 12.3575 14.86 12.5061C14.652 12.6249 14.4441 12.7437 14.2362 12.8625C13.9986 13.011 14.2213 13.3971 14.4738 13.2486Z" fill="white"/>
<path d="M14.5777 14.0955C14.7856 13.9767 14.9985 13.8529 15.2163 13.7242C15.4539 13.5757 15.2312 13.1896 14.9787 13.3381C14.7708 13.4668 14.5579 13.5906 14.3401 13.7094C14.1025 13.8579 14.3252 14.244 14.5777 14.0955Z" fill="white"/>
<path d="M14.5927 14.8528C14.761 14.7636 14.9194 14.6597 15.0679 14.5409C15.1719 14.4666 15.2164 14.3478 15.1422 14.229C15.0828 14.1399 14.9343 14.0805 14.8452 14.1547C14.6867 14.2735 14.5234 14.3775 14.355 14.4666C14.1026 14.6151 14.3402 15.0013 14.5927 14.8528Z" fill="white"/>
<path d="M19.8501 5.49504C20.256 5.1485 20.6867 4.83167 21.1422 4.54454C21.3946 4.39602 21.157 4.00989 20.9045 4.1584C20.4194 4.47524 19.959 4.81681 19.5233 5.18315C19.4194 5.25741 19.4491 5.42078 19.5233 5.49504C19.6273 5.599 19.7461 5.56929 19.8501 5.49504Z" fill="white"/>
<path d="M20.459 6.08727C20.9639 5.73083 21.4639 5.37439 21.959 5.01796C22.1966 4.83974 21.959 4.45361 21.7362 4.63182C21.2313 4.98826 20.7263 5.34469 20.2214 5.70112C19.9837 5.87934 20.2214 6.26549 20.459 6.08727Z" fill="white"/>
<path d="M21.0531 6.62456C21.3352 6.53545 21.558 6.34238 21.7956 6.17902C22.0432 6.0008 22.2907 5.82258 22.5382 5.64437C22.761 5.481 22.5382 5.09485 22.3006 5.25822C22.063 5.42654 21.8303 5.59486 21.6026 5.76318C21.3947 5.91169 21.1719 6.10476 20.9343 6.19387C20.6669 6.29783 20.7857 6.72852 21.0531 6.62456Z" fill="white"/>
<path d="M21.558 7.47005C22.0233 7.12352 22.5035 6.79679 22.9986 6.48986C23.2511 6.34134 23.0134 5.9552 22.761 6.10372C22.2659 6.41065 21.7857 6.73738 21.3204 7.08392C21.2164 7.15818 21.1718 7.29184 21.2461 7.3958C21.3055 7.49976 21.454 7.54431 21.558 7.47005Z" fill="white"/>
<path d="M21.3947 8.40666C22.0085 8.07002 22.6026 7.69873 23.1769 7.29279C23.4145 7.12943 23.1769 6.74329 22.9392 6.90666C22.365 7.3126 21.7709 7.68389 21.1571 8.02052C20.9046 8.16904 21.1422 8.55517 21.3947 8.40666Z" fill="white"/>
<path d="M21.2758 9.32536C21.9194 8.93922 22.5679 8.57288 23.2214 8.22635C23.4738 8.09268 23.2362 7.70655 22.9837 7.84021C22.3303 8.18675 21.6818 8.55309 21.0382 8.93923C20.8006 9.08774 21.0233 9.47388 21.2758 9.32536Z" fill="white"/>
<path d="M21.8551 9.87615C22.256 9.69793 22.6125 9.4306 22.9689 9.19298C23.2214 9.04446 22.9838 8.65833 22.7313 8.80684C22.563 8.92565 22.3897 9.03951 22.2115 9.14842C22.0481 9.25238 21.8996 9.35635 21.7214 9.43061C21.6174 9.49001 21.5432 9.59397 21.5729 9.71278C21.6026 9.81674 21.7362 9.9207 21.8551 9.87615Z" fill="white"/>
<path d="M17.5184 9.63695C17.8006 9.63695 17.8006 9.19141 17.5184 9.19141C17.2214 9.19141 17.2214 9.63695 17.5184 9.63695Z" fill="white"/>
<path d="M18.35 9.71117C18.6322 9.71117 18.6322 9.26562 18.3352 9.26562C18.053 9.26562 18.053 9.71117 18.35 9.71117Z" fill="white"/>
<path d="M18.3946 10.5159C18.6916 10.5159 18.6768 10.0703 18.3946 10.0703C18.0976 10.0703 18.1124 10.5159 18.3946 10.5159Z" fill="white"/>
<path d="M19.3303 9.99633C19.6273 9.99633 19.6125 9.55078 19.3303 9.55078C19.0332 9.55078 19.0481 9.99633 19.3303 9.99633Z" fill="white"/>
<path d="M19.4937 10.6487C19.7759 10.6487 19.7759 10.2031 19.4789 10.2031C19.1967 10.2031 19.1967 10.6487 19.4937 10.6487Z" fill="white"/>
<path d="M20.1471 10.0237C20.4293 10.0237 20.4293 9.57812 20.1323 9.57812C19.8501 9.57812 19.8501 10.0237 20.1471 10.0237Z" fill="white"/>
<path d="M20.548 10.5588C20.8302 10.5588 20.8302 10.1133 20.5332 10.1133C20.251 10.1133 20.251 10.5588 20.548 10.5588Z" fill="white"/>
<path d="M20.9045 10.0542C21.2016 10.0542 21.1867 9.59375 20.9045 9.59375C20.6075 9.59375 20.6075 10.0542 20.9045 10.0542Z" fill="white"/>
<path d="M17.6223 5.8956C17.7412 5.67282 17.9639 5.52431 18.1718 5.37579C18.3798 5.21243 18.6322 5.03421 18.8996 4.98965C19.0184 4.9748 19.1223 4.90054 19.1223 4.76688C19.1223 4.66292 19.0184 4.52925 18.8996 4.54411C18.5283 4.60351 18.2313 4.76688 17.9342 4.98965C17.6669 5.18272 17.3847 5.37579 17.2214 5.68767C17.0877 5.94015 17.4887 6.16292 17.6223 5.8956Z" fill="white"/>
</svg>
