<svg width="44" height="46" viewBox="0 0 44 46" fill="none" xmlns="http://www.w3.org/2000/svg">
<path d="M31.1791 9.70041C31.747 9.70041 32.2078 10.1557 32.2078 10.7174C32.2078 11.2791 31.747 11.7344 31.1791 11.7344C30.6112 11.7344 30.1504 11.2791 30.1504 10.7174C30.1504 10.1557 30.6112 9.70041 31.1791 9.70041Z" fill="white"/>
<path d="M34.1088 9.70041C34.6767 9.70041 35.1375 10.1557 35.1375 10.7174C35.1375 11.2791 34.6767 11.7344 34.1088 11.7344C33.5408 11.7344 33.0801 11.2791 33.0801 10.7174C33.0801 10.1557 33.5408 9.70041 34.1088 9.70041Z" fill="white"/>
<path d="M37.1147 9.70041C37.6826 9.70041 38.1434 10.1557 38.1434 10.7174C38.1434 11.2791 37.6826 11.7344 37.1147 11.7344C36.5467 11.7344 36.0859 11.2791 36.0859 10.7174C36.0859 10.1557 36.5467 9.70041 37.1147 9.70041Z" fill="white"/>
<path d="M7.91397 2.89458C8.46861 2.89458 8.94346 3.36395 8.94346 3.91156C8.94346 4.45916 8.46861 4.92854 7.91397 4.92854C7.36011 4.92854 6.88524 4.45916 6.88524 3.91156C6.88524 3.28572 7.36011 2.89458 7.91397 2.89458ZM7.91397 5.78906C9.02248 5.78906 9.89315 4.92854 9.89315 3.83333C9.89315 2.73812 9.02248 1.8776 7.91397 1.8776C6.80624 1.8776 5.93555 2.73812 5.93555 3.83333C5.93555 4.92854 6.80624 5.78906 7.91397 5.78906Z" fill="white"/>
<path d="M35.3743 0.939472C36.324 0.939472 37.1149 1.72176 37.1149 2.66052C37.1149 3.59927 36.324 4.38156 35.3743 4.38156C34.4246 4.38156 33.6329 3.59927 33.6329 2.66052C33.6329 1.72176 34.4246 0.939472 35.3743 0.939472ZM35.3743 5.32031C36.8779 5.32031 38.0646 4.14687 38.0646 2.66052C38.0646 1.17416 36.8779 0.000720024 35.3743 0.000720024C33.8699 0.000720024 32.6832 1.17416 32.6832 2.66052C32.6042 4.14687 33.8699 5.32031 35.3743 5.32031Z" fill="white"/>
<path d="M0.712668 6.80672C1.10616 6.80672 1.42455 7.12198 1.42455 7.51078C1.42455 7.89958 1.10616 8.21484 0.712668 8.21484C0.319174 8.21484 0 7.89958 0 7.51078C0 7.12198 0.319174 6.80672 0.712668 6.80672Z" fill="white"/>
<path d="M14.5615 1.95613C14.955 1.95613 15.2734 2.27139 15.2734 2.66019C15.2734 3.04899 14.955 3.36426 14.5615 3.36426C14.168 3.36426 13.8496 3.04899 13.8496 2.66019C13.8496 2.27139 14.168 1.95613 14.5615 1.95613Z" fill="white"/>
<path d="M28.4092 2.89461C28.8027 2.89461 29.1218 3.20987 29.1218 3.59867C29.1218 3.98747 28.8027 4.30273 28.4092 4.30273C28.0164 4.30273 27.6973 3.98747 27.6973 3.59867C27.6973 3.20987 28.0164 2.89461 28.4092 2.89461Z" fill="white"/>
<path d="M8.62672 21.9825C9.02021 21.9825 9.33862 22.2978 9.33862 22.6866C9.33862 23.0754 9.02021 23.3906 8.62672 23.3906C8.23323 23.3906 7.91406 23.0754 7.91406 22.6866C7.91406 22.2978 8.23323 21.9825 8.62672 21.9825Z" fill="white"/>
<path d="M10.6045 21.9825C10.998 21.9825 11.3164 22.2978 11.3164 22.6866C11.3164 23.0754 10.998 23.3906 10.6045 23.3906C10.211 23.3906 9.89258 23.0754 9.89258 22.6866C9.89258 22.2978 10.211 21.9825 10.6045 21.9825Z" fill="white"/>
<path d="M12.5838 21.9825C12.9765 21.9825 13.2957 22.2978 13.2957 22.6866C13.2957 23.0754 12.9765 23.3906 12.5838 23.3906C12.1903 23.3906 11.8711 23.0754 11.8711 22.6866C11.8711 22.2978 12.1903 21.9825 12.5838 21.9825Z" fill="white"/>
<path d="M19.5467 4.85066C19.9402 4.85066 20.2585 5.16593 20.2585 5.55473C20.2585 5.94352 19.9402 6.25879 19.5467 6.25879C19.1532 6.25879 18.834 5.94352 18.834 5.55473C18.834 5.16593 19.1532 4.85066 19.5467 4.85066Z" fill="white"/>
<path d="M43.2881 6.80672C43.6816 6.80672 44.0007 7.12198 44.0007 7.51078C44.0007 7.89958 43.6816 8.21484 43.2881 8.21484C42.8954 8.21484 42.5762 7.89958 42.5762 7.51078C42.5762 7.12198 42.8954 6.80672 43.2881 6.80672Z" fill="white"/>
<path d="M38.381 44.904H5.14446C3.95772 44.904 2.92822 43.9653 2.92822 42.7136V14.1599H40.5182V42.7918C40.5182 43.9653 39.5685 44.904 38.381 44.904ZM5.14446 8.29271H24.6908V10.2484H3.00802C3.08703 9.075 4.03674 8.29271 5.14446 8.29271ZM2.92822 13.1429V11.1872H24.6908V13.1429H2.92822ZM40.5182 10.4049V13.1429H25.7195V8.21449H38.381C39.5685 8.29271 40.5182 9.23146 40.5182 10.4049ZM38.381 7.27573H5.14446C3.40386 7.27573 1.97852 8.68386 1.97852 10.4049V42.7136C1.97852 44.4346 3.40386 45.8428 5.14446 45.8428H38.381C40.1223 45.8428 41.5469 44.4346 41.5469 42.7136V10.4049C41.5469 8.68386 40.1223 7.27573 38.381 7.27573Z" fill="white"/>
<path d="M30.3892 40.9929C30.4682 40.7582 30.5473 40.4453 30.6263 40.2106L33.4754 39.8194C33.7124 39.8194 33.8704 39.5848 33.8704 39.3501V37.7073C33.8704 37.4726 33.7124 37.2379 33.4754 37.2379L30.6263 36.8467C30.5473 36.4556 30.4683 36.0644 30.3102 35.7515L32.5257 33.9523C32.6837 33.7958 32.7627 33.5611 32.6837 33.3264L31.8928 31.9183C31.734 31.6836 31.497 31.6054 31.2592 31.6836L28.5689 32.7006C28.331 32.3877 28.015 32.153 27.6982 31.8401L28.7269 29.1803C28.8059 28.9456 28.7269 28.7109 28.4898 28.5544L27.0653 27.6939C26.8275 27.5374 26.5904 27.6157 26.4324 27.8504L24.612 30.0408C24.2162 29.8843 23.8203 29.8061 23.5043 29.7279L23.1084 26.9116C23.1084 26.6769 22.8706 26.5205 22.6336 26.5205H20.972C20.7342 26.5205 20.4971 26.6769 20.4971 26.9116L20.1013 29.7279C19.7055 29.8061 19.3096 29.8843 18.9936 30.0408L17.1732 27.8504C17.0152 27.6939 16.7774 27.6157 16.5403 27.6939L15.1157 28.5544C14.8787 28.7109 14.7989 28.9456 14.8787 29.1803L15.9067 31.8401C15.5906 32.0747 15.3528 32.3877 15.0367 32.7006L12.3457 31.6836C12.1086 31.6054 11.8708 31.6836 11.7128 31.9183L10.8421 33.3264C10.6841 33.5611 10.7631 33.7958 11.0009 33.9523L13.2164 35.7515C13.0583 36.1427 12.9793 36.5338 12.8995 36.8467L10.1302 37.1597C9.89316 37.1597 9.73437 37.3943 9.73437 37.629V39.2718C9.73437 39.5065 9.89316 39.7412 10.1302 39.7412L12.9793 40.1324C13.0583 40.3671 13.1373 40.68 13.2164 40.9147H6.96425V20.9662H36.6406V40.9929H30.3892ZM18.3599 40.9929C17.7271 40.2106 17.4102 39.2718 17.4102 38.2549C17.4102 35.8298 19.3894 33.9523 21.7629 33.9523C24.1372 33.9523 26.1156 35.908 26.1156 38.2549C26.1156 39.2718 25.7995 40.2106 25.1659 40.9929H18.3599ZM13.85 39.663C13.85 39.4283 13.6122 39.2718 13.4542 39.2718L10.6841 38.8807V38.0984L13.4542 37.7073C13.6912 37.7073 13.85 37.4726 13.85 37.3161C13.929 36.7685 14.087 36.2209 14.3241 35.6733C14.4039 35.4386 14.3241 35.2822 14.166 35.1257L11.9498 33.4046L12.3457 32.7006L14.9577 33.7176C15.1948 33.7958 15.3528 33.7176 15.5116 33.5611C15.9066 33.0917 16.3025 32.7006 16.6983 32.3877C16.8564 32.2312 16.9354 31.9965 16.8563 31.8401L15.8276 29.1803L16.5403 28.7891L18.2809 30.9795C18.4397 31.136 18.6767 31.2142 18.8348 31.136C19.3894 30.9013 19.9433 30.8231 20.4971 30.6666C20.7342 30.6666 20.893 30.4319 20.893 30.2755L21.288 27.5374H22.0797L22.4748 30.2755C22.4748 30.5102 22.7126 30.6666 22.8706 30.6666C23.4245 30.7449 23.9791 30.9013 24.533 31.136C24.77 31.2142 24.9288 31.136 25.0869 30.9795L26.8275 28.7891L27.5401 29.1803L26.5114 31.7618C26.4324 31.9965 26.5114 32.153 26.6694 32.3094C27.1443 32.6224 27.5401 33.0917 27.8562 33.4829C28.015 33.6393 28.252 33.7176 28.41 33.6393L31.0221 32.6224L31.418 33.3264L29.2017 35.0475C29.0437 35.2039 28.9647 35.4386 29.0437 35.5951C29.2807 36.1427 29.3597 36.6903 29.5186 37.2379C29.5186 37.4726 29.7556 37.629 29.9144 37.629L32.6837 38.0202V38.8025L29.9144 39.1936C29.6766 39.1936 29.5186 39.4283 29.5186 39.5848C29.4395 40.0541 29.3597 40.4453 29.2017 40.9147H26.2736C26.7485 40.1324 27.0653 39.1154 27.0653 38.1766C27.0653 35.2822 24.691 32.857 21.6839 32.857C18.6768 32.857 16.3025 35.2039 16.3025 38.1766C16.3025 39.1154 16.5403 40.0541 17.0942 40.9147H14.166C14.008 40.6017 13.929 40.1324 13.85 39.663ZM36.5615 18.0717V20.0274H6.88524V18.0717H36.5615ZM37.1154 17.0547H6.41039C6.17336 17.0547 5.93555 17.2894 5.93555 17.5241V41.4623C5.93555 41.697 6.17336 41.9316 6.41039 41.9316C9.57633 41.9316 29.7556 41.9316 37.1154 41.9316C37.3532 41.9316 37.5902 41.697 37.5902 41.4623V17.5241C37.5902 17.2894 37.3532 17.0547 37.1154 17.0547Z" fill="white"/>
<path d="M35.137 25.8943H30.7053C30.4683 25.8943 30.2305 26.1289 30.2305 26.3636C30.2305 26.5983 30.4683 26.833 30.7053 26.833H35.137C35.3748 26.833 35.6118 26.5983 35.6118 26.3636C35.6118 26.0507 35.3748 25.8943 35.137 25.8943Z" fill="white"/>
<path d="M35.137 23.9382H30.7053C30.4683 23.9382 30.2305 24.1729 30.2305 24.4076C30.2305 24.6423 30.4683 24.877 30.7053 24.877H35.137C35.3748 24.877 35.6118 24.6423 35.6118 24.4076C35.6118 24.0947 35.3748 23.9382 35.137 23.9382Z" fill="white"/>
<path d="M35.137 21.9831H30.7053C30.4683 21.9831 30.2305 22.2178 30.2305 22.4525C30.2305 22.6872 30.4683 22.9219 30.7053 22.9219H35.137C35.3748 22.9219 35.6118 22.6872 35.6118 22.4525C35.6118 22.1396 35.3748 21.9831 35.137 21.9831Z" fill="white"/>
</svg>
