<svg width="35" height="36" viewBox="0 0 35 36" fill="none" xmlns="http://www.w3.org/2000/svg">
<path d="M1.15371 27.8399H23.2652C23.2757 27.7154 23.287 27.5877 23.2983 27.4583C23.3966 26.3344 23.5191 24.9371 23.5191 23.2313C23.5191 23.0656 23.5888 22.9065 23.7117 22.7959C23.8342 22.6853 23.9978 22.6322 24.161 22.6514C24.4931 22.6898 24.8147 22.7094 25.1157 22.7094C26.6329 22.7094 27.7439 22.2291 28.5071 21.2419V3.52966H6.57571C6.2896 3.52966 6.04661 3.31745 6.00511 3.02975L5.73551 1.16805H1.15371V27.8399ZM23.796 29.0078H0.576647C0.258298 29.0078 0 28.7462 0 28.4238V0.584072C0 0.261683 0.258298 0.000104904 0.576647 0.000104904H6.23399C6.5201 0.000104904 6.76269 0.212311 6.8046 0.499197L7.07379 2.3613H29.0842C29.4025 2.3613 29.6608 2.62247 29.6608 2.94486V21.4362C29.6608 21.5578 29.6229 21.6765 29.5536 21.7753C28.5704 23.1701 27.0774 23.8769 25.1157 23.8769C24.9698 23.8769 24.8199 23.8732 24.6672 23.8655C24.6418 25.3358 24.535 26.556 24.4472 27.5611C24.4194 27.8811 24.3928 28.1835 24.3714 28.4687C24.348 28.7728 24.0974 29.0078 23.796 29.0078Z" fill="#4E5A2A"/>
<path d="M29.0842 8.38477H0.576647C0.258298 8.38477 0 8.124 0 7.8012C0 7.4784 0.258298 7.21722 0.576647 7.21722H29.0842C29.4025 7.21722 29.6608 7.4784 29.6608 7.8012C29.6608 8.124 29.4025 8.38477 29.0842 8.38477Z" fill="#4E5A2A"/>
<path d="M17.4071 12.9688H7.27197C6.95322 12.9688 6.69531 12.7076 6.69531 12.3848C6.69531 12.062 6.95322 11.8012 7.27197 11.8012H17.4071C17.7255 11.8012 17.9842 12.062 17.9842 12.3848C17.9842 12.7076 17.7255 12.9688 17.4071 12.9688Z" fill="#4E5A2A"/>
<path d="M17.4071 18.6504H7.27197C6.95322 18.6504 6.69531 18.3884 6.69531 18.066C6.69531 17.744 6.95322 17.482 7.27197 17.482H17.4071C17.7255 17.482 17.9842 17.744 17.9842 18.066C17.9842 18.3884 17.7255 18.6504 17.4071 18.6504Z" fill="#4E5A2A"/>
<path d="M17.4071 24.332H7.27197C6.95322 24.332 6.69531 24.0704 6.69531 23.7476C6.69531 23.4253 6.95322 23.1637 7.27197 23.1637H17.4071C17.7255 23.1637 17.9842 23.4253 17.9842 23.7476C17.9842 24.0704 17.7255 24.332 17.4071 24.332Z" fill="#4E5A2A"/>
<path d="M22.3845 15.3984H12.2485C11.9302 15.3984 11.6719 15.1369 11.6719 14.8141C11.6719 14.4913 11.9302 14.2305 12.2485 14.2305H22.3845C22.7029 14.2305 22.9612 14.4913 22.9612 14.8141C22.9612 15.1369 22.7029 15.3984 22.3845 15.3984Z" fill="#4E5A2A"/>
<path d="M22.3845 21.8125H12.2485C11.9302 21.8125 11.6719 21.5509 11.6719 21.2285C11.6719 20.9061 11.9302 20.6441 12.2485 20.6441H22.3845C22.7029 20.6441 22.9612 20.9061 22.9612 21.2285C22.9612 21.5509 22.7029 21.8125 22.3845 21.8125Z" fill="#4E5A2A"/>
<path d="M28.5238 29.4457H29.6348L29.2773 28.1966C29.2121 27.9693 29.289 27.7248 29.4716 27.5775C29.6215 27.4563 29.7077 27.2747 29.7077 27.0788C29.7077 26.7275 29.4264 26.4414 29.0811 26.4414C28.7337 26.4414 28.4508 26.7275 28.4508 27.0788C28.4508 27.2747 28.5367 27.4563 28.6874 27.5775C28.8695 27.7248 28.9465 27.9693 28.8812 28.1966L28.5238 29.4457ZM30.4037 30.6133C30.4032 30.6133 30.4029 30.6133 30.4025 30.6133H27.7561C27.5752 30.6133 27.4039 30.5272 27.2955 30.3807C27.1863 30.2338 27.1521 30.0432 27.2024 29.8669L27.68 28.1978C27.4341 27.8832 27.2975 27.4918 27.2975 27.0788C27.2975 26.0835 28.0974 25.273 29.0811 25.273C30.0623 25.273 30.861 26.0835 30.861 27.0788C30.861 27.4918 30.7248 27.8832 30.4782 28.1978L30.9444 29.8261C30.9678 29.8897 30.9803 29.9579 30.9803 30.0297C30.9803 30.3521 30.722 30.6133 30.4037 30.6133Z" fill="#4E5A2A"/>
<path d="M24.6678 23.8651C24.6424 25.3362 24.5356 26.5581 24.4478 27.564C24.1161 31.3523 24.0335 32.2982 29.0703 34.7684C34.1264 32.2889 34.0454 31.3372 33.7214 27.5252C33.6368 26.5279 33.534 25.3179 33.5098 23.8651C33.3575 23.8728 33.208 23.8765 33.0629 23.8765C31.3862 23.8765 30.0531 23.3615 29.0896 22.3437C28.1245 23.3615 26.7915 23.8765 25.1151 23.8765C24.9696 23.8765 24.8201 23.8728 24.6678 23.8651ZM29.0703 36C28.9853 36 28.9002 35.9816 28.8217 35.9433C25.8517 34.5044 24.422 33.4539 23.7224 32.1962C22.9987 30.8944 23.1244 29.4543 23.2989 27.4612C23.3972 26.3365 23.5197 24.9376 23.5197 23.2309C23.5197 23.0652 23.5895 22.9061 23.7124 22.7955C23.8349 22.6849 23.9981 22.6318 24.1613 22.651C24.4937 22.6894 24.8145 22.709 25.1151 22.709C26.7101 22.709 27.8565 22.1789 28.6194 21.0893C28.7274 20.9346 28.9026 20.8432 29.09 20.8432C29.09 20.8432 29.09 20.8432 29.0904 20.8432C29.277 20.8432 29.4527 20.9354 29.5607 21.0897C30.3219 22.1793 31.4676 22.709 33.0629 22.709C33.3636 22.709 33.6843 22.6894 34.0156 22.651C34.1792 22.6318 34.3424 22.6849 34.4649 22.7955C34.5874 22.9061 34.6579 23.0652 34.6579 23.2309C34.6579 24.9196 34.776 26.3083 34.8703 27.4253C35.0411 29.431 35.1641 30.8805 34.4367 32.1856C33.7339 33.447 32.2989 34.4999 29.3193 35.9433C29.2407 35.9816 29.1553 36 29.0703 36Z" fill="#4E5A2A"/>
</svg>
