<svg width="40" height="40" viewBox="0 0 40 40" fill="none" xmlns="http://www.w3.org/2000/svg">
<path d="M1.76129 14.7398V19.4093C1.76129 24.5852 5.96559 28.6921 11.0796 28.6921H28.807C33.9772 28.6921 38.1247 24.5289 38.1247 19.4655V14.796H32.3862V20.5345C32.3862 20.9846 32.0458 21.3784 31.5339 21.3784H8.35213C7.89755 21.3784 7.50035 21.0408 7.50035 20.5345V14.7398H1.76129ZM28.807 30.3799H11.0796C4.99962 30.3799 0.0566406 25.4853 0.0566406 19.4655V13.9521C0.0566406 13.502 0.397568 13.1082 0.908968 13.1082H8.40894C8.86351 13.1082 9.26126 13.4458 9.26126 13.9521V19.6906H30.7957V13.9521C30.7957 13.502 31.1361 13.1082 31.6481 13.1082H39.148C39.6021 13.1082 39.9998 13.4458 39.9998 13.9521V19.4655C39.8299 25.4853 34.8864 30.3799 28.807 30.3799Z" fill="#6F00FF"/>
<path d="M1.76149 16.4271H7.5568V14.7955H1.76149V16.4271ZM8.35232 18.0586H0.852355C0.397777 18.0586 0 17.721 0 17.2147V13.9517C0 13.5016 0.340955 13.1078 0.852355 13.1078H8.35232C8.8069 13.1078 9.20465 13.4453 9.20465 13.9517V17.2147C9.14783 17.6648 8.8069 18.0586 8.35232 18.0586Z" fill="#6F00FF"/>
<path d="M32.3857 16.4271H38.1816V14.7955H32.3857V16.4271ZM38.9771 18.0586H31.5334C31.0794 18.0586 30.6816 17.721 30.6816 17.2147V13.9517C30.6816 13.5016 31.022 13.1078 31.5334 13.1078H39.0339C39.488 13.1078 39.8857 13.4453 39.8857 13.9517V17.2147C39.8295 17.6648 39.488 18.0586 38.9771 18.0586Z" fill="#6F00FF"/>
<path d="M30.3985 35.2744H8.86405C8.40947 35.2744 8.01172 34.9369 8.01172 34.4305C8.01172 33.9804 8.35265 33.5866 8.86405 33.5866H30.3985C30.8531 33.5866 31.2509 33.9242 31.2509 34.4305C31.2509 34.9369 30.8531 35.2744 30.3985 35.2744Z" fill="#6F00FF"/>
<path d="M24.9429 39.3818H14.3177C13.8626 39.3818 13.4648 39.0443 13.4648 38.5379C13.4648 38.0879 13.8063 37.6941 14.3177 37.6941H24.9429C25.3969 37.6941 25.7947 38.0316 25.7947 38.5379C25.7379 39.0443 25.3969 39.3818 24.9429 39.3818Z" fill="#6F00FF"/>
<path d="M30.738 12.3203C30.284 12.3203 29.8862 11.9828 29.8862 11.4764C29.8862 6.01925 25.4541 1.63102 19.9429 1.63102C14.4312 1.63102 9.99958 6.01925 9.99958 11.4764C9.99958 11.9265 9.65865 12.3203 9.14725 12.3203C8.63585 12.3203 8.29492 11.9828 8.29492 11.4764C8.35174 5.17536 13.5226 -0.00050614 19.9429 -0.00050614C26.3632 -0.00050614 31.5335 5.17536 31.5335 11.4764C31.5903 11.9265 31.1926 12.3203 30.738 12.3203Z" fill="#6F00FF"/>
<path d="M13.2952 12.3207C13.2384 12.3207 13.2384 12.3207 13.1248 12.3207C12.6696 12.2644 12.3855 11.8144 12.4429 11.3643C12.7833 9.33894 13.6362 7.65116 14.8289 6.30093C16.1926 4.83819 17.9541 4.10681 19.8855 4.10681C23.9772 4.10681 27.386 7.42612 27.386 11.5331C27.386 11.9831 27.0451 12.377 26.5337 12.377C26.0223 12.377 25.6813 12.0394 25.6813 11.5331C25.6813 8.38253 23.1243 5.7946 19.8855 5.7946C16.3636 5.7946 14.5447 8.94513 14.0907 11.6456C14.0907 11.9831 13.693 12.3207 13.2952 12.3207Z" fill="#6F00FF"/>
<path d="M22.2735 12.3203C21.8189 12.3203 21.4211 11.9828 21.4211 11.4764C21.4211 10.6888 20.7393 10.0137 19.9438 10.0137C19.1483 10.0137 18.4664 10.6888 18.4664 11.4764C18.4664 11.9265 18.126 12.3203 17.614 12.3203C17.1026 12.3203 16.7617 11.9828 16.7617 11.4764C16.7617 9.78864 18.1823 8.38215 19.8864 8.38215C21.5916 8.38215 23.0116 9.78864 23.0116 11.4764C23.069 11.9265 22.6712 12.3203 22.2735 12.3203Z" fill="#6F00FF"/>
</svg>
