<svg width="33" height="40" viewBox="0 0 33 40" fill="none" xmlns="http://www.w3.org/2000/svg">
<path d="M15.7187 7.21018C14.216 7.21018 12.9451 8.4119 12.9451 9.95697C12.9451 11.502 14.1582 12.7038 15.7187 12.7038C17.2214 12.7038 18.493 11.502 18.493 9.95697C18.493 8.4119 17.2214 7.21018 15.7187 7.21018ZM15.7187 14.3633C13.2918 14.3633 11.3262 12.4176 11.3262 10.0142C11.3262 7.61075 13.2918 5.66511 15.7187 5.66511C18.1462 5.66511 20.1113 7.61075 20.1113 10.0142C20.1113 12.4176 18.1462 14.3633 15.7187 14.3633Z" fill="#6F00FF"/>
<path d="M15.3718 18.3122H16.47V16.1376C16.47 15.737 16.7011 15.4509 17.1057 15.3365C17.7415 15.1648 18.3194 14.9359 18.7818 14.5925C19.1286 14.3636 19.5332 14.4209 19.8221 14.707L21.4399 16.3093L22.249 15.5081L20.6307 13.9058C20.3418 13.6197 20.2845 13.2191 20.5157 12.8758C20.8625 12.3608 21.0353 11.7885 21.2093 11.2163C21.3243 10.8157 21.6133 10.5296 22.0179 10.5296H24.3297V9.44231H22.0179C21.6133 9.44231 21.2671 9.15619 21.2093 8.75561C21.0937 8.18336 20.8625 7.61112 20.5157 7.09609C20.3418 6.75274 20.3418 6.35217 20.6307 6.06605L22.249 4.46375L21.4399 3.6626L19.8221 5.2649C19.5332 5.55102 19.0708 5.60825 18.7818 5.37935C18.2616 5.036 17.6837 4.74987 17.1057 4.63542C16.7589 4.52098 16.47 4.17763 16.47 3.83428V1.65973H15.3718V3.71983C15.3718 4.1204 15.0828 4.46375 14.6783 4.52098C14.0431 4.63542 13.4073 4.86432 12.8288 5.20767C12.4825 5.37935 12.0774 5.37935 11.789 5.09322L10.3441 3.6626L9.53492 4.46375L10.922 5.83715C11.211 6.12327 11.2688 6.58107 11.0376 6.86719C10.6331 7.43944 10.4019 8.06891 10.2285 8.75561C10.1129 9.15619 9.8239 9.44231 9.41932 9.44231H7.51204V10.5296H9.41932C9.8239 10.5296 10.1707 10.8157 10.2285 11.2163C10.4019 11.903 10.6331 12.5325 11.0376 13.1047C11.2688 13.448 11.211 13.8486 10.922 14.1347L9.53492 15.5081L10.3441 16.3093L11.8468 14.8214C12.1358 14.5353 12.5403 14.4781 12.8871 14.707C13.4645 15.0503 14.1003 15.2792 14.7361 15.3937C15.1412 15.4509 15.4296 15.7943 15.4296 16.1948V18.3122H15.3718ZM17.3369 19.9717H14.5049C14.0431 19.9717 13.6963 19.5711 13.6963 19.1705V16.9388C13.2917 16.8243 12.9449 16.7099 12.5981 16.481L11.0376 18.026C10.6909 18.3694 10.1707 18.3694 9.8239 18.026L7.80103 16.0232C7.45425 15.6798 7.45425 15.1648 7.80103 14.8214L9.30374 13.3336C9.13035 12.933 8.89916 12.5897 8.78357 12.1319H6.64508C6.18271 12.1319 5.83594 11.7313 5.83594 11.3307V8.52671C5.83594 8.06891 6.24051 7.72557 6.64508 7.72557H8.78357C8.89916 7.32499 9.07256 6.92442 9.30374 6.52384L7.80103 5.09322C7.45425 4.74987 7.45425 4.23485 7.80103 3.8915L9.76611 1.94586C9.9395 1.77418 10.1707 1.71696 10.4019 1.71696C10.6331 1.71696 10.8642 1.83141 11.0376 1.94586L12.5981 3.49093C12.9449 3.31925 13.3495 3.14758 13.6963 3.03313V0.801361C13.6963 0.343563 14.1003 0.000213623 14.5049 0.000213623H17.3369C17.7993 0.000213623 18.146 0.400787 18.146 0.801361V3.2048C18.4928 3.31925 18.839 3.4337 19.1286 3.6626L20.8625 1.94586C21.0353 1.77418 21.2671 1.71696 21.4983 1.71696C21.7289 1.71696 21.9601 1.83141 22.1334 1.94586L24.0985 3.8915C24.4453 4.23485 24.4453 4.74987 24.0985 5.09322L22.3652 6.80997C22.538 7.09609 22.5964 7.43944 22.7698 7.72557H25.3123C25.7752 7.72557 26.1214 8.12614 26.1214 8.52671V11.3307C26.1214 11.7885 25.7168 12.1319 25.3123 12.1319H22.7114C22.5964 12.4752 22.4808 12.7614 22.3074 13.0475L24.0985 14.8214C24.4453 15.1648 24.4453 15.6798 24.0985 16.0232L22.1334 17.9688C21.9028 18.1977 21.6716 18.2549 21.4983 18.2549C21.2671 18.2549 21.0353 18.1405 20.8625 18.026L19.1286 16.3093C18.7818 16.481 18.4928 16.6526 18.146 16.7671V19.1705C18.146 19.6283 17.7993 19.9717 17.3369 19.9717Z" fill="#6F00FF"/>
<path d="M1.61831 38.3405H30.2832V35.0214C30.2832 29.0128 25.371 24.1487 19.3029 24.1487H12.5413C6.47265 24.1487 1.56051 29.0128 1.56051 35.0214L1.61831 38.3405ZM31.0929 40H0.809147C0.346774 40 0 39.5994 0 39.1989V35.0214C0 28.0972 5.66407 22.4892 12.6569 22.4892H19.3607C26.3536 22.4892 32.0176 28.0972 32.0176 35.0214V39.1989C31.9593 39.6567 31.5547 40 31.0929 40Z" fill="#6F00FF"/>
<path d="M12.5421 30.5576L15.8938 34.5633L19.2454 30.5576V24.1484H12.5421V30.5576ZM15.9516 36.6807C15.7204 36.6807 15.4892 36.5662 15.3158 36.3945L11.0972 31.3588C10.9816 31.1871 10.9238 31.0154 10.9238 30.8437V23.2901C10.9238 22.8323 11.3278 22.4889 11.733 22.4889H20.1707C20.6325 22.4889 20.9799 22.8895 20.9799 23.2901V30.8437C20.9799 31.0154 20.9215 31.2443 20.8065 31.3588L16.5873 36.3945C16.4139 36.5662 16.1828 36.6807 15.9516 36.6807Z" fill="#6F00FF"/>
</svg>
