<svg width="250" height="250" viewBox="0 0 250 250" fill="none" xmlns="http://www.w3.org/2000/svg">
<circle cx="125" cy="125" r="124" stroke="url(#paint0_linear_2407_37220)" stroke-width="2"/>
<mask id="mask0_2407_37220" style="mask-type:alpha" maskUnits="userSpaceOnUse" x="25" y="25" width="200" height="200">
<rect x="25" y="25" width="200" height="200" rx="100" fill="#D9D9D9"/>
</mask>
<g mask="url(#mask0_2407_37220)">
<rect x="25" y="25" width="200" height="200" rx="100" fill="#F8F7FF"/>
<path d="M200.675 129.306C199.065 223.573 58.8443 223.558 57.248 129.303C58.858 35.0394 199.079 35.0544 200.675 129.306Z" fill="#FFD6E4"/>
<path d="M56.316 184.551H46.6049C46.2709 184.551 46 184.28 46 183.946C46 183.612 46.2709 183.341 46.6049 183.341H56.316C57.0978 183.33 57.1026 184.562 56.316 184.551Z" fill="#2E0F07"/>
<path d="M116.75 184.551H107.038C106.705 184.551 106.434 184.28 106.434 183.946C106.434 183.612 106.705 183.341 107.038 183.341H116.75C117.531 183.33 117.536 184.562 116.75 184.551Z" fill="#2E0F07"/>
<path d="M101.511 184.551H62.6654C62.3314 184.551 62.0605 184.28 62.0605 183.946C62.0605 183.612 62.3314 183.341 62.6654 183.341H101.51C102.284 183.33 102.303 184.562 101.511 184.551Z" fill="#2E0F07"/>
<path d="M204.217 184.551C203.58 183.953 109.752 185.7 109.862 183.948C109.712 182.188 203.624 183.943 204.219 183.34C204.975 183.33 205.022 184.563 204.217 184.551Z" fill="#2E0F07"/>
<path d="M177.657 182.326C176.792 181.987 176.792 80.9256 177.655 80.582C178.523 80.9205 178.523 181.982 177.657 182.326Z" fill="white"/>
<path d="M161.538 182.326C160.672 181.987 160.672 80.9256 161.536 80.582C162.404 80.9205 162.404 181.982 161.538 182.326Z" fill="white"/>
<path d="M145.417 182.326C144.551 181.987 144.551 80.9256 145.415 80.582C146.283 80.9205 146.283 181.982 145.417 182.326Z" fill="white"/>
<path d="M129.296 182.326C128.43 181.987 128.43 80.9256 129.294 80.582C130.162 80.9205 130.162 181.982 129.296 182.326Z" fill="white"/>
<path d="M113.175 182.326C112.309 181.987 112.309 80.9256 113.173 80.582C114.041 80.9208 114.041 181.982 113.175 182.326Z" fill="white"/>
<path d="M97.0559 182.326C96.19 181.987 96.19 80.9256 97.0539 80.582C97.9218 80.9208 97.9218 181.982 97.0559 182.326Z" fill="white"/>
<path d="M80.9348 182.326C80.0689 181.987 80.0689 80.9256 80.9328 80.582C81.8004 80.9208 81.8004 181.982 80.9348 182.326Z" fill="white"/>
<path d="M179.714 180.271C179.22 179.817 78.3561 181.139 78.4235 179.818C77.9483 179.33 182.412 178.184 179.714 180.271Z" fill="white"/>
<path d="M179.714 164.153C179.22 163.699 78.3561 165.021 78.4235 163.7C77.9483 163.212 182.412 162.066 179.714 164.153Z" fill="white"/>
<path d="M179.714 148.031C179.22 147.577 78.3561 148.899 78.4235 147.578C77.9483 147.09 182.412 145.944 179.714 148.031Z" fill="white"/>
<path d="M179.714 131.914C179.22 131.461 78.3561 132.783 78.4235 131.462C77.9483 130.974 182.412 129.828 179.714 131.914Z" fill="white"/>
<path d="M179.714 115.796C179.22 115.343 78.3561 116.665 78.4235 115.344C77.9483 114.856 182.412 113.709 179.714 115.796Z" fill="white"/>
<path d="M179.716 99.6711C179.222 99.2177 78.3581 100.54 78.4254 99.2187C77.9502 98.7306 182.414 97.5845 179.716 99.6711Z" fill="white"/>
<path d="M179.714 83.5532C179.22 83.0997 78.3561 84.4218 78.4235 83.1007C77.9483 82.6124 182.412 81.4662 179.714 83.5532Z" fill="white"/>
<path d="M121.423 183.507H102.184V149.33C102.184 147.596 103.589 146.19 105.323 146.19H118.283C120.017 146.19 121.423 147.596 121.423 149.33V183.507Z" fill="#C59EF8"/>
<path d="M109.094 160.643C109.09 165.657 106.106 165.657 106.102 160.643C106.106 155.629 109.09 155.629 109.094 160.643Z" fill="#DBC2FB"/>
<path d="M104.802 151.574C104.802 149.84 106.208 148.435 107.942 148.435H120.902C121.037 148.435 121.168 148.446 121.299 148.463C120.922 147.151 119.716 146.19 118.283 146.19H105.323C103.589 146.19 102.184 147.596 102.184 149.33V183.507H104.802V151.574H104.802Z" fill="#DBC2FB"/>
<path d="M121.423 184.489H102.184C101.641 184.489 101.201 184.049 101.201 183.506V149.329C101.201 147.056 103.05 145.207 105.323 145.207H118.284C120.557 145.207 122.406 147.056 122.406 149.329V183.507C122.406 184.049 121.966 184.489 121.423 184.489ZM103.167 182.524H120.44V149.329C120.44 148.14 119.473 147.173 118.283 147.173H105.323C104.134 147.173 103.166 148.14 103.166 149.329L103.167 182.524Z" fill="#2E0F07"/>
<path d="M153.71 183.513H134.471V123.633C134.471 121.899 135.876 120.493 137.61 120.493H150.57C152.304 120.493 153.71 121.899 153.71 123.633V183.513Z" fill="#F07542"/>
<path d="M141.381 134.946C141.377 139.96 138.393 139.96 138.389 134.946C138.393 129.932 141.377 129.932 141.381 134.946Z" fill="#F8BCA4"/>
<path d="M137.089 125.877C137.089 124.143 138.495 122.738 140.229 122.738H153.189C153.324 122.738 153.455 122.749 153.586 122.765C153.209 121.454 152.003 120.493 150.57 120.493H137.61C135.876 120.493 134.471 121.899 134.471 123.633V183.513H137.09L137.089 125.877Z" fill="#F8BCA4"/>
<path d="M153.71 184.5H134.471C133.928 184.5 133.488 184.06 133.488 183.517V123.637C133.488 121.364 135.337 119.515 137.611 119.515H150.571C152.844 119.515 154.693 121.364 154.693 123.637V183.517C154.693 184.06 154.253 184.5 153.71 184.5ZM135.454 182.534H152.727V123.637C152.727 122.448 151.76 121.48 150.571 121.48H137.611C136.421 121.48 135.454 122.447 135.454 123.637V182.534Z" fill="#2E0F07"/>
<path d="M89.1374 183.511H69.8984V132.702C69.8984 130.968 71.3041 129.562 73.0379 129.562H85.998C87.7318 129.562 89.1374 130.968 89.1374 132.702V183.511Z" fill="#FCDE4C"/>
<path d="M76.8092 144.016C76.8044 149.031 73.821 149.031 73.8164 144.016C73.8212 139.002 76.8047 139.002 76.8092 144.016Z" fill="#FDEB8F"/>
<path d="M72.5171 134.946C72.5171 133.213 73.9227 131.807 75.6565 131.807H88.6166C88.7513 131.807 88.883 131.818 89.0134 131.835C88.6369 130.523 87.4308 129.562 85.998 129.562H73.0379C71.3041 129.562 69.8984 130.968 69.8984 132.702V183.511H72.5171V134.946Z" fill="#FDEB8F"/>
<path d="M89.1379 184.494H69.8989C69.356 184.494 68.916 184.054 68.916 183.511V132.702C68.916 130.429 70.7652 128.58 73.0383 128.58H85.9984C88.2715 128.58 90.1207 130.429 90.1207 132.702V183.511C90.1204 184.054 89.6807 184.494 89.1379 184.494ZM70.8814 182.528H88.155V132.702C88.155 131.513 87.1876 130.545 85.9982 130.545H73.038C71.8488 130.545 70.8812 131.513 70.8812 132.702L70.8814 182.528Z" fill="#2E0F07"/>
<path d="M185.997 183.511H166.758V111.535C166.758 109.801 168.163 108.396 169.897 108.396H182.857C184.591 108.396 185.997 109.801 185.997 111.535V183.511Z" fill="#FF5250"/>
<path d="M173.669 122.847C173.664 127.861 170.68 127.861 170.676 122.847C170.681 117.833 173.664 117.833 173.669 122.847Z" fill="#FF9897"/>
<path d="M169.376 113.779C169.376 112.046 170.782 110.64 172.516 110.64H185.476C185.611 110.64 185.742 110.651 185.873 110.668C185.496 109.356 184.29 108.396 182.857 108.396H169.897C168.163 108.396 166.758 109.801 166.758 111.535V183.511H169.376V113.779Z" fill="#FF9897"/>
<path d="M185.997 184.494H166.758C166.215 184.494 165.775 184.054 165.775 183.511V111.535C165.775 109.262 167.625 107.413 169.898 107.413H182.858C185.131 107.413 186.98 109.262 186.98 111.535V183.511C186.98 184.054 186.54 184.494 185.997 184.494ZM167.741 182.529H185.015V111.535C185.015 110.346 184.047 109.379 182.858 109.379H169.898C168.708 109.379 167.741 110.346 167.741 111.535L167.741 182.529Z" fill="#2E0F07"/>
<path d="M87.8822 56.4043C70.4327 56.4043 56.2871 70.5497 56.2871 87.999C56.9947 129.533 118.776 129.521 119.477 87.999H87.8822V56.4043Z" fill="#FF5250"/>
<path d="M63.9374 78.4926C61.8745 84.1609 58.982 83.108 61.0451 77.4399C63.1082 71.7718 66.0006 72.8245 63.9374 78.4926Z" fill="#FFB4B3"/>
<path d="M115.133 88C112.635 112.434 79.7743 124.012 62.4258 106.713C78.8811 130.95 120.548 117.865 119.478 88H115.133Z" fill="#FF312F"/>
<path d="M87.8823 120.577C44.8084 119.274 44.8375 56.7108 87.8831 55.4219C88.4251 55.4219 88.8652 55.8619 88.8652 56.4047V87.0166H119.477C120.02 87.0166 120.46 87.4566 120.46 87.9994C120.822 105.51 105.393 120.939 87.8823 120.577ZM86.8998 57.4032C70.4728 57.9237 57.2701 71.4489 57.2701 87.9997C57.9078 127.647 116.615 128.497 118.479 88.9825H87.8823C87.3395 88.9825 86.8995 88.5425 86.8995 87.9997L86.8998 57.4032Z" fill="#2E0F07"/>
<path d="M126.361 82.5771C126.361 65.1278 112.215 50.9824 94.7656 50.9824V82.4728L126.361 82.5771Z" fill="#F38F65"/>
<path d="M119.494 82.5544L126.361 82.5771C126.361 65.1278 112.215 50.9824 94.7656 50.9824V51.7328C108.906 54.8666 119.484 67.4732 119.494 82.5544Z" fill="#EE682F"/>
<path d="M126.361 83.5601C126.361 83.5619 94.764 83.4546 94.7628 83.4558C94.2212 83.454 93.7832 83.0145 93.7832 82.473V50.9828C93.7832 50.44 94.2232 50 94.766 50C103.468 50 111.649 53.3887 117.802 59.5417C123.955 65.6946 127.344 73.8757 127.344 82.5776C127.353 83.1047 126.89 83.571 126.361 83.5601ZM95.7486 81.4937L125.363 81.5914C124.851 65.4923 111.848 52.491 95.7486 51.9811V81.4937Z" fill="#2E0F07"/>
<path d="M87.9316 87.9287H119.422C119.422 96.9187 115.668 105.032 109.641 110.785L87.9316 87.9287Z" fill="#F8F06D"/>
<path d="M114.401 87.9287C113.443 95.0315 110.125 101.385 105.262 106.175L109.641 110.785C115.668 105.032 119.422 96.9187 119.422 87.9287H114.401Z" fill="#F6EB3A"/>
<path d="M109.639 111.769C109.37 111.769 109.112 111.659 108.927 111.463L87.2176 88.6064C86.6255 88.0211 87.0895 86.917 87.9303 86.9469H119.421C119.964 86.9469 120.404 87.3869 120.404 87.9297C120.319 96.7397 116.742 106.416 109.639 111.769ZM90.2193 88.9125L109.663 109.384C115.026 103.962 118.211 96.5445 118.423 88.9125H90.2193Z" fill="#2E0F07"/>
<path d="M87.9668 88.0068L109.548 110.94C104.785 115.421 98.999 118.138 92.9957 119.114L87.9668 88.0068Z" fill="#C59EF8"/>
<path d="M93.9065 118.954C99.5827 117.86 105.027 115.196 109.548 110.941L106.106 107.284C101.965 110.247 97.2818 112.083 92.4707 112.805L93.9065 118.954Z" fill="#AD75F5"/>
<path d="M93.5591 120.001C93.0971 120.008 92.6664 119.651 92.592 119.192L87 88.1814C86.9228 87.7533 87.1365 87.3252 87.5249 87.1295C87.9135 86.9338 88.3847 87.0168 88.6827 87.3336L110.264 110.266C111.586 113.704 96.7023 120.038 93.5591 120.001ZM89.5224 91.0937L94.3488 117.86C99.4701 116.761 104.206 114.368 108.148 110.886L89.5224 91.0937Z" fill="#2E0F07"/>
<path d="M192.268 74.1022L182.87 75.8927C180.738 76.5909 182.284 78.6039 183.312 79.6579L160 97.7893L146.179 83.358C145.087 82.6618 143.661 82.7952 142.717 83.6821L126.473 98.941C125.333 100.012 125.277 101.805 126.348 102.945C127.421 104.087 129.214 104.14 130.353 103.07L144.991 89.319C166.209 110.822 153.624 107.748 186.939 84.0135C187.851 85.1817 189.701 87.7509 190.907 85.4931L194.18 76.3479C194.593 75.1944 193.469 73.8736 192.268 74.1022Z" fill="#ACD350"/>
<path d="M189.5 76.6553C189.529 78.602 186.436 78.602 186.465 76.6551C186.436 74.7087 189.529 74.7087 189.5 76.6553Z" fill="#E2F0C2"/>
<path d="M138.515 90.5647C133.437 95.1862 132.824 94.5117 137.92 89.909C142.998 85.2873 143.611 85.962 138.515 90.5647Z" fill="#E2F0C2"/>
<path d="M175.168 88.5616C167.27 94.6829 166.709 93.9603 174.626 87.8613C182.524 81.7401 183.085 82.4624 175.168 88.5616Z" fill="#E2F0C2"/>
<path d="M126.205 99.2327C124.693 100.962 126.129 103.931 128.415 103.839C130.066 104.35 137.787 95.71 139.028 94.9219C135.142 97.3268 130.797 98.8724 126.205 99.2327Z" fill="#87BF02"/>
<path d="M189.154 83.5763C188.558 83.9242 187.948 84.2191 187.336 84.4915L188.344 85.7015C189.127 86.66 190.531 86.5503 190.907 85.4949L192.63 80.6787C191.65 81.7777 190.524 82.7545 189.154 83.5763Z" fill="#87BF02"/>
<path d="M155.363 100.206L158.639 103.644C159.649 104.287 160.955 104.226 161.901 103.491L171.604 95.9434C165.847 97.9781 162.064 102.691 155.363 100.206Z" fill="#87BF02"/>
<path d="M160.161 105.067C158.335 106.222 146.211 91.4872 144.953 90.7051L131.026 103.788C129.561 105.223 127.007 105.138 125.632 103.62C124.192 102.086 124.267 99.6668 125.801 98.2262L142.045 82.9671C143.355 81.7303 145.458 81.5541 146.889 82.6795L160.097 96.4704L181.906 79.5072C180.346 78.1881 180.464 75.35 182.687 74.9285C182.686 74.9285 192.084 73.1381 192.084 73.1381C192.985 72.9669 193.937 73.3221 194.573 74.0654C195.212 74.8118 195.416 75.8141 195.106 76.681L191.833 85.8262C190.752 88.3683 187.934 87.3374 186.793 85.3748L162.505 104.265C161.82 104.798 160.992 105.067 160.161 105.067ZM159.26 102.868C159.893 105.402 185.558 83.1967 186.337 83.24C187.437 82.3169 188.486 84.5236 189.11 85.0846C189.394 85.4221 189.847 85.4988 189.982 85.1636L193.255 76.0184C193.391 75.5402 192.943 75.0128 192.452 75.0688C192.448 75.0683 183.039 76.8633 183.042 76.8618C182.673 76.9539 182.75 77.4534 182.985 77.7309C183.758 78.6322 184.899 79.7573 183.908 80.4404C183.395 80.832 160.624 98.5568 160.568 98.5925C159.794 100.449 146.15 84.0993 145.507 84.1053C144.098 81.9022 128.264 99.3445 127.102 99.7014C126.387 100.418 126.382 101.595 127.106 102.316C127.762 103.143 129.351 102.84 129.684 102.351C130.033 102.037 144.294 88.6172 144.352 88.5746C145.161 86.5353 158.629 102.84 159.26 102.868Z" fill="#2E0F07"/>
</g>
<defs>
<linearGradient id="paint0_linear_2407_37220" x1="125" y1="250" x2="125" y2="0" gradientUnits="userSpaceOnUse">
<stop stop-color="white" stop-opacity="0"/>
<stop offset="1" stop-color="#7143FF"/>
</linearGradient>
</defs>
</svg>
