<svg width="44" height="43" viewBox="0 0 44 43" fill="none" xmlns="http://www.w3.org/2000/svg">
<path d="M10.3439 38.0099V36.5281H23.9097C24.1349 36.5281 24.3594 36.3058 24.3594 36.0835C24.3594 35.8612 24.1349 35.6389 23.9097 35.6389H10.3439V0.963181H32.0044V6.07563C32.0044 6.29792 32.2296 6.5202 32.4541 6.5202H37.6259V38.0099H10.3439ZM32.0044 41.196H7.04599V5.63107H9.36883V38.5286C9.36883 38.7509 9.59408 38.9732 9.81932 38.9732H31.9295V41.196H32.0044ZM32.9039 1.63002L36.9516 5.63107H32.9039V1.63002ZM38.5254 5.92745C38.5254 5.92745 38.5254 5.92745 38.4505 5.85336C38.4505 5.85336 38.4505 5.77926 38.3757 5.77926C32.3793 -0.14822 32.7542 0.148155 32.6046 0.148155C32.4542 0.0740585 33.5789 0.148155 9.89342 0.148155C9.66891 0.148155 9.44441 0.370434 9.44441 0.592716V4.74195H6.5955C6.37099 4.74195 6.14648 4.96423 6.14648 5.18651V41.7146C6.14648 41.9369 6.37099 42.1592 6.5955 42.1592H32.4541C32.6794 42.1592 32.9039 41.9369 32.9039 41.7146V39.0473H38.0756C38.3009 39.0473 38.5254 38.825 38.5254 38.6027C38.5254 4.59377 38.5254 6.07563 38.5254 5.92745Z" fill="white"/>
<path d="M12.6665 16.1523H31.4048C31.6293 16.1523 31.8545 15.9301 31.8545 15.7078C31.8545 15.4855 31.6293 15.2632 31.4048 15.2632H12.6665C12.442 15.2632 12.2168 15.4855 12.2168 15.7078C12.2168 15.9301 12.442 16.1523 12.6665 16.1523Z" fill="white"/>
<path d="M12.6665 18.0059H31.4048C31.6293 18.0059 31.8545 17.7836 31.8545 17.5613C31.8545 17.339 31.6293 17.1167 31.4048 17.1167H12.6665C12.442 17.1167 12.2168 17.339 12.2168 17.5613C12.2168 17.7836 12.442 18.0059 12.6665 18.0059Z" fill="white"/>
<path d="M12.6665 12.4482H31.4048C31.6293 12.4482 31.8545 12.226 31.8545 12.0037C31.8545 11.7814 31.6293 11.5591 31.4048 11.5591H12.6665C12.442 11.5591 12.2168 11.7814 12.2168 12.0037C12.2168 12.226 12.442 12.4482 12.6665 12.4482Z" fill="white"/>
<path d="M12.6665 14.3008H31.4048C31.6293 14.3008 31.8545 14.0785 31.8545 13.8562C31.8545 13.6339 31.6293 13.4117 31.4048 13.4117H12.6665C12.442 13.4117 12.2168 13.6339 12.2168 13.8562C12.2168 14.0785 12.442 14.3008 12.6665 14.3008Z" fill="white"/>
<path d="M12.6665 19.8574H28.6315C28.8567 19.8574 29.0812 19.6351 29.0812 19.4129C29.0812 19.1906 28.8567 18.9683 28.6315 18.9683H12.6665C12.442 18.9683 12.2168 19.1906 12.2168 19.4129C12.2168 19.6351 12.442 19.8574 12.6665 19.8574Z" fill="white"/>
<path d="M12.6665 21.8574H32.3791C32.6044 21.8574 32.8289 21.6351 32.8289 21.4129C32.8289 21.1906 32.6044 20.9683 32.3791 20.9683H12.6665C12.442 20.9683 12.2168 21.1906 12.2168 21.4129C12.2168 21.6351 12.442 21.8574 12.6665 21.8574Z" fill="white"/>
<path d="M12.6665 23.5625H26.2331C26.4583 23.5625 26.6828 23.3402 26.6828 23.1179C26.6828 22.8957 26.4583 22.6734 26.2331 22.6734H12.6665C12.442 22.6734 12.2168 22.8957 12.2168 23.1179C12.2168 23.3402 12.442 23.5625 12.6665 23.5625Z" fill="white"/>
<path d="M12.6665 25.3398H21.1362C21.3614 25.3398 21.5867 25.1176 21.5867 24.8953C21.5867 24.673 21.3614 24.4507 21.1362 24.4507H12.6665C12.442 24.4507 12.2168 24.673 12.2168 24.8953C12.2168 25.1176 12.442 25.3398 12.6665 25.3398Z" fill="white"/>
<path d="M22.4854 26.1558H12.6665C12.442 26.1558 12.2168 26.3781 12.2168 26.6004C12.2168 26.8226 12.442 27.0449 12.6665 27.0449H22.4854C22.7107 27.0449 22.9352 26.8226 22.9352 26.6004C23.01 26.3781 22.7855 26.1558 22.4854 26.1558Z" fill="white"/>
<path d="M19.2631 27.9331H12.6665C12.442 27.9331 12.2168 28.1554 12.2168 28.3777C12.2168 28.6 12.442 28.8223 12.6665 28.8223H19.2631C19.4876 28.8223 19.7121 28.6 19.7121 28.3777C19.7121 28.1554 19.4876 27.9331 19.2631 27.9331Z" fill="white"/>
<path d="M34.6282 30.6756C34.6282 33.6393 32.2298 36.0103 29.3061 36.0103C26.309 36.0103 23.9099 33.6393 23.9099 30.6756C23.9099 28.5268 25.3339 26.5263 27.3582 25.7854C29.0068 30.9719 28.9319 30.6756 28.9319 30.7497C29.0067 30.8237 29.0067 30.8978 29.0816 30.9719C29.1564 31.046 29.232 31.046 29.3817 31.046C29.4565 31.046 29.4565 31.046 29.4565 31.046C29.4565 31.046 29.4565 31.046 29.5313 31.046L34.4785 29.2678C34.5534 29.6382 34.6282 30.0828 34.6282 30.6756ZM30.7302 25.5631L29.3817 29.1196L28.2569 25.489C29.0816 25.3408 29.9811 25.4149 30.7302 25.5631ZM32.0802 24.7481C33.5042 25.4149 34.6282 26.5263 35.3025 27.9341L30.2056 29.7864L32.0802 24.7481ZM31.9297 23.7108C31.7052 23.6367 31.4052 23.7108 31.3303 24.0071L31.031 24.7481C29.9062 24.4517 28.6319 24.4517 27.5079 24.7481C24.8094 25.489 22.9355 27.9341 22.9355 30.6756C22.9355 34.158 25.7844 36.8994 29.232 36.8994C32.6796 36.8994 35.5277 34.0839 35.5277 30.6756C35.5277 30.0087 35.4521 29.416 35.3025 28.8232L36.0523 28.5268C36.2776 28.4528 36.4272 28.1564 36.3516 27.9341C35.5277 26.0077 33.954 24.4517 31.9297 23.7108Z" fill="white"/>
<path d="M2.09832 32.8239C1.42406 32.8239 0.899469 32.3052 0.899469 31.6384C0.899469 30.9716 1.42406 30.4529 2.09832 30.4529C2.77257 30.4529 3.29789 30.9716 3.29789 31.6384C3.29789 32.3052 2.77257 32.8239 2.09832 32.8239ZM2.09832 29.6379C0.899482 29.6379 0 30.6011 0 31.7125C0 32.898 0.973576 33.7871 2.09832 33.7871C3.22231 33.7871 4.19739 32.8239 4.19739 31.7125C4.27148 30.527 3.29789 29.6379 2.09832 29.6379Z" fill="white"/>
<path d="M41.4485 4.14994C40.549 4.14994 39.7999 3.40901 39.7999 2.51988C39.7999 1.63076 40.549 0.889825 41.4485 0.889825C42.348 0.889825 43.0978 1.63076 43.0978 2.51988C43.0978 3.40901 42.348 4.14994 41.4485 4.14994ZM41.4485 0.000702858C40.0244 0.000702858 38.9004 1.11211 38.9004 2.51988C38.9004 3.92766 40.0244 5.03906 41.4485 5.03906C42.8726 5.03906 43.9973 3.92766 43.9973 2.51988C44.0721 1.11211 42.8726 0.000702858 41.4485 0.000702858Z" fill="white"/>
<path d="M41.9731 6.00225C42.3458 6.00225 42.6481 6.30085 42.6481 6.6691C42.6481 7.03734 42.3458 7.33594 41.9731 7.33594C41.6004 7.33594 41.2988 7.03734 41.2988 6.6691C41.2988 6.30085 41.6004 6.00225 41.9731 6.00225Z" fill="white"/>
<path d="M40.0988 22.6732C40.4715 22.6732 40.7731 22.9717 40.7731 23.34C40.7731 23.7082 40.4715 24.0068 40.0988 24.0068C39.7261 24.0068 39.4238 23.7082 39.4238 23.34C39.4238 22.9717 39.7261 22.6732 40.0988 22.6732Z" fill="white"/>
<path d="M37.2504 40.7523C37.6231 40.7523 37.9254 41.0509 37.9254 41.4191C37.9254 41.7873 37.6231 42.0859 37.2504 42.0859C36.8777 42.0859 36.5762 41.7873 36.5762 41.4191C36.5762 41.0509 36.8777 40.7523 37.2504 40.7523Z" fill="white"/>
<path d="M6.37033 0.445614C6.74302 0.445614 7.04531 0.74421 7.04531 1.11246C7.04531 1.4807 6.74302 1.7793 6.37033 1.7793C5.99764 1.7793 5.69531 1.4807 5.69531 1.11246C5.69531 0.74421 5.99764 0.445614 6.37033 0.445614Z" fill="white"/>
<path d="M2.09809 11.5589C2.47078 11.5589 2.77234 11.8575 2.77234 12.2257C2.77234 12.594 2.47078 12.8926 2.09809 12.8926C1.7254 12.8926 1.42383 12.594 1.42383 12.2257C1.42383 11.8575 1.7254 11.5589 2.09809 11.5589Z" fill="white"/>
<path d="M3.97113 25.4886C4.34382 25.4886 4.64539 25.7872 4.64539 26.1554C4.64539 26.5237 4.34382 26.8223 3.97113 26.8223C3.59844 26.8223 3.29688 26.5237 3.29688 26.1554C3.29688 25.7872 3.59844 25.4886 3.97113 25.4886Z" fill="white"/>
<path d="M14.1662 7.78008C14.0165 7.78008 13.7913 7.78008 13.6416 7.70599C13.2667 7.63189 13.0415 7.48371 12.817 7.40961C12.7421 7.33552 12.6665 7.33552 12.6665 7.26143L12.2168 8.15055C13.0415 8.6692 14.5411 8.96558 15.2902 8.37283C15.4406 8.29874 15.5903 8.15055 15.6644 7.92827C15.7399 7.78008 15.8148 7.5578 15.8148 7.26143C15.8148 6.22412 14.916 6.07593 14.0165 5.77956C13.8661 5.70546 13.6416 5.63137 13.566 5.55728C13.4912 5.48318 13.4912 5.40909 13.4912 5.33499C13.4912 5.11271 13.6416 4.96453 14.0165 4.96453C14.1662 4.96453 14.3159 4.96453 14.3914 5.03862C14.6152 5.11271 14.916 5.18681 15.0657 5.33499C15.1398 5.40909 15.2153 5.40909 15.2153 5.40909L15.6644 4.51997C15.5903 4.44587 15.4406 4.37178 15.365 4.37178C14.9901 4.22359 14.5411 4.0754 14.0906 4.0754C13.4164 4.0754 12.817 4.29769 12.5917 4.89043C12.442 5.18681 12.442 5.70546 12.5169 5.92774C12.8918 6.89096 14.7649 6.66868 14.7649 7.33552C14.6908 7.63189 14.5411 7.78008 14.1662 7.78008Z" fill="white"/>
<path d="M20.0115 7.70658H17.9125V6.74336H19.7115V5.92834H17.9125V5.03921H20.0115V4.15009H16.8633V8.5957H20.0115V7.70658Z" fill="white"/>
<path d="M21.8859 5.92745C21.9608 5.63107 22.1852 5.3347 22.4853 5.18651C22.7854 5.03832 23.2352 5.03832 23.5345 5.18651C24.1347 5.48288 24.3592 6.29791 24.1347 6.89066C24.0591 7.18704 23.8346 7.48341 23.5345 7.6316C23.2352 7.77978 22.7854 7.77978 22.4853 7.6316C22.1852 7.48341 21.9608 7.18704 21.8859 6.89066C21.8111 6.59429 21.8111 6.07563 21.8859 5.92745ZM22.1112 8.44663C22.6357 8.66891 23.6849 8.59481 23.9094 8.44663C24.9586 7.92797 25.5587 6.74247 25.1082 5.55698C24.8845 5.03832 24.5096 4.59376 23.985 4.29739C23.4597 4.07511 22.7106 4.00101 22.1853 4.29739C21.062 4.81604 20.5374 6.07563 20.9864 7.18704C21.1361 7.77978 21.511 8.22435 22.1112 8.44663Z" fill="white"/>
</svg>
