<svg width="41" height="36" viewBox="0 0 41 36" fill="none" xmlns="http://www.w3.org/2000/svg">
<path d="M1.44164 21.6258C1.37153 21.6258 1.31415 21.683 1.31415 21.7531V28.5224C1.31415 28.5925 1.37153 28.6502 1.44164 28.6502H11.9127C11.982 28.6502 12.0404 28.5916 12.0404 28.5224V21.7531C12.0404 21.6848 11.9811 21.6258 11.9127 21.6258H1.44164ZM11.9127 29.9707H1.44164C0.646629 29.9707 0 29.3211 0 28.5224V21.7531C0 20.9544 0.646629 20.3053 1.44164 20.3053H11.9127C12.7079 20.3053 13.3543 20.9544 13.3543 21.7531V28.5224C13.3543 29.3211 12.7079 29.9707 11.9127 29.9707Z" fill="#4E5A2A"/>
<path d="M3.90753 20.3074H4.26553C4.15994 20.1902 4.09567 20.0342 4.09567 19.864V19.6102H3.90753V20.3074ZM9.09058 20.3074H9.44546V19.6102H9.26044V19.864C9.26044 20.0342 9.19617 20.1902 9.09058 20.3074ZM10.1024 21.6279H3.25085C2.88803 21.6279 2.59375 21.3322 2.59375 20.9677V18.9504C2.59375 18.5854 2.88803 18.2897 3.25085 18.2897H4.75308C5.11577 18.2897 5.41004 18.5854 5.41004 18.9504V19.2033H7.94652V18.9504C7.94652 18.5854 8.2408 18.2897 8.60348 18.2897H10.1024C10.4651 18.2897 10.7594 18.5854 10.7594 18.9504V20.9677C10.7594 21.3322 10.4651 21.6279 10.1024 21.6279Z" fill="#4E5A2A"/>
<path d="M5.40813 19.2015H7.9446V18.836H5.40813V19.2015ZM8.60157 20.5225H4.75117C4.38802 20.5225 4.09375 20.2272 4.09375 19.8622V18.1762C4.09375 17.8117 4.38802 17.5155 4.75117 17.5155H8.60157C8.96425 17.5155 9.25852 17.8117 9.25852 18.1762V19.8622C9.25852 20.2272 8.96425 20.5225 8.60157 20.5225Z" fill="#4E5A2A"/>
<path d="M3.78542 25.9932H2.62171C2.25857 25.9932 1.96484 25.6979 1.96484 25.3329V23.0171C1.96484 22.6522 2.25857 22.3569 2.62171 22.3569H3.78542C4.14865 22.3569 4.44246 22.6522 4.44246 23.0171V25.3329C4.44246 25.6979 4.14865 25.9932 3.78542 25.9932Z" fill="#4E5A2A"/>
<path d="M10.7309 25.9932H9.56712C9.20444 25.9932 8.91016 25.6979 8.91016 25.3329V23.0171C8.91016 22.6522 9.20444 22.3569 9.56712 22.3569H10.7309C11.0936 22.3569 11.3874 22.6522 11.3874 23.0171V25.3329C11.3874 25.6979 11.0936 25.9932 10.7309 25.9932Z" fill="#4E5A2A"/>
<path d="M16.7519 20.4406L30.1578 24.2803V11.7048L16.7519 15.5492V20.4406ZM30.8157 25.8154C30.7551 25.8154 30.694 25.8076 30.6353 25.7905L15.915 21.5742C15.6322 21.493 15.4375 21.2342 15.4375 20.9393V15.0514C15.4375 14.7566 15.6322 14.4977 15.915 14.4165L30.6348 10.1947C30.8331 10.1379 31.0461 10.1781 31.2105 10.3031C31.3753 10.4272 31.4722 10.6228 31.4722 10.83V25.1556C31.4722 25.3628 31.3753 25.558 31.211 25.6826C31.0957 25.7702 30.9566 25.8154 30.8157 25.8154Z" fill="#4E5A2A"/>
<path d="M31.9426 10.2432C31.6864 10.2432 31.4706 10.4605 31.4706 10.7175V25.1806C31.4706 25.4362 31.6864 25.6526 31.9426 25.6526C32.2024 25.6526 32.4141 25.4409 32.4141 25.1806V10.7175C32.4141 10.4605 32.1978 10.2432 31.9426 10.2432ZM31.9426 26.9736C30.9578 26.9736 30.1562 26.1694 30.1562 25.1806V10.7175C30.1562 9.72734 30.9578 8.9222 31.9426 8.9222C32.9273 8.9222 33.728 9.72734 33.728 10.7175V25.1806C33.728 26.1694 32.9273 26.9736 31.9426 26.9736Z" fill="#4E5A2A"/>
<path d="M15.2269 14.5619C15.1135 14.5619 15.0166 14.6583 15.0166 14.7723V21.1235C15.0166 21.2384 15.1135 21.3353 15.2269 21.3353C15.3412 21.3353 15.4376 21.2384 15.4376 21.1235V14.7723C15.4376 14.6583 15.3412 14.5619 15.2269 14.5619ZM15.2269 22.6562C14.3867 22.6562 13.7031 21.9688 13.7031 21.1235V14.7723C13.7031 13.9284 14.3867 13.2413 15.2269 13.2413C16.0679 13.2413 16.752 13.9284 16.752 14.7723V21.1235C16.752 21.9688 16.0679 22.6562 15.2269 22.6562Z" fill="#4E5A2A"/>
<path d="M18.5834 27.7429H18.8378L20.1857 22.7967L18.5834 22.3381V27.7429ZM19.3396 29.0635H17.9265C17.5634 29.0635 17.2695 28.7682 17.2695 28.4037V21.4633C17.2695 21.2561 17.3669 21.0609 17.5308 20.9359C17.6951 20.8113 17.9086 20.7712 18.1065 20.8284L21.1713 21.706C21.518 21.8056 21.72 22.1664 21.6249 22.5157L19.9727 28.5781C19.8946 28.8651 19.6352 29.0635 19.3396 29.0635Z" fill="#4E5A2A"/>
<path d="M33.728 15.7834V19.4184L35.0961 19.1152V16.0866L33.728 15.7834ZM33.0715 20.9004C32.9232 20.9004 32.7777 20.8506 32.6597 20.755C32.505 20.6295 32.4141 20.4408 32.4141 20.2401V14.9617C32.4141 14.7614 32.505 14.5723 32.6597 14.4472C32.8149 14.3217 33.0182 14.2733 33.2129 14.3176L35.8944 14.9109C36.1956 14.9774 36.41 15.2459 36.41 15.5564V19.6454C36.41 19.9554 36.1956 20.2235 35.8944 20.2904L33.2133 20.8852C33.1661 20.8953 33.1188 20.9004 33.0715 20.9004Z" fill="#4E5A2A"/>
<path d="M36.5161 15.5166C36.3399 15.5166 36.1636 15.4455 36.0341 15.3048C35.7876 15.0372 35.8041 14.6196 36.0699 14.3714L37.6203 12.9309C37.8865 12.6827 38.3025 12.6997 38.5485 12.9674C38.7951 13.2345 38.7785 13.6525 38.5127 13.8998L36.9628 15.3408C36.8361 15.4589 36.6764 15.5166 36.5161 15.5166Z" fill="#4E5A2A"/>
<path d="M37.5978 16.9434C37.298 16.9434 37.0272 16.7357 36.9579 16.4289C36.8775 16.0731 37.0993 15.7202 37.4532 15.6394L39.5095 15.1697C39.8639 15.089 40.2156 15.3123 40.2959 15.6676C40.3763 16.0229 40.154 16.3768 39.8005 16.4575L37.7438 16.9272C37.6952 16.9378 37.646 16.9434 37.5978 16.9434Z" fill="#4E5A2A"/>
<path d="M39.8445 19.3486C39.7802 19.3486 39.715 19.3385 39.6503 19.3182L37.6344 18.6907C37.2878 18.5827 37.0941 18.2131 37.2015 17.8643C37.3089 17.5164 37.6771 17.3212 38.0237 17.4292L40.0392 18.0572C40.3858 18.1651 40.58 18.5347 40.4725 18.8831C40.3849 19.1664 40.125 19.3486 39.8445 19.3486Z" fill="#4E5A2A"/>
<path d="M38.5769 21.9307C38.4001 21.9307 38.2238 21.8596 38.0944 21.7189L36.6593 20.1616C36.4127 19.894 36.4288 19.4769 36.6951 19.2287C36.9609 18.9809 37.3768 18.9971 37.6234 19.2642L39.0585 20.8215C39.305 21.0895 39.2894 21.5071 39.0227 21.7553C38.8964 21.8725 38.7367 21.9307 38.5769 21.9307Z" fill="#4E5A2A"/>
<path d="M36.1896 23.5303C35.8889 23.5303 35.618 23.3226 35.5487 23.0158L35.0827 20.9464C35.0028 20.5907 35.2246 20.2377 35.579 20.157C35.9329 20.0762 36.2846 20.2995 36.3645 20.6553L36.8305 22.7242C36.9108 23.0799 36.6886 23.4334 36.3346 23.5137C36.2855 23.5257 36.2368 23.5303 36.1896 23.5303Z" fill="#4E5A2A"/>
<path d="M34.8725 14.8291C34.8078 14.8291 34.7426 14.8189 34.6779 14.7991C34.3308 14.6916 34.1371 14.3216 34.2445 13.9727L34.8702 11.9463C34.9777 11.5974 35.3458 11.4027 35.6925 11.5112C36.0391 11.6191 36.2328 11.9887 36.1254 12.3375L35.5001 14.364C35.4124 14.6468 35.1526 14.8291 34.8725 14.8291Z" fill="#4E5A2A"/>
<path d="M26.006 26.4075C23.738 26.4075 21.8925 28.2628 21.8925 30.5439C21.8925 32.8237 23.738 34.679 26.006 34.679C28.2771 34.679 30.1235 32.8237 30.1235 30.5439C30.1235 28.2628 28.2771 26.4075 26.006 26.4075ZM26.006 36C23.0131 36 20.5781 33.5523 20.5781 30.5439C20.5781 27.5347 23.0131 25.0865 26.006 25.0865C29.0011 25.0865 31.4375 27.5347 31.4375 30.5439C31.4375 33.5523 29.0011 36 26.006 36Z" fill="#4E5A2A"/>
<path d="M26.0087 28.0103C24.6204 28.0103 23.4902 29.1468 23.4902 30.5443C23.4902 31.9415 24.6204 33.0779 26.0087 33.0779C27.4002 33.0779 28.5314 31.9415 28.5314 30.5443C28.5314 29.1468 27.4002 28.0103 26.0087 28.0103ZM26.0087 34.3984C23.8955 34.3984 22.1758 32.6691 22.1758 30.5443C22.1758 28.4191 23.8955 26.6898 26.0087 26.6898C28.1242 26.6898 29.8454 28.4191 29.8454 30.5443C29.8454 32.6691 28.1242 34.3984 26.0087 34.3984Z" fill="#4E5A2A"/>
<path d="M15.6931 8.85528L15.7316 9.38543L17.4987 8.18394C17.607 8.10965 17.7351 8.06997 17.8669 8.06997H24.1711C24.1941 8.06997 24.2156 8.04875 24.2156 8.02522V1.36487C24.2156 1.3418 24.1941 1.32058 24.1711 1.32058H13.9605C13.9329 1.32058 13.9155 1.34365 13.9155 1.36487V8.02522C13.9155 8.0469 13.9329 8.06997 13.9605 8.06997H15.0288C15.3777 8.06997 15.6655 8.34358 15.6844 8.69425L15.6931 8.85528ZM15.1587 11.2324C15.0614 11.2324 14.9631 11.2107 14.8722 11.1655C14.661 11.0635 14.5206 10.8555 14.5036 10.6201L14.4145 9.39096H13.9605C13.2112 9.39096 12.6016 8.77869 12.6016 8.02522V1.36487C12.6016 0.611866 13.2112 -0.000418663 13.9605 -0.000418663H24.1711C24.9204 -0.000418663 25.53 0.611866 25.53 1.36487V8.02522C25.53 8.77869 24.9204 9.39096 24.1711 9.39096H18.0684L15.5269 11.1189C15.4167 11.1937 15.2882 11.2324 15.1587 11.2324Z" fill="#4E5A2A"/>
<path d="M22.9226 2.84766H15.2815C14.9193 2.84766 14.625 2.55191 14.625 2.18694C14.625 1.82197 14.9193 1.52713 15.2815 1.52713H22.9226C23.2858 1.52713 23.5796 1.82197 23.5796 2.18694C23.5796 2.55191 23.2858 2.84766 22.9226 2.84766Z" fill="#4E5A2A"/>
<path d="M19.1025 4.57227H15.2815C14.9193 4.57227 14.625 4.27743 14.625 3.91246C14.625 3.54749 14.9193 3.25219 15.2815 3.25219H19.1025C19.4652 3.25219 19.7595 3.54749 19.7595 3.91246C19.7595 4.27743 19.4652 4.57227 19.1025 4.57227Z" fill="#4E5A2A"/>
<path d="M21.7937 6.29688H15.2815C14.9193 6.29688 14.625 6.00066 14.625 5.63662C14.625 5.27165 14.9193 4.97589 15.2815 4.97589H21.7937C22.1568 4.97589 22.4507 5.27165 22.4507 5.63662C22.4507 6.00066 22.1568 6.29688 21.7937 6.29688Z" fill="#4E5A2A"/>
<path d="M22.9226 8.01953H15.2815C14.9193 8.01953 14.625 7.72377 14.625 7.3588C14.625 6.99475 14.9193 6.699 15.2815 6.699H22.9226C23.2858 6.699 23.5796 6.99475 23.5796 7.3588C23.5796 7.72377 23.2858 8.01953 22.9226 8.01953Z" fill="#4E5A2A"/>
<path d="M12.6954 24.6797H10.7277C10.365 24.6797 10.0703 24.3835 10.0703 24.019C10.0703 23.654 10.365 23.3582 10.7277 23.3582H12.6954C13.0585 23.3582 13.3524 23.654 13.3524 24.019C13.3524 24.3835 13.0585 24.6797 12.6954 24.6797Z" fill="#4E5A2A"/>
<path d="M9.56721 24.6797H3.78991C3.42732 24.6797 3.13281 24.3835 3.13281 24.019C3.13281 23.654 3.42732 23.3582 3.78991 23.3582H9.56721C9.93035 23.3582 10.2242 23.654 10.2242 24.019C10.2242 24.3835 9.93035 24.6797 9.56721 24.6797Z" fill="#4E5A2A"/>
<path d="M2.62485 24.6797H0.657049C0.293908 24.6797 0 24.3835 0 24.019C0 23.654 0.293908 23.3582 0.657049 23.3582H2.62485C2.98767 23.3582 3.28195 23.654 3.28195 24.019C3.28195 24.3835 2.98767 24.6797 2.62485 24.6797Z" fill="#4E5A2A"/>
<path d="M26.5487 28.6419V28.7443C25.9427 28.7932 25.5309 29.1531 25.5309 29.675C25.5309 30.2263 25.8601 30.4944 26.5708 30.6785V31.6401C26.3031 31.5902 26.08 31.4781 25.8504 31.3134C25.8091 31.2793 25.7513 31.2585 25.6907 31.2585C25.541 31.2585 25.4258 31.3752 25.4258 31.5284C25.4258 31.6308 25.4744 31.707 25.5566 31.7624C25.8504 31.97 26.1856 32.1029 26.5487 32.1416V32.4448C26.5487 32.5606 26.647 32.6533 26.7622 32.6533C26.8806 32.6533 26.9725 32.5606 26.9725 32.4448V32.1513C27.5881 32.0918 28.0068 31.736 28.0068 31.2013C28.0068 30.6785 27.6905 30.3823 26.9536 30.1968V29.2597C27.1166 29.3008 27.2819 29.3718 27.4508 29.4747C27.5023 29.5038 27.55 29.5185 27.5982 29.5185C27.7479 29.5185 27.8691 29.4037 27.8691 29.2505C27.8691 29.1342 27.802 29.0595 27.7254 29.0175C27.5023 28.8758 27.2594 28.7831 26.9725 28.7494V28.6419C26.9725 28.5247 26.8806 28.4319 26.7622 28.4319C26.647 28.4319 26.5487 28.5247 26.5487 28.6419ZM27.432 31.2345C27.432 31.4684 27.2626 31.6239 26.9536 31.6595V30.7722C27.3269 30.8889 27.432 31.0195 27.432 31.2345ZM26.1057 29.6399C26.1057 29.4277 26.2581 29.2597 26.5708 29.232V30.0939C26.1948 29.9716 26.1057 29.8452 26.1057 29.6399Z" fill="#4E5A2A"/>
</svg>
