<svg width="40" height="40" viewBox="0 0 40 40" fill="none" xmlns="http://www.w3.org/2000/svg">
<path d="M17.9684 37.9633H22.1459V32.5804C22.1459 32.1838 22.3749 31.8438 22.7755 31.7871C24.1484 31.4472 25.4074 30.8806 26.5519 30.0873C26.8953 29.8607 27.2959 29.9173 27.5821 30.2006L31.4736 34.0536L34.4489 31.1072L30.3862 27.1976C30.1001 26.9143 30.0429 26.5176 30.2718 26.2343C30.9585 25.1011 31.4736 23.8545 31.7597 22.5513C31.8169 22.1547 32.2175 21.928 32.5603 21.928H38.2832V17.7917H32.5603C32.1603 17.7917 31.8169 17.5084 31.7597 17.1685C31.4736 15.8653 30.9585 14.6187 30.2718 13.4855C30.1001 13.1455 30.1001 12.7489 30.3862 12.5222L34.4489 8.49925L31.5308 5.55285L27.6393 9.40583C27.3531 9.68914 26.8953 9.7458 26.6092 9.51916C25.4646 8.72589 24.1484 8.15928 22.8327 7.81931C22.4893 7.76265 22.2026 7.36602 22.2026 7.02605V1.6432H18.0257V6.85606C18.0257 7.25269 17.7393 7.59266 17.3389 7.64932C15.9084 7.93263 14.4777 8.44259 13.2187 9.17919C12.8753 9.34917 12.4748 9.34917 12.2458 9.06586L8.64089 5.49619L5.60796 8.44259L9.09843 11.8989C9.3848 12.1822 9.44168 12.6355 9.21305 12.9188C8.35452 14.1654 7.78235 15.5819 7.43904 17.0551C7.38175 17.4518 6.98133 17.6784 6.63784 17.6784H1.71667V21.8147H6.63784C7.03844 21.8147 7.38175 22.098 7.43904 22.438C7.78235 23.9112 8.35452 25.3277 9.21305 26.5743C9.44168 26.9143 9.3848 27.3109 9.09843 27.5942L5.60796 31.0505L8.5836 33.997L12.1887 30.4273C12.4748 30.144 12.8753 30.0873 13.1617 30.3139C14.4204 31.0505 15.7938 31.5605 17.2818 31.8438C17.6824 31.9005 17.9684 32.2404 17.9684 32.6371V37.9633ZM22.9466 39.6064H17.1098C16.6523 39.6064 16.2517 39.2665 16.2517 38.7565V33.4303C15.0499 33.147 13.9054 32.6937 12.8753 32.1271L9.09843 35.8668C8.75512 36.2068 8.24029 36.2068 7.95409 35.8668L3.83395 31.7871C3.66221 31.6172 3.60486 31.4472 3.60486 31.2205C3.60486 30.9939 3.66221 30.7672 3.83395 30.6539L7.49615 27.0276C6.80959 25.8943 6.35165 24.7611 5.95105 23.5712H0.85814C0.400655 23.5712 0 23.2313 0 22.7213V16.8852C0 16.4319 0.343313 16.0352 0.85814 16.0352H5.95105C6.29476 14.7887 6.80959 13.6555 7.49615 12.5789L3.83395 8.95254C3.66221 8.78256 3.60486 8.61257 3.60486 8.38593C3.60486 8.15928 3.66221 7.93263 3.83395 7.81931L7.95409 3.73968C8.12566 3.56969 8.29763 3.51303 8.52626 3.51303C8.75512 3.51303 8.9842 3.56969 9.09843 3.73968L12.8753 7.47934C13.9624 6.91272 15.0499 6.45943 16.2517 6.17612V0.849937C16.2517 0.396645 16.595 1.52588e-05 17.1098 1.52588e-05H22.9466C23.4044 1.52588e-05 23.8056 0.339985 23.8056 0.849937V6.45943C24.8923 6.7994 25.9224 7.25269 26.8953 7.81931L30.9585 3.79634C31.1302 3.62635 31.3019 3.56969 31.5308 3.56969C31.7597 3.56969 31.9881 3.62635 32.1031 3.79634L36.2229 7.87597C36.5663 8.21594 36.5663 8.72589 36.2229 9.0092L32.0453 13.1455C32.5603 14.1087 32.9609 15.072 33.2476 16.0919H39.1416C39.5994 16.0919 40 16.4319 40 16.9418V22.7213C40 23.1746 39.6566 23.5712 39.1416 23.5712H33.3615C33.0754 24.5911 32.6748 25.611 32.1603 26.5176L36.3374 30.6539C36.6808 30.9939 36.6808 31.5038 36.3374 31.7871L32.2175 35.8668C31.8736 36.2068 31.3591 36.2068 31.073 35.8668L27.0098 31.8438C26.0369 32.4104 25.0068 32.8637 23.92 33.2037V38.8132C23.8056 39.2665 23.4044 39.6064 22.9466 39.6064Z" fill="#6F00FF"/>
<path d="M19.6276 11.5584C15.0495 11.5584 11.33 15.2414 11.33 19.7743C11.33 22.0408 12.2454 24.1373 13.8479 25.6671V24.1373C13.8479 21.7008 15.8507 19.7177 18.3113 19.7177H21.1154C23.5763 19.7177 25.5787 21.7008 25.5787 24.1373V25.6671C27.1811 24.1373 28.0967 22.0408 28.0967 19.7743C27.9823 15.2414 24.2058 11.5584 19.6276 11.5584ZM14.6489 28.2736C14.4773 28.2736 14.3056 28.2169 14.1911 28.1603C11.33 26.3471 9.61328 23.2307 9.61328 19.831C9.61328 14.3915 14.0767 9.91523 19.6276 9.91523C25.1781 9.91523 29.6419 14.3348 29.6419 19.831C29.6419 23.174 27.9823 26.2904 25.0636 28.1603C24.8347 28.3302 24.4914 28.3302 24.2058 28.2169C23.9196 28.0469 23.7474 27.7636 23.7474 27.4803V24.2506C23.7474 22.7207 22.4889 21.5309 21.001 21.5309H18.1969C16.652 21.5309 15.4501 22.7774 15.4501 24.2506V27.4803C15.4501 27.8203 15.2784 28.0469 14.9922 28.2169C14.8779 28.2169 14.7635 28.2736 14.6489 28.2736Z" fill="#6F00FF"/>
<path d="M15.4499 26.914C16.7088 27.6506 18.1393 28.0472 19.6274 28.0472C21.1151 28.0472 22.5454 27.6506 23.805 26.914V24.1376C23.805 22.6077 22.5454 21.4178 21.0581 21.4178H18.2539C16.7088 21.4178 15.5072 22.6644 15.5072 24.1376V26.914H15.4499ZM19.6274 29.6904C17.6818 29.6904 15.7932 29.1238 14.1909 28.1039C13.9618 27.9339 13.8477 27.7073 13.8477 27.424V24.1943C13.8477 21.7578 15.8505 19.7747 18.3111 19.7747H21.1151C23.576 19.7747 25.5785 21.7578 25.5785 24.1943V27.424C25.5785 27.7073 25.4068 27.9906 25.2351 28.1039C23.4616 29.1805 21.5731 29.6904 19.6274 29.6904Z" fill="#6F00FF"/>
<path d="M19.6287 14.8452C18.2552 14.8452 17.1105 15.9784 17.1105 17.3383C17.1105 18.6982 18.2552 19.8314 19.6287 19.8314C21.002 19.8314 22.1466 18.6982 22.1466 17.3383C22.1466 15.9784 21.002 14.8452 19.6287 14.8452ZM19.6287 21.4746C17.3396 21.4746 15.4512 19.6048 15.4512 17.3383C15.4512 15.0719 17.3396 13.202 19.6287 13.202C21.9177 13.202 23.8063 15.0719 23.8063 17.3383C23.8063 19.6048 21.9177 21.4746 19.6287 21.4746Z" fill="#6F00FF"/>
</svg>
