<svg width="52" height="48" viewBox="0 0 52 48" fill="none" xmlns="http://www.w3.org/2000/svg">
<path d="M32.9856 9.50182C33.0944 8.50369 33.2034 7.50556 33.3122 6.50744C33.4756 4.92858 33.6298 3.34974 33.775 1.77088C33.8113 1.40793 33.8476 1.04497 33.8839 0.682017C33.9111 0.328136 33.6661 -0.0257455 33.3122 0.00147614C32.9311 0.0286978 32.6589 0.409797 32.6317 0.763678C32.5228 1.76181 32.4139 2.75993 32.305 3.75806C32.1417 5.33691 31.9784 6.91577 31.815 8.49463C31.7788 8.85758 31.7334 9.22054 31.6789 9.58349C31.6517 9.93738 31.8967 10.2913 32.2778 10.264C32.6589 10.2368 32.9311 9.8557 32.9856 9.50182Z" fill="white"/>
<path d="M47.2769 17.8049C46.2788 17.6597 45.2806 17.5145 44.2825 17.3693C42.7037 17.1334 41.1248 16.9066 39.5459 16.6888C39.183 16.6344 38.82 16.5799 38.4571 16.5255C38.0215 16.471 37.586 16.7977 37.4499 17.206C37.341 17.5599 37.4226 18.1588 37.9126 18.2132C38.9108 18.3584 39.8998 18.5036 40.8798 18.6488C42.4768 18.8665 44.0647 19.0843 45.6436 19.3021C46.0065 19.3565 46.3695 19.411 46.7325 19.4654C47.1952 19.5199 47.6308 19.2204 47.7397 18.7849C47.8486 18.431 47.7669 17.8865 47.2769 17.8049Z" fill="white"/>
<path d="M37.0142 12.9876C37.7946 12.3887 38.5659 11.7899 39.3281 11.191C40.544 10.2292 41.7599 9.28548 42.9758 8.35994C43.248 8.14217 43.5293 7.92439 43.8196 7.70662C44.1463 7.46162 44.364 6.99885 44.1735 6.5633C43.9829 6.1822 43.493 6.07333 43.1935 6.31832C42.4313 6.89905 41.6691 7.48885 40.9069 8.08773C39.7091 9.03141 38.4933 9.97508 37.2592 10.9188C36.9689 11.1547 36.6875 11.3815 36.4153 11.5993C36.0614 11.8443 35.8165 12.3343 36.007 12.7426C36.1976 13.1509 36.6876 13.2326 37.0142 12.9876Z" fill="white"/>
<path d="M39.6819 36.8601C39.6638 37.0598 39.6366 37.2685 39.6003 37.4863C39.6003 37.5407 39.5912 37.5951 39.5731 37.6496C39.5731 37.704 39.5186 37.8401 39.5731 37.6768C39.5549 37.7857 39.5277 37.8946 39.4914 38.0035C39.4551 38.1123 39.4097 38.2122 39.3553 38.3029C39.3372 38.3574 39.319 38.4027 39.3009 38.439C39.3825 38.2485 39.3281 38.3846 39.3009 38.4118C39.2101 38.6114 39.1012 38.802 38.9742 38.9834C38.8653 39.1196 38.9742 38.9834 38.9742 38.9562C38.9379 39.0107 38.9016 39.056 38.8653 39.0923C38.8109 39.1649 38.7474 39.2375 38.6748 39.3101C38.6022 39.4008 38.5205 39.4825 38.4298 39.5551C38.4025 39.5823 38.3209 39.6368 38.457 39.5279C38.4025 39.5823 38.3481 39.6277 38.2937 39.664C38.1303 39.791 37.967 39.8999 37.8037 39.9906C37.6676 40.0723 37.7765 40.0179 37.8037 39.9906C37.7492 40.0269 37.6948 40.0542 37.6403 40.0723C37.5314 40.1268 37.4226 40.1721 37.3137 40.2084C37.2048 40.2447 37.105 40.281 37.0142 40.3173C36.987 40.3173 36.8509 40.3717 36.987 40.3173C36.9326 40.3354 36.8872 40.3536 36.8509 40.3717C36.615 40.408 36.3791 40.4353 36.1431 40.4534C35.8981 40.4534 35.8982 40.4534 35.6532 40.4262C35.4172 40.408 35.1904 40.3717 34.9726 40.3173C34.9 40.281 34.8184 40.2538 34.7276 40.2356C34.5371 40.154 34.8093 40.2629 34.6732 40.2084C34.6369 40.1903 34.5915 40.1721 34.5371 40.154C34.3556 40.0632 34.1741 39.9634 33.9927 39.8545C33.9019 39.8001 33.8202 39.7456 33.7477 39.6912C33.7114 39.6549 33.6751 39.6186 33.6388 39.5823C33.5299 39.5006 33.7477 39.6912 33.5843 39.5551C33.4391 39.4099 33.303 39.2557 33.176 39.0923C33.049 38.9471 32.931 38.7929 32.8221 38.6296C32.7677 38.5207 32.9038 38.7657 32.7949 38.5751C32.7767 38.5388 32.7586 38.5025 32.7404 38.4662C32.686 38.3573 32.6316 38.2485 32.5771 38.1396C32.5408 38.0488 32.5136 37.949 32.4955 37.8401C32.4773 37.8038 32.4591 37.7675 32.441 37.7312C32.3866 37.5135 32.4682 37.8129 32.441 37.6768C32.3866 37.459 32.3503 37.2413 32.3321 37.0235C32.3321 36.969 32.3321 36.9146 32.3321 36.8601C32.3049 36.8329 32.3049 36.6696 32.3049 36.8057C32.3049 36.715 32.314 36.6152 32.3321 36.5063C32.3321 36.3974 32.3412 36.2885 32.3594 36.1796C32.3775 36.1433 32.3866 36.0979 32.3866 36.0435C32.4138 35.9891 32.441 35.853 32.3866 35.9891C32.441 35.7894 32.5045 35.5989 32.5771 35.4174C32.6134 35.363 32.6406 35.3085 32.6588 35.2541C32.5499 35.4446 32.686 35.118 32.6588 35.2541C32.7132 35.1452 32.7677 35.0454 32.8221 34.9546C32.8766 34.8639 32.931 34.7732 32.9854 34.6824C33.0127 34.628 33.0943 34.5463 32.9854 34.7096C33.0036 34.6734 33.0308 34.6371 33.0671 34.6008C33.2123 34.4193 33.3665 34.256 33.5299 34.1108C33.6388 34.0019 33.5299 34.1108 33.5027 34.138C33.5389 34.1017 33.5843 34.0654 33.6388 34.0291C33.7113 33.9565 33.793 33.893 33.8838 33.8386C33.9745 33.7841 34.0652 33.7297 34.156 33.6752C34.1832 33.648 34.2921 33.5936 34.156 33.6752C34.2104 33.6389 34.2739 33.6117 34.3465 33.5936C34.528 33.5028 34.7185 33.4302 34.9182 33.3758C34.9545 33.3576 34.9998 33.3486 35.0543 33.3486C34.9182 33.3758 35.0543 33.3213 35.0815 33.3213C35.2086 33.3032 35.3356 33.2851 35.4626 33.2669C35.6804 33.2488 35.8891 33.2397 36.0887 33.2397C36.007 33.2397 36.252 33.2397 36.3065 33.2397C36.4335 33.2578 36.5515 33.285 36.6604 33.3213C36.7692 33.3395 36.8781 33.3576 36.987 33.3758C37.0415 33.3939 37.0868 33.4121 37.1231 33.4302C37.1504 33.4302 37.3409 33.5119 37.2865 33.4847C37.2048 33.4575 37.3954 33.5391 37.3954 33.5119C37.4498 33.5482 37.5133 33.5754 37.5859 33.5936C37.6766 33.648 37.7674 33.7024 37.8581 33.7569C37.9489 33.8113 38.0396 33.8749 38.1303 33.9474C38.1848 33.9656 38.2301 33.9928 38.2664 34.0291C38.2937 34.0563 38.4298 34.1652 38.3753 34.1108C38.2937 34.0563 38.457 34.1924 38.457 34.1924C38.5114 34.2287 38.5568 34.2741 38.5931 34.3285C38.6657 34.4011 38.7383 34.4828 38.8109 34.5735C38.8835 34.6643 38.9561 34.755 39.0287 34.8458C39.0649 34.8821 39.0922 34.9274 39.1103 34.9819C39.1375 35.0091 39.2192 35.1724 39.1648 35.0363C39.2736 35.2359 39.3644 35.4355 39.437 35.6352C39.4914 35.7441 39.5277 35.862 39.5458 35.9891C39.6003 36.098 39.5186 35.8257 39.5731 36.0163C39.5912 36.0889 39.6003 36.1615 39.6003 36.2341C39.6185 36.3429 39.6366 36.4518 39.6547 36.5607C39.6547 36.6152 39.6547 36.6787 39.6547 36.7513C39.6547 36.7785 39.6547 37.0235 39.6819 36.8601C39.6547 37.2413 39.8453 37.6224 40.3081 37.5951C40.6892 37.5407 41.1247 37.1051 41.1247 36.6968C41.1519 35.5807 40.8797 34.5463 40.2264 33.6208C39.6547 32.8041 38.8109 32.2325 37.8853 31.8786C35.8981 31.1708 33.5299 31.8786 32.1688 33.5391C30.7533 35.2269 30.3994 37.704 31.5155 39.6368C32.5499 41.4334 34.646 42.4406 36.7148 41.9778C39.1375 41.4062 41.043 39.2012 41.1247 36.6968C41.1519 36.3157 40.9614 35.9074 40.4986 35.9618C40.0903 36.0163 39.6819 36.4518 39.6819 36.8601Z" fill="white"/>
<path d="M50.5161 29.7806C50.5161 29.9802 50.498 30.1799 50.4617 30.3795C50.4435 30.4339 50.4344 30.4884 50.4344 30.5428C50.4072 30.5973 50.38 30.7334 50.4072 30.5973C50.3891 30.7062 50.3619 30.806 50.3256 30.8967C50.2893 31.0056 50.2439 31.1145 50.1895 31.2234C50.1713 31.2597 50.1531 31.296 50.135 31.3323C50.1622 31.305 50.2167 31.1962 50.135 31.3323C50.0261 31.5319 49.9082 31.7224 49.7811 31.9039C49.6995 32.0128 49.7811 31.9039 49.8083 31.8767C49.7721 31.9311 49.7358 31.9765 49.6995 32.0128C49.6269 32.0854 49.5543 32.158 49.4817 32.2306C49.4091 32.3032 49.3365 32.3758 49.2639 32.4484C49.1278 32.5572 49.2367 32.4756 49.2639 32.4484C49.2095 32.5028 49.155 32.5482 49.1006 32.5845C48.9373 32.6934 48.7649 32.8022 48.5834 32.9111C48.4745 32.9928 48.5562 32.9383 48.5834 32.9111C48.5289 32.9474 48.4745 32.9746 48.4201 32.9928C48.3112 33.0472 48.1932 33.0926 48.0662 33.1289C47.3584 33.4011 46.5145 33.4555 45.6979 33.2378C45.6071 33.2015 45.5255 33.1743 45.4529 33.1561C45.2351 33.1017 45.5073 33.1833 45.3984 33.1289C45.344 33.1108 45.2895 33.0926 45.2351 33.0745C45.0536 32.9837 44.8721 32.8839 44.6907 32.775C44.3368 32.5572 44.1462 32.3939 43.8468 32.04C43.5474 31.6862 43.4385 31.4684 43.2479 31.06C43.2116 30.9693 43.1844 30.8786 43.1663 30.7878C43.1481 30.7515 43.13 30.7152 43.1118 30.679C43.0574 30.4612 43.1391 30.7334 43.1118 30.5973C43.0574 30.3976 43.0211 30.189 43.0029 29.9712C43.0029 29.9167 42.9939 29.8623 42.9757 29.8079C42.9757 29.7806 42.9757 29.6173 42.9757 29.7534C42.9757 29.6445 42.9848 29.5356 43.0029 29.4267C43.0029 29.3179 43.012 29.2181 43.0302 29.1273C43.0483 29.0729 43.0574 29.0275 43.0574 28.9912C43.0574 28.9368 43.1118 28.7734 43.0846 28.9095C43.1209 28.7099 43.1754 28.5194 43.2479 28.3379C43.2842 28.2834 43.3114 28.229 43.3296 28.1746C43.3568 28.0657 43.2479 28.3379 43.3296 28.1473C43.384 28.0566 43.4385 27.9658 43.4929 27.8751C43.5655 27.7844 43.629 27.6936 43.6835 27.6029C43.7107 27.5757 43.7651 27.4668 43.6835 27.6029C43.7016 27.5666 43.7288 27.5303 43.7651 27.494C43.9103 27.3307 44.0646 27.1764 44.2279 27.0312C44.2279 27.004 44.3368 26.9224 44.2279 27.0312C44.2642 26.995 44.3005 26.9586 44.3368 26.9224C44.4275 26.8679 44.5092 26.8135 44.5818 26.759C44.6907 26.6864 44.7905 26.6229 44.8812 26.5685C44.9085 26.5685 44.9901 26.514 44.8812 26.5685C44.9538 26.5503 45.0173 26.5231 45.0718 26.4868C45.834 26.1602 46.5962 26.0513 47.44 26.2146C48.3111 26.4051 49.0733 26.8407 49.6178 27.494C49.9444 27.8479 50.1078 28.0929 50.2711 28.5557C50.3255 28.6645 50.3618 28.7734 50.38 28.8823C50.4344 29.0184 50.3528 28.7462 50.4072 28.9368C50.4254 29.0094 50.4344 29.0819 50.4344 29.1545C50.4707 29.2634 50.4889 29.3723 50.4889 29.4812C50.4889 29.5356 50.498 29.5901 50.5161 29.6445C50.5161 29.6717 50.5161 29.8895 50.5161 29.7806C50.5161 30.1073 50.6794 30.4612 51.0878 30.4339C51.4689 30.4067 51.85 29.9984 51.85 29.6445C51.8772 28.5557 51.5777 27.5485 50.9516 26.6774C50.38 25.8879 49.5361 25.2891 48.5834 24.9624C46.5962 24.2546 44.2823 24.9352 42.9213 26.5413C41.533 28.1746 41.1791 30.5973 42.2679 32.4756C43.3024 34.245 45.3985 35.1977 47.4673 34.735C49.89 34.1905 51.7955 32.04 51.85 29.6445C51.8772 29.2906 51.6866 28.9368 51.2783 28.964C50.8972 29.0184 50.5161 29.3995 50.5161 29.7806Z" fill="white"/>
<path d="M49.999 42.7387C49.9809 42.9564 49.9537 43.1651 49.9174 43.3648C49.8992 43.4192 49.8901 43.4736 49.8901 43.5281C49.8629 43.5825 49.8357 43.7186 49.8629 43.5553C49.8448 43.6642 49.8176 43.7731 49.7813 43.882C49.7268 43.9909 49.6814 44.0907 49.6451 44.1814C49.627 44.2358 49.6088 44.2812 49.5907 44.3175C49.6451 44.1542 49.6179 44.2631 49.5907 44.2903C49.4818 44.4899 49.3548 44.6805 49.2096 44.8619C49.1279 44.9981 49.2096 44.8619 49.2368 44.8347C49.2005 44.8892 49.1642 44.9345 49.1279 44.9708C49.0553 45.0434 48.9918 45.116 48.9374 45.1886C48.8466 45.2793 48.765 45.361 48.6924 45.4336C48.5563 45.5425 48.6379 45.4608 48.6924 45.4336C48.6379 45.4699 48.5835 45.5062 48.529 45.5425C48.3657 45.6786 48.2024 45.7875 48.0391 45.8964C47.903 45.978 48.0118 45.9236 48.0391 45.8964C47.9846 45.9327 47.9302 45.9599 47.8757 45.978C47.7669 46.0325 47.6489 46.0869 47.5218 46.1414C47.4311 46.1777 47.3404 46.2049 47.2496 46.223C47.2224 46.2502 47.0863 46.2775 47.1952 46.2502C47.1589 46.2684 47.1135 46.2775 47.0591 46.2775C46.8413 46.3319 46.6145 46.3682 46.3786 46.3863C46.1336 46.4136 46.1335 46.4136 45.8885 46.3863C45.6708 46.3682 45.453 46.341 45.2352 46.3047C45.1626 46.2684 45.081 46.2412 44.9902 46.223C44.7997 46.1686 45.0447 46.2503 44.9358 46.1958C44.8995 46.1777 44.8541 46.1595 44.7997 46.1414C44.6182 46.0688 44.4458 45.978 44.2825 45.8691C44.1917 45.8147 44.1101 45.7603 44.0375 45.7058C44.0012 45.6695 43.9649 45.6423 43.9286 45.6241C43.8197 45.5425 44.0375 45.7058 43.8741 45.5969C43.7471 45.4517 43.6201 45.3066 43.493 45.1614C43.366 45.0162 43.2571 44.8619 43.1664 44.6986C43.1119 44.5897 43.2208 44.8347 43.1392 44.6442C43.121 44.6079 43.1029 44.5716 43.0847 44.5353C43.0303 44.4264 42.9849 44.3175 42.9486 44.2086C42.9123 44.1179 42.876 44.0271 42.8397 43.9364C42.8397 43.9001 42.8306 43.8547 42.8125 43.8003C42.758 43.6097 42.8397 43.882 42.8125 43.7731C42.758 43.5553 42.7308 43.3375 42.7308 43.1198C42.7127 43.0653 42.7036 43.0109 42.7036 42.9564C42.7036 42.9292 42.7036 42.7659 42.7036 42.902C42.7036 42.8112 42.7127 42.7114 42.7308 42.6026C42.749 42.4937 42.7671 42.3938 42.7853 42.3031C42.7853 42.2487 42.7943 42.2033 42.8125 42.167C42.8125 42.0853 42.8669 41.9492 42.8125 42.0853C42.8669 41.8857 42.9305 41.6952 43.0031 41.5137C43.0394 41.4592 43.0666 41.4048 43.0847 41.3503C42.9758 41.5409 43.1392 41.2415 43.0847 41.3503C43.1392 41.2596 43.1936 41.1598 43.2481 41.0509C43.3207 40.9602 43.3842 40.8694 43.4386 40.7787C43.4658 40.7515 43.5475 40.6426 43.4386 40.8059C43.4568 40.7696 43.484 40.7333 43.5203 40.697C43.6655 40.5337 43.8197 40.3704 43.983 40.2071C44.0919 40.0982 43.983 40.2071 43.9558 40.2071C44.0103 40.1889 44.0556 40.1617 44.0919 40.1254C44.1827 40.0528 44.2643 39.9893 44.3369 39.9348C44.4277 39.8804 44.5275 39.8259 44.6364 39.7715C44.6636 39.7443 44.7725 39.6898 44.6364 39.7443C44.6908 39.7261 44.7452 39.6989 44.7997 39.6626C44.9993 39.5719 45.1899 39.4993 45.3713 39.4448C45.4258 39.4267 45.4711 39.4176 45.5074 39.4176C45.3713 39.4448 45.5347 39.3904 45.5619 39.3904C45.6889 39.3723 45.8159 39.3541 45.943 39.336C46.1426 39.2997 46.3513 39.2815 46.5691 39.2815C46.4602 39.2815 46.5691 39.2815 46.5963 39.2815C46.6507 39.2815 46.7052 39.2815 46.7596 39.2815C46.8867 39.2997 47.0137 39.3178 47.1407 39.336C47.3313 39.3632 47.6307 39.4448 47.7396 39.4993C47.8485 39.5265 48.1207 39.6626 48.3113 39.7443C48.4746 39.8532 48.7196 40.0165 48.8013 40.0982C48.8829 40.1526 49.1007 40.3704 49.2096 40.5337C49.2822 40.6063 49.3548 40.688 49.4274 40.7787C49.4637 40.8331 49.4909 40.8785 49.509 40.9148C49.5363 40.942 49.6179 41.1054 49.5635 40.9965C49.6542 41.1779 49.7359 41.3685 49.8085 41.5681C49.8448 41.677 49.8811 41.7859 49.9174 41.8948C49.9446 42.0037 49.8901 41.7315 49.9174 41.9492C49.9355 42.0037 49.9446 42.0672 49.9446 42.1398C49.9627 42.2487 49.9809 42.3576 49.999 42.4664C49.999 42.5209 49.999 42.5753 49.999 42.6298C49.999 42.657 49.999 42.902 49.999 42.7387C49.9718 43.1198 50.1351 43.5009 50.5707 43.4192C50.979 43.392 51.3873 42.9292 51.4146 42.5481C51.469 41.4592 51.224 40.452 50.6251 39.5809C50.0807 38.8187 49.2912 38.2471 48.3657 37.9476C46.4058 37.2671 44.0375 38.0293 42.6764 39.6898C41.2336 41.3776 40.8253 43.8275 41.8597 45.7058C42.8397 47.448 44.8269 48.3735 46.8685 47.8563C49.264 47.2302 51.2512 44.9981 51.4146 42.5481C51.4418 42.167 51.2784 41.8131 50.8429 41.8676C50.4345 41.922 50.0262 42.3576 49.999 42.7387Z" fill="white"/>
<path fill-rule="evenodd" clip-rule="evenodd" d="M39.9815 36.4792L39.8181 35.7987C39.6003 34.9821 39.1376 34.2198 38.457 33.7026L37.9126 33.2943L38.4843 32.9132C39.7909 32.0421 40.9887 31.2527 42.1592 30.4905L42.7581 30.1094L42.9214 30.7627C43.1119 31.6066 43.6019 32.3416 44.2825 32.8588L44.8269 33.2671L44.2553 33.6482C43.0575 34.4376 41.8325 35.2543 40.5531 36.0981L39.9815 36.4792ZM39.5459 33.376C39.9814 33.8115 40.3353 34.3287 40.5803 34.9276C41.4696 34.3287 42.3407 33.748 43.1936 33.1854C42.7581 32.7499 42.4042 32.2327 42.1864 31.6338C41.3425 32.2055 40.4714 32.7771 39.5459 33.376Z" fill="white"/>
<path fill-rule="evenodd" clip-rule="evenodd" d="M42.4314 43.012L41.8325 42.6581C40.7709 42.0048 39.6548 41.3514 38.457 40.6165L37.8854 40.2626L38.4026 39.827C39.0831 39.2554 39.6003 38.4659 39.7909 37.6221L39.9542 36.9688L40.5259 37.3226C41.642 38.0032 42.7581 38.6565 43.7925 39.2826L44.3641 39.6365L43.8741 40.072C43.2208 40.6709 42.7581 41.4875 42.5675 42.3314L42.4314 43.012ZM39.5187 40.1265C40.3081 40.5892 41.0703 41.052 41.8053 41.4875C42.0231 40.8887 42.3497 40.317 42.7853 39.827C42.0594 39.3915 41.3153 38.9468 40.5531 38.4932C40.3081 39.092 39.9542 39.6365 39.5187 40.1265Z" fill="white"/>
<path d="M40.5531 36.3426C41.6238 35.6166 42.6945 34.8998 43.7652 34.192C43.9286 34.1013 44.0828 34.0015 44.228 33.8926C44.718 33.5932 44.8813 32.8854 44.4186 32.5315C44.1464 32.341 43.8469 31.9871 43.6019 31.6604C43.5203 31.4971 43.4386 31.3882 43.3569 31.1977C43.3025 31.0888 43.2571 30.9799 43.2208 30.871C43.2027 30.8166 43.1845 30.7621 43.1664 30.7077C43.1664 30.7077 43.1392 30.5443 43.1392 30.626C43.0847 30.4082 43.003 30.2449 42.7853 30.136C42.5675 30.0544 42.3497 30.1088 42.1592 30.2449C41.0885 30.9527 40.0177 31.6604 38.947 32.3682C38.7837 32.4589 38.6295 32.5588 38.4843 32.6676C38.0215 32.9671 37.8581 33.6748 38.3209 34.0287C38.5931 34.2465 38.8926 34.6004 39.1104 34.927C39.2192 35.0631 39.2737 35.1992 39.3554 35.3898C39.4098 35.4987 39.4552 35.6076 39.4915 35.7165C39.5096 35.7709 39.5277 35.8253 39.5459 35.8798C39.5459 35.8798 39.6004 36.0159 39.5731 35.9614C39.682 36.3426 39.9542 36.5875 40.3625 36.4242C40.7164 36.2881 41.0975 35.7981 40.9887 35.417C40.7164 34.2737 40.1176 33.321 39.192 32.6132C39.1376 33.0669 39.074 33.5206 39.0015 33.9743C40.0903 33.2665 41.1701 32.5588 42.2408 31.851C42.386 31.7421 42.5403 31.6332 42.7036 31.5243C42.377 31.4154 42.0503 31.2975 41.7236 31.1704C42.0231 32.3138 42.622 33.2393 43.5475 33.9743C43.6019 33.5206 43.6564 33.0669 43.7108 32.6132C42.6401 33.321 41.5603 34.0287 40.4714 34.7365C40.3263 34.8454 40.172 34.9452 40.0087 35.0359C39.682 35.2537 39.4642 35.7709 39.6276 36.152C39.7909 36.5331 40.2265 36.5603 40.5531 36.3426Z" fill="white"/>
<path d="M44.0102 38.9829C42.9213 38.3296 41.8234 37.6763 40.7164 37.0229C40.308 36.7779 39.7092 37.1863 39.6275 37.6218C39.5549 37.8396 39.4823 38.0573 39.4097 38.2751C39.3916 38.3114 39.3644 38.3568 39.3281 38.4112C39.2736 38.5473 39.4097 38.3024 39.3281 38.4385C39.2736 38.5201 39.2192 38.629 39.1647 38.7379C39.0922 38.8286 39.0286 38.9194 38.9742 39.0101C38.9197 39.0918 38.947 39.0646 38.9742 39.0101C38.9379 39.0464 38.9016 39.0918 38.8653 39.1462C38.7927 39.237 38.7111 39.3186 38.6203 39.3912C38.584 39.4275 38.5477 39.4638 38.5114 39.5001C38.4842 39.5273 38.3481 39.6362 38.457 39.5545C38.0759 39.8812 37.7492 40.589 38.2664 40.9156C39.4097 41.6052 40.5349 42.2858 41.6419 42.9572C42.1591 43.2839 42.7035 42.6306 42.7852 42.1678C42.8124 42.1134 42.8124 42.0317 42.7852 42.1134C42.8034 42.0589 42.8215 42.0136 42.8397 41.9773C42.876 41.8502 42.9122 41.7323 42.9485 41.6234C42.9848 41.5689 43.0121 41.5145 43.0302 41.4601C43.0302 41.4601 43.0846 41.3239 43.0574 41.4056C43.0302 41.4601 43.0847 41.3239 43.1119 41.3239C43.13 41.2514 43.1572 41.1878 43.1935 41.1334C43.248 41.0427 43.3115 40.9519 43.3841 40.8612C43.4022 40.8249 43.4294 40.7886 43.4657 40.7523C43.4113 40.8067 43.4385 40.7795 43.4657 40.7251C43.6291 40.5436 43.7924 40.3712 43.9557 40.2079C44.2552 39.9357 44.3913 39.3912 44.1191 39.0918C43.8469 38.7651 43.4113 38.9557 43.1391 39.2007C42.2136 40.0445 41.6419 41.1334 41.3969 42.3312C41.778 42.0589 42.1591 41.7867 42.5402 41.5145C41.415 40.843 40.2899 40.1716 39.1647 39.5001C39.0922 39.9538 39.0286 40.4075 38.9742 40.8612C39.8997 40.0717 40.6347 39.0373 40.9342 37.8668C40.5712 38.0664 40.1991 38.2661 39.818 38.4657C40.9251 39.119 42.023 39.7723 43.1119 40.4256C43.8196 40.8612 44.7179 39.4184 44.0102 38.9829Z" fill="white"/>
<path d="M29.3922 40.8348C28.5029 39.9819 27.6137 39.1289 26.7245 38.276C25.3089 36.9149 23.8934 35.5538 22.4779 34.1927C22.1331 33.8661 21.7974 33.5485 21.4707 33.24C21.2529 33.0222 20.899 32.9677 20.6268 33.1855C19.3565 34.1655 18.0952 35.1364 16.843 36.0982C16.6615 36.2434 16.4891 36.3795 16.3258 36.5066C15.8903 36.8604 15.6997 37.4865 16.1897 37.8949C17.8048 39.2559 19.4109 40.6079 21.0079 41.9509C22.0605 42.8583 23.113 43.7566 24.1656 44.6458C24.71 45.1358 25.3089 45.7619 25.9895 46.0341C27.3506 46.6058 28.8478 46.0341 29.6644 44.7819C30.4811 43.5842 30.4266 41.8692 29.3922 40.8348C29.0928 40.5354 28.6572 40.617 28.385 40.9165C28.1672 41.1887 27.9494 41.7331 28.2489 42.0325C28.3577 42.1414 28.4576 42.2503 28.5483 42.3592C28.5665 42.3955 28.5846 42.4409 28.6028 42.4953C28.5483 42.3592 28.6572 42.577 28.6572 42.577C28.7116 42.6859 28.7479 42.7947 28.7661 42.9036C28.7389 42.7675 28.7933 42.9853 28.7933 42.9853C28.7933 43.0579 28.8024 43.1305 28.8205 43.2031C28.8478 43.3936 28.8205 43.067 28.8205 43.2575C28.8205 43.3301 28.8205 43.3936 28.8205 43.4481C28.8024 43.5025 28.7933 43.557 28.7933 43.6114C28.8205 43.4209 28.7661 43.6386 28.7661 43.6658C28.7479 43.7203 28.7298 43.7656 28.7116 43.8019C28.6572 44.0197 28.7933 43.6658 28.6844 43.8564C28.6481 43.929 28.6118 43.9925 28.5755 44.0469C28.4939 44.2103 28.6844 43.9653 28.5483 44.1014C28.4667 44.2103 28.385 44.2919 28.3033 44.3736C28.4394 44.2375 28.2761 44.4008 28.2489 44.4008C28.1944 44.4371 28.14 44.4734 28.0855 44.5097C28.1128 44.4825 28.1944 44.4553 28.0583 44.5097C28.0039 44.546 27.9404 44.5732 27.8678 44.5914C27.8315 44.6095 27.7861 44.6277 27.7317 44.6458C27.6772 44.664 27.6772 44.664 27.7317 44.6458C27.6954 44.6458 27.65 44.6458 27.5956 44.6458C27.4867 44.664 27.3778 44.673 27.2689 44.673C27.0783 44.673 27.3778 44.7003 27.1872 44.673C27.1328 44.6549 27.0783 44.6458 27.0239 44.6458C26.9694 44.6277 26.915 44.6186 26.8606 44.6186C26.8606 44.5914 26.6428 44.5369 26.7789 44.5914C26.6519 44.5369 26.5339 44.4734 26.425 44.4008C25.8806 44.0469 25.4178 43.557 24.955 43.1486C22.9044 41.4065 20.8355 39.6643 18.7485 37.9221C18.1678 37.4321 17.5871 36.9421 17.0063 36.4521C16.97 36.9239 16.9337 37.3867 16.8975 37.8404C18.1496 36.8604 19.4019 35.8805 20.654 34.9005C20.8355 34.7734 21.017 34.6373 21.1985 34.4922C20.9081 34.474 20.6268 34.4559 20.3546 34.4377C21.2438 35.2907 22.1421 36.1436 23.0495 36.9965C24.4651 38.3758 25.8806 39.7459 27.2961 41.107C27.6228 41.4155 27.9403 41.724 28.2489 42.0325C28.5483 42.332 28.9839 42.2503 29.2561 41.9509C29.4739 41.6787 29.6916 41.1342 29.3922 40.8348Z" fill="white"/>
<path d="M40.0086 29.9182C38.702 30.9254 41.1791 29.0199 39.8997 29.9999C39.7364 30.1088 39.9814 29.9727 39.818 30.0543C39.7455 30.0725 39.682 30.0906 39.6275 30.1088C39.6547 30.1088 39.7364 30.1088 39.6003 30.1088C39.5459 30.1269 39.4823 30.136 39.4097 30.136C39.2192 30.1632 39.4914 30.1632 39.3281 30.136C39.2736 30.136 39.2283 30.1269 39.192 30.1088C39.1647 30.1088 38.9198 30.0271 39.0286 30.0816C38.9198 30.0271 38.8199 29.9636 38.7292 29.891C38.6203 29.8366 38.8109 29.9999 38.6748 29.8638C38.6203 29.8094 38.5749 29.7549 38.5386 29.7005C38.5205 29.7005 38.5114 29.6914 38.5114 29.6733C38.4388 29.5825 38.3753 29.4918 38.3209 29.401C37.9216 28.911 37.5315 28.421 37.1503 27.9311C35.6985 26.0437 34.2376 24.1563 32.7677 22.269C30.9166 19.8735 29.0927 17.5052 27.2417 15.1369C25.6991 13.1225 24.1656 11.1172 22.6412 9.12092C22.1875 8.52204 21.7338 7.92316 21.2801 7.32428C21.1712 7.16095 21.0624 7.00671 20.9535 6.86153C20.9172 6.82523 20.8899 6.78893 20.8718 6.75263C20.8718 6.75263 20.8627 6.75263 20.8446 6.75263C20.8446 6.75263 20.7357 6.56208 20.7902 6.67097C20.7629 6.58931 20.7357 6.53486 20.7085 6.48042C20.654 6.34431 20.7085 6.53486 20.6813 6.39875C20.6813 6.32616 20.6722 6.26264 20.654 6.2082C20.654 6.01765 20.6268 6.31709 20.654 6.12654C20.6722 6.07209 20.6813 6.02673 20.6813 5.99043C20.654 6.18098 20.7085 5.9632 20.7085 5.93598C20.7357 5.88154 20.8174 5.71821 20.7357 5.88154C20.7538 5.84524 20.7811 5.79987 20.8174 5.74543C20.8718 5.63654 20.6813 5.85432 20.8174 5.71821C20.8446 5.71821 21.0079 5.55488 20.8718 5.66377C20.9262 5.62747 20.9898 5.59117 21.0624 5.55487C20.9263 5.60932 21.0079 5.55487 21.0624 5.55487C21.1168 5.51858 21.1803 5.49136 21.2529 5.47321C21.1168 5.52766 21.3074 5.47321 21.3346 5.47321C21.3709 5.45506 21.4163 5.446 21.4707 5.446C21.634 5.446 21.389 5.41878 21.5523 5.446C21.6249 5.46414 21.6885 5.4823 21.7429 5.50044C21.7792 5.50044 21.8246 5.50951 21.879 5.52766C21.8246 5.50951 21.8155 5.50951 21.8518 5.52766C22.124 5.66377 22.2329 5.77265 22.3962 6.01764C22.7047 6.39875 23.0132 6.78892 23.3217 7.18817C24.6647 8.96665 26.0167 10.7451 27.3778 12.5236C29.2016 14.8919 31.0527 17.2874 32.8765 19.6557C34.5098 21.7427 36.1341 23.8297 37.7492 25.9167C38.5114 26.8966 39.2736 27.8494 40.0086 28.8294C40.1175 28.9655 40.1719 29.1288 40.1992 29.2105C40.1992 29.2649 40.2082 29.3194 40.2264 29.3738C40.2264 29.401 40.1992 29.5371 40.2264 29.401C40.2264 29.4736 40.2173 29.5371 40.1992 29.5916C40.2264 29.4283 40.1992 29.6188 40.1719 29.646C40.1538 29.7005 40.1357 29.7458 40.1175 29.7821C40.1992 29.5916 40.1175 29.7821 40.0903 29.8094C39.9814 29.9999 40.1992 29.7277 40.063 29.8638C40.0358 29.8638 39.8725 30.0271 40.0086 29.9182C39.682 30.1632 39.4642 30.5988 39.6275 30.9799C39.7636 31.3338 40.2264 31.4154 40.5258 31.1977C41.6147 30.3266 41.9958 28.8294 41.1247 27.6861C41.0884 27.6135 41.043 27.55 40.9886 27.4955C40.6075 27.0237 40.2355 26.5518 39.8725 26.08C38.4025 24.1745 36.9144 22.2599 35.4082 20.3362C33.5299 17.9135 31.6243 15.4636 29.746 13.0136C28.1672 10.9629 26.6065 8.92129 25.0639 6.88874C24.6284 6.30801 24.1928 5.73636 23.7573 5.17378C23.2945 4.54768 22.8318 4.00324 22.0151 3.92158C20.654 3.81269 19.4563 4.90156 19.293 6.26265C19.2385 6.88874 19.429 7.48762 19.8101 7.97761C20.0824 8.35871 20.3637 8.73073 20.654 9.09369C21.997 10.8722 23.3581 12.6597 24.7373 14.4564C26.5884 16.8791 28.4666 19.3018 30.3449 21.7245C31.9964 23.866 33.6478 25.9983 35.2993 28.1216C36.007 29.0471 36.6876 29.9727 37.4226 30.871C38.1575 31.7965 39.5731 31.9326 40.5258 31.1977C40.8525 30.9527 41.0702 30.5171 40.9069 30.1088C40.7708 29.7549 40.3081 29.7005 40.0086 29.9182Z" fill="white"/>
<path fill-rule="evenodd" clip-rule="evenodd" d="M34.0199 20.3909L33.7205 20.0098C31.9238 17.696 30.4539 15.7905 29.0656 14.0211L28.7933 13.64L29.1744 13.3405C30.0728 12.6328 31.1616 12.3333 32.3049 12.4967C33.421 12.66 34.4282 13.2316 35.136 14.13C35.8438 15.0555 36.1432 16.1716 36.0071 17.3149C35.871 18.431 35.2993 19.411 34.401 20.1187L34.0199 20.3909ZM30.1817 13.8033C31.3794 15.3549 32.6588 17.0427 34.1832 18.9754C34.646 18.4854 34.9454 17.8593 35.0543 17.1516C35.1632 16.2805 34.9182 15.4094 34.3738 14.7016C33.8293 13.9939 33.0399 13.5583 32.1688 13.4494C31.4611 13.3405 30.7805 13.4767 30.1817 13.8033Z" fill="white"/>
<path d="M34.4009 20.4458C35.2993 19.738 35.9526 18.8125 36.1976 17.7236C36.4426 16.6619 36.3337 15.5459 35.8437 14.5659C34.8365 12.6332 32.6315 11.6804 30.5899 12.2793C29.7733 12.5243 28.1127 13.3409 28.9021 14.4298C29.0927 14.6748 29.2832 14.9198 29.4738 15.192C30.2541 16.1901 31.0345 17.1973 31.8149 18.2136C32.3775 18.9213 32.94 19.6382 33.5026 20.3641C33.7748 20.718 34.3193 20.5819 34.5915 20.2824C34.8637 19.9558 34.9998 19.4386 34.7276 19.0847C33.3665 17.3243 32.0054 15.5731 30.6443 13.8309C30.4629 13.5768 30.2723 13.3228 30.0727 13.0687C30.1271 13.2683 30.1816 13.468 30.236 13.6676C30.0727 13.9216 29.9184 14.1757 29.7733 14.4298C29.9184 14.3209 30.0636 14.2211 30.2088 14.1303C30.236 14.1303 30.3721 14.0759 30.2632 14.1031C30.1816 14.1576 30.3177 14.1031 30.3449 14.0759C30.4175 14.0396 30.4992 14.0033 30.5899 13.967C30.6806 13.9489 30.7623 13.9216 30.8349 13.8853C30.8712 13.8853 30.9075 13.8763 30.9438 13.8581C30.8077 13.9126 30.9165 13.8853 30.9438 13.8853C31.1252 13.8491 31.3067 13.8218 31.4882 13.8037C31.5789 13.8037 31.6697 13.8037 31.7604 13.8037C31.7876 13.8037 31.8965 13.8037 31.7604 13.8037C31.7967 13.8037 31.8421 13.8128 31.8965 13.8309C32.078 13.849 32.2504 13.8763 32.4137 13.9126C32.4863 13.9307 32.568 13.9579 32.6587 13.9942C32.686 13.9942 32.8765 14.0759 32.7404 14.0215C32.9219 14.094 33.0943 14.1848 33.2576 14.2937C33.4209 14.3844 33.5661 14.4842 33.6931 14.5931C33.5843 14.5114 33.7476 14.6475 33.7748 14.6748C33.8474 14.7474 33.92 14.829 33.9926 14.9198C34.1196 15.0468 34.2285 15.192 34.3193 15.3553C34.3737 15.4097 34.3193 15.3281 34.3193 15.3281C34.3374 15.3644 34.3646 15.4098 34.4009 15.4642C34.4372 15.5549 34.4826 15.6457 34.537 15.7364C34.5552 15.809 34.5824 15.8816 34.6187 15.9542C34.6187 16.0086 34.7004 16.2536 34.6732 16.0903C34.7094 16.2718 34.7366 16.4532 34.7548 16.6347C34.7729 16.7255 34.782 16.8162 34.782 16.9069C34.782 16.7436 34.782 16.9342 34.782 16.9886C34.782 17.1792 34.7548 17.3425 34.7276 17.533C34.7004 17.6419 34.7548 17.3697 34.7276 17.5058C34.7094 17.5603 34.6913 17.6147 34.6732 17.6691C34.655 17.7599 34.6278 17.8506 34.5915 17.9414C34.5733 17.9777 34.5552 18.014 34.537 18.0503C34.4554 18.2408 34.6459 17.8597 34.537 18.0775C34.5007 18.1501 34.4554 18.2227 34.4009 18.2953C34.3465 18.386 34.292 18.4767 34.2376 18.5675C34.1831 18.6491 34.2648 18.513 34.2648 18.513C34.292 18.513 34.1559 18.6491 34.1559 18.6763C34.0833 18.7489 34.0107 18.8125 33.9381 18.8669C33.92 18.9032 33.8928 18.9395 33.8565 18.9758C33.7204 19.0847 33.9654 18.8669 33.802 19.003C33.4482 19.2752 33.2032 19.7652 33.3937 20.2008C33.557 20.5819 34.0743 20.6907 34.4009 20.4458Z" fill="white"/>
<path d="M22.5323 31.7436C21.4797 32.5603 20.4362 33.3769 19.4018 34.1936C17.8593 35.3913 16.3258 36.5709 14.8014 37.7324C14.6199 37.8776 14.4384 38.0228 14.257 38.1679C14.2207 38.1861 14.1844 38.2133 14.1481 38.2496C14.1208 38.2496 13.9847 38.3313 14.0392 38.3041C14.1208 38.2768 13.9847 38.3313 13.9847 38.3313C13.8759 38.3585 14.0664 38.3313 13.9575 38.3313C13.9303 38.3313 13.7942 38.3313 13.8758 38.3313C13.9303 38.3313 13.767 38.3313 13.7397 38.3313C13.5764 38.2768 13.522 38.2224 13.3858 38.0863C13.3677 38.0318 13.3405 37.9865 13.3042 37.9502C13.159 37.7505 13.0047 37.56 12.8414 37.3785C11.6074 35.7997 10.3733 34.2208 9.13928 32.6419C8.55855 31.916 7.97782 31.1901 7.39709 30.4642C7.23376 30.2464 7.06135 30.0287 6.87987 29.8109C6.84357 29.7383 6.7982 29.6748 6.74376 29.6203C6.71654 29.5931 6.66211 29.5115 6.68933 29.5387C6.67118 29.5024 6.65305 29.4661 6.6349 29.4298C6.6349 29.4298 6.66212 29.5387 6.6349 29.4026C6.6349 29.3754 6.60765 29.2665 6.60765 29.3753C6.60765 29.339 6.61675 29.2937 6.6349 29.2392C6.60768 29.3209 6.66212 29.3209 6.6349 29.2392C6.66212 29.1848 6.71657 29.212 6.6349 29.2392C6.65305 29.2211 6.67118 29.203 6.68933 29.1848C6.85266 29.0578 7.016 28.9307 7.17933 28.8037C7.83265 28.3137 8.49503 27.8146 9.16649 27.3065C10.7816 26.0725 12.4059 24.8293 14.0392 23.5771C14.3931 23.3049 14.7469 23.0327 15.128 22.7605C15.1553 22.7333 15.3186 22.6516 15.2097 22.6788C15.246 22.6607 15.2914 22.6516 15.3458 22.6516C15.2914 22.6516 15.2369 22.6516 15.373 22.6516C15.373 22.6516 15.4819 22.6516 15.4003 22.6516C15.4547 22.6516 15.5091 22.6607 15.5636 22.6788C15.6725 22.706 15.7541 22.7605 15.8358 22.8422C15.8539 22.8603 15.8721 22.8784 15.8903 22.8966C15.981 23.0236 16.0717 23.1507 16.1625 23.2777C17.3058 24.7295 18.4491 26.1904 19.5924 27.6604C20.5451 28.8854 21.4979 30.1103 22.4234 31.3625C22.4507 31.3898 22.5051 31.4442 22.5051 31.4442C22.4779 31.3898 22.5323 31.5259 22.5323 31.5259C22.5868 31.6347 22.5323 31.4442 22.5323 31.5531C22.5595 31.5803 22.5596 31.7164 22.5596 31.6348C22.5596 31.5531 22.5596 31.6892 22.5596 31.7164C22.5323 31.7981 22.614 31.6347 22.5596 31.7164C22.4779 31.7981 22.614 31.6075 22.5596 31.7164C22.5323 31.7164 22.4506 31.8525 22.5323 31.7709C22.614 31.662 22.3962 31.8525 22.5323 31.7436C22.2601 31.9886 22.0151 32.3969 22.1784 32.778C22.3418 33.1319 22.7773 33.2408 23.0767 32.9958C23.8934 32.3153 24.1928 31.172 23.5395 30.2737C23.4488 30.1648 23.3671 30.0559 23.2945 29.947C22.8227 29.3481 22.3509 28.7402 21.879 28.1232C20.5542 26.4173 19.2385 24.7204 17.9319 23.0327C17.6052 22.5972 17.2785 22.1888 16.9519 21.7805C16.4891 21.2089 15.6997 20.9911 15.0191 21.2905C14.7741 21.3722 14.6108 21.5083 14.4203 21.6716C12.9685 22.7786 11.5257 23.8857 10.092 24.9927C8.7854 25.9726 7.45153 26.9799 6.17211 27.9598C5.6549 28.3409 5.30104 28.8309 5.27382 29.4842C5.2466 29.9742 5.43714 30.3826 5.73657 30.7637C6.13582 31.2536 6.52601 31.7527 6.90712 32.2608C8.2682 33.9667 9.62018 35.6726 10.9631 37.3785C11.3987 37.9229 11.8252 38.4764 12.2426 39.039C12.4331 39.2568 12.6237 39.4746 12.8959 39.6107C13.4948 39.9373 14.2025 39.8557 14.7197 39.4473C15.9719 38.5218 17.1969 37.5418 18.4491 36.5891C19.9009 35.4639 21.3527 34.3297 22.8045 33.1864C22.8953 33.1319 22.986 33.0684 23.0767 32.9958C23.3762 32.7508 23.594 32.3425 23.4306 31.9614C23.2673 31.6075 22.8317 31.5259 22.5323 31.7436Z" fill="white"/>
<path fill-rule="evenodd" clip-rule="evenodd" d="M9.41154 39.8563C9.16654 39.8563 9.00321 39.7746 8.8671 39.6113C7.36991 37.7058 5.79107 35.7186 4.0761 33.5681C3.64056 33.0237 4.26666 32.3159 5.27386 31.1182C5.60052 30.7643 5.92716 30.3832 6.03605 30.1926L6.38994 29.5938L6.82548 30.1382C9.1121 33.0237 11.0993 35.5553 12.9231 37.8963L13.3859 38.468L12.6781 38.6586C12.4876 38.713 12.052 38.9035 11.6437 39.0941C10.5821 39.5569 9.8743 39.8563 9.41154 39.8563ZM4.9744 33.1053C6.6077 35.1742 8.10491 37.0525 9.52043 38.8491C9.87431 38.7947 10.7454 38.4136 11.2354 38.1958C11.4169 38.105 11.5893 38.0325 11.7526 37.978C10.1465 35.9092 8.40433 33.7042 6.44437 31.2543C6.31734 31.4176 6.18123 31.59 6.03605 31.7715C5.70939 32.1254 5.13773 32.8059 4.9744 33.1053Z" fill="white"/>
<path fill-rule="evenodd" clip-rule="evenodd" d="M22.8862 31.6344L22.6684 31.1988C22.6503 31.1807 22.6322 31.1625 22.614 31.1444C20.8174 28.8305 19.0208 26.4895 17.2514 24.2301L16.0264 22.624C15.9901 22.5877 15.9447 22.5514 15.8903 22.5151L15.4547 22.1885L15.8358 21.7801C19.0208 18.2958 20.8991 13.7225 21.0624 8.98597L21.1168 7.59766L21.9607 8.68652C25.8534 13.8314 29.9366 19.1124 33.8838 24.2301C35.0815 25.7545 36.2793 27.288 37.477 28.8305L38.2937 29.8922L36.9598 29.5927C32.3593 28.5855 27.4867 29.2116 23.3218 31.4166L22.8862 31.6344ZM16.843 22.1068L18.0136 23.604C19.7285 25.8089 21.4979 28.0955 23.2129 30.3277C27.1328 28.395 31.5699 27.7144 35.8982 28.395C34.9726 27.1972 34.0471 25.9995 33.1216 24.8017C29.4194 20.0652 25.6084 15.138 21.9335 10.3198C21.4979 14.6753 19.7285 18.813 16.843 22.1068Z" fill="white"/>
<path d="M5.8999 30.1091C5.8636 30.1636 5.8364 30.2089 5.81825 30.2452C5.70937 30.4086 5.92711 30.1091 5.79101 30.2725C5.68212 30.3995 5.58231 30.5174 5.49157 30.6263C5.25565 30.8986 5.02881 31.1708 4.81103 31.443C4.40271 31.933 3.7766 32.5591 3.74938 33.2124C3.72216 33.5935 3.93993 33.8385 4.15771 34.1107C4.44807 34.4555 4.72939 34.8094 5.0016 35.1724C5.80011 36.1705 6.59859 37.1686 7.39709 38.1667C7.7056 38.5478 8.01412 38.938 8.32263 39.3373C8.45874 39.5006 8.56763 39.6911 8.73095 39.8545C9.24817 40.3989 10.1465 39.9361 10.6909 39.7184C11.3442 39.4461 11.9703 39.0923 12.6509 38.9017C13.1409 38.7656 13.4131 38.0578 13.0592 37.6223C12.3877 36.7512 11.7072 35.8801 11.0176 35.009C9.92871 33.6116 8.83078 32.2233 7.72377 30.8441C7.48785 30.5174 7.24283 30.1999 6.98876 29.8913C6.74377 29.5919 6.25379 29.7008 6.00879 29.9458C5.7638 30.2452 5.6549 30.6808 5.8999 31.0074C6.58951 31.8785 7.27912 32.7496 7.96874 33.6207C9.07575 34.9999 10.1737 36.3882 11.2626 37.7856C11.5166 38.1123 11.7707 38.4299 12.0248 38.7384C12.1518 38.321 12.2879 37.8945 12.4331 37.459C11.8614 37.6223 11.3442 37.9217 10.7998 38.1395C10.5004 38.2756 10.2009 38.4117 9.9015 38.5206C9.82891 38.5388 9.76537 38.5569 9.71093 38.5751C9.67463 38.5751 9.63833 38.5841 9.60203 38.6023C9.49315 38.6295 9.6565 38.5751 9.6565 38.5751C9.6565 38.6023 9.57483 38.6023 9.5476 38.6023C9.35705 38.6295 9.62927 38.6295 9.5476 38.6023C9.62927 38.6295 9.84703 38.8473 9.71093 38.6567C9.63834 38.566 9.56576 38.4752 9.49317 38.3845C9.22096 38.0215 8.93964 37.6677 8.64928 37.3229C7.90522 36.3792 7.16117 35.4355 6.41712 34.4918C6.1086 34.0926 5.79102 33.7024 5.46436 33.3213C5.32825 33.1307 5.16493 32.913 5.0016 32.7224C5.0016 32.7224 5.0016 32.7133 5.0016 32.6952C5.08327 32.7768 5.11046 32.9946 5.11046 33.1035C5.11046 33.0491 5.05602 33.3213 5.11046 33.1579C5.00158 33.4302 5.08324 33.2396 5.11046 33.1852C5.19213 33.0491 5.27379 32.913 5.38268 32.8041C5.43712 32.6952 5.24658 32.9674 5.35547 32.8313C5.39176 32.7768 5.419 32.7315 5.43714 32.6952C5.50973 32.6226 5.57324 32.55 5.62768 32.4774C6.09045 31.933 6.63488 31.4158 7.01598 30.7897C7.17931 30.4902 7.20654 30.0002 6.85266 29.7825C6.49877 29.5647 6.06323 29.8097 5.8999 30.1091Z" fill="white"/>
<path d="M20.8719 9.068C20.7902 10.9463 20.4908 12.6612 19.9464 14.4034C19.8012 14.839 19.6379 15.2745 19.4564 15.7101C19.3838 15.9279 19.3021 16.1365 19.2114 16.3362C19.1751 16.4269 19.1297 16.5267 19.0753 16.6356C19.0753 16.6356 19.0208 16.7717 19.0753 16.6628C19.039 16.7173 19.0027 16.7808 18.9664 16.8534C18.5671 17.67 18.1134 18.4685 17.6053 19.2489C17.4783 19.4667 17.3331 19.6754 17.1698 19.875C17.0972 19.9839 17.0246 20.0928 16.952 20.2016C16.9157 20.2379 16.8794 20.2742 16.8431 20.3105C16.952 20.2016 16.7887 20.4194 16.7887 20.4194C16.462 20.8368 16.1263 21.2361 15.7815 21.6172C15.4548 21.971 15.3731 22.4883 15.7815 22.8149C15.8087 22.8421 15.9448 23.0055 15.9992 23.0871C16.1626 23.2868 16.3168 23.4864 16.462 23.686C16.9883 24.3575 17.5146 25.038 18.0408 25.7276C19.2386 27.2702 20.4364 28.8128 21.6341 30.3553C21.8337 30.6094 22.0334 30.8634 22.233 31.1175C22.2874 31.1992 22.4235 31.3625 22.4508 31.3897C22.6685 31.7708 22.9952 31.7981 23.3491 31.6075C26.4796 29.9742 30.1545 29.212 33.7205 29.4298C34.7731 29.5024 35.8075 29.6476 36.8238 29.8653C37.4771 30.0287 38.0215 29.0487 37.6404 28.5587C37.1141 27.8872 36.5969 27.2158 36.0888 26.5443C34.8548 24.9473 33.6116 23.3503 32.3594 21.7533C30.8532 19.8115 29.3469 17.8606 27.8406 15.9006C26.5521 14.231 25.2727 12.5614 24.0024 10.8918C23.3763 10.0752 22.7774 9.23133 22.1241 8.4419C22.1241 8.4419 22.115 8.43282 22.0969 8.41467C21.8519 8.08801 21.3619 8.22413 21.1441 8.49635C20.8991 8.79579 20.763 9.23133 21.008 9.58521C21.5161 10.2385 22.0243 10.9009 22.5324 11.5724C23.7665 13.1694 25.0005 14.7664 26.2346 16.3634C27.7227 18.3233 29.229 20.2742 30.7534 22.216C32.0419 23.8856 33.3303 25.5552 34.6188 27.2248C35.2449 28.0415 35.8438 28.8853 36.4971 29.6748C36.5153 29.6748 36.5243 29.6838 36.5243 29.702C36.7966 29.2664 37.0688 28.8218 37.341 28.3681C33.5572 27.5515 29.5556 27.7693 25.8807 28.9942C24.819 29.3753 23.8118 29.8109 22.8046 30.3281C23.1131 30.4007 23.4217 30.4733 23.7302 30.5459C23.4852 30.1648 23.1857 29.8109 22.9135 29.457C22.3872 28.7492 21.8519 28.0505 21.3074 27.3609C20.1097 25.8184 18.9029 24.2667 17.687 22.706C17.3603 22.2705 17.0337 21.7805 16.5981 21.4266C16.5981 21.8259 16.5981 22.2251 16.5981 22.6244C19.2931 19.6844 21.0897 16.0367 21.8519 12.144C22.0696 11.0733 22.1967 10.0026 22.233 8.93189C22.2602 8.55078 22.0424 8.19691 21.6341 8.22413C21.253 8.25135 20.8991 8.68689 20.8719 9.068Z" fill="white"/>
<path fill-rule="evenodd" clip-rule="evenodd" d="M17.0064 23.3039L15.9175 22.5145L15.7269 22.4056C15.5364 22.3512 15.3186 22.4056 15.1553 22.5145L14.2025 23.2495V22.2695C14.2297 18.6762 14.257 15.0558 14.3114 11.4897V11.027L14.8014 10.9997C16.9519 10.9725 19.1568 10.9453 21.3074 10.9453H21.879L21.7974 11.517C21.1713 15.5185 19.4291 19.2207 16.7341 22.2423L17.0064 23.3039ZM15.5364 21.3984C15.7179 21.3984 15.8993 21.4347 16.0808 21.5073C18.4763 18.7851 20.0824 15.4913 20.7357 11.9253C18.9391 11.9253 17.088 11.9525 15.2914 11.9797C15.2369 15.1102 15.2097 18.2951 15.1825 21.4529C15.3095 21.4166 15.4275 21.3984 15.5364 21.3984Z" fill="white"/>
<path d="M15.1553 22.7853C15.1915 22.7671 15.2369 22.7399 15.2914 22.7036C15.2188 22.7399 15.2278 22.7399 15.3186 22.7036C15.1552 22.7036 15.4819 22.7036 15.4003 22.7036C15.3458 22.6854 15.3639 22.6854 15.4547 22.7036C15.491 22.7036 15.5363 22.7127 15.5908 22.7308C15.5091 22.7036 15.7269 22.8125 15.7541 22.8397C16.108 23.0847 16.598 22.7853 16.7613 22.4586C16.9791 22.0775 16.9791 21.6692 16.6252 21.3969C16.6252 21.8143 16.6252 22.2318 16.6252 22.6492C18.8302 20.2264 20.4907 17.3137 21.4162 14.156C21.6884 13.2305 21.8972 12.2959 22.0423 11.3522C22.0968 10.9439 21.7973 10.6172 21.4162 10.6172C19.5107 10.6353 17.6052 10.6535 15.6997 10.6716C15.4275 10.6898 15.1553 10.6988 14.883 10.6988C14.5019 10.6988 14.0936 11.1888 14.0936 11.5699C14.0573 12.7858 14.0392 13.9927 14.0392 15.1904C14.0029 17.1322 13.9847 19.065 13.9847 20.9886C13.9847 21.4423 13.9847 21.8869 13.9847 22.3225C13.9847 22.5947 14.012 22.8397 14.257 22.9758C14.4747 23.1119 14.7742 23.0847 14.9919 22.9214C15.0464 22.8851 15.1008 22.8397 15.1553 22.7853C15.4819 22.5403 15.7269 22.0775 15.5364 21.6692C15.373 21.3153 14.9103 21.2336 14.5836 21.4514C14.5292 21.5058 14.4747 21.5512 14.4203 21.5875C14.7469 21.7871 15.0827 21.9868 15.4275 22.1864C15.4275 20.9705 15.4275 19.7637 15.4275 18.5659C15.4456 16.6241 15.4729 14.6913 15.5091 12.7677C15.5091 12.314 15.5091 11.8694 15.5091 11.4338C15.2369 11.7242 14.9647 12.0146 14.6925 12.3049C16.6162 12.2686 18.5307 12.2505 20.4363 12.2505C20.6903 12.2505 20.9535 12.2414 21.2257 12.2233C21.0261 11.9873 20.8174 11.7424 20.5996 11.4883C20.5451 11.8694 20.4726 12.2505 20.3818 12.6316C20.3546 12.7677 20.409 12.5227 20.3818 12.6588C20.3818 12.6951 20.3727 12.7405 20.3546 12.7949C20.3364 12.8675 20.3183 12.9492 20.3001 13.0399C20.2457 13.2395 20.1913 13.4392 20.1368 13.6388C19.9372 14.3647 19.6922 15.0815 19.4018 15.7893C19.3292 15.9526 19.2567 16.116 19.1841 16.2793C19.1478 16.37 19.1115 16.4608 19.0752 16.5515C19.048 16.5787 18.9391 16.8237 19.0207 16.6876C18.8393 17.0506 18.6578 17.3954 18.4763 17.722C18.1134 18.3935 17.7141 19.0377 17.2786 19.6548C17.1697 19.8363 17.0517 20.0086 16.9247 20.172C16.9065 20.2083 16.8793 20.2446 16.843 20.2809C16.9247 20.1448 16.8158 20.3081 16.8158 20.3353C16.7432 20.4079 16.6797 20.4805 16.6252 20.5531C16.3349 20.916 16.0445 21.2608 15.7541 21.5875C15.4003 21.9686 15.3458 22.513 15.7541 22.8397C16.0445 22.3497 16.3349 21.8688 16.6252 21.3969C15.9991 20.9614 15.1825 21.0431 14.5836 21.4514C14.2569 21.6964 14.0119 22.1864 14.2025 22.5675C14.3658 22.9486 14.8286 23.0303 15.1553 22.7853Z" fill="white"/>
<path d="M16.8975 21.6136C16.8793 21.5954 16.8703 21.5863 16.8703 21.5863C16.7977 21.4956 16.716 21.4412 16.6252 21.423C16.5527 21.3867 16.4619 21.3776 16.353 21.3958C16.2623 21.3958 16.1716 21.423 16.0808 21.4775C15.9901 21.5137 15.9084 21.5773 15.8358 21.668C15.7995 21.7224 15.7542 21.7769 15.6997 21.8313C15.6271 21.9584 15.5817 22.0945 15.5636 22.2397C15.5636 22.3123 15.5636 22.3848 15.5636 22.4574C15.5817 22.5845 15.6271 22.6934 15.6997 22.7841C15.7179 22.8023 15.7269 22.8204 15.7269 22.8385C15.7995 22.9111 15.8812 22.9565 15.9719 22.9746C16.0445 23.0109 16.1353 23.0291 16.2441 23.0291C16.3349 23.0109 16.4256 22.9747 16.5164 22.9202C16.6071 22.8839 16.6888 22.8295 16.7614 22.7569C16.8158 22.6843 16.8612 22.6208 16.8975 22.5663C16.9701 22.4393 17.0154 22.3032 17.0336 22.158C17.0336 22.0854 17.0336 22.0128 17.0336 21.9402C17.0154 21.8132 16.9701 21.7043 16.8975 21.6136C16.8793 21.5954 16.8703 21.5863 16.8703 21.5863C16.471 21.9856 16.0808 22.3849 15.6997 22.7841C15.7179 22.8023 15.7269 22.8204 15.7269 22.8385C15.7995 22.9111 15.8812 22.9565 15.9719 22.9746C16.0445 23.0109 16.1353 23.0291 16.2441 23.0291C16.3349 23.0109 16.4256 22.9747 16.5164 22.9202C16.6071 22.8839 16.6888 22.8295 16.7614 22.7569C16.8158 22.6843 16.8612 22.6208 16.8975 22.5663C16.9701 22.4393 17.0154 22.3032 17.0336 22.158C17.0336 22.0854 17.0336 22.0128 17.0336 21.9402C17.0154 21.8132 16.9701 21.7043 16.8975 21.6136Z" fill="white"/>
<path d="M15.7542 22.866C15.7904 22.8842 15.8176 22.9023 15.8358 22.9205C15.8902 22.993 15.9628 23.0475 16.0536 23.0838C16.1443 23.1201 16.2351 23.1291 16.3258 23.111C16.4165 23.111 16.5073 23.0838 16.598 23.0293C16.6888 22.993 16.7704 22.9295 16.843 22.8388C16.8975 22.7843 16.9428 22.7299 16.9791 22.6755C17.0699 22.5484 17.1243 22.4032 17.1424 22.2399C17.1243 22.1855 17.1152 22.122 17.1152 22.0494C17.1152 21.9223 17.0699 21.8134 16.9791 21.7227C16.961 21.6864 16.9428 21.6592 16.9247 21.641C16.8702 21.5684 16.7976 21.514 16.7069 21.4777C16.6162 21.4414 16.5254 21.4323 16.4347 21.4505C16.3258 21.4505 16.2351 21.4777 16.1625 21.5321C16.0536 21.5684 15.9628 21.632 15.8903 21.7227C15.854 21.7771 15.8086 21.8407 15.7542 21.9133C15.6816 22.0403 15.6362 22.1764 15.618 22.3216C15.618 22.376 15.618 22.4395 15.618 22.5121C15.6362 22.6392 15.6816 22.7571 15.7542 22.866C15.7904 22.8842 15.8176 22.9023 15.8358 22.9205C16.2169 22.5212 16.598 22.1219 16.9791 21.7227C16.961 21.6864 16.9428 21.6592 16.9247 21.641C16.8702 21.5684 16.7976 21.514 16.7069 21.4777C16.6162 21.4414 16.5254 21.4323 16.4347 21.4505C16.3258 21.4505 16.2351 21.4777 16.1625 21.5321C16.0536 21.5684 15.9628 21.632 15.8903 21.7227C15.854 21.7771 15.8086 21.8407 15.7542 21.9133C15.6816 22.0403 15.6362 22.1764 15.618 22.3216C15.618 22.376 15.618 22.4395 15.618 22.5121C15.6362 22.6392 15.6816 22.7571 15.7542 22.866Z" fill="white"/>
<path d="M15.2098 12.2512C14.8831 12.0062 14.8287 11.9517 14.5564 11.6795C14.257 11.4073 13.9848 11.1351 13.7126 10.8901C13.4131 10.5907 13.1137 10.3184 12.7598 10.0462C12.6509 9.95549 12.533 9.87383 12.4059 9.80124C12.3243 9.77402 11.8887 9.58346 11.8615 9.55624C11.9522 9.59254 11.9704 9.60162 11.9159 9.58347C11.8887 9.55625 11.8615 9.55624 11.8343 9.55624C11.7798 9.51994 11.7345 9.49273 11.6982 9.47458C11.6437 9.43828 11.5893 9.39291 11.5348 9.33847C11.671 9.44736 11.4804 9.31125 11.4532 9.28402C11.2354 9.03903 11.0449 8.79403 10.8815 8.54904C10.8543 8.49459 10.7726 8.33127 10.7998 8.38571C10.7998 8.41294 10.7182 8.2496 10.6909 8.19516C10.6002 8.04998 10.5186 7.89572 10.446 7.73239C10.3189 7.44202 10.201 7.15167 10.0921 6.86131C10.0013 6.60724 9.91968 6.36224 9.84709 6.12632C9.81986 5.99021 9.90152 6.28965 9.8743 6.12632C9.84708 6.04466 9.81988 5.93577 9.79266 5.85411C9.73821 5.74522 9.68375 5.60911 9.60208 5.50023C9.2482 5.11912 8.64935 5.01024 8.13214 5.0919C7.4516 5.20079 6.82549 5.58188 6.41717 6.15354C5.9544 6.77963 5.87275 7.54184 5.95441 8.24961C6.14496 9.77402 6.74383 11.244 7.36992 12.6595C7.67844 12.2421 7.99602 11.8247 8.32268 11.4073C7.88713 11.3801 7.45158 11.4073 7.01603 11.4073C6.32641 11.4255 5.64587 11.4436 4.97441 11.4618C4.42997 11.4799 3.88554 11.4981 3.34111 11.5162C2.41557 11.5434 1.57173 12.1423 1.19063 13.0134C1.05452 13.3945 1.05449 13.7756 1.02727 14.1839C1.00005 15.0278 1.54451 15.6267 2.4156 15.6539C2.48819 15.1276 2.56076 14.6013 2.63335 14.075C2.27947 14.075 1.92558 14.075 1.5717 14.2111C0.891162 14.4289 0.34675 15.0278 0.128976 15.6539C-0.0887966 16.28 -0.0343666 16.9061 0.319515 17.4233C0.673396 17.9405 1.27228 18.1855 1.89838 18.1855C1.95283 17.6592 2.01633 17.142 2.08892 16.6339C1.21783 16.6883 0.482844 17.4777 0.455623 18.2944C0.428401 18.8116 0.401199 19.3288 0.646194 19.7644C1.00008 20.3904 1.62615 20.7171 2.36114 20.7171C2.66965 20.7171 2.98723 20.7171 3.31389 20.7171C3.36834 20.1908 3.42277 19.6645 3.47722 19.1383C2.55168 19.1927 1.87117 20.0366 1.87117 20.9077C1.84395 21.5882 1.87117 22.2415 2.4156 22.7315C2.85115 23.1126 3.31389 23.2487 3.88554 23.2487C4.19405 23.2487 4.50257 23.2487 4.81108 23.2487C5.77291 23.2487 6.72567 23.2487 7.66935 23.2487C8.54045 23.2487 9.41154 23.276 10.2554 23.1398C11.0448 22.9765 11.7798 22.7043 12.5148 22.4049C12.787 22.2687 13.0593 22.1599 13.3315 22.051C13.522 21.9965 13.6309 21.9693 13.7942 21.9421C14.0664 21.9058 14.3387 21.8695 14.6109 21.8332C15.0192 21.806 15.4275 21.3704 15.4275 20.9893C15.4275 18.612 15.4457 16.2437 15.482 13.8845C15.482 13.5578 15.482 13.2312 15.482 12.9045C15.5092 12.5234 15.3186 12.1151 14.8831 12.1695C14.4748 12.1967 14.0664 12.6323 14.0664 13.0406C14.0301 15.3998 14.0029 17.759 13.9848 20.1182C13.9848 20.4449 13.9848 20.7806 13.9848 21.1254C14.257 20.8351 14.5292 20.5447 14.8014 20.2543C14.0665 20.3088 13.3859 20.4449 12.7326 20.7171C12.2154 20.9349 11.7254 21.1527 11.181 21.3432C11.0358 21.3795 10.8906 21.4249 10.7454 21.4793C10.7091 21.4793 10.6819 21.4884 10.6637 21.5065C10.5276 21.5338 10.7454 21.4793 10.6093 21.5065C10.5367 21.5247 10.455 21.5428 10.3643 21.561C9.96505 21.6336 9.56579 21.6699 9.16654 21.6699C8.91248 21.6699 8.66749 21.6699 8.43157 21.6699C6.96161 21.6699 5.49162 21.6427 3.99444 21.6971C3.97629 21.6971 3.95815 21.6971 3.94001 21.6971C3.99445 21.6971 3.96723 21.6971 3.91279 21.6699C3.87649 21.6699 3.83113 21.6608 3.77668 21.6427C3.69502 21.6154 3.74946 21.6427 3.77668 21.6427C3.68594 21.6064 3.60427 21.5701 3.53168 21.5338C3.5589 21.5338 3.61334 21.5882 3.5589 21.5338C3.5226 21.4975 3.4863 21.4612 3.45 21.4249C3.41371 21.3886 3.38651 21.3614 3.36836 21.3432C3.31391 21.2615 3.4228 21.4249 3.36836 21.316C3.35021 21.2797 3.33204 21.2434 3.31389 21.2071C3.28667 21.0982 3.34112 21.2888 3.31389 21.2071C3.31389 21.0982 3.3139 20.9077 3.28668 21.1527C3.28668 21.1164 3.28668 21.0801 3.28668 21.0438C3.28668 20.9349 3.29575 20.8169 3.31389 20.6899C3.31389 20.6536 3.31389 20.6173 3.31389 20.581C3.31389 20.5538 3.34112 20.4993 3.31389 20.5538C3.28667 20.581 3.23224 20.7716 3.28668 20.6354C3.28668 20.6354 3.20502 20.7443 3.25946 20.6627C3.31391 20.6082 3.205 20.7171 3.205 20.7171C3.12334 20.7988 3.25944 20.7171 3.205 20.7171C3.12334 20.7171 3.31389 20.7171 3.31389 20.7171C4.15776 20.6627 4.48442 19.1383 3.47722 19.1383C3.22315 19.1383 2.9691 19.1473 2.71503 19.1655C2.66059 19.1655 2.60615 19.1655 2.55171 19.1655C2.47004 19.1655 2.60613 19.1655 2.52446 19.1655C2.47002 19.1473 2.41558 19.1383 2.36114 19.1383C2.22503 19.111 2.4156 19.1655 2.27949 19.0838C2.2432 19.0657 2.20689 19.0475 2.1706 19.0294C2.03449 18.9749 2.1978 19.0838 2.11614 18.9749C2.07984 18.9386 2.04357 18.9023 2.00728 18.866C1.98005 18.8388 1.92558 18.7299 1.98003 18.8388C1.94373 18.7844 1.91653 18.7299 1.89838 18.6755C1.87116 18.621 1.89838 18.7572 1.89838 18.6483C1.89838 18.5938 1.89839 18.4305 1.87117 18.5666C1.87117 18.6755 1.87117 18.621 1.87117 18.5938C1.87117 18.5212 1.88023 18.4486 1.89838 18.3761C1.89838 18.3035 1.89838 18.2399 1.89838 18.1855C1.89838 18.1674 1.89838 18.1492 1.89838 18.1311C1.89838 18.0766 1.95283 17.9405 1.89838 18.0222C1.87116 18.0766 1.84395 18.2399 1.87117 18.1038C1.85302 18.122 1.83485 18.1492 1.8167 18.1855C1.87115 18.1311 1.88021 18.122 1.84392 18.1583C1.82577 18.1946 1.7895 18.2127 1.73506 18.2127C1.77135 18.2127 1.79856 18.2036 1.8167 18.1855C1.6806 18.1855 1.84394 18.1855 1.89838 18.1855C2.74225 18.1311 3.09612 16.6339 2.08892 16.6339C2.17059 16.6339 2.08893 16.6339 2.06171 16.6339C2.02541 16.6157 1.98004 16.6066 1.9256 16.6066C1.87115 16.5794 1.84394 16.5522 1.89838 16.6066C1.86209 16.5885 1.82578 16.5613 1.78949 16.525C1.75319 16.5068 1.71689 16.4887 1.6806 16.4705C1.70782 16.4978 1.73504 16.4978 1.6806 16.4705C1.62615 16.3889 1.54449 16.3344 1.51727 16.2528C1.57172 16.3617 1.46284 16.1711 1.46284 16.1167C1.51729 16.28 1.43562 15.9806 1.46284 15.9806C1.46284 15.9806 1.43562 16.1167 1.46284 16.0622C1.46284 16.0259 1.46284 15.9806 1.46284 15.9261C1.46284 15.8444 1.49006 15.8717 1.46284 15.9533C1.46284 15.9261 1.51728 15.7356 1.49006 15.8717C1.43561 15.9805 1.49005 15.8172 1.51727 15.8172C1.59894 15.7628 1.40839 15.8989 1.49006 15.8444C1.51728 15.8172 1.5717 15.7628 1.5717 15.7356C1.608 15.6993 1.608 15.6993 1.5717 15.7356C1.53541 15.7718 1.53541 15.7809 1.5717 15.7628C1.5717 15.7628 1.70783 15.6539 1.62617 15.7083C1.5445 15.7628 1.6806 15.7083 1.6806 15.6811C1.70782 15.6811 1.84394 15.6539 1.76227 15.6539C1.68061 15.6811 1.8167 15.6539 1.84392 15.6539C2.03447 15.6267 2.22505 15.6539 2.4156 15.6539C2.85115 15.6267 3.20502 15.1639 3.25946 14.7828C3.31391 14.3473 3.04168 14.075 2.63335 14.075C2.55169 14.0206 2.76946 14.075 2.63335 14.075C2.71502 14.1295 2.52449 14.0206 2.55171 14.0206C2.4156 13.9662 2.52446 14.0206 2.52446 14.0206C2.52446 14.0024 2.51539 13.9843 2.49725 13.9661C2.51539 14.0206 2.51539 14.0297 2.49725 13.9934C2.49725 13.9752 2.49725 13.9661 2.49725 13.9661C2.46095 13.8936 2.45188 13.8936 2.47003 13.9661C2.47003 13.948 2.47003 13.9298 2.47003 13.9117C2.47003 13.8391 2.47003 13.8754 2.47003 14.0206C2.47003 13.948 2.47003 13.8845 2.47003 13.83C2.47003 13.7212 2.47003 13.6123 2.47003 13.5034C2.49725 13.4489 2.55169 13.2312 2.49725 13.3945C2.49725 13.3673 2.5789 13.1767 2.52446 13.3128C2.4428 13.4489 2.63335 13.1223 2.52446 13.2584C2.47002 13.3673 2.57892 13.2039 2.60614 13.2039C2.6878 13.0951 2.60615 13.2039 2.57892 13.2039C2.57892 13.2039 2.76945 13.0951 2.66057 13.1495C2.55168 13.2039 2.76946 13.1223 2.76946 13.1223C2.79668 13.0951 2.87835 13.0951 2.76946 13.1223C2.8239 13.1041 2.87834 13.0951 2.93278 13.0951C2.95093 13.0951 2.9691 13.0951 2.98725 13.0951C3.11428 13.0951 3.23222 13.0951 3.34111 13.0951C4.46627 13.0588 5.6005 13.0225 6.74381 12.9862C7.07047 12.9862 7.4516 12.959 7.75103 12.9862C8.34991 13.0406 8.97601 12.3056 8.70379 11.734C8.46787 11.2077 8.25009 10.6723 8.05046 10.1279C7.94158 9.80124 7.8327 9.47458 7.72382 9.14792C7.66937 9.00273 7.62401 8.84847 7.58771 8.68515C7.56956 8.59441 7.55139 8.50367 7.53325 8.41293C7.50603 8.33126 7.53325 8.44016 7.53325 8.44016C7.5151 8.38572 7.49696 8.33126 7.47882 8.27682C7.42437 8.0046 7.36992 7.70518 7.36992 7.40574C7.36992 7.33315 7.36992 7.26963 7.36992 7.21519C7.36992 7.43296 7.36992 7.21519 7.36992 7.13353C7.36992 7.09723 7.37899 7.06093 7.39714 7.02463C7.3427 7.1063 7.39714 7.05185 7.39714 7.02463C7.39714 6.99741 7.4516 6.88852 7.4516 6.88852C7.4516 6.88852 7.34272 7.10629 7.4516 6.91574C7.34272 7.02463 7.53327 6.75241 7.4516 6.91574C7.4879 6.87944 7.52417 6.84316 7.56046 6.80686C7.61491 6.7252 7.39715 6.91575 7.47882 6.86131C7.53326 6.83409 7.56049 6.80685 7.58771 6.77963C7.60586 6.77963 7.62399 6.77056 7.64214 6.75242C7.7238 6.69797 7.47882 6.80685 7.58771 6.77963C7.62401 6.76148 7.66937 6.74335 7.72382 6.7252C7.72382 6.7252 7.88714 6.64353 7.88714 6.67075C7.88714 6.67075 7.7238 6.69797 7.80546 6.69797C7.84176 6.67982 7.87806 6.67075 7.91436 6.67075C7.95065 6.65261 7.99602 6.64352 8.05046 6.64352C8.10491 6.6163 8.21379 6.64352 8.05046 6.64352C8.10491 6.6163 8.29545 6.67075 8.3499 6.69797C8.45878 6.69797 8.21379 6.6163 8.32268 6.69797C8.3499 6.69797 8.43157 6.75242 8.43157 6.75242C8.34991 6.64353 8.4588 6.75242 8.43157 6.75242C8.48602 6.83408 8.48602 6.80687 8.43157 6.7252C8.4588 6.77964 8.4588 6.91574 8.43157 6.69797C8.44972 6.75241 8.46786 6.81593 8.486 6.88852C8.50415 7.01556 8.53139 7.13352 8.56768 7.2424C8.64027 7.51462 8.73101 7.76868 8.8399 8.0046C9.05767 8.6307 9.3571 9.20236 9.71098 9.77401C10.0376 10.2368 10.446 10.754 10.9632 10.999C11.0539 11.0534 11.1446 11.0988 11.2354 11.1351C11.2898 11.1351 11.3443 11.1623 11.2082 11.1079C11.2445 11.126 11.2808 11.1442 11.3171 11.1623C11.4622 11.2349 11.6074 11.3166 11.7526 11.4073C11.8252 11.4618 11.8978 11.5162 11.9704 11.5706C11.9885 11.6069 12.0157 11.6342 12.052 11.6523C12.0793 11.6795 12.1337 11.7067 12.0793 11.6795C12.2245 11.8066 12.3696 11.9427 12.5148 12.0878C13.1137 12.6323 13.6581 13.2312 14.3387 13.6939C14.6653 13.9389 15.1825 13.6123 15.3459 13.3128C15.5364 12.9589 15.5909 12.4962 15.2098 12.2512Z" fill="white"/>
<path d="M1.89843 18.1571C2.40657 18.1571 2.9147 18.1571 3.42283 18.1571C3.85838 18.1299 4.18504 17.6671 4.23948 17.3132C4.26671 16.9049 4.0217 16.6055 3.61337 16.6055C3.10524 16.6236 2.59711 16.6327 2.08897 16.6327C1.68064 16.6599 1.32676 17.1227 1.27232 17.4766C1.2451 17.8849 1.49011 18.1843 1.89843 18.1571Z" fill="white"/>
<path d="M2.41562 15.7101C2.65154 15.6919 2.88745 15.6828 3.12338 15.6828C3.31393 15.6828 3.55891 15.5195 3.69502 15.3834C3.83113 15.2201 3.96723 14.9751 3.99445 14.7573C4.02168 14.5667 3.99445 14.349 3.85835 14.2129C3.72224 14.0495 3.5589 13.9951 3.34113 14.0223C3.10521 14.0223 2.86929 14.0223 2.63337 14.0223C2.44282 14.0223 2.19783 14.1856 2.06172 14.3217C1.92562 14.4851 1.78952 14.7301 1.76229 14.9478C1.73507 15.1384 1.76229 15.3562 1.8984 15.5195C2.03451 15.6556 2.19785 15.7101 2.41562 15.7101Z" fill="white"/>
<path d="M3.31381 20.7427C3.45899 20.7427 3.60417 20.7427 3.74935 20.7427C3.9399 20.7427 4.15768 20.5793 4.29378 20.4432C4.45711 20.3071 4.56603 20.0621 4.59325 19.8443C4.59325 19.6538 4.59325 19.436 4.45714 19.2999C4.29381 19.1638 4.1577 19.1094 3.93992 19.1094C3.79474 19.1094 3.64957 19.1094 3.50438 19.1094C3.31383 19.1094 3.06881 19.2727 2.9327 19.4088C2.7966 19.5449 2.66049 19.7899 2.66049 20.0077C2.63327 20.1982 2.66049 20.416 2.7966 20.5521C2.9327 20.6882 3.09604 20.7427 3.31381 20.7427Z" fill="white"/>
<path d="M25.4723 29.7563C25.436 29.2119 25.4813 28.6765 25.6084 28.1502C25.7445 27.633 24.955 27.4152 24.8189 27.9325C24.6828 28.5313 24.6012 29.1574 24.6556 29.7563C24.6828 30.3007 25.4995 30.2735 25.4723 29.7563Z" fill="white"/>
<path d="M26.7789 29.1565C26.8334 28.5576 26.9695 27.9315 27.1872 27.3599C27.2689 27.1421 27.0783 26.8971 26.8878 26.8426C26.6428 26.7882 26.4795 26.9515 26.3978 27.1421C26.1528 27.7954 26.0167 28.476 25.9623 29.1837C25.9351 29.4015 26.1528 29.592 26.3706 29.592C26.6156 29.592 26.7517 29.4015 26.7789 29.1565Z" fill="white"/>
<path d="M28.0312 29.0451C28.1764 28.3192 28.4667 27.6568 28.9023 27.0579C29.0384 26.8674 28.9295 26.5952 28.739 26.4863C28.5212 26.3774 28.3034 26.459 28.1945 26.6496C27.7045 27.3029 27.3779 28.0379 27.2146 28.8273C27.1057 29.3445 27.9223 29.5623 28.0312 29.0451Z" fill="white"/>
<path d="M29.6644 28.6372C29.8277 27.9022 30.1816 27.2216 30.6716 26.65C31.0255 26.2689 30.4266 25.67 30.0727 26.0783C29.4739 26.7589 29.0655 27.5483 28.8478 28.4194C28.7117 28.9366 29.5283 29.1544 29.6644 28.6372Z" fill="white"/>
<path d="M31.4611 28.5014C31.8059 27.7936 32.2596 27.1675 32.8222 26.6231C33.2033 26.242 32.6044 25.6704 32.2233 26.0515C31.6245 26.6231 31.1072 27.3309 30.7534 28.0931C30.5084 28.5559 31.2433 28.9642 31.4611 28.5014Z" fill="white"/>
<path d="M33.2305 28.3936C33.5027 27.94 33.8384 27.5407 34.2377 27.1959C34.4282 27.0598 34.3738 26.7603 34.2377 26.6242C34.0471 26.4609 33.8293 26.4881 33.6388 26.6242C33.176 27.0053 32.8222 27.4681 32.5227 27.9853C32.2505 28.4481 32.9855 28.8564 33.2305 28.3936Z" fill="white"/>
<path d="M24.1928 30.0277C23.9751 29.5105 23.9478 28.9661 24.084 28.4216C24.2473 27.9316 23.4306 27.7139 23.2945 28.2311C23.0767 28.9933 23.1584 29.7555 23.4851 30.4633C23.5939 30.6538 23.8934 30.7082 24.0567 30.5994C24.2745 30.4633 24.3017 30.2183 24.1928 30.0277Z" fill="white"/>
<path d="M13.9031 36.4237C14.0664 37.1315 14.2298 37.8392 14.3931 38.547C14.502 39.0642 15.2914 38.8192 15.1825 38.302C15.0192 37.5943 14.8559 36.8956 14.6925 36.206C14.5837 35.6615 13.7942 35.9065 13.9031 36.4237Z" fill="white"/>
<path d="M15.3458 35.3906C15.5455 36.044 15.7541 36.6973 15.9719 37.3506C16.108 37.8678 16.8975 37.6228 16.7613 37.1328C16.5617 36.4795 16.353 35.8171 16.1352 35.1456C15.9991 34.6557 15.1825 34.8734 15.3458 35.3906Z" fill="white"/>
<path d="M16.5163 34.5449C16.6978 35.1437 16.8702 35.7335 17.0335 36.3143C17.1969 36.8315 17.9863 36.6137 17.823 36.0965C17.6596 35.4976 17.4872 34.9078 17.3058 34.3271C17.1696 33.8099 16.3802 34.0549 16.5163 34.5449Z" fill="white"/>
<path d="M17.4964 33.6737C17.6234 34.1818 17.7867 34.6809 17.9864 35.1709C18.068 35.3614 18.2586 35.4975 18.5036 35.4431C18.6941 35.3886 18.8575 35.1436 18.7758 34.9259C18.5762 34.454 18.4128 33.964 18.2858 33.4559C18.1769 32.9387 17.3875 33.1565 17.4964 33.6737Z" fill="white"/>
<path d="M18.8029 32.8047C18.9844 33.458 19.1568 34.1114 19.3202 34.7647C19.4563 35.2819 20.2457 35.0369 20.1096 34.5469C19.9463 33.8936 19.7739 33.2312 19.5924 32.5597C19.4563 32.0697 18.6668 32.2875 18.8029 32.8047Z" fill="white"/>
<path d="M19.919 32.0139C20.1187 32.4676 20.3001 32.9303 20.4635 33.4022C20.6268 33.8922 21.4162 33.6744 21.2529 33.1572C21.0714 32.6309 20.8627 32.1046 20.6268 31.5783C20.5179 31.3878 20.2457 31.3333 20.0551 31.4422C19.8374 31.5783 19.8374 31.8233 19.919 32.0139Z" fill="white"/>
<path d="M21.0625 31.199C21.1713 31.8251 21.3891 32.424 21.6613 33.0229C21.743 33.2134 22.0424 33.2679 22.233 33.159C22.4235 33.0229 22.4507 32.7779 22.3691 32.5874C22.1241 32.0701 21.9607 31.5257 21.8519 30.9541C21.7974 30.7363 21.5252 30.6274 21.3347 30.6818C21.1169 30.7363 21.008 30.9813 21.0625 31.199Z" fill="white"/>
<path d="M18.9664 37.6223C18.9482 38.0941 18.9573 38.5569 18.9936 39.0106C19.0208 39.5278 19.8647 39.5278 19.8102 38.9834C19.7739 38.5297 19.7739 38.076 19.8102 37.6223C19.8102 37.1051 18.9936 37.1051 18.9664 37.6223Z" fill="white"/>
<path d="M19.9463 38.1114C20.0189 38.6922 20.1005 39.2638 20.1913 39.8264C20.2185 40.0442 20.3546 40.2347 20.5996 40.2347C20.7902 40.2347 21.0352 40.0442 21.0079 39.8264C20.9353 39.2638 20.8537 38.6922 20.7629 38.1114C20.7357 37.8937 20.5996 37.7031 20.3546 37.7031C20.1368 37.7031 19.9191 37.8937 19.9463 38.1114Z" fill="white"/>
<path d="M21.1986 39.0935C21.1441 39.6651 21.2258 40.2368 21.3891 40.7812C21.5524 41.2712 22.3419 41.0534 22.1785 40.5362C22.0424 40.0735 21.988 39.5835 22.0152 39.0935C22.0424 38.5491 21.2258 38.5763 21.1986 39.0935Z" fill="white"/>
<path d="M22.4508 40.0701C22.4871 40.6326 22.5234 41.1861 22.5597 41.7306C22.5869 42.275 23.4035 42.2478 23.3763 41.7306C23.34 41.168 23.3037 40.6145 23.2674 40.0701C23.2402 39.5256 22.3963 39.5528 22.4508 40.0701Z" fill="white"/>
<path d="M23.5124 41.2434C23.5668 41.8785 23.6394 42.5137 23.7301 43.1489C23.7573 43.3667 23.8935 43.5572 24.1384 43.5572C24.3562 43.5572 24.574 43.3667 24.5468 43.1489C24.4742 42.5137 24.4016 41.8785 24.329 41.2434C24.2746 40.7262 23.4579 40.7262 23.5124 41.2434Z" fill="white"/>
<path d="M24.9007 42.2224C24.9552 43.039 25.055 43.8466 25.2001 44.6451C25.2546 44.8629 25.5268 44.9718 25.7174 44.9173C25.9351 44.8629 26.044 44.6179 25.9896 44.4001C25.8444 43.6742 25.7537 42.9483 25.7174 42.2224C25.6901 41.678 24.8463 41.7052 24.9007 42.2224Z" fill="white"/>
<path d="M26.1256 43.2011C26.3252 43.9089 26.4159 44.6257 26.3978 45.3516C26.3706 45.8961 27.2144 45.8688 27.2144 45.3516C27.2416 44.5622 27.1328 43.7455 26.9422 42.9833C26.7789 42.4661 25.9894 42.7111 26.1256 43.2011Z" fill="white"/>
<path d="M33.7205 36.5313C33.6388 35.9597 33.911 35.388 34.3737 35.0614C34.8093 34.7619 34.3738 34.0542 33.9382 34.3536C33.1488 34.898 32.7677 35.8236 32.931 36.7491C32.9582 36.9941 33.2305 37.103 33.4482 37.0485C33.666 36.9669 33.7477 36.7491 33.7205 36.5313Z" fill="white"/>
<path d="M44.3914 29.5654C44.3369 28.8848 44.6091 28.2315 45.1536 27.8504C45.5891 27.551 45.1808 26.8432 44.7453 27.1427C43.9558 27.6871 43.493 28.6126 43.5747 29.5654C43.6019 30.0826 44.4458 30.0826 44.3914 29.5654Z" fill="white"/>
<path d="M44.3641 42.5197C44.5819 41.7303 45.1263 41.1042 45.8613 40.7775C46.0518 40.6959 46.1063 40.3964 45.9974 40.2059C45.8613 39.9881 45.6163 39.9881 45.4258 40.0698C44.5002 40.4781 43.8197 41.3492 43.5747 42.3292C43.4386 42.8192 44.228 43.0369 44.3641 42.5197Z" fill="white"/>
<path d="M15.2641 14.5392C15.7723 14.1581 16.3076 13.8224 16.8702 13.532C17.3602 13.287 16.9247 12.5792 16.4619 12.8242C15.8812 13.1146 15.3367 13.4503 14.8286 13.8314C14.3931 14.1309 14.8286 14.8659 15.2641 14.5392Z" fill="white"/>
<path d="M15.3458 16.3345C15.7995 15.9353 16.2895 15.5814 16.8158 15.2729C17.2785 15.0007 16.843 14.2929 16.3802 14.5651C15.7995 14.9099 15.2551 15.3092 14.7469 15.7629C14.3658 16.1168 14.9647 16.6884 15.3458 16.3345Z" fill="white"/>
<path d="M15.2098 17.994C15.7361 17.631 16.2533 17.2681 16.7615 16.9051C17.197 16.6057 16.7615 15.8979 16.3259 16.1973C15.8178 16.5603 15.3006 16.9233 14.7743 17.2862C14.3387 17.6129 14.7743 18.3206 15.2098 17.994Z" fill="white"/>
<path d="M15.3458 19.4367C15.7632 19.1827 16.1716 18.9195 16.5708 18.6473C17.0336 18.3479 16.598 17.6401 16.1352 17.9395C15.736 18.2118 15.3277 18.4749 14.9103 18.729C14.4747 19.0284 14.9103 19.7362 15.3458 19.4367Z" fill="white"/>
<path d="M15.3459 20.9357C15.8177 20.5909 16.2895 20.2552 16.7614 19.9286C17.1697 19.6291 16.7614 18.9213 16.3258 19.2208C15.854 19.5656 15.3912 19.9013 14.9375 20.228C14.502 20.5274 14.9103 21.2352 15.3459 20.9357Z" fill="white"/>
</svg>
