<svg width="48" height="42" viewBox="0 0 48 42" fill="none" xmlns="http://www.w3.org/2000/svg">
<path d="M37.744 16.443L44.2072 25.4736H4.39453L10.3407 16.443H37.744Z" fill="#2A428C"/>
<path d="M44.2072 38.251H4.39453C4.39453 37.4842 4.39453 26.1533 4.39453 25.4718H44.2941C44.2072 26.2385 44.2072 37.5694 44.2072 38.251Z" fill="#1C2E7A"/>
<path d="M43.691 2.55365C45.7849 2.55365 47.4827 4.23199 47.4827 6.30222C47.4827 8.37159 45.7849 10.0508 43.691 10.0508C41.5971 10.0508 39.8984 8.37159 39.8984 6.30222C39.8984 4.23199 41.5971 2.55365 43.691 2.55365Z" fill="#FFDD40"/>
<path d="M3.27305 12.6945C4.74851 12.6945 5.94456 13.877 5.94456 15.3355C5.94456 16.7941 4.74851 17.9766 3.27305 17.9766C1.79759 17.9766 0.601562 16.7941 0.601562 15.3355C0.601562 13.877 1.79759 12.6945 3.27305 12.6945Z" fill="#FFDD40"/>
<path d="M24.3033 28.1132C30.252 28.1132 35.0745 29.7916 35.0745 31.8618C35.0745 33.932 30.252 35.6104 24.3033 35.6104C18.3537 35.6104 13.5312 33.932 13.5312 31.8618C13.5312 29.7916 18.3537 28.1132 24.3033 28.1132Z" fill="#70F2A4"/>
<path d="M4.39453 38.2519H44.2941V41.4893H4.39453V38.2519Z" fill="#2A428C"/>
<path d="M15.168 21.2148C15.168 18.5738 15.168 10.0543 15.168 7.32812H32.9203C32.9203 9.96915 32.9203 18.4886 32.9203 21.2148C31.2822 21.2148 17.4084 21.2148 15.168 21.2148Z" fill="#E9EFFF"/>
<path d="M46.9627 36.7175C47.3912 36.7175 47.7388 37.06 47.7388 37.4842C47.7388 37.9068 47.3912 38.251 46.9627 38.251C46.5342 38.251 46.1875 37.9068 46.1875 37.4842C46.1875 37.06 46.5342 36.7175 46.9627 36.7175Z" fill="#081120"/>
<path d="M46.1042 15.9313C46.5327 15.9313 46.8803 16.2747 46.8803 16.6981C46.8803 17.1215 46.5327 17.4648 46.1042 17.4648C45.6757 17.4648 45.3281 17.1215 45.3281 16.6981C45.3281 16.2747 45.6757 15.9313 46.1042 15.9313Z" fill="#081120"/>
<path d="M35.3299 0.00165272C35.7584 0.00165272 36.1051 0.344987 36.1051 0.768404C36.1051 1.19182 35.7584 1.53516 35.3299 1.53516C34.9014 1.53516 34.5547 1.19182 34.5547 0.768404C34.5547 0.344987 34.9014 0.00165272 35.3299 0.00165272Z" fill="#081120"/>
<path d="M4.1346 3.66181C4.56309 3.66181 4.91067 4.00514 4.91067 4.42856C4.91067 4.85198 4.56309 5.19531 4.1346 5.19531C3.70695 5.19531 3.35938 4.85198 3.35938 4.42856C3.35938 4.00514 3.70695 3.66181 4.1346 3.66181Z" fill="#081120"/>
<path d="M1.46355 37.7409C1.8912 37.7409 2.23877 38.0842 2.23877 38.5077C2.23877 38.9311 1.8912 39.2744 1.46355 39.2744C1.03506 39.2744 0.6875 38.9311 0.6875 38.5077C0.6875 38.0842 1.03506 37.7409 1.46355 37.7409Z" fill="#081120"/>
<path d="M43.69 40.8934H4.91062V38.7633H43.69V40.8934ZM10.5978 16.9517H14.6485V20.7006H14.1314C13.8733 20.7006 13.6143 20.9562 13.6143 21.2118C13.6143 21.4674 13.8733 21.723 14.1314 21.723C14.8206 21.723 33.2621 21.723 34.0381 21.723C34.2963 21.723 34.5552 21.4674 34.5552 21.2118C34.5552 20.9562 34.2963 20.7006 34.0381 20.7006H33.521V16.9517H37.5709L43.2589 24.9607H5.3408L10.5978 16.9517ZM15.6827 7.92038H32.4008V20.7006H28.6082V13.2029C28.6082 12.9473 28.3501 12.6917 28.092 12.6917C27.833 12.6917 27.5749 12.9473 27.5749 13.2029V20.7006H15.6827V7.92038ZM4.91062 34.5032H9.21942C9.47754 34.5032 9.73652 34.2476 9.73652 33.992C9.73652 33.7364 9.47754 33.4808 9.21942 33.4808H4.91062V25.9831H43.69V28.6243H38.864C38.6051 28.6243 38.3461 28.8799 38.3461 29.1356C38.3461 29.3912 38.6051 29.6468 38.864 29.6468H43.69V37.6557H4.91062V34.5032ZM44.7233 25.3015C44.7233 25.2163 45.1543 25.8127 38.174 16.1849C38.088 16.0145 37.9159 15.9293 37.743 15.9293H33.435V7.40918C33.435 7.15357 33.176 6.89797 32.9179 6.89797H15.1656C14.9066 6.89797 14.6485 7.15357 14.6485 7.40918V15.9293H10.3397C10.1676 15.9293 9.99464 16.0145 9.9086 16.1849C3.70434 25.6423 3.96246 25.2163 3.96246 25.3015V25.3867V25.4719C3.96246 27.2611 3.96246 39.8709 3.96246 41.4898C3.96246 41.7454 4.22144 42.001 4.47956 42.001H44.3783C44.6372 42.001 44.8962 41.7454 44.8962 41.4898C44.8962 41.4898 44.8962 25.5571 44.8962 25.4719C44.8093 25.4719 44.7233 25.3015 44.7233 25.3015Z" fill="#081120"/>
<path d="M31.7114 33.9922C27.5755 35.4405 20.9402 35.4405 16.8034 33.9922C15.0801 33.3958 14.0459 32.6291 14.0459 31.8623C14.0459 31.0956 15.0801 30.3288 16.8034 29.7325C20.9402 28.2842 27.5755 28.2842 31.7114 29.7325C33.4356 30.3288 34.4689 31.0956 34.4689 31.8623C34.4689 32.6291 33.5216 33.3958 31.7114 33.9922ZM24.3009 27.6026C18.7849 27.6026 13.0117 29.1361 13.0117 31.8623C13.0117 34.5886 18.8718 36.1221 24.3009 36.1221C29.7299 36.1221 35.59 34.5886 35.59 31.8623C35.59 29.1361 29.8151 27.6026 24.3009 27.6026Z" fill="#081120"/>
<path d="M18.3569 16.4414C18.615 16.4414 18.874 16.1858 18.874 15.9302V12.6928C18.874 12.4373 18.615 12.1817 18.3569 12.1817C18.0979 12.1817 17.8398 12.4373 17.8398 12.6928V15.9302C17.8398 16.1858 18.0979 16.4414 18.3569 16.4414Z" fill="#081120"/>
<path d="M43.6925 3.15057C45.5019 3.15057 46.9663 4.59887 46.9663 6.38796C46.9663 8.17705 45.5019 9.62536 43.6925 9.62536C41.8822 9.62536 40.4178 8.17705 40.4178 6.38796C40.4178 4.59887 41.8822 3.15057 43.6925 3.15057ZM43.6925 10.5625C46.105 10.5625 48.0004 8.68822 48.0004 6.30277C48.0004 3.91732 46.105 2.04304 43.6925 2.04304C41.2791 2.04304 39.3828 3.91732 39.3828 6.30277C39.3828 8.68822 41.3651 10.5625 43.6925 10.5625Z" fill="#081120"/>
<path d="M3.27463 17.4667C2.06836 17.4667 1.12024 16.5295 1.12024 15.3368C1.12024 14.1441 2.06836 13.207 3.27463 13.207C4.48089 13.207 5.42904 14.1441 5.42904 15.3368C5.42904 16.5295 4.48089 17.4667 3.27463 17.4667ZM6.54928 15.3368C6.54928 13.5477 5.08402 12.0994 3.27463 12.0994C1.46523 12.0994 0 13.5477 0 15.3368C0 17.1259 1.46523 18.5742 3.27463 18.5742C5.08402 18.5742 6.54928 17.1259 6.54928 15.3368Z" fill="#081120"/>
</svg>
