<svg width="36" height="44" viewBox="0 0 36 44" fill="none" xmlns="http://www.w3.org/2000/svg">
<path d="M34.6466 20.2007C34.6466 23.1751 34.6388 26.1418 34.6231 29.1006C34.5918 32.0751 34.5526 35.0496 34.5057 38.024C34.4744 39.6991 34.4352 41.3742 34.3883 43.0493C34.6231 42.7988 34.8579 42.5483 35.0928 42.2979C30.6467 42.4544 26.2006 42.5484 21.7546 42.5797C17.3242 42.6266 12.886 42.6031 8.4399 42.5092C5.93508 42.4622 3.43809 42.3918 0.948927 42.2979C1.13679 42.4544 1.32464 42.611 1.5125 42.7675C1.43423 39.8087 1.37943 36.8577 1.34812 33.9146C1.30116 31.0027 1.27768 28.0204 1.2542 25.0851C1.2542 23.4256 1.2542 21.7584 1.2542 20.0833C1.12896 20.3024 1.00371 20.5138 0.878467 20.7173C5.05839 17.688 9.21482 14.5883 13.3713 11.5121C14.5297 10.6511 15.6961 9.79003 16.8702 8.929C17.152 8.71765 17.3398 8.31845 17.1989 7.96621C17.058 7.63745 16.6354 7.56701 16.377 7.77835C14.1227 9.4378 11.8762 11.0972 9.63752 12.7567C7.38318 14.4318 5.12883 16.099 2.8745 17.7585C2.31091 18.1655 1.75516 18.5726 1.20723 18.9796C0.901956 19.1909 0.596684 19.4023 0.314891 19.6371C-0.0843144 19.9659 0.0096192 20.4825 0.0096192 20.9521C0.0096192 22.3767 0.0096192 23.7935 0.0096192 25.2025C0.0252743 28.0204 0.0487542 30.8383 0.0800644 33.6563C0.111375 36.4898 0.158334 39.3312 0.220955 42.1805C0.23661 42.5249 0.244446 42.8771 0.244446 43.2372C0.267929 43.5424 0.549712 43.6833 0.808022 43.7068C5.25408 43.8634 9.70013 43.9573 14.1462 43.9886C18.5766 44.0199 23.0148 43.9886 27.4609 43.8947C29.9657 43.8477 32.4627 43.7851 34.9519 43.7068C35.3041 43.6833 35.6329 43.2841 35.6563 42.9554C35.719 39.9809 35.7738 37.0064 35.8207 34.032C35.852 31.0732 35.8755 28.1065 35.8912 25.132C35.8912 23.4569 35.8912 21.774 35.8912 20.0833C35.8912 19.7545 35.7268 19.4258 35.3511 19.4492C34.9988 19.4727 34.6466 19.8484 34.6466 20.2007Z" fill="#1499FC"/>
<path d="M24.429 6.3455C24.6482 4.43558 24.8674 2.52566 25.0865 0.615736C25.11 0.380909 25.0396 0.0521434 24.7578 0.00517807C24.5229 -0.0417873 24.2881 0.240005 24.2646 0.474832C24.0611 2.38476 23.8498 4.28686 23.6306 6.18113C23.5836 6.41596 23.6541 6.74471 23.9359 6.79168C24.1942 6.83864 24.4055 6.55684 24.429 6.3455Z" fill="#1499FC"/>
<path d="M33.6367 11.6057C31.7267 11.3239 29.8168 11.0499 27.9069 10.7838C27.2964 10.6898 27.1085 11.8405 27.6956 11.9344C29.6055 12.2006 31.5154 12.4745 33.4253 12.7563C34.0359 12.8502 34.2237 11.6996 33.6367 11.6057Z" fill="#1499FC"/>
<path d="M27.0599 8.43515C28.5471 7.27667 30.0422 6.11819 31.5451 4.95971C31.9443 4.65444 31.6155 3.83255 31.1459 4.18479C29.643 5.34327 28.1479 6.50174 26.6607 7.66022C26.285 7.9655 26.5902 8.81087 27.0599 8.43515Z" fill="#1499FC"/>
<path d="M17.4315 20.6228C15.7172 21.9613 14.0265 23.2763 12.3123 24.5913C12.2653 24.6226 12.2262 24.6461 12.1948 24.6618C12.1009 24.7557 12.1714 24.6853 12.1948 24.6853C12.1948 24.6853 12.0305 24.7322 12.1009 24.7087C12.1949 24.6852 12.0305 24.7087 12.0305 24.7087C12.007 24.7087 11.9131 24.7087 12.007 24.7087C11.9757 24.7087 11.9365 24.7009 11.8896 24.6853C11.7956 24.6618 11.9835 24.7557 11.8426 24.6853C11.7956 24.6383 11.7487 24.6148 11.7017 24.5913C11.7487 24.6148 11.7487 24.6383 11.7017 24.5678C11.6704 24.5365 11.6391 24.4974 11.6078 24.4504C11.5295 24.3408 11.4434 24.2312 11.3495 24.1217C11.1773 23.9025 11.0051 23.6833 10.8328 23.4642C10.191 22.6188 9.54131 21.7734 8.88379 20.928C8.55503 20.521 8.23409 20.1061 7.92099 19.6834C7.82706 19.5739 7.74096 19.4643 7.66269 19.3547C7.6392 19.3312 7.59225 19.2608 7.63921 19.3312C7.62356 19.2999 7.6079 19.2686 7.59224 19.2373C7.63921 19.3547 7.59224 19.2138 7.59224 19.1903C7.59224 19.1433 7.61573 19.0729 7.59224 19.1903C7.61573 19.0494 7.59223 19.1903 7.56875 19.2138C7.59223 19.1199 7.6392 19.0729 7.56875 19.1668C7.59223 19.1668 7.68617 19.0259 7.61572 19.1199C7.49831 19.2138 7.73313 19.0024 7.56875 19.1433C7.66268 19.0729 7.78011 19.0024 7.87404 18.9085C8.09321 18.7363 8.31238 18.5641 8.53155 18.3919C8.95424 18.0788 9.37692 17.7579 9.79961 17.4291C10.6606 16.7716 11.5138 16.1062 12.3592 15.4331C12.4532 15.3705 12.5471 15.3 12.641 15.2217C12.688 15.1904 12.7349 15.1513 12.7819 15.1043C12.8289 15.0808 12.9228 15.0339 12.8054 15.0808C12.8524 15.0652 12.8915 15.0574 12.9228 15.0574C12.8054 15.0808 12.9228 15.0574 12.9463 15.0574C12.9933 15.0574 13.0872 15.0574 12.9933 15.0574C13.0402 15.0574 13.0872 15.0652 13.1342 15.0808C13.1107 15.0808 13.0637 15.0339 13.1576 15.0808C13.189 15.1121 13.2281 15.1356 13.2751 15.1513C13.3455 15.2217 13.2046 15.0574 13.2985 15.1982C13.322 15.2217 13.369 15.2687 13.3925 15.3157C13.5647 15.5348 13.7369 15.754 13.9091 15.9732C14.6292 16.9281 15.3572 17.8753 16.093 18.8146C16.453 19.2842 16.8131 19.7539 17.1732 20.2235C17.2201 20.2705 17.2671 20.3253 17.3141 20.3879C17.3297 20.4192 17.3454 20.4427 17.361 20.4584C17.3454 20.4271 17.3454 20.4271 17.361 20.4584C17.3845 20.4819 17.408 20.5993 17.3845 20.4818C17.4002 20.5445 17.408 20.5993 17.408 20.6462C17.3845 20.5288 17.408 20.6227 17.408 20.6462C17.4237 20.5523 17.4237 20.5445 17.408 20.6228C17.3923 20.6384 17.3845 20.6541 17.3845 20.6697C17.408 20.6227 17.4315 20.5288 17.3845 20.6697C17.3532 20.7167 17.361 20.701 17.408 20.6228C17.3454 20.6854 17.3532 20.6854 17.4315 20.6228C17.1497 20.8576 16.9383 21.2333 17.0792 21.5855C17.2201 21.8908 17.6428 21.9847 17.9011 21.7734C18.3943 21.3742 18.6996 20.7871 18.6291 20.1296C18.5821 19.566 18.136 19.1433 17.8072 18.7206C17.0714 17.7657 16.3356 16.8107 15.5998 15.8558C15.2398 15.3861 14.8719 14.9086 14.4961 14.4233C14.1439 13.9772 13.7682 13.6719 13.1811 13.6719C12.5941 13.6719 12.1479 14.0946 11.7252 14.4233C11.2399 14.799 10.7624 15.1669 10.2928 15.527C9.33779 16.2628 8.38282 17.0064 7.42786 17.7579C7.21652 17.9222 6.9582 18.0631 6.79383 18.2745C6.559 18.5563 6.41811 18.8615 6.37114 19.1903C6.32417 19.4486 6.34765 19.7304 6.44158 19.9887C6.53552 20.2705 6.74687 20.4818 6.93473 20.7167C7.65487 21.656 8.38283 22.5953 9.11862 23.5346C9.47868 24.0043 9.84658 24.4817 10.2223 24.967C10.5511 25.4132 10.8563 25.8829 11.4199 26.0472C12.0774 26.2116 12.594 25.8829 13.0872 25.5071C13.6195 25.0845 14.1517 24.6696 14.684 24.2626C15.7486 23.4328 16.8209 22.6031 17.9011 21.7734C18.1829 21.5621 18.3943 21.1629 18.2299 20.8106C18.089 20.5053 17.6898 20.4349 17.4315 20.6228Z" fill="#1499FC"/>
<path d="M11.4675 24.6153C10.7943 23.7386 10.1211 22.8619 9.44795 21.9852C9.10353 21.5625 8.76695 21.132 8.43819 20.6936C8.26599 20.4745 8.09378 20.2553 7.92157 20.0361C7.75719 19.8483 7.56933 19.6369 7.45192 19.4256C7.3345 19.2142 7.05271 19.1203 6.86485 19.3082C6.41868 19.7309 5.92555 20.2475 5.83162 20.8815C5.76117 21.539 6.20735 21.9852 6.58307 22.4548C7.131 23.1593 7.67109 23.856 8.20337 24.5448C8.48516 24.9049 8.75912 25.2571 9.02526 25.6015C9.16616 25.7659 9.30705 25.9303 9.49491 26.0242C10.1055 26.306 10.8334 25.8833 11.3266 25.578C11.6553 25.3902 11.7493 24.944 11.4909 24.6387C11.4909 24.6387 11.4831 24.6309 11.4675 24.6153C11.3031 24.4039 10.9978 24.5213 10.8569 24.7092C10.6925 24.9205 10.6925 25.2493 10.8804 25.4606C10.8961 25.4763 10.9039 25.4919 10.9039 25.5076C10.9665 25.1945 11.0213 24.8814 11.0683 24.5683C10.8334 24.7092 10.5282 24.897 10.3168 24.9675C10.2229 24.9988 10.1289 25.0144 10.035 25.0144C10.0115 25.0144 9.9176 25.0145 9.96457 25.0379C10.035 25.0379 9.91761 25.0144 9.89412 25.0144C9.80019 25.0144 9.91761 25.0379 9.87065 25.0144C9.87065 24.991 9.82367 24.9675 9.80019 24.9675C9.75322 24.9675 9.87064 25.0379 9.80019 24.9675C9.78453 24.9518 9.76889 24.9283 9.75323 24.897C9.49492 24.6152 9.28358 24.31 9.04875 24.0282C8.5791 23.4176 8.10944 22.8071 7.63979 22.1965C7.40496 21.8991 7.17796 21.6016 6.95879 21.3042C6.89617 21.2259 6.83355 21.1476 6.77093 21.0694C6.74745 21.0459 6.65352 20.905 6.70048 20.9754C6.74745 21.0694 6.67699 20.952 6.67699 20.952C6.67699 20.8815 6.70048 21.0694 6.67699 20.952C6.67699 20.858 6.70048 21.0694 6.70048 20.9754C6.677 20.858 6.677 21.0928 6.70048 20.952C6.70048 20.905 6.67699 21.0224 6.67699 21.0224C6.69265 20.9911 6.70048 20.9598 6.70048 20.9285C6.72397 20.905 6.77093 20.8111 6.72396 20.905C6.88834 20.6232 7.09968 20.4119 7.31103 20.177C7.12317 20.1457 6.92748 20.1144 6.72396 20.0831C7.00575 20.5527 7.40496 20.9754 7.73371 21.4216C8.09378 21.8756 8.44602 22.3296 8.79043 22.7836C9.49491 23.6759 10.1916 24.5683 10.8804 25.4606C11.0448 25.6955 11.35 25.5546 11.4909 25.3667C11.6553 25.1553 11.6318 24.8266 11.4675 24.6153Z" fill="#1499FC"/>
<path d="M22.249 26.4701C20.5112 24.8263 18.7814 23.1825 17.0593 21.5387C16.8714 21.3509 16.5896 21.3274 16.3783 21.4918C15.4233 22.2276 14.4762 22.9555 13.5369 23.6757C13.1612 23.9575 13.0203 24.4741 13.4195 24.8028C14.9537 26.1022 16.4957 27.3937 18.0456 28.6775C18.437 29.0062 18.8283 29.3271 19.2197 29.6403C19.525 29.8986 19.8537 30.1099 20.2529 30.1803C21.1453 30.3447 22.0141 29.8751 22.4838 29.1236C23.0004 28.3017 22.9534 27.1511 22.249 26.4701C21.9907 26.2353 21.6384 26.2822 21.4271 26.5171C21.2157 26.7519 21.0748 27.1981 21.3097 27.4329C21.3723 27.4955 21.4271 27.5581 21.474 27.6207C21.5054 27.6521 21.5288 27.6834 21.5445 27.7147C21.521 27.6912 21.521 27.6442 21.5445 27.7382C21.5758 27.8008 21.6071 27.8634 21.6384 27.926C21.6619 28.0199 21.6149 27.8556 21.6384 27.9495C21.6541 27.9965 21.6619 28.0434 21.6619 28.0904C21.6619 28.1374 21.6619 28.1765 21.6619 28.2078C21.6619 28.1843 21.6619 28.1139 21.6619 28.1843C21.6619 28.2313 21.6619 28.2704 21.6619 28.3017C21.6384 28.3252 21.6149 28.4426 21.6384 28.3722C21.6619 28.3017 21.5915 28.4661 21.5915 28.4896C21.6149 28.4661 21.6384 28.3722 21.5915 28.4896C21.5601 28.5366 21.5367 28.5835 21.521 28.6305C21.474 28.7009 21.5915 28.5601 21.521 28.6305C21.4897 28.6462 21.4584 28.6696 21.4271 28.7009C21.3566 28.7949 21.4975 28.654 21.4271 28.7244C21.4114 28.7401 21.3879 28.7557 21.3566 28.7714C21.3253 28.787 21.294 28.8105 21.2627 28.8418C21.3566 28.7714 21.2627 28.8184 21.2392 28.8418C21.2079 28.8575 21.1766 28.8653 21.1453 28.8653C21.1218 28.8888 20.9809 28.9123 21.0514 28.9123C21.0748 28.8888 20.9339 28.9123 20.9105 28.9123C20.8635 28.9279 20.8244 28.9358 20.7931 28.9358C20.8635 28.9358 20.793 28.9358 20.7696 28.9123C20.6913 28.9123 20.613 28.9045 20.5347 28.8888C20.5191 28.8731 20.4956 28.8653 20.4643 28.8653C20.4173 28.8497 20.4173 28.8497 20.4643 28.8653C20.4486 28.8497 20.433 28.8418 20.4173 28.8418C20.0651 28.6305 19.7598 28.3487 19.4545 28.0904C19.1258 27.8243 18.797 27.5503 18.4683 27.2685C17.7951 26.7049 17.1141 26.1413 16.4253 25.5778C15.6582 24.9359 14.8832 24.2862 14.1005 23.6287C14.0692 24.0044 14.03 24.3801 13.9831 24.7559C14.938 24.0201 15.8852 23.2921 16.8245 22.572C16.5896 22.5563 16.3626 22.5407 16.1435 22.525C17.8655 24.1688 19.5876 25.8048 21.3097 27.4329C21.568 27.6677 21.9202 27.6207 22.1316 27.3859C22.3194 27.1746 22.4838 26.7049 22.249 26.4701Z" fill="#1499FC"/>
<path d="M25.0424 13.5779C25.2537 13.5779 25.4416 13.3666 25.5825 13.2491C25.6921 13.1396 25.7938 13.03 25.8878 12.9204C26.1226 12.6386 26.287 12.3333 26.4279 12.0046C26.6392 11.4175 26.6862 10.76 26.5218 10.1729C26.2165 8.95182 25.1833 7.98902 23.9152 7.89509C23.1873 7.84813 22.4593 8.05947 21.8722 8.50564C21.567 8.74046 21.3791 9.18663 21.6374 9.51539C22.6393 10.8148 23.6413 12.1141 24.6432 13.4135C24.8545 13.6718 25.2537 13.5779 25.4416 13.3666C25.6764 13.1082 25.7704 12.7325 25.559 12.4507C24.5571 11.1513 23.5552 9.85198 22.5532 8.55261C22.475 8.89702 22.3967 9.2336 22.3184 9.56236C22.5767 9.3745 22.6941 9.30405 23.0464 9.21012C22.9524 9.2336 23.1168 9.21012 23.1403 9.21012C23.2029 9.19446 23.2734 9.18664 23.3516 9.18664C23.4299 9.17099 23.5082 9.16315 23.5865 9.16315C23.4925 9.16315 23.6804 9.18664 23.7039 9.18664C24.244 9.28057 24.6902 9.5154 25.0189 9.93809C25.2068 10.1729 25.3007 10.3373 25.3946 10.6426C25.4103 10.7052 25.4103 10.713 25.3946 10.666C25.4103 10.6974 25.4181 10.7287 25.4181 10.76C25.4338 10.8383 25.4494 10.9165 25.4651 10.9948C25.4651 11.0574 25.4651 11.1122 25.4651 11.1592C25.4651 11.0418 25.4651 11.2531 25.4651 11.2766C25.4494 11.3549 25.4338 11.4331 25.4181 11.5114C25.4025 11.574 25.4025 11.574 25.4181 11.5114C25.4181 11.5427 25.4103 11.574 25.3946 11.6054C25.379 11.6836 25.3555 11.7541 25.3242 11.8167C25.2537 11.9811 25.3946 11.6993 25.3007 11.8637C25.2694 11.9263 25.2302 11.9889 25.1833 12.0515C25.1676 12.0828 25.152 12.1141 25.1363 12.1455C25.1833 12.0828 25.1833 12.0828 25.1363 12.1455C25.0737 12.2081 25.0189 12.2629 24.9719 12.3098C24.9406 12.3411 24.9093 12.3725 24.878 12.4038C24.9406 12.3568 24.9406 12.3568 24.878 12.4038C24.9719 12.3725 25.0659 12.3333 25.1598 12.2864C24.831 12.2864 24.5493 12.6856 24.5258 12.9908C24.5023 13.3196 24.6902 13.5779 25.0424 13.5779Z" fill="#1499FC"/>
<path d="M28.9879 19.4488C28.8235 19.5427 28.7061 19.5897 28.4948 19.5427C28.3069 19.4957 28.1895 19.3548 28.0016 19.12C27.5476 18.5408 27.1015 17.9615 26.6631 17.3823C25.7551 16.2081 24.8471 15.0419 23.9391 13.8834C22.1231 11.5351 20.315 9.179 18.5146 6.81508C18.0606 6.23584 17.6144 5.65661 17.1761 5.07737C17.0665 4.93647 16.9648 4.8034 16.8708 4.67816C16.7769 4.58423 16.6125 4.37289 16.589 4.32592C16.5734 4.29461 16.5577 4.2633 16.5421 4.23198C16.5421 4.23198 16.4951 4.11457 16.5186 4.16154C16.5186 4.18502 16.5186 4.06761 16.4951 4.04413C16.5108 4.02847 16.5186 4.00499 16.5186 3.97368C16.4951 4.04413 16.5186 3.87975 16.5186 3.97368C16.5186 3.9502 16.5421 3.83279 16.5186 3.90324C16.4951 3.99717 16.6125 3.78582 16.5421 3.85627C16.4951 3.92672 16.683 3.73885 16.589 3.8093C16.6595 3.73885 16.7065 3.71538 16.8004 3.71538C16.8708 3.69189 16.9413 3.69189 17.0352 3.71538C17.0587 3.71538 17.1761 3.76234 17.1057 3.73885C17.1839 3.75451 17.2544 3.78583 17.317 3.83279C17.27 3.80931 17.364 3.90324 17.364 3.90324C17.4266 3.98151 17.4814 4.05195 17.5283 4.11457C17.6379 4.27112 17.7475 4.41985 17.8571 4.56075C18.0919 4.8582 18.3268 5.15564 18.5616 5.45309C20.3463 7.80135 22.1466 10.1418 23.9626 12.4744C24.8549 13.6485 25.7551 14.8148 26.6631 15.9733C27.1171 16.5682 27.5711 17.1553 28.0251 17.7345C28.2599 18.032 28.4948 18.3294 28.7296 18.6269C28.7766 18.6895 28.8235 18.7521 28.8705 18.8147C28.894 18.8617 28.9879 18.9791 28.9879 18.9556C29.0583 19.0965 29.0583 19.0965 29.0583 19.2374C29.0583 19.167 29.0583 19.2844 29.0583 19.3314C29.0583 19.2139 29.0349 19.3313 29.0349 19.3783C29.0583 19.2374 28.9879 19.4488 29.0114 19.4018C29.0584 19.3314 28.894 19.5192 28.9879 19.4488C28.7296 19.6366 28.5652 19.9654 28.6826 20.2941C28.8 20.5524 29.1758 20.6464 29.4106 20.4585C30.0211 19.9654 30.3264 19.1904 30.0681 18.439C29.9272 18.0868 29.6689 17.805 29.4341 17.4997C29.1836 17.1866 28.9331 16.8735 28.6826 16.5604C27.712 15.2923 26.7336 14.0243 25.7473 12.7562C23.7747 10.2044 21.81 7.65263 19.8531 5.10085C19.3678 4.45899 18.8747 3.81712 18.3737 3.17526C18.1624 2.89347 17.9041 2.65866 17.5753 2.54124C17.2466 2.44731 16.9178 2.47079 16.589 2.56472C15.8611 2.82303 15.3914 3.59796 15.4149 4.37289C15.4149 4.70165 15.5558 5.00692 15.7437 5.26523C15.9785 5.59399 16.2368 5.89925 16.4716 6.22801C18.4285 8.7798 20.3932 11.3238 22.3658 13.8599C23.352 15.1436 24.3383 16.4273 25.3246 17.711C25.8256 18.3372 26.3187 18.9713 26.804 19.6131C27.0388 19.9184 27.2502 20.2472 27.532 20.4585C27.7903 20.6699 28.119 20.7638 28.4713 20.7638C28.8 20.7873 29.1288 20.6464 29.4106 20.4585C29.6689 20.2707 29.8333 19.9184 29.6924 19.6131C29.575 19.3079 29.2227 19.2609 28.9879 19.4488Z" fill="#1499FC"/>
<path d="M16.3739 5.87559C16.3426 6.47048 16.2721 7.06539 16.1625 7.66028C16.1156 7.96556 16.0686 8.10645 15.9982 8.43521C15.9199 8.73265 15.8338 9.02228 15.7398 9.30407C15.6459 9.58586 15.5441 9.85983 15.4346 10.126C15.3876 10.2669 15.3328 10.4078 15.2702 10.5486C15.2389 10.6113 15.2076 10.6739 15.1763 10.7365C15.1606 10.7678 15.1449 10.807 15.1293 10.8539C14.8632 11.3862 14.5735 11.9028 14.2604 12.4038C14.0726 12.7012 13.8769 12.983 13.6734 13.2492C13.7203 13.1787 13.6029 13.3431 13.5794 13.3666C13.5325 13.4448 13.4777 13.5153 13.4151 13.5779C13.3055 13.7188 13.1881 13.8597 13.0628 14.0006C12.875 14.2119 12.6636 14.846 13.0628 15.0104C13.1802 15.0573 13.2742 15.1043 13.3211 15.1512C13.3994 15.2608 13.4777 15.3704 13.5559 15.48C13.7438 15.7148 13.9317 15.9575 14.1195 16.208C14.5109 16.7089 14.8945 17.2099 15.2702 17.7109C15.6616 18.1962 16.0451 18.6815 16.4208 19.1668C16.6087 19.4016 16.7966 19.6443 16.9844 19.8947C17.0784 20.02 17.1723 20.1452 17.2662 20.2705L17.3601 20.3879C17.3601 20.3879 17.4306 20.5523 17.4071 20.4818C17.501 20.7636 17.7594 21.0454 18.0881 20.881C20.8356 19.519 23.9353 19.0729 26.9411 19.6834C27.5047 19.8008 27.9743 19.0024 27.6221 18.5562C24.9607 15.1278 22.3072 11.6993 19.6614 8.27083C18.91 7.28455 18.1664 6.30611 17.4306 5.33549C17.2192 5.07718 16.7966 5.17111 16.6087 5.40594C16.3739 5.66425 16.2799 6.03997 16.4913 6.32177C19.1213 9.76589 21.7671 13.2022 24.4284 16.6307C25.1799 17.6013 25.9313 18.5719 26.6828 19.5425C26.9176 19.1668 27.1446 18.7832 27.3638 18.3919C24.1936 17.7578 20.8356 18.204 17.9237 19.6599C18.1429 19.7852 18.3621 19.9182 18.5812 20.0591C18.4169 19.4016 17.8768 18.885 17.4776 18.3449C17.0705 17.8283 16.6635 17.3038 16.2565 16.7716C15.8651 16.2549 15.4659 15.7383 15.0588 15.2217C14.8553 14.9556 14.6518 14.6894 14.4483 14.4233C14.2604 14.1885 14.0726 13.9536 13.7673 13.8362C13.783 14.1806 13.7908 14.5172 13.7908 14.846C15.5285 12.8499 16.7261 10.4782 17.2662 7.89511C17.4071 7.19063 17.501 6.48615 17.548 5.78167C17.5715 5.47639 17.3836 5.14763 17.0314 5.17111C16.7026 5.21808 16.3974 5.54683 16.3739 5.87559Z" fill="#1499FC"/>
<path d="M24.1498 12.7325C25.0892 13.9536 26.0285 15.1747 26.9678 16.3958C27.4374 16.9907 27.8992 17.5856 28.3532 18.1805C28.4785 18.3371 28.6037 18.4936 28.729 18.6502C28.7759 18.7128 28.8229 18.7754 28.8699 18.838C28.9403 18.932 28.9403 18.932 28.9873 18.9789C29.0029 19.0415 29.0186 19.0963 29.0342 19.1433C29.0108 19.0494 29.0577 19.2842 29.0342 19.2138C29.0342 19.1433 29.0342 19.2372 29.0342 19.2372C29.0342 19.2685 29.0342 19.3077 29.0342 19.3546C29.0577 19.2138 28.9873 19.4486 29.0108 19.3781C29.0577 19.3077 28.8934 19.4955 29.0108 19.4016C28.9873 19.4251 28.8933 19.4955 28.9638 19.4486C28.9325 19.4642 28.9012 19.4877 28.8699 19.519C28.8699 19.4955 28.9403 19.4721 28.8699 19.4955C28.8385 19.5112 28.8151 19.519 28.7994 19.519C28.7838 19.5347 28.7603 19.5425 28.729 19.5425C28.7759 19.5268 28.7838 19.5268 28.7524 19.5425C28.7055 19.5425 28.5881 19.5425 28.6116 19.5425C28.6585 19.5425 28.5646 19.5425 28.5881 19.5425C28.5411 19.5268 28.502 19.519 28.4707 19.519C28.3767 19.4955 28.4707 19.519 28.4002 19.4955C28.3532 19.4642 28.3141 19.4407 28.2828 19.4251C28.2828 19.4251 28.2123 19.3781 28.2593 19.4251C28.001 19.1903 27.8366 18.8615 27.6253 18.6032C27.3905 18.3449 26.8503 18.3449 26.5216 18.2979C25.1596 18.0866 23.7741 18.0866 22.4121 18.2979C20.8623 18.5093 19.3359 18.9789 17.9269 19.6834C18.1304 19.8087 18.3418 19.9339 18.561 20.0591C18.467 19.7069 18.2792 19.4486 18.0678 19.1668C17.8643 18.9007 17.6608 18.6345 17.4573 18.3684C17.0502 17.8518 16.6432 17.3351 16.2362 16.8185C15.8448 16.2862 15.4456 15.7618 15.0386 15.2452C14.835 14.979 14.6315 14.7129 14.428 14.4468C14.2401 14.2119 14.0523 13.9771 13.7705 13.8597C13.7705 14.1885 13.7705 14.5094 13.7705 14.8225C14.7803 13.6718 15.6021 12.4038 16.2362 11.0183C16.518 10.3608 16.7998 9.67978 16.9876 8.9753C17.105 8.52913 16.8702 7.96555 16.3066 8.01252C16.0718 8.036 15.8839 8.20038 15.7196 8.31779C15.5473 8.44303 15.3751 8.56827 15.2029 8.69351C12.4946 10.7287 9.77845 12.7482 7.05445 14.752C5.69246 15.754 4.33046 16.7559 2.96846 17.7578C2.29529 18.2588 1.61429 18.7597 0.925463 19.2607C0.768912 19.3703 0.612361 19.4877 0.45581 19.613C0.291431 19.7304 0.174017 19.8478 0.103569 20.0356C0.0566039 20.1765 0.0800923 20.3409 0.0800923 20.4818C0.0800923 20.6853 0.0800923 20.8889 0.0800923 21.0924C0.0800923 21.3976 0.0566039 21.656 0.338396 21.8673C1.65343 22.8771 3.0389 23.8398 4.4009 24.8261C5.76289 25.828 7.1249 26.8378 8.48689 27.8554C11.1952 29.8592 13.9036 31.8631 16.6119 33.8669C16.9407 34.1174 17.2772 34.3679 17.6217 34.6184C17.7626 34.7358 18.0209 34.6654 18.1618 34.5714C21.9894 31.73 25.8171 28.8886 29.6448 26.0707C31.5547 24.6617 33.4725 23.2606 35.398 21.8673C35.6094 21.7029 35.7973 21.5151 35.8207 21.2333C35.8442 21.0924 35.8207 20.9515 35.8207 20.8341C35.8207 20.6932 35.8207 20.5523 35.8207 20.4114C35.8207 20.2235 35.8677 19.9887 35.7738 19.8008C35.7033 19.6364 35.5389 19.5425 35.398 19.4486C35.2885 19.3547 35.1789 19.2685 35.0693 19.1903C34.8188 19.0181 34.5683 18.838 34.3178 18.6502C33.3472 17.9457 32.3766 17.2334 31.406 16.5132C29.2456 14.9164 27.0852 13.3118 24.9248 11.6993C24.6665 11.5114 24.2673 11.7697 24.1264 12.0046C23.9855 12.2864 23.9855 12.6151 24.2438 12.8265C27.0147 14.8773 29.7857 16.9281 32.5566 18.9789C33.3551 19.5582 34.1456 20.1296 34.9284 20.6932C34.8658 20.5366 34.7953 20.3722 34.7171 20.2C34.7171 20.5757 34.7171 20.9515 34.7171 21.3272C34.8266 21.1393 34.9362 20.9515 35.0458 20.7636C32.7915 22.4074 30.545 24.059 28.3063 25.7184C26.0519 27.3779 23.7976 29.0452 21.5433 30.7203C20.2752 31.6596 19.0071 32.5989 17.7391 33.5382C17.9269 33.5225 18.107 33.5069 18.2792 33.4912C16.0405 31.8318 13.794 30.1723 11.5396 28.5129C9.30096 26.8378 7.05444 25.1705 4.80011 23.5111C3.51639 22.5874 2.2405 21.6559 0.972432 20.7166C1.03505 20.8888 1.10551 21.0611 1.18378 21.2333C1.18378 20.8575 1.18378 20.4818 1.18378 20.1061C1.0742 20.294 0.964604 20.4818 0.855018 20.6697C3.65729 18.6189 6.45173 16.5602 9.23834 14.4937C10.616 13.4605 12.0015 12.4273 13.3948 11.394C14.0993 10.8774 14.8037 10.353 15.5082 9.82069C15.6648 9.7111 15.8213 9.59369 15.9779 9.46845C16.0718 9.40583 16.1579 9.34319 16.2362 9.28057C16.2597 9.25709 16.3771 9.18665 16.3771 9.18665C16.2362 9.171 16.1031 9.16316 15.9779 9.16316C15.9622 9.05357 15.9387 8.944 15.9074 8.83441C15.8839 8.85789 15.8605 9.04575 15.837 9.09272C15.8057 9.18665 15.7744 9.28058 15.743 9.37451C15.6804 9.54672 15.6178 9.72675 15.5552 9.91461C14.9916 11.3705 14.1227 12.8265 13.0895 14.0241C12.9016 14.2354 12.7138 14.8225 13.0895 14.9869C13.3478 15.0808 13.4183 15.2217 13.5826 15.4565C13.7705 15.6914 13.9584 15.934 14.1462 16.1845C14.5376 16.6854 14.929 17.1864 15.3203 17.6874C15.6961 18.1727 16.0718 18.658 16.4475 19.1433C16.6354 19.3781 16.8232 19.6208 17.0111 19.8713C17.1285 20.0356 17.4103 20.3174 17.4573 20.4818C17.5277 20.7401 17.7626 20.9984 18.0913 20.8575C20.8153 19.4955 23.9385 19.0259 26.9443 19.6599C26.866 19.613 26.7877 19.566 26.7094 19.519C26.9678 19.8478 27.2261 20.247 27.5783 20.5053C27.8836 20.7401 28.2828 20.8341 28.635 20.7636C29.5509 20.6227 30.2084 19.7773 30.1614 18.8615C30.1379 18.4388 29.9031 18.1101 29.6683 17.7813C29.3708 17.4056 29.0734 17.0299 28.7759 16.6541C28.181 15.887 27.594 15.1199 27.0147 14.3528C26.3416 13.5075 25.6762 12.6543 25.0187 11.7932C24.8308 11.5349 24.4316 11.6523 24.2438 11.8637C24.0324 12.0985 23.9385 12.4742 24.1498 12.7325Z" fill="#1499FC"/>
<path d="M15.1092 25.1079C15.6258 24.9201 16.1581 24.8027 16.706 24.7557C17.0348 24.7322 17.0348 24.1921 16.6825 24.2156C16.0955 24.2626 15.5084 24.38 14.9448 24.5913C14.6161 24.7087 14.7804 25.2488 15.1092 25.1079Z" fill="#1499FC"/>
<path d="M16.3071 26.2115C16.8394 26.0236 17.3873 25.9454 17.9509 25.9767C18.3031 25.9767 18.3031 25.4366 17.9509 25.4131C17.3403 25.4131 16.7298 25.4835 16.1427 25.6714C15.8139 25.7888 15.9548 26.3054 16.3071 26.2115Z" fill="#1499FC"/>
<path d="M17.4788 27.4096C18.105 27.2218 18.7391 27.1122 19.3809 27.0809C19.7332 27.0574 19.7332 26.5173 19.3809 26.5408C18.6764 26.5721 17.9954 26.6895 17.3379 26.893C16.9857 26.987 17.1501 27.5271 17.4788 27.4096Z" fill="#1499FC"/>
<path d="M18.8883 28.3723C19.4362 28.3097 19.9841 28.2471 20.5321 28.1844C20.8843 28.1375 20.8608 27.5974 20.5086 27.6209C19.9607 27.6835 19.4127 27.7461 18.8648 27.8087C18.536 27.8557 18.536 28.3958 18.8883 28.3723Z" fill="#1499FC"/>
<path d="M11.3054 23.4644C11.3367 24.0436 11.4385 24.615 11.6107 25.1786C11.7046 25.5074 12.2213 25.343 12.1273 25.0142C11.9708 24.5133 11.8768 23.9966 11.8455 23.4644C11.822 23.1121 11.2819 23.1121 11.3054 23.4644Z" fill="#1499FC"/>
<path d="M12.3395 23.2288C12.5117 23.7767 12.6369 24.3325 12.7152 24.8961C12.7622 25.2483 13.3023 25.2248 13.2553 24.8961C13.1614 24.2855 13.0283 23.6828 12.8561 23.0879C12.7622 22.7357 12.2456 22.9001 12.3395 23.2288Z" fill="#1499FC"/>
<path d="M13.2763 22.5718C13.3389 23.1354 13.425 23.699 13.5346 24.2626C13.6051 24.5913 14.1217 24.4504 14.0513 24.0982C13.9573 23.5972 13.879 23.0884 13.8164 22.5718C13.7695 22.2196 13.2294 22.2196 13.2763 22.5718Z" fill="#1499FC"/>
<path d="M14.1198 21.9849C14.198 22.5015 14.2685 23.0103 14.3311 23.5113C14.3546 23.6522 14.4485 23.7696 14.6129 23.7696C14.7538 23.7696 14.8947 23.6287 14.8947 23.4878C14.8164 22.9868 14.7381 22.4859 14.6599 21.9849C14.6364 21.8205 14.5424 21.7031 14.3781 21.7031C14.2372 21.7031 14.0963 21.844 14.1198 21.9849Z" fill="#1499FC"/>
<path d="M15.0151 21.2333C14.9446 21.6794 15.0151 22.0552 15.2029 22.4544C15.3438 22.7831 15.8135 22.4779 15.6726 22.1726C15.5552 21.9143 15.5082 21.6325 15.5317 21.3742C15.5552 21.2333 15.4847 21.0689 15.3438 21.0454C15.2029 20.9985 15.0386 21.0924 15.0151 21.2333Z" fill="#1499FC"/>
<path d="M15.6676 20.8344C15.7615 21.2102 15.8398 21.5937 15.9024 21.9851C15.9259 22.3373 16.4895 22.3373 16.4426 21.9851C16.3799 21.5311 16.2938 21.0927 16.1842 20.67C16.0903 20.3413 15.5737 20.4822 15.6676 20.8344Z" fill="#1499FC"/>
<path d="M16.4918 20.4119C16.5858 20.772 16.6406 21.1399 16.6562 21.5156C16.6797 21.8679 17.2198 21.8679 17.2198 21.5156C17.1885 21.0929 17.118 20.6702 17.0085 20.2476C16.9145 19.9188 16.3979 20.0832 16.4918 20.4119Z" fill="#1499FC"/>
<path d="M18.9108 19.7778C19.0517 19.2143 19.3804 18.7211 19.8266 18.3454C20.0849 18.1341 19.6857 17.7583 19.4274 17.9697C18.9108 18.4158 18.5586 19.0029 18.3942 19.6369C18.3002 19.9892 18.8169 20.1066 18.9108 19.7778Z" fill="#1499FC"/>
<path d="M20.7229 19.1431C20.8638 18.603 21.1925 18.1569 21.6622 17.8986C21.9674 17.7342 21.6857 17.2645 21.3804 17.4289C20.7933 17.7577 20.3471 18.3447 20.2062 19.0023C20.1123 19.3545 20.6524 19.4954 20.7229 19.1431Z" fill="#1499FC"/>
<path d="M22.3902 18.7915C22.6251 18.2748 23.0008 17.8756 23.4939 17.6173C23.7992 17.4764 23.5174 17.0068 23.2121 17.1712C22.6486 17.453 22.1789 17.9461 21.9206 18.5332C21.7797 18.8384 22.2494 19.1202 22.3902 18.7915Z" fill="#1499FC"/>
<path d="M23.9845 18.7443C24.188 18.3843 24.4619 18.0947 24.8064 17.8755C25.0882 17.6876 24.8064 17.218 24.5011 17.4058C24.1019 17.6876 23.7496 18.0399 23.4913 18.486C23.327 18.7913 23.7966 19.0496 23.9845 18.7443Z" fill="#1499FC"/>
<path d="M16.0961 14.1185C16.4249 13.8133 16.6127 13.4141 16.8475 13.0148C17.098 12.5922 17.3485 12.1616 17.599 11.7233C17.7868 11.418 17.3172 11.1597 17.1293 11.465C16.8945 11.872 16.6518 12.2791 16.4014 12.6861C16.19 13.0618 16.0022 13.461 15.6969 13.7428C15.4386 14.0011 15.8378 14.3768 16.0961 14.1185Z" fill="#1499FC"/>
<path d="M17.8309 11.0421C18.1831 11.0421 18.1597 10.502 17.8074 10.502C17.4552 10.502 17.4787 11.0421 17.8309 11.0421Z" fill="#1499FC"/>
<path d="M1.7928 42.5089C2.13721 42.368 2.46597 42.2114 2.77908 42.0392C3.10783 41.8983 2.80256 41.4287 2.49728 41.593C2.21549 41.7339 1.92587 41.867 1.62842 41.9923C1.29966 42.1332 1.46404 42.6498 1.7928 42.5089Z" fill="#1499FC"/>
<path d="M3.25008 42.7439C3.57884 42.4778 3.95456 42.2821 4.37725 42.1569C4.706 42.0629 4.54162 41.5463 4.21286 41.6403C3.76669 41.7812 3.32052 41.9925 2.96828 42.2743C2.68649 42.4856 2.96829 42.9553 3.25008 42.7439Z" fill="#1499FC"/>
<path d="M5.05923 42.8614C5.43496 42.5092 5.85765 42.2743 6.35078 42.1334C6.67954 42.0395 6.51516 41.5229 6.1864 41.6168C5.62282 41.7812 5.1062 42.0865 4.66003 42.4857C4.4252 42.744 4.80092 43.1197 5.05923 42.8614Z" fill="#1499FC"/>
<path d="M6.58515 43.0955C7.21136 42.6885 7.8767 42.3519 8.58118 42.0858C8.90994 41.9684 8.74555 41.4283 8.4168 41.5692C7.66535 41.851 6.96087 42.2032 6.30336 42.6259C5.99808 42.8138 6.27988 43.2834 6.58515 43.0955Z" fill="#1499FC"/>
<path d="M8.60164 43.3075C9.16523 42.8535 9.76795 42.4543 10.4098 42.1099C10.7151 41.9455 10.4333 41.4993 10.128 41.6637C9.48616 41.9925 8.88343 42.3838 8.31985 42.8378C8.03805 43.0492 8.31985 43.5188 8.60164 43.3075Z" fill="#1499FC"/>
<path d="M10.8087 43.1196C11.3253 42.7595 11.8732 42.4621 12.4525 42.2272C12.7812 42.1098 12.6403 41.5932 12.3116 41.7106C11.6697 41.9454 11.0748 42.2585 10.5269 42.6499C10.2451 42.8612 10.5269 43.3309 10.8087 43.1196Z" fill="#1499FC"/>
<path d="M13.2062 43.2369C13.7855 42.8612 14.3882 42.5325 15.0144 42.2507C15.3197 42.0863 15.0379 41.6401 14.7326 41.781C14.1064 42.0785 13.5037 42.4072 12.9245 42.7673C12.6192 42.9551 12.901 43.4013 13.2062 43.2369Z" fill="#1499FC"/>
<path d="M15.2266 43.3542C15.8998 42.8845 16.6043 42.454 17.3401 42.0626C17.6454 41.9217 17.3636 41.4521 17.0348 41.6165C16.3147 41.9922 15.618 42.4149 14.9448 42.8845C14.6631 43.0959 14.9448 43.5655 15.2266 43.3542Z" fill="#1499FC"/>
<path d="M17.668 43.2606C18.3099 42.8066 18.9909 42.4465 19.711 42.1803C20.0398 42.0629 19.8754 41.5463 19.5467 41.6637C18.7952 41.9455 18.0673 42.3212 17.3863 42.7909C17.1045 43.0022 17.3862 43.4719 17.668 43.2606Z" fill="#1499FC"/>
<path d="M20.2492 43.1434C20.8754 42.752 21.5094 42.3606 22.1513 41.9692C22.4331 41.7814 22.1513 41.3117 21.8695 41.4996C21.2277 41.891 20.5936 42.2823 19.9674 42.6737C19.6621 42.8616 19.9439 43.3312 20.2492 43.1434Z" fill="#1499FC"/>
<path d="M22.3633 43.2371C23.0835 42.7362 23.8193 42.2744 24.5707 41.8517C24.876 41.6873 24.5942 41.2177 24.2889 41.382C23.5218 41.8047 22.786 42.2665 22.0816 42.7675C21.7998 42.9788 22.0816 43.4485 22.3633 43.2371Z" fill="#1499FC"/>
<path d="M24.3823 43.2605C25.0712 42.7752 25.7991 42.3368 26.5662 41.9454C26.8715 41.8045 26.5897 41.3349 26.2844 41.4993C25.5173 41.875 24.7816 42.3055 24.0771 42.7908C23.7953 42.9787 24.0771 43.4484 24.3823 43.2605Z" fill="#1499FC"/>
<path d="M26.9415 43.0487C27.5051 42.6104 28.0843 42.2034 28.6792 41.8276C28.961 41.6398 28.6792 41.1701 28.3974 41.358C27.7869 41.7337 27.2076 42.1408 26.6597 42.5791C26.3779 42.7904 26.6597 43.2601 26.9415 43.0487Z" fill="#1499FC"/>
<path d="M28.6823 43.1899C29.512 42.6732 30.373 42.2114 31.2654 41.8044C31.5706 41.64 31.2889 41.1938 30.9836 41.3347C30.0912 41.7574 29.2302 42.2192 28.4005 42.7202C28.0952 42.9081 28.4005 43.3777 28.6823 43.1899Z" fill="#1499FC"/>
<path d="M31.1242 42.9316C31.86 42.5246 32.5958 42.1097 33.3316 41.687C33.6369 41.4991 33.3551 41.0295 33.0498 41.2174C32.314 41.64 31.5782 42.0549 30.8424 42.4619C30.5371 42.6498 30.8189 43.096 31.1242 42.9316Z" fill="#1499FC"/>
<path d="M33.588 42.8611C33.9481 42.6419 34.3081 42.4306 34.6682 42.227C34.9735 42.0392 34.6917 41.5695 34.3864 41.7574C34.0263 41.9609 33.6584 42.1722 33.2827 42.3914C32.9774 42.5558 33.2827 43.0254 33.588 42.8611Z" fill="#1499FC"/>
<path d="M15.1798 34.9235C15.7591 35.1897 16.307 35.5028 16.8236 35.8628C17.0898 36.035 17.3481 36.2151 17.5986 36.4029C17.8099 36.5908 18.0682 36.7787 18.35 36.6847C18.6318 36.6378 18.7962 36.3795 18.984 36.2151C19.2032 35.9959 19.438 35.7845 19.6885 35.581C20.1738 35.221 20.6826 34.9079 21.2149 34.6417C21.5437 34.4773 21.2384 34.0077 20.9331 34.1721C20.4321 34.4226 19.9625 34.7122 19.5241 35.0409C19.305 35.2132 19.0936 35.3853 18.8901 35.5576C18.7805 35.6515 18.6788 35.7454 18.5848 35.8393C18.4909 35.9333 18.397 36.0507 18.303 36.1211C18.1152 36.2386 17.8334 35.9098 17.6925 35.8159C17.4577 35.628 17.215 35.4558 16.9645 35.2993C16.4792 34.9705 15.9704 34.6809 15.4381 34.4304C15.1329 34.2895 14.8746 34.7592 15.1798 34.9235Z" fill="#1499FC"/>
</svg>
