<svg width="44" height="44" viewBox="0 0 44 44" fill="none" xmlns="http://www.w3.org/2000/svg">
<path d="M41.7382 12.5743V35.4723C41.7382 36.6696 40.9137 37.6424 39.8641 37.9417H26.2272V39.8125H17.8344V37.9417H4.27198C3.22251 37.6424 2.39844 36.6696 2.39844 35.4723V12.5743C2.39844 11.1525 3.52258 10.03 4.94619 10.03H39.1152C40.5389 10.03 41.7382 11.1525 41.7382 12.5743Z" fill="#464D58"/>
<path d="M39.3378 0.598804C40.6208 0.598804 41.6608 1.63745 41.6608 2.91854C41.6608 4.19964 40.6208 5.23828 39.3378 5.23828C38.0549 5.23828 37.0156 4.19964 37.0156 2.91854C37.0156 1.63745 38.0549 0.598804 39.3378 0.598804Z" fill="#70F2A4"/>
<path d="M4.72283 1.49649C6.2954 1.49649 7.56969 2.76936 7.56969 4.34004C7.56969 5.90998 6.2954 7.18359 4.72283 7.18359C3.14988 7.18359 1.875 5.90998 1.875 4.34004C1.875 2.76936 3.14988 1.49649 4.72283 1.49649Z" fill="#70F2A4"/>
<path d="M6.14453 31.4299H37.9911V34.2734H6.14453V31.4299Z" fill="#D3DCFB"/>
<path d="M43.6097 38.0127C43.6097 41.0808 41.0616 43.625 37.9898 43.625H6.14317C3.07119 43.625 0.523438 41.0808 0.523438 38.0127C3.97015 38.0127 14.311 38.0127 17.8326 38.0127V39.8835H26.3003V38.0127C29.8217 38.0127 40.0875 38.0127 43.6097 38.0127Z" fill="#464D58"/>
<path d="M37.9911 13.6949V31.4297H6.14453V13.6949C6.14453 13.6949 37.9163 13.6949 37.9911 13.6949Z" fill="#E9EFFF"/>
<path d="M31.8473 26.2656H12.2148C12.2148 25.667 12.2148 5.98662 12.2148 4.26552H31.9222C31.8473 5.46281 31.8473 25.1432 31.8473 26.2656Z" fill="#BEC8F7"/>
<path d="M22.0323 8.08473C26.1532 8.08473 29.525 11.4521 29.525 15.5678C29.525 19.6834 26.1532 23.0508 22.0323 23.0508C17.9109 23.0508 14.5391 19.6834 14.5391 15.5678C14.5391 11.4521 17.9109 8.08473 22.0323 8.08473Z" fill="#2A428C"/>
<path d="M22.3222 13.0002C23.6052 13.0002 24.6451 14.0388 24.6451 15.3199C24.6451 16.601 23.6052 17.6396 22.3222 17.6396C21.0392 17.6396 20 16.601 20 15.3199C20 14.0388 21.0392 13.0002 22.3222 13.0002Z" fill="#70F2A4"/>
<path d="M24.5881 16.2585C24.9607 16.2585 25.2622 16.5601 25.2622 16.932C25.2622 17.3039 24.9607 17.6055 24.5881 17.6055C24.2155 17.6055 23.9141 17.3039 23.9141 16.932C23.9141 16.5601 24.2155 16.2585 24.5881 16.2585Z" fill="#081120"/>
<path d="M24.5881 12.4343C24.9607 12.4343 25.2622 12.7359 25.2622 13.1078C25.2622 13.4797 24.9607 13.7812 24.5881 13.7812C24.2155 13.7812 23.9141 13.4797 23.9141 13.1078C23.9141 12.7359 24.2155 12.4343 24.5881 12.4343Z" fill="#081120"/>
<path d="M20.76 19.1296C21.1326 19.1296 21.4341 19.4312 21.4341 19.8031C21.4341 20.175 21.1326 20.4766 20.76 20.4766C20.3874 20.4766 20.0859 20.175 20.0859 19.8031C20.0859 19.4312 20.3874 19.1296 20.76 19.1296Z" fill="#081120"/>
<path d="M20.5326 13.695C21.0575 13.695 21.5068 14.144 21.5068 14.6678C21.5068 15.1916 21.0575 15.6406 20.5326 15.6406C20.008 15.6406 19.5586 15.1916 19.5586 14.6678C19.5586 14.144 20.008 13.695 20.5326 13.695Z" fill="#FFDD40"/>
<path d="M41.4365 7.11009C41.8091 7.11009 42.1106 7.41165 42.1106 7.78356C42.1106 8.15547 41.8091 8.45703 41.4365 8.45703C41.0639 8.45703 40.7617 8.15547 40.7617 7.78356C40.7617 7.41165 41.0639 7.11009 41.4365 7.11009Z" fill="#081120"/>
<path d="M33.9436 1.04759C34.3162 1.04759 34.6177 1.34915 34.6177 1.72106C34.6177 2.09297 34.3162 2.39453 33.9436 2.39453C33.571 2.39453 33.2695 2.09297 33.2695 1.72106C33.2695 1.34915 33.571 1.04759 33.9436 1.04759Z" fill="#081120"/>
<path d="M14.7604 0.153055C15.1328 0.153055 15.4349 0.454621 15.4349 0.826527C15.4349 1.19843 15.1328 1.5 14.7604 1.5C14.3877 1.5 14.0859 1.19843 14.0859 0.826527C14.0859 0.454621 14.3877 0.153055 14.7604 0.153055Z" fill="#081120"/>
<path d="M9.14319 6.21165C9.51585 6.21165 9.81799 6.51321 9.81799 6.88512C9.81799 7.25703 9.51585 7.55859 9.14319 7.55859C8.77082 7.55859 8.46875 7.25703 8.46875 6.88512C8.46875 6.51321 8.77082 6.21165 9.14319 6.21165Z" fill="#081120"/>
<path d="M1.19795 8.53196C1.57032 8.53196 1.87209 8.83353 1.87209 9.20543C1.87209 9.57734 1.57032 9.87891 1.19795 9.87891C0.82551 9.87891 0.523438 9.57734 0.523438 9.20543C0.523438 8.83353 0.82551 8.53196 1.19795 8.53196Z" fill="#081120"/>
<path d="M37.9909 43.102H6.14431C3.447 43.102 1.27399 41.0068 1.04888 38.3877H17.3844V39.8095C17.3844 40.034 17.6093 40.2585 17.8338 40.2585H26.3014C26.5258 40.2585 26.751 40.034 26.751 39.8095V38.3877H43.0864C42.8613 41.0816 40.6131 43.102 37.9909 43.102ZM2.84753 35.4693V12.5713C2.84753 11.374 3.82174 10.476 4.94559 10.476H11.7643V13.1699H6.14431C5.9198 13.1699 5.69499 13.3944 5.69499 13.6189V34.1972C5.69499 34.4217 5.9198 34.6462 6.14431 34.6462H37.9909C38.2154 34.6462 38.4406 34.4217 38.4406 34.1972V13.6937C38.4406 13.4692 38.2154 13.2448 37.9909 13.2448H32.371V10.476H39.1894C40.3879 10.476 41.2872 11.4488 41.2872 12.5713V35.4693C41.2872 36.3673 40.6879 37.1904 39.7887 37.4898H26.3014C26.0762 37.4898 25.8518 37.7143 25.8518 37.9387V39.3605H18.3584V37.9387C18.3584 37.7143 18.1338 37.4898 17.9087 37.4898H4.421C3.44701 37.2653 2.84753 36.4421 2.84753 35.4693ZM12.6634 4.78893H31.3969V25.8162H12.6634V4.78893ZM37.4665 30.9795H6.59402V14.1427H11.7643V26.3401C11.7643 26.5645 11.9895 26.789 12.214 26.789H31.9214C32.1458 26.789 32.371 26.5645 32.371 26.3401V14.1427H37.5413V30.9795H37.4665ZM6.59402 31.8775H37.5413V33.7483H6.59402V31.8775ZM43.6109 37.4898H41.4376C41.8872 36.966 42.1864 36.2177 42.1864 35.4693V12.5713C42.1864 10.925 40.8376 9.50324 39.1146 9.50324H32.2962V4.26512C32.2962 4.04063 32.071 3.81614 31.8465 3.81614H12.214C11.9895 3.81614 11.7643 4.04063 11.7643 4.26512V9.50324H4.94559C3.29686 9.50324 1.87324 10.8502 1.87324 12.5713V35.4693C1.87324 36.2177 2.17331 36.966 2.62264 37.4898H0.449626C0.224813 37.4898 0 37.7143 0 37.9387C0 41.3061 2.69761 44 6.06973 44H37.9161C41.2872 44 43.9849 41.3061 43.9849 37.9387C44.0598 37.7143 43.8353 37.4898 43.6109 37.4898Z" fill="#081120"/>
<path d="M20.533 14.1443C20.8328 14.1443 21.0579 14.3687 21.0579 14.6681C21.0579 14.9674 20.8328 15.1919 20.533 15.1919C20.2335 15.1919 20.0084 14.9674 20.0084 14.6681C20.0084 14.3687 20.2335 14.1443 20.533 14.1443ZM20.533 16.0898C21.3574 16.0898 21.9569 15.4164 21.9569 14.6681C21.9569 13.9198 21.2824 13.2463 20.533 13.2463C19.7086 13.2463 19.1094 13.9198 19.1094 14.6681C19.1094 15.4164 19.7086 16.0898 20.533 16.0898Z" fill="#081120"/>
<path d="M22.0288 8.53394C25.9252 8.53394 29.0726 11.6768 29.0726 15.568C29.0726 19.4592 25.9252 22.602 22.0288 22.602C18.1325 22.602 14.985 19.4592 14.985 15.568C14.985 11.6768 18.1325 8.53394 22.0288 8.53394ZM22.0288 23.5C26.4497 23.5 29.9711 19.9081 29.9711 15.568C29.9711 11.2278 26.3749 7.63598 22.0288 7.63598C17.6828 7.63598 14.0859 11.2278 14.0859 15.568C14.0859 19.9081 17.6079 23.5 22.0288 23.5Z" fill="#081120"/>
<path d="M39.3396 1.04802C40.3885 1.04802 41.2129 1.87116 41.2129 2.91878C41.2129 3.9664 40.3885 4.78954 39.3396 4.78954C38.2907 4.78954 37.467 3.9664 37.467 2.91878C37.467 1.87116 38.2907 1.04802 39.3396 1.04802ZM39.3396 5.6875C40.9136 5.6875 42.187 4.41539 42.187 2.84395C42.187 1.27251 40.9136 0.000398636 39.3396 0.000398636C37.7663 0.000398636 36.4922 1.27251 36.4922 2.84395C36.4922 4.41539 37.8411 5.6875 39.3396 5.6875Z" fill="#081120"/>
<path d="M4.72293 1.94632C5.99663 1.94632 7.04551 2.99395 7.04551 4.26606C7.04551 5.53818 5.99663 6.5858 4.72293 6.5858C3.44887 6.5858 2.39969 5.53818 2.39969 4.26606C2.39969 2.99395 3.44887 1.94632 4.72293 1.94632ZM4.72293 7.55859C6.52122 7.55859 8.01972 6.06199 8.01972 4.26606C8.01972 2.47013 6.52122 0.973528 4.72293 0.973528C2.92428 0.973528 1.42578 2.47013 1.42578 4.26606C1.42578 6.06199 2.92428 7.55859 4.72293 7.55859Z" fill="#081120"/>
</svg>
