<svg width="33" height="32" viewBox="0 0 33 32" fill="none" xmlns="http://www.w3.org/2000/svg">
<path d="M16.0339 30.5833C7.96946 30.5833 1.43011 24.044 1.43011 15.9796C1.43011 7.91453 7.96946 1.3757 16.0339 1.3757C24.0984 1.3757 30.6378 7.91453 30.6378 15.9796C30.6378 24.044 24.0984 30.5833 16.0339 30.5833ZM27.3139 4.69965C21.0471 -1.56655 10.9662 -1.56655 4.70005 4.69965C-1.56668 10.9664 -1.56668 21.0467 4.70005 27.3133C7.69683 30.3108 11.7291 32 15.9794 32H31.2916C31.6733 32 31.9999 31.6727 31.9999 31.2911C31.9999 30.91 31.6733 30.5833 31.2916 30.5833H22.5728C24.3165 29.8195 25.9513 28.6754 27.3139 27.3133C33.5801 21.0467 33.5801 10.9119 27.3139 4.69965Z" fill="#6F00FF"/>
<path d="M16.5329 27.5952C10.3758 27.5952 5.41661 22.5815 5.41661 16.4788C5.41661 10.3757 10.4298 5.36251 16.5329 5.36251C22.6361 5.36251 27.6493 10.3757 27.6493 16.4788C27.6493 22.5815 22.6901 27.5952 16.5329 27.5952ZM16.5329 3.99989C9.61296 3.99989 4 9.61286 4 16.4788C4 23.3988 9.61296 29.0117 16.5329 29.0117C23.4529 29.0117 29.0659 23.3988 29.0659 16.4788C29.0659 9.61286 23.4529 3.99989 16.5329 3.99989Z" fill="#6F00FF"/>
<path d="M16.0345 17.3423C15.2717 17.3423 14.6724 16.743 14.6724 15.9802C14.6724 15.2173 15.2717 14.6176 16.0345 14.6176C16.7973 14.6176 17.3966 15.2713 17.3966 15.9802C17.3966 16.743 16.7973 17.3423 16.0345 17.3423ZM16.0345 13.2009C14.5089 13.2009 13.2559 14.4545 13.2559 15.9802C13.2559 17.5057 14.5089 18.7588 16.0345 18.7588C17.5602 18.7588 18.8132 17.5057 18.8132 15.9802C18.8132 14.4545 17.5602 13.2009 16.0345 13.2009Z" fill="#6F00FF"/>
<path d="M16.0329 6.9343C17.0138 6.9343 17.8857 7.64205 18.1038 8.62352C16.7957 8.24184 15.3791 8.24184 14.017 8.62352C14.1801 7.64205 15.0525 6.9343 16.0329 6.9343ZM14.1801 9.9856C15.324 9.60392 16.6321 9.60392 17.8857 9.9856C17.5045 10.6939 14.9429 11.5113 14.1801 9.9856ZM16.0329 12.4922C17.7766 12.4922 19.1932 11.1841 19.4659 9.71297C19.9021 7.53354 18.2123 5.57167 16.0329 5.57167C13.8534 5.57167 12.2187 7.58807 12.6004 9.71297C12.872 11.1841 14.2891 12.4922 16.0329 12.4922Z" fill="#6F00FF"/>
<path d="M16.0344 25.0258C15.054 25.0258 14.1816 24.3168 13.964 23.3364C15.3256 23.7182 16.7427 23.7182 18.0502 23.3364C17.8872 24.3168 17.0153 25.0258 16.0344 25.0258ZM17.8872 21.9739C16.6882 22.3556 15.3806 22.3556 14.1816 21.9739C14.5633 21.3202 17.0698 20.5028 17.8872 21.9739ZM16.0344 19.4678C14.1276 19.4678 12.5469 21.0475 12.5469 22.9554C12.5469 24.8622 14.1276 26.4424 16.0344 26.4424C18.2138 26.4424 19.8485 24.4259 19.4674 22.301C19.1948 20.7755 17.7781 19.4678 16.0344 19.4678Z" fill="#6F00FF"/>
<path d="M23.3902 18.0504C23.7718 16.7429 23.7718 15.3263 23.3902 13.9637C24.3166 14.1818 25.0794 14.9986 25.0794 16.0341C25.0794 16.9605 24.3711 17.8323 23.3902 18.0504ZM22.0281 14.1273C22.4098 15.3263 22.4098 16.6339 22.0281 17.8323C21.3743 17.5056 20.557 14.9446 22.0281 14.1273ZM22.3002 12.6016C20.7205 12.9282 19.5215 14.3448 19.5215 16.0341C19.5215 17.942 21.1017 19.5215 23.009 19.5215C24.9158 19.5215 26.4965 17.942 26.4965 16.0341C26.4415 13.8007 24.4801 12.1654 22.3002 12.6016Z" fill="#6F00FF"/>
<path d="M6.98903 15.98C6.98903 14.9985 7.69733 14.1272 8.67826 13.9091C8.29658 15.2172 8.29658 16.6878 8.67826 17.9958C7.69733 17.8322 6.98903 16.9604 6.98903 15.98ZM10.0403 17.8322C9.65865 16.6338 9.65865 15.3262 10.0403 14.1272C10.6941 14.5083 11.5665 17.0694 10.0403 17.8322ZM12.5469 15.98C12.5469 14.2357 11.2394 12.8191 9.76824 12.5465C7.6428 12.1653 5.62695 13.8006 5.62695 15.98C5.62695 18.1593 7.6428 19.8487 9.82223 19.4124C11.3479 19.0857 12.5469 17.6692 12.5469 15.98Z" fill="#6F00FF"/>
<path d="M1.81158 29.1668C1.59402 29.1668 1.48497 29.0034 1.48497 28.8398C1.48497 28.6761 1.648 28.5131 1.81158 28.5131C1.97516 28.5131 2.13874 28.6761 2.13874 28.8398C2.13874 29.0578 1.97516 29.1668 1.81158 29.1668ZM1.81158 27.0966C0.831189 27.0966 0.0683594 27.8594 0.0683594 28.8398C0.0683594 29.8202 0.831189 30.584 1.81158 30.584C2.79251 30.584 3.55536 29.8202 3.55536 28.8398C3.50083 27.8594 2.73799 27.0966 1.81158 27.0966Z" fill="#6F00FF"/>
<path d="M29.9298 1.3766C30.3114 1.3766 30.6386 1.70321 30.6386 2.0849C30.6386 2.46658 30.3114 2.7932 29.9298 2.7932C29.5486 2.7932 29.2214 2.46658 29.2214 2.0849C29.2214 1.70321 29.5486 1.3766 29.9298 1.3766ZM29.9298 4.15527C31.0743 4.15527 32.0007 3.22941 32.0007 2.0849C32.0007 0.940387 31.0743 0.0145226 29.9298 0.0145226C28.7858 0.0145226 27.8594 0.940387 27.8594 2.0849C27.8594 3.22941 28.7858 4.15527 29.9298 4.15527Z" fill="#6F00FF"/>
<path d="M29.2207 27.8039C29.2207 28.1856 29.5479 28.5127 29.929 28.5127C30.3107 28.5127 30.6378 28.1856 30.6378 27.8039C30.6378 27.4226 30.3107 27.0962 29.929 27.0962C29.5479 27.0962 29.2207 27.4226 29.2207 27.8039Z" fill="#6F00FF"/>
<path d="M5.6268 29.1668C5.24512 29.1668 4.91797 29.4935 4.91797 29.8752C4.91797 30.2563 5.24512 30.584 5.6268 30.584C6.00795 30.584 6.33511 30.2563 6.33511 29.8752C6.33511 29.4935 6.00795 29.1668 5.6268 29.1668Z" fill="#6F00FF"/>
<path d="M0.776139 5.57227C1.15782 5.57227 1.48497 5.24511 1.48497 4.86396C1.48497 4.48282 1.15782 4.15512 0.776139 4.15512C0.394996 4.15512 0.0683594 4.48282 0.0683594 4.86396C0.0683594 5.24511 0.34047 5.57227 0.776139 5.57227Z" fill="#6F00FF"/>
<path d="M4.91676 2.08496C5.29845 2.08496 5.6256 1.75834 5.6256 1.37666C5.6256 0.995517 5.29845 0.722886 4.91676 0.722886C4.53562 0.722886 4.20898 1.0495 4.20898 1.43173C4.20898 1.81287 4.53562 2.08496 4.91676 2.08496Z" fill="#6F00FF"/>
<path d="M25.7884 2.08496C26.1701 2.08496 26.4972 1.75834 26.4972 1.37666C26.4972 0.995517 26.1701 0.722886 25.7884 0.722886C25.4072 0.722886 25.0801 1.0495 25.0801 1.43173C25.0801 1.75834 25.4072 2.08496 25.7884 2.08496Z" fill="#6F00FF"/>
</svg>
