<svg width="28" height="28" viewBox="0 0 28 28" fill="none" xmlns="http://www.w3.org/2000/svg">
<path d="M17.8058 6.97827C18.9536 8.14116 19.7239 9.62121 20.0108 11.2372C20.2675 12.7776 20.041 14.3785 19.3765 15.8132C18.6969 17.2631 17.5038 18.5317 16.0842 19.317C14.6796 20.1023 13.0637 20.4346 11.4628 20.2836C9.86193 20.1174 8.30637 19.468 7.06797 18.4109C5.82957 17.3386 4.92342 15.9038 4.54585 14.3181C4.34952 13.5478 4.27401 12.7776 4.31932 11.9772C4.33442 11.9168 4.33442 11.8262 4.34952 11.7355C4.35959 11.6248 4.36966 11.5191 4.37973 11.4184C4.40993 11.217 4.44517 11.0207 4.48544 10.8294C4.57605 10.4216 4.66667 10.1045 4.8177 9.72693C5.39159 8.20158 6.44877 6.85746 7.83819 5.95131C9.16721 5.07536 10.7681 4.60717 12.3689 4.65248C14 4.69779 15.5707 5.22639 16.8846 6.17785C17.2068 6.41949 17.5139 6.68628 17.8058 6.97827C18.0777 7.25011 18.3948 6.69132 18.1532 6.44968C16.9299 5.22638 15.329 4.39574 13.6073 4.10879C11.9461 3.83695 10.2093 4.07859 8.68394 4.78841C7.08307 5.52843 5.72384 6.79703 4.863 8.35259C4.03237 9.86284 3.66991 11.5996 3.82094 13.3062C3.98706 15.0581 4.68178 16.7194 5.82956 18.0484C6.96225 19.3774 8.51781 20.3289 10.2093 20.7366C11.8555 21.1444 13.6074 21.0236 15.178 20.4195C16.8242 19.8003 18.2589 18.6374 19.2255 17.1573C20.1769 15.7075 20.6753 13.9858 20.63 12.249C20.5847 10.5274 20.0108 8.83587 18.9989 7.43134C18.7372 7.08902 18.4552 6.7618 18.1532 6.44968C17.8813 6.17783 17.5642 6.73663 17.8058 6.97827Z" fill="white"/>
<path d="M14.3021 8.15661C15.0572 8.15661 15.8174 8.15661 16.5826 8.15661C16.6933 8.15661 16.799 8.15661 16.8997 8.15661C16.8091 8.05592 16.7134 7.95524 16.6128 7.85456C16.6128 8.82112 16.6128 9.78767 16.6128 10.7542C16.6128 12.2846 16.6128 13.815 16.6128 15.3454C16.6128 15.6978 16.6128 16.0502 16.6128 16.4026C16.7034 16.2717 16.794 16.1408 16.8846 16.0099C16.1194 16.0099 15.3593 16.0099 14.6041 16.0099C14.4934 16.0099 14.3826 16.0099 14.2719 16.0099C14.3726 16.1106 14.4732 16.2113 14.5739 16.3119C14.5739 15.3454 14.5739 14.3788 14.5739 13.4123C14.5739 11.8819 14.5739 10.3515 14.5739 8.82112C14.5739 8.46873 14.5739 8.11634 14.5739 7.76395C14.5739 7.61292 14.4531 7.44679 14.2719 7.4619C14.1058 7.4921 14.0151 7.70353 14.0151 7.85456C14.0151 8.82112 14.0151 9.78767 14.0151 10.7542C14.0151 12.2846 14.0151 13.815 14.0151 15.3454C14.0151 15.6978 14.0151 16.0502 14.0151 16.4026C14.0151 16.5838 14.136 16.7046 14.3021 16.7046C15.0572 16.7046 15.8174 16.7046 16.5826 16.7046C16.6933 16.7046 16.799 16.7046 16.8997 16.7046C17.0809 16.7046 17.1716 16.4479 17.1716 16.3119C17.1716 15.3454 17.1716 14.3788 17.1716 13.4123C17.1716 11.8819 17.1716 10.3515 17.1716 8.82112C17.1716 8.46873 17.1716 8.11634 17.1716 7.76395C17.1716 7.59782 17.0507 7.4619 16.8846 7.4619C16.1194 7.4619 15.3593 7.4619 14.6041 7.4619C14.4934 7.4619 14.3826 7.4619 14.2719 7.4619C14.1058 7.4619 14.0151 7.71863 14.0151 7.85456C14.0151 8.03579 14.1208 8.15661 14.3021 8.15661Z" fill="white"/>
<path d="M10.5718 11.8117C11.337 11.8117 12.0972 11.8117 12.8523 11.8117C12.963 11.8117 13.0738 11.8117 13.1845 11.8117C13.0939 11.721 13.0083 11.6304 12.9278 11.5398C12.9278 12.0936 12.9278 12.6423 12.9278 13.186C12.9278 14.0619 12.9278 14.9328 12.9278 15.7987C12.9278 16.0001 12.9278 16.2014 12.9278 16.4028C12.9983 16.282 13.0738 16.1662 13.1543 16.0554C12.3992 16.0554 11.6441 16.0554 10.889 16.0554C10.7782 16.0554 10.6675 16.0554 10.5567 16.0554C10.6372 16.136 10.7228 16.2216 10.8134 16.3122C10.8134 15.7685 10.8134 15.2248 10.8134 14.6811C10.8134 13.8052 10.8134 12.9343 10.8134 12.0684C10.8134 11.867 10.8134 11.6657 10.8134 11.4643C10.8134 11.3284 10.7077 11.1774 10.5567 11.1925C10.3906 11.2227 10.3151 11.4039 10.3151 11.5398C10.3151 12.0936 10.3151 12.6423 10.3151 13.186C10.3151 14.0619 10.3151 14.9328 10.3151 15.7987C10.3151 16.0001 10.3151 16.2014 10.3151 16.4028C10.3151 16.5538 10.4208 16.6595 10.5718 16.6595C11.337 16.6595 12.0972 16.6595 12.8523 16.6595C12.963 16.6595 13.0738 16.6595 13.1845 16.6595C13.3356 16.6595 13.4111 16.433 13.4111 16.3122C13.4111 15.7685 13.4111 15.2248 13.4111 14.6811C13.4111 13.8052 13.4111 12.9343 13.4111 12.0684C13.4111 11.867 13.4111 11.6657 13.4111 11.4643C13.4111 11.3133 13.3054 11.1925 13.1543 11.1925C12.3992 11.1925 11.6441 11.1925 10.889 11.1925C10.7782 11.1925 10.6675 11.1925 10.5567 11.1925C10.4057 11.1925 10.3151 11.419 10.3151 11.5398C10.3302 11.7059 10.4208 11.8117 10.5718 11.8117Z" fill="white"/>
<path d="M6.85652 10.6163C7.61165 10.6163 8.36677 10.6163 9.1219 10.6163C9.23265 10.6163 9.3434 10.6163 9.45415 10.6163C9.36354 10.5257 9.27796 10.4351 9.19741 10.3445C9.19741 11.0292 9.19741 11.7138 9.19741 12.3984C9.19741 13.4858 9.19741 14.5682 9.19741 15.6455C9.19741 15.8972 9.19741 16.1489 9.19741 16.4006C9.27796 16.2798 9.35347 16.164 9.42395 16.0532C8.66882 16.0532 7.9137 16.0532 7.15857 16.0532C7.04782 16.0532 6.93707 16.0532 6.82632 16.0532C6.90686 16.1438 6.99245 16.2294 7.08306 16.31C7.08306 15.6253 7.08306 14.9457 7.08306 14.2712C7.08306 13.1838 7.08306 12.0964 7.08306 11.009C7.08306 10.7674 7.08306 10.5207 7.08306 10.269C7.08306 10.1331 6.97734 9.98204 6.82632 9.99714C6.67529 10.0273 6.59978 10.2086 6.59978 10.3445C6.59978 11.0292 6.59978 11.7138 6.59978 12.3984C6.59978 13.4858 6.59978 14.5682 6.59978 15.6455C6.59978 15.8972 6.59978 16.1489 6.59978 16.4006C6.59978 16.5516 6.7055 16.6573 6.85652 16.6573C7.61165 16.6573 8.36677 16.6573 9.1219 16.6573C9.23265 16.6573 9.3434 16.6573 9.45415 16.6573C9.60518 16.6573 9.68069 16.4308 9.68069 16.31C9.68069 15.6253 9.68069 14.9457 9.68069 14.2712C9.68069 13.1838 9.68069 12.0964 9.68069 11.009C9.68069 10.7674 9.68069 10.5207 9.68069 10.269C9.68069 10.118 9.57497 9.99714 9.42395 9.99714C8.66882 9.99714 7.9137 9.99714 7.15857 9.99714C7.04782 9.99714 6.93707 9.99714 6.82632 9.99714C6.67529 9.99714 6.58468 10.2237 6.59978 10.3445C6.59978 10.5106 6.6904 10.6163 6.85652 10.6163Z" fill="white"/>
<path d="M24.6473 9.55986C23.9525 9.33836 23.2629 9.11687 22.5782 8.89537C22.4775 8.86516 22.3819 8.82991 22.2913 8.78964C22.3617 8.86012 22.4322 8.92557 22.5027 8.98598C22.3617 8.5329 22.1856 8.08989 21.9741 7.65695C21.954 7.80798 21.9389 7.959 21.9288 8.11003C22.251 7.47572 22.5732 6.83639 22.8954 6.19202C22.9457 6.1014 22.9961 6.01078 23.0464 5.92017C23.1219 5.76914 23.1823 5.5275 23.0464 5.39158C22.6437 4.98885 22.246 4.59114 21.8533 4.19848C21.2291 3.57424 20.5998 2.94497 19.9655 2.31067C19.8245 2.16971 19.6785 2.02374 19.5275 1.87271C19.4369 1.7821 19.2859 1.72169 19.1499 1.7972C18.5458 2.09925 17.9418 2.40633 17.3377 2.71845C17.247 2.75872 17.1615 2.80403 17.0809 2.85437C17.1816 2.85437 17.2823 2.8594 17.383 2.86947C16.8695 2.59763 16.3359 2.36606 15.7821 2.17476C15.8626 2.23517 15.9382 2.3006 16.0086 2.37108C15.7771 1.64616 15.5405 0.921241 15.2988 0.196321C15.2535 0.0452964 15.1176 0 14.9817 0C14.4178 0 13.859 0 13.3053 0C12.4092 0 11.5182 0 10.6321 0C10.4207 0 10.2143 0 10.0129 0C9.81662 0 9.65049 0.196336 9.59008 0.362463C9.36858 1.02697 9.1521 1.69651 8.94067 2.37108C9.04135 2.26033 9.14707 2.14456 9.25782 2.02374C8.64366 2.20497 8.04459 2.44157 7.46062 2.73355C7.56131 2.73355 7.66199 2.73858 7.76267 2.74865C7.14851 2.43653 6.53938 2.12442 5.93528 1.8123C5.75405 1.72168 5.57282 1.78209 5.4369 1.91801C5.04423 2.31067 4.65156 2.70335 4.25889 3.09601C3.62459 3.73031 2.99532 4.36461 2.37108 4.99892C2.22006 5.13988 2.07407 5.28084 1.93312 5.4218C1.8123 5.55772 1.72168 5.79935 1.8123 5.98058C2.10428 6.55448 2.39626 7.12837 2.68824 7.70227C2.69831 7.55124 2.71341 7.40022 2.73355 7.24919C2.37109 7.9137 2.06904 8.60841 1.8576 9.33333C1.95829 9.21251 2.064 9.09673 2.17475 8.98598C1.56058 9.18735 0.951455 9.38368 0.347355 9.57498C0.181228 9.63539 0 9.86192 0 10.0432C0 10.5969 0 11.1507 0 11.7044C0 12.6005 0 13.4966 0 14.3927C0 14.594 0 14.7954 0 14.9968C0 15.1931 0.0604026 15.3441 0.256735 15.4045C0.860834 15.6059 1.46997 15.8022 2.08414 15.9935C2.00359 15.9331 1.92808 15.8727 1.8576 15.8123C2.06904 16.4869 2.34592 17.1413 2.68824 17.7756C2.69831 17.6246 2.71341 17.4736 2.73355 17.3225C2.44157 17.8964 2.14959 18.4703 1.8576 19.0442C1.78209 19.1953 1.72168 19.452 1.8576 19.5879C2.25027 19.9806 2.64293 20.3733 3.0356 20.7659C3.6699 21.4002 4.3042 22.0295 4.93851 22.6537C5.07946 22.8048 5.22043 22.9507 5.36138 23.0917C5.4671 23.1823 5.61813 23.2427 5.73895 23.1823C6.35311 22.8702 6.96727 22.5581 7.58144 22.246C7.48076 22.2359 7.38007 22.2258 7.27939 22.2158C7.88349 22.5178 8.5178 22.7745 9.1672 22.9558C9.09672 22.8954 9.02121 22.8349 8.94067 22.7745C9.16217 23.439 9.37864 24.1086 9.59008 24.7832C9.63539 24.9191 9.7864 24.9795 9.92233 24.9795C10.4761 24.9795 11.0298 24.9795 11.5836 24.9795C12.4797 24.9795 13.3758 24.9795 14.2719 24.9795C14.4732 24.9795 14.6746 24.9795 14.876 24.9795C15.0723 24.9795 15.2535 24.7681 15.3139 24.602C15.5455 23.877 15.7771 23.1521 16.0086 22.4272C15.908 22.548 15.8022 22.6638 15.6915 22.7745C18.1834 21.8986 20.3279 20.1165 21.6268 17.8209C21.9892 17.1715 22.2913 16.507 22.5178 15.8123C22.4071 15.923 22.3013 16.0388 22.2007 16.1597C22.8853 15.9382 23.5699 15.7116 24.2546 15.48C24.3553 15.4498 24.4509 15.4196 24.5415 15.3894C24.7228 15.329 24.8889 15.1176 24.8889 14.9212C24.8889 14.3675 24.8889 13.8137 24.8889 13.26C24.8889 12.3639 24.8889 11.4729 24.8889 10.5868C24.8889 10.3754 24.8889 10.169 24.8889 9.96764C24.8889 9.75621 24.7832 9.52966 24.5415 9.55986C24.315 9.57497 24.0885 9.81662 24.0885 10.0432C24.0885 10.5969 24.0885 11.1507 24.0885 11.7044C24.0885 12.6005 24.0885 13.4966 24.0885 14.3927C24.0885 14.594 24.0885 14.7954 24.0885 14.9968C24.1992 14.8457 24.315 14.6947 24.4358 14.5437C23.8317 14.735 23.2276 14.9313 22.6235 15.1327C22.3668 15.2082 21.9741 15.2686 21.808 15.5405C21.7174 15.6915 21.6721 15.9029 21.6117 16.069C21.5512 16.2503 21.4808 16.4265 21.4002 16.5976C21.3902 16.6278 21.3751 16.658 21.3549 16.6882C21.2945 16.8242 21.4002 16.6127 21.3398 16.7487C21.2995 16.8292 21.2593 16.9097 21.219 16.9903C21.1384 17.1514 21.0529 17.3125 20.9622 17.4736C20.781 17.7756 20.5897 18.0676 20.3884 18.3495C20.3582 18.3898 20.333 18.4301 20.3128 18.4703C20.2977 18.4703 20.2071 18.5912 20.2675 18.5156C20.2273 18.5761 20.1819 18.6365 20.1316 18.6969C20.0108 18.8378 19.89 18.9788 19.7692 19.1197C19.5175 19.4017 19.2506 19.6735 18.9687 19.9353C18.7271 20.1467 18.5005 20.343 18.1985 20.5545C17.9166 20.7659 17.6196 20.9572 17.3074 21.1284C17.1665 21.219 17.0255 21.2995 16.8846 21.37C16.945 21.3398 16.8091 21.4002 16.8242 21.4002C16.7839 21.4204 16.7436 21.4405 16.7033 21.4606C16.6027 21.511 16.507 21.5563 16.4164 21.5966C16.2654 21.667 16.1143 21.7325 15.9633 21.7929C15.7217 21.8835 15.4498 21.9288 15.3139 22.1553C15.2535 22.246 15.2384 22.3517 15.2082 22.4423C14.9867 23.1068 14.7702 23.7764 14.5588 24.4509C14.6997 24.3301 14.8407 24.2043 14.9817 24.0734C14.4178 24.0734 13.859 24.0734 13.3053 24.0734C12.4092 24.0734 11.5182 24.0734 10.6321 24.0734C10.4207 24.0734 10.2143 24.0734 10.0129 24.0734C10.1237 24.1438 10.2345 24.2093 10.3452 24.2697C10.1338 23.6203 9.93743 22.9558 9.69579 22.3064C9.65048 22.1855 9.57498 22.11 9.43905 22.0647C9.22762 22.0043 9.00108 21.9288 8.78964 21.8533C8.58827 21.7828 8.39195 21.7073 8.20065 21.6268C8.09997 21.5764 7.99928 21.5261 7.8986 21.4757C7.76268 21.4153 7.62675 21.3247 7.46062 21.4002C7.17368 21.5059 6.90183 21.6872 6.61489 21.8231C6.2927 21.9943 5.96548 22.1654 5.63323 22.3366C5.75405 22.3567 5.8799 22.3819 6.01079 22.4121C5.61812 22.0194 5.22546 21.6268 4.8328 21.2341C4.19849 20.5998 3.56418 19.9705 2.92988 19.3463C2.78892 19.1953 2.64797 19.0493 2.50701 18.9083C2.50701 19.0895 2.50701 19.2657 2.50701 19.4369C2.79396 18.863 3.096 18.3042 3.38295 17.7303C3.39805 17.685 3.42826 17.6397 3.44337 17.5944C3.50378 17.3981 3.42826 17.2621 3.33765 17.0809C3.23696 16.8997 3.14131 16.7084 3.0507 16.507C2.96008 16.3056 2.87954 16.1043 2.80906 15.9029C2.76879 15.8123 2.73354 15.7167 2.70334 15.616C2.65803 15.5103 2.64293 15.3592 2.58252 15.2686C2.49191 15.1327 2.31068 15.0874 2.15965 15.0421C1.96836 14.9817 1.77706 14.9213 1.58576 14.8609C1.24344 14.7501 0.901108 14.6393 0.558785 14.5286C0.639331 14.6595 0.724914 14.7904 0.815529 14.9212C0.815529 14.3675 0.815529 13.8137 0.815529 13.26C0.815529 12.3639 0.815529 11.4729 0.815529 10.5868C0.815529 10.3754 0.815529 10.169 0.815529 9.96764C0.694709 10.1187 0.578925 10.2697 0.468173 10.4207C0.750087 10.3301 1.03704 10.2395 1.32902 10.1489C1.64617 10.0431 1.97842 9.96764 2.28047 9.83171C2.53721 9.726 2.59763 9.48435 2.68824 9.25781C2.74865 9.05645 2.81912 8.85508 2.89967 8.65371C2.93994 8.55303 2.98525 8.45235 3.0356 8.35166C3.05573 8.31139 3.07587 8.2661 3.09601 8.21576C3.0658 8.26106 3.08091 8.23086 3.09601 8.21576C3.10608 8.18555 3.12118 8.15533 3.14132 8.12513C3.18159 8.03451 3.22689 7.94391 3.27723 7.85329C3.35274 7.68717 3.45846 7.53613 3.45846 7.3549C3.45846 7.21898 3.38296 7.09816 3.32255 6.97734C3.23193 6.79611 3.13628 6.61489 3.0356 6.43366C2.8745 6.11147 2.71341 5.78928 2.55231 5.46709C2.51204 5.64832 2.47177 5.82955 2.4315 6.01078C2.82416 5.61811 3.21682 5.22546 3.60949 4.8328C4.24379 4.20856 4.87306 3.57929 5.4973 2.94498C5.64832 2.80403 5.79432 2.65803 5.93528 2.50701C5.77418 2.54728 5.60806 2.58251 5.4369 2.61272C6.0561 2.92987 6.64509 3.26214 7.26429 3.54908C7.26429 3.54908 7.26932 3.54908 7.27939 3.54908C7.44552 3.6397 7.58145 3.56418 7.74757 3.48867C7.94894 3.39806 8.15534 3.30743 8.36677 3.21682C8.57821 3.13627 8.79467 3.06076 9.01618 2.99028C9.12189 2.94497 9.22761 2.92988 9.31823 2.88457C9.49946 2.82416 9.62531 2.70334 9.69579 2.52211C9.81661 2.22006 9.89212 1.90291 9.99784 1.58576C10.1086 1.23337 10.2244 0.880978 10.3452 0.528587C10.2042 0.649407 10.0633 0.77023 9.92233 0.89105C10.4761 0.89105 11.0298 0.89105 11.5836 0.89105C12.4797 0.89105 13.3758 0.89105 14.2719 0.89105C14.4732 0.89105 14.6746 0.89105 14.876 0.89105C14.7753 0.820572 14.6695 0.755121 14.5588 0.694711C14.7904 1.39949 15.0169 2.10428 15.2384 2.80906C15.2686 2.88457 15.2988 2.92987 15.3592 2.99028C15.4498 3.0809 15.6311 3.11112 15.7519 3.15642C15.8526 3.1967 15.9533 3.23696 16.0539 3.27723C16.2754 3.36785 16.4919 3.46853 16.7033 3.57928C16.8695 3.6699 17.0205 3.76052 17.2168 3.68501C17.5642 3.54909 17.8964 3.33765 18.2287 3.17152C18.571 2.99029 18.9184 2.8141 19.2708 2.64294C19.1399 2.61273 19.014 2.58253 18.8932 2.55232C19.2859 2.94499 19.6785 3.33764 20.0712 3.73031C20.7055 4.36461 21.3348 4.99891 21.959 5.63322C22.11 5.77417 22.256 5.91514 22.397 6.05609C22.397 5.88493 22.397 5.70874 22.397 5.52751C22.0345 6.23229 21.6771 6.93204 21.3247 7.62676C21.3046 7.65696 21.2895 7.68716 21.2794 7.71737C21.1888 7.9137 21.1888 8.06472 21.2794 8.26105C21.3298 8.3718 21.3801 8.4876 21.4304 8.60842C21.5311 8.85006 21.6268 9.09674 21.7174 9.34844C21.7627 9.49947 21.8231 9.62028 21.9892 9.68069C21.9993 9.68069 22.0093 9.68572 22.0194 9.69579C22.397 9.81661 22.7897 9.93743 23.1823 10.0734C23.5649 10.1942 23.9525 10.32 24.3452 10.4509C24.5717 10.5113 24.8134 10.2848 24.8738 10.0884C24.9342 9.86191 24.8738 9.63538 24.6473 9.55986Z" fill="white"/>
<path d="M27.0487 23.0314C26.4244 22.3971 25.8002 21.7678 25.176 21.1436C24.1792 20.1468 23.1824 19.15 22.1857 18.1533C21.9642 17.9318 21.7376 17.7052 21.5061 17.4737C21.3097 17.2773 21.0077 17.3981 20.8717 17.6247C20.761 17.8059 20.6452 17.9871 20.5244 18.1684C20.4741 18.2489 20.4187 18.3345 20.3583 18.4251C20.328 18.4553 20.2978 18.4906 20.2676 18.5308C20.313 18.4704 20.2072 18.6214 20.1921 18.6214C19.9304 18.9638 19.6484 19.2809 19.3464 19.5729C19.0443 19.8901 18.7725 20.1317 18.4553 20.3733C18.113 20.6351 17.7556 20.8768 17.3831 21.0983C17.1867 21.2191 17.0357 21.6117 17.2169 21.793C17.6398 22.2158 18.0576 22.6337 18.4704 23.0465C19.286 23.862 20.1015 24.6775 20.9171 25.4931C21.491 26.067 22.0699 26.6459 22.6538 27.2299C23.0012 27.5772 23.3939 27.8491 23.8771 27.9548C24.3302 28.0454 24.8135 28.0001 25.2364 27.8189C25.5535 27.6829 25.8254 27.4715 26.067 27.2299C26.3842 26.9127 26.7013 26.6107 27.0034 26.2935C27.683 25.5837 27.8944 24.4812 27.4564 23.5902C27.3507 23.3938 27.2148 23.1975 27.0487 23.0314C26.8976 22.8653 26.6409 22.8955 26.4899 23.0616C26.3691 23.2126 26.2633 23.5147 26.4295 23.6808C26.4999 23.7613 26.5654 23.8419 26.6258 23.9224C26.7013 24.0282 26.7013 24.013 26.7466 24.1339C26.797 24.2245 26.8322 24.3201 26.8523 24.4208C26.8372 24.3604 26.8674 24.4661 26.8674 24.4812C26.8775 24.5416 26.8876 24.597 26.8976 24.6473C26.8976 24.6775 26.8976 24.8135 26.8976 24.7229C26.8976 24.7732 26.8976 24.8235 26.8976 24.8739C26.8876 24.9142 26.8825 24.9595 26.8825 25.0098C26.8725 25.0299 26.8674 25.0551 26.8674 25.0853C26.8523 25.1306 26.8825 25.0098 26.8674 25.1004C26.8372 25.191 26.802 25.2817 26.7617 25.3723C26.807 25.2817 26.7617 25.3874 26.7315 25.4176C26.7114 25.4679 26.6812 25.5182 26.6409 25.5686C26.5956 25.6441 26.6409 25.5686 26.656 25.5686C26.6359 25.5887 26.6208 25.6089 26.6107 25.629C26.5704 25.6693 26.5302 25.7045 26.4899 25.7347C26.4798 25.7448 26.4697 25.7549 26.4597 25.7649C26.3993 25.8354 26.3389 25.9009 26.2784 25.9613C26.0871 26.1526 25.8958 26.3439 25.7045 26.5352C25.6441 26.5956 25.5837 26.6509 25.5233 26.7013C25.5032 26.7315 25.478 26.7567 25.4478 26.7768C25.3874 26.8372 25.4478 26.7919 25.4478 26.7768C25.4377 26.7969 25.4226 26.812 25.4025 26.8221C25.3622 26.8523 25.3169 26.8825 25.2666 26.9127C25.2515 26.9278 25.1155 27.0033 25.1911 26.958C25.1508 26.9782 25.1055 26.9983 25.0551 27.0184C25.0149 27.0386 24.9746 27.0537 24.9343 27.0637C24.9041 27.0738 24.8789 27.0788 24.8588 27.0788C24.8135 27.0939 24.9041 27.0789 24.8286 27.094C24.738 27.1141 24.6423 27.1242 24.5417 27.1242C24.4913 27.1242 24.446 27.1242 24.4057 27.1242C24.3453 27.1242 24.451 27.1393 24.3906 27.1242C24.3604 27.1242 24.3302 27.1191 24.3 27.1091C24.1993 27.099 24.1037 27.0788 24.0131 27.0486C23.9829 27.0386 23.9577 27.0335 23.9376 27.0335C23.9376 27.0335 23.8771 27.0033 23.9225 27.0184C23.9527 27.0335 23.8771 27.0033 23.8771 27.0033C23.8469 26.9933 23.8167 26.9782 23.7865 26.958C23.6959 26.9077 23.6103 26.8523 23.5298 26.7919C23.5096 26.7818 23.4895 26.7667 23.4694 26.7466C23.4694 26.7617 23.4996 26.7768 23.4694 26.7466C23.4392 26.7265 23.414 26.7063 23.3939 26.6862C23.3637 26.6459 23.3334 26.6107 23.3032 26.5805C22.7495 26.0368 22.2008 25.4881 21.6571 24.9343C20.8617 24.149 20.0663 23.3586 19.2709 22.5632C18.8027 22.095 18.3647 21.6117 17.8663 21.1587C17.8663 21.1486 17.8613 21.1436 17.8512 21.1436C17.8009 21.3751 17.7455 21.6067 17.6851 21.8383C19.2558 20.9019 20.5697 19.5729 21.5061 18.0022C21.2946 18.0526 21.0882 18.0979 20.8868 18.1382C21.5111 18.7624 22.1353 19.3917 22.7596 20.026C23.7563 21.0127 24.7531 22.0044 25.7499 23.0012C25.9714 23.2327 26.1979 23.4593 26.4295 23.6808C26.5805 23.8469 26.8372 23.8167 26.9883 23.6506C27.1091 23.4996 27.2148 23.1975 27.0487 23.0314Z" fill="white"/>
<path d="M18.6818 22.7588C19.0594 22.6984 19.4521 22.8192 19.8296 22.8041C20.2374 22.8041 20.6301 22.7135 21.0227 22.6228C21.3097 22.5473 21.1737 22.1094 20.8868 22.1698C20.5243 22.2604 20.1619 22.351 19.7843 22.351C19.4068 22.351 19.0443 22.2453 18.6818 22.2906C18.5459 22.3057 18.4402 22.3963 18.4553 22.5322C18.4553 22.6379 18.561 22.7739 18.6818 22.7588Z" fill="white"/>
<path d="M20.328 24.1485C21.0529 24.2996 21.793 24.2844 22.5179 24.1183C22.8048 24.0579 22.6689 23.6048 22.3819 23.6803C21.7476 23.8163 21.0831 23.8314 20.4488 23.7106C20.1468 23.6501 20.0411 24.1032 20.328 24.1485Z" fill="white"/>
<path d="M21.8231 25.6603C22.5329 25.6301 23.2276 25.4791 23.877 25.1921C23.9827 25.1468 24.0582 25.0411 24.028 24.9052C23.9978 24.7995 23.8619 24.7088 23.7411 24.7541C23.137 25.0109 22.4876 25.1619 21.8231 25.1921C21.521 25.2072 21.5361 25.6754 21.8231 25.6603Z" fill="white"/>
<path d="M22.9859 26.6846C23.152 27.1226 23.7259 26.7903 23.9978 26.6846C24.3804 26.5235 24.7529 26.3373 25.1154 26.1258C25.3721 25.9748 25.1305 25.5822 24.8737 25.7332C24.6119 25.8842 24.3451 26.0252 24.0733 26.156C23.9424 26.2165 23.8065 26.2718 23.6655 26.3222C23.6051 26.3423 23.5397 26.3675 23.4692 26.3977C23.439 26.4077 23.4037 26.4178 23.3635 26.4279C23.3433 26.438 23.3232 26.443 23.3031 26.443C23.2628 26.4531 23.2879 26.4631 23.3786 26.4732C23.3987 26.5135 23.4188 26.5487 23.439 26.5789C23.439 26.5689 23.4339 26.5638 23.4239 26.5638C23.3333 26.2769 22.8953 26.4128 22.9859 26.6846Z" fill="white"/>
<path d="M8.59322 11.4316C8.80466 11.6732 9.0161 11.9099 9.22753 12.1414C9.37856 12.3227 9.62019 12.0659 9.46917 11.8998C9.25773 11.6581 9.0463 11.4165 8.83487 11.1749C8.68384 11.0087 8.4422 11.2655 8.59322 11.4316Z" fill="white"/>
<path d="M8.41217 12.3852C8.69408 12.7275 8.97096 13.0749 9.24281 13.4273C9.37873 13.6085 9.68078 13.4273 9.52976 13.246C9.25791 12.8937 8.98606 12.5463 8.71422 12.204C8.5783 12.0227 8.27625 12.204 8.41217 12.3852Z" fill="white"/>
<path d="M8.45746 13.7431C8.68903 14.0452 8.9206 14.3422 9.15217 14.6342C9.28809 14.8154 9.59014 14.6342 9.43912 14.4529C9.21762 14.161 8.99108 13.8639 8.75951 13.5619C8.62358 13.3958 8.32153 13.577 8.45746 13.7431Z" fill="white"/>
<path d="M8.62356 14.9958C8.8501 14.9958 8.835 14.6484 8.60846 14.6484C8.38193 14.6484 8.39703 14.9958 8.62356 14.9958Z" fill="white"/>
<path d="M8.47242 14.936C8.75433 15.2884 9.02618 15.6508 9.28796 16.0234C9.40878 16.2046 9.71082 16.0234 9.5749 15.827C9.31312 15.4646 9.04128 15.1071 8.75937 14.7548C8.62345 14.5735 8.32139 14.7548 8.47242 14.936Z" fill="white"/>
<path d="M8.1705 15.8865C8.32153 16.0677 8.48262 16.2439 8.65378 16.4151C8.80481 16.5812 9.04644 16.3245 8.89542 16.1584C8.72426 15.9872 8.56316 15.816 8.41214 15.6449C8.35173 15.5694 8.21581 15.5845 8.1554 15.6449C8.09499 15.7204 8.11009 15.8261 8.1705 15.8865Z" fill="white"/>
<path d="M12.2481 12.6269C12.4998 12.8887 12.7465 13.1505 12.9882 13.4122C13.1392 13.5784 13.3808 13.3216 13.2298 13.1555C12.9882 12.8937 12.7415 12.632 12.4898 12.3702C12.3387 12.204 12.0971 12.4608 12.2481 12.6269Z" fill="white"/>
<path d="M12.1575 13.7441C12.4192 14.0462 12.6861 14.3532 12.9579 14.6654C13.0938 14.8315 13.3355 14.5748 13.1844 14.4086C12.9227 14.1066 12.6609 13.7995 12.3991 13.4874C12.2632 13.3212 12.0215 13.578 12.1575 13.7441Z" fill="white"/>
<path d="M12.1122 14.893C12.4042 15.2555 12.7012 15.6129 13.0033 15.9653C13.1543 16.1465 13.396 15.8898 13.2449 15.7236C12.963 15.3914 12.6861 15.0541 12.4143 14.7118C12.2784 14.5306 11.9763 14.7118 12.1122 14.893Z" fill="white"/>
<path d="M11.9914 15.9199C12.1424 16.0609 12.2783 16.2169 12.3992 16.3881C12.52 16.5693 12.822 16.3881 12.6861 16.1917C12.5552 16.0004 12.4042 15.8242 12.233 15.6632C12.0669 15.5121 11.8253 15.7689 11.9914 15.9199Z" fill="white"/>
<path d="M15.8726 8.92379C16.2049 9.29631 16.5019 9.69905 16.7637 10.132C16.8845 10.3283 17.1866 10.1471 17.0657 9.95076C16.7838 9.49769 16.4667 9.06978 16.1143 8.66705C15.9633 8.50092 15.7216 8.75766 15.8726 8.92379Z" fill="white"/>
<path d="M15.9029 10.2246C16.2251 10.577 16.512 10.9545 16.7637 11.3573C16.8845 11.5536 17.1715 11.3724 17.0658 11.176C16.7939 10.7431 16.4868 10.3404 16.1445 9.96783C15.9784 9.80171 15.7368 10.0584 15.9029 10.2246Z" fill="white"/>
<path d="M15.8576 11.748C16.2 12.0903 16.4819 12.478 16.7034 12.9109C16.8091 13.1073 17.096 12.926 17.0054 12.7146C16.7638 12.2766 16.4617 11.8537 16.0993 11.4913C15.9482 11.3403 15.7066 11.597 15.8576 11.748Z" fill="white"/>
<path d="M15.9331 13.0922C16.205 13.4446 16.4567 13.8121 16.6882 14.1947C16.8091 14.3911 17.096 14.2098 16.9903 14.0135C16.7587 13.6309 16.502 13.2634 16.2201 12.911C16.0841 12.7298 15.7821 12.911 15.9331 13.0922Z" fill="white"/>
<path d="M15.9935 14.5589C16.0388 14.5589 16.1445 14.7099 16.1747 14.7401C16.2352 14.8207 16.2956 14.9012 16.356 14.9818C16.4768 15.1529 16.5875 15.3291 16.6882 15.5104C16.8091 15.7067 17.096 15.5255 16.9903 15.3291C16.8594 15.0875 16.7084 14.861 16.5372 14.6495C16.4013 14.4683 16.2352 14.1964 15.9935 14.2115C15.767 14.2115 15.767 14.5589 15.9935 14.5589Z" fill="white"/>
<path d="M15.9029 15.6625C16.0841 15.8941 16.2603 16.1307 16.4315 16.3724C16.5674 16.5687 16.8695 16.3724 16.7335 16.1911C16.5624 15.9495 16.3862 15.7129 16.2049 15.4813C16.069 15.3001 15.767 15.4813 15.9029 15.6625Z" fill="white"/>
<path d="M7.77777 7.58305C8.77454 6.54098 10.164 5.89158 11.5987 5.80097C11.8252 5.78587 11.8252 5.4385 11.5987 5.4536C10.0582 5.54422 8.5933 6.22383 7.53613 7.34141C7.37 7.50754 7.62675 7.74918 7.77777 7.58305Z" fill="white"/>
</svg>
