<svg width="48" height="44" viewBox="0 0 48 44" fill="none" xmlns="http://www.w3.org/2000/svg">
<path d="M41.59 9.05729C42.725 9.05729 43.6448 9.96321 43.6448 11.0794C43.6448 12.1956 42.725 13.1016 41.59 13.1016C40.4549 13.1016 39.5352 12.1956 39.5352 11.0794C39.5352 9.96321 40.4549 9.05729 41.59 9.05729Z" fill="#70F2A4"/>
<path d="M4.02455 1.94214C5.43261 1.94214 6.57337 3.06483 6.57337 4.44958C6.57337 5.83434 5.43261 6.95703 4.02455 6.95703C2.61811 6.95703 1.47656 5.83434 1.47656 4.44958C1.47656 3.06483 2.61811 1.94214 4.02455 1.94214Z" fill="#70F2A4"/>
<path d="M33.3682 31.7858V35.3447C32.4639 35.3447 5.09487 35.3447 2.54688 35.3447V31.7858C4.1085 31.7858 32.2998 31.7858 33.3682 31.7858Z" fill="#FFDD40"/>
<path d="M47.1801 36.8001C47.1801 37.6089 46.5229 38.3369 45.6185 38.3369H42.4953C42.3311 37.1236 41.7559 36.0721 40.7695 35.2633H45.5365C46.5228 35.3442 47.1801 35.9912 47.1801 36.8001Z" fill="#D3DCFB"/>
<path d="M45.6999 35.3447H33.3711C33.3711 34.2932 33.3711 29.2783 33.3711 28.2268H42.6587L44.0562 29.1165C45.1247 29.7636 45.6999 30.9769 45.6999 32.1902C45.6999 33.3226 45.6999 34.1314 45.6999 35.3447Z" fill="#464D58"/>
<path d="M40.6039 22.0802L42.5767 28.2275H33.3711V20.139H37.9739C39.2065 20.139 40.2749 20.9479 40.6039 22.0802Z" fill="#9BD8F9"/>
<path d="M37.9739 43.4346C35.4259 43.4346 33.3711 41.4124 33.3711 38.905C33.3711 37.5299 34.0284 36.2358 35.0968 35.346C36.8226 33.971 39.2064 33.971 40.933 35.346C44.2204 38.0152 42.3305 43.4346 37.9739 43.4346Z" fill="#464D58"/>
<path d="M37.9718 37.2867C38.8347 37.2867 39.5334 37.975 39.5334 38.8235C39.5334 39.672 38.8347 40.3604 37.9718 40.3604C37.1097 40.3604 36.4102 39.672 36.4102 38.8235C36.4102 37.975 37.1097 37.2867 37.9718 37.2867Z" fill="#33383F"/>
<path d="M35.0972 35.3453C34.1937 36.0733 33.5364 37.1248 33.3714 38.4189C31.3995 38.4189 16.8509 38.4189 14.7961 38.4189C14.632 37.2057 14.0567 36.1542 13.0703 35.3453C13.8926 35.3453 34.3578 35.3453 35.0972 35.3453Z" fill="#D3DCFB"/>
<path d="M33.3698 31.7861H6.08203V28.2272H33.2877C33.3698 29.036 33.3698 30.9773 33.3698 31.7861Z" fill="#FFB530"/>
<path d="M33.3698 28.2275H6.08203V13.102H33.2877C33.3698 14.7197 33.3698 26.5289 33.3698 28.2275Z" fill="#FFDD40"/>
<path d="M19.4799 3.96208C24.5751 3.96208 28.7667 8.00635 28.7667 13.1021C28.7667 18.1979 24.6571 22.2422 19.4799 22.2422C14.3018 22.2422 10.1914 18.1979 10.1914 13.1021C10.1914 8.00635 14.3831 3.96208 19.4799 3.96208Z" fill="#2A428C"/>
<path d="M19.3148 7.84266C22.2732 7.84266 24.7391 10.2692 24.7391 13.1811C24.7391 16.093 22.2732 18.5195 19.3148 18.5195C16.3557 18.5195 13.8906 16.093 13.8906 13.1811C13.8906 10.2692 16.3557 7.84266 19.3148 7.84266Z" fill="#FF4155"/>
<path d="M17.5889 10.8352C18.2462 10.8352 18.8214 11.4014 18.8214 12.0484C18.8214 12.6955 18.2462 13.2617 17.5889 13.2617C16.9307 13.2617 16.3555 12.6955 16.3555 12.0484C16.3555 11.4014 16.9307 10.8352 17.5889 10.8352Z" fill="#FFDD40"/>
<path d="M14.8775 38.8269C14.8775 41.3343 12.8219 43.3564 10.2747 43.3564C7.72672 43.3564 5.67188 41.3343 5.67188 38.8269C5.67188 37.4518 6.32921 36.1576 7.39764 35.2679C9.1242 33.8929 11.5072 33.8929 13.233 35.2679C14.2194 36.1576 14.8775 37.4518 14.8775 38.8269Z" fill="#464D58"/>
<path d="M10.1905 37.2867C11.0534 37.2867 11.7521 37.975 11.7521 38.8235C11.7521 39.672 11.0534 40.3604 10.1905 40.3604C9.32849 40.3604 8.62891 39.672 8.62891 38.8235C8.62891 37.975 9.32849 37.2867 10.1905 37.2867Z" fill="#33383F"/>
<path d="M7.31477 35.3453C6.41046 36.0733 5.75315 37.1248 5.58821 38.4189H1.97259C1.15034 38.4189 0.410156 37.7719 0.410156 36.8821C0.410156 36.0733 1.06828 35.3453 1.97259 35.3453C3.61546 35.3453 5.83521 35.3453 7.31477 35.3453Z" fill="#D3DCFB"/>
<path d="M6.0813 31.7861H2.46484C2.46484 31.0582 2.46484 14.3958 2.46484 13.1016H6.0813C6.0813 15.6899 6.0813 29.4405 6.0813 31.7861Z" fill="#464D58"/>
<path d="M43.3956 17.1456C43.8043 17.1456 44.1358 17.4716 44.1358 17.8736C44.1358 18.2756 43.8043 18.6016 43.3956 18.6016C42.9878 18.6016 42.6562 18.2756 42.6562 17.8736C42.6562 17.4716 42.9878 17.1456 43.3956 17.1456Z" fill="#081120"/>
<path d="M40.2745 2.02063C40.6832 2.02063 41.0147 2.34659 41.0147 2.74859C41.0147 3.15059 40.6832 3.47656 40.2745 3.47656C39.8667 3.47656 39.5352 3.15059 39.5352 2.74859C39.5352 2.34659 39.8667 2.02063 40.2745 2.02063Z" fill="#081120"/>
<path d="M29.0136 0.00109398C29.4223 0.00109398 29.753 0.327062 29.753 0.729063C29.753 1.13106 29.4223 1.45703 29.0136 1.45703C28.6049 1.45703 28.2734 1.13106 28.2734 0.729063C28.2734 0.327062 28.6049 0.00109398 29.0136 0.00109398Z" fill="#081120"/>
<path d="M20.7121 15.6094C21.2061 15.6094 21.6172 15.2049 21.6172 14.7196C21.6172 14.2343 21.2061 13.8299 20.7121 13.8299C20.2197 13.8299 19.8086 14.2343 19.8086 14.7196C19.8907 15.2049 20.301 15.6094 20.7121 15.6094Z" fill="#081120"/>
<path d="M20.7107 12.2109C21.0403 12.2109 21.2042 11.9683 21.2042 11.7256C21.2042 11.483 20.9575 11.2403 20.7107 11.2403C20.4655 11.2403 20.2188 11.483 20.2188 11.7256C20.2188 11.9683 20.4655 12.2109 20.7107 12.2109Z" fill="#081120"/>
<path d="M11.5058 0.00109398C11.9145 0.00109398 12.2452 0.327062 12.2452 0.729063C12.2452 1.13106 11.9145 1.45703 11.5058 1.45703C11.0972 1.45703 10.7656 1.13106 10.7656 0.729063C10.7656 0.327062 11.0972 0.00109398 11.5058 0.00109398Z" fill="#081120"/>
<path d="M3.28626 9.54406C3.69494 9.54406 4.02564 9.87003 4.02564 10.272C4.02564 10.674 3.69494 11 3.28626 11C2.87757 11 2.54688 10.674 2.54688 10.272C2.54688 9.87003 2.87757 9.54406 3.28626 9.54406Z" fill="#081120"/>
<path d="M36.9054 30.253H35.8369C35.5907 30.253 35.3438 30.4957 35.3438 30.7383C35.3438 30.981 35.5907 31.2236 35.8369 31.2236H36.9054C37.1524 31.2236 37.3986 30.981 37.3986 30.7383C37.3986 30.4957 37.2336 30.253 36.9054 30.253Z" fill="#081120"/>
<path d="M45.699 37.8535H42.9861C42.8219 37.1255 42.4937 36.3975 42.0826 35.8313H45.699C46.2743 35.8313 46.7674 36.3166 46.7674 36.8828C46.6854 37.3682 46.2743 37.8535 45.699 37.8535ZM37.973 42.8685C35.6712 42.8685 33.8634 41.089 33.8634 38.8242C33.8634 37.6108 34.3565 36.4784 35.425 35.6695C36.9045 34.4562 39.0414 34.4562 40.603 35.6695C41.5894 36.4784 42.1655 37.6108 42.1655 38.8242C42.0826 41.089 40.1919 42.8685 37.973 42.8685ZM15.2888 37.8535C15.1231 37.1255 14.7948 36.3975 14.3837 35.8313C15.3701 35.8313 32.7949 35.8313 33.8634 35.8313C33.3702 36.3975 33.124 37.1255 32.9598 37.8535H15.2888ZM10.192 42.8685C7.89102 42.8685 6.0824 41.089 6.0824 38.8242C6.0824 36.5593 7.97309 34.7798 10.192 34.7798C12.4118 34.7798 14.3024 36.5593 14.3024 38.8242C14.3024 41.089 12.4938 42.8685 10.192 42.8685ZM1.97356 37.8535C1.3975 37.8535 0.904341 37.3682 0.904341 36.802C0.904341 36.2357 1.3975 35.7504 1.97356 35.7504H6.0824C5.58921 36.3166 5.34301 37.0446 5.17889 37.7726H1.97356V37.8535ZM3.0412 32.2722H32.877V34.7798H13.3161C11.5074 33.4047 8.95943 33.4047 7.15162 34.7798H3.0412V32.2722ZM3.0412 13.5872H5.58918V31.3016H3.0412C3.0412 27.7425 3.0412 17.7933 3.0412 13.5872ZM19.4805 4.44683C24.3287 4.44683 28.1921 8.32945 28.1921 13.0209C28.1921 17.7124 24.2474 21.6759 19.4805 21.6759C14.7136 21.6759 10.7672 17.7933 10.7672 13.1018C10.7672 8.41034 14.6307 4.44683 19.4805 4.44683ZM32.7949 27.7425H6.65765V13.5872H9.78089C10.0279 18.6831 14.3024 22.7275 19.5617 22.7275C24.7398 22.7275 29.0143 18.6831 29.3426 13.5872H32.9598V27.7425H32.7949ZM37.973 20.6244C38.9594 20.6244 39.8637 21.2715 40.1919 22.1613L41.9185 27.6616H33.8634V20.5435H37.973V20.6244ZM6.65765 28.7132H32.877C32.877 29.6029 32.877 30.7354 32.877 31.2207H6.65765V28.7132ZM45.1238 32.2722L41.5073 32.3531C41.2603 32.3531 41.0141 32.5958 41.0141 32.8385C41.0141 33.0811 41.2603 33.3238 41.5073 33.3238H45.1238V34.8607H41.0141C39.2055 33.4856 36.6575 33.4856 34.8497 34.8607H33.7813C33.7813 33.0002 33.7813 31.5443 33.7813 28.7941H42.3296L43.6442 29.6029C44.6306 30.1692 45.1238 31.1398 45.1238 32.2722ZM46.1922 34.8607V32.1914C46.1922 30.8163 45.4528 29.5221 44.3023 28.7132L43.069 27.9043L41.1791 21.9186C40.768 20.5435 39.4525 19.6537 38.055 19.6537H33.9454V13.1018C33.9454 12.8592 33.6992 12.6165 33.4522 12.6165H29.3426C29.0964 7.52057 24.8227 3.47618 19.5617 3.47618C14.3837 3.47618 10.11 7.52057 9.78089 12.6165H2.54882C2.30182 12.6165 2.05481 12.8592 2.05481 13.1018C2.05481 15.6902 2.05481 33.7282 2.05481 34.8607C0.904315 34.8607 0 35.7504 0 36.8828C0 38.0153 0.904315 38.905 2.05481 38.905H5.17805C5.17805 41.6552 7.4799 44.001 10.3561 44.001C13.2332 44.001 15.5342 41.7361 15.5342 38.905H33.0411C33.0411 41.6552 35.3429 44.001 38.2191 44.001C41.0141 44.001 43.3972 41.7361 43.3972 38.905H45.946C47.0965 38.905 48 38.0153 48 36.8828C47.7538 36.3166 47.0965 35.1033 46.1922 34.8607Z" fill="#081120"/>
<path d="M37.9728 39.8741C37.3975 39.8741 36.9044 39.3888 36.9044 38.8226C36.9044 38.2564 37.3975 37.7711 37.9728 37.7711C38.548 37.7711 39.0412 38.2564 39.0412 38.8226C38.9591 39.3888 38.548 39.8741 37.9728 39.8741ZM37.9728 36.8005C36.8215 36.8005 35.918 37.6902 35.918 38.8226C35.918 39.955 36.8215 40.8447 37.9728 40.8447C39.1233 40.8447 40.0276 39.955 40.0276 38.8226C40.0276 37.6902 39.1233 36.8005 37.9728 36.8005Z" fill="#081120"/>
<path d="M10.1946 39.8741C9.6194 39.8741 9.12701 39.3888 9.12701 38.8226C9.12701 38.2564 9.6194 37.7711 10.1946 37.7711C10.7699 37.7711 11.2639 38.2564 11.2639 38.8226C11.2639 39.3888 10.7699 39.8741 10.1946 39.8741ZM10.1946 36.8005C9.04415 36.8005 8.14062 37.6902 8.14062 38.8226C8.14062 39.955 9.04415 40.8447 10.1946 40.8447C11.346 40.8447 12.2494 39.955 12.2494 38.8226C12.2494 37.6902 11.346 36.8005 10.1946 36.8005Z" fill="#081120"/>
<path d="M19.3158 8.40969C22.028 8.40969 24.2477 10.5936 24.2477 13.2628C24.2477 15.932 22.028 18.1159 19.3158 18.1159C16.6037 18.1159 14.384 15.932 14.384 13.2628C14.384 10.5936 16.6037 8.40969 19.3158 8.40969ZM14.4669 16.5791C14.878 17.1453 15.3703 17.6306 15.9456 18.0351L15.3704 19.0057C15.2062 19.2483 15.2891 19.5719 15.5345 19.7336C15.7815 19.8954 16.1105 19.8145 16.2747 19.5719L16.8499 18.6013C17.5072 18.9248 18.1653 19.0866 18.8227 19.1674V20.2998C18.8227 20.5425 19.0696 20.7852 19.3158 20.7852C19.562 20.7852 19.809 20.5425 19.809 20.2998V19.0866C20.5484 19.0057 21.2065 18.8439 21.7818 18.5204L22.357 19.491C22.4391 19.6528 22.6032 19.7336 22.7682 19.7336C22.8502 19.7336 22.9323 19.7336 23.0143 19.6528C23.2613 19.491 23.3434 19.1674 23.1785 18.9248L22.6032 17.9542C23.1785 17.5497 23.6717 17.0644 24.0828 16.4982L25.0691 17.0644C25.1512 17.1453 25.2341 17.1453 25.3154 17.1453C25.4803 17.1453 25.6452 17.0644 25.7265 16.9027C25.8906 16.66 25.8094 16.3365 25.5624 16.1747L24.576 15.6085C24.9042 14.9614 25.0692 14.3143 25.1512 13.6672H26.3017C26.5487 13.6672 26.7957 13.4246 26.7957 13.1819C26.7957 12.9393 26.5487 12.6966 26.3017 12.6966H25.1512C25.0692 11.9686 24.9042 11.3216 24.576 10.7554L25.5624 10.1892C25.8094 10.0274 25.8906 9.70386 25.7265 9.4612C25.5624 9.21854 25.2341 9.13766 24.9871 9.29943L24.0007 9.86563C23.5896 9.29943 23.0964 8.81412 22.5212 8.40969L23.0964 7.43906C23.2613 7.19641 23.1785 6.87287 22.9323 6.71109C22.6853 6.54932 22.357 6.63021 22.1929 6.87287L21.6176 7.84349C20.9595 7.51995 20.3014 7.35818 19.6449 7.27729V6.1449C19.6449 5.90224 19.3979 5.65958 19.1509 5.65958C18.9047 5.65958 18.6585 5.90224 18.6585 6.1449V7.27729C17.9183 7.35818 17.2611 7.51995 16.6858 7.84349L16.2747 6.95375C16.1105 6.71109 15.7815 6.63021 15.5345 6.79198C15.2891 6.95375 15.2062 7.27729 15.3704 7.51995L15.9456 8.49057C15.3703 8.895 14.878 9.38031 14.4669 9.94651L13.4805 9.38031C13.2335 9.21854 12.9052 9.29943 12.7403 9.54208C12.5762 9.78474 12.6582 10.1083 12.9052 10.2701L13.8916 10.8363C13.5625 11.4833 13.3976 12.1304 13.3164 12.7775H12.165C11.9189 12.7775 11.6719 13.0202 11.6719 13.2628C11.6719 13.5055 11.9189 13.7481 12.165 13.7481H13.3164C13.3976 14.4761 13.5625 15.1232 13.8916 15.6894L12.9052 16.2556C12.7403 16.4173 12.6582 16.66 12.7403 16.9027C12.9052 17.1453 13.2335 17.2262 13.4805 17.0644L14.4669 16.5791Z" fill="#081120"/>
<path d="M17.589 11.3234C17.9994 11.3234 18.3284 11.647 18.3284 12.0514C18.3284 12.4558 17.9994 12.7794 17.589 12.7794C17.1779 12.7794 16.8489 12.4558 16.8489 12.0514C16.8489 11.647 17.1779 11.3234 17.589 11.3234ZM17.589 13.75C18.5746 13.75 19.3148 13.022 19.3148 12.0514C19.3148 11.0808 18.5746 10.3528 17.589 10.3528C16.6027 10.3528 15.8633 11.0808 15.8633 12.0514C15.8633 13.022 16.6847 13.75 17.589 13.75Z" fill="#081120"/>
<path d="M41.591 9.54557C42.4124 9.54557 43.1534 10.1927 43.1534 11.0824C43.1534 11.9721 42.4953 12.6192 41.591 12.6192C40.7695 12.6192 40.0294 11.9721 40.0294 11.0824C40.0294 10.1927 40.6866 9.54557 41.591 9.54557ZM41.591 13.5898C42.9876 13.5898 44.1389 12.4574 44.1389 11.0824C44.1389 9.70734 42.9876 8.57495 41.591 8.57495C40.1935 8.57495 39.043 9.70734 39.043 11.0824C39.043 12.4574 40.1114 13.5898 41.591 13.5898Z" fill="#081120"/>
<path d="M4.02949 2.42375C5.1808 2.42375 6.0843 3.31349 6.0843 4.44589C6.0843 5.57828 5.1808 6.46802 4.02949 6.46802C2.87899 6.46802 1.97547 5.57828 1.97547 4.44589C1.97547 3.31349 2.96187 2.42375 4.02949 2.42375ZM4.02949 7.51953C5.75605 7.51953 7.15353 6.14448 7.15353 4.44589C7.15353 2.74729 5.75605 1.37224 4.02949 1.37224C2.30374 1.37224 0.90625 2.74729 0.90625 4.44589C0.90625 6.14448 2.38662 7.51953 4.02949 7.51953Z" fill="#081120"/>
</svg>
