<svg width="28" height="32" viewBox="0 0 28 32" fill="none" xmlns="http://www.w3.org/2000/svg">
<path d="M14.0625 4.10645C11.5449 4.10645 9.51892 6.12937 9.51892 8.64235C9.51892 11.1559 11.5449 13.1788 14.0625 13.1788C16.58 13.1788 18.6055 11.1559 18.6055 8.64235C18.6055 6.19078 16.58 4.10645 14.0625 4.10645ZM14.0625 14.5889C10.8082 14.5889 8.16797 11.9531 8.16797 8.70376C8.16797 5.45506 10.8082 2.81865 14.0625 2.81865C17.3163 2.81865 19.9568 5.45506 19.9568 8.70376C19.9568 11.8917 17.3163 14.5889 14.0625 14.5889Z" fill="#055346"/>
<path d="M13.4504 6.55921C13.4504 6.31357 13.8189 6.12994 14.2484 6.12994C14.6783 6.12994 14.9853 6.31357 14.9853 6.55921C14.9853 6.74284 14.6783 6.92707 14.1869 6.92707C13.8189 6.92707 13.4504 6.74284 13.4504 6.55921ZM12.6523 11.0957L12.6523 10.9115C13.6346 10.8501 13.6959 10.7887 13.6959 10.2986L13.6959 8.70434C13.6959 8.21427 13.6346 8.21426 12.7135 8.09144L12.7135 7.90721C13.5115 7.8464 14.1869 7.72358 14.8623 7.60137L14.8623 10.2372C14.8623 10.7887 14.9853 10.7887 15.9675 10.8501L15.9675 11.0343L12.6523 11.0957Z" fill="#055346"/>
<path d="M14.0633 1.4087C10.0723 1.4087 6.75671 4.658 6.75671 8.70382C6.75671 12.7496 10.0109 15.9989 14.0633 15.9989C18.0539 15.9989 21.3692 12.7496 21.3692 8.70382C21.3692 4.658 18.0539 1.4087 14.0633 1.4087ZM14.0633 17.2861C9.27421 17.2861 5.40625 13.4246 5.40625 8.64241C5.40625 3.86148 9.27421 -0.000722887 14.0633 -0.000722889C18.8523 -0.000722892 22.7205 3.86148 22.7205 8.64241C22.7205 13.4246 18.8523 17.2861 14.0633 17.2861Z" fill="#055346"/>
<path d="M13.8186 18.3897L14.3096 18.3897L14.3096 17.3475C14.1251 17.3475 14.0024 17.3475 13.8186 17.3475L13.8186 18.3897ZM14.985 19.7383L13.0816 19.7383C12.8975 19.7383 12.7132 19.6769 12.5904 19.5547C12.4676 19.4318 12.4062 19.2482 12.4062 19.064L12.4062 16.551C12.4062 16.3668 12.4676 16.1831 12.652 16.0603C12.7747 15.9375 13.02 15.8761 13.2044 15.8761C13.5112 15.9375 13.757 15.9375 14.0642 15.9375C14.3711 15.9375 14.6165 15.9375 14.9234 15.8761C15.108 15.8761 15.2919 15.9375 15.4764 16.0603C15.5988 16.1831 15.7218 16.3668 15.7218 16.551L15.7218 19.064C15.6603 19.4318 15.3534 19.7383 14.985 19.7383Z" fill="#055346"/>
<path d="M11.7909 19.7381L11.7909 28.5047C11.7909 29.6691 12.7734 30.589 14.0011 30.589C15.229 30.589 16.2119 29.6691 16.2119 28.5047L16.2119 19.7381L11.7909 19.7381ZM14.0011 31.999C12.0367 31.999 10.3789 30.4662 10.3789 28.5047L10.3789 19.0638C10.3789 18.696 10.6858 18.3895 11.0543 18.3895L16.8873 18.3895C17.2551 18.3895 17.562 18.696 17.562 19.0638L17.562 28.5047C17.6235 30.4048 15.9659 31.999 14.0011 31.999Z" fill="#055346"/>
<path d="M14.0019 26.6039C14.5448 26.6039 14.9844 27.0435 14.9844 27.5847C14.9844 28.127 14.5448 28.5654 14.0019 28.5654C13.4596 28.5654 13.0195 28.127 13.0195 27.5847C13.0195 27.0435 13.4596 26.6039 14.0019 26.6039Z" fill="#055346"/>
<path d="M25.3587 26.0527C25.1742 26.0527 24.9903 25.9913 24.8672 25.8685C24.6218 25.6235 24.6218 25.1334 24.8672 24.8884L25.6041 24.1526L19.4644 24.1526C19.096 24.1526 18.7891 23.8456 18.7891 23.4777C18.7891 23.1105 19.096 22.8034 19.4644 22.8034L27.2623 22.8034C27.5687 22.8034 27.8147 22.9877 27.8756 23.2327C27.9986 23.4777 27.9371 23.7842 27.7532 23.9684L25.7886 25.9305C25.7271 25.9305 25.5426 26.0527 25.3587 26.0527Z" fill="#055346"/>
<path d="M27.3236 24.0918C27.1397 24.0918 26.9552 24.0304 26.8328 23.9076L24.8677 21.9461C24.6222 21.7004 24.6222 21.2104 24.8677 20.9653C25.1137 20.7197 25.6045 20.7197 25.8505 20.9653L27.8151 22.9268C28.0605 23.1719 28.0605 23.6625 27.8151 23.9076C27.6921 24.0304 27.5082 24.0918 27.3236 24.0918Z" fill="#055346"/>
<path d="M2.64284 29.2412C2.45826 29.2412 2.27435 29.1798 2.15133 29.057L0.186722 27.0955C0.00256779 26.9119 -0.058999 26.6048 0.063953 26.3598C0.186722 26.1141 0.4322 25.9311 0.677678 25.9311L8.47541 25.9311C8.8439 25.9311 9.15077 26.2369 9.15077 26.6048C9.15077 26.9727 8.8439 27.2791 8.47541 27.2791L2.33549 27.2791L3.07241 28.0148C3.31795 28.2605 3.31795 28.7505 3.07241 28.9962C3.01108 29.1798 2.82669 29.2412 2.64284 29.2412Z" fill="#055346"/>
<path d="M0.679153 27.3408C0.495304 27.3408 0.311149 27.2794 0.188197 27.1572C-0.0575241 26.9122 -0.0575241 26.4215 0.188197 26.1764L2.15281 24.2143C2.39859 23.9693 2.88979 23.9693 3.13527 24.2143C3.38099 24.46 3.38099 24.9501 3.13527 25.1957L1.17066 27.1572C1.04764 27.2794 0.863794 27.3408 0.679153 27.3408Z" fill="#055346"/>
</svg>
