<svg width="44" height="43" viewBox="0 0 44 43" fill="none" xmlns="http://www.w3.org/2000/svg">
<path d="M37.6589 36.2205H3.44545V24.6112H30.3783C30.6128 24.6112 30.8473 24.379 30.8473 24.1468C30.8473 23.9146 30.6128 23.6824 30.3783 23.6824H3.44545V19.1935C4.22792 20.1996 5.48095 20.8188 6.89033 20.8188C9.08217 20.8188 36.4067 20.8188 37.7379 20.8188V26.6234H35.3099C33.4308 26.6234 31.8658 28.1714 31.8658 30.0288C31.8658 31.8863 33.4308 33.4342 35.3099 33.4342H37.7379V36.2205H37.6589ZM35.5452 41.0964H5.48096C4.30609 41.0964 3.36728 40.1677 3.36728 39.0067V37.2266H37.6589V39.0067C37.6589 40.1677 36.7193 41.0964 35.5452 41.0964ZM6.81216 13.0018H10.7268V14.9367H8.29969C8.06441 14.9367 7.8299 15.1689 7.8299 15.4011C7.8299 15.6333 8.06441 15.8655 8.29969 15.8655C11.3529 15.8655 31.7095 15.8655 35.2318 15.8655V19.7352H6.81216C4.93299 19.7352 3.36728 18.1873 3.36728 16.3298C3.44545 14.5497 4.93299 13.0018 6.81216 13.0018ZM11.7446 2.86303H24.5063C24.5063 5.33968 24.5063 12.6149 24.5063 14.9367H11.7446V2.86303ZM30.2994 6.26842V15.0141H25.367V6.26842H30.2994ZM35.2318 13.0018V14.9367H31.3179V13.0018H35.2318ZM39.6162 32.3507H35.2318C33.9014 32.3507 32.8054 31.2672 32.8054 29.9514C32.8054 28.6357 33.9014 27.5522 35.2318 27.5522H39.6162V32.3507ZM40.086 33.3568C40.3213 33.3568 40.5558 33.1247 40.5558 32.8925V27.0878C40.5558 26.8556 40.3213 26.6234 40.086 26.6234H38.5985V20.3544C38.5985 20.1222 38.3632 19.89 38.1295 19.89H36.1714V12.6149C36.1714 12.3827 35.9369 12.1505 35.7016 12.1505H31.3179V5.88145C31.3179 5.64926 31.0826 5.41708 30.8473 5.41708H25.4459V2.47605C25.4459 2.24386 25.2106 2.01167 24.9753 2.01167H11.2748C11.0395 2.01167 10.805 2.24386 10.805 2.47605V12.1505H6.89033C4.4632 12.1505 2.50586 14.0854 2.50586 16.4846V39.0841C2.50586 40.7868 3.91525 42.1025 5.55913 42.1025H35.6234C37.3462 42.1025 38.6774 40.7094 38.6774 39.0841V33.4342L40.086 33.3568Z" fill="white"/>
<path d="M35.2309 30.4157C34.9964 30.4157 34.7611 30.1835 34.7611 29.9514C34.7611 29.7192 34.9964 29.487 35.2309 29.487C35.4662 29.487 35.7007 29.7192 35.7007 29.9514C35.7007 30.1835 35.4662 30.4157 35.2309 30.4157ZM35.2309 28.4808C34.4484 28.4808 33.7441 29.1 33.7441 29.9514C33.7441 30.7253 34.3695 31.4219 35.2309 31.4219C36.0141 31.4219 36.7184 30.8027 36.7184 29.9514C36.7184 29.1 36.0141 28.4808 35.2309 28.4808Z" fill="white"/>
<path d="M29.5937 -0.000540733C29.983 -0.000540733 30.298 0.311363 30.298 0.696019C30.298 1.08067 29.983 1.39258 29.5937 1.39258C29.2044 1.39258 28.8887 1.08067 28.8887 0.696019C28.8887 0.311363 29.2044 -0.000540733 29.5937 -0.000540733Z" fill="white"/>
<path d="M40.8691 22.2123C41.2584 22.2123 41.5734 22.5243 41.5734 22.9089C41.5734 23.2936 41.2584 23.6055 40.8691 23.6055C40.4798 23.6055 40.1641 23.2936 40.1641 22.9089C40.1641 22.5243 40.4798 22.2123 40.8691 22.2123Z" fill="white"/>
<path d="M41.8078 10.1381C42.1971 10.1381 42.5129 10.45 42.5129 10.8347C42.5129 11.2193 42.1971 11.5312 41.8078 11.5312C41.4193 11.5312 41.1035 11.2193 41.1035 10.8347C41.1035 10.45 41.4193 10.1381 41.8078 10.1381Z" fill="white"/>
<path d="M8.53438 1.93403C8.92368 1.93403 9.23867 2.24593 9.23867 2.63059C9.23867 3.01524 8.92368 3.32715 8.53438 3.32715C8.14509 3.32715 7.83008 3.01524 7.83008 2.63059C7.83008 2.24593 8.14509 1.93403 8.53438 1.93403Z" fill="white"/>
<path d="M0.704288 12.0737C1.09359 12.0737 1.40937 12.3856 1.40937 12.7702C1.40937 13.1549 1.09359 13.4668 0.704288 13.4668C0.314988 13.4668 0 13.1549 0 12.7702C0 12.3856 0.314988 12.0737 0.704288 12.0737Z" fill="white"/>
<path d="M0.704288 32.892C1.09359 32.892 1.40937 33.2039 1.40937 33.5886C1.40937 33.9733 1.09359 34.2852 0.704288 34.2852C0.314988 34.2852 0 33.9733 0 33.5886C0 33.2039 0.314988 32.892 0.704288 32.892Z" fill="white"/>
<path d="M40.3984 34.2856C40.787 34.2856 41.1027 34.5975 41.1027 34.9822C41.1027 35.3668 40.787 35.6787 40.3984 35.6787C40.0091 35.6787 39.6934 35.3668 39.6934 34.9822C39.6934 34.5975 40.0091 34.2856 40.3984 34.2856Z" fill="white"/>
<path d="M13.7022 14.0078H22.5493C22.7838 14.0078 23.0191 13.7756 23.0191 13.5434C23.0191 13.3113 22.7838 13.0791 22.5493 13.0791H13.7022C13.4669 13.0791 13.2324 13.3113 13.2324 13.5434C13.2324 13.7756 13.3888 14.0078 13.7022 14.0078Z" fill="white"/>
<path d="M13.7022 12.0732H22.5493C22.7838 12.0732 23.0191 11.8411 23.0191 11.6089C23.0191 11.3767 22.7838 11.1445 22.5493 11.1445H13.7022C13.4669 11.1445 13.2324 11.3767 13.2324 11.6089C13.2324 11.8411 13.3888 12.0732 13.7022 12.0732Z" fill="white"/>
<path d="M13.7022 10.1387H22.5493C22.7838 10.1387 23.0191 9.90649 23.0191 9.6743C23.0191 9.44211 22.7838 9.20993 22.5493 9.20993H13.7022C13.4669 9.20993 13.2324 9.44211 13.2324 9.6743C13.2324 9.90649 13.3888 10.1387 13.7022 10.1387Z" fill="white"/>
<path d="M38.1286 1.85713C40.007 1.85713 41.5727 3.40504 41.5727 5.26253C41.5727 7.12002 40.007 8.66793 38.1286 8.66793C36.2494 8.66793 34.6829 7.12002 34.6829 5.26253C34.6829 3.40504 36.2494 1.85713 38.1286 1.85713ZM38.1286 9.59668C40.5549 9.59668 42.5123 7.66179 42.5123 5.26253C42.5123 2.86327 40.5549 0.928385 38.1286 0.928385C35.7007 0.928385 33.7441 2.86327 33.7441 5.26253C33.7441 7.66179 35.7007 9.59668 38.1286 9.59668Z" fill="white"/>
<path d="M37.8147 4.64392C37.7373 4.56652 37.7373 4.48913 37.7373 4.41173C37.7373 4.25694 37.8937 4.10215 38.1289 4.10215V4.79871C37.9711 4.72132 37.8937 4.72132 37.8147 4.64392ZM38.3627 5.80485C38.5198 5.88225 38.598 5.88225 38.6769 5.95964C38.7543 6.03704 38.8332 6.11443 38.8332 6.19183C38.8332 6.34662 38.6769 6.50141 38.4416 6.50141V5.80485H38.3627ZM37.0323 6.03704L36.6406 6.81099C37.0322 7.12058 37.5802 7.27537 38.05 7.27537V7.89453H38.4416V7.27537C38.9896 7.27537 39.4594 7.04318 39.6939 6.6562C39.8502 6.34662 39.8502 5.95964 39.6939 5.65006C39.6157 5.41788 39.3812 5.26308 39.0678 5.10829C38.7543 4.9535 38.4416 4.87611 38.3627 4.87611V4.10215C38.7543 4.17955 39.2249 4.41173 39.2249 4.48913L39.6157 3.71517C39.4594 3.63778 39.3023 3.56038 39.0678 3.48299C38.8332 3.40559 38.598 3.3282 38.3627 3.3282V2.78643H37.971V3.3282C37.4231 3.40559 37.0322 3.63778 36.7977 4.10215C36.6406 4.41173 36.6406 4.79871 36.7977 5.0309C36.8751 5.26308 37.1104 5.41788 37.3457 5.57267C37.6584 5.72746 37.9711 5.80485 38.05 5.80485V6.50141C37.5802 6.42402 37.1104 6.11443 37.0323 6.03704Z" fill="white"/>
<path d="M3.44487 2.39944C4.7753 2.39944 5.87199 3.48298 5.87199 4.7987C5.87199 6.11442 4.7753 7.19796 3.44487 7.19796C2.11367 7.19796 1.01774 6.11442 1.01774 4.7987C0.939574 3.48298 2.0355 2.39944 3.44487 2.39944ZM3.44487 8.2041C5.32404 8.2041 6.88975 6.65619 6.88975 4.7987C6.88975 2.94121 5.32404 1.3933 3.44487 1.3933C1.56571 1.3933 0 2.94121 0 4.7987C0 6.65619 1.56571 8.2041 3.44487 8.2041Z" fill="white"/>
<path d="M41.5736 17.3359C40.7911 17.3359 40.0861 16.7167 40.0861 15.8654C40.0861 15.014 40.7122 14.3949 41.5736 14.3949C42.3561 14.3949 43.0619 15.014 43.0619 15.8654C43.0619 16.7167 42.3561 17.3359 41.5736 17.3359ZM41.5736 13.4661C40.2424 13.4661 39.1465 14.5497 39.1465 15.8654C39.1465 17.1811 40.2424 18.2646 41.5736 18.2646C42.9048 18.2646 44.0007 17.1811 44.0007 15.8654C44.0007 14.5497 42.9048 13.4661 41.5736 13.4661Z" fill="white"/>
<path d="M19.5718 30.4157H5.87121V26.546H19.5718V30.4157ZM20.0416 25.6172H5.40144C5.16615 25.6172 4.93164 25.8494 4.93164 26.0816V30.9575C4.93164 31.1897 5.16615 31.4219 5.40144 31.4219H20.1197C20.355 31.4219 20.5895 31.1897 20.5895 30.9575V26.0816C20.5114 25.772 20.355 25.6172 20.0416 25.6172Z" fill="white"/>
<path d="M20.0416 32.3506H5.40144C5.16615 32.3506 4.93164 32.5827 4.93164 32.8149C4.93164 33.0471 5.16615 33.2793 5.40144 33.2793H20.1197C20.355 33.2793 20.5895 33.0471 20.5895 32.8149C20.5114 32.5827 20.355 32.3506 20.0416 32.3506Z" fill="white"/>
</svg>
