<svg width="32" height="32" viewBox="0 0 32 32" fill="none" xmlns="http://www.w3.org/2000/svg">
<path d="M16.062 11.1385C13.7853 11.1385 11.9395 13.0459 11.9395 15.3848C11.9395 17.7231 13.7853 19.6305 16.062 19.6305C18.3393 19.6305 20.185 17.7231 20.185 15.3848C20.185 13.0459 18.3393 11.1385 16.062 11.1385ZM16.062 21.0459C13.0467 21.0459 10.5234 18.5227 10.5234 15.3848C10.5234 12.2457 12.9851 9.72251 16.062 9.72251C19.1388 9.72251 21.6005 12.2457 21.6005 15.3848C21.6005 18.5227 19.0778 21.0459 16.062 21.0459Z" fill="#055346"/>
<path d="M31.2614 16.3691C30.8921 16.3691 30.5845 16.0609 30.5845 15.6923C30.5845 7.69167 24.3074 1.41533 16.3079 1.41533C8.06119 1.41533 1.35381 7.81496 1.35381 15.6923C1.35381 16.0609 1.04618 16.3691 0.676297 16.3691C0.307632 16.3691 0 16.0609 0 15.6923C0 11.446 1.72246 7.50794 4.8616 4.5538C6.3387 3.13837 8.12346 2.03057 10.0309 1.23039C11.9999 0.430822 14.1533 -8.58307e-05 16.3079 -8.58307e-05C25.1076 -8.58307e-05 32 6.8921 32 15.6306C32 16.0609 31.6923 16.3691 31.2614 16.3691Z" fill="#055346"/>
<path d="M13.1093 27.9996H18.8938V22.7072C18.8938 22.4612 19.0788 22.2146 19.2631 22.0919C21.7858 20.8615 23.4478 18.2766 23.4478 15.4458C23.4478 11.3844 20.1249 8.06162 16.0629 8.06162C12.0015 8.06162 8.67863 11.3844 8.67863 15.4458C8.67863 18.2156 10.2168 20.7382 12.74 22.0309C12.986 22.1536 13.1093 22.3996 13.1093 22.6455V27.9996ZM19.5707 29.415H12.4318C12.0631 29.415 11.7555 29.1074 11.7555 28.7382V23.0765C8.98627 21.5384 7.32422 18.6465 7.32422 15.4458C7.32422 10.6459 11.2629 6.70783 16.0629 6.70783C20.8629 6.70783 24.8016 10.6459 24.8016 15.4458C24.8016 17.1071 24.309 18.7691 23.4478 20.184C22.6476 21.4151 21.5398 22.4612 20.2476 23.1381V28.7382C20.2476 29.0458 19.94 29.415 19.5707 29.415Z" fill="#055346"/>
<path d="M15.0756 30.584H16.922V29.3541H15.0756V30.584ZM17.5989 32H14.337C13.9684 32 13.6602 31.6924 13.6602 31.3225V28.7382C13.6602 28.369 13.9684 28.0607 14.337 28.0607H17.5989C17.9675 28.0607 18.2752 28.369 18.2752 28.7382V31.3225C18.3374 31.6924 18.0292 32 17.5989 32Z" fill="#055346"/>
<path d="M15.0174 29.415C14.6475 29.415 14.3398 29.1074 14.3398 28.7382V15.0148C14.3398 14.6462 14.6475 14.3379 15.0174 14.3379C15.386 14.3379 15.6937 14.6462 15.6937 15.0148V28.6765C15.6937 29.0458 15.386 29.415 15.0174 29.415Z" fill="#055346"/>
<path d="M16.9849 29.415C16.6162 29.415 16.3086 29.1074 16.3086 28.7382V15.0148C16.3086 14.6462 16.6162 14.3379 16.9849 14.3379C17.3548 14.3379 17.6618 14.6462 17.6618 15.0148V28.6765C17.6618 29.0458 17.3548 29.415 16.9849 29.415Z" fill="#055346"/>
<path d="M15.6919 5.96973C15.3226 5.96973 15.0156 5.66149 15.0156 5.29283V2.70795C15.0156 2.33869 15.3226 2.03108 15.6919 2.03108C16.0612 2.03108 16.3688 2.33869 16.3688 2.70795V5.29283C16.3688 5.66149 16.0612 5.96973 15.6919 5.96973Z" fill="#055346"/>
<path d="M22.708 8.12305C22.5847 8.12305 22.462 8.06201 22.3387 8.00036C22.0311 7.81543 21.9084 7.3845 22.1544 7.01585L23.5692 4.86189C23.7542 4.55426 24.1851 4.43158 24.5538 4.67756C24.9236 4.92353 24.9853 5.29281 24.7387 5.66146L23.3233 7.81542C23.2006 8.00036 22.954 8.12305 22.708 8.12305Z" fill="#055346"/>
<path d="M19.6306 6.58496C19.569 6.58496 19.5073 6.58496 19.4457 6.58496C19.077 6.46228 18.831 6.09241 18.9537 5.72375L19.569 3.20052C19.6923 2.83125 20.0609 2.58466 20.4308 2.70796C20.7995 2.7696 21.0455 3.20052 20.9228 3.56918L20.3069 6.09241C20.2459 6.40003 19.9383 6.58496 19.6306 6.58496Z" fill="#055346"/>
<path d="M25.3542 11.1387C25.1699 11.1387 24.9239 11.0154 24.8006 10.8927C24.554 10.5851 24.6157 10.1542 24.9239 9.90758L26.954 8.30782C27.2622 8.06184 27.6925 8.12288 27.9385 8.4305C28.1851 8.73873 28.1235 9.16904 27.8158 9.41563L25.7851 11.0154C25.6618 11.1387 25.4775 11.1387 25.3542 11.1387Z" fill="#055346"/>
<path d="M9.29118 8.12305C9.04459 8.12305 8.86025 8.00036 8.67592 7.81542L7.25985 5.66146C7.07551 5.35384 7.13718 4.92353 7.44481 4.67756C7.75243 4.43158 8.18335 4.55426 8.42933 4.86189L9.84478 7.07749C10.0297 7.3845 9.96807 7.81543 9.66044 8.06201C9.53715 8.12305 9.41447 8.12305 9.29118 8.12305Z" fill="#055346"/>
<path d="M12.3675 6.58496C12.0599 6.58496 11.7523 6.40003 11.6906 6.03138L11.0748 3.50814C10.9521 3.13888 11.1987 2.7696 11.5673 2.64692C11.9372 2.58466 12.3059 2.76961 12.4286 3.13887L13.0444 5.66149C13.1671 6.03137 12.9211 6.40002 12.5519 6.52331C12.4908 6.58496 12.4286 6.58496 12.3675 6.58496Z" fill="#055346"/>
<path d="M6.64684 11.1387C6.46189 11.1387 6.33921 11.077 6.21591 10.9537L4.18461 9.35398C3.87759 9.10801 3.81593 8.67709 4.06191 8.36946C4.30789 8.06184 4.7388 8.0002 5.04643 8.24678L7.07714 9.84655C7.38537 10.0925 7.44641 10.5234 7.20043 10.831C7.07714 11.077 6.83056 11.1387 6.64684 11.1387Z" fill="#055346"/>
<path d="M29.3531 28.7383H24.1216C23.7529 28.7383 23.4453 28.4307 23.4453 28.0608C23.4453 27.6921 23.7529 27.3845 24.1216 27.3845H29.3531C29.7217 27.3845 30.03 27.6921 30.03 28.0608C30.03 28.4307 29.7217 28.7383 29.3531 28.7383Z" fill="#055346"/>
<path d="M31.2634 32H21.5402C21.1715 32 20.8633 31.6924 20.8633 31.3225C20.8633 30.9538 21.1715 30.6462 21.5402 30.6462H31.325C31.6943 30.6462 32.0019 30.9538 32.0019 31.3225C32.0019 31.6924 31.6943 32 31.2634 32Z" fill="#055346"/>
<path d="M29.3531 28.7383H24.1216C23.7529 28.7383 23.4453 28.4307 23.4453 28.0608C23.4453 27.6921 23.7529 27.3845 24.1216 27.3845H29.3531C29.7217 27.3845 30.03 27.6921 30.03 28.0608C30.03 28.4307 29.7217 28.7383 29.3531 28.7383Z" fill="#055346"/>
<path d="M31.2634 32H21.5402C21.1715 32 20.8633 31.6924 20.8633 31.3225C20.8633 30.9538 21.1715 30.6462 21.5402 30.6462H31.325C31.6943 30.6462 32.0019 30.9538 32.0019 31.3225C32.0019 31.6924 31.6943 32 31.2634 32Z" fill="#055346"/>
<path d="M8.49373 28.7383H3.26283C2.89356 28.7383 2.58594 28.4307 2.58594 28.0608C2.58594 27.6921 2.89356 27.3845 3.26283 27.3845H8.49373C8.863 27.3845 9.17062 27.6921 9.17062 28.0608C9.17062 28.4307 8.92465 28.7383 8.49373 28.7383Z" fill="#055346"/>
<path d="M10.4618 32H0.676297C0.307632 32 0 31.6924 0 31.3225C0 30.9538 0.307632 30.6462 0.676297 30.6462H10.4618C10.8304 30.6462 11.1381 30.9538 11.1381 31.3225C11.1381 31.6924 10.8304 32 10.4618 32Z" fill="#055346"/>
</svg>
