<svg width="44" height="44" viewBox="0 0 44 44" fill="none" xmlns="http://www.w3.org/2000/svg">
<path d="M26.8246 19.2C26.9838 19.2 27.1005 19.3497 27.0616 19.5041L21.837 40.2583C21.775 40.5047 21.425 40.5047 21.363 40.2583L16.1384 19.5041C16.0995 19.3497 16.2162 19.2 16.3754 19.2H26.8246ZM20.244 6C20.1416 6 20.05 6.06384 20.0146 6.15993L16.4119 15.9377C16.3531 16.0973 16.4712 16.2667 16.6413 16.2667H26.5587C26.7288 16.2667 26.8469 16.0973 26.7881 15.9377L23.1854 6.15993C23.15 6.06384 23.0584 6 22.956 6H20.244ZM30.0134 16.1067C30.0488 16.2028 30.1403 16.2667 30.2428 16.2667H38.8627C39.029 16.2667 39.1465 16.1041 39.0826 15.9506C38.9568 15.6484 38.7967 15.3608 38.6054 15.0933L33.3571 7.8436C32.9447 7.27354 32.4004 6.80885 31.7693 6.4882C31.1382 6.16754 30.4387 6.00017 29.7289 6H26.6401C26.47 6 26.3519 6.16937 26.4107 6.32896L30.0134 16.1067ZM30.3898 19.2C30.2775 19.2 30.1796 19.2765 30.1526 19.3856L26.3552 34.6988C26.2922 34.9529 26.6188 35.1148 26.7829 34.9109L38.4836 20.3733C38.6898 20.1104 38.8645 19.8253 39.0045 19.5237C39.0761 19.3694 38.9585 19.2 38.7884 19.2H30.3898ZM13.0474 19.3856C13.0204 19.2765 12.9225 19.2 12.8102 19.2H4.41355C4.24291 19.2 4.12528 19.3704 4.19787 19.5248C4.33943 19.826 4.51532 20.1106 4.72237 20.3733L16.4169 34.9102C16.581 35.1142 16.9076 34.9523 16.8446 34.6982L13.0474 19.3856ZM12.9573 16.2667C13.0597 16.2667 13.1513 16.2028 13.1867 16.1067L16.7893 6.32895C16.8481 6.16937 16.73 6 16.5599 6H13.4711C12.7613 6.00017 12.0618 6.16754 11.4307 6.4882C10.7997 6.80885 10.2553 7.27354 9.84288 7.8436L4.59454 15.0933C4.40272 15.3607 4.24254 15.6484 4.11688 15.9509C4.05312 16.1043 4.17063 16.2667 4.3368 16.2667H12.9573Z" fill="#AAD406"/>
</svg>
