<svg width="47" height="35" viewBox="0 0 47 35" fill="none" xmlns="http://www.w3.org/2000/svg">
<path d="M40.3041 2.60617C37.773 4.1676 35.2418 5.72902 32.7107 7.29045C30.1466 8.88475 27.5826 10.479 25.0186 12.0733C23.5722 12.9773 22.1259 13.8813 20.6795 14.7853C20.8932 14.7689 21.1068 14.7524 21.3205 14.736C18.7565 13.1417 16.1842 11.5474 13.6038 9.95309C11.0726 8.37523 8.53327 6.80559 5.98568 5.24416C4.57218 4.37305 3.1669 3.50193 1.76983 2.63082C1.85201 2.82805 1.93419 3.02529 2.01637 3.22253C2.03281 2.68014 2.04925 2.14596 2.06568 1.62001C1.83558 1.86655 1.59727 2.1213 1.35073 2.38428C6.44589 2.28567 11.5493 2.21171 16.6609 2.1624C21.7232 2.12953 26.7855 2.13774 31.8478 2.18705C34.7076 2.20349 37.5675 2.23637 40.4274 2.28567C40.2466 2.12131 40.0576 1.96517 39.8603 1.81724C39.8768 2.34319 39.8932 2.87737 39.9097 3.41976C39.9097 3.78957 40.3288 3.9868 40.6493 3.86353C41.0191 3.7156 41.1917 3.3458 41.1917 2.95134C41.1752 2.40895 41.1588 1.87478 41.1424 1.34882C41.1424 1.02832 40.8465 0.855741 40.5753 0.855741C35.4801 0.77356 30.385 0.73247 25.2898 0.73247C20.2111 0.716034 15.1405 0.740685 10.0782 0.806429C7.21838 0.855738 4.35851 0.90504 1.49864 0.954348C1.15349 0.954348 0.808325 1.39813 0.783671 1.71863C0.767235 2.26102 0.750811 2.79519 0.734375 3.32115C0.734375 3.56769 0.783683 3.78957 0.980915 3.91284C3.49563 5.45783 6.01033 7.01104 8.52505 8.57246C11.0891 10.1503 13.6449 11.7364 16.1924 13.3307C17.6388 14.2182 19.0934 15.114 20.5562 16.018C20.7534 16.1413 21 16.092 21.1726 15.9687C23.753 14.3744 26.3253 12.7719 28.8893 11.1611C31.4369 9.58328 33.9844 8.00542 36.532 6.42756C37.962 5.54001 39.3837 4.66068 40.7972 3.78957C41.1177 3.59233 41.2903 3.12391 41.1424 2.77876C40.9944 2.4336 40.6 2.40894 40.3041 2.60617Z" fill="#1499FC"/>
<path d="M35.5188 12.1973C33.2506 12.1973 30.9825 12.9122 29.1087 14.2189C27.2597 15.5502 25.8051 17.4239 24.9915 19.5688C24.1779 21.7384 24.0547 24.1791 24.6464 26.4227C25.2134 28.5922 26.4215 30.5892 28.1472 32.0438C29.8484 33.4984 31.9686 34.4106 34.1875 34.5832C36.5543 34.7557 38.8964 34.164 40.918 32.956C42.8657 31.7972 44.4929 30.0222 45.479 27.9759C46.4899 25.831 46.8843 23.4149 46.4406 21.0727C45.9968 18.8785 44.8873 16.8322 43.2602 15.279C41.6084 13.7258 39.5374 12.6657 37.2939 12.3205C36.7022 12.2384 36.1105 12.1973 35.5188 12.1973C35.1736 12.1973 34.8778 12.5917 34.8532 12.9122C34.8285 13.2574 35.0257 13.5286 35.3955 13.5286C35.527 13.5286 35.6585 13.5286 35.79 13.5286C35.8229 13.5286 35.8557 13.5368 35.8886 13.5532C35.8146 13.5286 35.864 13.5532 35.8886 13.5532C35.9708 13.5532 36.053 13.5532 36.1351 13.5532C36.3981 13.5861 36.6611 13.619 36.9241 13.6518C37.45 13.7505 37.9678 13.882 38.4773 14.0463C38.995 14.1942 39.3648 14.3422 39.8579 14.6134C40.3181 14.8435 40.7619 15.1064 41.1892 15.4023C41.4193 15.5502 41.633 15.7064 41.8302 15.8707C41.8795 15.92 41.9206 15.9611 41.9535 15.994C42.0521 16.0679 41.9042 15.9447 41.9781 16.0186C42.011 16.0351 42.0357 16.0515 42.0521 16.0679C42.1507 16.1501 42.2493 16.2405 42.348 16.3391C42.726 16.7007 43.0712 17.087 43.3834 17.4979C43.5314 17.6951 43.6793 17.8923 43.8272 18.0896C43.8929 18.2046 43.9587 18.3115 44.0244 18.4101C43.9751 18.3361 44.0491 18.4594 44.0737 18.4841C44.1066 18.5498 44.1477 18.6155 44.197 18.6813C44.4436 19.1415 44.6572 19.6181 44.838 20.1112C44.9202 20.3413 45.0024 20.5797 45.0846 20.8262C45.0846 20.8508 45.1092 20.9495 45.0846 20.9002C45.0846 20.8262 45.1092 20.9248 45.1092 20.9248C45.1257 20.9905 45.1421 21.0481 45.1585 21.0974C45.1914 21.2453 45.2161 21.385 45.2325 21.5165C45.3311 22.0425 45.3886 22.5684 45.4051 23.0944C45.4051 23.1272 45.4133 23.1601 45.4297 23.193C45.4297 23.193 45.4297 23.2916 45.4297 23.2423C45.4297 23.1683 45.4297 23.2916 45.4297 23.3163C45.4297 23.3491 45.4297 23.3738 45.4297 23.3902C45.4133 23.5381 45.4051 23.6861 45.4051 23.834C45.3886 24.097 45.364 24.3599 45.3311 24.6229C45.3147 24.7544 45.29 24.8859 45.2571 25.0174C45.2571 25.0831 45.2489 25.1489 45.2325 25.2146C45.2161 25.2311 45.2078 25.2557 45.2078 25.2886C45.1832 25.4858 45.2325 25.2146 45.2078 25.3379C45.1421 25.5844 45.0763 25.831 45.0106 26.0775C44.9284 26.3405 44.838 26.6035 44.7394 26.8664C44.6901 26.9815 44.6408 27.0966 44.5915 27.2116C44.5586 27.2774 44.534 27.3349 44.5175 27.3842C44.4682 27.4581 44.5175 27.3595 44.5175 27.3349C44.5011 27.3842 44.4847 27.4253 44.4682 27.4581C44.2381 27.9348 43.9751 28.3868 43.6793 28.8141C43.6135 28.9292 43.5396 29.036 43.4574 29.1346C43.441 29.151 43.4245 29.1757 43.4081 29.2086C43.3341 29.2825 43.4821 29.11 43.4081 29.2086C43.3752 29.2579 43.3341 29.3072 43.2848 29.3565C43.1205 29.5702 42.9479 29.7756 42.7671 29.9729C42.5863 30.1536 42.4055 30.3344 42.2247 30.5152C42.1261 30.6138 42.0275 30.7043 41.9289 30.7864C41.9042 30.8111 41.8056 30.8851 41.8796 30.8111C41.8302 30.8604 41.7727 30.9179 41.707 30.9837C41.2961 31.3124 40.8605 31.6082 40.4003 31.8712C40.2853 31.9369 40.1702 32.0027 40.0551 32.0684C40.0058 32.1013 39.9565 32.126 39.9072 32.1424C39.9072 32.1424 39.8086 32.1917 39.8826 32.1671C39.9319 32.1424 39.8333 32.1917 39.8086 32.1917C39.5785 32.3068 39.332 32.4218 39.069 32.5369C38.5759 32.7341 38.0746 32.8985 37.5651 33.03C37.5322 33.03 37.4993 33.03 37.4665 33.03C37.4007 33.0464 37.335 33.0628 37.2692 33.0793C37.1377 33.1121 36.998 33.1368 36.8501 33.1532C36.5871 33.2025 36.3242 33.2354 36.0612 33.2519C35.7818 33.2683 35.5024 33.2765 35.223 33.2765C35.0915 33.2765 34.9682 33.2765 34.8532 33.2765C34.8203 33.2765 34.7874 33.2765 34.7545 33.2765C34.8285 33.2765 34.7299 33.2765 34.7299 33.2765C34.6641 33.2601 34.5902 33.2519 34.508 33.2519C33.982 33.2025 33.4643 33.1121 32.9548 32.9806C32.6918 32.9149 32.437 32.841 32.1905 32.7588C32.059 32.7259 31.9357 32.6848 31.8207 32.6355C31.7221 32.6109 31.8453 32.6355 31.7467 32.6108C31.681 32.578 31.6235 32.5533 31.5742 32.5369C31.0975 32.3232 30.6373 32.0849 30.1935 31.8219C29.9799 31.674 29.7662 31.526 29.5525 31.3781C29.4539 31.2959 29.3553 31.222 29.2567 31.1563C29.2074 31.1234 29.1581 31.0823 29.1087 31.033C29.0923 31.0166 29.0759 31.0001 29.0594 30.9837C29.0348 30.9837 28.9362 30.8851 29.0101 30.959C28.6321 30.6139 28.2705 30.2523 27.9254 29.8742C27.5966 29.4798 27.2926 29.0607 27.0132 28.6169C26.9803 28.5676 26.9474 28.5183 26.9145 28.469C26.9638 28.5429 26.8899 28.4196 26.8899 28.4196C26.8077 28.2881 26.7337 28.1649 26.668 28.0498C26.5529 27.8197 26.4379 27.5814 26.3228 27.3349C26.2242 27.1048 26.1338 26.8664 26.0516 26.6199C26.0023 26.4884 25.9612 26.3651 25.9284 26.2501C25.9119 26.1843 25.8955 26.1268 25.8791 26.0775C25.8626 26.0446 25.8544 26.0035 25.8544 25.9542C25.8298 25.9296 25.8298 25.8803 25.8298 25.9296C25.6983 25.4201 25.5997 24.8941 25.5339 24.3517C25.5175 24.0723 25.501 23.7929 25.4846 23.5135C25.4846 23.4888 25.4846 23.3409 25.4846 23.4395C25.4846 23.3738 25.4846 23.308 25.4846 23.2423C25.4846 23.0944 25.4928 22.9547 25.5093 22.8232C25.5257 22.2808 25.5914 21.7466 25.7065 21.2207C25.7311 21.122 25.7065 21.2206 25.7065 21.2453C25.7065 21.196 25.7147 21.1549 25.7311 21.122C25.7476 21.0563 25.764 20.9988 25.7805 20.9495C25.8133 20.818 25.8462 20.6783 25.8791 20.5303C25.9448 20.2838 26.027 20.0455 26.1256 19.8154C26.1749 19.6839 26.2242 19.5606 26.2735 19.4456C26.29 19.3962 26.3146 19.3469 26.3475 19.2976C26.3639 19.2483 26.3804 19.2072 26.3968 19.1744C26.4215 19.0758 26.3228 19.2976 26.3722 19.199C26.4954 18.9771 26.594 18.7306 26.742 18.5087C26.857 18.2786 26.9885 18.0567 27.1364 17.843C27.2186 17.7444 27.2926 17.6458 27.3583 17.5472C27.3912 17.4979 27.4241 17.4486 27.4569 17.3993C27.5062 17.3253 27.4323 17.4239 27.4323 17.4239C27.4651 17.391 27.4898 17.3582 27.5062 17.3253C27.835 16.9144 28.1883 16.5364 28.5664 16.1912C28.6485 16.109 28.7307 16.0269 28.8129 15.9447C28.8376 15.92 28.9855 15.7968 28.9362 15.8461C28.8622 15.8954 29.0101 15.7721 29.0348 15.7721C29.232 15.6077 29.4375 15.4434 29.6511 15.279C29.8648 15.1475 30.0785 15.016 30.2922 14.8846C30.4072 14.8188 30.5222 14.7531 30.6373 14.6873C30.6866 14.6709 30.7359 14.6462 30.7852 14.6134C30.662 14.6627 30.8592 14.5641 30.8838 14.5641C31.3605 14.3339 31.8453 14.1367 32.3384 13.9723C32.4699 13.9395 32.5932 13.9066 32.7082 13.8737C32.774 13.8573 32.8315 13.8409 32.8808 13.8244C32.9137 13.808 32.9465 13.7998 32.9794 13.7998C32.9794 13.7998 33.1274 13.7751 33.0287 13.7751C33.2753 13.7258 33.53 13.6847 33.793 13.6518C34.319 13.5697 34.8531 13.5286 35.3955 13.5286C35.7407 13.5286 36.0365 13.1341 36.0612 12.8136C36.0858 12.4438 35.864 12.1973 35.5188 12.1973Z" fill="#1499FC"/>
<path d="M35.3949 17.0542C36.5537 17.0542 37.6878 17.3747 38.6986 17.9664C38.6986 17.6048 38.6904 17.2515 38.6739 16.9063C36.1592 19.4046 33.6445 21.9111 31.1298 24.4258C30.423 25.1325 29.7081 25.8475 28.9849 26.5707C29.2972 26.5871 29.6095 26.6036 29.9218 26.62C29.3547 25.6339 29.0342 24.5737 29.0095 23.4396C28.9849 22.5274 29.1328 21.8125 29.4533 20.9989C29.4862 20.9167 29.5191 20.8263 29.5519 20.7277C29.5766 20.703 29.6506 20.5304 29.5766 20.6784C29.593 20.6291 29.6177 20.5798 29.6506 20.5305C29.7492 20.3332 29.856 20.1442 29.9711 19.9634C30.0368 19.8648 30.1026 19.7744 30.1683 19.6922C30.193 19.6429 30.3655 19.421 30.2669 19.5443C30.3984 19.3799 30.5381 19.2156 30.686 19.0512C30.834 18.9033 30.9819 18.7554 31.1298 18.6074C31.1298 18.6074 31.2777 18.4842 31.1545 18.5828C31.1873 18.5499 31.2202 18.5252 31.2531 18.5088C31.3517 18.4266 31.4585 18.3445 31.5736 18.2623C31.7379 18.1472 31.9023 18.0404 32.0666 17.9418C32.1653 17.876 32.2639 17.8185 32.3625 17.7692C32.3871 17.7445 32.4611 17.7199 32.3625 17.7692C32.4282 17.7363 32.5022 17.7034 32.5844 17.6706C32.798 17.572 33.0117 17.4816 33.2254 17.3994C33.3569 17.3501 33.4801 17.309 33.5952 17.2761C33.6445 17.2597 33.6938 17.2515 33.7431 17.2515C33.776 17.235 33.8171 17.2186 33.8664 17.2022C33.8007 17.2186 33.8089 17.2186 33.8911 17.2022C34.3841 17.1035 34.8854 17.0542 35.3949 17.0542C35.7648 17.0542 36.0359 16.6351 36.0606 16.3146C36.1099 15.9694 35.888 15.6982 35.5429 15.6982C33.5212 15.7229 31.5982 16.5365 30.1683 17.9418C28.7384 19.3224 27.8508 21.2947 27.8015 23.2917C27.7522 24.7216 28.0973 26.1516 28.8123 27.3843C29.0342 27.7541 29.4287 27.7294 29.7245 27.4336C32.2392 24.9353 34.7621 22.4288 37.2933 19.9141C38 19.2073 38.7068 18.5006 39.4136 17.7938C39.6848 17.5473 39.7834 16.9556 39.4136 16.7337C38.2302 16.0681 36.8988 15.7229 35.5429 15.6982C35.1731 15.6982 34.9019 16.1174 34.8772 16.4379C34.8279 16.783 35.0498 17.0542 35.3949 17.0542Z" fill="#1499FC"/>
<path d="M35.4461 29.7756C34.2874 29.7756 33.1779 29.4551 32.1918 28.8881C32.1918 29.2332 32.1918 29.5784 32.1918 29.9236C34.7065 27.4089 37.2294 24.8941 39.7605 22.3794C40.4837 21.6727 41.1987 20.9659 41.9055 20.2592C41.6096 20.2427 41.3055 20.2263 40.9933 20.2099C41.5603 21.1467 41.8562 22.1822 41.9055 23.267C41.9055 23.6861 41.8562 24.1545 41.7822 24.5983C41.7658 24.6476 41.7576 24.7051 41.7576 24.7709C41.7822 24.6229 41.7329 24.8202 41.7329 24.8202C41.7 24.9188 41.6754 25.0174 41.6589 25.116C41.5932 25.3297 41.5192 25.5351 41.437 25.7324C41.3877 25.8474 41.3384 25.9625 41.2891 26.0775C41.3138 26.0529 41.3631 25.9296 41.2891 26.0529C41.2727 26.1022 41.248 26.1597 41.2151 26.2255C41.1165 26.4062 41.0097 26.5953 40.8947 26.7925C40.8289 26.8911 40.7632 26.9815 40.6974 27.0637C40.681 27.0966 40.6563 27.1294 40.6234 27.1623C40.5002 27.3349 40.7221 27.0637 40.5988 27.2116C40.4673 27.376 40.3276 27.5403 40.1797 27.7047C40.0318 27.8526 39.8756 28.0005 39.7113 28.1485C39.7113 28.1485 39.5633 28.2717 39.6373 28.2224C39.7112 28.1485 39.5633 28.2717 39.588 28.2717C39.4894 28.3375 39.3908 28.4114 39.2921 28.4936C39.1114 28.6087 38.9305 28.7237 38.7497 28.8388C38.6676 28.8881 38.5854 28.9374 38.5032 28.9867C38.4785 28.9867 38.306 29.0853 38.4293 29.036C38.3799 29.0524 38.3306 29.0771 38.2813 29.11C37.8129 29.3319 37.3445 29.4798 36.876 29.6031C36.9747 29.5784 36.8267 29.6031 36.8021 29.6277C36.7363 29.6277 36.6706 29.6359 36.6048 29.6524C36.4898 29.6688 36.3665 29.6852 36.235 29.7017C35.9721 29.7346 35.7091 29.7592 35.4461 29.7756C34.7311 29.7756 34.4599 31.107 35.2982 31.107C39.4154 31.033 42.9656 27.5568 43.0888 23.4395C43.1382 22.0343 42.8177 20.6536 42.1027 19.4456C41.8808 19.0758 41.4864 19.0758 41.1658 19.3716C38.6511 21.8863 36.1282 24.3928 33.597 26.8911C32.8903 27.6143 32.1753 28.3293 31.4521 29.036C31.2056 29.3072 31.0823 29.8743 31.4521 30.0961C32.6355 30.7865 33.9422 31.107 35.2982 31.107C35.6433 31.107 35.9392 30.6878 35.9639 30.3673C36.0132 30.0222 35.7912 29.7756 35.4461 29.7756Z" fill="#1499FC"/>
<path d="M35.5435 15.7217C33.5218 15.7217 31.5988 16.5353 30.1689 17.9406C28.739 19.3212 27.8761 21.2936 27.8021 23.2905C27.7774 24.7205 28.0979 26.1258 28.8129 27.3831C29.0348 27.7529 29.4293 27.7283 29.7251 27.4324C32.2398 24.9177 34.7627 22.4112 37.2939 19.9129C38.0006 19.2062 38.7074 18.4994 39.4142 17.7927C39.6854 17.5215 39.784 16.9544 39.4142 16.7572C38.2308 16.0669 36.8994 15.7217 35.5435 15.7217C35.1983 15.6971 34.9025 16.1162 34.8778 16.4367C34.8285 16.7819 35.0504 17.0284 35.3955 17.0284C36.5543 17.0531 37.6884 17.3736 38.6992 17.9406C38.6992 17.5955 38.6992 17.2503 38.6992 16.9051C36.168 19.4034 33.6451 21.9099 31.1304 24.4246C30.4236 25.1314 29.7087 25.8463 28.9855 26.5695C29.2978 26.586 29.6101 26.6024 29.9224 26.6189C29.3553 25.6573 29.0348 24.5726 29.0101 23.4385C28.9855 22.5263 29.1334 21.8113 29.4293 20.9977C29.4786 20.8991 29.5197 20.8087 29.5525 20.7265C29.5525 20.7019 29.6512 20.5293 29.5772 20.6772C29.5936 20.6279 29.6183 20.5786 29.6512 20.5293C29.7498 20.3321 29.8566 20.143 29.9717 19.9622C30.0374 19.8636 30.1032 19.765 30.1689 19.6664C30.1936 19.6417 30.3661 19.4199 30.2428 19.5431C30.3908 19.3623 30.5387 19.198 30.6866 19.05C30.8181 18.9021 30.966 18.7542 31.1304 18.6063C31.1304 18.6063 31.2783 18.483 31.1551 18.5816C31.1879 18.5487 31.2208 18.5241 31.2537 18.5077C31.3523 18.4255 31.4591 18.3433 31.5742 18.2611C31.7221 18.1461 31.8864 18.0392 32.0672 17.9406C32.1659 17.8749 32.2645 17.8173 32.3631 17.768C32.3877 17.7434 32.4617 17.6941 32.3631 17.7434C32.4288 17.7105 32.5028 17.6776 32.585 17.6448C32.7986 17.5461 33.0123 17.464 33.226 17.3982C33.3575 17.3489 33.4807 17.3078 33.5958 17.2749C33.6451 17.2585 33.6944 17.2421 33.7437 17.2256C33.7766 17.2256 33.8177 17.2174 33.867 17.201C33.8013 17.2174 33.8095 17.2174 33.8917 17.201C34.3847 17.0859 34.886 17.0284 35.3955 17.0284C36.1105 17.0284 36.3817 15.6971 35.5435 15.7217Z" fill="#1499FC"/>
<path d="M25.461 23.3648C25.461 22.9867 25.4857 22.6005 25.535 22.206C25.5514 22.0417 25.5761 21.8691 25.6089 21.6883C25.6089 21.6061 25.6172 21.5239 25.6336 21.4417C25.65 21.3924 25.6582 21.3513 25.6582 21.3185C25.6829 21.2938 25.7075 21.0966 25.6829 21.2445C25.8308 20.5542 26.0609 19.8803 26.3732 19.2229C26.2992 19.3708 26.3732 19.1982 26.3979 19.1489C26.4472 19.0667 26.4883 18.9845 26.5211 18.9024C26.6033 18.7544 26.6937 18.5983 26.7923 18.4339C26.9567 18.1545 27.1375 17.8751 27.3347 17.5957C27.3594 17.571 27.4826 17.4231 27.3594 17.571C27.3758 17.5382 27.4005 17.5135 27.4333 17.4971C27.4826 17.4149 27.5402 17.3409 27.6059 17.2752C27.7045 17.1437 27.8196 17.0122 27.9511 16.8807C28.1647 16.6342 28.3948 16.3959 28.6414 16.1658C28.7071 16.1165 28.7729 16.0589 28.8386 15.9932C28.8633 15.9685 28.9372 15.9192 28.8386 15.9932C28.8715 15.9767 28.8961 15.9603 28.9126 15.9439C29.0605 15.8288 29.2084 15.7138 29.3563 15.5987C29.6358 15.3851 29.9234 15.196 30.2192 15.0317C30.3507 14.9495 30.4822 14.8673 30.6137 14.7851C30.663 14.7605 30.8849 14.6372 30.7616 14.7112C30.8274 14.6783 30.9013 14.6372 30.9835 14.5879C31.2958 14.44 31.6163 14.3085 31.945 14.1934C32.2573 14.0784 32.586 13.9716 32.9312 13.8729C32.9969 13.8565 33.0709 13.8401 33.1531 13.8236C33.1777 13.799 33.301 13.7743 33.1777 13.799C33.2106 13.799 33.2435 13.7907 33.2763 13.7743C33.4571 13.7414 33.6379 13.7086 33.8187 13.6757C34.509 13.5771 35.1994 13.536 35.8897 13.5524C35.9225 13.5524 35.9554 13.5524 35.9883 13.5524C36.1362 13.5524 35.939 13.5524 36.0622 13.5524C36.1773 13.5689 36.2841 13.5771 36.3827 13.5771C36.58 13.61 36.769 13.6346 36.9498 13.651C37.3443 13.7168 37.7305 13.799 38.1085 13.8976C38.3222 13.9633 38.5194 14.0291 38.7002 14.0948C38.7989 14.1277 38.8975 14.1606 38.9961 14.1934C39.0454 14.2099 39.0947 14.2263 39.144 14.2427C39.0454 14.2181 39.1933 14.2674 39.218 14.2674C39.6124 14.4318 39.9987 14.6208 40.3767 14.8344C40.7712 15.0563 41.3136 14.6126 41.2889 14.1934C41.2643 10.8898 41.1903 7.56149 41.141 4.25784C41.1246 3.35386 41.1163 2.44165 41.1163 1.52123C41.1163 1.20073 40.9684 0.929543 40.5986 0.929543C39.2919 0.954197 37.9852 0.880232 36.6786 0.880232C33.5886 0.830923 30.4904 0.806272 27.384 0.806272C23.6037 0.789836 19.8317 0.789836 16.0678 0.806272C12.8135 0.839144 9.55915 0.880235 6.30482 0.929543C4.72696 0.954197 3.1491 0.929534 1.57124 1.02815C1.53836 1.02815 1.51371 1.02815 1.49728 1.02815C1.17677 1.0528 0.856278 1.39797 0.856278 1.71848C0.782316 4.06061 0.683694 6.40275 0.634386 8.76954C0.53577 12.8128 0.502892 16.8561 0.535764 20.8994C0.5522 22.1978 0.568639 23.5045 0.585075 24.8193C0.585075 25.0166 0.593302 25.2138 0.609738 25.411C0.585084 25.0659 0.609738 25.3371 0.609738 25.411C0.609738 25.4604 0.609738 25.5014 0.609738 25.5343C0.609738 25.6329 0.61795 25.7233 0.634386 25.8055C0.667258 26.0356 0.71656 26.2575 0.782304 26.4712C0.88092 26.841 1.0535 27.1861 1.27538 27.5066C1.66985 28.123 2.26156 28.6407 2.95187 28.9612C3.29703 29.1092 3.66684 29.2324 4.0613 29.3064C4.55438 29.3804 5.04746 29.3557 5.56519 29.3557C7.66901 29.3721 9.78104 29.3886 11.9013 29.405C16.1582 29.4379 20.4151 29.4543 24.6721 29.4543C25.198 29.4543 25.7322 29.4543 26.2746 29.4543C26.6937 29.4543 27.0882 28.8133 26.8663 28.4435C25.9787 26.8903 25.461 25.1399 25.461 23.3648C25.461 23.0689 25.3131 22.7484 24.9433 22.7731C24.6228 22.7977 24.3023 23.1429 24.3023 23.488C24.3023 25.485 24.7953 27.4327 25.8062 29.1585C26.0034 28.8297 26.2006 28.4928 26.3979 28.1476C22.1902 28.1641 17.9908 28.1559 13.7997 28.123C11.7123 28.123 9.62489 28.1066 7.53752 28.0737C7.01156 28.0737 6.48561 28.0737 5.95965 28.0737C5.69668 28.0573 5.44192 28.049 5.19538 28.049C5.0639 28.049 4.93241 28.049 4.80092 28.049C4.72696 28.049 4.7023 28.049 4.57903 28.0244C4.41467 28.0079 4.25031 27.9751 4.08595 27.9257C3.86407 27.8764 3.7901 27.8518 3.61752 27.7778C3.46959 27.7121 3.3299 27.6381 3.19841 27.5559C3.13267 27.5066 3.0587 27.4491 2.97652 27.3834C2.96008 27.3669 2.93543 27.3423 2.90256 27.3094C2.86969 27.293 2.84504 27.2765 2.8286 27.2601C2.86147 27.293 2.86147 27.293 2.8286 27.2601C2.69711 27.145 2.58206 27.03 2.48344 26.9149C2.43413 26.8492 2.38483 26.7835 2.33552 26.7177C2.30265 26.6849 2.26977 26.6438 2.2369 26.5945C2.2369 26.5698 2.16294 26.4958 2.21225 26.5451C2.11363 26.3972 2.03145 26.2411 1.96571 26.0767C1.94927 25.9945 1.92461 25.9206 1.89174 25.8548C1.8753 25.8055 1.86709 25.7644 1.86709 25.7315C1.89174 25.8302 1.84244 25.6822 1.84244 25.6576C1.79313 25.4604 1.79312 25.2878 1.76847 25.1152C1.76847 25.0659 1.76847 24.9426 1.76847 25.1399C1.76847 25.1152 1.76847 25.0166 1.76847 24.9919C1.76847 24.9755 1.76847 24.9673 1.76847 24.9673C1.76847 24.8851 1.76847 24.8029 1.76847 24.7207C1.75203 24.3263 1.74382 23.9318 1.74382 23.5373C1.74382 23.4059 1.74382 23.2661 1.74382 23.1182C1.74382 23.0196 1.74382 23.1182 1.74382 23.1429C1.74382 23.11 1.74382 23.0689 1.74382 23.0196C1.72738 22.9374 1.71917 22.847 1.71917 22.7484C1.71917 22.3868 1.71917 22.0252 1.71917 21.6636C1.6863 17.7354 1.70272 13.8154 1.76847 9.90362C1.81777 7.19167 1.89995 4.47151 2.01501 1.74312C2.01501 1.71025 2.01501 1.66916 2.01501 1.61985C1.80134 1.84996 1.58768 2.08006 1.37401 2.31017C1.69451 2.28551 2.06432 2.31017 2.40948 2.28552C3.36277 2.26908 4.31605 2.25264 5.26934 2.23621C8.37575 2.1869 11.4739 2.14581 14.5639 2.11294C18.3442 2.08006 22.1245 2.07185 25.9048 2.08829C29.1427 2.08829 32.3888 2.11294 35.6431 2.16225C36.7115 2.16225 37.7798 2.17046 38.8482 2.1869C39.3659 2.21155 39.8836 2.23621 40.4014 2.21156C40.4178 2.21156 40.4342 2.21156 40.4507 2.21156C40.2863 2.01433 40.1137 1.81709 39.9329 1.61985C39.9576 4.94816 40.0562 8.2518 40.1055 11.5554C40.1219 12.4759 40.1302 13.3881 40.1302 14.2921C40.4424 14.0784 40.7547 13.8647 41.067 13.651C38.3797 12.1718 35.1747 11.8513 32.2409 12.7882C29.4303 13.7004 26.9649 15.722 25.5843 18.36C24.746 19.9378 24.3023 21.6883 24.3023 23.488C24.3023 23.7839 24.4502 24.1044 24.82 24.0797C25.1405 24.0551 25.461 23.7099 25.461 23.3648Z" fill="#1499FC"/>
<path d="M18.0653 11.5306C18.657 11.9579 19.2405 12.3771 19.8158 12.788C20.087 12.9852 20.3582 13.2564 20.6787 13.3304C20.9745 13.3797 21.2704 13.281 21.5169 13.1085C22.084 12.7633 22.6017 12.3442 23.1441 11.999C23.7358 11.6374 24.3357 11.3005 24.9438 10.9882C25.2643 10.8403 24.9685 10.3472 24.648 10.4951C23.5303 11.054 22.4702 11.7114 21.4676 12.4675C21.2704 12.5907 20.9992 12.8373 20.7526 12.7387C20.6294 12.6893 20.4814 12.5907 20.3828 12.4921C20.2513 12.4099 20.1198 12.3195 19.9884 12.2209C19.446 11.8265 18.8954 11.432 18.3365 11.0375C18.0407 10.8156 17.7695 11.3087 18.0653 11.5306Z" fill="#1499FC"/>
<path d="M3.56838 28.2465C4.09433 27.7041 4.69425 27.2521 5.36812 26.8905C5.68862 26.7179 5.39277 26.2248 5.07227 26.3974C4.3573 26.7919 3.7163 27.285 3.14926 27.852C2.90272 28.1232 3.32184 28.5177 3.56838 28.2465Z" fill="#1499FC"/>
<path d="M5.29275 28.6651C5.96663 28.057 6.67337 27.4981 7.41299 26.9886C7.70884 26.7667 7.41299 26.2737 7.11714 26.4955C6.34465 27.0379 5.60502 27.6296 4.89828 28.2706C4.60243 28.4925 5.02155 28.887 5.29275 28.6651Z" fill="#1499FC"/>
<path d="M8.22474 28.7642C8.76713 28.0493 9.45744 27.4822 10.2464 27.0878C10.5669 26.9152 10.271 26.4221 9.95052 26.5947C9.06298 27.0385 8.32335 27.6795 7.73166 28.493C7.63304 28.6163 7.73166 28.8135 7.85493 28.8628C8.00285 28.9615 8.15078 28.8875 8.22474 28.7642Z" fill="#1499FC"/>
<path d="M11.1866 28.8624C11.8605 28.2214 12.5672 27.6051 13.3068 27.0134C13.4055 26.9148 13.4794 26.7422 13.3808 26.6189C13.3068 26.4957 13.1096 26.4217 12.9863 26.5203C12.2303 27.1449 11.4906 27.7941 10.7675 28.468C10.4963 28.7392 10.9154 29.1336 11.1866 28.8624Z" fill="#1499FC"/>
<path d="M14.0205 28.9615C14.6615 28.148 15.4505 27.4823 16.338 26.9646C16.6585 26.7673 16.3627 26.2742 16.0422 26.4715C15.1053 27.0139 14.2671 27.7288 13.6261 28.5671C13.3795 28.8629 13.7986 29.2574 14.0205 28.9615Z" fill="#1499FC"/>
<path d="M16.7324 29.1091C17.4228 28.3202 18.1788 27.6052 19.0006 26.9642C19.2965 26.7423 19.0006 26.2492 18.7048 26.4711C17.8337 27.145 17.0365 27.8928 16.3133 28.7146C16.0668 28.9858 16.4859 29.3803 16.7324 29.1091Z" fill="#1499FC"/>
<path d="M19.6677 28.6897C20.5389 27.9172 21.4264 27.1858 22.3304 26.4955C22.6262 26.2736 22.3304 25.7805 22.0345 26.0024C21.0812 26.7256 20.1608 27.4898 19.2733 28.2952C18.9774 28.5417 19.3966 28.9362 19.6677 28.6897Z" fill="#1499FC"/>
<path d="M22.3555 28.8876C22.9637 28.1973 23.5718 27.507 24.1799 26.8167C24.4265 26.5455 24.0074 26.151 23.7608 26.4222C23.1527 27.1125 22.5446 27.8028 21.9364 28.4932C21.7145 28.7644 22.109 29.1588 22.3555 28.8876Z" fill="#1499FC"/>
<path d="M24.0821 26.9891C24.378 26.6275 24.6738 26.2741 24.9697 25.9289C25.2162 25.6331 24.7971 25.2386 24.5505 25.5345C24.2547 25.8796 23.9588 26.233 23.663 26.5946C23.4411 26.8658 23.8356 27.2603 24.0821 26.9891Z" fill="#1499FC"/>
<path d="M2.16378 27.0133C2.2624 26.8654 2.38567 26.7175 2.53359 26.6189C2.65686 26.5202 2.70616 26.3477 2.6322 26.2244C2.55824 26.1011 2.36101 26.0272 2.23774 26.1258C2.00763 26.2901 1.81862 26.4956 1.6707 26.7421C1.59674 26.8901 1.64605 27.0626 1.79397 27.1366C1.91724 27.2106 2.08982 27.1612 2.16378 27.0133Z" fill="#1499FC"/>
<path d="M35.2715 28.7891C37.0959 26.8332 38.9121 24.8691 40.72 22.8967C40.9666 22.6256 40.5721 22.2311 40.3009 22.5023C38.493 24.4746 36.6768 26.4387 34.8524 28.3946C34.6058 28.6658 35.025 29.0603 35.2715 28.7891Z" fill="#1499FC"/>
<path d="M30.1949 22.4528C30.1456 21.7625 30.4661 21.1215 30.8359 20.5544C31.1564 20.0614 31.5509 19.6176 32.0193 19.2478C32.9315 18.5082 34.0656 18.0397 35.249 17.9165C35.6188 17.8918 35.5941 17.3248 35.2243 17.3494C33.893 17.4727 32.6356 17.9904 31.6002 18.8533C31.0824 19.2724 30.6387 19.7655 30.2935 20.3326C29.8744 20.9736 29.5539 21.7132 29.6278 22.4775C29.6525 22.8473 30.2196 22.8226 30.1949 22.4528Z" fill="#1499FC"/>
<path d="M42.3016 9.13966C42.318 9.99434 42.3427 10.849 42.3755 11.7037C42.392 11.9174 42.4002 12.1228 42.4002 12.32C42.4248 12.5419 42.4002 12.7638 42.4495 12.961C42.5728 13.2815 42.9179 13.4048 43.1891 13.5527C44.3725 14.2431 45.3587 15.2292 46.049 16.388C46.2462 16.7085 46.7393 16.4126 46.542 16.0921C45.8764 14.958 44.9395 13.9965 43.8301 13.2815C43.6822 13.1829 43.5425 13.1007 43.411 13.035C43.3124 12.961 43.0658 12.8871 43.0165 12.7885C42.9672 12.7638 42.9919 12.6159 42.9919 12.5666C42.9919 12.4515 42.9836 12.3365 42.9672 12.2214C42.9672 12.0242 42.959 11.8187 42.9426 11.6051C42.9261 10.7833 42.9015 9.96147 42.8686 9.13966C42.844 8.76985 42.2769 8.76985 42.3016 9.13966Z" fill="#1499FC"/>
</svg>
