<svg width="44" height="44" viewBox="0 0 44 44" fill="none" xmlns="http://www.w3.org/2000/svg">
<path d="M28.25 13.9875V10.75L32 7V12H37L33.25 15.75H30.0125L24.4 21.3625C24.45 21.5625 24.4875 21.775 24.4875 22C24.4875 23.375 23.3625 24.5 21.9875 24.5C20.6125 24.5 19.4875 23.375 19.4875 22C19.4875 20.625 20.6125 19.5 21.9875 19.5C22.2125 19.5 22.425 19.5375 22.625 19.5875L28.2375 13.975L28.25 13.9875ZM34.2875 18.25H32.6125C33.0125 19.4125 33.25 20.65 33.25 21.95C32.6875 36.9 11.3125 36.9 10.75 21.95C10.75 15.725 15.8 10.6625 22 10.6625C23.3125 10.6625 24.575 10.9 25.75 11.325V9.7125L27.4875 7.975C18.875 4.7875 7.475 9.4375 7 21.95C7 30.25 13.725 37 22 37C30.275 37 37 30.25 37 21.95C36.925 19.95 36.5625 18.15 35.975 16.55L34.2875 18.2375V18.25ZM21.7375 16.9625L25 13.7C24.1125 13.3875 23.1125 13.2 22 13.175C10.4375 13.5375 10.4375 30.3625 22 30.7375C29.0875 30.5125 31.825 24.1 30.225 19.0875L26.9125 22.4C26.725 24.7125 25.1 26.8875 22 26.975C15.2875 26.825 14.7 17.45 21.725 16.975L21.7375 16.9625Z" fill="#AAD406"/>
</svg>
