<svg width="33" height="36" viewBox="0 0 33 36" fill="none" xmlns="http://www.w3.org/2000/svg">
<path d="M13.9923 3.8262H17.4616V1.16711H13.9923V3.8262ZM18.0529 4.99414H13.4003C13.0736 4.99414 12.8086 4.73256 12.8086 4.41017V0.583162C12.8086 0.260775 13.0736 -0.000809193 13.4003 -0.000809193H18.0529C18.3795 -0.000809193 18.6445 0.260775 18.6445 0.583162V4.41017C18.6445 4.73256 18.3795 4.99414 18.0529 4.99414Z" fill="#0B3CDC"/>
<path d="M1.18368 3.8262H4.65287V1.16711H1.18368V3.8262ZM5.24411 4.99414H0.591903C0.264859 4.99414 0 4.73256 0 4.41017V0.583162C0 0.260775 0.264859 -0.000809193 0.591903 -0.000809193H5.24411C5.57116 -0.000809193 5.83577 0.260775 5.83577 0.583162V4.41017C5.83577 4.73256 5.57116 4.99414 5.24411 4.99414Z" fill="#0B3CDC"/>
<path d="M15.3235 29.0948H17.3052V26.8303C17.3052 26.5463 17.5119 26.3035 17.7947 26.2549C19.014 26.0447 20.1523 25.5787 21.1789 24.869C21.415 24.707 21.7337 24.7348 21.9368 24.9347L23.5604 26.5373L24.9637 25.1523L23.34 23.5493C23.1374 23.3489 23.1089 23.0339 23.2739 22.8013C23.9887 21.7937 24.4609 20.669 24.678 19.4603C24.7276 19.1816 24.9732 18.9783 25.2609 18.9783H27.5552V17.0224H25.2609C24.9732 17.0224 24.7276 16.8192 24.678 16.5405C24.4613 15.3325 23.9887 14.207 23.2735 13.1954C23.1089 12.9632 23.1378 12.6481 23.3404 12.4482L24.9628 10.8456L23.5604 9.46304L21.9368 11.0656C21.7337 11.266 21.4133 11.2937 21.1785 11.1305C20.1581 10.4224 19.0194 9.95682 17.7947 9.74543C17.5119 9.69728 17.3052 9.45447 17.3052 9.17044V6.90598H15.321V9.17044C15.321 9.45447 15.1143 9.69687 14.8311 9.74543C13.6097 9.95682 12.4711 10.4228 11.447 11.1313C11.2121 11.2937 10.8925 11.266 10.6891 11.0656L9.06586 9.46344L7.66507 10.8464L9.28913 12.4518C9.49213 12.6522 9.51983 12.9681 9.35445 13.2003C8.63752 14.207 8.16535 15.3301 7.95159 16.5388C7.90198 16.8184 7.65597 17.0224 7.36862 17.0224H5.07394V18.9783H7.36862C7.65597 18.9783 7.90198 19.1824 7.95159 19.4615C8.16535 20.6703 8.63752 21.7937 9.35445 22.8009C9.51983 23.0327 9.49213 23.3485 9.28913 23.5493L7.66507 25.1523L9.06586 26.5369L10.6891 24.9347C10.8921 24.7348 11.2117 24.707 11.4465 24.869C12.4587 25.5681 13.63 26.0476 14.834 26.2549C15.1172 26.3035 15.3235 26.5463 15.3235 26.8303V29.0948ZM17.8969 30.2627H14.7319C14.4052 30.2627 14.1406 30.0011 14.1406 29.6787V27.3074C13.1016 27.0711 12.0948 26.6597 11.1844 26.0978L9.48386 27.7758C9.37306 27.8852 9.22297 27.9468 9.06586 27.9468H9.06545C8.90875 27.9468 8.75783 27.8852 8.64703 27.7758L6.41023 25.5648C6.17869 25.3371 6.17952 24.9674 6.41023 24.7393L8.10954 23.062C7.53483 22.1602 7.12385 21.1828 6.88446 20.1463H4.48228C4.15565 20.1463 3.89062 19.8847 3.89062 19.5623V16.4384C3.89062 16.1156 4.15565 15.8545 4.48228 15.8545H6.88446C7.12385 14.8175 7.53483 13.8401 8.10954 12.9387L6.40982 11.2582C6.17869 11.0305 6.17952 10.6608 6.41023 10.4326L8.64744 8.22492C8.87856 7.9968 9.25315 7.9968 9.48386 8.22492L11.184 9.90213C12.0994 9.33448 13.0892 8.92927 14.1373 8.69258V6.322C14.1373 5.99962 14.4023 5.73763 14.729 5.73763H17.8969C18.2235 5.73763 18.4885 5.99962 18.4885 6.322V8.69258C19.5387 8.92886 20.5289 9.33407 21.4423 9.90213L23.1424 8.22492C23.3731 7.9968 23.7477 7.99679 23.9784 8.2245L26.2185 10.4322C26.3297 10.5424 26.3917 10.691 26.3917 10.8456C26.3922 11.0003 26.3297 11.1492 26.2185 11.2586L24.5188 12.9367C25.0923 13.8414 25.5028 14.8192 25.7439 15.8545H28.1469C28.4735 15.8545 28.7385 16.1156 28.7385 16.4384V19.5623C28.7385 19.8847 28.4735 20.1463 28.1469 20.1463H25.7439C25.5028 21.1824 25.0923 22.159 24.5188 23.0608L26.2189 24.7393C26.45 24.9678 26.45 25.3371 26.2185 25.5652L23.9788 27.7758C23.7477 28.0039 23.3731 28.0039 23.1424 27.7758L21.4418 26.0986C20.5244 26.6667 19.535 27.0719 18.4885 27.3082V29.6787C18.4885 30.0011 18.2235 30.2627 17.8969 30.2627Z" fill="#0B3CDC"/>
<path d="M16.3096 11.8259C12.8609 11.8259 10.0548 14.5956 10.0548 17.9994C10.0548 21.4032 12.8609 24.1725 16.3096 24.1725C19.757 24.1725 22.5615 21.4032 22.5615 17.9994C22.5615 14.5956 19.757 11.8259 16.3096 11.8259ZM16.3096 25.3408C12.2081 25.3408 8.87109 22.0476 8.87109 17.9994C8.87109 13.9508 12.2081 10.6575 16.3096 10.6575C20.4094 10.6575 23.7452 13.9508 23.7452 17.9994C23.7452 22.0476 20.4094 25.3408 16.3096 25.3408Z" fill="#0B3CDC"/>
<path d="M16.3109 13.4369C13.7611 13.4369 11.6872 15.4846 11.6872 18.0009C11.6872 20.5175 13.7611 22.5645 16.3109 22.5645C18.8603 22.5645 20.9346 20.5175 20.9346 18.0009C20.9346 15.4846 18.8603 13.4369 16.3109 13.4369ZM16.3109 23.7324C13.1087 23.7324 10.5039 21.1615 10.5039 18.0009C10.5039 14.8403 13.1087 12.2685 16.3109 12.2685C19.5131 12.2685 22.1183 14.8403 22.1183 18.0009C22.1183 21.1615 19.5131 23.7324 16.3109 23.7324Z" fill="#0B3CDC"/>
<path d="M20.413 15.4004H12.2167C11.8896 15.4004 11.625 15.1388 11.625 14.816C11.625 14.4936 11.8896 14.232 12.2167 14.232H20.413C20.7401 14.232 21.0047 14.4936 21.0047 14.816C21.0047 15.1388 20.7401 15.4004 20.413 15.4004Z" fill="#0B3CDC"/>
<path d="M21.5267 18.584H11.0956C10.7689 18.584 10.5039 18.3224 10.5039 18C10.5039 17.6776 10.7689 17.416 11.0956 17.416H21.5267C21.8533 17.416 22.1183 17.6776 22.1183 18C22.1183 18.3224 21.8533 18.584 21.5267 18.584Z" fill="#0B3CDC"/>
<path d="M20.413 21.7676H12.2167C11.8896 21.7676 11.625 21.506 11.625 21.1832C11.625 20.8608 11.8896 20.5992 12.2167 20.5992H20.413C20.7401 20.5992 21.0047 20.8608 21.0047 21.1832C21.0047 21.506 20.7401 21.7676 20.413 21.7676Z" fill="#0B3CDC"/>
<path d="M16.316 13.4548C16.0079 13.6919 15.3712 15.1908 15.3712 18.0009C15.3712 20.8113 16.0079 22.3094 16.316 22.5465C16.6236 22.3094 17.2607 20.8113 17.2607 18.0009C17.2607 15.1904 16.6236 13.6919 16.316 13.4548ZM16.316 23.7324C14.6357 23.7324 14.1875 20.1294 14.1875 18.0009C14.1875 15.8719 14.6357 12.2685 16.316 12.2685C17.9958 12.2685 18.444 15.8719 18.444 18.0009C18.444 20.1294 17.9958 23.7324 16.316 23.7324Z" fill="#0B3CDC"/>
<path d="M12.8088 4.17812C6.43326 5.7472 1.87862 11.4494 1.87862 17.9999C1.87862 25.0182 7.03566 30.9493 13.9805 32.0581V31.5888C13.9805 31.2664 14.2455 31.0048 14.5721 31.0048H19.2252C19.5518 31.0048 19.8173 31.2664 19.8173 31.5888V31.8214C26.1903 30.2519 30.7445 24.5501 30.7445 17.9999C30.7445 10.9813 25.5879 5.05021 18.6447 3.94104V4.41073C18.6447 4.73312 18.3797 4.9947 18.053 4.9947H13.4004C13.0738 4.9947 12.8088 4.73312 12.8088 4.41073V4.17812ZM14.5721 33.3125C14.5498 33.3125 14.5271 33.3113 14.5048 33.3084C6.63213 32.4135 0.695312 25.8323 0.695312 17.9999C0.695312 10.6532 5.99086 4.2928 13.2867 2.87675C13.46 2.84288 13.6398 2.88816 13.7767 2.99876C13.9131 3.11016 13.9925 3.27544 13.9925 3.4501V3.82676H17.4618V3.27094C17.4618 3.10485 17.5333 2.94612 17.6594 2.83512C17.7855 2.72453 17.9526 2.67188 18.1208 2.69106C25.9922 3.58599 31.9274 10.1672 31.9274 17.9999C31.9274 25.3467 26.6335 31.7067 19.3397 33.1227C19.1656 33.1566 18.9862 33.1117 18.8494 33.0007C18.7129 32.8897 18.6335 32.724 18.6335 32.5498V32.1727H15.1642V32.7281C15.1642 32.895 15.0919 33.0534 14.9662 33.1644C14.857 33.2603 14.7169 33.3125 14.5721 33.3125Z" fill="#0B3CDC"/>
<path d="M27.9724 3.8262H31.4417V1.16711H27.9724V3.8262ZM32.0333 4.99414H27.3807C27.0541 4.99414 26.7891 4.73256 26.7891 4.41017V0.583162C26.7891 0.260775 27.0541 -0.000809193 27.3807 -0.000809193H32.0333C32.3604 -0.000809193 32.625 0.260775 32.625 0.583162V4.41017C32.625 4.73256 32.3604 4.99414 32.0333 4.99414Z" fill="#0B3CDC"/>
<path d="M15.1642 34.8321H18.6335V32.173H15.1642V34.8321ZM19.2252 36H14.5721C14.2455 36 13.9805 35.7384 13.9805 35.4164V31.589C13.9805 31.2666 14.2455 31.0051 14.5721 31.0051H19.2252C19.5518 31.0051 19.8172 31.2666 19.8172 31.589V35.4164C19.8172 35.7384 19.5518 36 19.2252 36Z" fill="#0B3CDC"/>
<path d="M27.9724 34.8321H31.4417V32.173H27.9724V34.8321ZM32.0333 36H27.3807C27.0541 36 26.7891 35.7384 26.7891 35.4164V31.589C26.7891 31.2666 27.0541 31.0051 27.3807 31.0051H32.0333C32.3604 31.0051 32.625 31.2666 32.625 31.589V35.4164C32.625 35.7384 32.3604 36 32.0333 36Z" fill="#0B3CDC"/>
<path d="M1.18368 34.8321H4.65287V32.173H1.18368V34.8321ZM5.24411 36H0.591903C0.264859 36 0 35.7384 0 35.4164V31.589C0 31.2666 0.264859 31.0051 0.591903 31.0051H5.24411C5.57116 31.0051 5.83577 31.2666 5.83577 31.589V35.4164C5.83577 35.7384 5.57116 36 5.24411 36Z" fill="#0B3CDC"/>
<path d="M27.3777 3.08008H18.0522C17.7255 3.08008 17.4609 2.81889 17.4609 2.49651C17.4609 2.17371 17.7255 1.91214 18.0522 1.91214H27.3777C27.7047 1.91214 27.9698 2.17371 27.9698 2.49651C27.9698 2.81889 27.7047 3.08008 27.3777 3.08008Z" fill="#0B3CDC"/>
<path d="M13.3998 3.08008H5.24359C4.91696 3.08008 4.65234 2.81889 4.65234 2.49651C4.65234 2.17371 4.91696 1.91214 5.24359 1.91214H13.3998C13.7269 1.91214 13.9919 2.17371 13.9919 2.49651C13.9919 2.81889 13.7269 3.08008 13.3998 3.08008Z" fill="#0B3CDC"/>
<path d="M14.5716 34.0859H5.24359C4.91696 34.0859 4.65234 33.8244 4.65234 33.502C4.65234 33.1792 4.91696 32.9172 5.24359 32.9172H14.5716C14.8986 32.9172 15.1636 33.1792 15.1636 33.502C15.1636 33.8244 14.8986 34.0859 14.5716 34.0859Z" fill="#0B3CDC"/>
<path d="M27.3803 34.0859H19.2245C18.8978 34.0859 18.6328 33.8244 18.6328 33.502C18.6328 33.1792 18.8978 32.9172 19.2245 32.9172H27.3803C27.7074 32.9172 27.972 33.1792 27.972 33.502C27.972 33.8244 27.7074 34.0859 27.3803 34.0859Z" fill="#0B3CDC"/>
</svg>
