<svg width="40" height="40" viewBox="0 0 40 40" fill="none" xmlns="http://www.w3.org/2000/svg">
<path d="M5.30927 34.7332C5.81625 35.2252 6.63571 35.2252 7.14268 34.7332L8.53913 33.3778L10.7771 31.2056L14.3895 34.7118C14.7019 35.0176 15.1583 35.1434 15.5876 35.0516C16.0193 34.9585 16.3733 34.6576 16.525 34.2524L20.7559 22.9652C21.1033 22.0364 20.8725 21.0258 20.1516 20.3262C19.4333 19.6277 18.3934 19.4024 17.4339 19.7422L5.80587 23.8474C5.38966 23.9934 5.07847 24.3381 4.98252 24.7572C4.88787 25.1776 5.01753 25.6168 5.33261 25.92L8.94497 29.4262L6.70702 31.5983L5.31057 32.9537C4.80359 33.4458 4.80229 34.2411 5.30927 34.7332ZM24.3682 23.7806C24.0933 23.1376 24.4071 22.4014 25.0683 22.1345C30.2509 20.0706 28.686 12.4355 23.0819 12.4493C20.9737 12.4493 19.091 13.6713 18.2858 15.5628C18.0122 16.2071 17.2524 16.5105 16.5924 16.2449C15.9298 15.9793 15.6161 15.2444 15.8897 14.6013C17.0968 11.7647 19.9195 9.93236 23.0819 9.93236C31.5242 9.97514 33.8439 21.2964 26.0629 24.4602C25.9008 24.5256 25.7323 24.5559 25.5662 24.5559C25.058 24.5559 24.5757 24.2652 24.3682 23.7806ZM21.7853 28.8095C21.7853 28.1136 22.3662 27.5511 23.0819 27.5511C36.8105 27.0779 36.808 7.88607 23.0819 7.4154C17.3626 7.4154 12.7091 11.9321 12.7091 17.4833C12.7091 18.1791 12.1295 18.7417 11.4124 18.7417C10.6954 18.7417 10.1158 18.1791 10.1158 17.4833C10.1158 10.544 15.9324 4.89844 23.0819 4.89844C40.2595 5.53146 40.2557 29.4376 23.0819 30.068C22.3662 30.068 21.7853 29.5055 21.7853 28.8095Z" fill="#AAD406"/>
</svg>
