<svg width="36" height="44" viewBox="0 0 36 44" fill="none" xmlns="http://www.w3.org/2000/svg">
<path d="M2.09008 15.5578L17.9842 25.439L33.9104 15.6247L18.0158 5.98546L2.09008 15.5578ZM17.9827 26.9941C17.8506 26.9941 17.718 26.9582 17.6014 26.8854L0.337564 16.1529C0.125596 16.0202 -0.00198579 15.7903 2.33839e-05 15.5419C0.00203256 15.294 0.133127 15.0651 0.346602 14.9369L17.6446 4.53903C17.8747 4.40187 18.163 4.40236 18.3915 4.54052L35.6559 15.0107C35.8694 15.1404 35.9995 15.3693 36 15.6172C36.0015 15.8651 35.8724 16.0955 35.6604 16.2267L18.3614 26.8869C18.2454 26.9587 18.1138 26.9941 17.9827 26.9941Z" fill="#4E5A2A"/>
<path d="M2.09008 22.2562L17.9842 32.1348L33.9104 22.3235L29.8102 19.8346L18.3614 26.8887C18.1288 27.0324 17.8335 27.0319 17.6014 26.8872L6.18729 19.7932L2.09008 22.2562ZM17.9827 33.6895C17.8506 33.6895 17.718 33.6535 17.6014 33.5812L0.337564 22.8507C0.125596 22.72 -0.00198579 22.4886 2.33839e-05 22.2407C0.00203256 21.9928 0.133127 21.7634 0.346602 21.6357L5.82061 18.3443C6.05317 18.2042 6.344 18.2066 6.57455 18.3493L17.9842 25.4408L29.428 18.3897C29.6585 18.2475 29.9503 18.2466 30.1819 18.3872L35.6564 21.71C35.8694 21.8387 35.9995 22.0691 36 22.316C36.0015 22.5644 35.8724 22.7953 35.6604 22.9255L18.3614 33.5822C18.2454 33.654 18.1138 33.6895 17.9827 33.6895Z" fill="#4E5A2A"/>
<path d="M2.08956 28.9524L17.9842 38.8316L33.9104 29.0208L29.8102 26.5319L18.3614 33.5825C18.1288 33.7262 17.8335 33.7257 17.6014 33.5815L6.18728 26.4865L2.08956 28.9524ZM17.9827 40.3867C17.8506 40.3867 17.718 40.3498 17.6014 40.278L0.337554 29.5479C0.126088 29.4163 -0.00149368 29.1858 1.32017e-05 28.938C0.00202238 28.6901 0.133116 28.4607 0.346592 28.3325L5.8201 25.0376C6.05316 24.8979 6.34399 24.8999 6.57454 25.0436L17.9847 32.1351L29.4285 25.087C29.659 24.9453 29.9503 24.9443 30.1819 25.0845L35.6564 28.4073C35.8694 28.5365 35.9995 28.7659 36 29.0138C36.0015 29.2617 35.8724 29.4921 35.6604 29.6228L18.3614 40.279C18.2454 40.3503 18.1138 40.3867 17.9827 40.3867Z" fill="#4E5A2A"/>
<path d="M9.44506 15.631L17.9911 20.9434L26.5552 15.6669L18.0087 10.4832L9.44506 15.631ZM17.9896 22.498C17.857 22.498 17.7249 22.4621 17.6078 22.3893L7.69254 16.2255C7.48108 16.0944 7.35299 15.8634 7.35551 15.615C7.35651 15.3676 7.48762 15.1382 7.70159 15.01L17.638 9.03725C17.8675 8.89909 18.1559 8.89959 18.3854 9.03825L28.3012 15.0529C28.5147 15.1816 28.6443 15.412 28.6453 15.6594C28.6458 15.9073 28.5177 16.1377 28.3057 16.2689L18.3688 22.3908C18.2523 22.4626 18.1212 22.498 17.9896 22.498Z" fill="#4E5A2A"/>
<path d="M17.4598 15.6583C17.6265 15.8219 17.7024 16.0563 17.6622 16.2853C17.8701 16.1765 18.1193 16.1755 18.3282 16.2828C18.289 16.0548 18.3649 15.8209 18.5306 15.6583C18.2991 15.6229 18.0992 15.4778 17.9952 15.2703C17.8912 15.4778 17.6913 15.6229 17.4598 15.6583ZM19.6898 18.8574C19.5412 18.8574 19.392 18.811 19.2659 18.7198L17.9967 17.8005L16.729 18.7198C16.4774 18.9023 16.1348 18.9023 15.8827 18.7207C15.6306 18.5392 15.5246 18.2165 15.621 17.9222L16.1077 16.4384L14.8365 15.5241C14.5839 15.3426 14.4779 15.0194 14.5743 14.7246C14.6712 14.4308 14.947 14.2318 15.2584 14.2318C15.2594 14.2318 15.2599 14.2318 15.2604 14.2318L16.829 14.2373L17.3131 12.7505C17.4091 12.4562 17.6848 12.2567 17.9967 12.2567C17.9972 12.2567 17.9972 12.2567 17.9972 12.2567C18.3096 12.2572 18.5859 12.4572 18.6813 12.752L19.1625 14.2373L20.734 14.2318C20.735 14.2318 20.7355 14.2318 20.736 14.2318C21.0474 14.2318 21.3232 14.4308 21.4196 14.7251C21.5165 15.0199 21.4101 15.3431 21.1569 15.5247L19.8837 16.4384L20.3729 17.9212C20.4698 18.2155 20.3649 18.5387 20.1117 18.7207C19.9862 18.8115 19.838 18.8574 19.6898 18.8574Z" fill="#4E5A2A"/>
<path d="M7.72445 4.27383L8.22972 4.42746C8.45824 4.49678 8.63655 4.67433 8.70636 4.90078L8.86106 5.40305L9.01677 4.90029C9.08708 4.67435 9.26589 4.49678 9.49341 4.42746L9.99868 4.27383L9.49291 4.11872C9.26538 4.04989 9.08708 3.87282 9.01677 3.64637L8.86106 3.14461L8.70636 3.64637C8.63655 3.87232 8.45825 4.04988 8.23072 4.11921L7.72445 4.27383ZM8.86056 8.55078H8.86005C8.54413 8.55078 8.26538 8.34628 8.17297 8.04602L7.44369 5.68135L5.06298 4.95764C4.76112 4.86587 4.55469 4.58904 4.55469 4.27532C4.55419 3.96209 4.75962 3.68529 5.06198 3.59302L7.44369 2.86629L8.17297 0.504612C8.26538 0.204353 8.54413 -0.000123978 8.86005 -0.000123978H8.86056C9.17598 -0.000123978 9.45473 0.203865 9.54714 0.503127L10.2789 2.86629L12.6576 3.59302C12.9595 3.68529 13.1654 3.96209 13.1654 4.27532C13.1644 4.58904 12.9585 4.86537 12.6571 4.95764L10.2789 5.68135L9.54714 8.04653C9.45473 8.34629 9.17598 8.55078 8.86056 8.55078Z" fill="#4E5A2A"/>
<path d="M28.7088 6.38864L29.2141 6.54275C29.4426 6.61208 29.6214 6.78914 29.6907 7.01559L29.8464 7.51835L30.0021 7.0151C30.072 6.78866 30.2508 6.61208 30.4788 6.54275L30.9836 6.38864L30.4778 6.23402C30.2503 6.16469 30.072 5.98763 30.0021 5.76218L29.8464 5.25893L29.6907 5.76119C29.6214 5.98713 29.4426 6.16469 29.2146 6.23402L28.7088 6.38864ZM29.8449 10.6621C29.8444 10.6621 29.8444 10.6621 29.8444 10.6621C29.5285 10.6616 29.2503 10.4576 29.1573 10.1578L28.4286 7.79667L26.0479 7.07245C25.7455 6.98068 25.5391 6.70386 25.5391 6.38964C25.5391 6.07641 25.745 5.79959 26.0469 5.70731L28.4286 4.98062L29.1573 2.61894C29.2503 2.31967 29.5285 2.11517 29.8444 2.11517C29.8444 2.11517 29.8444 2.11517 29.8449 2.11517C30.1604 2.11517 30.4386 2.31919 30.5315 2.61845L31.2643 4.98062L33.6425 5.70731C33.9444 5.79959 34.1503 6.07641 34.1503 6.38964C34.1498 6.70386 33.9434 6.97968 33.642 7.07245L31.2638 7.79667L30.5315 10.1588C30.4386 10.4576 30.1604 10.6621 29.8449 10.6621Z" fill="#4E5A2A"/>
<path d="M30.494 40.3867H4.96488C4.56807 40.3867 4.24609 40.0665 4.24609 39.6725C4.24609 39.2785 4.56807 38.9592 4.96488 38.9592H30.494C30.8908 38.9592 31.2128 39.2785 31.2128 39.6725C31.2128 40.0665 30.8908 40.3867 30.494 40.3867Z" fill="#4E5A2A"/>
<path d="M26.1483 44H9.30858C8.91129 44 8.58984 43.6803 8.58984 43.2867C8.58984 42.8922 8.91129 42.5725 9.30858 42.5725H26.1483C26.5456 42.5725 26.8676 42.8922 26.8676 43.2867C26.8676 43.6803 26.5456 44 26.1483 44Z" fill="#4E5A2A"/>
</svg>
