<svg width="40" height="40" viewBox="0 0 40 40" fill="none" xmlns="http://www.w3.org/2000/svg">
<g clip-path="url(#clip0_4899_13414)">
<mask id="mask0_4899_13414" style="mask-type:luminance" maskUnits="userSpaceOnUse" x="4" y="3" width="33" height="33">
<path d="M36.5 3.50391H4.5V35.5039H36.5V3.50391Z" fill="white"/>
</mask>
<g mask="url(#mask0_4899_13414)">
<path d="M8.16769 23.5039H4.4997V22.1706C4.47951 20.3011 4.97462 18.4621 5.93071 16.8555C6.8868 15.2488 8.26693 13.9365 9.91969 13.0626C11.5479 12.2598 13.3112 11.7669 15.1197 11.6092C14.3295 12.587 13.537 13.6261 12.7424 14.7266C10.9525 17.5064 9.42122 20.4445 8.16769 23.5039ZM25.277 27.2546C22.4974 29.0467 19.5593 30.5802 16.4997 31.8359V35.5039H17.833C19.7025 35.5241 21.5415 35.029 23.1481 34.0729C24.7548 33.1168 26.0671 31.7367 26.941 30.0839C27.7438 28.4557 28.2367 26.6924 28.3944 24.8839C27.421 25.6706 26.3819 26.4608 25.277 27.2546ZM36.4997 7.49191C36.3224 13.2959 32.1437 19.0519 23.7237 25.0919C21.4324 26.5773 19.0151 27.8586 16.4997 28.9212V28.1706C16.4937 26.9347 16.0002 25.7512 15.1263 24.8773C14.2524 24.0034 13.0689 23.5099 11.833 23.5039H11.0824C12.1462 20.9885 13.4294 18.5716 14.917 16.2812C20.9424 7.87458 26.689 3.69591 32.4837 3.50391C35.3717 3.50391 36.4997 4.68391 36.4997 7.49191ZM28.4997 14.8372C28.4997 13.9532 28.1485 13.1053 27.5234 12.4802C26.8983 11.8551 26.0504 11.5039 25.1664 11.5039C24.2823 11.5039 23.4345 11.8551 22.8093 12.4802C22.1842 13.1053 21.833 13.9532 21.833 14.8372C21.833 15.7213 22.1842 16.5691 22.8093 17.1943C23.4345 17.8194 24.2823 18.1706 25.1664 18.1706C26.0504 18.1706 26.8983 17.8194 27.5234 17.1943C28.1485 16.5691 28.4997 15.7213 28.4997 14.8372ZM6.33169 35.2172C7.83303 34.9506 11.453 34.2066 12.6624 32.9986C13.0338 32.6271 13.3285 32.1861 13.5295 31.7008C13.7306 31.2154 13.834 30.6952 13.834 30.1699C13.834 29.6446 13.7306 29.1244 13.5295 28.639C13.3285 28.1537 13.0338 27.7127 12.6624 27.3412C12.2909 26.9698 11.8499 26.6751 11.3646 26.4741C10.8792 26.273 10.359 26.1696 9.83369 26.1696C8.77275 26.1696 7.75524 26.591 7.00503 27.3412C5.79703 28.5506 5.0517 32.1706 4.78636 33.6719L4.45703 35.5466L6.33169 35.2172Z" fill="#AAD406"/>
</g>
</g>
<defs>
<clipPath id="clip0_4899_13414">
<rect width="32" height="32" fill="white" transform="translate(4.5 3.5)"/>
</clipPath>
</defs>
</svg>
