<svg width="40" height="40" viewBox="0 0 40 40" fill="none" xmlns="http://www.w3.org/2000/svg">
<path d="M19.9996 15.7858C11.7134 15.7858 6.68565 18.1621 6.68565 19.803C6.68565 21.5004 11.7711 23.8202 19.9996 23.8202C28.2852 23.8202 33.3135 21.4438 33.3135 19.803C33.3135 18.1056 28.2852 15.7858 19.9996 15.7858ZM19.9996 25.5176C16.1142 25.5176 12.4568 25.0084 9.71383 24.0465C6.62794 22.9715 4.9707 21.5004 4.9707 19.803C4.9707 18.1056 6.62794 16.6345 9.71383 15.5594C12.4568 14.5976 16.1142 14.0884 19.9996 14.0884C23.8849 14.0884 27.5423 14.5976 30.2853 15.5594C33.3712 16.6345 35.0278 18.1056 35.0278 19.803C35.0278 21.5004 33.3712 22.9715 30.2853 24.0465C27.5423 25.0084 23.8849 25.5176 19.9996 25.5176Z" fill="#6F00FF"/>
<path d="M19.9997 6.61977C18.2853 6.61977 15.9423 11.6554 15.9423 19.803C15.9423 28.0071 18.3425 32.9862 19.9997 32.9862C21.6569 32.9862 24.0571 27.9505 24.0571 19.803C24.0571 11.5988 21.7135 6.61977 19.9997 6.61977ZM19.9997 34.6836C18.2853 34.6836 16.7995 33.0428 15.7143 29.9874C14.7428 27.2716 14.2285 23.6504 14.2285 19.803C14.2285 15.9555 14.7428 12.3344 15.7143 9.61852C16.7995 6.56319 18.2853 4.92236 19.9997 4.92236C21.7135 4.92236 23.1993 6.56319 24.2851 9.61852C25.2566 12.3344 25.7709 15.9555 25.7709 19.803C25.7709 23.6504 25.2566 27.2716 24.2851 29.9874C23.1993 33.0428 21.7135 34.6836 19.9997 34.6836Z" fill="#6F00FF"/>
<path d="M19.1424 6.61977C12.1711 7.07241 6.62794 12.787 6.62794 19.803C6.62794 26.8189 12.1711 32.5335 19.1424 32.9862V6.61977ZM19.9996 34.6836C11.7134 34.6836 4.9707 28.0071 4.9707 19.803C4.9707 11.5988 11.7134 4.97894 19.9996 4.97894C20.4567 4.97894 20.8568 5.31842 20.8568 5.82765V33.8915C20.8568 34.2875 20.4567 34.6836 19.9996 34.6836Z" fill="#6F00FF"/>
<path d="M20.8569 6.61977V32.9296C27.8282 32.477 33.3714 26.7624 33.3714 19.7464C33.3714 12.7304 27.8282 7.07241 20.8569 6.61977ZM19.9998 34.6836C19.5426 34.6836 19.1426 34.3441 19.1426 33.8349V5.77106C19.1426 5.31842 19.4854 4.92236 19.9998 4.92236C28.2854 4.92236 35.028 11.5988 35.028 19.7464C35.028 28.0071 28.2854 34.6836 19.9998 34.6836Z" fill="#6F00FF"/>
<path d="M20 1.64009C9.88571 1.64009 1.65724 9.78766 1.65724 19.8024C1.65724 29.8171 9.88571 37.9646 20 37.9646C30.1143 37.9646 38.3428 29.7605 38.3428 19.8024C38.3428 9.78766 30.1143 1.64009 20 1.64009ZM20 39.6055C14.6288 39.6055 9.65711 37.5686 5.82832 33.8343C2.05725 30.1 0 25.1209 0 19.8024C0 14.4838 2.05725 9.56134 5.82832 5.77046C9.59997 2.03616 14.6288 -0.000732422 20 -0.000732422C25.3712 -0.000732422 30.3423 2.03616 34.1711 5.77046C37.9427 9.50476 40 14.4838 40 19.8024C40 25.1209 37.9427 30.0434 34.1711 33.8343C30.3423 37.5686 25.3712 39.6055 20 39.6055Z" fill="#6F00FF"/>
</svg>
