<svg width="23" height="28" viewBox="0 0 23 28" fill="none" xmlns="http://www.w3.org/2000/svg">
<path d="M22.0478 12.8566C22.0478 14.7494 22.0428 16.6373 22.0329 18.5202C22.013 20.413 21.988 22.3059 21.9582 24.1987C21.9382 25.2647 21.9133 26.3307 21.8834 27.3966C22.0329 27.2372 22.1823 27.0778 22.3318 26.9184C19.5024 27.0181 16.6731 27.0778 13.8438 27.0978C11.0245 27.1277 8.20015 27.1127 5.37084 27.0529C3.77687 27.023 2.18788 26.9782 0.603863 26.9184C0.723411 27.0181 0.842954 27.1177 0.962502 27.2173C0.91269 25.3344 0.87782 23.4565 0.857895 21.5836C0.828008 19.7306 0.81307 17.8328 0.798127 15.9648C0.798127 14.9088 0.798127 13.8478 0.798127 12.7819C0.718428 12.9213 0.638723 13.0558 0.559025 13.1853C3.21897 11.2576 5.86398 9.28508 8.50898 7.32747C9.2462 6.77954 9.9884 6.23162 10.7356 5.68369C10.9149 5.54919 11.0344 5.29516 10.9448 5.07101C10.8551 4.8618 10.5861 4.81697 10.4218 4.95146C8.98717 6.00747 7.55758 7.06348 6.13297 8.11949C4.69839 9.18546 3.2638 10.2464 1.82922 11.3025C1.47058 11.5615 1.11692 11.8205 0.768238 12.0795C0.573972 12.214 0.379708 12.3485 0.200385 12.4979C-0.0536546 12.7071 0.00612131 13.0359 0.00612131 13.3348C0.00612131 14.2413 0.00612131 15.1429 0.00612131 16.0396C0.0160837 17.8328 0.0310254 19.626 0.0509501 21.4192C0.0708748 23.2224 0.100758 25.0306 0.140608 26.8437C0.15057 27.0629 0.155557 27.287 0.155557 27.5162C0.1705 27.7104 0.349817 27.8001 0.514196 27.815C3.3435 27.9147 6.17281 27.9745 9.00212 27.9944C11.8215 28.0143 14.6458 27.9944 17.4751 27.9346C19.0691 27.9047 20.6581 27.8649 22.2421 27.815C22.4662 27.8001 22.6755 27.5461 22.6904 27.3369C22.7302 25.444 22.7651 23.5512 22.795 21.6583C22.8149 19.7754 22.8299 17.8876 22.8398 15.9947C22.8398 14.9287 22.8398 13.8578 22.8398 12.7819C22.8398 12.5727 22.7352 12.3634 22.4961 12.3784C22.272 12.3933 22.0478 12.6324 22.0478 12.8566Z" fill="white"/>
<path d="M15.5474 4.03805C15.6869 2.82264 15.8263 1.60724 15.9658 0.391832C15.9807 0.242397 15.9359 0.0331822 15.7566 0.00329513C15.6072 -0.0265919 15.4577 0.15273 15.4428 0.302166C15.3133 1.51757 15.1788 2.72801 15.0393 3.93345C15.0094 4.08288 15.0542 4.29209 15.2336 4.32198C15.3979 4.35186 15.5324 4.17254 15.5474 4.03805Z" fill="white"/>
<path d="M21.4053 7.38586C20.1899 7.20654 18.9745 7.0322 17.7591 6.86284C17.3705 6.80307 17.251 7.5353 17.6246 7.59508C18.84 7.76444 20.0554 7.93878 21.2708 8.1181C21.6593 8.17788 21.7789 7.44564 21.4053 7.38586Z" fill="white"/>
<path d="M17.2211 5.36898C18.1675 4.63176 19.119 3.89455 20.0753 3.15734C20.3294 2.96307 20.1202 2.44005 19.8213 2.6642C18.8649 3.40141 17.9135 4.13863 16.9671 4.87584C16.728 5.07011 16.9223 5.60807 17.2211 5.36898Z" fill="white"/>
<path d="M11.0942 13.1225C10.0034 13.9743 8.92743 14.8111 7.83655 15.648C7.80666 15.6679 7.78176 15.6828 7.76183 15.6928C7.70206 15.7526 7.74689 15.7077 7.76183 15.7077C7.76183 15.7077 7.65723 15.7376 7.70206 15.7227C7.76184 15.7077 7.65722 15.7227 7.65722 15.7227C7.64228 15.7227 7.58251 15.7227 7.64228 15.7227C7.62236 15.7227 7.59745 15.7177 7.56757 15.7077C7.50779 15.6928 7.62734 15.7526 7.53768 15.7077C7.50779 15.6778 7.47791 15.6629 7.44802 15.648C7.47791 15.6629 7.47791 15.6778 7.44802 15.633C7.4281 15.6131 7.40817 15.5882 7.38824 15.5583C7.33843 15.4886 7.28364 15.4188 7.22387 15.3491C7.11428 15.2096 7.00469 15.0701 6.89511 14.9307C6.48665 14.3927 6.07322 13.8547 5.6548 13.3168C5.44559 13.0578 5.24135 12.7937 5.04211 12.5248C4.98233 12.455 4.92754 12.3853 4.87773 12.3156C4.86279 12.3006 4.8329 12.2558 4.86279 12.3006C4.85283 12.2807 4.84287 12.2608 4.8329 12.2408C4.86279 12.3156 4.8329 12.2259 4.8329 12.2109C4.8329 12.1811 4.84785 12.1362 4.8329 12.2109C4.84785 12.1213 4.8329 12.211 4.81795 12.2259C4.8329 12.1661 4.86278 12.1362 4.81795 12.196C4.8329 12.196 4.89267 12.1063 4.84784 12.1661C4.77313 12.2259 4.92256 12.0914 4.81795 12.1811C4.87773 12.1362 4.95245 12.0914 5.01223 12.0316C5.1517 11.922 5.29117 11.8125 5.43064 11.7029C5.69963 11.5036 5.96861 11.2994 6.23759 11.0902C6.78552 10.6718 7.32847 10.2484 7.86644 9.81998C7.92621 9.78013 7.98599 9.73531 8.04576 9.6855C8.07565 9.66557 8.10553 9.64067 8.13542 9.61078C8.16531 9.59584 8.22509 9.56594 8.15037 9.59583C8.18025 9.58587 8.20516 9.58089 8.22509 9.58089C8.15037 9.59583 8.22508 9.58089 8.24003 9.58089C8.26991 9.58089 8.32969 9.58089 8.26991 9.58089C8.2998 9.58089 8.32968 9.58587 8.35957 9.59583C8.34463 9.59583 8.31475 9.56594 8.37452 9.59583C8.39445 9.61575 8.41935 9.6307 8.44924 9.64066C8.49407 9.68549 8.4044 9.58089 8.46418 9.67055C8.47912 9.68549 8.50901 9.71538 8.52396 9.74527C8.63354 9.88474 8.74312 10.0242 8.85271 10.1637C9.31097 10.7714 9.77423 11.3741 10.2425 11.9719C10.4716 12.2707 10.7007 12.5696 10.9299 12.8685C10.9597 12.8984 10.9896 12.9332 11.0195 12.9731C11.0295 12.993 11.0394 13.0079 11.0494 13.0179C11.0394 12.998 11.0394 12.998 11.0494 13.0179C11.0644 13.0328 11.0793 13.1076 11.0644 13.0328C11.0743 13.0727 11.0793 13.1076 11.0793 13.1374C11.0644 13.0627 11.0793 13.1225 11.0793 13.1374C11.0893 13.0777 11.0893 13.0727 11.0793 13.1225C11.0693 13.1325 11.0644 13.1424 11.0644 13.1524C11.0793 13.1225 11.0942 13.0627 11.0644 13.1524C11.0444 13.1823 11.0494 13.1723 11.0793 13.1225C11.0394 13.1624 11.0444 13.1624 11.0942 13.1225C10.9149 13.2719 10.7804 13.511 10.8701 13.7352C10.9597 13.9295 11.2287 13.9892 11.3931 13.8547C11.7069 13.6007 11.9012 13.2271 11.8564 12.8087C11.8265 12.45 11.5425 12.1811 11.3333 11.9121C10.8651 11.3044 10.3969 10.6967 9.92864 10.089C9.69951 9.79009 9.46539 9.48625 9.22629 9.17741C9.00214 8.89349 8.76305 8.69922 8.38946 8.69922C8.01587 8.69922 7.73194 8.9682 7.46296 9.17741C7.15413 9.41651 6.85028 9.65063 6.55141 9.87976C5.9437 10.348 5.336 10.8212 4.7283 11.2994C4.5938 11.404 4.42942 11.4937 4.32482 11.6282C4.17538 11.8075 4.08572 12.0017 4.05584 12.2109C4.02595 12.3753 4.04089 12.5547 4.10067 12.719C4.16044 12.8984 4.29494 13.0328 4.41449 13.1823C4.87275 13.78 5.336 14.3778 5.80423 14.9755C6.03337 15.2744 6.26748 15.5782 6.50658 15.8871C6.71579 16.171 6.91005 16.4699 7.2687 16.5745C7.68711 16.6791 8.01587 16.4699 8.32968 16.2308C8.6684 15.9618 9.00713 15.6978 9.34585 15.4388C10.0233 14.9107 10.7057 14.3827 11.3931 13.8547C11.5724 13.7202 11.7069 13.4662 11.6023 13.2421C11.5127 13.0478 11.2586 13.003 11.0942 13.1225Z" fill="white"/>
<path d="M7.29856 15.6643C6.87017 15.1064 6.44179 14.5485 6.01341 13.9906C5.79423 13.7216 5.58005 13.4476 5.37084 13.1687C5.26125 13.0292 5.15166 12.8897 5.04208 12.7503C4.93747 12.6307 4.81792 12.4962 4.74321 12.3617C4.66849 12.2272 4.48917 12.1675 4.36962 12.287C4.08569 12.556 3.77188 12.8848 3.71211 13.2882C3.66728 13.7066 3.95121 13.9906 4.1903 14.2894C4.53899 14.7378 4.88268 15.1811 5.2214 15.6194C5.40072 15.8486 5.57506 16.0727 5.74442 16.2919C5.83409 16.3965 5.92375 16.5011 6.0433 16.5609C6.43183 16.7402 6.89507 16.4712 7.20889 16.2769C7.4181 16.1574 7.47787 15.8735 7.3135 15.6792C7.3135 15.6792 7.30852 15.6742 7.29856 15.6643C7.19395 15.5298 6.99968 15.6045 6.91002 15.724C6.80541 15.8585 6.80542 16.0677 6.92497 16.2022C6.93493 16.2122 6.93991 16.2221 6.93991 16.2321C6.97976 16.0329 7.01463 15.8336 7.04451 15.6344C6.89508 15.724 6.70081 15.8436 6.56632 15.8884C6.50654 15.9083 6.44677 15.9183 6.38699 15.9183C6.37205 15.9183 6.31228 15.9183 6.34217 15.9332C6.387 15.9332 6.31228 15.9183 6.29734 15.9183C6.23756 15.9183 6.31228 15.9332 6.2824 15.9183C6.2824 15.9033 6.2525 15.8884 6.23756 15.8884C6.20767 15.8884 6.28239 15.9332 6.23756 15.8884C6.2276 15.8784 6.21764 15.8635 6.20768 15.8436C6.0433 15.6642 5.90881 15.47 5.75937 15.2907C5.4605 14.9021 5.16163 14.5136 4.86276 14.1251C4.71333 13.9358 4.56887 13.7465 4.4294 13.5572C4.38955 13.5074 4.3497 13.4576 4.30985 13.4078C4.29491 13.3928 4.23513 13.3032 4.26502 13.348C4.29491 13.4078 4.25007 13.3331 4.25007 13.3331C4.25007 13.2882 4.26502 13.4078 4.25007 13.3331C4.25007 13.2733 4.26502 13.4078 4.26502 13.348C4.25008 13.2733 4.25008 13.4227 4.26502 13.3331C4.26502 13.3032 4.25007 13.3779 4.25007 13.3779C4.26003 13.358 4.26502 13.338 4.26502 13.3181C4.27996 13.3032 4.30985 13.2434 4.27996 13.3032C4.38457 13.1238 4.51906 12.9894 4.65355 12.8399C4.534 12.82 4.40947 12.8001 4.27996 12.7801C4.45928 13.079 4.71332 13.348 4.92253 13.6319C5.15166 13.9208 5.37582 14.2097 5.59499 14.4987C6.0433 15.0665 6.48662 15.6344 6.92497 16.2022C7.02957 16.3517 7.22383 16.262 7.3135 16.1424C7.4181 16.0079 7.40316 15.7987 7.29856 15.6643Z" fill="white"/>
<path d="M14.1576 16.8434C13.0518 15.7974 11.9509 14.7514 10.8551 13.7053C10.7355 13.5858 10.5562 13.5708 10.4217 13.6754C9.81401 14.1437 9.21129 14.6069 8.61355 15.0652C8.37445 15.2445 8.28479 15.5733 8.53883 15.7825C9.51514 16.6093 10.4964 17.4312 11.4827 18.2481C11.7318 18.4574 11.9808 18.6616 12.2299 18.8608C12.4241 19.0252 12.6334 19.1597 12.8874 19.2045C13.4552 19.3091 14.0082 19.0103 14.307 18.5321C14.6358 18.009 14.6059 17.2768 14.1576 16.8434C13.9932 16.694 13.7691 16.7239 13.6346 16.8733C13.5001 17.0228 13.4104 17.3067 13.5598 17.4561C13.5997 17.496 13.6346 17.5358 13.6645 17.5757C13.6844 17.5956 13.6993 17.6155 13.7093 17.6355C13.6943 17.6205 13.6943 17.5906 13.7093 17.6504C13.7292 17.6903 13.7491 17.7301 13.7691 17.7699C13.784 17.8297 13.7541 17.7251 13.7691 17.7849C13.779 17.8148 13.784 17.8447 13.784 17.8746C13.784 17.9044 13.784 17.9293 13.784 17.9493C13.784 17.9343 13.784 17.8895 13.784 17.9343C13.784 17.9642 13.784 17.9891 13.784 18.009C13.7691 18.024 13.7541 18.0987 13.7691 18.0539C13.784 18.009 13.7392 18.1137 13.7392 18.1286C13.7541 18.1137 13.7691 18.0539 13.7392 18.1286C13.7192 18.1585 13.7043 18.1884 13.6943 18.2183C13.6645 18.2631 13.7392 18.1734 13.6943 18.2183C13.6744 18.2282 13.6545 18.2432 13.6346 18.2631C13.5897 18.3229 13.6794 18.2332 13.6346 18.278C13.6246 18.288 13.6097 18.298 13.5897 18.3079C13.5698 18.3179 13.5499 18.3328 13.53 18.3528C13.5897 18.3079 13.53 18.3378 13.515 18.3528C13.4951 18.3627 13.4752 18.3677 13.4553 18.3677C13.4403 18.3826 13.3506 18.3976 13.3955 18.3976C13.4104 18.3826 13.3208 18.3976 13.3058 18.3976C13.2759 18.4075 13.251 18.4125 13.2311 18.4125C13.2759 18.4125 13.2311 18.4125 13.2162 18.3976C13.1663 18.3976 13.1165 18.3926 13.0667 18.3826C13.0568 18.3727 13.0418 18.3677 13.0219 18.3677C12.992 18.3577 12.992 18.3577 13.0219 18.3677C13.0119 18.3577 13.002 18.3528 12.992 18.3528C12.7678 18.2183 12.5736 18.0389 12.3793 17.8746C12.1701 17.7052 11.9609 17.5309 11.7517 17.3515C11.3233 16.9929 10.8899 16.6342 10.4516 16.2756C9.96344 15.8671 9.47031 15.4537 8.97219 15.0353C8.95227 15.2744 8.92736 15.5135 8.89748 15.7526C9.50518 15.2843 10.1079 14.8211 10.7056 14.3628C10.5562 14.3529 10.4117 14.3429 10.2723 14.3329C11.3681 15.379 12.464 16.4201 13.5598 17.4561C13.7242 17.6056 13.9484 17.5757 14.0829 17.4263C14.2024 17.2918 14.307 16.9929 14.1576 16.8434Z" fill="white"/>
<path d="M15.936 8.63995C16.0704 8.63995 16.19 8.50546 16.2797 8.43074C16.3494 8.361 16.4141 8.29126 16.4739 8.22153C16.6234 8.0422 16.728 7.84794 16.8176 7.63873C16.9521 7.26515 16.982 6.84673 16.8774 6.47314C16.6831 5.69608 16.0256 5.08339 15.2187 5.02362C14.7554 4.99373 14.2922 5.12822 13.9186 5.41215C13.7243 5.56158 13.6048 5.84551 13.7691 6.05472C14.4067 6.88159 15.0443 7.70847 15.6819 8.53535C15.8164 8.69973 16.0705 8.63995 16.19 8.50546C16.3394 8.34108 16.3992 8.10198 16.2647 7.92266C15.6271 7.09578 14.9895 6.26891 14.3519 5.44203C14.3021 5.66121 14.2523 5.8754 14.2025 6.0846C14.3669 5.96506 14.4416 5.92023 14.6658 5.86045C14.606 5.8754 14.7106 5.86045 14.7255 5.86045C14.7654 5.85049 14.8102 5.84551 14.86 5.84551C14.9098 5.83555 14.9596 5.83056 15.0095 5.83056C14.9497 5.83056 15.0692 5.84551 15.0842 5.84551C15.4279 5.90529 15.7118 6.05472 15.921 6.32371C16.0406 6.47314 16.1003 6.57775 16.1601 6.77201C16.1701 6.81186 16.1701 6.81684 16.1601 6.78695C16.1701 6.80688 16.175 6.82681 16.175 6.84673C16.185 6.89654 16.195 6.94635 16.2049 6.99617C16.2049 7.03601 16.2049 7.07088 16.2049 7.10076C16.2049 7.02604 16.2049 7.16054 16.2049 7.17548C16.195 7.22529 16.185 7.2751 16.175 7.32492C16.1651 7.36476 16.1651 7.36476 16.175 7.32492C16.175 7.34484 16.1701 7.36477 16.1601 7.38469C16.1501 7.4345 16.1352 7.47934 16.1153 7.51919C16.0705 7.62379 16.1601 7.44446 16.1003 7.54907C16.0804 7.58892 16.0555 7.62877 16.0256 7.66862C16.0157 7.68855 16.0057 7.70847 15.9957 7.72839C16.0256 7.68854 16.0256 7.68854 15.9957 7.72839C15.9559 7.76824 15.921 7.80311 15.8911 7.833C15.8712 7.85292 15.8513 7.87285 15.8314 7.89278C15.8712 7.86289 15.8712 7.86289 15.8314 7.89278C15.8911 7.87285 15.9509 7.84795 16.0107 7.81806C15.8015 7.81806 15.6221 8.0721 15.6072 8.26636C15.5923 8.47557 15.7118 8.63995 15.936 8.63995Z" fill="white"/>
<path d="M18.4465 12.3755C18.3419 12.4353 18.2672 12.4652 18.1327 12.4353C18.0131 12.4054 17.9384 12.3157 17.8189 12.1663C17.5299 11.7977 17.246 11.4291 16.9671 11.0605C16.3893 10.3133 15.8114 9.57111 15.2336 8.8339C14.078 7.33955 12.9273 5.84021 11.7817 4.33589C11.4928 3.96729 11.2088 3.59868 10.9299 3.23008C10.8602 3.14042 10.7954 3.05573 10.7356 2.97604C10.6759 2.91626 10.5712 2.78177 10.5563 2.75188C10.5463 2.73196 10.5364 2.71203 10.5264 2.69211C10.5264 2.69211 10.4965 2.61739 10.5115 2.64728C10.5115 2.66222 10.5115 2.5875 10.4965 2.57256C10.5065 2.5626 10.5115 2.54765 10.5115 2.52773C10.4965 2.57256 10.5115 2.46796 10.5115 2.52773C10.5115 2.51279 10.5264 2.43807 10.5115 2.4829C10.4965 2.54268 10.5712 2.40818 10.5264 2.45301C10.4965 2.49784 10.6161 2.37829 10.5563 2.42312C10.6011 2.37829 10.631 2.36335 10.6908 2.36335C10.7356 2.34841 10.7805 2.34841 10.8402 2.36335C10.8552 2.36335 10.9299 2.39324 10.8851 2.37829C10.9349 2.38826 10.9797 2.40819 11.0196 2.43807C10.9897 2.42313 11.0494 2.4829 11.0494 2.4829C11.0893 2.53271 11.1242 2.57754 11.154 2.61739C11.2238 2.71701 11.2935 2.81166 11.3633 2.90132C11.5127 3.0906 11.6621 3.27989 11.8116 3.46917C12.9473 4.96352 14.0929 6.4529 15.2486 7.93729C15.8164 8.68446 16.3893 9.42665 16.9671 10.1639C17.256 10.5424 17.5449 10.916 17.8338 11.2846C17.9832 11.4739 18.1327 11.6632 18.2821 11.8525C18.312 11.8923 18.3419 11.9322 18.3718 11.972C18.3867 12.0019 18.4465 12.0766 18.4465 12.0617C18.4913 12.1514 18.4913 12.1514 18.4913 12.241C18.4913 12.1962 18.4913 12.2709 18.4913 12.3008C18.4913 12.2261 18.4764 12.3008 18.4764 12.3307C18.4913 12.241 18.4465 12.3755 18.4614 12.3456C18.4913 12.3008 18.3867 12.4203 18.4465 12.3755C18.2821 12.4951 18.1775 12.7043 18.2522 12.9135C18.3269 13.0779 18.566 13.1376 18.7155 13.0181C19.104 12.7043 19.2983 12.2111 19.1339 11.7329C19.0442 11.5088 18.8799 11.3295 18.7304 11.1352C18.571 10.9359 18.4116 10.7367 18.2522 10.5375C17.6346 9.7305 17.0119 8.92356 16.3843 8.11661C15.129 6.49275 13.8788 4.86888 12.6335 3.24502C12.3246 2.83656 12.0108 2.4281 11.692 2.01965C11.5575 1.84032 11.3931 1.6909 11.1839 1.61618C10.9747 1.5564 10.7655 1.57134 10.5563 1.63112C10.0931 1.7955 9.79419 2.28864 9.80913 2.78177C9.80913 2.99098 9.89879 3.18525 10.0183 3.34962C10.1678 3.55883 10.3322 3.7531 10.4816 3.9623C11.7269 5.58617 12.9772 7.20505 14.2324 8.81895C14.86 9.63586 15.4877 10.4528 16.1153 11.2697C16.4341 11.6682 16.7479 12.0717 17.0567 12.4801C17.2062 12.6744 17.3407 12.8836 17.52 13.0181C17.6844 13.1526 17.8936 13.2123 18.1177 13.2123C18.3269 13.2273 18.5361 13.1376 18.7155 13.0181C18.8798 12.8985 18.9845 12.6744 18.8948 12.4801C18.8201 12.2858 18.5959 12.256 18.4465 12.3755Z" fill="white"/>
<path d="M10.4217 3.73812C10.4018 4.11669 10.3569 4.49527 10.2872 4.87384C10.2573 5.0681 10.2274 5.15776 10.1826 5.36697C10.1328 5.55626 10.078 5.74056 10.0182 5.91988C9.95846 6.09921 9.89369 6.27355 9.82396 6.44291C9.79407 6.53257 9.75921 6.62223 9.71936 6.71189C9.69944 6.75174 9.67951 6.79159 9.65958 6.83144C9.64962 6.85136 9.63966 6.87627 9.62969 6.90615C9.46033 7.24487 9.27603 7.57364 9.07678 7.89243C8.95723 8.08172 8.8327 8.26103 8.70319 8.43039C8.73308 8.38556 8.65837 8.49017 8.64342 8.50511C8.61354 8.55492 8.57867 8.59976 8.53882 8.63961C8.46908 8.72927 8.39436 8.81893 8.31466 8.90859C8.19512 9.04308 8.06062 9.44655 8.31466 9.55116C8.38938 9.58105 8.44915 9.61093 8.47904 9.64082C8.52885 9.71055 8.57866 9.78029 8.62848 9.85003C8.74802 9.99946 8.86758 10.1539 8.98712 10.3133C9.23618 10.6321 9.48026 10.9509 9.71936 11.2697C9.96842 11.5785 10.2125 11.8873 10.4516 12.1962C10.5711 12.3456 10.6907 12.5 10.8102 12.6594C10.87 12.7391 10.9298 12.8188 10.9896 12.8985L11.0493 12.9732C11.0493 12.9732 11.0942 13.0778 11.0792 13.033C11.139 13.2123 11.3034 13.3916 11.5126 13.287C13.261 12.4203 15.2335 12.1364 17.1463 12.5249C17.5049 12.5996 17.8038 12.0916 17.5797 11.8076C15.8861 9.62587 14.1974 7.44412 12.5138 5.26237C12.0356 4.63474 11.5624 4.01209 11.0942 3.39443C10.9597 3.23005 10.6907 3.28982 10.5711 3.43925C10.4217 3.60363 10.3619 3.84273 10.4964 4.02206C12.1701 6.21377 13.8537 8.40051 15.5473 10.5823C16.0255 11.1999 16.5037 11.8176 16.9819 12.4353C17.1313 12.1962 17.2758 11.9521 17.4153 11.703C15.3979 11.2996 13.261 11.5835 11.408 12.51C11.5475 12.5897 11.6869 12.6744 11.8264 12.764C11.7218 12.3456 11.3781 12.0168 11.124 11.6731C10.865 11.3444 10.606 11.0106 10.347 10.6719C10.0979 10.3432 9.84389 10.0144 9.58486 9.68565C9.45535 9.51629 9.32585 9.34693 9.19634 9.17757C9.07679 9.02814 8.95724 8.8787 8.76297 8.80398C8.77293 9.02315 8.77791 9.23734 8.77791 9.44655C9.88373 8.17635 10.6459 6.66706 10.9896 5.02327C11.0792 4.57497 11.139 4.12666 11.1689 3.67836C11.1838 3.48409 11.0643 3.27488 10.8401 3.28982C10.6309 3.31971 10.4366 3.52892 10.4217 3.73812Z" fill="white"/>
<path d="M15.3681 8.10305C15.9658 8.88012 16.5636 9.65719 17.1613 10.4342C17.4602 10.8128 17.7541 11.1914 18.043 11.57C18.1227 11.6696 18.2024 11.7692 18.2821 11.8688C18.312 11.9087 18.3419 11.9485 18.3717 11.9884C18.4166 12.0481 18.4166 12.0481 18.4465 12.078C18.4564 12.1179 18.4664 12.1527 18.4763 12.1826C18.4614 12.1229 18.4913 12.2723 18.4763 12.2275C18.4763 12.1826 18.4763 12.2424 18.4763 12.2424C18.4763 12.2623 18.4763 12.2872 18.4763 12.3171C18.4913 12.2275 18.4465 12.3769 18.4614 12.3321C18.4913 12.2872 18.3867 12.4068 18.4614 12.347C18.4465 12.362 18.3867 12.4068 18.4315 12.3769C18.4116 12.3869 18.3917 12.4018 18.3717 12.4217C18.3717 12.4068 18.4166 12.3918 18.3717 12.4068C18.3518 12.4167 18.3369 12.4217 18.3269 12.4217C18.317 12.4317 18.302 12.4367 18.2821 12.4367C18.312 12.4267 18.3169 12.4267 18.297 12.4367C18.2671 12.4367 18.1924 12.4367 18.2074 12.4367C18.2373 12.4367 18.1775 12.4367 18.1924 12.4367C18.1625 12.4267 18.1376 12.4217 18.1177 12.4217C18.0579 12.4068 18.1177 12.4217 18.0729 12.4068C18.043 12.3869 18.0181 12.3719 17.9982 12.362C17.9982 12.362 17.9533 12.3321 17.9832 12.362C17.8188 12.2125 17.7142 12.0033 17.5797 11.8389C17.4303 11.6746 17.0866 11.6746 16.8774 11.6447C16.0107 11.5102 15.129 11.5102 14.2623 11.6447C13.276 11.7792 12.3047 12.078 11.4081 12.5263C11.5376 12.606 11.6721 12.6857 11.8115 12.7654C11.7518 12.5413 11.6322 12.3769 11.4977 12.1976C11.3682 12.0282 11.2387 11.8589 11.1092 11.6895C10.8502 11.3607 10.5911 11.032 10.3321 10.7032C10.0831 10.3645 9.82903 10.0308 9.57001 9.70201C9.4405 9.53265 9.31098 9.36329 9.18147 9.19393C9.06192 9.04449 8.94238 8.89506 8.76305 8.82034C8.76305 9.02955 8.76305 9.23378 8.76305 9.43303C9.40563 8.7008 9.92865 7.89385 10.3321 7.01218C10.5114 6.59376 10.6908 6.16039 10.8103 5.71209C10.885 5.42816 10.7356 5.06952 10.377 5.09941C10.2275 5.11435 10.108 5.21895 10.0034 5.29367C9.89378 5.37337 9.78419 5.45307 9.67461 5.53276C7.95112 6.82787 6.22266 8.11302 4.48921 9.3882C3.62248 10.0258 2.75576 10.6634 1.88903 11.301C1.46065 11.6198 1.02729 11.9386 0.588942 12.2574C0.489319 12.3271 0.389695 12.4018 0.290072 12.4815C0.185467 12.5562 0.110749 12.6309 0.0659188 12.7505C0.0360317 12.8402 0.0509789 12.9448 0.0509789 13.0344C0.0509789 13.1639 0.0509789 13.2934 0.0509789 13.423C0.0509789 13.6172 0.0360317 13.7816 0.215354 13.9161C1.05219 14.5587 1.93386 15.1713 2.80058 15.799C3.66731 16.4366 4.53404 17.0791 5.40076 17.7267C7.12425 19.0019 8.84773 20.2771 10.5712 21.5522C10.7804 21.7116 10.9946 21.871 11.2138 22.0304C11.3035 22.1051 11.4678 22.0603 11.5575 22.0005C13.9933 20.1924 16.4291 18.3842 18.8649 16.591C20.0803 15.6944 21.3007 14.8027 22.526 13.9161C22.6605 13.8115 22.7801 13.6919 22.795 13.5126C22.81 13.4229 22.795 13.3333 22.795 13.2586C22.795 13.1689 22.795 13.0792 22.795 12.9896C22.795 12.87 22.8249 12.7206 22.7651 12.6011C22.7203 12.4965 22.6157 12.4367 22.526 12.3769C22.4563 12.3171 22.3866 12.2623 22.3168 12.2125C22.1574 12.1029 21.998 11.9884 21.8386 11.8688C21.221 11.4205 20.6033 10.9672 19.9856 10.509C18.6108 9.49281 17.236 8.47167 15.8612 7.44554C15.6969 7.32599 15.4428 7.49037 15.3531 7.63981C15.2635 7.81913 15.2635 8.02834 15.4279 8.16283C17.1912 9.4679 18.9545 10.773 20.7179 12.078C21.226 12.4466 21.7291 12.8103 22.2272 13.1689C22.1873 13.0693 22.1425 12.9647 22.0927 12.8551C22.0927 13.0942 22.0927 13.3333 22.0927 13.5724C22.1624 13.4528 22.2322 13.3333 22.3019 13.2137C20.8673 14.2598 19.4377 15.3108 18.0131 16.3668C16.5785 17.4228 15.1439 18.4838 13.7094 19.5498C12.9024 20.1475 12.0955 20.7453 11.2885 21.343C11.4081 21.3331 11.5226 21.3231 11.6322 21.3131C10.2076 20.2571 8.778 19.2011 7.34342 18.1451C5.9188 17.0791 4.4892 16.0181 3.05462 14.9621C2.23771 14.3744 1.42578 13.7816 0.618831 13.1839C0.658681 13.2934 0.703515 13.403 0.753327 13.5126C0.753327 13.2735 0.753327 13.0344 0.753327 12.7953C0.68359 12.9149 0.61385 13.0344 0.544114 13.154C2.32737 11.8489 4.10566 10.5388 5.87896 9.22382C6.75564 8.5663 7.63731 7.90879 8.52396 7.25127C8.97227 6.92251 9.42057 6.58878 9.86888 6.25006C9.9685 6.18032 10.0681 6.10561 10.1677 6.02591C10.2275 5.98606 10.2823 5.9462 10.3321 5.90635C10.3471 5.89141 10.4218 5.84658 10.4218 5.84658C10.3321 5.83662 10.2474 5.83164 10.1677 5.83164C10.1578 5.7619 10.1428 5.69217 10.1229 5.62243C10.108 5.63737 10.093 5.75692 10.0781 5.78681C10.0582 5.84658 10.0382 5.90636 10.0183 5.96613C9.97847 6.07572 9.93861 6.19028 9.89876 6.30983C9.54011 7.23633 8.9872 8.16283 8.32969 8.92495C8.21014 9.05944 8.09059 9.43303 8.32969 9.53764C8.49407 9.59741 8.5389 9.68707 8.64351 9.83651C8.76306 9.98594 8.8826 10.1404 9.00215 10.2998C9.25121 10.6185 9.50027 10.9373 9.74932 11.2561C9.98842 11.565 10.2275 11.8738 10.4666 12.1826C10.5862 12.3321 10.7057 12.4865 10.8253 12.6459C10.9 12.7505 11.0793 12.9298 11.1092 13.0344C11.154 13.1988 11.3035 13.3632 11.5127 13.2735C13.2461 12.4068 15.2336 12.1079 17.1464 12.5114C17.0966 12.4815 17.0467 12.4516 16.9969 12.4217C17.1613 12.6309 17.3257 12.885 17.5498 13.0494C17.7441 13.1988 17.9982 13.2586 18.2223 13.2137C18.8051 13.1241 19.2235 12.5861 19.1936 12.0033C19.1787 11.7343 19.0293 11.5251 18.8798 11.3159C18.6905 11.0768 18.5013 10.8377 18.312 10.5986C17.9334 10.1105 17.5598 9.62231 17.1912 9.13416C16.7628 8.59619 16.3394 8.05324 15.921 7.50531C15.8015 7.34093 15.5474 7.41565 15.4279 7.55014C15.2934 7.69958 15.2336 7.93867 15.3681 8.10305Z" fill="white"/>
<path d="M9.61476 15.9785C9.94352 15.8589 10.2822 15.7842 10.6309 15.7543C10.8401 15.7394 10.8401 15.3957 10.616 15.4106C10.2424 15.4405 9.8688 15.5152 9.51015 15.6497C9.30095 15.7244 9.40555 16.0681 9.61476 15.9785Z" fill="white"/>
<path d="M10.3769 16.68C10.7157 16.5604 11.0643 16.5106 11.423 16.5305C11.6471 16.5305 11.6471 16.1868 11.423 16.1719C11.0345 16.1719 10.6459 16.2167 10.2723 16.3363C10.0631 16.411 10.1528 16.7397 10.3769 16.68Z" fill="white"/>
<path d="M11.1241 17.444C11.5226 17.3245 11.9261 17.2547 12.3346 17.2348C12.5587 17.2199 12.5587 16.8762 12.3346 16.8911C11.8863 16.911 11.4529 16.9857 11.0345 17.1153C10.8103 17.175 10.9149 17.5187 11.1241 17.444Z" fill="white"/>
<path d="M12.0207 18.0568C12.3694 18.0169 12.7181 17.9771 13.0668 17.9372C13.2909 17.9074 13.276 17.5637 13.0518 17.5786C12.7032 17.6184 12.3545 17.6583 12.0058 17.6981C11.7966 17.728 11.7966 18.0717 12.0207 18.0568Z" fill="white"/>
<path d="M7.19395 14.9337C7.21388 15.3023 7.27863 15.666 7.38822 16.0246C7.44799 16.2338 7.77675 16.1292 7.71698 15.92C7.61735 15.6012 7.55758 15.2725 7.53765 14.9337C7.52271 14.7096 7.17901 14.7096 7.19395 14.9337Z" fill="white"/>
<path d="M7.85147 14.7816C7.96105 15.1303 8.04075 15.484 8.09056 15.8426C8.12045 16.0668 8.46415 16.0518 8.43426 15.8426C8.37449 15.4541 8.2898 15.0705 8.18022 14.692C8.12044 14.4678 7.79169 14.5724 7.85147 14.7816Z" fill="white"/>
<path d="M8.44923 14.3634C8.48908 14.7221 8.54387 15.0807 8.6136 15.4394C8.65843 15.6486 8.98719 15.5589 8.94236 15.3348C8.88259 15.016 8.83278 14.6922 8.79293 14.3634C8.76304 14.1393 8.41934 14.1393 8.44923 14.3634Z" fill="white"/>
<path d="M8.98712 13.9918C9.03693 14.3206 9.08176 14.6444 9.12161 14.9632C9.13655 15.0528 9.19632 15.1275 9.30093 15.1275C9.39059 15.1275 9.48025 15.0379 9.48025 14.9482C9.43044 14.6294 9.38063 14.3106 9.33081 13.9918C9.31587 13.8872 9.25609 13.8125 9.15149 13.8125C9.06183 13.8125 8.97217 13.9022 8.98712 13.9918Z" fill="white"/>
<path d="M9.55502 13.514C9.51019 13.798 9.55501 14.0371 9.67456 14.2911C9.76422 14.5003 10.0631 14.306 9.97343 14.1118C9.89872 13.9474 9.86883 13.7681 9.88378 13.6037C9.89872 13.514 9.85389 13.4094 9.76423 13.3945C9.67457 13.3646 9.56996 13.4244 9.55502 13.514Z" fill="white"/>
<path d="M9.97342 13.2579C10.0332 13.497 10.083 13.7411 10.1229 13.9902C10.1378 14.2143 10.4964 14.2143 10.4666 13.9902C10.4267 13.7012 10.3719 13.4223 10.3022 13.1533C10.2424 12.9441 9.91364 13.0338 9.97342 13.2579Z" fill="white"/>
<path d="M10.4965 12.9882C10.5563 13.2173 10.5911 13.4514 10.6011 13.6905C10.616 13.9147 10.9597 13.9147 10.9597 13.6905C10.9398 13.4215 10.895 13.1526 10.8252 12.8836C10.7655 12.6744 10.4367 12.779 10.4965 12.9882Z" fill="white"/>
<path d="M12.0357 12.5849C12.1254 12.2263 12.3346 11.9125 12.6185 11.6734C12.7829 11.5389 12.5288 11.2998 12.3644 11.4343C12.0357 11.7182 11.8115 12.0918 11.7069 12.4953C11.6472 12.7194 11.9759 12.7941 12.0357 12.5849Z" fill="white"/>
<path d="M13.1863 12.1831C13.276 11.8394 13.4852 11.5554 13.784 11.3911C13.9783 11.2865 13.799 10.9876 13.6047 11.0922C13.2311 11.3014 12.9472 11.675 12.8575 12.0934C12.7978 12.3176 13.1415 12.4072 13.1863 12.1831Z" fill="white"/>
<path d="M14.2473 11.9593C14.3968 11.6305 14.6359 11.3765 14.9497 11.2121C15.144 11.1224 14.9646 10.8236 14.7704 10.9282C14.4117 11.1075 14.1128 11.4213 13.9485 11.7949C13.8588 11.9892 14.1577 12.1685 14.2473 11.9593Z" fill="white"/>
<path d="M15.2635 11.9264C15.393 11.6972 15.5673 11.5129 15.7865 11.3734C15.9658 11.2539 15.7865 10.955 15.5923 11.0746C15.3382 11.2539 15.1141 11.478 14.9497 11.762C14.8451 11.9562 15.1439 12.1206 15.2635 11.9264Z" fill="white"/>
<path d="M10.2424 8.98275C10.4516 8.78848 10.5712 8.53444 10.7206 8.2804C10.88 8.01142 11.0394 7.73745 11.1988 7.45851C11.3184 7.26424 11.0195 7.09987 10.8999 7.29413C10.7505 7.55315 10.5961 7.81217 10.4367 8.07119C10.3022 8.31028 10.1827 8.56432 9.98838 8.74365C9.82401 8.90803 10.078 9.14713 10.2424 8.98275Z" fill="white"/>
<path d="M11.3483 7.02729C11.5724 7.02729 11.5575 6.68359 11.3333 6.68359C11.1092 6.68359 11.1241 7.02729 11.3483 7.02729Z" fill="white"/>
<path d="M1.14186 27.05C1.36103 26.9604 1.57024 26.8608 1.76949 26.7512C1.9787 26.6615 1.78443 26.3626 1.59017 26.4672C1.41084 26.5569 1.22654 26.6416 1.03725 26.7213C0.828045 26.8109 0.932651 27.1397 1.14186 27.05Z" fill="white"/>
<path d="M2.0683 27.2018C2.27751 27.0324 2.5166 26.9079 2.78559 26.8282C2.9948 26.7684 2.89019 26.4396 2.68098 26.4994C2.39705 26.5891 2.11313 26.7236 1.88897 26.9029C1.70965 27.0374 1.88898 27.3362 2.0683 27.2018Z" fill="white"/>
<path d="M3.21891 27.2758C3.45801 27.0516 3.72699 26.9022 4.04081 26.8125C4.25002 26.7528 4.14541 26.424 3.9362 26.4838C3.57756 26.5884 3.2488 26.7827 2.96487 27.0367C2.81544 27.2011 3.05453 27.4402 3.21891 27.2758Z" fill="white"/>
<path d="M4.19024 27.4236C4.58873 27.1646 5.01213 26.9504 5.46044 26.7811C5.66965 26.7064 5.56504 26.3626 5.35583 26.4523C4.87764 26.6316 4.42933 26.8558 4.01092 27.1248C3.81665 27.2443 3.99597 27.5432 4.19024 27.4236Z" fill="white"/>
<path d="M5.4754 27.561C5.83405 27.2721 6.2176 27.0181 6.62606 26.7989C6.82032 26.6943 6.641 26.4103 6.44673 26.515C6.03828 26.7242 5.65472 26.9732 5.29608 27.2621C5.11676 27.3966 5.29608 27.6955 5.4754 27.561Z" fill="white"/>
<path d="M6.88019 27.4388C7.20895 27.2097 7.55763 27.0204 7.92624 26.871C8.13544 26.7963 8.04578 26.4675 7.83657 26.5422C7.42811 26.6917 7.04955 26.8909 6.70086 27.14C6.52154 27.2745 6.70087 27.5733 6.88019 27.4388Z" fill="white"/>
<path d="M8.40434 27.5141C8.77295 27.275 9.1565 27.0658 9.555 26.8864C9.74926 26.7818 9.56994 26.4979 9.37567 26.5876C8.97718 26.7768 8.59364 26.986 8.22503 27.2152C8.03076 27.3347 8.21008 27.6187 8.40434 27.5141Z" fill="white"/>
<path d="M9.68951 27.5887C10.1179 27.2898 10.5662 27.0158 11.0344 26.7668C11.2287 26.6771 11.0494 26.3783 10.8402 26.4829C10.3819 26.722 9.93857 26.9909 9.51019 27.2898C9.33087 27.4243 9.51019 27.7232 9.68951 27.5887Z" fill="white"/>
<path d="M11.2436 27.531C11.652 27.2421 12.0854 27.013 12.5437 26.8436C12.7529 26.7689 12.6483 26.4402 12.4391 26.5149C11.9609 26.6942 11.4976 26.9333 11.0643 27.2322C10.8849 27.3667 11.0643 27.6655 11.2436 27.531Z" fill="white"/>
<path d="M12.8874 27.4527C13.2859 27.2036 13.6894 26.9545 14.0978 26.7055C14.2771 26.5859 14.0978 26.2871 13.9185 26.4066C13.51 26.6557 13.1066 26.9047 12.7081 27.1538C12.5138 27.2733 12.6931 27.5722 12.8874 27.4527Z" fill="white"/>
<path d="M14.2324 27.5149C14.6906 27.1961 15.1589 26.9022 15.637 26.6332C15.8313 26.5286 15.652 26.2298 15.4577 26.3344C14.9696 26.6034 14.5013 26.8972 14.053 27.216C13.8737 27.3505 14.053 27.6494 14.2324 27.5149Z" fill="white"/>
<path d="M15.5174 27.5294C15.9558 27.2206 16.419 26.9416 16.9072 26.6926C17.1015 26.6029 16.9221 26.304 16.7279 26.4086C16.2397 26.6477 15.7715 26.9217 15.3232 27.2305C15.1439 27.3501 15.3232 27.649 15.5174 27.5294Z" fill="white"/>
<path d="M17.1463 27.3966C17.5049 27.1177 17.8735 26.8586 18.2521 26.6195C18.4314 26.5 18.2521 26.2011 18.0728 26.3207C17.6843 26.5598 17.3157 26.8188 16.967 27.0977C16.7877 27.2322 16.967 27.5311 17.1463 27.3966Z" fill="white"/>
<path d="M18.2521 27.4829C18.7801 27.1542 19.328 26.8603 19.8959 26.6013C20.0902 26.4967 19.9108 26.2127 19.7166 26.3024C19.1487 26.5714 18.6008 26.8653 18.0728 27.1841C17.8785 27.3036 18.0728 27.6025 18.2521 27.4829Z" fill="white"/>
<path d="M19.8063 27.3217C20.2746 27.0627 20.7428 26.7987 21.211 26.5297C21.4053 26.4101 21.226 26.1113 21.0317 26.2308C20.5635 26.4998 20.0952 26.7638 19.627 27.0228C19.4327 27.1424 19.6121 27.4263 19.8063 27.3217Z" fill="white"/>
<path d="M21.3753 27.2769C21.6045 27.1374 21.8336 27.003 22.0627 26.8734C22.257 26.7539 22.0777 26.455 21.8834 26.5746C21.6543 26.7041 21.4201 26.8386 21.1811 26.978C20.9868 27.0826 21.1811 27.3815 21.3753 27.2769Z" fill="white"/>
<path d="M9.65961 22.2227C10.0282 22.3921 10.3769 22.5913 10.7057 22.8205C10.875 22.9301 11.0394 23.0446 11.1988 23.1642C11.3333 23.2837 11.4977 23.4033 11.677 23.3435C11.8563 23.3136 11.9609 23.1492 12.0805 23.0446C12.2199 22.9052 12.3694 22.7707 12.5288 22.6411C12.8376 22.412 13.1614 22.2128 13.5001 22.0434C13.7093 21.9388 13.515 21.6399 13.3208 21.7445C13.002 21.9039 12.7031 22.0882 12.4242 22.2975C12.2847 22.407 12.1502 22.5166 12.0207 22.6262C11.9509 22.686 11.8862 22.7457 11.8264 22.8055C11.7666 22.8653 11.7069 22.94 11.6471 22.9849C11.5275 23.0596 11.3482 22.8504 11.2586 22.7906C11.1091 22.671 10.9547 22.5615 10.7953 22.4618C10.4865 22.2526 10.1627 22.0683 9.82399 21.9089C9.62972 21.8192 9.46534 22.1181 9.65961 22.2227Z" fill="white"/>
</svg>
