<svg width="32" height="27" viewBox="0 0 32 27" fill="none" xmlns="http://www.w3.org/2000/svg">
<path d="M29.6516 25.1695C25.9839 25.2492 22.3106 25.2948 18.6315 25.3062C14.9753 25.3176 11.3247 25.3005 7.67984 25.2549C6.78001 25.2435 5.87451 25.2321 4.96329 25.2208C4.49629 25.2094 4.02359 25.198 3.5452 25.1866C3.34018 25.1866 3.13516 25.1866 2.93013 25.1866C2.72511 25.1695 2.503 25.1866 2.33215 25.1524C2.26381 25.141 2.19545 25.1296 2.12711 25.1182C2.09294 25.1069 2.05308 25.0955 2.00752 25.0841C1.88793 25.0499 2.07586 25.1182 1.95626 25.0499C1.81958 24.9929 1.6886 24.9189 1.56331 24.8278C1.4608 24.7424 1.61455 24.879 1.52913 24.7936C1.49496 24.7594 1.46648 24.731 1.4437 24.7082C1.38675 24.6512 1.3412 24.5943 1.30703 24.5373C1.28425 24.5032 1.26146 24.469 1.23868 24.4348C1.2216 24.4348 1.18743 24.3665 1.2216 24.4348C1.17604 24.3551 1.13616 24.2697 1.10199 24.1786C1.0906 24.1558 1.07922 24.1273 1.06783 24.0931C1.03366 23.9735 1.08492 24.1615 1.05075 24.0419C1.03936 23.9735 1.02796 23.8995 1.01657 23.8197C0.999482 23.5976 0.999486 23.3755 0.999486 23.1363C0.988096 22.6921 0.976714 22.2422 0.965324 21.7866C0.874202 18.1645 0.840036 14.5367 0.862816 10.9033C0.874206 9.08083 0.89697 7.2584 0.931141 5.43596C0.953921 4.51336 0.976706 3.59076 0.999486 2.66815C1.01657 2.48021 1.01658 2.29227 1.03367 2.10433C1.05075 2.0189 1.05075 2.08724 1.03367 2.10433C1.04506 2.07016 1.05644 2.0303 1.06783 1.98474C1.09061 1.95057 1.10771 1.91069 1.1191 1.86513C1.17035 1.74553 1.06784 1.95056 1.13618 1.84805C1.17035 1.76832 1.2102 1.69429 1.25577 1.62595C1.27285 1.60887 1.32411 1.55761 1.25577 1.64303C1.27855 1.60886 1.30133 1.5747 1.32411 1.54053C1.38106 1.49497 1.43232 1.4494 1.47788 1.40384C1.39246 1.47218 1.49496 1.38676 1.51205 1.36967C1.55761 1.3355 1.60318 1.30703 1.64874 1.28425C1.67152 1.27286 1.6943 1.25576 1.71708 1.23298C1.63165 1.28424 1.75124 1.2159 1.76832 1.2159C1.82528 1.19312 1.88792 1.17034 1.95626 1.14756C1.95626 1.14756 2.09295 1.11339 2.00752 1.13047C2.05308 1.11908 2.09294 1.11339 2.12711 1.11339C2.21823 1.102 2.30937 1.0906 2.40049 1.07921C2.8561 1.07921 3.31171 1.07352 3.76732 1.06213C4.68992 1.03935 5.61252 1.02226 6.53513 1.01086C8.35756 0.988085 10.18 0.971012 12.0024 0.959622C15.6587 0.936841 19.3149 0.942532 22.9712 0.976703C24.7936 0.999483 26.616 1.02796 28.4385 1.06213C28.6663 1.07352 28.8941 1.07921 29.1219 1.07921C29.2244 1.07921 29.3269 1.07921 29.4294 1.07921C29.549 1.0963 29.532 1.07921 29.6516 1.09629C29.7427 1.10768 29.8281 1.12478 29.9078 1.14756C29.9306 1.15895 29.9591 1.17033 29.9933 1.18172C30.1129 1.21589 29.9249 1.14756 30.0445 1.19882C30.1983 1.26716 30.335 1.35259 30.4546 1.4551C30.4204 1.42093 30.4716 1.4551 30.4716 1.47218C30.5058 1.49496 30.5343 1.52344 30.5571 1.55761C30.6026 1.60317 30.6482 1.65443 30.6938 1.71138C30.7963 1.84806 30.8304 1.91639 30.8988 2.08725C30.9102 2.13281 30.9216 2.17267 30.933 2.20684C30.933 2.18975 30.9329 2.13851 30.95 2.22394C30.9614 2.30367 30.9728 2.3891 30.9842 2.48022C31.0013 2.68524 31.0013 2.90734 31.0013 3.11237C31.1038 6.74584 31.1494 10.385 31.138 14.0299C31.138 15.8637 31.1209 17.6975 31.0867 19.5313C31.0753 20.4312 31.0582 21.331 31.0355 22.2308C31.0241 22.6864 31.0127 23.1364 31.0013 23.5806C30.9842 23.7685 30.9842 23.9564 30.95 24.1444C30.9329 24.2811 30.9842 24.059 30.95 24.1956C30.9386 24.2298 30.9272 24.2583 30.9158 24.2811C30.9045 24.3152 30.8931 24.3494 30.8817 24.3836C30.8589 24.4405 30.8589 24.4405 30.8817 24.3836C30.8703 24.4063 30.8589 24.4291 30.8475 24.4519C30.8134 24.5089 30.7792 24.5658 30.745 24.6228C30.6596 24.7424 30.8133 24.5544 30.7279 24.6569C30.7051 24.6797 30.6823 24.6968 30.6596 24.7082C30.6368 24.7424 30.6083 24.7765 30.5741 24.8107C30.5741 24.8107 30.4716 24.8961 30.5571 24.8278C30.5001 24.8733 30.4432 24.9132 30.3862 24.9474C30.352 24.9702 30.3179 24.9929 30.2837 25.0157C30.352 24.9815 30.2837 25.0157 30.2495 25.0328C30.1812 25.067 30.1128 25.0955 30.0445 25.1182C30.0445 25.1012 29.9249 25.1524 29.9762 25.1353C30.0274 25.1182 29.8907 25.1524 29.9078 25.1524C29.8281 25.1638 29.7427 25.1695 29.6516 25.1695C29.139 25.1866 28.951 26.1434 29.549 26.1092C30.3179 26.0921 31.0013 25.665 31.4284 25.0328C31.9239 24.3323 31.8556 23.461 31.8726 22.6409C31.9182 20.7843 31.9524 18.922 31.9751 17.054C32.0207 13.2838 32.0036 9.51366 31.9239 5.74351C31.9011 4.80951 31.8783 3.86982 31.8555 2.92443C31.8385 2.4973 31.8555 2.08724 31.736 1.6772C31.6334 1.35258 31.4455 1.04504 31.2063 0.80585C30.95 0.54957 30.6425 0.361623 30.3008 0.242026C29.942 0.122429 29.532 0.139523 29.1561 0.122438C28.2107 0.111047 27.2653 0.0939537 26.3199 0.0711733C22.5725 0.0142223 18.8195 -0.00854142 15.0607 0.00284879C11.3019 0.00284879 7.54886 0.0370152 3.80148 0.105356C2.9643 0.122442 2.09294 0.037011 1.35827 0.464144C0.709032 0.857106 0.264831 1.55759 0.179404 2.29226C0.128148 2.7194 0.145225 3.18071 0.12814 3.60784C0.11675 4.07484 0.105368 4.54752 0.0939775 5.02591C0.0711971 5.9713 0.0541035 6.91099 0.0427133 7.84499C-0.0142378 11.6151 -0.0142378 15.3853 0.0427133 19.1555C0.0654937 20.1009 0.0882782 21.0462 0.111059 21.9916C0.122449 22.4358 0.133831 22.8858 0.145221 23.3414C0.162306 23.7514 0.145233 24.1785 0.264831 24.5886C0.469854 25.2549 1.03365 25.7846 1.69998 26.0238C2.07586 26.1434 2.50299 26.1263 2.89595 26.1263C3.37434 26.1377 3.84704 26.1491 4.31404 26.1604C8.07281 26.2288 11.8259 26.263 15.5733 26.263C19.332 26.263 23.0908 26.2288 26.8496 26.1604C27.7494 26.1491 28.6492 26.132 29.549 26.1092C30.0616 26.1092 30.2495 25.1524 29.6516 25.1695Z" fill="white"/>
<path d="M29.9232 5.82892C26.2783 5.79475 22.6334 5.77197 18.9886 5.76058C15.3665 5.74919 11.7501 5.75488 8.1394 5.77766C6.08916 5.78905 4.04461 5.80614 2.00577 5.82892C1.81783 5.82892 1.73241 6.10229 1.73241 6.25606C1.68685 8.55688 1.66406 10.8577 1.66406 13.1585C1.66406 15.4707 1.68685 17.7773 1.73241 20.0781C1.75519 21.3879 1.78366 22.6921 1.81783 23.9906C1.81783 24.1102 1.90325 24.3152 2.03993 24.3152C5.66202 24.3836 9.28412 24.4234 12.9062 24.4348C16.5055 24.4462 20.1048 24.4348 23.7041 24.4006C25.7316 24.3779 27.759 24.3494 29.7865 24.3152C29.9744 24.3152 30.0598 24.0418 30.0598 23.9052C30.1168 21.593 30.1567 19.2864 30.1794 16.9856C30.2022 14.6734 30.2079 12.3669 30.1965 10.0661C30.1851 8.75619 30.168 7.45203 30.1453 6.15355C30.1453 5.9827 30.0257 5.79475 29.8377 5.82892C29.6498 5.86309 29.5644 6.08521 29.5644 6.23898C29.5985 8.55119 29.6156 10.8577 29.6156 13.1585C29.6156 15.4707 29.5985 17.7773 29.5644 20.0781C29.5416 21.3879 29.5131 22.6921 29.4789 23.9906C29.5701 23.8539 29.6612 23.7172 29.7523 23.5806C26.153 23.6489 22.5537 23.6888 18.9544 23.7001C15.3892 23.7115 11.8184 23.7002 8.2419 23.666C6.21445 23.6432 4.19269 23.6147 2.17662 23.5806C2.24496 23.6831 2.31901 23.7913 2.39874 23.9052C2.34179 21.593 2.30191 19.2864 2.27913 16.9856C2.25635 14.6734 2.25066 12.3669 2.26205 10.0661C2.27344 8.75619 2.29053 7.45203 2.31331 6.15355C2.22219 6.29023 2.13105 6.4269 2.03993 6.56358C5.65062 6.51802 9.26701 6.49526 12.8891 6.49526C16.4998 6.48387 20.1105 6.48956 23.7212 6.51234C25.7486 6.52373 27.7704 6.5408 29.7865 6.56358C29.9744 6.56358 30.1111 6.42691 30.1453 6.25606C30.1623 6.11937 30.1111 5.82892 29.9232 5.82892Z" fill="white"/>
<path d="M4.67157 3.42044C4.67157 3.38627 4.67157 3.48877 4.65449 3.48877C4.65449 3.52294 4.6488 3.55141 4.63741 3.57419C4.60324 3.65962 4.60324 3.67672 4.5349 3.76215C4.46656 3.86466 4.32986 3.96717 4.17609 4.01843C3.88564 4.12094 3.52685 4.01842 3.32183 3.77923C3.13389 3.55712 3.15098 3.28376 3.28766 3.07873C3.44143 2.82246 3.76604 2.68577 4.09066 2.73703C4.26152 2.7712 4.3982 2.85661 4.5178 2.97621C4.63739 3.11289 4.67157 3.24959 4.67157 3.42044C4.67157 3.59129 4.80826 3.77922 4.97911 3.74504C5.18414 3.72796 5.26956 3.50585 5.26956 3.31791C5.26956 2.7541 4.92786 2.22445 4.38113 2.03651C3.8344 1.84858 3.2535 2.08778 2.9118 2.51491C2.53592 2.97621 2.46757 3.65962 2.75802 4.1551C3.04847 4.65057 3.61228 4.90686 4.15901 4.78726C4.82534 4.61641 5.23538 4.00132 5.26956 3.31791C5.26956 3.16414 5.13289 2.97622 4.96203 2.99331C4.75701 3.02748 4.67157 3.24959 4.67157 3.42044Z" fill="white"/>
<path d="M8.19233 3.38553C8.19233 3.33427 8.19233 3.43679 8.19233 3.45387C8.18094 3.47665 8.17525 3.50513 8.17525 3.5393C8.17525 3.52221 8.19234 3.48805 8.17525 3.52222C8.15816 3.55639 8.124 3.62473 8.14109 3.60764C8.15817 3.57347 8.12401 3.64181 8.12401 3.64181C8.10123 3.66459 8.08413 3.68737 8.07274 3.71015C8.0044 3.79558 7.86772 3.89809 7.73104 3.94935C7.4235 4.05186 7.09888 3.94935 6.89385 3.71015C6.82551 3.62472 6.75718 3.48804 6.75718 3.38553C6.75718 3.3001 6.75718 3.30011 6.77426 3.18051C6.78565 3.16912 6.79134 3.15203 6.79134 3.12925C6.80843 3.12925 6.84259 3.04383 6.82551 3.078C6.80842 3.11217 6.84261 3.04382 6.84261 3.04382C6.92804 2.92422 7.01345 2.8388 7.16721 2.77046C7.3039 2.70212 7.47476 2.68502 7.62853 2.71919C7.79938 2.75337 7.93607 2.8388 8.03858 2.95839C8.15818 3.07799 8.19233 3.21467 8.19233 3.38553C8.19233 3.57346 8.32901 3.77848 8.53404 3.74431C8.73906 3.71014 8.84158 3.47096 8.84158 3.28302C8.84158 2.70212 8.49987 2.15538 7.93605 1.95036C7.37224 1.76242 6.79135 2.00162 6.43256 2.44583C6.05668 2.92422 6.00542 3.62472 6.29587 4.13728C6.58632 4.61567 7.15014 4.90611 7.71396 4.76943C8.39737 4.61566 8.8245 3.96643 8.84158 3.28302C8.84158 3.09508 8.7049 2.90715 8.49988 2.92423C8.29485 2.9584 8.20942 3.19759 8.19233 3.38553Z" fill="white"/>
<path d="M11.7791 3.36803C11.7677 3.48193 11.7222 3.59583 11.6424 3.70973C11.5741 3.81225 11.4374 3.91476 11.2836 3.96601C10.9761 4.05144 10.6515 3.96601 10.4294 3.72681C10.3439 3.64139 10.2927 3.48762 10.2756 3.40219C10.2585 3.29968 10.2585 3.2826 10.2927 3.18009C10.2927 3.12884 10.3269 3.0605 10.3439 3.00924C10.4977 2.75296 10.8223 2.5992 11.164 2.65045C11.5399 2.71879 11.762 3.02632 11.7791 3.36803C11.7791 3.52179 11.8987 3.70974 12.0866 3.67557C12.2746 3.65849 12.36 3.43637 12.36 3.26552C12.3429 2.68462 12.0012 2.13788 11.4374 1.94994C10.9077 1.77909 10.3268 2.01828 9.98514 2.4625C9.62635 2.9238 9.57509 3.62431 9.89971 4.11978C10.1902 4.58109 10.7369 4.83737 11.2665 4.70069C11.9329 4.54692 12.3429 3.93185 12.36 3.26552C12.36 3.09467 12.2233 2.92381 12.0525 2.94089C11.8645 2.97507 11.7791 3.19717 11.7791 3.36803Z" fill="white"/>
<path d="M8.19281 12.0482C8.36367 12.3785 8.54023 12.7031 8.72248 13.022C8.8136 13.1929 8.89902 13.3637 8.97875 13.5346C9.06418 13.6884 9.14959 13.9446 9.30336 14.0471C9.44004 14.1497 9.67925 14.1497 9.8501 14.1838C10.0437 14.218 10.2317 14.2522 10.4139 14.2863C10.7898 14.3547 11.1657 14.423 11.5416 14.4914C11.5074 14.2522 11.4789 14.0187 11.4561 13.7909C11.1828 14.0642 10.9151 14.3376 10.6531 14.611C10.5164 14.7476 10.3797 14.89 10.2431 15.0381C10.0893 15.1919 9.88426 15.3456 9.81592 15.5507C9.76466 15.7557 9.83301 15.9778 9.86718 16.1828C9.88996 16.3764 9.91844 16.5644 9.95261 16.7466C10.0096 17.1453 10.0665 17.5496 10.1235 17.9597C10.2715 17.7888 10.4196 17.618 10.5677 17.4471C10.226 17.2763 9.88995 17.1111 9.55964 16.9516C9.38879 16.8605 9.21793 16.7751 9.04708 16.6954C8.96735 16.6612 8.88763 16.6213 8.8079 16.5758C8.70539 16.5245 8.60287 16.4562 8.50036 16.4562C8.3295 16.4562 8.12449 16.6099 7.97072 16.6783C7.79986 16.758 7.62901 16.8434 7.45816 16.9346C7.11645 17.094 6.77475 17.2592 6.43304 17.43C6.55833 17.5667 6.68931 17.7034 6.82599 17.8401C6.87155 17.4642 6.92281 17.0883 6.97976 16.7124C7.00254 16.5188 7.02533 16.3309 7.04811 16.1486C7.08228 15.9436 7.15063 15.6873 7.09937 15.4994C7.0652 15.3115 6.86016 15.1577 6.72348 15.0381C6.59819 14.9014 6.46721 14.7647 6.33053 14.628C6.05717 14.3433 5.78379 14.0585 5.51043 13.7738C5.44209 14.013 5.37376 14.2465 5.30541 14.4743C5.68129 14.4173 6.05716 14.3547 6.43304 14.2863C6.62667 14.2522 6.8146 14.218 6.99684 14.1838C7.18478 14.1497 7.45815 14.1497 7.59483 14.0301C7.73151 13.9105 7.81695 13.6713 7.90237 13.5004C7.99349 13.3296 8.08461 13.1644 8.17573 13.0049C8.35798 12.6518 8.54592 12.3045 8.73956 11.9627C8.82498 11.809 8.77372 11.5356 8.60287 11.4502C8.41493 11.3477 8.26116 11.5014 8.17573 11.6552C7.83403 12.2931 7.49801 12.9309 7.1677 13.5687C7.24743 13.489 7.33285 13.4093 7.42398 13.3296C6.70639 13.4549 5.9945 13.5801 5.28831 13.7054C4.99786 13.7567 4.89536 14.2009 5.0833 14.4059C5.58447 14.9185 6.09133 15.4367 6.60389 15.9607C6.56972 15.8354 6.53556 15.7158 6.50139 15.6019C6.41026 16.3081 6.31343 17.02 6.21092 17.7376C6.19384 17.9597 6.33052 18.2843 6.62097 18.1476C7.27022 17.8401 7.91377 17.5268 8.55162 17.2079C8.47189 17.2079 8.39216 17.2079 8.31242 17.2079C8.96167 17.5268 9.6166 17.8458 10.2772 18.1647C10.3968 18.216 10.5335 18.1818 10.6189 18.0793C10.7215 17.9597 10.7385 17.8059 10.7214 17.6521C10.6189 16.9687 10.5164 16.2853 10.4139 15.6019C10.3683 15.7272 10.3228 15.8468 10.2772 15.9607C10.7784 15.4481 11.2796 14.9299 11.7807 14.4059C11.9516 14.2351 12.0199 13.7567 11.6782 13.7054C10.972 13.5801 10.2601 13.4549 9.54256 13.3296C9.6109 13.3751 9.67925 13.4264 9.74759 13.4833C9.40589 12.8455 9.06418 12.2076 8.72248 11.5698C8.63705 11.3989 8.43203 11.3647 8.29534 11.5014C8.14157 11.621 8.10739 11.8773 8.19281 12.0482Z" fill="white"/>
<path d="M15.7607 12.0137C15.9315 12.344 16.1024 12.6743 16.2732 13.0046C16.3643 13.1755 16.4555 13.3463 16.5466 13.5172C16.5921 13.5969 16.6377 13.6766 16.6833 13.7564C16.7174 13.8418 16.7687 13.9614 16.8541 14.0297C16.9908 14.1322 17.23 14.1322 17.4009 14.1493C17.5945 14.1835 17.7824 14.2177 17.9647 14.2518C18.3406 14.3202 18.7164 14.3885 19.0923 14.4569C19.0581 14.2405 19.0297 14.024 19.0069 13.8076C18.7449 14.081 18.4772 14.3544 18.2039 14.6277C18.0786 14.7644 17.9476 14.9011 17.8109 15.0378C17.6742 15.1745 17.4692 15.3453 17.4009 15.5161C17.3154 15.7041 17.4008 15.9433 17.4179 16.1312C17.4407 16.3135 17.4692 16.5014 17.5034 16.695C17.5489 17.0823 17.6002 17.4696 17.6571 17.8568C17.8052 17.7316 17.9476 17.6062 18.0843 17.481C17.7539 17.3101 17.4179 17.1449 17.0762 16.9855C16.9054 16.9057 16.7345 16.8203 16.5637 16.7292C16.4839 16.695 16.4042 16.6609 16.3245 16.6267C16.2391 16.5754 16.1195 16.5071 16.0169 16.5071C15.8632 16.5071 15.6582 16.6438 15.5044 16.7292C15.3335 16.8089 15.1627 16.8887 14.9918 16.9684C14.6501 17.1392 14.3084 17.3101 13.9667 17.481C14.092 17.6062 14.2116 17.7316 14.3255 17.8568C14.3824 17.481 14.4337 17.1051 14.4793 16.7292C14.5134 16.5356 14.5419 16.3419 14.5647 16.1483C14.5989 15.9604 14.6672 15.7041 14.616 15.5161C14.5818 15.3453 14.3767 15.1915 14.2572 15.0719C14.1205 14.9352 13.9838 14.7986 13.8471 14.6619C13.5738 14.3771 13.3061 14.0924 13.0441 13.8076C12.9758 14.024 12.9131 14.2405 12.8562 14.4569C13.232 14.3885 13.6079 14.3202 13.9838 14.2518C14.166 14.2177 14.354 14.1835 14.5476 14.1493C14.7185 14.1322 14.9918 14.1322 15.1285 14.0127C15.2652 13.8931 15.3506 13.6538 15.436 13.483C15.5272 13.3235 15.6126 13.1584 15.6923 12.9875C15.886 12.6344 16.0739 12.287 16.2561 11.9453C16.3245 11.7915 16.2903 11.5524 16.1365 11.4669C15.9657 11.3815 15.8119 11.5182 15.7436 11.6549C15.4019 12.2927 15.0602 12.9306 14.7185 13.5684C14.7982 13.5001 14.8779 13.4317 14.9577 13.3634C14.2515 13.4887 13.5396 13.614 12.822 13.7393C12.5657 13.7905 12.4632 14.2006 12.6511 14.3885C13.1523 14.9011 13.6535 15.4193 14.1546 15.9433C14.1205 15.8294 14.092 15.7155 14.0692 15.6016C13.9667 16.3192 13.8699 17.0367 13.7788 17.7543C13.7446 17.9764 13.8813 18.2669 14.1376 18.1473C14.7868 17.8284 15.436 17.5094 16.0853 17.1905C16.0169 17.1905 15.9429 17.1905 15.8632 17.1905C16.5124 17.5094 17.1617 17.8284 17.8109 18.1473C18.033 18.2498 18.2722 17.9764 18.238 17.7543C18.1355 17.0367 18.033 16.3248 17.9305 15.6187C17.8849 15.7212 17.8394 15.8294 17.7938 15.9433C18.3064 15.4193 18.8132 14.9011 19.3144 14.3885C19.4682 14.2177 19.5194 13.7905 19.2119 13.7393C18.5057 13.614 17.7938 13.4887 17.0762 13.3634C17.1446 13.409 17.2072 13.4545 17.2642 13.5001C16.9225 12.8622 16.5808 12.2244 16.2391 11.5865C16.1536 11.4328 15.9657 11.3986 15.8461 11.5182C15.7094 11.6378 15.6752 11.8599 15.7607 12.0137Z" fill="white"/>
<path d="M26.7634 13.7223C26.0572 13.597 25.3453 13.4718 24.6277 13.3465C24.6961 13.392 24.7587 13.4376 24.8157 13.4831C24.474 12.8453 24.1323 12.2131 23.7906 11.5867C23.6539 11.3133 23.3805 11.45 23.278 11.655C22.9363 12.2929 22.5946 12.9307 22.2529 13.5686C22.344 13.4888 22.4294 13.4148 22.5092 13.3465C21.7916 13.4718 21.0797 13.597 20.3735 13.7223C20.1001 13.7736 19.9976 14.2007 20.1856 14.3887C20.6867 14.9126 21.1879 15.4309 21.6891 15.9434C21.6549 15.8295 21.6264 15.7156 21.6036 15.6017C21.5011 16.3193 21.3986 17.0369 21.2961 17.7545C21.2619 17.9766 21.3986 18.2841 21.672 18.1474C22.3212 17.8285 22.9705 17.5096 23.6197 17.1907C23.54 17.1907 23.4659 17.1907 23.3976 17.1907C24.0468 17.5096 24.6904 17.8228 25.3282 18.1304C25.5674 18.25 25.8066 17.9595 25.7725 17.7374C25.6813 17.0198 25.5845 16.3079 25.482 15.6017C25.4365 15.7156 25.3909 15.8295 25.3453 15.9434C25.8465 15.4309 26.3534 14.9126 26.8659 14.3887C26.9855 14.252 27.0539 14.0299 26.9513 13.859C26.8659 13.7053 26.6609 13.654 26.5413 13.7907C26.2793 14.064 26.0117 14.3374 25.7383 14.6108C25.613 14.7475 25.482 14.8841 25.3453 15.0208C25.2086 15.1575 25.0036 15.3113 24.9182 15.4992C24.8498 15.6872 24.9182 15.9263 24.9524 16.1143C24.9752 16.2965 24.9979 16.4845 25.0207 16.6781C25.0776 17.0654 25.1289 17.4526 25.1745 17.8399C25.3225 17.7032 25.4706 17.5665 25.6187 17.4299C25.2884 17.2704 24.9581 17.1109 24.6277 16.9515C24.4569 16.8717 24.286 16.792 24.1152 16.7123C24.0241 16.6667 23.9386 16.6268 23.8589 16.5927C23.7735 16.5414 23.6539 16.4731 23.5514 16.4731C23.3976 16.4731 23.1926 16.6268 23.0388 16.6952C22.868 16.7749 22.6971 16.8603 22.5262 16.9515C22.1732 17.1223 21.8258 17.2875 21.484 17.4469C21.6207 17.5836 21.7517 17.7203 21.877 17.857C21.9226 17.4811 21.9738 17.0995 22.0308 16.7123C22.0649 16.53 22.0934 16.3421 22.1162 16.1485C22.1504 15.9605 22.2187 15.7042 22.1675 15.5163C22.1333 15.3284 21.9283 15.1746 21.8087 15.055C21.672 14.9183 21.5353 14.7816 21.3986 14.645C21.1253 14.3602 20.8576 14.0754 20.5956 13.7907C20.5273 14.0185 20.4589 14.2463 20.3906 14.4741C20.7665 14.4058 21.1423 14.3374 21.5182 14.2691C21.7118 14.2349 21.8998 14.2007 22.082 14.1666C22.27 14.1324 22.5433 14.1324 22.68 14.0128C22.8167 13.8932 22.9021 13.654 22.9876 13.5002C23.0787 13.3294 23.1698 13.1585 23.2609 12.9877C23.4432 12.646 23.6254 12.3043 23.8076 11.9626C23.6368 11.9853 23.4659 12.0081 23.2951 12.0309C23.4659 12.3612 23.6368 12.6915 23.8076 13.0218C23.8988 13.1813 23.9899 13.3465 24.081 13.5173C24.1266 13.5971 24.1721 13.6768 24.2177 13.7565C24.2519 13.8419 24.3031 13.9786 24.3885 14.047C24.5252 14.1324 24.7815 14.1324 24.9353 14.1666C25.1289 14.2007 25.3169 14.2349 25.4991 14.2691C25.875 14.3374 26.2508 14.4001 26.6267 14.457C27.0197 14.5254 27.1564 13.7907 26.7634 13.7223Z" fill="white"/>
<path d="M10.5501 12.6465C10.6982 12.4984 10.8406 12.3446 10.9772 12.1852C11.1481 11.9972 10.8747 11.7239 10.6868 11.9118C10.5501 12.0713 10.4134 12.225 10.2767 12.3731C10.1059 12.561 10.3793 12.8344 10.5501 12.6465Z" fill="white"/>
<path d="M6.29729 12.3379C6.4112 12.4973 6.5251 12.6568 6.639 12.8163C6.77568 13.0213 7.11739 12.8162 6.96363 12.6112C6.86111 12.4518 6.7529 12.2866 6.639 12.1157C6.50232 11.9107 6.16061 12.1158 6.29729 12.3379Z" fill="white"/>
<path d="M5.52875 16.4048C5.69961 16.3251 5.85339 16.2169 5.99007 16.0802C6.05841 16.0119 6.05839 15.8752 5.97297 15.8069C5.90462 15.7214 5.76795 15.7385 5.69961 15.8069C5.5857 15.9208 5.45473 16.0062 5.30666 16.0631C5.22123 16.1144 5.20414 16.2511 5.25539 16.3365C5.30665 16.439 5.42624 16.4561 5.52875 16.4048Z" fill="white"/>
<path d="M8.22656 17.8563C8.22656 18.0499 8.22656 18.2435 8.22656 18.4372C8.22656 18.6934 8.61951 18.6934 8.61951 18.4372C8.61951 18.2435 8.61951 18.0499 8.61951 17.8563C8.61951 17.6 8.22656 17.6 8.22656 17.8563Z" fill="white"/>
<path d="M10.7546 16.0289C10.8741 16.2168 11.0621 16.3193 11.2842 16.3364C11.3867 16.3364 11.4721 16.2339 11.4721 16.1314C11.4721 16.0118 11.3696 15.9435 11.2671 15.9264C11.2899 15.9378 11.2899 15.9378 11.2671 15.9264C11.2443 15.9264 11.2273 15.9264 11.2159 15.9264C11.25 15.9264 11.1817 15.8922 11.1646 15.8922C11.1532 15.8808 11.1532 15.8808 11.1646 15.8922C11.1532 15.8808 11.1418 15.8694 11.1304 15.858C11.119 15.8466 11.1134 15.8466 11.1134 15.858C11.1134 15.8466 11.1076 15.8353 11.0963 15.8239C11.045 15.7384 10.9254 15.7043 10.8229 15.7555C10.7375 15.8068 10.7033 15.9435 10.7546 16.0289Z" fill="white"/>
<path d="M13.8827 12.4921C13.9738 12.6516 14.0706 12.8053 14.1732 12.9534C14.3098 13.1755 14.6515 12.9705 14.5149 12.7484C14.4124 12.5889 14.3099 12.4351 14.2073 12.2871C14.0707 12.065 13.7289 12.27 13.8827 12.4921Z" fill="white"/>
<path d="M17.7939 12.9713C17.8736 12.8346 17.9818 12.7207 18.1185 12.6296C18.3406 12.4758 18.1356 12.1341 17.9135 12.2879C17.7199 12.4132 17.5604 12.5784 17.4351 12.7834C17.3155 13.0055 17.6572 13.1934 17.7939 12.9713Z" fill="white"/>
<path d="M18.444 16.2503C18.5807 16.3301 18.7003 16.4326 18.8028 16.5579C18.8882 16.6262 19.0249 16.6262 19.0932 16.5408C19.1616 16.4724 19.1616 16.3528 19.0761 16.2674C18.9509 16.1307 18.8085 16.0111 18.649 15.9086C18.5465 15.8403 18.4269 15.8915 18.3756 15.977C18.3244 16.0795 18.3585 16.182 18.444 16.2503Z" fill="white"/>
<path d="M12.9943 16.5249C13.1993 16.4394 13.4043 16.3199 13.5923 16.1832C13.6777 16.1148 13.7118 16.0123 13.6606 15.9098C13.6093 15.8244 13.4727 15.7902 13.3872 15.8415C13.2335 15.9611 13.0626 16.0636 12.8747 16.149C12.7892 16.1832 12.7209 16.2857 12.7551 16.3882C12.7722 16.4907 12.8918 16.5761 12.9943 16.5249Z" fill="white"/>
<path d="M15.6763 17.8221C15.6877 18.0613 15.6991 18.3005 15.7105 18.5397C15.7276 18.796 16.1205 18.7789 16.1035 18.5226C16.0921 18.2834 16.0807 18.0499 16.0693 17.8221C16.0522 17.5658 15.6592 17.5658 15.6763 17.8221Z" fill="white"/>
<path d="M20.3563 16.3704C20.5841 16.359 20.8062 16.3249 21.0226 16.2679C21.2789 16.1996 21.1593 15.8237 20.9201 15.8921C20.7264 15.9376 20.5385 15.9604 20.3563 15.9604C20.1 15.9775 20.1 16.3704 20.3563 16.3704Z" fill="white"/>
<path d="M21.3471 12.2019C21.4837 12.3385 21.6033 12.5094 21.6717 12.6973C21.7059 12.7998 21.8084 12.8511 21.928 12.834C22.0134 12.7999 22.0988 12.6803 22.0476 12.5777C21.9451 12.3272 21.8027 12.105 21.6204 11.9114C21.4496 11.7235 21.1762 12.0139 21.3471 12.2019Z" fill="white"/>
<path d="M25.3449 12.8674C25.4588 12.7763 25.5784 12.6852 25.7037 12.5941C25.7891 12.5257 25.8233 12.4061 25.772 12.3207C25.7207 12.2353 25.5841 12.184 25.4986 12.2524C25.3733 12.3435 25.2481 12.4346 25.1228 12.5257C25.0373 12.5941 25.0032 12.6966 25.0715 12.7991C25.1228 12.8845 25.2424 12.9358 25.3449 12.8674Z" fill="white"/>
<path d="M26.0624 15.9441C26.256 16.0238 26.4496 16.1036 26.6432 16.1833C26.7458 16.2346 26.8483 16.2175 26.9166 16.115C26.9508 16.0295 26.9337 15.8758 26.8312 15.8416C26.6376 15.7619 26.4439 15.6765 26.2503 15.5853C26.1478 15.5512 26.0453 15.5682 25.9769 15.6708C25.9428 15.7562 25.9598 15.8929 26.0624 15.9441Z" fill="white"/>
<path d="M23.2786 17.84C23.2558 18.0222 23.233 18.2045 23.2103 18.3867C23.1932 18.4892 23.2444 18.6088 23.347 18.6259C23.4495 18.6601 23.5862 18.5917 23.5862 18.4892C23.6089 18.307 23.6317 18.1247 23.6545 17.9425C23.6716 17.8229 23.6203 17.7204 23.5178 17.6862C23.4153 17.6691 23.2786 17.7374 23.2786 17.84Z" fill="white"/>
<path d="M21.4184 14.2177C21.5038 14.3203 21.538 14.4399 21.538 14.5765C21.538 14.8328 21.948 14.8157 21.9309 14.5595C21.9309 14.3715 21.8797 14.1665 21.7601 13.9956C21.6234 13.7906 21.2817 13.9956 21.4184 14.2177Z" fill="white"/>
<path d="M22.0814 14.0476C22.1155 14.1729 22.1497 14.2982 22.1839 14.4235C22.218 14.526 22.3376 14.5772 22.4401 14.5431C22.5427 14.5089 22.5939 14.4064 22.5598 14.3039C22.537 14.1786 22.5085 14.0533 22.4743 13.928C22.4402 13.8255 22.3206 13.7742 22.2181 13.8084C22.1155 13.8255 22.0643 13.9451 22.0814 14.0476Z" fill="white"/>
<path d="M22.5278 13.5859C22.5734 13.734 22.6132 13.8764 22.6474 14.0131C22.7157 14.2523 23.1087 14.1497 23.0233 13.8934C22.9891 13.7568 22.9492 13.6144 22.9037 13.4663C22.8353 13.2271 22.4595 13.3467 22.5278 13.5859Z" fill="white"/>
<path d="M22.9537 12.92C22.9651 13.1022 23.0049 13.2731 23.0733 13.4325C23.1245 13.5351 23.21 13.6034 23.3296 13.5692C23.415 13.535 23.5004 13.4154 23.4491 13.3129C23.3922 13.1876 23.358 13.051 23.3466 12.9029C23.3296 12.6637 22.9366 12.6637 22.9537 12.92Z" fill="white"/>
<path d="M13.7433 14.2009C13.7888 14.3262 13.8344 14.4458 13.88 14.5597C13.9141 14.6622 14.0166 14.7306 14.1192 14.6964C14.2217 14.6622 14.29 14.5597 14.2558 14.4572C14.2103 14.3319 14.1704 14.2066 14.1362 14.0813C14.1021 13.9788 13.9825 13.9276 13.88 13.9446C13.7774 13.9788 13.7091 14.0984 13.7433 14.2009Z" fill="white"/>
<path d="M14.3942 14.0804C14.4284 14.1829 14.4683 14.2854 14.5138 14.3879C14.548 14.4734 14.6505 14.5588 14.753 14.5246C14.8555 14.4905 14.941 14.3709 14.8897 14.2684C14.8555 14.1658 14.8157 14.0633 14.7701 13.9608C14.7359 13.8754 14.6334 13.7899 14.5309 13.8241C14.4284 13.8583 14.343 13.9779 14.3942 14.0804Z" fill="white"/>
<path d="M14.9929 13.6882C15.1125 13.8249 15.1808 13.9957 15.215 14.1666C15.2321 14.2691 15.3687 14.3374 15.4542 14.3033C15.5737 14.2691 15.6079 14.1666 15.5908 14.047C15.5567 13.8078 15.4371 13.5857 15.2662 13.3977C15.0783 13.2098 14.8049 13.5003 14.9929 13.6882Z" fill="white"/>
<path d="M15.4368 12.9024C15.4881 13.0562 15.5564 13.2099 15.6419 13.3295C15.7102 13.4149 15.8127 13.4491 15.9152 13.3978C16.0007 13.3466 16.0519 13.1928 15.9836 13.1245C15.8981 13.022 15.8469 12.9195 15.8127 12.7999C15.7956 12.6973 15.676 12.629 15.5735 12.6632C15.471 12.6974 15.4197 12.7999 15.4368 12.9024Z" fill="white"/>
<path d="M6.36436 14.0645C6.45548 14.2809 6.5466 14.4973 6.63772 14.7137C6.67189 14.8163 6.7744 14.8846 6.87692 14.8504C6.97943 14.8162 7.04778 14.7137 7.01361 14.6112C6.92249 14.3948 6.83135 14.1784 6.74023 13.962C6.70605 13.8595 6.60356 13.7911 6.50105 13.8253C6.39854 13.8595 6.33019 13.9791 6.36436 14.0645Z" fill="white"/>
<path d="M7.06332 13.9607C7.13166 14.1658 7.22278 14.3651 7.33668 14.5587C7.45628 14.7808 7.79799 14.5587 7.66131 14.3366C7.57019 14.1771 7.49616 14.012 7.43921 13.8411C7.35379 13.602 6.9779 13.7045 7.06332 13.9607Z" fill="white"/>
<path d="M7.68117 13.5338C7.73812 13.6591 7.78369 13.7901 7.81786 13.9267C7.8862 14.1659 8.26209 14.0634 8.21083 13.8071C8.16527 13.6363 8.09692 13.4768 8.0058 13.3288C7.95454 13.2262 7.81786 13.2092 7.73244 13.2604C7.64701 13.3288 7.62992 13.4483 7.68117 13.5338Z" fill="white"/>
<path d="M7.98603 12.732C8.08854 12.9143 8.16828 13.1079 8.22523 13.3129C8.29357 13.5521 8.66944 13.4496 8.6011 13.1933C8.53276 12.9655 8.43595 12.7434 8.31066 12.527C8.17397 12.3049 7.84935 12.527 7.98603 12.732Z" fill="white"/>
<path d="M19.0748 1.54123C19.3254 1.33621 19.6101 1.18243 19.9291 1.07992C20.1683 0.994491 20.0486 0.618627 19.8094 0.686968C19.4677 0.806565 19.1431 0.977418 18.8698 1.19953C18.7843 1.26787 18.7502 1.38746 18.8014 1.47289C18.8527 1.55831 18.9894 1.60957 19.0748 1.54123Z" fill="white"/>
<path d="M20.2558 1.64292C20.5975 1.43789 20.9449 1.23287 21.298 1.02785C21.5201 0.908253 21.298 0.566547 21.093 0.686144C20.7399 0.891168 20.3868 1.09619 20.0337 1.30121C19.8287 1.43789 20.0337 1.7796 20.2558 1.64292Z" fill="white"/>
<path d="M21.3993 1.66001C21.7182 1.4436 22.0486 1.26137 22.3903 1.11329C22.4757 1.07912 22.544 0.976606 22.5099 0.874094C22.4928 0.771583 22.3732 0.703233 22.2707 0.737404C21.8948 0.896867 21.536 1.0905 21.1943 1.31831C20.9893 1.45499 21.1943 1.7967 21.3993 1.66001Z" fill="white"/>
<path d="M23.1574 1.71197C23.482 1.42152 23.8749 1.19942 24.285 1.02856C24.5242 0.943136 24.4046 0.550161 24.1654 0.652673C23.687 0.846306 23.2542 1.10828 22.8669 1.43859C22.6619 1.59236 22.9523 1.86574 23.1574 1.71197Z" fill="white"/>
<path d="M24.2509 1.96702C24.8204 1.56836 25.407 1.20387 26.0107 0.873554C26.2499 0.753956 26.0278 0.41225 25.8057 0.531848C25.202 0.862163 24.6154 1.22665 24.0459 1.62531C23.8408 1.76199 24.0459 2.1037 24.2509 1.96702Z" fill="white"/>
<path d="M25.4296 2.0016C25.9991 1.6599 26.5686 1.31819 27.1381 0.976483C27.3602 0.856886 27.1552 0.515176 26.9331 0.651858C26.3636 0.982174 25.7941 1.31819 25.2246 1.6599C25.0025 1.79658 25.2075 2.13828 25.4296 2.0016Z" fill="white"/>
<path d="M26.7811 2.25746C27.5557 1.7449 28.353 1.2836 29.1731 0.873554C29.3952 0.753956 29.1902 0.41225 28.9681 0.531848C28.148 0.953285 27.3507 1.41458 26.5761 1.91575C26.354 2.05244 26.559 2.39414 26.7811 2.25746Z" fill="white"/>
<path d="M28.317 2.56509C29.0801 2.0981 29.8603 1.64818 30.6577 1.21535C30.8798 1.09575 30.6748 0.754047 30.4526 0.873644C29.6553 1.30647 28.8751 1.75639 28.112 2.22339C27.8899 2.36007 28.112 2.70178 28.317 2.56509Z" fill="white"/>
<path d="M29.9573 2.78713C30.4016 2.60488 30.823 2.37139 31.2217 2.08663C31.4096 1.93287 31.2046 1.59116 30.9995 1.74493C30.6408 2.01829 30.2478 2.24041 29.8378 2.41126C29.6156 2.51377 29.7182 2.88964 29.9573 2.78713Z" fill="white"/>
<path d="M30.5412 3.59138C30.8658 3.4547 31.1562 3.28384 31.4467 3.07882C31.6517 2.92505 31.4467 2.58335 31.2416 2.73711C30.9854 2.92505 30.712 3.07881 30.4216 3.21549C30.3361 3.24966 30.2678 3.35218 30.302 3.45469C30.319 3.5572 30.4386 3.64264 30.5412 3.59138Z" fill="white"/>
<path d="M17.3324 1.40443C17.8279 1.23357 18.2892 1.01146 18.7163 0.721014C18.9214 0.584331 18.7163 0.242621 18.5113 0.396389C18.1126 0.658363 17.6855 0.863383 17.2299 1.01146C16.9907 1.09688 17.0932 1.47277 17.3324 1.40443Z" fill="white"/>
</svg>
