<svg width="32" height="36" viewBox="0 0 32 36" fill="none" xmlns="http://www.w3.org/2000/svg">
<path d="M31.7828 23.9351C27.6816 22.1215 23.601 20.2873 19.5204 18.4325C18.3525 17.8967 17.1847 17.3608 16.0168 16.825C15.5634 16.6189 15.0276 17.1341 15.11 17.6081C16.0168 22.0185 16.903 26.4289 17.7892 30.8392C18.0365 32.0895 18.2839 33.3466 18.5312 34.6107C18.5724 34.8167 18.7166 35.0022 18.964 35.0228C19.1907 35.0228 19.4173 34.8786 19.541 34.6725C20.544 32.9963 21.5538 31.3338 22.5706 29.6851C22.2683 29.7401 21.966 29.8019 21.6637 29.8706C23.1339 31.7391 24.604 33.6077 26.0741 35.4762C26.2184 35.6617 26.5481 35.6823 26.7336 35.5175C27.9976 34.5007 29.2685 33.4771 30.5463 32.4467C30.8348 32.22 31.0409 31.7872 30.773 31.4575C29.3029 29.6027 27.8328 27.7478 26.3626 25.893C26.239 26.2502 26.1153 26.6075 25.9917 26.9647C27.8327 26.3327 29.6738 25.7075 31.5149 25.0893C31.8241 24.9862 32.0507 24.6152 31.9889 24.2855C31.9271 23.9764 31.6592 23.8115 31.35 23.9145C29.509 24.5328 27.6679 25.1511 25.8268 25.7694C25.4352 25.9136 25.1879 26.4907 25.4558 26.841C26.9397 28.6958 28.4167 30.5507 29.8868 32.4055C29.9555 32.0757 30.0311 31.746 30.1135 31.4162C28.8357 32.433 27.5648 33.4565 26.3008 34.487C26.5206 34.5007 26.7405 34.5145 26.9603 34.5282C25.5039 32.6597 24.0338 30.7911 22.5499 28.9225C22.3026 28.5928 21.8286 28.8607 21.6637 29.1286C20.647 30.7911 19.6372 32.4536 18.6342 34.1161C18.9777 34.1435 19.3143 34.1641 19.644 34.1779C18.7785 29.7675 17.8923 25.3572 17.0061 20.9468C16.745 19.6965 16.4908 18.4462 16.2435 17.196C15.9413 17.457 15.639 17.7112 15.3367 17.9585C19.438 19.8339 23.5186 21.6888 27.6198 23.523C28.7739 24.0451 29.9349 24.5603 31.1027 25.0686C31.3913 25.1923 31.721 25.0686 31.8859 24.7801C32.0095 24.5534 32.092 24.0794 31.7828 23.9351Z" fill="white"/>
<path d="M20.9227 20.04C22.6745 18.041 23.7874 15.4854 23.9523 12.8268C24.1172 10.5598 23.6225 8.23102 22.5096 6.23194C21.4792 4.3359 19.9541 2.72838 18.0993 1.61549C16.2032 0.481989 14.0187 -0.0744419 11.8135 0.00799458C9.60831 0.090431 7.42376 0.832359 5.56894 2.06891C3.75533 3.30545 2.23024 5.01599 1.28222 6.99446C0.272376 9.03476 -0.181031 11.343 0.0662792 13.61C0.29298 15.774 1.15857 17.8349 2.49817 19.5454C3.83776 21.256 5.63076 22.5337 7.65045 23.3169C9.95868 24.2237 12.5142 24.3473 14.9049 23.7291C15.5506 23.5642 16.1826 23.3444 16.8009 23.0696C17.0894 22.9459 17.2955 22.6368 17.2543 22.307C17.2131 22.0185 16.9246 21.8124 16.636 21.9361C15.3995 22.4925 14.1423 22.8017 12.8027 22.8841C12.473 22.9116 12.1432 22.9184 11.8135 22.9047C11.7585 22.9047 11.6967 22.9047 11.628 22.9047C11.6005 22.9047 11.5662 22.9047 11.525 22.9047C11.5456 22.9047 11.6074 22.9047 11.5044 22.9047C11.367 22.891 11.2296 22.8772 11.0922 22.8635C10.5838 22.8085 10.0755 22.7192 9.56711 22.5956C9.05876 22.4857 8.56412 22.3345 8.08324 22.1422C8.0008 22.1009 8.14507 22.1628 8.06264 22.1422C8.03516 22.1284 8.01454 22.1147 8.0008 22.1009C7.9321 22.0872 7.8703 22.0666 7.81534 22.0391C7.69168 21.9842 7.56802 21.9292 7.44436 21.8743C7.21079 21.7643 6.98408 21.6475 6.76425 21.5239C6.32459 21.2766 5.89868 21.0018 5.48649 20.6995C5.2804 20.5484 5.08118 20.3904 4.88882 20.2255C4.95065 20.2874 4.84762 20.1843 4.82701 20.1637C4.78579 20.1362 4.74455 20.1019 4.70334 20.0606C4.60716 19.9645 4.511 19.8752 4.41483 19.7927C4.04386 19.4355 3.70724 19.0645 3.40498 18.6798C3.2401 18.4737 3.08895 18.2677 2.95156 18.0616C2.88286 17.9654 2.81416 17.8623 2.74547 17.7524C2.70425 17.6975 2.6699 17.6425 2.64242 17.5875C2.64242 17.5875 2.60121 17.5257 2.62182 17.5669C2.66304 17.6288 2.58061 17.5051 2.58061 17.5051C2.31956 17.0654 2.09285 16.612 1.9005 16.1449C1.80432 15.9113 1.71503 15.6778 1.63259 15.4442C1.59138 15.3205 1.55014 15.1969 1.50892 15.0732C1.49518 15.0183 1.48145 14.9633 1.46771 14.9084C1.45397 14.8809 1.44711 14.8534 1.44711 14.8259C1.40589 14.7229 1.46772 14.9496 1.4265 14.7847C1.30285 14.2901 1.21353 13.7817 1.15857 13.2596C1.11736 13.0123 1.09674 12.7582 1.09674 12.4971C1.083 12.4284 1.07613 12.3597 1.07613 12.291C1.07613 12.188 1.07613 12.2704 1.07613 12.291C1.07613 12.2635 1.07613 12.2361 1.07613 12.2086C1.07613 12.0712 1.083 11.9338 1.09674 11.7964C1.11048 11.2606 1.16544 10.7316 1.26162 10.2095C1.2891 10.0858 1.31658 9.96218 1.34406 9.83853C1.30284 9.96218 1.34406 9.81791 1.34406 9.77669C1.37154 9.69425 1.39213 9.61869 1.40587 9.55C1.47457 9.30269 1.55016 9.05538 1.63259 8.80807C1.71503 8.56076 1.80432 8.31346 1.9005 8.06615C1.94172 7.95624 1.98982 7.84633 2.04478 7.73641C2.05852 7.70893 2.07225 7.68145 2.08599 7.65397C2.02416 7.77762 2.06538 7.69518 2.06538 7.67457C2.09286 7.60588 2.12034 7.54404 2.14782 7.48909C2.38139 7.02195 2.64243 6.57542 2.93096 6.14949C2.99965 6.05332 3.06835 5.95027 3.13705 5.84036C3.17826 5.7854 3.21948 5.73046 3.2607 5.6755C3.27444 5.66176 3.28819 5.64114 3.30193 5.61366C3.21949 5.73732 3.28132 5.65488 3.30193 5.61366C3.4668 5.40757 3.63168 5.20834 3.79655 5.01599C4.14004 4.63129 4.50412 4.26721 4.88882 3.92373C4.93004 3.89625 4.97126 3.8619 5.01247 3.82068C4.93004 3.88251 5.0743 3.75885 5.01247 3.82068C5.03995 3.80694 5.06057 3.78632 5.07431 3.75884C5.18423 3.67641 5.28727 3.59398 5.38345 3.51154C5.58954 3.36041 5.8025 3.20926 6.02233 3.05813C6.22842 2.92073 6.44826 2.78334 6.68183 2.64595C6.79175 2.59099 6.90166 2.52916 7.01158 2.46046C7.03219 2.46046 7.17645 2.37803 7.11462 2.41925C7.05279 2.43986 7.13523 2.39865 7.13523 2.39865C7.17644 2.37117 7.21766 2.35055 7.25888 2.33681C7.72602 2.10324 8.20003 1.9109 8.68091 1.75977C8.92822 1.67733 9.17553 1.60175 9.42284 1.53305C9.49153 1.51931 9.56023 1.49872 9.62893 1.47124C9.62893 1.47124 9.71136 1.45063 9.64953 1.47124C9.5877 1.49185 9.69076 1.47124 9.71137 1.47124C9.84876 1.43002 9.97929 1.40253 10.1029 1.38879C10.6388 1.29262 11.1677 1.23079 11.6898 1.20331C11.9646 1.20331 12.2326 1.20331 12.4936 1.20331C12.5348 1.20331 12.5692 1.21017 12.5966 1.22391C12.6516 1.22391 12.7134 1.22391 12.7821 1.22391C12.9195 1.23765 13.0569 1.25141 13.1943 1.26515C13.7164 1.3201 14.2248 1.41628 14.7194 1.55368C14.9667 1.62237 15.2072 1.69794 15.4407 1.78037C15.5644 1.82159 15.6812 1.8628 15.7911 1.90402C15.8323 1.91776 15.8666 1.92463 15.8941 1.92463C15.8735 1.92463 15.8117 1.90401 15.8941 1.94523C15.9628 1.97271 16.0246 1.99333 16.0796 2.00707C17.0276 2.41925 17.8932 2.93447 18.697 3.57336C18.7931 3.64205 18.8893 3.71761 18.9855 3.80005C19.0267 3.84127 18.9649 3.80006 18.9649 3.77945C18.9924 3.80693 19.0198 3.83441 19.0473 3.86189C19.1023 3.90311 19.1572 3.95118 19.2122 4.00614C19.3908 4.17101 19.5694 4.34276 19.748 4.52137C20.1052 4.89233 20.435 5.28392 20.7373 5.6961C20.8747 5.88845 21.012 6.08768 21.1494 6.29377C21.1907 6.34873 21.225 6.41054 21.2525 6.47923C21.28 6.50671 21.3006 6.5342 21.3143 6.56168C21.3143 6.54107 21.2731 6.49985 21.2937 6.54107C21.3624 6.65099 21.4311 6.76776 21.4998 6.89142C21.7471 7.34482 21.9669 7.81197 22.1593 8.29285C22.2555 8.52642 22.3379 8.76686 22.4066 9.01416C22.4478 9.13782 22.4822 9.26148 22.5096 9.38514C22.5303 9.44697 22.5096 9.36451 22.5096 9.36451C22.5234 9.39199 22.5302 9.42634 22.5302 9.46756C22.5577 9.53625 22.5783 9.61184 22.5921 9.69427C22.7157 10.2026 22.7982 10.711 22.8394 11.2193C22.8669 11.4941 22.8875 11.7758 22.9012 12.0643C22.9012 12.0918 22.9012 12.1193 22.9012 12.1467C22.9012 12.0437 22.9012 12.2292 22.9012 12.1467C22.9012 12.2154 22.9012 12.291 22.9012 12.3735C22.9012 12.5383 22.8944 12.7032 22.8806 12.8681C22.8669 13.1841 22.8325 13.5001 22.7776 13.8161C22.7638 13.9672 22.7432 14.1184 22.7157 14.2695C22.6883 14.3519 22.6677 14.4275 22.6539 14.4962C22.6402 14.5511 22.6333 14.5992 22.6333 14.6405C22.4822 15.245 22.2898 15.8289 22.0562 16.3922C22.0288 16.4609 22.0013 16.5296 21.9738 16.5983C21.9532 16.6189 21.912 16.722 21.9326 16.6601C21.9738 16.5777 21.912 16.7014 21.912 16.7014C21.8433 16.8525 21.7746 16.9968 21.7059 17.1342C21.5547 17.3952 21.4036 17.6562 21.2525 17.9173C21.0876 18.1509 20.9227 18.3844 20.7579 18.618C20.696 18.7004 20.8197 18.5356 20.7579 18.618C20.7304 18.6592 20.7098 18.6936 20.6961 18.721C20.6411 18.776 20.593 18.831 20.5518 18.8859C20.4556 18.9958 20.3594 19.1126 20.2632 19.2363C20.0571 19.463 19.9335 19.8339 20.1602 20.0812C20.3663 20.3286 20.7373 20.2461 20.9227 20.04Z" fill="white"/>
<path d="M15.771 18.1438C14.3284 19.0094 12.5766 19.3598 10.9073 19.1125C9.54708 18.8858 8.24869 18.2881 7.21824 17.3813C5.0955 15.5265 4.29173 12.5175 5.17793 9.85897C6.06412 7.24161 8.496 5.28376 11.237 4.97462C14.0193 4.66548 16.7809 6.0669 18.1823 8.47817C18.9036 9.71471 19.254 11.1367 19.1509 12.5588C19.0685 14.125 18.4296 15.6295 17.3785 16.8043C17.1175 17.079 16.8427 17.3401 16.5542 17.5874C16.4099 17.6904 16.3069 18.0202 16.513 18.1232C17.2411 18.453 17.9693 18.7827 18.6975 19.1125C18.8212 19.1743 18.9242 19.1331 19.0067 19.0506C20.5317 17.5049 21.521 15.4853 21.8095 13.3213C22.0568 11.3841 21.7065 9.38497 20.8615 7.6332C20.0577 6.00508 18.8006 4.58305 17.2549 3.61442C15.7092 2.62519 13.875 2.08934 12.0202 2.10995C10.1447 2.13056 8.31051 2.70762 6.76482 3.73807C5.21914 4.72731 3.96198 6.14933 3.13762 7.79806C2.29264 9.50861 1.9423 11.4459 2.169 13.3419C2.37509 15.1555 3.11701 16.8867 4.25052 18.3087C5.38402 19.7101 6.90909 20.8024 8.61964 21.4207C10.5981 22.142 12.7827 22.1832 14.7818 21.6062C15.3451 21.4413 15.8809 21.2283 16.3893 20.9673C16.5336 20.8848 16.6366 20.72 16.5954 20.5551C16.4443 19.8132 16.2931 19.0644 16.142 18.3087C16.0595 17.8965 15.5649 18.1644 15.6268 18.4942C15.7779 19.2499 15.929 20.0055 16.0802 20.7612C16.1489 20.6238 16.2176 20.4933 16.2863 20.3696C14.3696 21.3382 12.1644 21.6268 10.0829 21.1734C8.39296 20.823 6.80606 19.9986 5.5489 18.8239C4.31235 17.6492 3.36432 16.1447 2.93153 14.496C2.45752 12.7855 2.53996 10.9513 3.09641 9.28193C3.63225 7.6332 4.64208 6.14932 5.94046 5.03643C7.28005 3.90293 8.90818 3.11979 10.6394 2.85187C12.3911 2.56334 14.2047 2.81066 15.8122 3.53198C17.3991 4.2533 18.7387 5.38681 19.728 6.80883C20.7172 8.25147 21.2943 9.98262 21.3561 11.7344C21.4385 13.7747 20.8409 15.8356 19.6455 17.4843C19.3433 17.8965 19.0204 18.2812 18.6769 18.6384C18.7731 18.611 18.8761 18.5835 18.9861 18.556C18.2579 18.2263 17.5297 17.8965 16.8015 17.5668C16.8015 17.7454 16.7946 17.924 16.7809 18.1026C18.0999 17.0309 19.0479 15.5677 19.4601 13.919C19.8516 12.3527 19.728 10.6627 19.1303 9.15825C18.038 6.37602 15.3588 4.41816 12.3705 4.31511C9.34098 4.19146 6.47629 5.98447 5.11609 8.68426C4.43599 10.0651 4.16808 11.6313 4.35356 13.177C4.53904 14.6403 5.17792 16.0211 6.14655 17.1546C8.24868 19.5865 11.7728 20.4727 14.7818 19.2773C15.2077 19.1125 15.613 18.9064 15.9977 18.6591C16.2863 18.4942 16.1008 17.9378 15.771 18.1438Z" fill="white"/>
<path d="M9.46519 14.8666C9.45145 14.8666 9.44456 14.8666 9.44456 14.8666C9.3003 14.9903 9.25909 15.1964 9.30031 15.3819C9.40335 15.8146 9.93918 15.691 10.2689 15.691C10.6948 15.691 11.1139 15.6841 11.5261 15.6704C12.3367 15.6566 13.1542 15.6429 13.9786 15.6292C14.1847 15.6292 14.3083 15.3406 14.2877 15.1552C14.2877 14.9491 14.1641 14.8048 13.9374 14.8048C13.2367 14.8185 12.5291 14.8254 11.8146 14.8254C11.4711 14.8391 11.1276 14.846 10.7842 14.846C10.6193 14.846 10.4544 14.846 10.2896 14.846C10.1796 14.8598 10.0766 14.8666 9.98042 14.8666C9.9392 14.8666 9.8911 14.8666 9.83614 14.8666C9.73996 14.8529 9.74683 14.8666 9.85674 14.9078C9.88422 14.9628 9.91171 15.0178 9.93919 15.0727C9.93919 15.059 9.93919 15.0521 9.93919 15.0521C9.88423 15.217 9.83615 15.3818 9.79493 15.5467C9.79493 15.5467 9.8018 15.5398 9.81554 15.5261C10.1453 15.2582 9.85676 14.5163 9.46519 14.8666Z" fill="white"/>
<path d="M12.5958 8.3552C12.3759 10.5947 12.2386 12.8342 12.1836 15.0738C12.1836 15.3005 12.3691 15.5272 12.5958 15.4859C12.8431 15.4447 12.9461 15.1768 12.9668 14.9501C13.008 12.793 13.1316 10.6359 13.3377 8.47885C13.3583 8.27276 13.2965 7.98424 13.0492 7.94302C12.8225 7.9018 12.6164 8.14911 12.5958 8.3552Z" fill="white"/>
<path d="M10.1852 11.1981C11.2157 10.4356 12.1843 9.59064 13.0499 8.68384C13.1942 8.51896 13.2766 8.27166 13.1529 8.06556C13.0705 7.88008 12.8232 7.81826 12.6789 7.96252C11.7927 8.88993 10.8447 9.73489 9.81427 10.4768C9.4433 10.7447 9.73184 11.5279 10.1852 11.1981Z" fill="white"/>
<path d="M10.742 10.1483C10.5359 11.8176 10.4535 13.5075 10.4947 15.1975C10.5153 15.4036 10.6596 15.6509 10.9069 15.6097C11.1542 15.5685 11.2778 15.2799 11.2778 15.0532C11.2229 13.4595 11.2984 11.8657 11.5045 10.2719C11.5457 10.0658 11.4633 9.75669 11.216 9.71547C10.9687 9.67426 10.7832 9.92156 10.742 10.1483Z" fill="white"/>
<path d="M6.68282 22.348C7.08126 23.0488 7.53466 23.722 8.04302 24.3677C8.2285 24.5944 8.64068 24.3471 8.4552 24.1204C7.94684 23.4747 7.48656 22.8015 7.07437 22.1007C6.93011 21.8328 6.51795 22.0801 6.68282 22.348Z" fill="white"/>
<path d="M9.01033 23.606C8.9279 23.5785 8.91417 23.5854 8.96913 23.6266C9.01034 23.6678 9.04469 23.7021 9.07217 23.7296C9.12713 23.7846 9.17521 23.8395 9.21643 23.8945C9.34008 24.0181 9.45688 24.1418 9.5668 24.2655C9.80037 24.5128 10.0271 24.7601 10.2469 25.0074C10.4736 25.2341 10.8033 24.8837 10.5766 24.657C10.3018 24.3548 10.0202 24.0456 9.73165 23.7296C9.50495 23.5029 9.25765 23.0701 8.86608 23.132C8.57755 23.1938 8.7012 23.6678 9.01033 23.606Z" fill="white"/>
<path d="M11.4199 23.791C11.8871 24.2169 12.3199 24.6772 12.7183 25.1718C12.8007 25.2749 12.9244 25.3367 13.0481 25.2543C13.1511 25.1924 13.2129 25.0276 13.1305 24.9245C12.7046 24.4024 12.2443 23.9078 11.7497 23.4407C11.523 23.2346 11.1932 23.5849 11.4199 23.791Z" fill="white"/>
<path d="M13.0489 23.7695C13.5023 24.1954 13.9213 24.642 14.306 25.1091C14.5121 25.3564 14.8419 25.0061 14.6358 24.7794C14.2511 24.2985 13.832 23.8451 13.3786 23.4192C13.1519 23.2131 12.8222 23.5634 13.0489 23.7695Z" fill="white"/>
<path d="M14.5537 23.5637C15.0483 23.8659 15.5224 24.2026 15.9758 24.5735C16.2025 24.7796 16.5322 24.4293 16.3055 24.2232C15.8246 23.8247 15.3163 23.4675 14.7804 23.1515C14.5125 22.9866 14.2858 23.3988 14.5537 23.5637Z" fill="white"/>
<path d="M26.6324 34.7749C26.8522 33.9918 27.0789 33.2155 27.3125 32.4461C27.3949 32.1575 26.9209 32.0339 26.8385 32.3224C26.6187 33.1056 26.392 33.8819 26.1584 34.6513C26.076 34.9604 26.5293 35.0634 26.6324 34.7749Z" fill="white"/>
<path d="M25.6818 33.827C25.833 33.0301 26.0253 32.2401 26.2589 31.4569C26.3413 31.1478 25.8879 31.0448 25.8055 31.3333C25.5719 32.1164 25.3796 32.9133 25.2284 33.7239C25.1666 34.0125 25.62 34.1361 25.6818 33.827Z" fill="white"/>
<path d="M24.7988 32.22C24.8263 31.4094 24.9568 30.6125 25.1904 29.8294C25.2729 29.5409 24.8195 29.4172 24.737 29.7263C24.4897 30.5301 24.3455 31.3751 24.3248 32.22C24.3042 32.5292 24.7988 32.5292 24.7988 32.22Z" fill="white"/>
<path d="M23.3753 30.6751C23.4577 29.9881 23.5608 29.3011 23.6844 28.6142C23.7463 28.305 23.2722 28.202 23.231 28.4905C23.1074 29.1775 23.0043 29.8645 22.9219 30.5514C22.9013 30.6957 22.9631 30.8194 23.0868 30.84C23.2104 30.8812 23.3753 30.7987 23.3753 30.6751Z" fill="white"/>
<path d="M24.4658 17.2777C24.8642 16.4121 25.297 15.574 25.7642 14.7634C25.613 14.7221 25.4619 14.6809 25.3108 14.6397C25.3108 15.1343 25.3382 15.6152 25.3932 16.0824C25.4207 16.3297 25.455 16.5701 25.4962 16.8037C25.5375 17.0098 25.5581 17.2571 25.6817 17.4219C25.8054 17.5868 25.9909 17.628 26.197 17.5868C26.4443 17.5456 26.6847 17.5044 26.9183 17.4632C27.4129 17.3807 27.9075 17.3052 28.4021 17.2365C28.3197 17.0991 28.2373 16.9617 28.1548 16.8243C27.6602 17.4288 27.1587 18.0265 26.6504 18.6173C26.5267 18.7615 26.5885 18.947 26.7534 19.0088C27.5365 19.2836 28.3197 19.5584 29.1028 19.8332C29.0616 19.6958 29.0204 19.5584 28.9792 19.421C28.3609 20.0393 27.619 20.4927 26.774 20.7812C26.4855 20.8843 26.6298 21.3377 26.9183 21.2346C27.8251 20.9255 28.6494 20.4309 29.3295 19.7508C29.4738 19.6271 29.3708 19.421 29.2059 19.3592C28.4365 19.0844 27.6602 18.8096 26.8771 18.5348C26.9183 18.6722 26.9526 18.8096 26.9801 18.947C27.4885 18.3562 27.9968 17.7586 28.5052 17.154C28.6701 16.9685 28.5052 16.7418 28.2579 16.7624C27.8594 16.8311 27.4541 16.8998 27.0419 16.9685C26.8358 17.0098 26.6298 17.0441 26.4237 17.0716C26.3275 17.0853 26.2313 17.0991 26.1351 17.1128C26.1145 17.1128 26.0321 17.1128 26.0527 17.1334C26.0733 17.154 26.0321 17.0716 26.0321 17.0716C25.826 16.2884 25.7848 15.4435 25.7848 14.6397C25.7848 14.3924 25.455 14.3306 25.3314 14.516C24.878 15.3404 24.4521 16.1785 24.0536 17.0304C23.9093 17.3189 24.3215 17.5456 24.4658 17.2777Z" fill="white"/>
<path d="M12.9464 26.2844C12.0671 26.4905 11.2015 26.7653 10.3496 27.1087C10.1642 27.1912 10.1023 27.4385 10.3084 27.5415C11.1534 27.9949 12.0808 28.2628 13.0494 28.3041C12.967 28.2079 12.8846 28.1117 12.8021 28.0155C12.5754 28.8399 12.4312 29.7055 12.3899 30.5711C12.3899 30.7359 12.6167 30.8802 12.7609 30.7772C13.0632 30.5573 13.3586 30.3375 13.6471 30.1177C13.7982 30.0215 13.9425 29.9185 14.0799 29.8085C14.1211 29.7673 14.2448 29.6643 14.3066 29.6437C14.2929 29.6162 14.2997 29.623 14.3272 29.6643C14.3547 29.6917 14.3753 29.7124 14.389 29.7261C14.7806 30.3032 15.1516 30.8802 15.5225 31.4779C15.6256 31.6634 15.8935 31.5809 15.9553 31.3954C16.2233 30.6123 16.4087 29.7879 16.4912 28.9429C16.5118 28.7987 16.3675 28.6956 16.2438 28.6956C16.0996 28.6956 16.0378 28.8193 16.0171 28.9429C15.9347 29.7467 15.7492 30.5298 15.4813 31.2924C15.6324 31.2649 15.7836 31.2374 15.9347 31.2099C15.7149 30.8665 15.4882 30.523 15.2546 30.1795C15.1447 30.0009 15.0279 29.8223 14.9042 29.6437C14.8012 29.4994 14.7188 29.3345 14.5539 29.2315C14.2035 29.0048 13.8532 29.3758 13.5853 29.5818C13.2281 29.8429 12.8708 30.1039 12.5136 30.365C12.6372 30.4337 12.754 30.4955 12.864 30.5505C12.9052 29.7261 13.0426 28.9155 13.2761 28.1186C13.3174 27.9743 13.1937 27.8301 13.0288 27.8301C12.1632 27.7889 11.2977 27.5415 10.5351 27.1294C10.5214 27.2805 10.5077 27.4247 10.4939 27.5621C11.332 27.2324 12.1976 26.9576 13.0907 26.7378C13.3792 26.6553 13.2555 26.2019 12.9464 26.2844Z" fill="white"/>
<path d="M24.1596 19.4015C24.5099 19.2366 24.7779 18.9687 24.9427 18.6183C25.087 18.3504 24.6748 18.1237 24.5305 18.3916C24.3931 18.6664 24.1871 18.8725 23.9123 19.0099C23.6444 19.1335 23.8917 19.5457 24.1596 19.4015Z" fill="white"/>
<path d="M25.1682 20.1843C25.4705 20.0469 25.7796 19.9095 26.0956 19.7721C26.2193 19.7103 26.2193 19.5454 26.178 19.4424C26.0956 19.3187 25.9513 19.2981 25.8483 19.3599C25.5323 19.4973 25.2232 19.6347 24.9209 19.7721C24.7972 19.8339 24.7766 20.0194 24.8384 20.1019C24.9003 20.2255 25.0445 20.2461 25.1682 20.1843Z" fill="white"/>
<path d="M14.2031 27.2943C14.5946 27.2119 14.9244 27.0058 15.1923 26.7173C15.419 26.5112 15.0686 26.1814 14.8626 26.3875C14.6427 26.6073 14.3817 26.7585 14.0794 26.8409C13.7703 26.9233 13.9145 27.3767 14.2031 27.2943Z" fill="white"/>
<path d="M15.3181 28.4079C15.4692 28.0644 15.6203 27.7278 15.7715 27.398C15.8951 27.1095 15.4829 26.8828 15.3593 27.1507C15.2082 27.4942 15.0501 27.8377 14.8853 28.1812C14.7616 28.4491 15.1944 28.6964 15.3181 28.4079Z" fill="white"/>
<path d="M6.94829 10.415C7.11317 9.63181 7.66962 8.99292 8.16424 8.39526C8.61764 7.83881 9.15349 7.26175 9.87481 7.07627C10.1839 7.01444 10.0397 6.54044 9.75113 6.62288C8.92677 6.82897 8.32912 7.44724 7.81389 8.06552C7.25745 8.72501 6.68039 9.4257 6.4743 10.2913C6.41247 10.6004 6.88647 10.7035 6.94829 10.415Z" fill="white"/>
</svg>
