<svg width="32" height="30" viewBox="0 0 32 30" fill="none" xmlns="http://www.w3.org/2000/svg">
<path d="M20.3545 5.86389C20.4217 5.24792 20.4889 4.63194 20.5561 4.01596C20.6569 3.0416 20.7521 2.06724 20.8417 1.09287C20.8641 0.86888 20.8865 0.644888 20.9089 0.420896C20.9257 0.202504 20.7745 -0.0158884 20.5561 0.000910979C20.3209 0.0177104 20.1529 0.2529 20.1361 0.471292C20.0689 1.08727 20.0017 1.70325 19.9345 2.31923C19.8337 3.29359 19.7329 4.26796 19.6321 5.24232C19.6097 5.46632 19.5817 5.69031 19.5481 5.9143C19.5313 6.13269 19.6825 6.35108 19.9177 6.33429C20.1529 6.31749 20.3209 6.08229 20.3545 5.86389Z" fill="white"/>
<path d="M29.1768 10.9876C28.5608 10.898 27.9448 10.8084 27.3288 10.7188C26.3545 10.5732 25.3801 10.4332 24.4057 10.2988C24.1817 10.2652 23.9577 10.2316 23.7338 10.198C23.465 10.1644 23.1962 10.366 23.1122 10.618C23.045 10.8364 23.0954 11.206 23.3978 11.2396C24.0137 11.3292 24.6241 11.4188 25.2289 11.5084C26.2145 11.6428 27.1944 11.7771 28.1688 11.9115C28.3928 11.9451 28.6168 11.9787 28.8408 12.0123C29.1264 12.0459 29.3952 11.8611 29.4624 11.5924C29.5296 11.374 29.4791 11.038 29.1768 10.9876Z" fill="white"/>
<path d="M22.8423 8.01397C23.3239 7.64438 23.7998 7.27479 24.2702 6.9052C25.0206 6.31162 25.771 5.72925 26.5214 5.15807C26.6893 5.02368 26.8629 4.88928 27.0421 4.75488C27.2437 4.60369 27.3781 4.31809 27.2605 4.0493C27.1429 3.81411 26.8405 3.74692 26.6557 3.89812C26.1854 4.2565 25.715 4.62049 25.2446 4.99008C24.5054 5.57246 23.7551 6.15483 22.9935 6.73721C22.8143 6.8828 22.6407 7.0228 22.4727 7.15719C22.2543 7.30839 22.1031 7.61078 22.2207 7.86277C22.3383 8.11476 22.6407 8.16516 22.8423 8.01397Z" fill="white"/>
<path d="M24.49 22.7477C24.4788 22.8709 24.462 22.9997 24.4396 23.1341C24.4396 23.1677 24.434 23.2013 24.4228 23.2349C24.4228 23.2685 24.3892 23.3525 24.4228 23.2517C24.4116 23.3189 24.3948 23.3861 24.3724 23.4533C24.35 23.5205 24.322 23.5821 24.2884 23.6381C24.2772 23.6717 24.266 23.6997 24.2548 23.7221C24.3052 23.6045 24.2716 23.6885 24.2548 23.7053C24.1988 23.8285 24.1316 23.9461 24.0532 24.0581C23.986 24.1421 24.0532 24.0581 24.0532 24.0413C24.0308 24.0749 24.0084 24.1029 23.986 24.1253C23.9524 24.1701 23.9132 24.2149 23.8684 24.2597C23.8236 24.3157 23.7732 24.3661 23.7172 24.4109C23.7004 24.4277 23.65 24.4613 23.734 24.3941C23.7004 24.4277 23.6668 24.4557 23.6332 24.4781C23.5324 24.5565 23.4317 24.6237 23.3309 24.6797C23.2469 24.7301 23.3141 24.6965 23.3309 24.6797C23.2973 24.7021 23.2637 24.7189 23.2301 24.7301C23.1629 24.7637 23.0957 24.7917 23.0285 24.8141C22.9613 24.8365 22.8997 24.8588 22.8437 24.8812C22.8269 24.8812 22.7429 24.9148 22.8269 24.8812C22.7933 24.8924 22.7653 24.9036 22.7429 24.9148C22.5973 24.9372 22.4517 24.954 22.3061 24.9652C22.1549 24.9652 22.1549 24.9652 22.0037 24.9485C21.8581 24.9373 21.7181 24.9148 21.5837 24.8812C21.5389 24.8588 21.4885 24.8421 21.4325 24.8309C21.3149 24.7805 21.4829 24.8477 21.3989 24.8141C21.3765 24.8029 21.3485 24.7917 21.3149 24.7805C21.2029 24.7245 21.0909 24.6629 20.979 24.5957C20.923 24.5621 20.8726 24.5285 20.8278 24.4949C20.8054 24.4725 20.783 24.4501 20.7606 24.4277C20.6934 24.3773 20.8278 24.4949 20.727 24.4109C20.6374 24.3213 20.5534 24.2261 20.475 24.1253C20.3966 24.0357 20.3238 23.9405 20.2566 23.8397C20.223 23.7725 20.307 23.9237 20.2398 23.8061C20.2286 23.7837 20.2174 23.7613 20.2062 23.7389C20.1726 23.6717 20.139 23.6045 20.1054 23.5373C20.083 23.4813 20.0662 23.4197 20.055 23.3525C20.0438 23.3301 20.0326 23.3077 20.0214 23.2853C19.9878 23.1509 20.0382 23.3357 20.0214 23.2517C19.9878 23.1173 19.9654 22.9829 19.9542 22.8485C19.9542 22.8149 19.9542 22.7813 19.9542 22.7477C19.9374 22.7309 19.9374 22.6301 19.9374 22.7141C19.9374 22.6581 19.943 22.5965 19.9542 22.5293C19.9542 22.4621 19.9598 22.3949 19.971 22.3277C19.9822 22.3053 19.9878 22.2773 19.9878 22.2437C20.0046 22.2101 20.0214 22.1262 19.9878 22.2102C20.0214 22.087 20.0606 21.9694 20.1054 21.8574C20.1278 21.8238 20.1446 21.7902 20.1558 21.7566C20.0886 21.8742 20.1726 21.6726 20.1558 21.7566C20.1894 21.6894 20.223 21.6278 20.2566 21.5718C20.2902 21.5158 20.3238 21.4598 20.3574 21.4038C20.3742 21.3702 20.4246 21.3198 20.3574 21.4206C20.3686 21.3982 20.3854 21.3758 20.4078 21.3534C20.4974 21.2414 20.5926 21.1406 20.6934 21.051C20.7605 20.9838 20.6934 21.051 20.6766 21.0678C20.699 21.0454 20.727 21.023 20.7606 21.0006C20.8054 20.9558 20.8558 20.9166 20.9118 20.883C20.9678 20.8494 21.0237 20.8158 21.0797 20.7822C21.0965 20.7654 21.1637 20.7318 21.0797 20.7822C21.1133 20.7598 21.1525 20.743 21.1973 20.7318C21.3093 20.6758 21.4269 20.631 21.5501 20.5974C21.5725 20.5862 21.6005 20.5806 21.6341 20.5806C21.5501 20.5974 21.6341 20.5638 21.6509 20.5638C21.7293 20.5526 21.8077 20.5414 21.8861 20.5302C22.0205 20.519 22.1493 20.5134 22.2725 20.5134C22.2221 20.5134 22.3733 20.5134 22.4069 20.5134C22.4853 20.5246 22.5581 20.5414 22.6253 20.5638C22.6925 20.575 22.7597 20.5862 22.8269 20.5974C22.8605 20.6086 22.8885 20.6198 22.9109 20.631C22.9277 20.631 23.0453 20.6814 23.0117 20.6646C22.9613 20.6478 23.0789 20.6982 23.0789 20.6814C23.1125 20.7038 23.1517 20.7206 23.1965 20.7318C23.2525 20.7654 23.3085 20.799 23.3645 20.8326C23.4205 20.8662 23.4765 20.9054 23.5325 20.9502C23.566 20.9614 23.594 20.9782 23.6164 21.0006C23.6332 21.0174 23.7172 21.0846 23.6836 21.051C23.6333 21.0174 23.734 21.1014 23.734 21.1014C23.7676 21.1238 23.7956 21.1518 23.818 21.1854C23.8628 21.2302 23.9076 21.2806 23.9524 21.3366C23.9972 21.3926 24.042 21.4486 24.0868 21.5046C24.1092 21.527 24.126 21.555 24.1372 21.5886C24.154 21.6054 24.2044 21.7062 24.1708 21.6222C24.238 21.7454 24.294 21.8686 24.3388 21.9918C24.3724 22.0589 24.3948 22.1318 24.406 22.2102C24.4396 22.2773 24.3892 22.1094 24.4228 22.2269C24.434 22.2717 24.4396 22.3165 24.4396 22.3613C24.4508 22.4285 24.462 22.4957 24.4732 22.5629C24.4732 22.5965 24.4732 22.6357 24.4732 22.6805C24.4732 22.6973 24.4732 22.8485 24.49 22.7477C24.4732 22.9829 24.5908 23.2181 24.8764 23.2013C25.1116 23.1677 25.3804 22.8989 25.3804 22.6469C25.3972 21.9582 25.2292 21.3198 24.826 20.7486C24.4732 20.2446 23.9524 19.8918 23.3813 19.6734C22.1549 19.2367 20.6934 19.6734 19.8534 20.6982C18.9798 21.7398 18.7614 23.2685 19.4502 24.4613C20.0886 25.57 21.3821 26.1916 22.6589 25.906C24.154 25.5532 25.33 24.1925 25.3804 22.6469C25.3972 22.4117 25.2796 22.1597 24.994 22.1933C24.742 22.2269 24.49 22.4957 24.49 22.7477Z" fill="white"/>
<path d="M31.1767 18.3789C31.1767 18.5021 31.1656 18.6253 31.1432 18.7485C31.132 18.7821 31.1263 18.8157 31.1263 18.8493C31.1095 18.8829 31.0927 18.9669 31.1095 18.8829C31.0983 18.9501 31.0816 19.0117 31.0592 19.0677C31.0368 19.1349 31.0088 19.2021 30.9752 19.2693C30.964 19.2917 30.9527 19.3141 30.9415 19.3365C30.9583 19.3197 30.9919 19.2525 30.9415 19.3365C30.8744 19.4597 30.8016 19.5773 30.7232 19.6893C30.6728 19.7565 30.7232 19.6893 30.74 19.6725C30.7176 19.7061 30.6952 19.7341 30.6728 19.7565C30.628 19.8013 30.5832 19.8461 30.5384 19.8909C30.4936 19.9357 30.4488 19.9805 30.404 20.0253C30.32 20.0925 30.3872 20.0421 30.404 20.0253C30.3704 20.0589 30.3368 20.0869 30.3032 20.1093C30.2024 20.1765 30.096 20.2437 29.984 20.3109C29.9168 20.3613 29.9672 20.3277 29.984 20.3109C29.9504 20.3333 29.9168 20.3501 29.8832 20.3613C29.816 20.3949 29.7432 20.4229 29.6648 20.4453C29.228 20.6133 28.7072 20.6469 28.2033 20.5125C28.1473 20.4901 28.0969 20.4733 28.0521 20.4621C27.9177 20.4285 28.0857 20.4789 28.0185 20.4453C27.9849 20.4341 27.9513 20.4229 27.9177 20.4117C27.8057 20.3557 27.6937 20.2941 27.5817 20.2269C27.3633 20.0925 27.2457 19.9917 27.0609 19.7733C26.8761 19.5549 26.8089 19.4205 26.6913 19.1685C26.6689 19.1125 26.6521 19.0565 26.6409 19.0005C26.6297 18.9781 26.6185 18.9557 26.6073 18.9333C26.5737 18.7989 26.6241 18.9669 26.6073 18.8829C26.5737 18.7597 26.5513 18.6309 26.5401 18.4965C26.5401 18.4629 26.5345 18.4294 26.5233 18.3958C26.5233 18.379 26.5233 18.2782 26.5233 18.3622C26.5233 18.295 26.5289 18.2278 26.5401 18.1606C26.5401 18.0934 26.5457 18.0318 26.5569 17.9758C26.5681 17.9422 26.5737 17.9142 26.5737 17.8918C26.5737 17.8582 26.6073 17.7574 26.5905 17.8414C26.6129 17.7182 26.6465 17.6006 26.6913 17.4886C26.7137 17.455 26.7305 17.4214 26.7417 17.3878C26.7585 17.3206 26.6913 17.4886 26.7417 17.371C26.7753 17.315 26.8089 17.259 26.8425 17.203C26.8873 17.147 26.9265 17.091 26.9601 17.035C26.9769 17.0182 27.0105 16.951 26.9601 17.035C26.9713 17.0126 26.9881 16.9902 27.0105 16.9678C27.1001 16.867 27.1953 16.7718 27.2961 16.6822C27.2961 16.6654 27.3633 16.615 27.2961 16.6822C27.3185 16.6598 27.3409 16.6374 27.3633 16.615C27.4193 16.5814 27.4697 16.5478 27.5145 16.5142C27.5817 16.4694 27.6433 16.4302 27.6993 16.3966C27.7161 16.3966 27.7665 16.363 27.6993 16.3966C27.7441 16.3854 27.7833 16.3686 27.8169 16.3462C28.2873 16.1446 28.7576 16.0774 29.2784 16.1782C29.816 16.2958 30.2864 16.5646 30.6224 16.9678C30.8239 17.1862 30.9247 17.3374 31.0255 17.623C31.0591 17.6902 31.0815 17.7574 31.0927 17.8246C31.1263 17.9086 31.0759 17.7406 31.1095 17.8582C31.1207 17.903 31.1263 17.9478 31.1263 17.9926C31.1487 18.0598 31.1599 18.127 31.1599 18.1942C31.1599 18.2278 31.1655 18.2614 31.1767 18.295C31.1767 18.3118 31.1767 18.4461 31.1767 18.3789C31.1767 18.5805 31.2775 18.7989 31.5295 18.7821C31.7647 18.7653 31.9999 18.5133 31.9999 18.295C32.0167 17.623 31.8319 17.0014 31.4455 16.4638C31.0927 15.9766 30.572 15.6071 29.984 15.4055C28.7576 14.9687 27.3297 15.3887 26.4897 16.3798C25.6329 17.3878 25.4146 18.8829 26.0865 20.0421C26.7249 21.1341 28.0185 21.722 29.2952 21.4364C30.7904 21.1005 31.9663 19.7733 31.9999 18.295C32.0167 18.0766 31.8991 17.8582 31.6471 17.875C31.4119 17.9086 31.1767 18.1438 31.1767 18.3789Z" fill="white"/>
<path d="M30.8555 26.3756C30.8443 26.51 30.8275 26.6388 30.8051 26.762C30.7939 26.7956 30.7882 26.8292 30.7882 26.8628C30.7715 26.8964 30.7547 26.9804 30.7715 26.8796C30.7603 26.9468 30.7435 27.014 30.7211 27.0812C30.6875 27.1484 30.6595 27.21 30.6371 27.266C30.6259 27.2996 30.6147 27.3276 30.6035 27.35C30.6371 27.2492 30.6203 27.3164 30.6035 27.3332C30.5363 27.4564 30.4579 27.574 30.3683 27.686C30.3179 27.77 30.3683 27.686 30.3851 27.6692C30.3627 27.7028 30.3403 27.7308 30.3179 27.7532C30.2731 27.798 30.2339 27.8428 30.2003 27.8876C30.1443 27.9436 30.0939 27.994 30.0491 28.0388C29.9651 28.106 30.0155 28.0556 30.0491 28.0388C30.0155 28.0612 29.9819 28.0836 29.9483 28.106C29.8475 28.19 29.7467 28.2572 29.6459 28.3244C29.5619 28.3748 29.6291 28.3412 29.6459 28.3244C29.6123 28.3468 29.5787 28.3636 29.5451 28.3748C29.4779 28.4084 29.4051 28.442 29.3267 28.4756C29.2707 28.498 29.2147 28.5148 29.1587 28.526C29.1419 28.5428 29.0579 28.5595 29.1251 28.5428C29.1027 28.5539 29.0747 28.5596 29.0411 28.5596C28.9067 28.5932 28.7667 28.6155 28.6211 28.6267C28.47 28.6435 28.4699 28.6435 28.3188 28.6267C28.1844 28.6155 28.05 28.5988 27.9156 28.5764C27.8708 28.554 27.8204 28.5372 27.7644 28.526C27.6468 28.4924 27.798 28.5428 27.7308 28.5092C27.7084 28.498 27.6804 28.4868 27.6468 28.4756C27.5348 28.4308 27.4284 28.3748 27.3276 28.3076C27.2716 28.274 27.2212 28.2404 27.1764 28.2068C27.154 28.1844 27.1316 28.1676 27.1092 28.1564C27.042 28.106 27.1764 28.2068 27.0756 28.1396C26.9972 28.05 26.9188 27.9604 26.8404 27.8708C26.762 27.7812 26.6948 27.686 26.6388 27.5852C26.6052 27.518 26.6724 27.6692 26.622 27.5516C26.6108 27.5292 26.5996 27.5068 26.5884 27.4844C26.5548 27.4172 26.5268 27.35 26.5044 27.2828C26.482 27.2268 26.4596 27.1708 26.4372 27.1148C26.4372 27.0924 26.4316 27.0644 26.4204 27.0308C26.3868 26.9132 26.4372 27.0812 26.4204 27.014C26.3868 26.8796 26.37 26.7452 26.37 26.6108C26.3588 26.5772 26.3532 26.5436 26.3532 26.51C26.3532 26.4932 26.3532 26.3924 26.3532 26.4764C26.3532 26.4204 26.3588 26.3588 26.37 26.2916C26.3812 26.2244 26.3924 26.1628 26.4036 26.1068C26.4036 26.0732 26.4092 26.0452 26.4204 26.0228C26.4204 25.9724 26.454 25.8884 26.4204 25.9724C26.454 25.8492 26.4932 25.7317 26.538 25.6197C26.5604 25.5861 26.5772 25.5525 26.5884 25.5189C26.5212 25.6365 26.622 25.4517 26.5884 25.5189C26.622 25.4629 26.6556 25.4013 26.6892 25.3341C26.734 25.2781 26.7732 25.2221 26.8068 25.1661C26.8236 25.1493 26.874 25.0821 26.8068 25.1829C26.818 25.1605 26.8348 25.1381 26.8572 25.1157C26.9468 25.0149 27.042 24.9141 27.1428 24.8133C27.21 24.7461 27.1428 24.8133 27.126 24.8133C27.1596 24.8021 27.1876 24.7853 27.21 24.7629C27.266 24.7181 27.3164 24.6789 27.3612 24.6453C27.4172 24.6117 27.4788 24.5781 27.546 24.5445C27.5628 24.5277 27.63 24.4941 27.546 24.5277C27.5796 24.5165 27.6132 24.4997 27.6468 24.4773C27.77 24.4213 27.8876 24.3765 27.9996 24.3429C28.0332 24.3317 28.0612 24.3261 28.0836 24.3261C27.9996 24.3429 28.1004 24.3093 28.1172 24.3093C28.1956 24.2981 28.2739 24.2869 28.3523 24.2757C28.4755 24.2533 28.6043 24.2421 28.7387 24.2421C28.6715 24.2421 28.7387 24.2421 28.7555 24.2421C28.7891 24.2421 28.8227 24.2421 28.8563 24.2421C28.9347 24.2533 29.0131 24.2645 29.0915 24.2757C29.2091 24.2925 29.3939 24.3429 29.4611 24.3765C29.5283 24.3933 29.6963 24.4773 29.8139 24.5277C29.9147 24.5949 30.0659 24.6957 30.1163 24.7461C30.1667 24.7797 30.3011 24.9141 30.3683 25.0149C30.4131 25.0597 30.4579 25.1101 30.5027 25.1661C30.5251 25.1997 30.5419 25.2277 30.5531 25.2501C30.5699 25.2669 30.6203 25.3677 30.5867 25.3005C30.6427 25.4125 30.6931 25.5301 30.7379 25.6533C30.7603 25.7205 30.7827 25.7876 30.8051 25.8548C30.8219 25.922 30.7883 25.7541 30.8051 25.8884C30.8163 25.922 30.8219 25.9612 30.8219 26.006C30.8331 26.0732 30.8443 26.1404 30.8555 26.2076C30.8555 26.2412 30.8555 26.2748 30.8555 26.3084C30.8555 26.3252 30.8555 26.4764 30.8555 26.3756C30.8387 26.6108 30.9394 26.846 31.2082 26.7956C31.4602 26.7788 31.7122 26.4932 31.729 26.258C31.7626 25.5861 31.6114 24.9645 31.2418 24.4269C30.9059 23.9565 30.4187 23.6037 29.8475 23.4189C28.6379 22.999 27.1764 23.4693 26.3364 24.4941C25.446 25.5357 25.1941 27.0476 25.8324 28.2068C26.4372 29.2819 27.6636 29.8531 28.9235 29.5339C30.4019 29.1475 31.6282 27.77 31.729 26.258C31.7458 26.0228 31.645 25.8045 31.3762 25.8381C31.1242 25.8717 30.8723 26.1404 30.8555 26.3756Z" fill="white"/>
<path fill-rule="evenodd" clip-rule="evenodd" d="M24.6752 22.5121L24.5744 22.0921C24.44 21.5882 24.1544 21.1178 23.7344 20.7986L23.3984 20.5466L23.7512 20.3114C24.5576 19.7738 25.2968 19.2866 26.0192 18.8163L26.3887 18.5811L26.4895 18.9842C26.6071 19.505 26.9095 19.9586 27.3295 20.2778L27.6655 20.5298L27.3127 20.765C26.5735 21.2522 25.8176 21.7561 25.028 22.2769L24.6752 22.5121ZM24.4064 20.597C24.6752 20.8658 24.8936 21.185 25.0448 21.5545C25.5936 21.185 26.1311 20.8266 26.6575 20.4794C26.3887 20.2106 26.1703 19.8914 26.036 19.5218C25.5152 19.8746 24.9776 20.2274 24.4064 20.597Z" fill="white"/>
<path fill-rule="evenodd" clip-rule="evenodd" d="M26.1883 26.5439L25.8187 26.3255C25.1635 25.9223 24.4748 25.5192 23.7356 25.0656L23.3828 24.8472L23.702 24.5784C24.122 24.2256 24.4412 23.7384 24.5588 23.2176L24.6596 22.8145L25.0124 23.0328C25.7011 23.4528 26.3899 23.856 27.0283 24.2424L27.3811 24.4608L27.0787 24.7296C26.6755 25.0992 26.3899 25.6032 26.2723 26.1239L26.1883 26.5439ZM24.3908 24.7632C24.878 25.0488 25.3483 25.3344 25.8019 25.6031C25.9363 25.2336 26.1379 24.8808 26.4067 24.5784C25.9587 24.3096 25.4995 24.0352 25.0292 23.7552C24.878 24.1248 24.6596 24.4608 24.3908 24.7632Z" fill="white"/>
<path d="M25.0284 22.4282C25.6891 21.9802 26.3499 21.5378 27.0107 21.101C27.1115 21.045 27.2067 20.9834 27.2963 20.9162C27.5987 20.7314 27.6994 20.2946 27.4139 20.0762C27.2459 19.9586 27.0611 19.7403 26.9099 19.5387C26.8595 19.4379 26.8091 19.3707 26.7587 19.2531C26.7251 19.1859 26.6971 19.1187 26.6747 19.0515C26.6635 19.0179 26.6523 18.9843 26.6411 18.9507C26.6411 18.9507 26.6243 18.8499 26.6243 18.9003C26.5907 18.7659 26.5403 18.6651 26.4059 18.5979C26.2715 18.5475 26.1371 18.5811 26.0195 18.6651C25.3587 19.1019 24.698 19.5387 24.0372 19.9754C23.9364 20.0314 23.8412 20.093 23.7516 20.1602C23.466 20.345 23.3652 20.7818 23.6508 21.0002C23.8188 21.1346 24.0036 21.353 24.138 21.5546C24.2052 21.6386 24.2388 21.7226 24.2892 21.8402C24.3228 21.9074 24.3508 21.9746 24.3732 22.0418C24.3844 22.0754 24.3956 22.109 24.4068 22.1426C24.4068 22.1426 24.4404 22.2266 24.4236 22.193C24.4908 22.4282 24.6588 22.5794 24.9107 22.4786C25.1291 22.3946 25.3643 22.0922 25.2971 21.857C25.1291 21.1514 24.7596 20.5634 24.1884 20.1266C24.1548 20.4066 24.1156 20.6866 24.0708 20.9666C24.7428 20.5298 25.4091 20.093 26.0699 19.6563C26.1595 19.5891 26.2547 19.5219 26.3555 19.4547C26.1539 19.3875 25.9523 19.3147 25.7507 19.2363C25.9355 19.9418 26.3051 20.513 26.8763 20.9666C26.9099 20.6866 26.9435 20.4066 26.9771 20.1266C26.3163 20.5634 25.6499 21.0002 24.9779 21.437C24.8884 21.5042 24.7932 21.5658 24.6924 21.6218C24.4908 21.7562 24.3564 22.0754 24.4572 22.3106C24.558 22.5458 24.8268 22.5626 25.0284 22.4282Z" fill="white"/>
<path d="M27.1629 24.0578C26.4909 23.6546 25.8133 23.2514 25.1302 22.8482C24.8782 22.697 24.5086 22.949 24.4582 23.2178C24.4134 23.3522 24.3686 23.4866 24.3238 23.621C24.3126 23.6434 24.2958 23.6714 24.2734 23.705C24.2398 23.789 24.3238 23.6378 24.2734 23.7218C24.2398 23.7722 24.2062 23.8394 24.1726 23.9066C24.1278 23.9626 24.0886 24.0186 24.055 24.0746C24.0214 24.125 24.0382 24.1082 24.055 24.0746C24.0326 24.097 24.0102 24.125 23.9878 24.1586C23.943 24.2146 23.8926 24.265 23.8366 24.3098C23.8142 24.3322 23.7918 24.3546 23.7694 24.377C23.7526 24.3938 23.6686 24.461 23.7358 24.4106C23.5006 24.6122 23.299 25.0489 23.6182 25.2505C24.3238 25.6761 25.0182 26.0961 25.7013 26.5105C26.0205 26.7121 26.3565 26.3089 26.4069 26.0233C26.4237 25.9897 26.4237 25.9393 26.4069 25.9897C26.4181 25.9561 26.4293 25.9281 26.4405 25.9057C26.4629 25.8273 26.4853 25.7545 26.5077 25.6873C26.5301 25.6537 26.5469 25.6201 26.5581 25.5865C26.5581 25.5865 26.5917 25.5025 26.5749 25.5529C26.5581 25.5865 26.5917 25.5025 26.6085 25.5025C26.6197 25.4577 26.6365 25.4185 26.6589 25.3849C26.6925 25.3289 26.7317 25.2729 26.7765 25.2169C26.7877 25.1945 26.8045 25.1721 26.8269 25.1497C26.7933 25.1833 26.8101 25.1665 26.8269 25.1329C26.9277 25.0209 27.0285 24.9146 27.1293 24.8138C27.3141 24.6458 27.3981 24.3098 27.2301 24.125C27.0621 23.9234 26.7933 24.041 26.6253 24.1922C26.0541 24.713 25.7013 25.3849 25.5501 26.1241C25.7853 25.9561 26.0205 25.7881 26.2557 25.6201C25.5613 25.2057 24.867 24.7914 24.1726 24.377C24.1278 24.657 24.0886 24.9369 24.055 25.2169C24.6262 24.7298 25.0798 24.0914 25.2646 23.369C25.0406 23.4922 24.811 23.6154 24.5758 23.7386C25.2589 24.1418 25.9365 24.545 26.6085 24.9482C27.0453 25.2169 27.5997 24.3266 27.1629 24.0578Z" fill="white"/>
<path d="M18.1389 25.1997C17.5901 24.6734 17.0413 24.147 16.4925 23.6206C15.619 22.7806 14.7454 21.9407 13.8718 21.1007C13.659 20.8991 13.4519 20.7031 13.2503 20.5127C13.1159 20.3783 12.8975 20.3447 12.7295 20.4791C11.9455 21.0839 11.1672 21.6831 10.3944 22.2766C10.2824 22.3662 10.176 22.4502 10.0752 22.5286C9.8064 22.747 9.6888 23.1334 9.99119 23.3854C10.988 24.2254 11.9791 25.0597 12.9647 25.8885C13.6142 26.4485 14.2638 27.0029 14.9134 27.5517C15.2494 27.8541 15.619 28.2404 16.039 28.4084C16.8789 28.7612 17.8029 28.4084 18.3069 27.6357C18.8109 26.8965 18.7773 25.8381 18.1389 25.1997C17.9541 25.015 17.6853 25.0653 17.5173 25.2501C17.3829 25.4181 17.2485 25.7541 17.4333 25.9389C17.5005 26.0061 17.5621 26.0733 17.6181 26.1405C17.6293 26.1629 17.6405 26.1909 17.6517 26.2245C17.6181 26.1405 17.6853 26.2749 17.6853 26.2749C17.7189 26.3421 17.7413 26.4093 17.7525 26.4765C17.7357 26.3925 17.7693 26.5269 17.7693 26.5269C17.7693 26.5717 17.7749 26.6165 17.7861 26.6613C17.8029 26.7789 17.7861 26.5773 17.7861 26.6949C17.7861 26.7397 17.7861 26.7789 17.7861 26.8125C17.7749 26.8461 17.7693 26.8797 17.7693 26.9133C17.7861 26.7957 17.7525 26.9301 17.7525 26.9469C17.7413 26.9805 17.7301 27.0085 17.7189 27.0309C17.6853 27.1653 17.7693 26.9469 17.7021 27.0645C17.6797 27.1093 17.6573 27.1485 17.6349 27.1821C17.5845 27.2829 17.7021 27.1317 17.6181 27.2157C17.5677 27.2829 17.5173 27.3333 17.4669 27.3837C17.5509 27.2997 17.4501 27.4005 17.4333 27.4005C17.3997 27.4229 17.3661 27.4453 17.3325 27.4677C17.3493 27.4509 17.3997 27.4341 17.3157 27.4677C17.2821 27.4901 17.2429 27.5069 17.1981 27.5181C17.1757 27.5293 17.1477 27.5405 17.1141 27.5517C17.0805 27.5629 17.0805 27.5629 17.1141 27.5517C17.0917 27.5517 17.0637 27.5517 17.0301 27.5517C16.9629 27.5629 16.8957 27.5685 16.8285 27.5685C16.7109 27.5685 16.8957 27.5853 16.7781 27.5685C16.7445 27.5573 16.7109 27.5517 16.6773 27.5517C16.6437 27.5405 16.6101 27.5349 16.5765 27.5349C16.5765 27.5181 16.4422 27.4845 16.5262 27.5181C16.4478 27.4845 16.3749 27.4453 16.3078 27.4005C15.9718 27.1821 15.6862 26.8797 15.4006 26.6277C14.135 25.5525 12.8583 24.4774 11.5703 23.4022C11.2119 23.0998 10.8536 22.7974 10.4952 22.495C10.4728 22.7862 10.4504 23.0718 10.428 23.3518C11.2007 22.747 11.9735 22.1423 12.7463 21.5375C12.8583 21.4591 12.9703 21.3751 13.0823 21.2855C12.9031 21.2743 12.7295 21.2631 12.5615 21.2519C13.1103 21.7783 13.6646 22.3046 14.2246 22.831C15.0982 23.6822 15.9718 24.5278 16.8453 25.3677C17.0469 25.5581 17.2429 25.7485 17.4333 25.9389C17.6181 26.1237 17.8869 26.0733 18.0549 25.8885C18.1893 25.7205 18.3237 25.3845 18.1389 25.1997Z" fill="white"/>
<path d="M24.6923 18.4631C23.8859 19.0847 25.4147 17.9087 24.6251 18.5135C24.5243 18.5807 24.6755 18.4967 24.5747 18.5471C24.5299 18.5583 24.4907 18.5695 24.4571 18.5807C24.4739 18.5807 24.5243 18.5807 24.4403 18.5807C24.4067 18.5919 24.3675 18.5975 24.3227 18.5975C24.2051 18.6143 24.3731 18.6143 24.2723 18.5975C24.2387 18.5975 24.2107 18.5919 24.1883 18.5807C24.1715 18.5807 24.0203 18.5303 24.0875 18.5639C24.0203 18.5303 23.9587 18.4911 23.9027 18.4463C23.8355 18.4127 23.9531 18.5135 23.8691 18.4295C23.8355 18.3959 23.8075 18.3623 23.7851 18.3287C23.7739 18.3287 23.7683 18.3231 23.7683 18.3119C23.7235 18.2559 23.6843 18.1999 23.6507 18.1439C23.4043 17.8415 23.1636 17.5391 22.9284 17.2367C22.0324 16.072 21.1308 14.9072 20.2237 13.7425C19.0813 12.2641 17.9558 10.8026 16.8134 9.34103C15.8614 8.09787 14.9151 6.86032 13.9743 5.62837C13.6943 5.25878 13.4143 4.88919 13.1343 4.5196C13.0671 4.4188 12.9999 4.32362 12.9327 4.23402C12.9103 4.21162 12.8935 4.18922 12.8823 4.16682C12.8823 4.16682 12.8767 4.16682 12.8655 4.16682C12.8655 4.16682 12.7984 4.04922 12.832 4.11642C12.8152 4.06602 12.7983 4.03242 12.7816 3.99882C12.748 3.91483 12.7816 4.03242 12.7648 3.94843C12.7648 3.90363 12.7592 3.86443 12.748 3.83083C12.748 3.71323 12.7312 3.89803 12.748 3.78043C12.7592 3.74683 12.7648 3.71884 12.7648 3.69644C12.748 3.81403 12.7816 3.67963 12.7816 3.66284C12.7983 3.62924 12.8487 3.52844 12.7983 3.62923C12.8095 3.60684 12.8264 3.57884 12.8488 3.54524C12.8824 3.47804 12.7648 3.61244 12.8488 3.52844C12.8656 3.52844 12.9663 3.42764 12.8823 3.49484C12.9159 3.47244 12.9552 3.45004 13 3.42764C12.916 3.46124 12.9664 3.42764 13 3.42764C13.0335 3.40524 13.0727 3.38844 13.1175 3.37724C13.0335 3.41084 13.1511 3.37724 13.1679 3.37724C13.1903 3.36604 13.2183 3.36045 13.2519 3.36045C13.3527 3.36045 13.2015 3.34365 13.3023 3.36045C13.3471 3.37165 13.3863 3.38285 13.4199 3.39405C13.4423 3.39405 13.4703 3.39964 13.5039 3.41084C13.4703 3.39964 13.4647 3.39964 13.4871 3.41084C13.6551 3.49484 13.7223 3.56204 13.8231 3.71323C14.0135 3.94842 14.2039 4.18921 14.3943 4.4356C15.2231 5.53316 16.0574 6.63073 16.8974 7.72829C18.023 9.18984 19.1653 10.6682 20.2909 12.1297C21.2988 13.4177 22.3012 14.7056 23.298 15.9936C23.7683 16.5984 24.2387 17.1863 24.6923 17.7911C24.7595 17.8751 24.7931 17.9759 24.8099 18.0263C24.8099 18.0599 24.8155 18.0935 24.8267 18.1271C24.8267 18.1439 24.8099 18.2279 24.8267 18.1439C24.8267 18.1887 24.8211 18.2279 24.8099 18.2615C24.8267 18.1607 24.8099 18.2783 24.7931 18.2951C24.7819 18.3287 24.7707 18.3567 24.7595 18.3791C24.8099 18.2615 24.7595 18.3791 24.7427 18.3959C24.6755 18.5135 24.8099 18.3455 24.7259 18.4295C24.7091 18.4295 24.6083 18.5303 24.6923 18.4631C24.4907 18.6143 24.3563 18.8831 24.4571 19.1183C24.5411 19.3367 24.8267 19.3871 25.0115 19.2527C25.6835 18.7151 25.9187 17.7911 25.3811 17.0856C25.3587 17.0408 25.3307 17.0016 25.2971 16.968C25.0619 16.6768 24.8323 16.3856 24.6083 16.0944C23.7011 14.9184 22.7828 13.7369 21.8532 12.5497C20.6941 11.0546 19.5181 9.54262 18.3589 8.03068C17.3846 6.76512 16.4214 5.50517 15.4694 4.25081C15.2007 3.89243 14.9319 3.53964 14.6631 3.19245C14.3775 2.80607 14.0919 2.47007 13.5879 2.41968C12.748 2.35248 12.0088 3.02446 11.908 3.86443C11.8744 4.25082 11.992 4.6204 12.2272 4.92279C12.3952 5.15798 12.5688 5.38757 12.748 5.61156C13.5767 6.70912 14.4167 7.81228 15.2679 8.92104C16.4102 10.4162 17.5694 11.9113 18.7285 13.4065C19.7477 14.728 20.7668 16.044 21.786 17.3543C22.2228 17.9255 22.6428 18.4967 23.0964 19.0511C23.55 19.6223 24.4235 19.7063 25.0115 19.2527C25.2131 19.1015 25.3475 18.8327 25.2467 18.5807C25.1627 18.3623 24.8771 18.3287 24.6923 18.4631Z" fill="white"/>
<path fill-rule="evenodd" clip-rule="evenodd" d="M20.995 12.5833L20.8102 12.3481C19.7015 10.9201 18.7943 9.74417 17.9375 8.65221L17.7695 8.41702L18.0047 8.23223C18.5591 7.79544 19.2311 7.61064 19.9367 7.71144C20.6254 7.81224 21.247 8.16502 21.6838 8.7194C22.1206 9.29058 22.3054 9.97936 22.2214 10.6849C22.1374 11.3737 21.7846 11.9785 21.2302 12.4153L20.995 12.5833ZM18.6263 8.51782C19.3655 9.47538 20.1551 10.5169 21.0958 11.7097C21.3814 11.4073 21.5662 11.0209 21.6334 10.5841C21.7006 10.0466 21.5494 9.50898 21.2134 9.0722C20.8774 8.63541 20.3902 8.36662 19.8527 8.29942C19.4159 8.23222 18.9959 8.31623 18.6263 8.51782Z" fill="white"/>
<path d="M21.2324 12.6173C21.7868 12.1805 22.19 11.6093 22.3412 10.9373C22.4924 10.2821 22.4252 9.59337 22.1228 8.98859C21.5012 7.79584 20.1405 7.20785 18.8805 7.57744C18.3766 7.72863 17.3518 8.23262 17.839 8.9046C17.9566 9.05579 18.0741 9.20698 18.1917 9.37498C18.6733 9.99095 19.1549 10.6125 19.6365 11.2397C19.9837 11.6765 20.3309 12.1189 20.6781 12.5669C20.8461 12.7853 21.182 12.7013 21.35 12.5165C21.518 12.3149 21.602 11.9957 21.434 11.7773C20.5941 10.6909 19.7541 9.61017 18.9141 8.53501C18.8021 8.37821 18.6845 8.22142 18.5613 8.06463C18.5949 8.18782 18.6285 8.31102 18.6621 8.43422C18.5613 8.59101 18.4661 8.7478 18.3766 8.9046C18.4661 8.8374 18.5557 8.77579 18.6453 8.7198C18.6621 8.7198 18.7461 8.6862 18.6789 8.703C18.6285 8.7366 18.7125 8.70301 18.7293 8.68621C18.7741 8.66381 18.8245 8.6414 18.8805 8.619C18.9365 8.6078 18.9869 8.59101 19.0317 8.56861C19.0541 8.56861 19.0765 8.563 19.0989 8.5518C19.0149 8.5854 19.0821 8.56861 19.0989 8.56861C19.2109 8.54621 19.3229 8.52941 19.4349 8.51821C19.4909 8.51821 19.5469 8.51821 19.6029 8.51821C19.6197 8.51821 19.6869 8.51821 19.6029 8.51821C19.6253 8.51821 19.6533 8.52381 19.6869 8.53501C19.7989 8.54621 19.9053 8.563 20.0061 8.5854C20.0509 8.5966 20.1013 8.6134 20.1573 8.6358C20.1741 8.6358 20.2917 8.6862 20.2077 8.65261C20.3197 8.6974 20.4261 8.7534 20.5269 8.8206C20.6277 8.8766 20.7172 8.93819 20.7956 9.00539C20.7284 8.95499 20.8293 9.03899 20.8461 9.05578C20.8908 9.10058 20.9357 9.15099 20.9805 9.20698C21.0589 9.28538 21.126 9.37497 21.182 9.47577C21.2156 9.50937 21.182 9.45897 21.182 9.45897C21.1932 9.48137 21.21 9.50937 21.2324 9.54297C21.2548 9.59897 21.2828 9.65497 21.3164 9.71096C21.3276 9.75576 21.3444 9.80056 21.3668 9.84536C21.3668 9.87896 21.4172 10.0302 21.4004 9.92935C21.4228 10.0414 21.4396 10.1533 21.4508 10.2653C21.462 10.3213 21.4676 10.3773 21.4676 10.4333C21.4676 10.3325 21.4676 10.4501 21.4676 10.4837C21.4676 10.6013 21.4508 10.7021 21.434 10.8197C21.4172 10.8869 21.4508 10.7189 21.434 10.8029C21.4228 10.8365 21.4116 10.8701 21.4004 10.9037C21.3892 10.9597 21.3724 11.0157 21.35 11.0717C21.3388 11.0941 21.3276 11.1165 21.3164 11.1389C21.266 11.2565 21.3836 11.0213 21.3164 11.1557C21.294 11.2005 21.266 11.2453 21.2324 11.2901C21.1988 11.3461 21.1652 11.4021 21.1316 11.4581C21.098 11.5085 21.1484 11.4245 21.1484 11.4245C21.1652 11.4245 21.0812 11.5085 21.0812 11.5253C21.0364 11.5701 20.9916 11.6093 20.9468 11.6429C20.9356 11.6653 20.9189 11.6877 20.8965 11.7101C20.8125 11.7773 20.9636 11.6429 20.8628 11.7269C20.6445 11.8949 20.4933 12.1973 20.6109 12.4661C20.7117 12.7013 21.0309 12.7685 21.2324 12.6173Z" fill="white"/>
<path d="M13.9063 19.5885C13.2567 20.0925 12.6127 20.5965 11.9744 21.1005C11.0224 21.8396 10.076 22.5676 9.13528 23.2844C9.02328 23.374 8.91129 23.4636 8.79929 23.5532C8.77689 23.5644 8.75449 23.5812 8.73209 23.6036C8.71529 23.6036 8.63129 23.654 8.66489 23.6372C8.71529 23.6204 8.6313 23.654 8.6313 23.654C8.5641 23.6708 8.68168 23.654 8.61448 23.654C8.59768 23.654 8.5137 23.654 8.5641 23.654C8.59769 23.654 8.4969 23.654 8.4801 23.654C8.3793 23.6204 8.3457 23.5868 8.2617 23.5028C8.2505 23.4692 8.23371 23.4412 8.21131 23.4188C8.12172 23.2956 8.02651 23.178 7.92571 23.066C7.16414 22.0916 6.40257 21.1173 5.641 20.1429C5.28261 19.6949 4.92422 19.2469 4.56584 18.7989C4.46504 18.6645 4.35864 18.5302 4.24664 18.3958C4.22425 18.351 4.19625 18.3118 4.16265 18.2782C4.14585 18.2614 4.11226 18.211 4.12906 18.2278C4.11786 18.2054 4.10667 18.183 4.09547 18.1606C4.09547 18.1606 4.11227 18.2278 4.09547 18.1438C4.09547 18.127 4.07865 18.0598 4.07865 18.127C4.07865 18.1046 4.08427 18.0766 4.09547 18.043C4.07867 18.0934 4.11227 18.0934 4.09547 18.043C4.11227 18.0094 4.14586 18.0262 4.09547 18.043C4.10667 18.0318 4.11786 18.0206 4.12906 18.0094C4.22985 17.931 4.33066 17.8526 4.43145 17.7742C4.83464 17.4718 5.24341 17.1638 5.6578 16.8502C6.65456 16.0886 7.65693 15.3215 8.66489 14.5487C8.88328 14.3807 9.10167 14.2127 9.33686 14.0447C9.35366 14.0279 9.45447 13.9775 9.38727 13.9943C9.40967 13.9831 9.43767 13.9775 9.47127 13.9775C9.43767 13.9775 9.40406 13.9775 9.48806 13.9775C9.48806 13.9775 9.55525 13.9775 9.50486 13.9775C9.53846 13.9775 9.57205 13.9831 9.60565 13.9943C9.67285 14.0111 9.72324 14.0447 9.77364 14.0951C9.78484 14.1063 9.79605 14.1175 9.80725 14.1287C9.86325 14.2071 9.91925 14.2855 9.97525 14.3639C10.6808 15.2599 11.3864 16.1614 12.092 17.0686C12.6799 17.8246 13.2679 18.5806 13.8391 19.3533C13.8559 19.3701 13.8895 19.4037 13.8895 19.4037C13.8727 19.3701 13.9063 19.4541 13.9063 19.4541C13.9399 19.5213 13.9063 19.4037 13.9063 19.4709C13.9231 19.4877 13.9231 19.5717 13.9231 19.5213C13.9231 19.4709 13.9231 19.5549 13.9231 19.5717C13.9063 19.6221 13.9567 19.5213 13.9231 19.5717C13.8727 19.6221 13.9567 19.5045 13.9231 19.5717C13.9063 19.5717 13.8559 19.6557 13.9063 19.6053C13.9567 19.5381 13.8223 19.6557 13.9063 19.5885C13.7383 19.7397 13.5871 19.9917 13.6879 20.2269C13.7887 20.4453 14.0575 20.5125 14.2423 20.3613C14.7463 19.9413 14.9311 19.2357 14.5279 18.6814C14.4719 18.6142 14.4215 18.547 14.3767 18.4798C14.0855 18.1102 13.7943 17.735 13.5031 17.3542C12.6855 16.3014 11.8736 15.2543 11.0672 14.2127C10.8656 13.9439 10.664 13.6919 10.4624 13.4399C10.1768 13.0872 9.68965 12.9528 9.26966 13.1376C9.11847 13.188 9.01768 13.2719 8.90008 13.3727C8.00412 14.0559 7.11375 14.7391 6.22898 15.4223C5.42261 16.027 4.59944 16.6486 3.80987 17.2534C3.49068 17.4886 3.2723 17.791 3.2555 18.1942C3.2387 18.4966 3.35629 18.7486 3.54108 18.9837C3.78747 19.2861 4.02827 19.5941 4.26346 19.9077C5.10343 20.9605 5.93778 22.0132 6.76655 23.066C7.03534 23.402 7.29854 23.7436 7.55613 24.0908C7.67373 24.2251 7.79133 24.3595 7.95932 24.4435C8.32891 24.6451 8.76568 24.5947 9.08487 24.3427C9.85764 23.7716 10.6136 23.1668 11.3864 22.5788C12.2823 21.8844 13.1783 21.1845 14.0743 20.4789C14.1303 20.4453 14.1863 20.4061 14.2423 20.3613C14.4271 20.2101 14.5615 19.9581 14.4607 19.7229C14.3599 19.5045 14.0911 19.4541 13.9063 19.5885Z" fill="white"/>
<path fill-rule="evenodd" clip-rule="evenodd" d="M5.8091 24.5951C5.65791 24.5951 5.55711 24.5447 5.47312 24.4439C4.54915 23.2679 3.57479 22.0416 2.51643 20.7144C2.24764 20.3784 2.63403 19.9417 3.25561 19.2025C3.4572 18.9841 3.65878 18.7489 3.72598 18.6313L3.94438 18.2617L4.21316 18.5977C5.62431 20.3784 6.85067 21.9408 7.97623 23.3855L8.26181 23.7383L7.82503 23.8559C7.70743 23.8895 7.43863 24.0071 7.18664 24.1247C6.53147 24.4103 6.09469 24.5951 5.8091 24.5951ZM3.0708 20.4288C4.07876 21.7056 5.00274 22.8648 5.8763 23.9735C6.0947 23.9399 6.63226 23.7047 6.93465 23.5703C7.04665 23.5143 7.15305 23.4695 7.25384 23.4359C6.26268 22.1592 5.18752 20.7984 3.97797 19.2865C3.89957 19.3873 3.81557 19.4937 3.72598 19.6057C3.52438 19.8241 3.17159 20.244 3.0708 20.4288Z" fill="white"/>
<path fill-rule="evenodd" clip-rule="evenodd" d="M14.1253 19.5214L13.9909 19.2526C13.9797 19.2414 13.9685 19.2302 13.9573 19.219C12.8485 17.791 11.7398 16.3463 10.6478 14.9519L9.89187 13.9608C9.86947 13.9384 9.84147 13.916 9.80787 13.8936L9.53906 13.692L9.77426 13.44C11.7398 11.2897 12.899 8.46737 12.9997 5.54428L13.0333 4.6875L13.5541 5.35948C15.9564 8.53456 18.4763 11.7936 20.9122 14.9519C21.6514 15.8927 22.3906 16.8391 23.1298 17.791L23.6337 18.4462L22.8106 18.2614C19.9715 17.6398 16.9644 18.0262 14.3941 19.387L14.1253 19.5214ZM10.3958 13.6416L11.1182 14.5656C12.1766 15.9263 13.2685 17.3374 14.3269 18.715C16.746 17.5222 19.4843 17.1023 22.1554 17.5222C21.5842 16.7831 21.013 16.0439 20.4419 15.3047C18.1571 12.3816 15.8052 9.34093 13.5373 6.36744C13.2685 9.05534 12.1766 11.6089 10.3958 13.6416Z" fill="white"/>
<path d="M3.64108 18.5811C3.61868 18.6147 3.6019 18.6427 3.5907 18.6651C3.5235 18.7659 3.65788 18.5811 3.57388 18.6819C3.50668 18.7603 3.44509 18.8331 3.38909 18.9003C3.2435 19.0683 3.1035 19.2363 2.96911 19.4043C2.71712 19.7067 2.33073 20.093 2.31393 20.4962C2.29713 20.7314 2.43152 20.8826 2.56592 21.0506C2.74511 21.2634 2.91872 21.4818 3.08671 21.7058C3.5795 22.3218 4.07227 22.9377 4.56505 23.5537C4.75544 23.7889 4.94584 24.0297 5.13623 24.2761C5.22023 24.3769 5.28742 24.4945 5.38822 24.5953C5.70741 24.9313 6.26178 24.6457 6.59777 24.5113C7.00095 24.3433 7.38735 24.1249 7.80733 24.0073C8.10972 23.9233 8.27772 23.4865 8.05932 23.2177C7.64494 22.6801 7.22496 22.1426 6.79937 21.605C6.1274 20.7426 5.44983 19.8858 4.76665 19.0347C4.62106 18.8331 4.46985 18.6371 4.31306 18.4467C4.16186 18.2619 3.85948 18.3291 3.70828 18.4803C3.55709 18.6651 3.48989 18.9339 3.64108 19.1355C4.06667 19.673 4.49225 20.2106 4.91783 20.7482C5.601 21.5994 6.2786 22.4562 6.95057 23.3185C7.10736 23.5201 7.26415 23.7161 7.42094 23.9065C7.49934 23.6489 7.58333 23.3857 7.67293 23.1169C7.32014 23.2177 7.00096 23.4025 6.66497 23.5369C6.48018 23.6209 6.29539 23.7049 6.1106 23.7721C6.0658 23.7833 6.02659 23.7945 5.99299 23.8057C5.97059 23.8057 5.94819 23.8113 5.92579 23.8225C5.85859 23.8393 5.9594 23.8057 5.9594 23.8057C5.9594 23.8225 5.909 23.8225 5.8922 23.8225C5.77461 23.8393 5.9426 23.8393 5.8922 23.8225C5.9426 23.8393 6.07699 23.9737 5.99299 23.8561C5.9482 23.8001 5.90341 23.7441 5.85861 23.6881C5.69062 23.4641 5.51701 23.2457 5.33781 23.0329C4.87863 22.4505 4.41946 21.8682 3.96027 21.2858C3.76988 21.0394 3.57389 20.7986 3.3723 20.5634C3.2883 20.4458 3.18751 20.3114 3.08671 20.1938C3.08671 20.1938 3.08671 20.1882 3.08671 20.177C3.13711 20.2274 3.1539 20.3618 3.1539 20.429C3.1539 20.3954 3.1203 20.5634 3.1539 20.4626C3.0867 20.6306 3.1371 20.513 3.1539 20.4794C3.20429 20.3954 3.25469 20.3114 3.32189 20.2442C3.35549 20.177 3.2379 20.345 3.30509 20.261C3.32749 20.2274 3.3443 20.1994 3.3555 20.177C3.4003 20.1322 3.43949 20.0874 3.47309 20.0426C3.75868 19.7066 4.09466 19.3875 4.32985 19.0011C4.43065 18.8163 4.44745 18.5139 4.22906 18.3795C4.01067 18.2451 3.74188 18.3963 3.64108 18.5811Z" fill="white"/>
<path d="M12.8824 5.59493C12.832 6.75409 12.6472 7.81245 12.3112 8.88761C12.2216 9.1564 12.1208 9.4252 12.0088 9.69399C11.964 9.82838 11.9136 9.95717 11.8576 10.0804C11.8352 10.1364 11.8072 10.198 11.7736 10.2652C11.7736 10.2652 11.74 10.3492 11.7736 10.282C11.7512 10.3156 11.7288 10.3548 11.7064 10.3996C11.4601 10.9035 11.1801 11.3963 10.8665 11.8779C10.7881 12.0123 10.6985 12.1411 10.5977 12.2643C10.5529 12.3315 10.5081 12.3987 10.4633 12.4659C10.4409 12.4883 10.4185 12.5107 10.3961 12.5331C10.4633 12.4659 10.3625 12.6003 10.3625 12.6003C10.1609 12.8579 9.95372 13.1043 9.74093 13.3394C9.53934 13.5578 9.48894 13.877 9.74093 14.0786C9.75773 14.0954 9.84171 14.1962 9.87531 14.2466C9.97611 14.3698 10.0713 14.493 10.1609 14.6162C10.4857 15.0306 10.8105 15.4506 11.1353 15.8762C11.8744 16.8281 12.6136 17.7801 13.3528 18.7321C13.476 18.8889 13.5992 19.0456 13.7224 19.2024C13.756 19.2528 13.84 19.3536 13.8568 19.3704C13.9912 19.6056 14.1927 19.6224 14.4111 19.5048C16.3431 18.4969 18.611 18.0265 20.8117 18.1609C21.4613 18.2057 22.0997 18.2953 22.7268 18.4297C23.13 18.5305 23.466 17.9257 23.2308 17.6233C22.906 17.2089 22.5868 16.7945 22.2733 16.3801C21.5117 15.3946 20.7445 14.409 19.9718 13.4234C19.0422 12.2251 18.1126 11.0211 17.183 9.81157C16.3879 8.78121 15.5983 7.75085 14.8143 6.72049C14.4279 6.21651 14.0584 5.69573 13.6552 5.20855C13.6552 5.20855 13.6496 5.20294 13.6384 5.19174C13.4872 4.99015 13.1848 5.07415 13.0504 5.24215C12.8992 5.42694 12.8152 5.69573 12.9664 5.91412C13.28 6.31731 13.5936 6.72609 13.9072 7.14048C14.6687 8.12604 15.4303 9.1116 16.1919 10.0972C17.1103 11.3067 18.0398 12.5107 18.9806 13.709C19.7758 14.7394 20.5709 15.7698 21.3661 16.8001C21.7525 17.3041 22.1221 17.8249 22.5252 18.3121C22.5364 18.3121 22.542 18.3177 22.542 18.3289C22.71 18.0601 22.878 17.7857 23.046 17.5057C20.7109 17.0017 18.2414 17.1361 15.9735 17.8921C15.3183 18.1273 14.6967 18.3961 14.0752 18.7153C14.2655 18.7601 14.4559 18.8049 14.6463 18.8497C14.4951 18.6145 14.3103 18.3961 14.1424 18.1777C13.8176 17.7409 13.4872 17.3097 13.1512 16.8841C12.412 15.9322 11.6673 14.9746 10.9169 14.0114C10.7153 13.7426 10.5137 13.4403 10.2449 13.2219C10.2449 13.4682 10.2449 13.7146 10.2449 13.961C11.908 12.1467 13.0168 9.89557 13.4872 7.49326C13.6216 6.83248 13.7 6.17171 13.7224 5.51093C13.7392 5.27574 13.6048 5.05735 13.3528 5.07415C13.1176 5.09095 12.8992 5.35974 12.8824 5.59493Z" fill="white"/>
<path fill-rule="evenodd" clip-rule="evenodd" d="M10.496 14.3818L9.82399 13.8946L9.70639 13.8274C9.58879 13.7938 9.4544 13.8274 9.3536 13.8946L8.76562 14.3482V13.7434C8.78242 11.5259 8.79923 9.29159 8.83283 7.09087V6.80528L9.13522 6.78847C10.4624 6.77167 11.8231 6.75488 13.1503 6.75488H13.5031L13.4527 7.10767C13.0663 9.57718 11.9911 11.8619 10.328 13.7266L10.496 14.3818ZM9.5888 13.2058C9.70079 13.2058 9.81279 13.2282 9.92479 13.273C11.4031 11.5931 12.3943 9.56038 12.7975 7.35966C11.6887 7.35966 10.5464 7.37646 9.4376 7.39326C9.404 9.32519 9.3872 11.2907 9.3704 13.2394C9.4488 13.217 9.5216 13.2058 9.5888 13.2058Z" fill="white"/>
<path d="M9.35127 14.0621C9.37367 14.0509 9.40167 14.0341 9.43526 14.0117C9.39047 14.0341 9.39606 14.0341 9.45206 14.0117C9.35126 14.0117 9.55286 14.0117 9.50247 14.0117C9.46887 14.0005 9.48006 14.0005 9.53606 14.0117C9.55846 14.0117 9.58645 14.0173 9.62005 14.0285C9.56965 14.0117 9.70407 14.0789 9.72087 14.0957C9.93926 14.2469 10.2416 14.0621 10.3424 13.8605C10.4768 13.6253 10.4768 13.3733 10.2584 13.2053C10.2584 13.4629 10.2584 13.7205 10.2584 13.9781C11.6192 12.4829 12.6439 10.6854 13.2151 8.73666C13.3831 8.16548 13.5119 7.5887 13.6015 7.00632C13.6351 6.75433 13.4503 6.55273 13.2151 6.55273C12.0392 6.56393 10.8632 6.57514 9.68725 6.58634C9.51926 6.59753 9.35127 6.60313 9.18327 6.60313C8.94808 6.60313 8.69609 6.90552 8.69609 7.14071C8.67369 7.89109 8.6625 8.63586 8.6625 9.37503C8.6401 10.5734 8.62891 11.7661 8.62891 12.9533C8.62891 13.2333 8.62891 13.5077 8.62891 13.7765C8.62891 13.9445 8.64571 14.0957 8.7969 14.1797C8.93129 14.2636 9.11608 14.2469 9.25047 14.1461C9.28407 14.1237 9.31767 14.0957 9.35127 14.0621C9.55286 13.9109 9.70406 13.6253 9.58646 13.3733C9.48567 13.1549 9.20008 13.1045 8.99848 13.2389C8.96489 13.2725 8.93129 13.3005 8.89769 13.3229C9.09928 13.4461 9.30647 13.5693 9.51926 13.6925C9.51926 12.9421 9.51926 12.1973 9.51926 11.4582C9.53046 10.2598 9.54727 9.06704 9.56967 7.87988C9.56967 7.59989 9.56967 7.32551 9.56967 7.05672C9.40167 7.23591 9.23368 7.41511 9.06569 7.5943C10.2528 7.5719 11.4344 7.5607 12.6103 7.5607C12.7671 7.5607 12.9295 7.55509 13.0975 7.54389C12.9743 7.3983 12.8455 7.24711 12.7111 7.09032C12.6775 7.32551 12.6328 7.56069 12.5768 7.79588C12.56 7.87988 12.5936 7.72869 12.5768 7.81269C12.5768 7.83509 12.5711 7.86309 12.5599 7.89669C12.5487 7.94148 12.5376 7.99188 12.5264 8.04787C12.4928 8.17107 12.4592 8.29427 12.4256 8.41746C12.3024 8.86545 12.1512 9.30783 11.972 9.74462C11.9272 9.84542 11.8824 9.94621 11.8376 10.047C11.8152 10.103 11.7928 10.159 11.7704 10.215C11.7536 10.2318 11.6864 10.383 11.7368 10.299C11.6248 10.523 11.5128 10.7358 11.4008 10.9374C11.1768 11.3518 10.9304 11.7493 10.6616 12.1301C10.5944 12.2421 10.5216 12.3485 10.4432 12.4493C10.432 12.4717 10.4152 12.4941 10.3928 12.5165C10.4432 12.4325 10.376 12.5333 10.376 12.5501C10.3312 12.5949 10.292 12.6397 10.2584 12.6845C10.0792 12.9085 9.90006 13.1213 9.72087 13.3229C9.50247 13.5581 9.46887 13.8941 9.72087 14.0957C9.90006 13.7933 10.0792 13.4965 10.2584 13.2053C9.87205 12.9365 9.36807 12.9869 8.99848 13.2389C8.79689 13.3901 8.64569 13.6925 8.76329 13.9277C8.86409 14.1629 9.14967 14.2133 9.35127 14.0621Z" fill="white"/>
<path d="M10.4286 13.3402C10.4174 13.329 10.4118 13.3234 10.4118 13.3234C10.367 13.2674 10.3166 13.2338 10.2606 13.2226C10.2159 13.2002 10.1599 13.1946 10.0927 13.2058C10.0367 13.2058 9.98066 13.2226 9.92466 13.2562C9.86866 13.2786 9.81826 13.3178 9.77346 13.3738C9.75106 13.4074 9.72306 13.441 9.68947 13.4746C9.64467 13.553 9.61667 13.637 9.60547 13.7266C9.60547 13.7714 9.60547 13.8162 9.60547 13.861C9.61667 13.9394 9.64467 14.0066 9.68947 14.0626C9.70067 14.0738 9.70626 14.085 9.70626 14.0962C9.75106 14.141 9.80146 14.169 9.85746 14.1802C9.90226 14.2026 9.95826 14.2138 10.0255 14.2138C10.0815 14.2026 10.1374 14.1802 10.1934 14.1466C10.2494 14.1242 10.2998 14.0906 10.3446 14.0458C10.3782 14.001 10.4062 13.9618 10.4286 13.9282C10.4734 13.8498 10.5014 13.7658 10.5126 13.6762C10.5126 13.6314 10.5126 13.5866 10.5126 13.5418C10.5014 13.4634 10.4734 13.3962 10.4286 13.3402C10.4174 13.329 10.4118 13.3234 10.4118 13.3234C10.1655 13.5698 9.92466 13.8162 9.68947 14.0626C9.70067 14.0738 9.70626 14.085 9.70626 14.0962C9.75106 14.141 9.80146 14.169 9.85746 14.1802C9.90226 14.2026 9.95826 14.2138 10.0255 14.2138C10.0815 14.2026 10.1374 14.1802 10.1934 14.1466C10.2494 14.1242 10.2998 14.0906 10.3446 14.0458C10.3782 14.001 10.4062 13.9618 10.4286 13.9282C10.4734 13.8498 10.5014 13.7658 10.5126 13.6762C10.5126 13.6314 10.5126 13.5866 10.5126 13.5418C10.5014 13.4634 10.4734 13.3962 10.4286 13.3402Z" fill="white"/>
<path d="M9.72072 14.1126C9.74311 14.1238 9.7599 14.135 9.7711 14.1462C9.8047 14.191 9.84951 14.2246 9.9055 14.247C9.9615 14.2694 10.0175 14.275 10.0735 14.2638C10.1295 14.2638 10.1855 14.247 10.2415 14.2134C10.2975 14.191 10.3479 14.1518 10.3927 14.0958C10.4263 14.0622 10.4543 14.0286 10.4767 13.995C10.5327 13.9166 10.5663 13.827 10.5775 13.7262C10.5663 13.6926 10.5607 13.6534 10.5607 13.6086C10.5607 13.5302 10.5327 13.463 10.4767 13.407C10.4655 13.3846 10.4543 13.3678 10.4431 13.3566C10.4095 13.3118 10.3647 13.2782 10.3087 13.2558C10.2527 13.2334 10.1967 13.2278 10.1407 13.239C10.0735 13.239 10.0175 13.2558 9.97271 13.2894C9.90551 13.3118 9.84951 13.351 9.80471 13.407C9.78231 13.4406 9.75431 13.4798 9.72072 13.5246C9.67592 13.603 9.64792 13.687 9.63672 13.7766C9.63672 13.8102 9.63672 13.8494 9.63672 13.8942C9.64792 13.9726 9.67592 14.0454 9.72072 14.1126C9.74311 14.1238 9.7599 14.135 9.7711 14.1462C10.0063 13.8998 10.2415 13.6534 10.4767 13.407C10.4655 13.3846 10.4543 13.3678 10.4431 13.3566C10.4095 13.3118 10.3647 13.2782 10.3087 13.2558C10.2527 13.2334 10.1967 13.2278 10.1407 13.239C10.0735 13.239 10.0175 13.2558 9.97271 13.2894C9.90551 13.3118 9.84951 13.351 9.80471 13.407C9.78231 13.4406 9.75431 13.4798 9.72072 13.5246C9.67592 13.603 9.64792 13.687 9.63672 13.7766C9.63672 13.8102 9.63672 13.8494 9.63672 13.8942C9.64792 13.9726 9.67592 14.0454 9.72072 14.1126Z" fill="white"/>
<path d="M9.38645 7.56093C9.18486 7.40973 9.15126 7.37613 8.98326 7.20813C8.79847 7.04014 8.63048 6.87215 8.46249 6.72096C8.27769 6.53616 8.0929 6.36816 7.87451 6.20017C7.80731 6.14417 7.73451 6.09378 7.65611 6.04898C7.60571 6.03218 7.33692 5.91458 7.32012 5.89778C7.37612 5.92018 7.38731 5.92579 7.35371 5.91459C7.33691 5.89779 7.32013 5.89778 7.30333 5.89778C7.26973 5.87538 7.24173 5.85859 7.21933 5.84739C7.18573 5.82499 7.15214 5.79699 7.11854 5.76339C7.20253 5.83059 7.08493 5.74659 7.06813 5.72979C6.93374 5.57859 6.81614 5.4274 6.71535 5.2762C6.69855 5.2426 6.64814 5.14181 6.66494 5.17541C6.66494 5.19221 6.61454 5.09141 6.59774 5.05781C6.54174 4.96822 6.49136 4.87302 6.44656 4.77222C6.36816 4.59303 6.29536 4.41384 6.22816 4.23465C6.17216 4.07785 6.12176 3.92666 6.07696 3.78106C6.06016 3.69707 6.11056 3.88186 6.09376 3.78106C6.07696 3.73066 6.06017 3.66347 6.04337 3.61307C6.00977 3.54587 5.97616 3.46188 5.92577 3.39468C5.70737 3.15949 5.3378 3.09229 5.01862 3.14269C4.59863 3.20989 4.21224 3.44507 3.96025 3.79786C3.67466 4.18424 3.62427 4.65463 3.67467 5.09141C3.79226 6.03218 4.16184 6.93935 4.54822 7.81292C4.73862 7.55533 4.93461 7.29773 5.1362 7.04014C4.86741 7.02334 4.59861 7.04014 4.32982 7.04014C3.90424 7.05134 3.48426 7.06254 3.06987 7.07374C2.73388 7.08494 2.3979 7.09614 2.06191 7.10734C1.49073 7.12414 0.969966 7.49373 0.734775 8.03131C0.650778 8.2665 0.650762 8.50169 0.633963 8.75368C0.617163 9.27446 0.953167 9.64405 1.49075 9.66085C1.53555 9.33606 1.58033 9.01128 1.62513 8.68649C1.40674 8.68649 1.18834 8.68649 0.96995 8.77048C0.549966 8.90488 0.213991 9.27447 0.0795956 9.66085C-0.0547993 10.0472 -0.0212088 10.4336 0.197183 10.7528C0.415575 11.072 0.785169 11.2232 1.17155 11.2232C1.20515 10.8984 1.24434 10.5792 1.28914 10.2656C0.751562 10.2992 0.297979 10.7864 0.28118 11.2904C0.264381 11.6096 0.247593 11.9288 0.398788 12.1976C0.61718 12.5839 1.00355 12.7855 1.45714 12.7855C1.64753 12.7855 1.84352 12.7855 2.04511 12.7855C2.07871 12.4607 2.11231 12.136 2.14591 11.8112C1.57473 11.8448 1.15476 12.3656 1.15476 12.9031C1.13796 13.3231 1.15476 13.7263 1.49075 14.0287C1.75954 14.2639 2.04511 14.3479 2.3979 14.3479C2.58829 14.3479 2.77869 14.3479 2.96908 14.3479C3.56266 14.3479 4.15064 14.3479 4.73301 14.3479C5.27059 14.3479 5.80817 14.3647 6.32895 14.2807C6.81614 14.1799 7.26973 14.0119 7.72331 13.8271C7.8913 13.7431 8.0593 13.6759 8.22729 13.6087C8.34489 13.5751 8.41208 13.5583 8.51287 13.5415C8.68087 13.5191 8.84886 13.4967 9.01685 13.4743C9.26884 13.4575 9.52083 13.1887 9.52083 12.9535C9.52083 11.4864 9.53205 10.0248 9.55445 8.56889C9.55445 8.3673 9.55445 8.1657 9.55445 7.96411C9.57125 7.72891 9.45364 7.47693 9.18485 7.51053C8.93286 7.52733 8.68087 7.79611 8.68087 8.0481C8.65847 9.50405 8.64168 10.96 8.63048 12.4159C8.63048 12.6175 8.63048 12.8247 8.63048 13.0375C8.79847 12.8583 8.96647 12.6791 9.13446 12.4999C8.68088 12.5335 8.26088 12.6175 7.85769 12.7855C7.5385 12.9199 7.23612 13.0543 6.90014 13.1719C6.81054 13.1943 6.72095 13.2223 6.63135 13.2559C6.60895 13.2559 6.59214 13.2615 6.58094 13.2727C6.49695 13.2895 6.63135 13.2559 6.54735 13.2727C6.50256 13.2839 6.45215 13.2951 6.39616 13.3063C6.14976 13.3511 5.90337 13.3735 5.65698 13.3735C5.50019 13.3735 5.349 13.3735 5.2034 13.3735C4.29624 13.3735 3.38906 13.3567 2.4651 13.3903C2.4539 13.3903 2.44271 13.3903 2.43151 13.3903C2.46511 13.3903 2.44831 13.3903 2.41471 13.3735C2.39231 13.3735 2.36431 13.3679 2.33072 13.3567C2.28032 13.3399 2.31392 13.3567 2.33072 13.3567C2.27472 13.3343 2.22432 13.3119 2.17952 13.2895C2.19632 13.2895 2.22991 13.3231 2.19631 13.2895C2.17391 13.2671 2.15151 13.2447 2.12911 13.2223C2.10671 13.1999 2.08992 13.1831 2.07873 13.1719C2.04513 13.1215 2.11232 13.2223 2.07873 13.1551C2.06753 13.1327 2.05631 13.1103 2.04511 13.0879C2.02831 13.0207 2.06191 13.1383 2.04511 13.0879C2.04511 13.0207 2.04512 12.9031 2.02832 13.0543C2.02832 13.0319 2.02832 13.0095 2.02832 12.9871C2.02832 12.9199 2.03391 12.8471 2.04511 12.7687C2.04511 12.7463 2.04511 12.7239 2.04511 12.7015C2.04511 12.6847 2.06191 12.6511 2.04511 12.6847C2.02831 12.7015 1.99472 12.8191 2.02832 12.7351C2.02832 12.7351 1.97792 12.8023 2.01152 12.7519C2.04512 12.7183 1.97791 12.7855 1.97791 12.7855C1.92751 12.8359 2.01151 12.7855 1.97791 12.7855C1.92751 12.7855 2.04511 12.7855 2.04511 12.7855C2.56589 12.7519 2.76748 11.8112 2.14591 11.8112C1.98911 11.8112 1.83233 11.8168 1.67554 11.828C1.64194 11.828 1.60834 11.828 1.57474 11.828C1.52435 11.828 1.60833 11.828 1.55793 11.828C1.52433 11.8168 1.49073 11.8112 1.45714 11.8112C1.37314 11.7944 1.49075 11.828 1.40675 11.7776C1.38435 11.7664 1.36195 11.7552 1.33955 11.744C1.25555 11.7104 1.35634 11.7776 1.30594 11.7104C1.28354 11.688 1.26116 11.6656 1.23876 11.6432C1.22196 11.6264 1.18834 11.5592 1.22194 11.6264C1.19954 11.5928 1.18275 11.5592 1.17155 11.5256C1.15476 11.492 1.17155 11.576 1.17155 11.5088C1.17155 11.4752 1.17156 11.3744 1.15476 11.4584C1.15476 11.5256 1.15476 11.492 1.15476 11.4752C1.15476 11.4304 1.16036 11.3856 1.17155 11.3408C1.17155 11.296 1.17155 11.2568 1.17155 11.2232C1.17155 11.212 1.17155 11.2008 1.17155 11.1896C1.17155 11.156 1.20515 11.072 1.17155 11.1224C1.15476 11.156 1.13796 11.2568 1.15476 11.1728C1.14356 11.184 1.13235 11.2008 1.12115 11.2232C1.15475 11.1896 1.16034 11.184 1.13794 11.2064C1.12674 11.2288 1.10436 11.24 1.07076 11.24C1.09316 11.24 1.10995 11.2344 1.12115 11.2232C1.03715 11.2232 1.13796 11.2232 1.17155 11.2232C1.69234 11.1896 1.91072 10.2656 1.28914 10.2656C1.33954 10.2656 1.28915 10.2656 1.27235 10.2656C1.24995 10.2544 1.22195 10.2488 1.18835 10.2488C1.15475 10.232 1.13796 10.2152 1.17155 10.2488C1.14916 10.2376 1.12675 10.2208 1.10435 10.1984C1.08195 10.1872 1.05955 10.176 1.03715 10.1648C1.05395 10.1816 1.07075 10.1816 1.03715 10.1648C1.00355 10.1144 0.953159 10.0808 0.93636 10.0304C0.969958 10.0976 0.902769 9.98004 0.902769 9.94644C0.936368 10.0472 0.88597 9.86245 0.902769 9.86245C0.902769 9.86245 0.88597 9.94644 0.902769 9.91284C0.902769 9.89044 0.902769 9.86244 0.902769 9.82885C0.902769 9.77845 0.919568 9.79524 0.902769 9.84564C0.902769 9.82884 0.936364 9.71125 0.919564 9.79524C0.885965 9.86244 0.91956 9.76164 0.93636 9.76164C0.986758 9.72804 0.869166 9.81205 0.919564 9.77845C0.936364 9.76165 0.96995 9.72805 0.96995 9.71125C0.992349 9.68885 0.992349 9.68885 0.96995 9.71125C0.947551 9.73365 0.947551 9.73924 0.96995 9.72804C0.96995 9.72804 1.05396 9.66085 1.00356 9.69445C0.953163 9.72805 1.03715 9.69445 1.03715 9.67765C1.05395 9.67765 1.13796 9.66085 1.08756 9.66085C1.03716 9.67765 1.12114 9.66085 1.13794 9.66085C1.25554 9.64405 1.37315 9.66085 1.49075 9.66085C1.75954 9.64405 1.97792 9.35846 2.01152 9.12327C2.04512 8.85448 1.87712 8.68649 1.62513 8.68649C1.57473 8.65289 1.70913 8.68649 1.62513 8.68649C1.67553 8.72009 1.55794 8.65289 1.57474 8.65289C1.49075 8.61929 1.55793 8.65289 1.55793 8.65289C1.55793 8.64169 1.55233 8.63049 1.54113 8.61929C1.55233 8.65289 1.55233 8.65848 1.54113 8.63608C1.54113 8.62488 1.54113 8.61929 1.54113 8.61929C1.51873 8.57449 1.51314 8.57449 1.52434 8.61929C1.52434 8.60809 1.52434 8.59689 1.52434 8.58569C1.52434 8.54089 1.52434 8.56329 1.52434 8.65289C1.52434 8.60809 1.52434 8.56889 1.52434 8.53529C1.52434 8.46809 1.52434 8.40089 1.52434 8.33369C1.54114 8.3001 1.57473 8.16571 1.54113 8.2665C1.54113 8.2497 1.59153 8.1321 1.55793 8.2161C1.50753 8.30009 1.62513 8.09851 1.55793 8.18251C1.52433 8.2497 1.59154 8.14891 1.60833 8.14891C1.65873 8.08171 1.60834 8.14891 1.59154 8.14891C1.59154 8.14891 1.70912 8.08171 1.64192 8.1153C1.57473 8.1489 1.70913 8.09851 1.70913 8.09851C1.72593 8.08171 1.77632 8.08171 1.70913 8.09851C1.74273 8.08731 1.77632 8.0817 1.80992 8.0817C1.82112 8.0817 1.83233 8.0817 1.84353 8.0817C1.92193 8.0817 1.99471 8.0817 2.06191 8.0817C2.75628 8.0593 3.45626 8.03691 4.16183 8.01451C4.36342 8.01451 4.59863 7.99771 4.78342 8.01451C5.15301 8.04811 5.53939 7.59452 5.3714 7.24173C5.2258 6.91695 5.0914 6.58656 4.96821 6.25058C4.90101 6.04898 4.83382 5.84738 4.76662 5.64579C4.73303 5.55619 4.70503 5.461 4.68263 5.3602C4.67143 5.3042 4.66022 5.2482 4.64902 5.19221C4.63222 5.14181 4.64902 5.20901 4.64902 5.20901C4.63782 5.17541 4.62663 5.14181 4.61543 5.10821C4.58183 4.94021 4.54822 4.75543 4.54822 4.57064C4.54822 4.52584 4.54822 4.48664 4.54822 4.45304C4.54822 4.58743 4.54822 4.45304 4.54822 4.40264C4.54822 4.38024 4.55382 4.35784 4.56502 4.33544C4.53142 4.38584 4.56502 4.35224 4.56502 4.33544C4.56502 4.31864 4.59863 4.25144 4.59863 4.25144C4.59863 4.25144 4.53143 4.38583 4.59863 4.26824C4.53143 4.33544 4.64903 4.16744 4.59863 4.26824C4.62103 4.24584 4.64341 4.22345 4.66581 4.20105C4.69941 4.15065 4.56503 4.26825 4.61543 4.23465C4.64902 4.21785 4.66583 4.20104 4.68263 4.18424C4.69383 4.18424 4.70502 4.17865 4.71622 4.16745C4.76662 4.13385 4.61543 4.20104 4.68263 4.18424C4.70503 4.17304 4.73303 4.16185 4.76662 4.15065C4.76662 4.15065 4.86742 4.10025 4.86742 4.11705C4.86742 4.11705 4.76661 4.13385 4.81701 4.13385C4.83941 4.12265 4.86181 4.11705 4.88421 4.11705C4.90661 4.10585 4.93461 4.10025 4.96821 4.10025C5.00181 4.08345 5.06901 4.10025 4.96821 4.10025C5.00181 4.08345 5.1194 4.11705 5.153 4.13385C5.2202 4.13385 5.06901 4.08345 5.1362 4.13385C5.153 4.13385 5.2034 4.16745 5.2034 4.16745C5.15301 4.10025 5.2202 4.16745 5.2034 4.16745C5.237 4.21785 5.237 4.20105 5.2034 4.15065C5.2202 4.18425 5.2202 4.26824 5.2034 4.13385C5.2146 4.16744 5.2258 4.20665 5.23699 4.25144C5.24819 4.32984 5.265 4.40264 5.2874 4.46983C5.3322 4.63783 5.3882 4.79462 5.45539 4.94021C5.58979 5.3266 5.77457 5.67939 5.99297 6.03218C6.19456 6.31777 6.44655 6.63695 6.76573 6.78815C6.82173 6.82175 6.87773 6.84975 6.93373 6.87215C6.96733 6.87215 7.00093 6.88895 6.91693 6.85535C6.93933 6.86655 6.96173 6.87775 6.98413 6.88895C7.07373 6.93375 7.16332 6.98414 7.25292 7.04014C7.29772 7.07374 7.34252 7.10734 7.38732 7.14094C7.39852 7.16334 7.41531 7.18014 7.43771 7.19134C7.45451 7.20814 7.48812 7.22493 7.45452 7.20813C7.54412 7.28653 7.63371 7.37053 7.72331 7.46012C8.0929 7.79611 8.42887 8.1657 8.84886 8.45129C9.05045 8.60249 9.36965 8.40089 9.47045 8.2161C9.58804 7.9977 9.62164 7.71212 9.38645 7.56093Z" fill="white"/>
<path d="M1.17282 11.2056C1.48641 11.2056 1.79999 11.2056 2.11358 11.2056C2.38237 11.1888 2.58396 10.9032 2.61756 10.6848C2.63436 10.4328 2.48316 10.248 2.23117 10.248C1.91758 10.2592 1.60399 10.2648 1.29041 10.2648C1.03842 10.2816 0.820023 10.5672 0.786425 10.7856C0.769625 11.0376 0.920828 11.2224 1.17282 11.2056Z" fill="white"/>
<path d="M1.49107 9.69413C1.63667 9.68293 1.78226 9.67732 1.92785 9.67732C2.04545 9.67732 2.19664 9.57653 2.28064 9.49253C2.36463 9.39174 2.44863 9.24054 2.46543 9.10615C2.48223 8.98855 2.46543 8.85416 2.38143 8.77016C2.29743 8.66936 2.19663 8.63576 2.06224 8.65256C1.91664 8.65256 1.77105 8.65256 1.62546 8.65256C1.50786 8.65256 1.35667 8.75335 1.27267 8.83735C1.18868 8.93815 1.10468 9.08934 1.08789 9.22374C1.07109 9.34133 1.08789 9.47573 1.17188 9.57653C1.25588 9.66053 1.35668 9.69413 1.49107 9.69413Z" fill="white"/>
<path d="M2.04576 12.8019C2.13536 12.8019 2.22495 12.8019 2.31455 12.8019C2.43214 12.8019 2.56654 12.7011 2.65054 12.6171C2.75133 12.5331 2.81855 12.3819 2.83534 12.2475C2.83534 12.1299 2.83534 11.9955 2.75135 11.9115C2.65055 11.8275 2.56655 11.7939 2.43216 11.7939C2.34256 11.7939 2.25297 11.7939 2.16337 11.7939C2.04577 11.7939 1.89456 11.8947 1.81057 11.9787C1.72657 12.0627 1.64257 12.2139 1.64257 12.3483C1.62577 12.4659 1.64257 12.6003 1.72657 12.6843C1.81057 12.7683 1.91137 12.8019 2.04576 12.8019Z" fill="white"/>
<path d="M15.7215 18.3628C15.6991 18.0268 15.7271 17.6964 15.8055 17.3716C15.8895 17.0524 15.4023 16.918 15.3183 17.2372C15.2344 17.6068 15.184 17.9932 15.2176 18.3628C15.2344 18.6987 15.7383 18.6819 15.7215 18.3628Z" fill="white"/>
<path d="M16.5249 17.9931C16.5585 17.6235 16.6425 17.2371 16.7769 16.8843C16.8273 16.7499 16.7097 16.5987 16.5921 16.5651C16.4409 16.5315 16.3401 16.6323 16.2897 16.7499C16.1385 17.1531 16.0546 17.5731 16.021 18.0099C16.0042 18.1443 16.1386 18.2619 16.2729 18.2619C16.4241 18.2619 16.5081 18.1443 16.5249 17.9931Z" fill="white"/>
<path d="M17.2992 17.9257C17.3888 17.4777 17.568 17.0689 17.8368 16.6993C17.9208 16.5817 17.8536 16.4137 17.736 16.3465C17.6016 16.2793 17.4672 16.3297 17.4 16.4473C17.0976 16.8505 16.896 17.3041 16.7952 17.7912C16.728 18.1104 17.232 18.2448 17.2992 17.9257Z" fill="white"/>
<path d="M18.3064 17.6744C18.4072 17.2208 18.6255 16.8008 18.9279 16.448C19.1463 16.2128 18.7767 15.8432 18.5583 16.0952C18.1888 16.5152 17.9368 17.0024 17.8024 17.54C17.7184 17.8592 18.2224 17.9936 18.3064 17.6744Z" fill="white"/>
<path d="M19.4165 17.5895C19.6293 17.1527 19.9093 16.7663 20.2564 16.4303C20.4916 16.1952 20.1221 15.8424 19.8869 16.0776C19.5173 16.4303 19.1981 16.8671 18.9797 17.3375C18.8285 17.6231 19.2821 17.8751 19.4165 17.5895Z" fill="white"/>
<path d="M20.5087 17.5227C20.6767 17.2427 20.8839 16.9963 21.1303 16.7836C21.2479 16.6996 21.2143 16.5148 21.1303 16.4308C21.0127 16.33 20.8783 16.3468 20.7607 16.4308C20.4751 16.666 20.2567 16.9515 20.0719 17.2707C19.9039 17.5563 20.3575 17.8083 20.5087 17.5227Z" fill="white"/>
<path d="M14.9302 18.5306C14.7958 18.2114 14.779 17.8755 14.863 17.5395C14.9638 17.2371 14.4598 17.1027 14.3758 17.4219C14.2414 17.8923 14.2918 18.3626 14.4934 18.7994C14.5606 18.917 14.7454 18.9506 14.8462 18.8834C14.9806 18.7994 14.9974 18.6482 14.9302 18.5306Z" fill="white"/>
<path d="M8.58056 22.4785C8.68136 22.9153 8.78216 23.352 8.88296 23.7888C8.95016 24.108 9.43732 23.9568 9.37013 23.6376C9.26933 23.2008 9.16855 22.7697 9.06775 22.3441C9.00055 22.0081 8.51337 22.1593 8.58056 22.4785Z" fill="white"/>
<path d="M9.4703 21.8402C9.59349 22.2434 9.72228 22.6465 9.85667 23.0497C9.94067 23.3689 10.4279 23.2177 10.3439 22.9153C10.2207 22.5121 10.0919 22.1034 9.95746 21.689C9.87347 21.3866 9.3695 21.521 9.4703 21.8402Z" fill="white"/>
<path d="M10.1933 21.319C10.3053 21.6886 10.4117 22.0526 10.5125 22.4109C10.6133 22.7301 11.1005 22.5957 10.9997 22.2765C10.8989 21.907 10.7925 21.543 10.6805 21.1846C10.5965 20.8654 10.1093 21.0166 10.1933 21.319Z" fill="white"/>
<path d="M10.7993 20.7818C10.8777 21.0953 10.9785 21.4033 11.1017 21.7057C11.1521 21.8233 11.2697 21.9073 11.4209 21.8737C11.5385 21.8401 11.6393 21.6889 11.5889 21.5545C11.4657 21.2633 11.3649 20.9609 11.2865 20.6474C11.2193 20.3282 10.7321 20.4626 10.7993 20.7818Z" fill="white"/>
<path d="M11.6034 20.2445C11.7154 20.6476 11.8218 21.0508 11.9226 21.454C12.0066 21.7732 12.4938 21.622 12.4098 21.3196C12.309 20.9164 12.2026 20.5077 12.0906 20.0933C12.0066 19.7909 11.5194 19.9253 11.6034 20.2445Z" fill="white"/>
<path d="M12.2927 19.7571C12.4159 20.0371 12.5279 20.3227 12.6287 20.6139C12.7295 20.9163 13.2167 20.7819 13.1159 20.4627C13.0039 20.1379 12.8751 19.8132 12.7295 19.4884C12.6623 19.3708 12.4943 19.3372 12.3767 19.4044C12.2423 19.4884 12.2423 19.6396 12.2927 19.7571Z" fill="white"/>
<path d="M12.9968 19.2525C13.064 19.6389 13.1984 20.0085 13.3664 20.3781C13.4168 20.4957 13.6016 20.5293 13.7192 20.4621C13.8368 20.3781 13.8536 20.2269 13.8032 20.1093C13.652 19.7901 13.5512 19.4541 13.484 19.1014C13.4504 18.967 13.2824 18.8998 13.1648 18.9334C13.0304 18.967 12.9632 19.1182 12.9968 19.2525Z" fill="white"/>
<path d="M11.7048 23.2179C11.6936 23.5091 11.6992 23.7947 11.7216 24.0747C11.7384 24.3939 12.2592 24.3939 12.2256 24.0579C12.2032 23.7779 12.2032 23.4979 12.2256 23.2179C12.2256 22.8987 11.7216 22.8987 11.7048 23.2179Z" fill="white"/>
<path d="M12.31 23.5196C12.3548 23.878 12.4052 24.2307 12.4612 24.5779C12.478 24.7123 12.562 24.8299 12.7132 24.8299C12.8308 24.8299 12.982 24.7123 12.9652 24.5779C12.9204 24.2307 12.87 23.878 12.814 23.5196C12.7972 23.3852 12.7132 23.2676 12.562 23.2676C12.4276 23.2676 12.2932 23.3852 12.31 23.5196Z" fill="white"/>
<path d="M13.0807 24.1246C13.0471 24.4774 13.0975 24.8302 13.1983 25.1662C13.2991 25.4686 13.7862 25.3342 13.6855 25.015C13.6015 24.7294 13.5679 24.427 13.5847 24.1246C13.6015 23.7886 13.0975 23.8054 13.0807 24.1246Z" fill="white"/>
<path d="M13.857 24.7301C13.8794 25.0773 13.9018 25.4189 13.9242 25.7549C13.941 26.0909 14.445 26.0741 14.4282 25.7549C14.4058 25.4077 14.3834 25.0661 14.361 24.7301C14.3442 24.3941 13.8234 24.4109 13.857 24.7301Z" fill="white"/>
<path d="M14.5094 25.4523C14.543 25.8443 14.5878 26.2363 14.6438 26.6282C14.6606 26.7626 14.7446 26.8802 14.8958 26.8802C15.0302 26.8802 15.1646 26.7626 15.1478 26.6282C15.103 26.2363 15.0582 25.8443 15.0134 25.4523C14.9798 25.1331 14.4758 25.1331 14.5094 25.4523Z" fill="white"/>
<path d="M15.3687 26.0563C15.4023 26.5603 15.4639 27.0586 15.5535 27.5514C15.5871 27.6858 15.7551 27.753 15.8727 27.7194C16.0071 27.6858 16.0743 27.5346 16.0407 27.4002C15.9511 26.9522 15.8951 26.5043 15.8727 26.0563C15.8559 25.7203 15.3351 25.7371 15.3687 26.0563Z" fill="white"/>
<path d="M16.123 26.6618C16.2462 27.0985 16.3022 27.5409 16.291 27.9889C16.2742 28.3249 16.7949 28.3081 16.7949 27.9889C16.8117 27.5017 16.7445 26.9977 16.6269 26.5274C16.5262 26.2082 16.039 26.3594 16.123 26.6618Z" fill="white"/>
<path d="M20.8109 22.5458C20.7605 22.193 20.9285 21.8402 21.2141 21.6387C21.4829 21.4539 21.2141 21.0171 20.9453 21.2019C20.4581 21.5379 20.223 22.109 20.3238 22.6802C20.3406 22.8314 20.5085 22.8986 20.6429 22.865C20.7773 22.8146 20.8277 22.6802 20.8109 22.5458Z" fill="white"/>
<path d="M27.3964 18.2449C27.3628 17.8249 27.5308 17.4217 27.8668 17.1865C28.1356 17.0017 27.8836 16.5649 27.6148 16.7497C27.1276 17.0857 26.842 17.6569 26.8924 18.2449C26.9092 18.5641 27.43 18.5641 27.3964 18.2449Z" fill="white"/>
<path d="M27.3797 26.2412C27.5141 25.754 27.8501 25.3676 28.3037 25.166C28.4213 25.1156 28.4549 24.9308 28.3877 24.8133C28.3037 24.6789 28.1525 24.6789 28.0349 24.7293C27.4637 24.9812 27.0437 25.5188 26.8925 26.1236C26.8085 26.426 27.2957 26.5604 27.3797 26.2412Z" fill="white"/>
<path d="M9.41919 8.97154C9.73277 8.73635 10.0632 8.52917 10.4104 8.34997C10.7127 8.19878 10.444 7.76199 10.1584 7.91318C9.79998 8.09238 9.46399 8.29957 9.1504 8.53476C8.88161 8.71956 9.1504 9.17314 9.41919 8.97154Z" fill="white"/>
<path d="M9.47226 10.0809C9.75225 9.83453 10.0546 9.61613 10.3794 9.42574C10.665 9.25774 10.3962 8.82096 10.1106 8.98896C9.75224 9.20175 9.41625 9.44813 9.10267 9.72812C8.86747 9.94652 9.23707 10.2993 9.47226 10.0809Z" fill="white"/>
<path d="M9.38795 11.1056C9.71274 10.8816 10.0319 10.6576 10.3455 10.4336C10.6143 10.2488 10.3455 9.812 10.0767 9.9968C9.76313 10.2208 9.44393 10.4448 9.11915 10.6688C8.85036 10.8704 9.11916 11.3071 9.38795 11.1056Z" fill="white"/>
<path d="M9.46998 11.996C9.72757 11.8392 9.97956 11.6768 10.226 11.5088C10.5115 11.324 10.2427 10.8872 9.95715 11.072C9.71076 11.24 9.45877 11.4024 9.20118 11.5592C8.93239 11.744 9.20119 12.1808 9.46998 11.996Z" fill="white"/>
<path d="M9.46847 12.9194C9.75966 12.7066 10.0508 12.4994 10.342 12.2978C10.594 12.1131 10.342 11.6763 10.0732 11.8611C9.78205 12.0738 9.49647 12.281 9.21648 12.4826C8.94769 12.6674 9.19968 13.1042 9.46847 12.9194Z" fill="white"/>
</svg>
