<svg width="16" height="16" viewBox="0 0 16 16" fill="none" xmlns="http://www.w3.org/2000/svg">
<g clip-path="url(#clip0_4892_12597)">
<path d="M7.3504 7.51141C6.65979 7.1834 5.44875 6.90376 3.9871 6.83671C1.68187 6.73096 -3.75893e-07 7.40057 -3.45489e-07 8.09614C-3.25714e-07 8.54854 0.755155 8.94523 1.88902 9.16729C1.45534 8.98479 1.21616 8.75248 1.21616 8.47588C1.21616 7.86262 3.27836 6.67808 6.3452 7.3126C6.7111 7.38831 7.04539 7.45378 7.3504 7.51141Z" fill="#AAD406"/>
<path d="M8.64961 8.48858C9.34021 8.8166 10.5513 9.09623 12.0129 9.16328C14.3181 9.26903 16 8.59942 16 7.90386C16 7.45146 15.2448 7.05477 14.111 6.8327C14.5447 7.0152 14.7838 7.24751 14.7838 7.52412C14.7838 8.13738 12.7216 9.32191 9.6548 8.68739C9.2889 8.61169 8.95462 8.54622 8.64961 8.48858Z" fill="#AAD406"/>
<path d="M8.48858 7.35039C8.8166 6.65979 9.09624 5.44875 9.16329 3.98709C9.26904 1.68186 8.59942 -4.45821e-06 7.90386 -4.45821e-06C7.45146 -4.45821e-06 7.05477 0.755151 6.83271 1.88902C7.01521 1.45534 7.24752 1.21616 7.52412 1.21616C8.13738 1.21616 9.32192 3.27835 8.68739 6.3452C8.61169 6.7111 8.54622 7.04538 8.48858 7.35039Z" fill="#AAD406"/>
<path d="M7.51142 8.6496C7.1834 9.34021 6.90377 10.5512 6.83672 12.0129C6.73097 14.3181 7.40058 16 8.09614 16C8.54854 16 8.94523 15.2448 9.1673 14.111C8.9848 14.5447 8.75249 14.7838 8.47588 14.7838C7.86262 14.7838 6.67809 12.7216 7.31261 9.6548C7.38831 9.2889 7.45378 8.95461 7.51142 8.6496Z" fill="#AAD406"/>
<path d="M7.88612 7.19518C7.62974 6.4749 6.97113 5.42083 5.985 4.33988C4.42973 2.63506 2.76698 1.91929 2.27515 2.41112C1.95525 2.73102 2.20873 3.5455 2.85347 4.50428C2.67585 4.06858 2.671 3.73519 2.86659 3.5396C3.30023 3.10596 5.59601 3.72655 7.31593 6.34382C7.52112 6.65608 7.71121 6.93875 7.88612 7.19518Z" fill="#AAD406"/>
<path d="M8.11384 8.80482C8.37023 9.52509 9.02884 10.5792 10.015 11.6601C11.5702 13.3649 13.233 14.0807 13.7248 13.5889C14.0447 13.269 13.7912 12.4545 13.1465 11.4957C13.3241 11.9314 13.329 12.2648 13.1334 12.4604C12.6997 12.894 10.404 12.2734 8.68404 9.65618C8.47884 9.34392 8.28876 9.06125 8.11384 8.80482Z" fill="#AAD406"/>
<path d="M8.8048 7.88614C9.52508 7.62975 10.5791 6.97115 11.6601 5.98501C13.3649 4.42975 14.0807 2.767 13.5889 2.27516C13.269 1.95527 12.4545 2.20874 11.4957 2.85348C11.9314 2.67587 12.2648 2.67101 12.4604 2.8666C12.894 3.30024 12.2734 5.59602 9.65616 7.31594C9.3439 7.52114 9.06123 7.71122 8.8048 7.88614Z" fill="#AAD406"/>
<path d="M7.19517 8.11386C6.47489 8.37024 5.42082 9.02885 4.33986 10.015C2.63504 11.5702 1.91927 13.233 2.41111 13.7248C2.731 14.0447 3.54548 13.7913 4.50427 13.1465C4.06857 13.3241 3.73517 13.329 3.53959 13.1334C3.10594 12.6998 3.72654 10.404 6.34381 8.68406C6.65606 8.47886 6.93873 8.28877 7.19517 8.11386Z" fill="#AAD406"/>
<path d="M7.21288 7.7972C6.44932 7.75843 5.22345 7.96353 3.8474 8.46093C1.67717 9.24541 0.37958 10.5077 0.64576 11.1503C0.818887 11.5683 1.66837 11.6458 2.8009 11.417C2.3304 11.4144 2.02052 11.2913 1.91467 11.0357C1.67999 10.4691 3.1319 8.58561 6.20812 7.99819C6.57514 7.92811 6.90903 7.86067 7.21288 7.7972Z" fill="#AAD406"/>
<path d="M8.78714 8.2028C9.5507 8.24156 10.7766 8.03647 12.1526 7.53906C14.3228 6.75459 15.6204 5.49233 15.3543 4.84971C15.1811 4.43175 14.3316 4.35424 13.1991 4.58299C13.6696 4.58563 13.9795 4.70873 14.0853 4.96428C14.32 5.53086 12.8681 7.41439 9.7919 8.0018C9.42488 8.07189 9.09099 8.13933 8.78714 8.2028Z" fill="#AAD406"/>
<path d="M8.20281 7.21287C8.24157 6.44931 8.03648 5.22344 7.53907 3.84739C6.7546 1.67717 5.49233 0.379572 4.84972 0.645751C4.43175 0.818878 4.35425 1.66836 4.583 2.80089C4.58564 2.33039 4.70874 2.02051 4.96429 1.91466C5.53087 1.67998 7.4144 3.13189 8.00181 6.20811C8.07189 6.57513 8.13934 6.90902 8.20281 7.21287Z" fill="#AAD406"/>
<path d="M7.79721 8.78713C7.75844 9.55069 7.96354 10.7766 8.46094 12.1526C9.24542 14.3228 10.5077 15.6204 11.1503 15.3542C11.5683 15.1811 11.6458 14.3316 11.417 13.1991C11.4144 13.6696 11.2913 13.9795 11.0357 14.0853C10.4691 14.32 8.58562 12.8681 7.9982 9.79189C7.92812 9.42487 7.86068 9.09098 7.79721 8.78713Z" fill="#AAD406"/>
<path d="M7.5868 7.30001C7.0743 6.73268 6.06245 6.01089 4.73772 5.38959C2.64843 4.40972 0.838339 4.38473 0.572159 5.02735C0.399032 5.44531 0.944899 6.10079 1.90747 6.73987C1.57665 6.4053 1.44457 6.09914 1.55043 5.84359C1.78511 5.27701 4.14363 4.97181 6.73421 6.73167C7.04328 6.94163 7.32707 7.13004 7.5868 7.30001Z" fill="#AAD406"/>
<path d="M8.41317 8.69998C8.92568 9.26731 9.93753 9.98911 11.2623 10.6104C13.3515 11.5903 15.1616 11.6153 15.4278 10.9726C15.6009 10.5547 15.0551 9.8992 14.0925 9.26013C14.4233 9.5947 14.5554 9.90085 14.4495 10.1564C14.2149 10.723 11.8563 11.0282 9.26577 9.26833C8.95669 9.05837 8.67291 8.86996 8.41317 8.69998Z" fill="#AAD406"/>
<path d="M8.69997 7.58681C9.2673 7.07431 9.9891 6.06246 10.6104 4.73773C11.5903 2.64844 11.6152 0.838349 10.9726 0.57217C10.5547 0.399043 9.89919 0.944909 9.26012 1.90748C9.59469 1.57666 9.90084 1.44459 10.1564 1.55044C10.723 1.78512 11.0282 4.14364 9.26832 6.73422C9.05836 7.04329 8.86994 7.32708 8.69997 7.58681Z" fill="#AAD406"/>
<path d="M7.3 8.41318C6.73267 8.92569 6.01088 9.93754 5.38958 11.2623C4.40971 13.3516 4.38472 15.1616 5.02734 15.4278C5.4453 15.601 6.10078 15.0551 6.73986 14.0925C6.40529 14.4233 6.09913 14.5554 5.84358 14.4496C5.277 14.2149 4.9718 11.8564 6.73166 9.26578C6.94162 8.9567 7.13003 8.67292 7.3 8.41318Z" fill="#AAD406"/>
</g>
<defs>
<clipPath id="clip0_4892_12597">
<rect width="16" height="16" fill="white"/>
</clipPath>
</defs>
</svg>
