<svg width="36" height="35" viewBox="0 0 36 35" fill="none" xmlns="http://www.w3.org/2000/svg">
<path d="M24.7137 34.5748C24.6455 34.5748 24.5773 34.5644 24.509 34.5434L17.6696 32.497L11.5305 34.5434C11.2944 34.6221 11.0347 34.567 10.8458 34.4017C10.6569 34.2443 10.5625 33.9924 10.6097 33.7484C10.6176 33.6933 11.5305 28.5303 12.0421 25.9802C12.113 25.5946 12.4907 25.3506 12.8685 25.4214C13.2542 25.5001 13.4982 25.87 13.4195 26.2557C13.0653 28.0502 12.5065 31.1433 12.2074 32.8276L17.4334 31.0803C17.5672 31.041 17.7168 31.0331 17.8584 31.0803L23.722 32.8354L22.2187 26.7987C22.1243 26.421 22.3525 26.0353 22.7303 25.9409C23.1081 25.8464 23.4937 26.0825 23.5882 26.4603L25.3984 33.7012C25.4535 33.9452 25.3827 34.2049 25.2016 34.3781C25.0679 34.504 24.8868 34.5748 24.7137 34.5748Z" fill="#4D5E81"/>
<path d="M35.2915 23.3203H24.3593C23.9658 23.3203 23.6509 23.0054 23.6509 22.6119C23.6509 22.2184 23.9658 21.9036 24.3593 21.9036H34.5516V1.44014H1.4167V21.9036H11.6563C12.0498 21.9036 12.3646 22.2184 12.3646 22.6119C12.3646 23.0054 12.0498 23.3203 11.6563 23.3203H0.716226C0.33057 23.3203 0 22.9661 0 22.5804V0.708172C0 0.314644 0.33057 0.0234375 0.716226 0.0234375H35.2915C35.685 0.0234375 35.9683 0.314644 35.9683 0.708172V22.5804C35.9683 22.9661 35.685 23.3203 35.2915 23.3203Z" fill="#4D5E81"/>
<path d="M0.716114 9.17707C0.330458 9.17707 0.015625 8.85438 0.015625 8.46872C0.015625 8.07519 0.330458 7.76037 0.716114 7.76037C4.61203 7.76037 7.77598 4.5964 7.77598 0.70835C7.77598 0.314822 8.0908 0 8.48433 0C8.86998 0 9.1848 0.314822 9.1848 0.70835C9.1848 5.37559 5.39121 9.17707 0.716114 9.17707Z" fill="#4D5E81"/>
<path d="M8.48433 23.2894C8.0908 23.2894 7.77598 22.9667 7.77598 22.581C7.77598 18.693 4.61203 15.5211 0.716114 15.5211C0.330458 15.5211 0.015625 15.2063 0.015625 14.8207C0.015625 14.4271 0.330458 14.1123 0.716114 14.1123C5.39121 14.1123 9.1848 17.9138 9.1848 22.581C9.1848 22.9667 8.86998 23.2894 8.48433 23.2894Z" fill="#4D5E81"/>
<path d="M35.2929 9.17707C30.6256 9.17707 26.832 5.37559 26.832 0.70835C26.832 0.314822 27.1469 0 27.5325 0C27.926 0 28.2409 0.314822 28.2409 0.70835C28.2409 4.5964 31.4048 7.76037 35.2929 7.76037C35.6864 7.76037 36.0012 8.07519 36.0012 8.46872C36.0012 8.85438 35.6864 9.17707 35.2929 9.17707Z" fill="#4D5E81"/>
<path d="M28.2396 23.289C27.8461 23.289 27.5312 22.9663 27.5312 22.5807C27.5312 18.2991 31.0179 14.8203 35.2916 14.8203C35.6851 14.8203 35.9999 15.1351 35.9999 15.5208C35.9999 15.9143 35.6851 16.2291 35.2916 16.2291C31.7971 16.2291 28.9479 19.0783 28.9479 22.5807C28.9479 22.9663 28.6253 23.289 28.2396 23.289Z" fill="#4D5E81"/>
<path fill-rule="evenodd" clip-rule="evenodd" d="M18.0091 29.6403C14.121 29.6403 10.9492 26.4685 10.9492 22.5804C10.9492 18.6924 14.121 15.5205 18.0091 15.5205C21.8971 15.5205 25.0611 18.6924 25.0611 22.5804C25.0611 26.4685 21.8971 29.6403 18.0091 29.6403ZM18.0091 16.9372C14.8924 16.9372 12.3659 19.4637 12.3659 22.5804C12.3659 25.6893 14.8924 28.2236 18.0091 28.2236C21.1179 28.2236 23.6523 25.6893 23.6523 22.5804C23.6523 19.4637 21.1179 16.9372 18.0091 16.9372Z" fill="#4D5E81"/>
<path fill-rule="evenodd" clip-rule="evenodd" d="M18.0065 26.1067C16.0624 26.1067 14.4805 24.5247 14.4805 22.5807C14.4805 20.6367 16.0624 19.0547 18.0065 19.0547C19.9505 19.0547 21.5325 20.6367 21.5325 22.5807C21.5325 24.5247 19.9505 26.1067 18.0065 26.1067ZM18.0065 20.4635C16.8416 20.4635 15.8893 21.4159 15.8893 22.5807C15.8893 23.7455 16.8416 24.6979 18.0065 24.6979C19.1713 24.6979 20.1236 23.7455 20.1236 22.5807C20.1236 21.4159 19.1713 20.4635 18.0065 20.4635Z" fill="#4D5E81"/>
<path d="M27.8853 13.404H8.13022C7.7367 13.404 7.42188 13.0892 7.42188 12.6957C7.42188 12.3021 7.7367 11.9873 8.13022 11.9873H27.8853C28.2788 11.9873 28.5936 12.3021 28.5936 12.6957C28.5936 13.0892 28.2788 13.404 27.8853 13.404Z" fill="#4D5E81"/>
<path d="M27.8853 9.86201H8.13022C7.7367 9.86201 7.42188 9.54719 7.42188 9.15366C7.42188 8.76013 7.7367 8.44531 8.13022 8.44531H27.8853C28.2788 8.44531 28.5936 8.76013 28.5936 9.15366C28.5936 9.54719 28.2788 9.86201 27.8853 9.86201Z" fill="#4D5E81"/>
<path d="M23.2981 6.32002H12.7201C12.3265 6.32002 12.0117 6.0052 12.0117 5.61167C12.0117 5.21814 12.3265 4.90332 12.7201 4.90332H23.2981C23.6916 4.90332 24.0064 5.21814 24.0064 5.61167C24.0064 6.0052 23.6916 6.32002 23.2981 6.32002Z" fill="#4D5E81"/>
</svg>
