<svg width="36" height="33" viewBox="0 0 36 33" fill="none" xmlns="http://www.w3.org/2000/svg">
<path fill-rule="evenodd" clip-rule="evenodd" d="M30 32.6176H6C2.69291 32.6176 0 29.9247 0 26.6176V26.2633C0 25.8775 0.314963 25.5625 0.700789 25.5625H35.2992C35.685 25.5625 36 25.8775 36 26.2633V26.6176C36 29.9247 33.3071 32.6176 30 32.6176ZM1.4252 26.9719C1.6063 29.3342 3.59055 31.2082 6 31.2082H30C32.4095 31.2082 34.3937 29.3342 34.5748 26.9719H1.4252Z" fill="#4D5E81" fill-opacity="0.909804"/>
<path d="M33.8829 27.0034H2.11907C1.72536 27.0034 1.37891 26.6569 1.37891 26.2632V4.38133C1.37891 3.98763 1.72536 3.69629 2.11907 3.69629H22.5915C22.9773 3.69629 23.2923 4.01125 23.2923 4.40495C23.2923 4.79865 22.9773 5.11361 22.5915 5.11361H2.79623V25.5861H33.1899V5.11361H28.2372C27.8514 5.11361 27.5285 4.79865 27.5285 4.40495C27.5285 4.01125 27.8514 3.69629 28.2372 3.69629H33.8829C34.2766 3.69629 34.6073 3.98763 34.6073 4.38133V26.2632C34.6073 26.6569 34.2766 27.0034 33.8829 27.0034Z" fill="#4D5E81" fill-opacity="0.909804"/>
<path fill-rule="evenodd" clip-rule="evenodd" d="M24.708 26.9721H11.2906C10.9048 26.9721 10.5898 26.6571 10.5898 26.2634V23.0902C10.5898 19.0036 13.9127 15.6729 17.9993 15.6729C22.0859 15.6729 25.4087 19.0036 25.4087 23.0902V26.2634C25.4087 26.6571 25.0938 26.9721 24.708 26.9721ZM11.9993 25.5626H23.9993V23.0902C23.9993 19.7831 21.3064 17.0902 17.9993 17.0902C14.6922 17.0902 11.9993 19.7831 11.9993 23.0902V25.5626Z" fill="#4D5E81" fill-opacity="0.909804"/>
<path fill-rule="evenodd" clip-rule="evenodd" d="M18.0018 17.0896C15.6633 17.0896 13.7656 15.1841 13.7656 12.8534C13.7656 10.5148 15.6633 8.61719 18.0018 8.61719C20.3404 8.61719 22.2381 10.5148 22.2381 12.8534C22.2381 15.1841 20.3404 17.0896 18.0018 17.0896ZM18.0018 10.0266C16.4428 10.0266 15.1751 11.2944 15.1751 12.8534C15.1751 14.4125 16.4428 15.6723 18.0018 15.6723C19.5609 15.6723 20.8286 14.4125 20.8286 12.8534C20.8286 11.2944 19.5609 10.0266 18.0018 10.0266Z" fill="#4D5E81" fill-opacity="0.909804"/>
<path fill-rule="evenodd" clip-rule="evenodd" d="M25.4104 7.90863C23.4655 7.90863 21.8828 6.32596 21.8828 4.38108C21.8828 2.43619 23.4655 0.853516 25.4104 0.853516C27.3631 0.853516 28.9458 2.43619 28.9458 4.38108C28.9458 6.32596 27.3631 7.90863 25.4104 7.90863ZM25.4104 2.26297C24.245 2.26297 23.2923 3.21572 23.2923 4.38108C23.2923 5.54643 24.245 6.49919 25.4104 6.49919C26.5836 6.49919 27.5285 5.54643 27.5285 4.38108C27.5285 3.21572 26.5836 2.26297 25.4104 2.26297Z" fill="#4D5E81" fill-opacity="0.909804"/>
<path d="M25.4078 5.09018C25.2267 5.09018 25.0456 5.01143 24.9118 4.87758C24.7779 4.75159 24.707 4.57049 24.707 4.38151C24.707 4.19254 24.7779 4.01143 24.9118 3.88545C25.0456 3.75159 25.2267 3.67285 25.4078 3.67285C25.5968 3.67285 25.7779 3.75159 25.9117 3.88545C26.0377 4.01143 26.1165 4.19254 26.1165 4.38151C26.1165 4.57049 26.0377 4.75159 25.9117 4.87758C25.7779 5.01143 25.5968 5.09018 25.4078 5.09018Z" fill="#4D5E81" fill-opacity="0.909804"/>
</svg>
