<svg width="49" height="48" viewBox="0 0 49 48" fill="none" xmlns="http://www.w3.org/2000/svg">
<path d="M48.0635 23.4988C47.8962 23.0807 47.3945 22.9134 46.9763 23.0807C46.5582 23.2479 46.391 23.666 46.5582 24.0842C46.7255 24.5023 47.1436 24.6695 47.6454 24.5023C47.9798 24.4187 48.2307 23.9169 48.0635 23.4988Z" fill="#F56241"/>
<path d="M38.0305 5.1849C38.4486 5.01765 38.6158 4.59955 38.4486 4.18143C38.2813 3.76331 37.8632 3.59606 37.4451 3.76331C37.027 3.93056 36.8597 4.34866 37.027 4.76678C37.1942 5.1849 37.6124 5.35214 38.0305 5.1849Z" fill="#F56241"/>
<path d="M25.9032 3.09408C26.3213 2.92683 26.4885 2.50873 26.3213 2.09061C26.154 1.67249 25.7359 1.50524 25.2342 1.67249C24.816 1.83974 24.6488 2.25784 24.816 2.67596C24.9833 3.09408 25.485 3.26132 25.9032 3.09408Z" fill="#F56241"/>
<path d="M15.8684 6.27184C16.2865 6.10459 16.4537 5.68646 16.2865 5.26834C16.1192 4.85022 15.7011 4.68298 15.283 4.85022C14.8649 5.01747 14.6976 5.4356 14.8649 5.85372C14.9485 6.27184 15.4502 6.43908 15.8684 6.27184Z" fill="#F56241"/>
<path d="M1.48568 16.7244C1.31843 16.3063 0.900327 16.139 0.482208 16.3063C0.0640898 16.4735 -0.103158 16.8916 0.0640898 17.3097C0.231337 17.7279 0.64944 17.8951 1.06756 17.7279C1.40205 17.5606 1.65292 17.1425 1.48568 16.7244Z" fill="#F56241"/>
<path fill-rule="evenodd" clip-rule="evenodd" d="M46.8102 43.903V44.0702C46.1412 45.2409 45.1377 46.2444 43.967 46.9134C42.7962 47.666 41.3746 48.0005 39.953 48.0005H7.84153C5.08195 48.0005 2.40598 46.4953 0.984375 44.0702V43.7357L3.66034 36.5441V13.6312C3.66034 11.0388 5.83457 8.94824 8.4269 8.94824H39.6185C42.2945 8.94824 44.3851 11.0388 44.3851 13.6312V36.6277L46.9774 43.8193V43.903C46.9774 43.903 46.9774 43.903 46.8102 43.903ZM4.74744 36.1259H43.298V34.0354C42.629 34.0354 5.33281 34.0354 4.74744 34.0354V36.1259ZM4.74744 13.6312V32.9483H8.67777L21.2213 20.572C21.4722 20.4047 21.8067 20.4047 21.9739 20.572L24.7335 23.3315L33.3468 14.8855H30.3363C30.0854 14.8855 29.8346 14.6347 29.8346 14.3838C29.8346 14.1329 30.0854 13.8821 30.3363 13.8821H34.6011C34.7684 13.8821 34.9356 13.9657 35.0192 14.1329C35.1865 14.3838 35.1029 14.1329 35.1029 18.565C35.1029 18.8158 34.852 19.0667 34.6011 19.0667C34.3502 19.0667 34.0994 18.8158 34.0994 18.565V15.6381L25.1516 24.4186C24.9008 24.5859 24.5663 24.5859 24.399 24.4186L21.6394 21.6591L10.183 32.9483H27.6604V27.1782C27.6604 26.9274 27.9112 26.6765 28.1621 26.6765H30.7544V24.0841C30.7544 23.8333 31.0053 23.5824 31.2562 23.5824H34.5175C34.7684 23.5824 35.0192 23.8333 35.0192 24.0841V25.673H37.6116C37.8624 25.673 38.1133 25.9239 38.1133 26.1747V28.2653H40.7893C41.0401 28.2653 41.291 28.5162 41.291 28.7671V32.9483H43.3816V13.6312C43.3816 11.6242 41.7091 9.95174 39.6185 9.95174H8.4269C6.41994 9.95174 4.74744 11.6242 4.74744 13.6312ZM36.9426 26.6765H34.852V32.9483H36.9426C36.9426 31.3594 36.9426 27.2618 36.9426 26.6765ZM33.8485 24.5859H31.6743V32.9483H33.8485C33.8485 31.8611 33.8485 25.5057 33.8485 24.5859ZM30.5872 27.68H28.4966V32.9483H30.5872V27.68ZM40.1203 29.2688H38.0297V32.9483H40.1203V29.2688ZM7.92516 47.0807H19.5488V44.4883H2.48962C3.8276 46.0772 5.83457 47.0807 7.92516 47.0807ZM27.9948 44.4883H20.6359V47.0807H27.9948V44.4883ZM45.4722 44.4883H28.9983V47.0807H40.1203C41.3746 47.0807 42.5454 46.7462 43.5489 46.1608C44.3015 45.7427 44.9705 45.1573 45.4722 44.4883ZM45.7231 43.4012L43.4652 37.1294H4.58021L2.23873 43.4012C4.32932 43.4012 43.8833 43.4012 45.7231 43.4012Z" fill="#F56241"/>
<path d="M9.43064 38.7178H8.34354C8.09267 38.7178 7.8418 38.9686 7.8418 39.2195C7.8418 39.4704 8.09267 39.7213 8.34354 39.7213H9.43064C9.68151 39.7213 9.93239 39.4704 9.93239 39.2195C9.93239 38.9686 9.76514 38.7178 9.43064 38.7178Z" fill="#F56241"/>
<path d="M13.6943 38.7178H12.6072C12.3563 38.7178 12.1055 38.9686 12.1055 39.2195C12.1055 39.4704 12.3563 39.7213 12.6072 39.7213H13.6943C13.9452 39.7213 14.1961 39.4704 14.1961 39.2195C14.1961 38.9686 14.0288 38.7178 13.6943 38.7178Z" fill="#F56241"/>
<path d="M16.8734 39.8053H17.9605C18.2114 39.8053 18.5459 39.5544 18.5459 39.3035C18.5459 39.0526 18.2114 38.8018 17.9605 38.8018H16.8734C16.6225 38.8018 16.3717 39.0526 16.3717 39.3035C16.2881 39.5544 16.5389 39.8053 16.8734 39.8053Z" fill="#F56241"/>
<path d="M21.1371 39.8053H22.2242C22.4751 39.8053 22.7259 39.5544 22.7259 39.3035C22.7259 39.0526 22.4751 38.8018 22.2242 38.8018H21.1371C20.8862 38.8018 20.6353 39.0526 20.6353 39.3035C20.5517 39.5544 20.8026 39.8053 21.1371 39.8053Z" fill="#F56241"/>
<path d="M26.4053 38.7178H25.3182C25.0673 38.7178 24.8164 38.9686 24.8164 39.2195C24.8164 39.4704 25.0673 39.7213 25.3182 39.7213H26.4053C26.6561 39.7213 26.907 39.4704 26.907 39.2195C26.907 38.9686 26.7398 38.7178 26.4053 38.7178Z" fill="#F56241"/>
<path d="M30.5869 38.7178H29.4998C29.2489 38.7178 28.998 38.9686 28.998 39.2195C28.998 39.4704 29.2489 39.7213 29.4998 39.7213H30.5869C30.8378 39.7213 31.0886 39.4704 31.0886 39.2195C31.0886 38.9686 30.9214 38.7178 30.5869 38.7178Z" fill="#F56241"/>
<path d="M34.8525 38.7178H33.7654C33.5145 38.7178 33.2637 38.9686 33.2637 39.2195C33.2637 39.4704 33.5145 39.7213 33.7654 39.7213H34.8525C35.1034 39.7213 35.3543 39.4704 35.3543 39.2195C35.3543 38.9686 35.187 38.7178 34.8525 38.7178Z" fill="#F56241"/>
<path d="M39.0322 38.7178H37.9451C37.6942 38.7178 37.4434 38.9686 37.4434 39.2195C37.4434 39.4704 37.6942 39.7213 37.9451 39.7213H39.0322C39.2831 39.7213 39.534 39.4704 39.534 39.2195C39.534 38.9686 39.3667 38.7178 39.0322 38.7178Z" fill="#F56241"/>
<path d="M9.43064 40.8086H8.34354C8.09267 40.8086 7.8418 41.0595 7.8418 41.3103C7.8418 41.5612 8.09267 41.8121 8.34354 41.8121H9.43064C9.68151 41.8121 9.93239 41.5612 9.93239 41.3103C9.93239 41.0595 9.76514 40.8086 9.43064 40.8086Z" fill="#F56241"/>
<path d="M13.6943 40.8086H12.6072C12.3563 40.8086 12.1055 41.0595 12.1055 41.3103C12.1055 41.5612 12.3563 41.8121 12.6072 41.8121H13.6943C13.9452 41.8121 14.1961 41.5612 14.1961 41.3103C14.1961 41.0595 14.0288 40.8086 13.6943 40.8086Z" fill="#F56241"/>
<path d="M26.4059 40.8086H16.8728C16.6219 40.8086 16.3711 41.0595 16.3711 41.3103C16.3711 41.5612 16.6219 41.8121 16.8728 41.8121H26.4059C26.6568 41.8121 26.9077 41.5612 26.9077 41.3103C26.9077 41.0595 26.7404 40.8086 26.4059 40.8086Z" fill="#F56241"/>
<path d="M30.5869 40.8086H29.4998C29.2489 40.8086 28.998 41.0595 28.998 41.3103C28.998 41.5612 29.2489 41.8121 29.4998 41.8121H30.5869C30.8378 41.8121 31.0886 41.5612 31.0886 41.3103C31.0886 41.0595 30.9214 40.8086 30.5869 40.8086Z" fill="#F56241"/>
<path d="M34.8525 40.8086H33.7654C33.5145 40.8086 33.2637 41.0595 33.2637 41.3103C33.2637 41.5612 33.5145 41.8121 33.7654 41.8121H34.8525C35.1034 41.8121 35.3543 41.5612 35.3543 41.3103C35.3543 41.0595 35.187 40.8086 34.8525 40.8086Z" fill="#F56241"/>
<path d="M39.0322 40.8086H37.9451C37.6942 40.8086 37.4434 41.0595 37.4434 41.3103C37.4434 41.5612 37.6942 41.8121 37.9451 41.8121H39.0322C39.2831 41.8121 39.534 41.5612 39.534 41.3103C39.534 41.0595 39.3667 40.8086 39.0322 40.8086Z" fill="#F56241"/>
<path fill-rule="evenodd" clip-rule="evenodd" d="M41.793 2.6763C41.793 1.2547 42.9637 0.0839844 44.3853 0.0839844C45.8069 0.0839844 46.9776 1.2547 46.9776 2.6763C46.9776 4.0979 45.8069 5.26864 44.3853 5.26864C42.8801 5.26864 41.793 4.0979 41.793 2.6763ZM42.7964 2.6763C42.7964 3.59616 43.5491 4.26517 44.3853 4.26517C45.3052 4.26517 45.9742 3.59616 45.9742 2.6763C45.9742 1.75644 45.2215 1.08745 44.3853 1.08745C43.4654 1.08745 42.7964 1.75644 42.7964 2.6763Z" fill="#F56241"/>
<path fill-rule="evenodd" clip-rule="evenodd" d="M0.984375 3.67944C0.984375 1.67247 2.65685 0 4.74744 0C6.75441 0 8.4269 1.67247 8.4269 3.67944C8.4269 5.68641 6.75441 7.35888 4.74744 7.35888C2.65685 7.35888 0.984375 5.68641 0.984375 3.67944ZM2.0715 3.67944C2.0715 5.10104 3.24221 6.27178 4.74744 6.27178C6.16904 6.27178 7.33978 5.10104 7.33978 3.67944C7.33978 2.25783 6.16904 1.0871 4.74744 1.0871C3.24221 1.0871 2.0715 2.25783 2.0715 3.67944Z" fill="#F56241"/>
</svg>
