<svg width="48" height="46" viewBox="0 0 48 46" fill="none" xmlns="http://www.w3.org/2000/svg">
<path d="M44.899 19.8876C45.3299 19.7152 45.5023 19.2843 45.3299 18.8534C45.1576 18.4225 44.7267 18.2501 44.2958 18.4225C43.8649 18.5949 43.6925 19.0258 43.8649 19.4567C44.0372 19.8876 44.5543 20.0599 44.899 19.8876Z" fill="#FD6543"/>
<path d="M41.5393 42.1223C41.1946 42.3809 41.0222 42.8117 41.2807 43.2426C41.5393 43.5874 41.9702 43.7597 42.4011 43.5012C42.7458 43.2426 42.9182 42.8117 42.6596 42.3808C42.4011 42.0361 41.884 41.95 41.5393 42.1223Z" fill="#FD6543"/>
<path fill-rule="evenodd" clip-rule="evenodd" d="M25.7679 29.5392C24.6475 26.6091 27.5776 23.7651 30.5078 24.8855C31.4557 25.2302 32.2314 26.0058 32.5761 26.9538C33.2655 28.7636 32.2314 30.8319 30.5078 31.5213C28.5256 32.3831 26.3711 31.349 25.7679 29.5392ZM27.6638 29.7115C29.3874 31.5213 32.4899 28.505 30.6801 26.6952C28.8703 24.9716 26.1126 28.2465 27.6638 29.7115Z" fill="#FD6543"/>
<path d="M30.2486 3.1688C30.6795 2.99644 30.8518 2.56554 30.6795 2.13464C30.5071 1.70374 30.0762 1.53138 29.6453 1.70374C29.2144 1.8761 28.9558 2.307 29.1282 2.7379C29.3006 3.1688 29.8177 3.34116 30.2486 3.1688Z" fill="#FD6543"/>
<path d="M25.5092 25.403L26.4572 24.455L24.3888 22.4728L25.423 21.5249L27.7499 23.8517L28.784 22.8176L25.1645 19.2842L20.166 24.3688L23.6994 27.9022L24.7336 26.868L22.3205 24.5412L23.4409 23.4208L25.5092 25.403Z" fill="#FD6543"/>
<path d="M20.8563 19.1117C20.684 18.767 20.4254 18.3361 20.3393 18.0776C20.2531 17.7328 20.3393 17.5605 20.4254 17.4743C20.684 17.2158 21.0287 17.3019 21.4596 17.6467C21.8905 18.0776 22.149 18.767 22.3214 19.1979C22.3214 19.3703 22.4076 19.4564 22.3214 19.4564L23.7865 19.0255C23.6141 18.5085 23.5279 18.1637 23.3556 17.819C22.6661 16.4401 21.632 15.8369 20.7702 15.7507C20.1669 15.6645 19.4775 15.9231 18.9604 16.4401C18.6157 16.7849 18.4433 17.1296 18.4433 17.6467C18.4433 19.0255 20.0807 20.4906 19.4775 21.0939C19.1902 21.3237 18.8455 21.2375 18.4433 20.8353C18.2709 20.663 18.0986 20.4044 17.9262 20.1459C17.5815 19.8012 17.4091 19.2841 17.323 18.8532C17.323 18.6808 17.2368 18.5946 17.2368 18.5085L15.6855 19.0255C16.0303 20.8353 18.0124 23.2484 19.9084 22.7313C20.2531 22.6451 20.5116 22.4727 20.7702 22.128C21.8905 21.18 21.5458 20.2321 20.8563 19.1117Z" fill="#FD6543"/>
<path d="M17.0634 43.673C16.6325 43.8454 16.4601 44.2763 16.6325 44.7072C16.8048 45.1381 17.2357 45.3105 17.6666 45.1381C18.1837 44.9657 18.3561 44.5348 18.1837 44.1039C18.0114 43.7592 17.4081 43.5007 17.0634 43.673Z" fill="#FD6543"/>
<path d="M13.2711 12.4762C13.702 12.0453 13.702 11.2697 13.2711 10.8388C12.8402 10.4079 12.0646 10.4079 11.6337 10.8388C11.2028 11.2697 11.2028 12.0453 11.6337 12.4762C12.0646 12.9933 12.7541 12.9933 13.2711 12.4762Z" fill="#FD6543"/>
<path d="M7.32483 1.53111C7.75573 1.35875 7.92809 0.927849 7.75573 0.496949C7.58337 0.0660489 7.15246 -0.106311 6.72156 0.0660489C6.29066 0.238409 6.1183 0.669306 6.29066 1.10021C6.46302 1.53111 6.89393 1.70347 7.32483 1.53111Z" fill="#FD6543"/>
<path d="M3.44736 29.0223C3.275 28.5914 2.84411 28.4191 2.32703 28.5914C1.89613 28.7638 1.72377 29.1947 1.89613 29.6256C2.06849 30.0565 2.49938 30.2289 3.01646 30.0565C3.44736 29.9703 3.61972 29.4532 3.44736 29.0223Z" fill="#FD6543"/>
<path fill-rule="evenodd" clip-rule="evenodd" d="M47.0543 29.2815C47.0543 30.2294 46.7096 31.1774 46.0201 31.8669L32.7484 44.9662C32.059 45.6557 31.111 46.0004 30.163 46.0004C29.215 46.0004 28.267 45.6557 27.5776 44.9662L6.63587 24.283C4.22283 21.87 2.84393 18.5952 2.84393 15.148C2.84393 11.8731 4.05045 8.77063 6.29113 6.35759L3.96429 4.03072C3.27485 3.42746 2.15449 3.42746 1.55123 4.03072C1.29269 4.28926 1.12033 4.72017 1.12033 5.15107C1.12033 5.58197 1.20651 5.92669 1.55123 6.27141L2.75777 7.39175C2.93013 7.65029 2.93013 7.99501 2.75777 8.16737C2.41305 8.33973 2.06833 8.33973 1.89597 8.16737L0.775615 7.04702C0.258535 6.52994 0 5.84051 0 5.15107C0 4.46163 0.258535 3.77219 0.775615 3.25511C1.80977 2.22095 3.61955 2.22095 4.65372 3.25511L6.98059 5.58197C9.39363 3.34129 12.5823 2.13477 15.8571 2.13477C19.3905 2.13477 22.6653 3.51365 25.0784 5.92669L44.2965 24.9725L45.9339 26.6099C46.6234 27.2993 47.0543 28.2473 47.0543 29.2815ZM7.3253 23.5074L26.2849 42.1223L43.1762 25.4034L24.2166 6.61612C21.9759 4.37544 19.0458 3.16892 15.7709 3.16892C12.7546 3.16892 9.82452 4.28927 7.67002 6.27141L10.4278 8.94299C11.031 8.51209 11.6343 8.33972 12.3237 8.33972C13.2717 8.33972 14.0473 8.68445 14.6506 9.28771C15.9433 10.5804 15.9433 12.5626 14.6506 13.8553C13.3579 15.148 11.3758 15.148 9.99689 13.8553C8.87655 12.7349 8.79037 11.0113 9.65217 9.71861L6.98059 7.04702C4.99845 9.2877 3.8781 12.0455 3.8781 15.0618C3.8781 18.2504 5.08462 21.2667 7.3253 23.5074ZM10.8587 10.2357C9.91071 11.0113 9.91071 12.3902 10.8587 13.252C11.2896 13.5967 11.8067 13.8553 12.4099 13.8553C14.3059 13.8553 15.3401 11.5284 13.9612 10.1495C13.5303 9.80479 13.0132 9.54625 12.4099 9.54625C11.8067 9.54625 11.2896 9.71861 10.8587 10.2357ZM45.9339 29.1953C45.9339 28.5059 45.6754 27.9026 45.1583 27.3855L43.9518 26.179L27.0605 42.8979L28.267 44.1044C28.7841 44.6215 29.3874 44.8801 30.0768 44.8801C30.7663 44.8801 31.3695 44.6215 31.8866 44.1044L45.2445 31.0051C45.6754 30.488 45.9339 29.8847 45.9339 29.1953Z" fill="#FD6543"/>
<path fill-rule="evenodd" clip-rule="evenodd" d="M35.5918 6.44328C35.5918 4.37496 37.3154 2.65137 39.3837 2.65137C41.5382 2.65137 43.2618 4.37496 43.2618 6.44328C43.2618 8.5116 41.5382 10.2352 39.3837 10.2352C37.3154 10.2352 35.5918 8.5116 35.5918 6.44328ZM36.7122 6.44328C36.7122 7.90834 37.9187 9.11487 39.3837 9.11487C40.935 9.11487 42.1415 7.90834 42.1415 6.44328C42.1415 4.97822 40.935 3.77171 39.3837 3.77171C37.9187 3.77171 36.7122 4.97822 36.7122 6.44328Z" fill="#FD6543"/>
<path fill-rule="evenodd" clip-rule="evenodd" d="M9.99695 39.3637C9.99695 41.1735 8.53188 42.6385 6.7221 42.6385C4.91232 42.6385 3.44727 41.1735 3.44727 39.3637C3.44727 37.5539 4.91232 36.0889 6.7221 36.0889C8.53188 36.0889 9.99695 37.5539 9.99695 39.3637ZM8.8766 39.3637C8.8766 38.1572 7.92862 37.2092 6.7221 37.2092C5.51558 37.2092 4.5676 38.1572 4.5676 39.3637C4.5676 40.5702 5.51558 41.5182 6.7221 41.5182C7.92862 41.5182 8.8766 40.5702 8.8766 39.3637Z" fill="#FD6543"/>
</svg>
