<svg width="36" height="37" viewBox="0 0 36 37" fill="none" xmlns="http://www.w3.org/2000/svg">
<path fill-rule="evenodd" clip-rule="evenodd" d="M23.6145 36.7309H3.74297C1.67872 36.7309 0 35.0522 0 32.9879V3.751C0 1.68674 1.67872 0 3.74297 0H23.6145C25.6787 0 27.3655 1.68674 27.3655 3.751V32.9879C27.3655 35.0522 25.6787 36.7309 23.6145 36.7309ZM3.74297 1.44578C2.4739 1.44578 1.43775 2.47389 1.43775 3.751V32.9879C1.43775 34.257 2.4739 35.2851 3.74297 35.2851H23.6145C24.8916 35.2851 25.9197 34.257 25.9197 32.9879V3.751C25.9197 2.47389 24.8916 1.44578 23.6145 1.44578H3.74297Z" fill="#4D5E81"/>
<path d="M26.6426 31.6704H0.714861C0.321287 31.6704 0 31.3491 0 30.9475C0 30.5459 0.321287 30.2246 0.714861 30.2246H26.6426C27.0361 30.2246 27.3655 30.5459 27.3655 30.9475C27.3655 31.3491 27.0361 31.6704 26.6426 31.6704Z" fill="#4D5E81"/>
<path d="M17.2771 4.36109H10.0803C9.77509 4.36109 9.51003 4.15224 9.40561 3.87112L8.32127 0.987592C8.18473 0.610082 8.3775 0.192404 8.74698 0.0558574C9.11646 -0.0887209 9.53413 0.112094 9.67068 0.489604L10.5783 2.9153H16.7791L17.6867 0.489604C17.8233 0.112094 18.241 -0.0806888 18.6104 0.0558574C18.9879 0.192404 19.1727 0.610074 19.0361 0.979552L17.9518 3.87916C17.8474 4.16028 17.5823 4.36109 17.2771 4.36109Z" fill="#4D5E81"/>
<path fill-rule="evenodd" clip-rule="evenodd" d="M33.1257 35.2847C32.9008 35.2847 32.684 35.1803 32.5474 35.0035L30.3868 32.12C30.2904 31.9915 30.2422 31.8469 30.2422 31.6863V4.32082C30.2422 2.73849 31.5354 1.44531 33.1257 1.44531C34.7161 1.44531 36.0012 2.73849 36.0012 4.32082V31.6863C36.0012 31.8469 35.953 31.9915 35.8647 32.12L33.704 35.0035C33.5675 35.1803 33.3506 35.2847 33.1257 35.2847ZM31.688 31.4453L33.1257 33.365L34.5635 31.4453V4.32082C34.5635 3.52564 33.9209 2.88308 33.1257 2.88308C32.3305 2.88308 31.688 3.52564 31.688 4.32082V31.4453Z" fill="#4D5E81"/>
<path d="M35.2864 30.2251H30.9651C30.5635 30.2251 30.2422 29.9038 30.2422 29.5022C30.2422 29.1006 30.5635 28.7793 30.9651 28.7793H35.2864C35.6799 28.7793 36.0012 29.1006 36.0012 29.5022C36.0012 29.9038 35.6799 30.2251 35.2864 30.2251Z" fill="#4D5E81"/>
<path d="M35.2864 8.21727H30.9651C30.5635 8.21727 30.2422 7.89598 30.2422 7.49438C30.2422 7.09277 30.5635 6.77148 30.9651 6.77148H35.2864C35.6799 6.77148 36.0012 7.09277 36.0012 7.49438C36.0012 7.89598 35.6799 8.21727 35.2864 8.21727Z" fill="#4D5E81"/>
<path fill-rule="evenodd" clip-rule="evenodd" d="M23.7585 13.687H3.59789C3.19629 13.687 2.875 13.3657 2.875 12.9641V7.92797C2.875 7.52636 3.19629 7.20508 3.59789 7.20508H23.7585C24.1601 7.20508 24.4814 7.52636 24.4814 7.92797V12.9641C24.4814 13.3657 24.1601 13.687 23.7585 13.687ZM4.32078 12.2493H23.0437V8.64284H4.32078V12.2493Z" fill="#4D5E81"/>
<path d="M19.4372 16.5698H3.59789C3.19629 16.5698 2.875 16.2485 2.875 15.8469C2.875 15.4453 3.19629 15.124 3.59789 15.124H19.4372C19.8388 15.124 20.1601 15.4453 20.1601 15.8469C20.1601 16.2485 19.8388 16.5698 19.4372 16.5698Z" fill="#4D5E81"/>
<path d="M19.4372 19.4614H3.59789C3.19629 19.4614 2.875 19.1401 2.875 18.7385C2.875 18.3369 3.19629 18.0156 3.59789 18.0156H19.4372C19.8388 18.0156 20.1601 18.3369 20.1601 18.7385C20.1601 19.1401 19.8388 19.4614 19.4372 19.4614Z" fill="#4D5E81"/>
<path d="M16.564 23.0766H10.8049C10.4033 23.0766 10.082 22.7554 10.082 22.3538C10.082 21.9521 10.4033 21.6309 10.8049 21.6309H16.564C16.9575 21.6309 17.2788 21.9521 17.2788 22.3538C17.2788 22.7554 16.9575 23.0766 16.564 23.0766Z" fill="#4D5E81"/>
<path d="M13.6487 28.8113C13.2471 28.8113 12.9258 28.4819 12.9258 28.0884V22.3293C12.9258 21.9277 13.2471 21.6064 13.6487 21.6064C14.0503 21.6064 14.3716 21.9277 14.3716 22.3293V28.0884C14.3716 28.4819 14.0503 28.8113 13.6487 28.8113Z" fill="#4D5E81"/>
</svg>
