<svg width="43" height="38" viewBox="0 0 43 38" fill="none" xmlns="http://www.w3.org/2000/svg">
<path d="M33.8128 14.877L39.6027 23.0479H3.9375L9.2642 14.877H33.8128Z" fill="#2A428C"/>
<path d="M39.6027 34.6064H3.9375C3.9375 33.9127 3.9375 23.6605 3.9375 23.0439H39.6805C39.6027 23.7376 39.6027 33.9898 39.6027 34.6064Z" fill="#1C2E7A"/>
<path d="M39.1397 2.31037C41.0155 2.31037 42.5364 3.82892 42.5364 5.70206C42.5364 7.57443 41.0155 9.09375 39.1397 9.09375C37.2639 9.09375 35.7422 7.57443 35.7422 5.70206C35.7422 3.82892 37.2639 2.31037 39.1397 2.31037Z" fill="#FFDD40"/>
<path d="M2.93225 11.4825C4.254 11.4825 5.32546 12.5524 5.32546 13.8721C5.32546 15.1918 4.254 16.2617 2.93225 16.2617C1.6105 16.2617 0.539062 15.1918 0.539062 13.8721C0.539062 12.5524 1.6105 11.4825 2.93225 11.4825Z" fill="#FFDD40"/>
<path d="M21.771 25.4324C27.0999 25.4324 31.4201 26.951 31.4201 28.8241C31.4201 30.6973 27.0999 32.2158 21.771 32.2158C16.4412 32.2158 12.1211 30.6973 12.1211 28.8241C12.1211 26.951 16.4412 25.4324 21.771 25.4324Z" fill="#70F2A4"/>
<path d="M3.9375 34.6069H39.6805V37.5361H3.9375V34.6069Z" fill="#2A428C"/>
<path d="M13.5859 19.1924C13.5859 16.8028 13.5859 9.09439 13.5859 6.62771H29.4889C29.4889 9.01731 29.4889 16.7257 29.4889 19.1924C28.0214 19.1924 15.593 19.1924 13.5859 19.1924Z" fill="#E9EFFF"/>
<path d="M42.0734 33.2189C42.4572 33.2189 42.7686 33.5288 42.7686 33.9127C42.7686 34.295 42.4572 34.6064 42.0734 34.6064C41.6895 34.6064 41.3789 34.295 41.3789 33.9127C41.3789 33.5288 41.6895 33.2189 42.0734 33.2189Z" fill="#081120"/>
<path d="M41.3007 14.4133C41.6845 14.4133 41.9959 14.7239 41.9959 15.107C41.9959 15.4901 41.6845 15.8008 41.3007 15.8008C40.9168 15.8008 40.6055 15.4901 40.6055 15.107C40.6055 14.7239 40.9168 14.4133 41.3007 14.4133Z" fill="#081120"/>
<path d="M31.6515 -0.00079143C32.0353 -0.00079143 32.3459 0.309857 32.3459 0.692964C32.3459 1.07607 32.0353 1.38672 31.6515 1.38672C31.2676 1.38672 30.957 1.07607 30.957 0.692964C30.957 0.309857 31.2676 -0.00079143 31.6515 -0.00079143Z" fill="#081120"/>
<path d="M3.70618 3.31171C4.09004 3.31171 4.40141 3.62236 4.40141 4.00546C4.40141 4.38857 4.09004 4.69922 3.70618 4.69922C3.32309 4.69922 3.01172 4.38857 3.01172 4.00546C3.01172 3.62236 3.32309 3.31171 3.70618 3.31171Z" fill="#081120"/>
<path d="M1.31239 34.1447C1.69549 34.1447 2.00686 34.4554 2.00686 34.8385C2.00686 35.2216 1.69549 35.5322 1.31239 35.5322C0.928537 35.5322 0.617188 35.2216 0.617188 34.8385C0.617188 34.4554 0.928537 34.1447 1.31239 34.1447Z" fill="#081120"/>
<path d="M39.141 36.9988H4.40153V35.0716H39.141V36.9988ZM9.49621 15.3365H13.1249V18.7285H12.6617C12.4305 18.7285 12.1985 18.9597 12.1985 19.191C12.1985 19.4223 12.4305 19.6535 12.6617 19.6535C13.2791 19.6535 29.7995 19.6535 30.4947 19.6535C30.7259 19.6535 30.9579 19.4223 30.9579 19.191C30.9579 18.9597 30.7259 18.7285 30.4947 18.7285H30.0315V15.3365H33.6594L38.7549 22.583H4.7869L9.49621 15.3365ZM14.0514 7.16494H29.0279V18.7285H25.6305V11.9445C25.6305 11.7133 25.3992 11.482 25.168 11.482C24.936 11.482 24.7048 11.7133 24.7048 11.9445V18.7285H14.0514V7.16494ZM4.40153 31.217H8.26146C8.49269 31.217 8.72469 30.9858 8.72469 30.7545C8.72469 30.5232 8.49269 30.292 8.26146 30.292H4.40153V23.508H39.141V25.8978H34.8179C34.5859 25.8978 34.3539 26.1291 34.3539 26.3604C34.3539 26.5916 34.5859 26.8229 34.8179 26.8229H39.141V34.0694H4.40153V31.217ZM40.0667 22.8913C40.0667 22.8142 40.4529 23.3539 34.1997 14.6427C34.1227 14.4885 33.9685 14.4114 33.8136 14.4114H29.9544V6.7024C29.9544 6.47113 29.7224 6.23986 29.4912 6.23986H13.5882C13.3562 6.23986 13.1249 6.47113 13.1249 6.7024V14.4114H9.265C9.11084 14.4114 8.95592 14.4885 8.87884 14.6427C3.32092 23.1997 3.55215 22.8142 3.55215 22.8913V22.9684V23.0455C3.55215 24.6644 3.55215 36.0737 3.55215 37.5384C3.55215 37.7697 3.78414 38.001 4.01537 38.001H39.7576C39.9896 38.001 40.2216 37.7697 40.2216 37.5384C40.2216 37.5384 40.2216 23.1226 40.2216 23.0455C40.1438 23.0455 40.0667 22.8913 40.0667 22.8913Z" fill="#081120"/>
<path d="M28.4079 30.7536C24.7028 32.064 18.7588 32.064 15.053 30.7536C13.5091 30.214 12.5827 29.5202 12.5827 28.8265C12.5827 28.1327 13.5091 27.439 15.053 26.8994C18.7588 25.5889 24.7028 25.5889 28.4079 26.8994C29.9525 27.439 30.8782 28.1327 30.8782 28.8265C30.8782 29.5202 30.0295 30.214 28.4079 30.7536ZM21.7693 24.9723C16.828 24.9723 11.6562 26.3598 11.6562 28.8265C11.6562 31.2932 16.9059 32.6807 21.7693 32.6807C26.6328 32.6807 31.8824 31.2932 31.8824 28.8265C31.8824 26.3598 26.7091 24.9723 21.7693 24.9723Z" fill="#081120"/>
<path d="M16.4437 14.875C16.6749 14.875 16.9069 14.6437 16.9069 14.4125V11.4833C16.9069 11.2521 16.6749 11.0208 16.4437 11.0208C16.2117 11.0208 15.9805 11.2521 15.9805 11.4833V14.4125C15.9805 14.6437 16.2117 14.875 16.4437 14.875Z" fill="#081120"/>
<path d="M39.142 2.84839C40.7629 2.84839 42.0747 4.15881 42.0747 5.77758C42.0747 7.39634 40.7629 8.70676 39.142 8.70676C37.5203 8.70676 36.2085 7.39634 36.2085 5.77758C36.2085 4.15881 37.5203 2.84839 39.142 2.84839ZM39.142 9.55469C41.3032 9.55469 43.0011 7.85884 43.0011 5.70049C43.0011 3.54214 41.3032 1.8463 39.142 1.8463C36.98 1.8463 35.2812 3.54214 35.2812 5.70049C35.2812 7.85884 37.0571 9.55469 39.142 9.55469Z" fill="#081120"/>
<path d="M2.93349 15.8026C1.85289 15.8026 1.00354 14.9547 1.00354 13.8755C1.00354 12.7963 1.85289 11.9484 2.93349 11.9484C4.0141 11.9484 4.86347 12.7963 4.86347 13.8755C4.86347 14.9547 4.0141 15.8026 2.93349 15.8026ZM5.86701 13.8755C5.86701 12.2567 4.5544 10.9463 2.93349 10.9463C1.31259 10.9463 0 12.2567 0 13.8755C0 15.4943 1.31259 16.8047 2.93349 16.8047C4.5544 16.8047 5.86701 15.4943 5.86701 13.8755Z" fill="#081120"/>
</svg>
