<svg width="41" height="48" viewBox="0 0 41 48" fill="none" xmlns="http://www.w3.org/2000/svg">
<path style="mix-blend-mode:multiply" d="M38.1907 46.2858C38.1907 47.2406 36.7585 48.0001 34.9792 48.0001C33.1998 48.0001 31.7676 47.2406 31.7676 46.2858C31.7676 45.331 33.1998 44.5498 34.9792 44.5498C36.7585 44.5498 38.1907 45.331 38.1907 46.2858Z" fill="url(#paint0_radial_2407_36710)"/>
<path d="M22.1348 22.5669L24.7604 21.0696L34.7424 12.7803L32.1167 14.2776L22.1348 22.5669Z" fill="#00719E"/>
<path d="M3.10352 23.4345L5.72919 21.9372L16.7527 13.9951L14.127 15.5141L3.10352 23.4345Z" fill="#1F45CC"/>
<path d="M14.2793 11.261L16.905 9.76367L24.8254 16.751L22.1997 18.2483L14.2793 11.261Z" fill="url(#paint1_linear_2407_36710)"/>
<path d="M27.8633 9.98076L30.489 8.48348L40.8398 5.22852L38.2141 6.7475L27.8633 9.98076Z" fill="#00E0DE"/>
<path d="M33.9824 16.1869L36.6081 14.6896L40.8396 5.22852L38.2139 6.7475L33.9824 16.1869Z" fill="#00849E"/>
<path d="M27.8626 9.98033L29.7505 11.8682L29.8156 11.9333L22.1989 18.2479L14.2785 11.2606L0 21.568L3.10307 23.4342L14.1266 15.5138L22.1338 22.5879L32.1157 14.2986L32.1591 14.3203L33.9819 16.1865L38.2134 6.74707L27.8626 9.98033Z" fill="url(#paint2_linear_2407_36710)"/>
<path style="mix-blend-mode:color-dodge" d="M38.149 6.8993L40.6879 5.33691L38.0405 6.7908L27.8633 9.98066L28.0586 10.176L38.149 6.8993Z" fill="url(#paint3_radial_2407_36710)"/>
<path style="mix-blend-mode:color-dodge" d="M14.2785 11.5211L22.1989 18.5085L29.8156 12.1938L29.7505 12.1287L29.6854 12.0419L22.1989 18.2481L14.2785 11.2607L0 21.5681L0.173598 21.6766L14.2785 11.5211Z" fill="url(#paint4_radial_2407_36710)"/>
<path d="M36.4776 44.809C36.955 45.677 36.6295 46.7836 35.7615 47.2393C34.8719 47.7167 33.7869 47.3912 33.3095 46.5233C32.8321 45.6336 33.1576 44.5486 34.0473 44.0712C34.9153 43.5938 36.0219 43.9193 36.4776 44.809Z" fill="#35004D"/>
<path d="M29.3181 30.791L25.4121 32.9176L32.6815 46.3063H32.7033C32.7033 46.3208 32.7033 46.328 32.7033 46.328C33.0504 46.9573 34.2005 47.0007 35.2638 46.4148C36.3488 45.8289 36.9564 44.8525 36.6092 44.2232C36.6092 44.2087 36.6092 44.2015 36.6092 44.2015L29.3181 30.791Z" fill="url(#paint5_linear_2407_36710)"/>
<path d="M29.3182 30.8129C29.6654 31.4422 29.0578 32.4187 27.9728 33.0046C26.9095 33.5905 25.7377 33.5471 25.4122 32.9178C25.065 32.2885 25.6726 31.312 26.7576 30.7261C27.8426 30.1402 28.9927 30.1836 29.3182 30.8129Z" fill="url(#paint6_linear_2407_36710)"/>
<path d="M27.0172 28.4912L24.6953 29.7281L26.0841 32.267C26.0841 32.267 26.0841 32.2742 26.0841 32.2887C26.2794 32.6576 26.9738 32.6793 27.6248 32.3321C28.2541 31.9849 28.623 31.399 28.406 31.0301C28.406 31.0301 28.406 31.0228 28.406 31.0084L27.0172 28.4912Z" fill="url(#paint7_linear_2407_36710)"/>
<mask id="mask0_2407_36710" style="mask-type:luminance" maskUnits="userSpaceOnUse" x="7" y="2" width="22" height="28">
<path d="M17.6624 4.28865C11.8425 0.929527 7.125 3.61812 7.125 10.2973C7.125 16.9743 11.8425 25.1117 17.6624 28.473C23.4823 31.8321 28.1999 29.1435 28.1999 22.4644C28.1999 15.7873 23.4823 7.64994 17.6624 4.28865Z" fill="white"/>
</mask>
<g mask="url(#mask0_2407_36710)">
<path d="M29.7294 34.0459H5.44727V1.2793H29.7294V34.0459Z" fill="white"/>
<path d="M22.418 24.2589L25.7163 22.3927L40.9062 9.78516L37.6078 11.673L22.418 24.2589Z" fill="#006D9C"/>
<path d="M-1.38672 25.3435L1.88995 23.4773L15.691 13.5605L12.4144 15.4267L-1.38672 25.3435Z" fill="#1F45CC"/>
<path d="M12.6094 10.132L15.886 8.24414L25.8029 16.9891L22.5045 18.877L12.6094 10.132Z" fill="url(#paint8_linear_2407_36710)"/>
<path d="M32.2909 6.29125L34.6562 8.65652L34.743 8.74332L22.5043 18.8771L12.6092 10.1321L-5.27148 23.0218L-1.38722 25.3436L12.4139 15.4268L22.4392 24.2803L37.6291 11.6945L37.6725 11.7379L39.9509 14.0598L45.2457 2.2334L32.2909 6.29125Z" fill="url(#paint9_linear_2407_36710)"/>
<path style="mix-blend-mode:color-dodge" d="M12.6092 10.4364L22.5043 19.1814L34.743 9.04763L34.6562 8.96083L34.5694 8.87402L22.5043 18.8776L12.6092 10.1326L-5.27148 23.0223L-5.03279 23.1525L12.6092 10.4364Z" fill="url(#paint10_radial_2407_36710)"/>
</g>
<path d="M19.2271 28.2748C13.0644 24.716 8.07342 16.1229 8.07342 9.07049C8.07342 6.22782 8.89801 4.07954 10.2434 2.75586C7.66112 3.58045 5.99023 6.24952 5.99023 10.3291C5.99023 17.4032 10.9812 25.9963 17.1222 29.5333C20.8112 31.6599 24.0662 31.508 26.106 29.5116C24.1964 30.1409 21.8094 29.772 19.2271 28.2748Z" fill="url(#paint11_linear_2407_36710)"/>
<path style="mix-blend-mode:screen" opacity="0.5" d="M17.6653 4.29675C11.8497 0.933291 7.11914 3.62406 7.11914 10.3076C7.11914 16.9694 11.8497 25.1068 17.6653 28.4703C23.4808 31.8337 28.2114 29.143 28.2114 22.4594C28.2114 15.7976 23.4808 7.66021 17.6653 4.29675Z" fill="url(#paint12_radial_2407_36710)"/>
<path style="mix-blend-mode:multiply" d="M17.6653 4.29675C11.8497 0.933291 7.11914 3.62406 7.11914 10.3076C7.11914 16.9694 11.8497 25.1068 17.6653 28.4703C23.4808 31.8337 28.2114 29.143 28.2114 22.4594C28.2114 15.7976 23.4808 7.66021 17.6653 4.29675Z" fill="url(#paint13_radial_2407_36710)"/>
<path d="M19.4862 2.64787C16.4699 0.890187 13.714 0.694889 11.7177 1.77988C11.6526 1.82328 8.78819 3.42905 8.67969 3.55925C10.7195 2.01857 13.7574 2.04027 17.1209 3.99325C23.2837 7.53031 28.2529 16.1451 28.2529 23.1975C28.2529 26.7997 26.9726 29.2952 24.8678 30.4235C25.0197 30.3801 25.1933 30.2933 25.4102 30.1848C25.4753 30.1414 27.45 28.948 27.4934 28.9263C29.4247 27.7328 30.6182 25.3024 30.6182 21.8521C30.6182 14.7997 25.6272 6.18493 19.4862 2.64787Z" fill="url(#paint14_linear_2407_36710)"/>
<path fill-rule="evenodd" clip-rule="evenodd" d="M28.2543 23.1969C28.2543 30.2493 23.285 33.092 17.1222 29.5332C10.9812 25.9962 5.99023 17.4031 5.99023 10.3289C5.99023 3.27653 10.9812 0.433861 17.1222 3.99262C23.285 7.52968 28.2543 16.1445 28.2543 23.1969ZM27.3212 22.828C27.3212 16.3181 22.7208 8.37597 17.0571 5.09931C11.3718 1.82265 6.77143 4.44832 6.77143 10.9582C6.77143 17.4899 11.3718 25.4103 17.0571 28.6869C22.7208 31.9636 27.3212 29.3596 27.3212 22.828Z" fill="url(#paint15_linear_2407_36710)"/>
<path style="mix-blend-mode:screen" d="M17.6635 3.73194C14.7123 2.01766 12.0433 1.80066 10.0469 2.77715C11.8914 2.25636 14.6255 2.53845 17.121 3.99233C23.2838 7.52939 28.253 16.1442 28.253 23.1966C28.253 26.8639 26.4736 29.5112 24.3254 30.5745C27.0378 29.815 28.7955 27.1243 28.7955 22.9362C28.7955 15.8621 23.8046 7.269 17.6635 3.73194Z" fill="url(#paint16_radial_2407_36710)"/>
<path style="mix-blend-mode:screen" opacity="0.5" d="M16.1897 12.7163C18.0559 10.8718 20.0305 9.28769 22.092 7.96401C20.7466 6.46673 19.2493 5.20814 17.6653 4.29675C11.8497 0.933291 7.11914 3.62406 7.11914 10.3076C7.11914 13.6493 8.31263 17.3817 10.2439 20.6801C11.7412 17.9025 13.7159 15.19 16.1897 12.7163Z" fill="url(#paint17_radial_2407_36710)"/>
<path style="mix-blend-mode:color-dodge" d="M32.052 23.6959C32.052 25.8008 30.3594 27.4933 28.2545 27.4933C26.1713 27.4933 24.457 25.8008 24.457 23.6959C24.457 21.591 26.1713 19.8984 28.2545 19.8984C30.3594 19.8984 32.052 21.591 32.052 23.6959Z" fill="url(#paint18_radial_2407_36710)"/>
<path style="mix-blend-mode:color-dodge" opacity="0.6" d="M22.677 9.61299C22.677 14.9077 18.3804 19.2043 13.0857 19.2043C7.79092 19.2043 3.47266 14.9077 3.47266 9.61299C3.47266 4.29655 7.79092 0 13.0857 0C18.3804 0 22.677 4.29655 22.677 9.61299Z" fill="url(#paint19_radial_2407_36710)"/>
<path style="mix-blend-mode:color-dodge" d="M25.0637 6.01035C25.0637 8.09352 23.3711 9.8078 21.2662 9.8078C19.183 9.8078 17.4688 8.09352 17.4688 6.01035C17.4688 3.90547 19.183 2.21289 21.2662 2.21289C23.3711 2.21289 25.0637 3.90547 25.0637 6.01035Z" fill="url(#paint20_radial_2407_36710)"/>
<defs>
<radialGradient id="paint0_radial_2407_36710" cx="0" cy="0" r="1" gradientUnits="userSpaceOnUse" gradientTransform="translate(34.9778 46.2784) scale(3.20723 3.20721)">
<stop offset="0.192" stop-color="#AFB6E5"/>
<stop offset="1" stop-color="white"/>
</radialGradient>
<linearGradient id="paint1_linear_2407_36710" x1="23.7133" y1="25.7902" x2="5.22053" y2="7.40725" gradientUnits="userSpaceOnUse">
<stop offset="0.106" stop-color="#84EFA9"/>
<stop offset="0.924" stop-color="#29FFFD"/>
</linearGradient>
<linearGradient id="paint2_linear_2407_36710" x1="41.8399" y1="16.7554" x2="2.04629" y2="30.6788" gradientUnits="userSpaceOnUse">
<stop stop-color="#00C7C5"/>
<stop offset="0.737" stop-color="#5277F7"/>
<stop offset="1" stop-color="#BB6DF3"/>
</linearGradient>
<radialGradient id="paint3_radial_2407_36710" cx="0" cy="0" r="1" gradientUnits="userSpaceOnUse" gradientTransform="translate(37.6158 1.31357) scale(10.3729 10.3729)">
<stop stop-color="white"/>
<stop offset="1"/>
</radialGradient>
<radialGradient id="paint4_radial_2407_36710" cx="0" cy="0" r="1" gradientUnits="userSpaceOnUse" gradientTransform="translate(13.6969 18.5874) scale(11.1403 11.1402)">
<stop stop-color="white"/>
<stop offset="1"/>
</radialGradient>
<linearGradient id="paint5_linear_2407_36710" x1="25.4234" y1="32.8983" x2="29.3245" y2="30.7959" gradientUnits="userSpaceOnUse">
<stop stop-color="#3B3ABA"/>
<stop offset="0.227" stop-color="#6152E3"/>
<stop offset="0.399" stop-color="#4528C9"/>
<stop offset="0.626" stop-color="#3F1982"/>
<stop offset="0.869" stop-color="#5E239E"/>
<stop offset="1" stop-color="#491C8B"/>
</linearGradient>
<linearGradient id="paint6_linear_2407_36710" x1="29.6836" y1="28.7189" x2="28.4181" y2="33.9166" gradientUnits="userSpaceOnUse">
<stop stop-color="#3B3ABA"/>
<stop offset="0.571" stop-color="#4528C9"/>
<stop offset="1" stop-color="#6152E3"/>
</linearGradient>
<linearGradient id="paint7_linear_2407_36710" x1="24.7029" y1="29.7294" x2="27.0131" y2="28.4845" gradientUnits="userSpaceOnUse">
<stop stop-color="#B9BFEA"/>
<stop offset="0.106" stop-color="#E5E9FF"/>
<stop offset="0.172" stop-color="white"/>
<stop offset="0.404" stop-color="#DFE3FC"/>
<stop offset="0.702" stop-color="#AFB6E5"/>
<stop offset="1" stop-color="#BDC3EC"/>
</linearGradient>
<linearGradient id="paint8_linear_2407_36710" x1="24.4067" y1="28.2986" x2="1.26693" y2="5.29639" gradientUnits="userSpaceOnUse">
<stop offset="0.01" stop-color="#29FFFD"/>
<stop offset="1" stop-color="#8484EF"/>
</linearGradient>
<linearGradient id="paint9_linear_2407_36710" x1="50.4181" y1="16.5548" x2="-2.51163" y2="35.0747" gradientUnits="userSpaceOnUse">
<stop stop-color="#00C7C5"/>
<stop offset="0.656" stop-color="#5277F7"/>
<stop offset="1" stop-color="#BB6DF3"/>
</linearGradient>
<radialGradient id="paint10_radial_2407_36710" cx="0" cy="0" r="1" gradientUnits="userSpaceOnUse" gradientTransform="translate(13.1126 18.9156) scale(14.9581 14.9581)">
<stop stop-color="white"/>
<stop offset="1"/>
</radialGradient>
<linearGradient id="paint11_linear_2407_36710" x1="31.6924" y1="-7.22602" x2="44.2941" y2="21.9531" gradientUnits="userSpaceOnUse">
<stop stop-color="#9DA6EA"/>
<stop offset="0.106" stop-color="#E5E9FF"/>
<stop offset="0.404" stop-color="#DFE3FC"/>
<stop offset="0.702" stop-color="#AFB6E5"/>
<stop offset="1" stop-color="#BDC3EC"/>
</linearGradient>
<radialGradient id="paint12_radial_2407_36710" cx="0" cy="0" r="1" gradientUnits="userSpaceOnUse" gradientTransform="translate(15.5769 12.7375) scale(15.0922 15.0922)">
<stop offset="0.005" stop-color="#66CCFF"/>
<stop offset="1" stop-color="#5277F7"/>
</radialGradient>
<radialGradient id="paint13_radial_2407_36710" cx="0" cy="0" r="1" gradientUnits="userSpaceOnUse" gradientTransform="translate(15.5194 12.8525) scale(15.0922 15.0922)">
<stop offset="0.485" stop-color="white"/>
<stop offset="1" stop-color="#AFB6E5"/>
</radialGradient>
<linearGradient id="paint14_linear_2407_36710" x1="32.9433" y1="-10.9166" x2="49.0668" y2="19.9453" gradientUnits="userSpaceOnUse">
<stop stop-color="#9DA6EA"/>
<stop offset="0.106" stop-color="#E5E9FF"/>
<stop offset="0.172" stop-color="white"/>
<stop offset="0.404" stop-color="#DFE3FC"/>
<stop offset="0.702" stop-color="#AFB6E5"/>
<stop offset="1" stop-color="#BDC3EC"/>
</linearGradient>
<linearGradient id="paint15_linear_2407_36710" x1="-4.1234" y1="3.38937" x2="19.131" y2="-4.11609" gradientUnits="userSpaceOnUse">
<stop stop-color="#AFB6E5"/>
<stop offset="0.581" stop-color="#E5E9FF"/>
<stop offset="1" stop-color="#F7F6FB"/>
</linearGradient>
<radialGradient id="paint16_radial_2407_36710" cx="0" cy="0" r="1" gradientUnits="userSpaceOnUse" gradientTransform="translate(22.2378 7.70386) scale(12.0293 12.0293)">
<stop stop-color="white"/>
<stop offset="1"/>
</radialGradient>
<radialGradient id="paint17_radial_2407_36710" cx="0" cy="0" r="1" gradientUnits="userSpaceOnUse" gradientTransform="translate(15.0721 10.3288) scale(8.23508 8.23505)">
<stop stop-color="white"/>
<stop offset="1"/>
</radialGradient>
<radialGradient id="paint18_radial_2407_36710" cx="0" cy="0" r="1" gradientUnits="userSpaceOnUse" gradientTransform="translate(28.3825 23.8161) scale(2.77562 2.77561)">
<stop stop-color="#273B98"/>
<stop offset="1"/>
</radialGradient>
<radialGradient id="paint19_radial_2407_36710" cx="0" cy="0" r="1" gradientUnits="userSpaceOnUse" gradientTransform="translate(13.3929 9.91526) scale(7.01902 7.019)">
<stop offset="0.005" stop-color="#66CCFF"/>
<stop offset="1"/>
</radialGradient>
<radialGradient id="paint20_radial_2407_36710" cx="0" cy="0" r="1" gradientUnits="userSpaceOnUse" gradientTransform="translate(21.3927 6.12774) scale(2.77562 2.77561)">
<stop stop-color="#364F87"/>
<stop offset="1"/>
</radialGradient>
</defs>
</svg>
