<svg width="49" height="46" viewBox="0 0 49 46" fill="none" xmlns="http://www.w3.org/2000/svg">
<path d="M44.9699 27.298C45.3988 27.2122 45.6562 26.7832 45.5704 26.3543C45.4846 25.9253 45.0556 25.668 44.6267 25.7537C44.1977 25.8395 43.9404 26.2685 44.0262 26.6975C44.112 27.1264 44.5409 27.3838 44.9699 27.298Z" fill="#FD6543"/>
<path d="M41.1964 14.9435C41.6254 14.8577 41.8828 14.4287 41.797 13.9998C41.7112 13.5708 41.2823 13.3135 40.8533 13.3992C40.4244 13.485 40.167 13.914 40.2528 14.3429C40.3386 14.7719 40.7675 15.0293 41.1964 14.9435Z" fill="#FD6543"/>
<path d="M32.1869 42.826C31.6722 42.9118 31.4148 43.3407 31.5006 43.7697C31.5864 44.1986 32.1012 44.456 32.5301 44.3702C32.9591 44.2844 33.2165 43.8555 33.1307 43.4265C33.0449 42.9976 32.6159 42.7402 32.1869 42.826Z" fill="#FD6543"/>
<path d="M18.0329 38.536C17.604 38.6218 17.3467 39.0507 17.4325 39.4796C17.5182 39.9086 17.9472 40.166 18.3761 40.0802C18.8051 39.9944 19.0625 39.5655 18.9767 39.1365C18.8909 38.7076 18.4619 38.4502 18.0329 38.536Z" fill="#FD6543"/>
<path d="M4.90542 1.5607C5.33437 1.47491 5.59175 1.04593 5.50596 0.616979C5.42017 0.188028 4.99124 -0.0693531 4.56229 0.0164371C4.13334 0.102227 3.87596 0.531209 3.96175 0.96016C4.04754 1.38911 4.47647 1.64649 4.90542 1.5607Z" fill="#FD6543"/>
<path d="M0.96016 30.4718C1.38911 30.386 1.64649 29.9571 1.5607 29.5281C1.47491 29.0992 1.04593 28.8418 0.616979 28.9276C0.188028 29.0134 -0.0693531 29.4423 0.0164371 29.8713C0.102227 30.3002 0.531209 30.5576 0.96016 30.4718Z" fill="#FD6543"/>
<path fill-rule="evenodd" clip-rule="evenodd" d="M29.0144 16.8308V19.3187C29.0144 19.576 28.757 19.8334 28.4997 19.8334L26.4407 20.005C26.3549 20.3482 26.1834 20.6913 26.0118 21.0345L27.2986 22.6645C27.4702 22.8361 27.4702 23.1792 27.2986 23.3508L25.497 25.1524C25.3254 25.324 24.9823 25.324 24.8107 25.1524L23.0949 23.8656C22.7517 24.0372 22.4086 24.2087 22.0654 24.2945L21.8938 26.3535C21.8938 26.6966 21.6365 26.8682 21.3791 26.8682H18.8912C18.6338 26.8682 18.3764 26.6108 18.3764 26.3535L18.2048 24.2945C17.8617 24.2087 17.5185 24.0372 17.1753 23.8656L15.4595 25.1524C15.288 25.324 14.9448 25.324 14.7732 25.1524L12.9717 23.3508C12.8001 23.1792 12.8001 22.8361 12.9717 22.6645L14.2585 21.0345C14.0869 20.6913 13.9154 20.3482 13.8296 20.005L11.7706 19.8334C11.4274 19.8334 11.2559 19.576 11.2559 19.3187V16.8308C11.2559 16.5734 11.5132 16.316 11.7706 16.316L13.8296 16.1445C13.9154 15.8013 14.0869 15.4581 14.2585 15.115L12.9717 13.4849C12.8001 13.3134 12.8001 12.9702 12.9717 12.7986L14.7732 10.9971C14.9448 10.8255 15.288 10.8255 15.4595 10.9971L17.1753 12.2839C17.5185 12.1123 17.8617 11.9407 18.2048 11.855L18.3764 9.79597C18.3764 9.45281 18.6338 9.28125 18.8912 9.28125H21.3791C21.6365 9.28125 21.8938 9.5386 21.8938 9.79597L22.0654 11.855C22.4086 11.9407 22.7517 12.1123 23.0949 12.2839L24.8107 11.0828C24.9823 10.9112 25.3254 10.9112 25.497 11.0828L27.2986 12.8844C27.4702 13.056 27.4702 13.3992 27.2986 13.5708L26.0118 15.2007C26.1834 15.5439 26.3549 15.8871 26.4407 16.2302L28.4997 16.4018C28.757 16.4018 29.0144 16.6592 29.0144 16.8308ZM27.8991 17.4313L26.0118 17.2597C25.8402 17.1739 25.6686 17.0881 25.5828 16.8308C25.4112 16.4018 25.2397 15.8871 24.9823 15.4581C24.8965 15.2865 24.8965 15.0292 25.0681 14.8576L26.2691 13.3133L25.1539 12.1981L23.5238 13.3992C23.3523 13.5707 23.0949 13.5707 22.9233 13.4849C22.4943 13.2276 22.0654 12.9702 21.5507 12.8844C21.2933 12.8844 21.1217 12.7128 21.1217 12.4554L20.9501 10.5681H19.4059L19.2343 12.4554C19.1485 12.627 19.0628 12.7986 18.8054 12.8844C18.3764 13.056 17.8617 13.2276 17.4328 13.4849C17.2612 13.5707 17.0038 13.5707 16.7464 13.3992L15.2022 12.1981L14.0869 13.3133L15.288 14.8576C15.4596 15.0292 15.4596 15.2865 15.3738 15.4581C15.1164 15.8871 14.859 16.316 14.7732 16.8308C14.7732 17.0881 14.6017 17.2597 14.3443 17.2597L12.4569 17.4313V18.9755L14.3443 19.1471C14.5159 19.2329 14.6874 19.3187 14.7732 19.5761C14.9448 20.005 15.1164 20.5197 15.3738 20.9487C15.4596 21.1203 15.4596 21.3777 15.288 21.5492L14.0869 23.0934L15.2022 24.2087L16.7464 23.0077C17.0038 22.8361 17.2612 22.8361 17.4328 22.9219C17.8617 23.1792 18.2906 23.4366 18.8054 23.5224C19.0628 23.5224 19.2343 23.694 19.2343 23.9513L19.4059 25.8387H20.9501L21.1217 23.9513C21.2075 23.7798 21.2933 23.6082 21.5507 23.5224C21.9796 23.3508 22.4943 23.1792 22.9233 22.9219C23.0949 22.8361 23.3523 22.8361 23.5238 23.0077L25.1539 24.2087L26.2691 23.0934L25.0681 21.5492C24.8965 21.3777 24.8965 21.1203 24.9823 20.9487C25.2397 20.5197 25.497 20.0908 25.5828 19.5761C25.5828 19.3187 25.7544 19.1471 26.0118 19.1471L27.8991 18.9755V17.4313Z" fill="#FD6543"/>
<path fill-rule="evenodd" clip-rule="evenodd" d="M24.1227 18.204C24.1227 20.4346 22.3211 22.2362 20.0906 22.2362C17.86 22.2362 15.9727 20.4346 15.9727 18.204C15.9727 15.9735 17.86 14.1719 20.0906 14.1719C22.3211 14.1719 24.1227 15.9735 24.1227 18.204ZM23.0075 18.204C23.0075 16.574 21.7206 15.2872 20.0906 15.2872C18.4606 15.2872 17.1737 16.574 17.1737 18.204C17.1737 19.834 18.4606 21.1209 20.0906 21.1209C21.7206 21.1209 23.0933 19.834 23.0075 18.204Z" fill="#FD6543"/>
<path fill-rule="evenodd" clip-rule="evenodd" d="M45.3138 37.7639C46.0001 38.4502 46.429 39.394 46.429 40.4234C46.429 41.4529 46.0001 42.3966 45.3138 43.0829C44.6275 43.7692 43.6837 44.1982 42.6543 44.1982C41.6248 44.1982 40.6811 43.7692 39.9948 43.0829L32.3594 35.5334L31.1584 36.6486C31.0726 36.7344 30.901 36.8202 30.8152 36.8202C30.7294 36.8202 30.5578 36.7344 30.472 36.6486L27.4694 33.646C25.2388 34.7613 22.6651 35.276 20.1772 35.276C15.5446 35.276 11.2551 33.4744 7.90924 30.2144C4.64922 27.0401 2.84766 22.6649 2.84766 18.118C2.84766 13.5711 4.64922 9.28157 7.90924 6.02155C11.1693 2.76152 15.5446 0.959961 20.1772 0.959961C24.8099 0.959961 29.0994 2.76152 32.4453 6.02155C37.5069 11.169 38.8795 18.8901 35.8769 25.4102L38.7937 28.4128C38.9653 28.6702 38.9653 29.0133 38.7937 29.1849L37.6784 30.3002L45.3138 37.7639ZM20.1772 34.1608C22.6651 34.1608 25.1531 33.646 27.3836 32.5307C29.0136 31.7586 30.3863 30.7292 31.6731 29.4423C33.0458 28.1555 34.0753 26.697 34.8474 25.1528C37.85 18.9759 36.649 11.598 31.6731 6.70791C28.5847 3.70526 24.4667 1.98945 20.1772 1.98945C15.7161 1.98945 11.684 3.70526 8.59555 6.70791C5.5929 9.79636 3.8771 13.7427 3.8771 18.118C3.8771 22.4933 5.5929 26.5254 8.59555 29.5281C11.684 32.6165 15.7161 34.2466 20.1772 34.1608ZM31.9305 34.5039L36.5632 29.957L37.6784 28.8418L35.2763 26.4396C34.5042 27.8123 33.5605 29.0991 32.3594 30.3002C31.1584 31.4155 29.8715 32.4449 28.4131 33.217L30.8152 35.6192L31.9305 34.5039ZM45.3996 40.5092C45.3996 39.8229 45.1422 39.1365 44.6274 38.6218L36.9921 31.0723L33.2173 34.8471L40.8527 42.3966C41.3674 42.9113 42.0538 43.1687 42.7401 43.1687C43.4264 43.1687 44.1127 42.9113 44.6274 42.3966C45.1422 41.9676 45.3996 41.2813 45.3996 40.5092Z" fill="#FD6543"/>
<path fill-rule="evenodd" clip-rule="evenodd" d="M28.9281 26.8692C26.6118 29.1855 23.4376 30.5581 20.0917 30.5581C16.6601 30.5581 13.5717 29.2713 11.2554 26.9549C8.85325 24.5528 7.56641 21.5502 7.56641 18.2043C7.56641 14.8585 8.85325 11.7701 11.2554 9.45373C13.6575 7.1374 16.6601 5.85059 20.0917 5.85059C23.4376 5.85059 26.6118 7.1374 28.9281 9.45373C33.8182 14.258 33.8182 22.0649 28.9281 26.8692ZM28.156 26.1828C32.6171 21.7217 32.6171 14.6012 28.156 10.2259C26.0113 8.1669 23.0944 6.96585 20.0917 6.96585C17.0891 6.96585 14.1722 8.08111 12.0275 10.2259C9.96849 12.3706 8.68167 15.2017 8.68167 18.2043C8.68167 21.207 9.8827 24.0381 12.0275 26.1828C14.1722 28.2418 17.0891 29.4429 20.0917 29.4429C23.0944 29.4429 26.0113 28.2418 28.156 26.1828Z" fill="#FD6543"/>
<path fill-rule="evenodd" clip-rule="evenodd" d="M48.317 7.47981C48.317 9.53878 46.5154 11.2546 44.4564 11.2546C42.3975 11.2546 40.6816 9.53878 40.6816 7.47981C40.6816 5.42085 42.3975 3.70508 44.4564 3.70508C46.6012 3.70508 48.317 5.42085 48.317 7.47981ZM47.2017 7.47981C47.2017 6.02138 45.9149 4.82034 44.4564 4.82034C42.998 4.82034 41.7969 6.02138 41.7969 7.47981C41.7969 8.93825 42.998 10.1393 44.4564 10.1393C46.0007 10.1393 47.2875 8.93825 47.2017 7.47981Z" fill="#FD6543"/>
<path fill-rule="evenodd" clip-rule="evenodd" d="M9.79572 41.1958C9.79572 43.8553 7.56517 46.0001 4.90567 46.0001C2.24618 46.0001 0.015625 43.8553 0.015625 41.1958C0.015625 38.5363 2.24618 36.3916 4.90567 36.3916C7.56517 36.3916 9.79572 38.5363 9.79572 41.1958ZM8.68046 41.1958C8.68046 39.1369 6.96464 37.4211 4.90567 37.4211C2.84671 37.4211 1.04512 39.1369 1.04512 41.1958C1.04512 43.2548 2.84671 44.9706 4.90567 44.9706C6.96464 44.9706 8.68046 43.2548 8.68046 41.1958Z" fill="#FD6543"/>
</svg>
