<svg width="55" height="46" viewBox="0 0 55 46" fill="none" xmlns="http://www.w3.org/2000/svg">
<path style="mix-blend-mode:multiply" d="M48.4949 35.8017C48.4949 41.4214 40.0653 45.9996 29.6492 45.9996C19.2332 45.9996 10.7793 41.4214 10.7793 35.8017C10.7793 30.1819 19.2332 25.6279 29.6492 25.6279C40.0653 25.6279 48.4949 30.1819 48.4949 35.8017Z" fill="url(#paint0_radial_2407_36682)"/>
<path d="M48.1075 22.456C48.1075 34.1074 38.6846 43.5302 27.0332 43.5302C15.4061 43.5302 5.95898 34.1074 5.95898 22.456C5.95898 10.8289 15.4061 1.38184 27.0332 1.38184C38.6846 1.38184 48.1075 10.8289 48.1075 22.456Z" fill="url(#paint1_radial_2407_36682)"/>
<path style="mix-blend-mode:color-dodge" opacity="0.7" d="M39.751 6.41797C41.592 9.59121 42.6336 13.2731 42.6336 17.1973C42.6336 29.1635 32.9443 38.8528 21.0022 38.8528C18.3618 38.8528 15.8184 38.3683 13.4688 37.4963C17.0296 40.4758 21.5835 42.2683 26.5735 42.2683C37.8131 42.2683 46.9211 33.1604 46.9211 21.9208C46.9211 15.6954 44.1354 10.1483 39.751 6.41797Z" fill="url(#paint2_radial_2407_36682)"/>
<path fill-rule="evenodd" clip-rule="evenodd" d="M25.2407 29.14C25.4345 29.5275 25.6283 29.8424 25.168 30.3754C24.7078 30.884 24.1507 31.2232 24.1507 31.7319C24.1507 32.2405 24.1749 32.725 24.3202 32.8219C24.4656 32.943 24.1022 32.8946 23.9811 33.2095C23.8842 33.5486 23.7873 34.1542 23.3271 34.2753C22.8668 34.4206 21.7041 34.6386 21.4134 35.2442C21.0985 35.8256 21.4377 35.8982 20.929 36.5038C20.3961 37.1094 20.3718 37.5939 19.9116 37.8603C19.4756 38.1268 19.0395 38.6839 18.7246 38.9019C18.434 39.0957 17.7073 39.1926 17.5135 39.4348C17.3439 39.7013 17.2712 40.1131 16.7868 40.0162C16.3265 39.9193 16.1812 39.8708 16.1812 40.0404C16.1812 40.21 16.7383 40.2826 16.4961 40.4522C16.4315 40.5007 16.3669 40.5491 16.3023 40.5975C15.3657 40.0485 14.4775 39.4268 13.6378 38.7324C13.662 38.6597 13.7346 38.5628 13.8073 38.4659C14.1222 37.9814 14.2676 37.3516 14.2191 36.9156C14.1464 36.4796 14.7036 34.3964 14.6551 33.7182C14.6067 33.0641 14.0011 32.7008 13.2744 32.2163C12.5477 31.7561 12.039 30.5449 11.7968 29.9636C11.5788 29.3822 11.2881 29.4064 11.2881 28.9704C11.2881 28.5586 11.2639 27.6139 11.6999 27.1779C12.1117 26.7177 12.6446 26.3543 12.4266 25.7003C12.2086 25.0705 12.1117 24.804 11.6999 25.0705C11.2881 25.3369 10.3676 24.9494 10.1012 24.5376C9.8347 24.1016 9.49558 23.6898 8.50243 23.3264C7.5335 22.9388 7.72727 22.6239 7.21858 22.6724C7.00057 22.6724 6.4919 22.5755 5.95898 22.4302C5.95898 17.9489 7.36392 13.8067 9.76203 10.3912C10.3676 10.4881 10.949 10.4639 11.0216 10.7061C11.1428 11.021 11.6514 11.6751 11.7968 11.6508C11.9664 11.6266 11.7241 10.8515 11.7241 10.8515C11.7241 10.8515 12.7657 10.6577 12.6931 10.2701C12.6204 9.88254 11.8937 9.61608 11.8937 9.61608C11.8937 9.61608 12.2813 9.34964 12.257 9.03474C12.2328 8.71984 12.2086 8.52604 12.2086 8.52604C12.2086 8.52604 13.1291 8.50183 13.5409 8.55027C13.9284 8.5745 14.5582 8.86517 14.8731 9.25274C15.2123 9.64031 15.5514 9.76143 15.8178 9.59187C16.0601 9.4223 16.3023 9.03474 16.3023 9.03474C16.3023 9.03474 16.7383 9.8341 17.5377 10.367C18.3371 10.8757 18.9427 11.0695 19.0153 11.2875C19.088 11.5055 19.0153 11.7962 18.6035 11.8204C18.216 11.8204 17.9253 12.2322 17.6588 12.2322C17.3924 12.2564 15.9874 12.1353 15.6483 12.3049C15.2849 12.4744 14.8489 12.8378 14.8489 12.8378C14.8489 12.8378 16.2781 12.3291 16.375 12.6924C16.4719 13.0316 16.4719 13.2011 16.8352 13.2738C17.1744 13.3222 17.5862 13.2253 17.5862 13.2253L17.7799 13.4918C17.7799 13.4918 17.0532 13.734 16.6172 13.9278C16.2054 14.1216 15.8905 14.4123 15.8663 14.1458C15.8421 13.9036 16.1085 13.7098 16.1085 13.7098C16.1085 13.7098 15.2123 14.0247 14.97 14.1458C14.7036 14.2669 14.4614 14.4607 14.6309 14.6787C14.7763 14.8725 14.8489 15.0905 14.752 15.0905C14.6794 15.0905 13.8315 14.8725 13.4924 15.5265C13.1533 16.1806 13.3471 16.5681 13.226 16.7619C13.1049 16.9557 11.7241 17.5371 11.603 17.8762C11.4577 18.2395 11.9664 19.4507 11.6757 19.7656C11.4092 20.0805 10.731 20.0321 10.731 20.0321C10.731 20.0321 11.0216 19.5476 10.6341 19.0631C10.2465 18.5787 9.9316 18.2395 9.59248 18.3364C9.22913 18.4091 8.86577 18.724 8.42975 18.7482C8.01795 18.7724 7.1217 18.6271 6.75835 18.9662C6.395 19.3054 6.46766 19.4991 6.41922 19.7898C6.37077 20.0805 6.10432 21.6308 7.04903 21.8488C7.99374 22.0668 7.94528 21.1705 8.30863 20.9768C8.64776 20.783 9.27756 20.5165 9.51979 20.8314C9.7378 21.1221 9.27757 21.4854 9.2049 21.8488C9.15645 22.2121 9.10801 22.6724 9.10801 22.6724C9.10801 22.6724 9.88315 22.6239 10.4161 22.5513C10.9247 22.5028 11.2154 22.4302 11.1912 22.6482C11.1912 22.8662 10.3434 24.1742 10.949 24.4649C11.5546 24.7314 11.7968 24.2953 12.1359 24.4891C12.475 24.7071 12.5235 24.7798 12.7173 24.6345C12.9353 24.4891 13.8073 23.6898 14.1949 23.6898C14.5825 23.6898 14.8974 24.1258 15.3818 24.1742C15.8663 24.2227 16.1328 24.1016 17.029 24.2469C17.9253 24.368 17.3197 24.4891 18.0948 24.9978C18.8458 25.5065 19.4756 25.3127 19.6694 25.4823C19.8874 25.6761 20.8563 26.3301 21.0501 26.7177C21.2196 27.1052 21.7041 27.3717 21.8979 27.4928C22.0675 27.6381 22.7699 28.1468 23.3028 28.1468C23.8358 28.1468 24.1991 28.4375 24.5867 28.7282C24.95 29.0189 25.0711 28.7524 25.2407 29.14ZM19.088 12.3291C19.306 12.4018 19.6694 12.4018 19.6694 12.5713C19.6936 12.7167 19.9116 12.9831 19.9116 13.08C19.9116 13.2011 19.5967 13.298 19.4029 13.1284C19.2091 12.9589 19.1364 13.0558 18.8942 13.0558C18.652 13.08 17.8768 12.9831 17.9737 12.9104C18.0948 12.8378 18.1433 12.5713 18.2886 12.3533C18.4582 12.1111 18.7731 11.6993 19.0153 11.8204C19.2091 11.9173 18.87 12.2322 19.088 12.3291ZM12.5719 20.6619C12.0875 20.4681 11.8452 19.8383 11.8695 19.5718H12.1601C12.1601 19.5718 12.3539 19.9594 12.4266 20.2258C12.4993 20.4923 12.9353 20.2258 12.9595 20.3227C13.008 20.4438 13.0564 20.8314 12.5719 20.6619ZM14.2191 22.1153L13.3471 21.8972C13.3471 21.8972 13.6862 21.7761 13.8073 21.6792C13.9284 21.5823 13.7347 21.3643 13.7347 21.3643C13.7347 21.3643 14.6309 21.5339 15.8178 21.7519C17.029 21.9699 17.1501 22.5755 17.1501 22.5755C17.1501 22.5755 16.7141 22.1879 16.3023 21.9941C15.8905 21.8004 14.9943 21.9215 14.4371 21.9215C14.2676 21.9215 14.2191 22.1153 14.2191 22.1153ZM11.821 20.5165C12.475 20.8314 13.3713 21.3159 13.3713 21.3159C13.3713 21.3159 12.8384 21.8972 12.2328 21.437C11.6272 20.9525 11.4577 20.8314 11.0943 20.8799C10.7067 20.9041 10.1254 20.7587 10.1254 20.7587C10.1254 20.7587 11.167 20.2016 11.821 20.5165ZM11.5546 8.71984C11.5061 8.67139 11.5546 8.59872 11.6515 8.55027C11.7241 8.50183 11.8937 8.47761 11.8937 8.59872C11.8695 8.71984 11.6515 8.84095 11.603 8.7925C11.5546 8.74406 11.5788 8.76828 11.5546 8.71984ZM11.8452 10.2459C11.9179 10.1974 11.9664 10.2701 12.0148 10.3428C12.0633 10.4154 12.2812 10.2701 12.4266 10.2943C12.5719 10.3186 12.4508 10.4639 12.4024 10.4397C12.3539 10.3912 12.039 10.4397 11.9179 10.4397C11.7968 10.4397 11.6757 10.5608 11.6515 10.4881C11.6515 10.4397 11.6515 10.3428 11.7241 10.3186C11.8452 10.3186 11.7968 10.2701 11.8452 10.2459ZM12.5477 7.33911C12.5477 7.29067 12.5316 7.2503 12.4993 7.218C13.0483 6.68509 13.6216 6.19254 14.2191 5.74037C14.5582 5.83727 14.8489 5.93417 14.97 6.00684C15.0911 6.10373 15.4545 6.1764 15.5514 6.24907C15.6241 6.32174 15.4303 6.41863 15.5272 6.4913C15.6483 6.58819 15.7694 6.66086 15.9874 6.75775C16.5445 6.95154 17.2955 7.16955 17.2712 7.26645C17.2712 7.36334 16.8594 7.8478 16.5445 7.75091C16.2054 7.65402 15.8421 7.24222 15.5756 7.36333C15.2849 7.50867 16.0601 7.84779 16.2781 7.96891C16.4961 8.09003 16.5445 8.35649 16.2296 8.35649C15.939 8.35649 14.9943 8.11426 14.9943 8.11426C14.9943 8.11426 16.0116 8.64716 15.9632 8.69561C15.939 8.74405 14.5825 8.50183 14.2191 8.30804C13.88 8.11426 12.8868 7.89625 12.3782 7.94469C11.8695 8.01736 12.5235 7.5329 12.5477 7.33911ZM48.1075 22.9146C47.9622 28.7524 45.4914 34.0088 41.543 37.7392C41.5188 37.6423 41.543 37.5212 41.543 37.3759C41.5672 37.061 41.325 36.6976 40.8405 36.092C40.356 35.4865 40.4771 35.22 40.3318 34.4691C40.1865 33.7182 39.6536 33.4517 39.5082 32.507C39.3387 31.5865 39.9442 31.2716 40.0411 30.9567C40.138 30.6418 39.7747 30.3996 39.8958 30.2785C40.0169 30.1331 39.8716 29.794 39.5567 29.2611C39.266 28.704 38.7089 28.1468 38.5877 27.9046C38.4666 27.6624 38.6604 27.4444 38.7331 26.5481C38.8058 25.6276 37.7157 26.3059 37.5946 26.1121C37.4735 25.8941 36.989 25.5065 36.6014 25.6034C36.1896 25.6761 35.366 26.1121 34.8574 25.9183C34.3244 25.7245 33.5735 26.209 33.5735 26.209C33.5735 26.209 33.0891 25.991 31.7568 25.0463C30.4245 24.1015 30.594 23.278 30.8363 22.6724C31.0543 22.0668 30.8847 21.6792 30.6667 21.3401C30.4487 20.9768 31.0785 20.1047 31.345 19.9594C31.6114 19.7898 31.8052 19.1116 32.2655 18.942C32.7257 18.7482 32.9195 18.4333 32.9437 18.1426C32.9922 17.8762 32.9922 17.5613 33.4766 17.2948C33.9611 17.0284 34.0822 16.665 34.0822 16.665L34.276 16.5681C34.276 16.5681 34.4456 16.6893 34.5182 16.7619C34.5909 16.8588 34.9058 16.6893 35.0996 16.7619C35.3176 16.8346 35.4387 16.7862 35.5841 16.665C35.7536 16.5681 36.4803 16.3744 36.7952 16.3017C37.1101 16.2532 37.4735 16.3501 37.5946 16.3501C37.7157 16.3501 37.7399 16.2532 37.9095 16.229C38.079 16.229 38.1517 16.1806 38.3455 16.229C38.5393 16.3017 38.6846 16.1806 38.83 16.1563C38.9753 16.1321 39.0238 16.2048 39.0722 16.2775C39.1206 16.3259 39.266 16.2048 39.2902 16.229C39.3144 16.2532 39.2418 16.3501 39.1691 16.4228C39.0964 16.4713 39.1449 16.5197 39.1933 16.5924C39.2418 16.6408 39.2902 16.6408 39.3387 16.7377C39.3871 16.8346 39.5809 16.7861 39.5567 16.883C39.5567 17.0042 39.1933 16.9799 39.1691 17.0284C39.1449 17.0768 39.3387 17.2222 39.5082 17.3675C39.6778 17.5128 39.8231 17.4644 39.9927 17.4402C40.1865 17.416 40.5498 17.5371 40.6225 17.6824C40.6709 17.8035 40.8163 17.9489 40.9858 17.9489C41.1554 17.9246 41.543 18.1669 41.7368 18.2395C41.9305 18.3364 41.979 18.07 41.979 17.9731C41.979 17.8762 41.8579 17.8035 42.197 17.5371C42.5361 17.2948 42.8995 17.5613 43.0448 17.6582C43.1659 17.7551 43.5051 17.7309 43.5051 17.7551C43.5051 17.8035 43.5777 17.9004 43.6746 17.8762C43.7715 17.852 44.474 18.0215 44.7405 18.0458C45.0069 18.07 45.0796 17.8762 45.4187 17.8035C45.7578 17.7066 46.0243 17.9731 46.2665 17.9489C46.533 17.9004 46.6299 17.2948 46.7268 17.1253C46.8237 16.9557 46.8237 16.8104 46.7994 16.7135C46.7752 16.6408 46.7994 16.5924 46.7752 16.5197C46.7752 16.4228 46.8721 16.3986 46.8963 16.3259C46.9206 16.2532 46.8479 16.2775 46.7994 16.3017C46.7268 16.3501 46.6056 16.3501 46.4845 16.3259C46.3634 16.2775 46.315 16.4228 46.2423 16.4713C46.1454 16.5197 45.8789 16.5681 45.7094 16.4713C45.564 16.3744 45.3218 16.2775 45.2249 16.3017C45.128 16.3017 45.128 16.4713 44.9827 16.4955C44.8616 16.5197 44.7647 16.447 44.7162 16.3501C44.692 16.2532 44.5224 16.2775 44.4256 16.2775C44.3287 16.2775 44.256 16.2532 44.256 16.1806C44.2318 16.1079 44.1349 15.9868 44.0864 15.9383C44.038 15.8899 44.0622 15.8414 44.038 15.6719C44.0137 15.4781 43.8926 15.575 43.8442 15.4539C43.82 15.3328 43.9653 15.1874 43.9653 15.1874C43.9653 15.1874 43.7957 15.0663 43.6262 15.0663C43.4324 15.0663 43.4082 15.0663 43.3355 15.0663C43.2628 15.0663 43.2628 15.2359 43.1417 15.2601C42.9964 15.3085 42.8753 15.139 42.8268 15.2116C42.7784 15.2843 42.9237 15.4781 42.9722 15.5265C43.0206 15.575 43.1659 15.7203 43.2386 15.793C43.3113 15.8414 43.2628 15.9383 43.2386 16.011C43.2144 16.0837 42.9964 15.8899 42.9479 15.9141C42.8753 15.9141 42.9237 16.0837 42.8753 16.0837C42.8026 16.0837 42.9237 16.3986 42.8995 16.3744C42.8753 16.3744 42.7299 16.2775 42.6088 16.2775C42.4635 16.2532 42.4635 16.2775 42.4877 16.1563C42.4877 16.011 42.415 16.0595 42.3423 15.9868C42.2697 15.9383 42.415 15.8657 42.3908 15.8414C42.3423 15.8414 42.2455 15.7688 42.197 15.6234C42.1243 15.5023 41.8821 15.2843 41.7852 15.2116C41.6883 15.139 41.8094 14.8967 41.8094 14.7999C41.8094 14.7272 41.3734 14.5334 41.2523 14.4607C41.1312 14.3638 40.6225 14.1943 40.3803 14.0247C40.1623 13.8551 39.9685 13.6856 39.8473 13.8067C39.702 13.9278 39.8716 14.0974 39.9927 14.1701C40.1138 14.2427 40.138 14.2669 40.2107 14.4123C40.2591 14.5818 40.5498 14.7272 40.7678 14.7272C40.9616 14.7272 40.8647 14.7998 40.8889 14.8725C40.9132 14.921 41.1312 15.0421 41.2765 15.0663C41.4219 15.0905 41.4945 15.2116 41.5188 15.2843C41.543 15.3328 41.4219 15.4054 41.3976 15.357C41.3734 15.3085 41.2765 15.2359 41.1554 15.1874C41.0101 15.139 40.9858 15.2359 40.9858 15.3328C40.9616 15.4297 41.0585 15.4539 41.1312 15.5023C41.2038 15.5508 41.1312 15.6477 41.0827 15.6477C41.0343 15.6719 40.9374 15.7445 40.9374 15.793C40.9374 15.8172 40.8163 15.9626 40.7436 15.9383C40.6709 15.8899 40.574 15.9868 40.5014 16.0352C40.4529 16.0837 40.5498 16.2048 40.5498 16.2048L40.5014 16.3501C40.5014 16.3501 40.3803 16.3259 40.2349 16.2532C40.0896 16.1563 39.7262 16.0595 39.702 15.9868C39.6536 15.9383 39.7262 15.9141 39.8958 15.8657C40.0654 15.8415 40.5014 15.8899 40.6467 15.8414C40.7678 15.793 40.7678 15.7203 40.8163 15.6477C40.8405 15.5992 40.7678 15.4539 40.6952 15.3812C40.6467 15.2843 40.5256 15.3085 40.4287 15.1632C40.3318 15.0179 40.1623 15.0179 39.8231 14.9452C39.4598 14.8725 39.2175 14.4607 38.9269 14.1458C38.6362 13.8067 38.4182 14.0732 38.3455 14.1458C38.2486 14.2185 37.9579 14.3396 37.8853 14.3881C37.8368 14.4365 37.3766 14.1701 37.0375 14.2912C36.7225 14.4123 36.8921 14.5818 36.8921 14.703C36.8921 14.8241 36.2381 15.0421 35.9959 15.2601C35.7778 15.4781 35.9716 15.6234 35.9474 15.6961C35.9232 15.793 35.7294 16.0352 35.6809 16.0595C35.6083 16.0595 35.3903 16.1563 35.1965 16.2775C35.0027 16.3986 34.494 16.3501 34.3244 16.4228C34.1791 16.5197 34.0338 16.5439 33.9611 16.3744C33.8884 16.2048 33.6946 16.2048 33.5008 16.229C33.3313 16.2532 33.1859 16.2532 33.1859 16.2532C33.1859 16.2532 33.2102 16.1321 33.2344 15.9383C33.2586 15.7446 33.0891 15.7688 33.0648 15.6719C33.0648 15.575 33.2102 15.2359 33.2828 15.0179C33.3313 14.7999 33.1617 14.485 33.1617 14.3638C33.1859 14.2427 33.4282 14.2185 33.622 14.2185C33.8157 14.2185 34.8331 14.2669 35.1965 14.2912C35.584 14.3154 35.5356 14.0005 35.4629 13.5402C35.366 13.1042 34.3244 12.8862 34.3729 12.8135C34.4213 12.7409 34.8573 12.644 35.0754 12.6198C35.2934 12.5955 35.0754 12.4502 35.1238 12.426C35.1723 12.4018 35.4872 12.426 35.9232 12.3291C36.335 12.2564 36.989 11.5782 36.771 11.4328C36.553 11.2875 36.4076 11.8688 36.2623 12.0142C36.1412 12.1837 35.2449 12.1595 35.0754 12.1838C34.93 12.1838 34.2518 12.3049 34.1549 12.2322C34.0822 12.1838 34.6636 11.8931 34.6636 11.8931L34.3244 11.7477C34.3244 11.7477 34.4456 11.5782 34.4698 11.4571C34.494 11.3117 34.8089 11.239 34.8574 11.1664C34.8816 11.0937 34.5909 11.0453 34.4698 10.9484C34.3487 10.8272 34.4456 10.7304 34.4698 10.6092C34.4698 10.4881 34.1064 10.585 34.0338 10.5608C33.9853 10.5366 34.0095 10.3186 34.0095 10.2701C33.9853 10.1974 33.7431 10.0763 33.84 10.0037C33.9369 9.90677 34.0338 10.0521 34.1064 10.0279C34.1791 10.0037 34.3002 9.78565 34.3487 9.71298C34.3729 9.64031 34.9785 9.59186 35.0027 9.66453C35.0511 9.71298 34.8089 9.8341 34.8089 9.90676C34.8089 9.97943 35.3176 9.93099 35.3903 9.95521C35.4387 10.0037 35.3903 10.0279 35.3418 10.1005C35.2934 10.1732 35.0754 10.4639 35.0754 10.4639C35.0754 10.4639 35.4629 10.6335 35.4872 10.7788C35.5356 10.9241 36.2139 11.0937 36.3834 11.0937C36.553 11.0937 36.6983 11.021 36.6983 11.021C36.6983 11.021 36.2865 10.9241 36.335 10.7788C36.3592 10.6335 37.1101 10.6577 37.1101 10.6577C37.1101 10.6577 36.5772 11.1422 36.8679 11.2633C37.1828 11.3844 38.3455 11.1179 38.3455 11.1179C38.3455 11.1179 37.8368 10.585 38.3697 10.1732C38.9026 9.78566 39.7262 10.367 39.7262 10.367L39.2902 9.47075C39.2902 9.47075 38.7815 9.66454 38.4424 9.71298C38.1275 9.78565 37.5219 9.73721 37.4735 9.03474C37.4492 8.33226 38.5393 8.25959 39.0238 8.09003C39.0238 8.07388 39.0318 8.06581 39.048 8.06581C39.2175 7.87202 39.4356 7.70246 39.4598 7.60556C39.5324 7.50867 39.6293 7.24221 39.7262 7.19377C39.8231 7.16954 40.1138 7.04843 40.2107 6.99998C40.2834 6.92731 40.4529 6.75775 40.356 6.7093C40.2349 6.68508 40.356 6.56397 40.5983 6.4913C40.6629 6.47515 40.7113 6.46707 40.7436 6.46707C41.325 6.96768 41.8821 7.49252 42.415 8.04158C42.3989 8.05773 42.3908 8.06581 42.3908 8.06581C42.3666 8.1627 42.2212 8.18692 42.1001 8.21114C42.0032 8.23537 41.761 8.25959 41.6156 8.33226C41.4703 8.40493 41.325 8.52604 41.2523 8.69561C41.1554 8.84095 41.2523 8.96207 41.3734 9.03474L41.3976 9.05895C41.5188 9.08318 41.543 9.05896 41.7852 9.08319C42.0517 9.10741 42.2212 8.93784 42.3181 8.81672C42.415 8.71983 42.3181 8.57449 42.197 8.50182C42.1001 8.42915 42.1486 8.30804 42.2212 8.23537C42.2939 8.18693 42.3908 8.18692 42.5119 8.16269C42.851 8.51797 43.174 8.8894 43.4808 9.27697C43.069 9.32541 42.6572 9.37385 42.5119 9.37385C42.2697 9.37385 41.7125 9.44653 41.6156 9.56765C41.5187 9.68877 41.0827 9.78566 41.0827 9.931C41.0827 10.0521 41.2523 10.2701 41.0101 10.3912C40.7678 10.5123 40.5498 10.4155 40.3803 10.5608C40.2107 10.7061 39.9685 10.5608 39.8958 10.7061C39.8474 10.803 40.0411 10.9241 40.2349 10.803C40.4529 10.6819 40.5983 10.7061 40.5256 10.7546C40.4529 10.803 40.2107 10.8273 40.4045 10.8999C40.5983 10.9484 40.7921 10.9484 40.8405 10.8515C40.8647 10.7788 41.0827 10.7546 41.3007 10.7788C41.543 10.803 41.6883 11.0453 41.7852 10.9484C41.8821 10.8757 42.2939 10.6335 42.2697 10.5366C42.2212 10.4397 42.1243 10.4881 42.1486 10.367C42.1728 10.2459 42.3423 10.1248 42.3908 10.0037C42.4392 9.85832 42.4635 9.73721 42.5604 9.64032C42.633 9.54342 43.1417 9.39808 43.5293 9.37385C44.6436 10.7546 45.564 12.2806 46.315 13.9278C46.1938 13.952 46.1212 13.9763 46.097 13.8551C46.0727 13.7098 45.564 13.5402 45.2976 13.6129C45.0311 13.6856 44.6678 14.0005 44.6193 14.0974C44.5951 14.2185 44.4013 14.2912 44.3529 14.485C44.3287 14.5576 44.4013 14.7272 44.5224 14.8967C44.6193 15.0663 45.0069 15.1147 45.3945 14.9936C45.7821 14.8725 46.0727 14.7756 46.4845 14.7272C46.533 14.7272 46.5895 14.7353 46.6541 14.7514C47.4292 16.7619 47.9379 18.9178 48.059 21.1948C47.9137 20.9041 47.7926 20.6619 47.7441 20.5407C47.5504 20.1532 46.751 18.9178 46.4361 19.0147C46.1212 19.1116 46.4119 19.5718 46.5087 19.9109C46.6299 20.2501 47.2354 20.9041 47.2354 21.2917C47.2354 21.6792 47.7441 22.3575 47.8653 22.6482C47.8895 22.7451 47.9864 22.8419 48.1075 22.9146ZM43.602 16.7862C43.4566 16.7135 43.1902 16.7377 43.0933 16.7377C43.0933 16.7377 43.4566 16.5924 43.5293 16.5681C43.5777 16.5681 43.9411 16.6166 43.9653 16.7135C44.0138 16.7862 43.7715 16.8346 43.602 16.7862ZM46.0727 16.9557C46.0001 16.9799 45.8305 16.9557 45.7094 16.9073L45.8063 16.8104C45.8063 16.8104 45.9274 16.7135 46.0001 16.7135C46.097 16.7135 46.315 16.665 46.3634 16.665C46.4119 16.665 46.2423 16.8104 46.2423 16.8104C46.2423 16.8104 46.1212 16.9557 46.0727 16.9557ZM32.7015 11.1906C32.5804 10.9726 32.9437 10.8999 33.0648 10.9241C33.2102 10.9484 33.2586 10.803 33.3313 10.7304C33.4282 10.6577 33.9127 10.7061 34.058 10.7304C34.2033 10.7788 34.2275 11.021 34.2033 11.0695C34.1549 11.0937 34.1549 11.3117 34.1549 11.4328C34.1549 11.5539 33.8642 11.6751 33.6462 11.6993C33.4282 11.6993 32.871 11.9415 32.7741 11.7235C32.6773 11.5539 32.8226 11.6024 32.8953 11.5297C32.9679 11.4571 32.8468 11.3844 32.7015 11.1906ZM28.85 6.32174C28.6804 6.34596 28.2202 6.53974 28.0748 6.51552C27.9295 6.51552 27.2997 6.68508 26.9848 6.75775C26.6699 6.83042 26.5245 6.75776 26.137 6.85465C25.7736 6.92732 25.2165 7.29067 25.1438 7.38756C25.0954 7.48446 24.7562 7.46022 24.2718 7.55711C23.8115 7.65401 24.1991 7.58135 23.7873 7.70246C23.3513 7.82358 23.6904 7.79935 23.642 8.09003C23.5935 8.40493 23.4724 8.2596 23.2544 8.35649C23.0122 8.45338 23.0848 8.67138 22.9637 8.88939C22.8184 9.1074 22.8426 9.25274 22.673 9.30119C22.4793 9.34963 22.2128 9.18008 22.0432 9.03474C21.8494 8.91362 21.5345 8.96206 21.2439 8.93784C20.9532 8.91361 21.0501 8.79251 20.9774 8.71984C20.929 8.64717 20.5656 8.5745 20.4687 8.30804C20.3961 8.01736 20.3476 8.21115 20.2023 8.13848C20.0327 8.06581 20.1054 8.06581 20.0812 7.94469C20.0812 7.82358 20.0569 7.89624 19.9843 7.72668C19.8874 7.58134 19.7178 7.5329 19.6209 7.46023C19.5482 7.36334 19.6451 7.24222 19.6451 7.09688C19.6451 6.95154 19.6451 6.8062 19.6451 6.75775C19.6451 6.7093 19.7662 6.61242 19.9358 6.61242C20.0811 6.61242 20.2265 6.61241 20.5414 6.51552C20.8563 6.41863 20.5898 6.41863 20.5414 6.32174C20.4929 6.24907 20.4203 6.24907 20.1538 6.24907C19.8631 6.24907 19.8631 6.37019 19.6209 6.41864C19.3787 6.44286 19.3302 6.27329 19.3545 6.20062C19.3545 6.10373 19.4513 6.03106 19.5967 6.00684C19.7178 5.95839 20.2265 6.05528 20.3961 6.10372C20.5898 6.15217 20.4203 5.95838 20.4203 5.86149C20.396 5.74037 20.1296 5.69193 20.0085 5.66771C19.8874 5.66771 19.6209 5.76461 19.2818 5.76461C18.9427 5.76461 19.0395 5.64349 19.0153 5.47393C18.9911 5.32859 18.4824 4.9168 18.434 4.79568C18.3613 4.67456 18.1191 4.52923 17.9737 4.48078C17.8284 4.40811 17.5619 4.38389 17.247 4.35967C16.9321 4.35967 16.6414 4.33543 16.2781 4.33543C17.465 3.63296 18.7246 3.05161 20.0569 2.56714C20.178 2.63981 20.2749 2.63981 20.3961 2.63981C20.4929 2.63981 20.3718 2.56715 20.2749 2.49448C20.4203 2.44603 20.5575 2.40566 20.6867 2.37336C20.7594 2.34914 20.8321 2.34913 20.8805 2.34913C21.0259 2.34913 21.1227 2.49448 21.3165 2.66404C21.5103 2.8336 21.9221 2.76092 22.1159 2.71248C22.3097 2.66403 21.6799 2.63982 21.6557 2.61559C21.6314 2.56715 22.1644 2.56715 22.2855 2.49448C22.4066 2.42181 21.801 2.39758 21.4619 2.37336C21.0985 2.32491 21.7526 2.22801 22.0675 2.22801C22.3581 2.22801 22.8426 2.2038 23.2786 2.2038C23.7146 2.2038 25.4829 2.08268 25.7978 2.08268C26.0885 2.08268 26.7668 2.27647 27.0575 2.13113C27.3481 1.98579 27.7115 2.15535 27.9537 2.15535C28.196 2.15535 28.0264 2.22802 28.0264 2.30069C28.0506 2.37336 28.6077 2.32491 28.8984 2.32491C29.2133 2.32491 29.5767 2.39758 29.7947 2.39758C30.0127 2.39758 29.5767 2.47025 29.3587 2.51869C29.1649 2.56714 28.4382 2.63981 28.4382 2.76093C28.4382 2.90627 29.0922 2.59136 29.4556 2.59136C29.8431 2.59136 29.5525 2.63982 29.8189 2.73671C30.0854 2.8336 30.0369 2.73671 30.2065 2.68826C30.3518 2.63981 30.8363 2.71248 31.0785 2.71248C31.3207 2.71248 31.9021 2.71249 32.3624 2.78516C32.7984 2.8336 32.217 2.80937 31.7568 2.88204C31.2965 2.97893 31.2481 3.02738 31.0301 3.05161C30.8121 3.07583 30.6425 3.22118 30.4972 3.26962C30.3518 3.31807 30.2307 3.29384 30.1338 3.41496C30.0369 3.51185 30.1823 3.6814 30.1823 3.80252C30.1823 3.94786 29.9158 3.92364 30.0854 4.02053C30.2792 4.0932 30.3276 4.0932 30.3276 4.14165C30.3276 4.1901 30.3518 4.33544 30.3518 4.43233C30.3518 4.52922 29.94 4.11743 29.8189 4.11743C29.722 4.11743 29.7462 4.21432 29.8189 4.31122C29.8674 4.40811 29.9642 4.48078 30.0369 4.67456C30.1096 4.84413 29.8431 4.74723 29.7462 4.69878C29.6493 4.67456 29.3344 4.57767 29.4071 4.67456C29.4798 4.77146 29.6493 4.84412 29.5525 4.94101C29.4798 5.01368 29.5767 5.08636 29.5767 5.08636C29.5525 5.11058 29.2376 5.1348 29.2376 5.1348L28.4624 5.03791C28.4624 5.03791 28.3171 5.06213 28.4382 5.18324C28.5835 5.30436 28.9711 5.28015 29.1407 5.32859C29.3102 5.40126 29.3102 5.44971 29.1164 5.52237C28.9469 5.57082 28.7046 5.4497 28.5835 5.35281C28.4624 5.23169 28.1717 5.2317 27.8326 5.32859C27.4935 5.42549 28.2928 5.42549 28.2928 5.44971C28.2928 5.47393 28.6077 5.59504 28.7531 5.64349C28.8984 5.69194 29.0922 5.74038 29.2618 5.78882C29.4071 5.83727 29.3344 5.88572 29.3102 6.00684C29.3102 6.12795 29.2133 6.07951 28.9953 6.07951C28.8015 6.07951 28.6804 6.03106 28.4866 5.90994C28.3171 5.81305 27.8568 5.69193 27.5177 5.71616C27.1786 5.71616 27.881 5.81306 28.0506 5.81306C28.1959 5.81306 27.7357 5.83727 27.5904 5.90994C27.4693 5.95839 27.9053 5.93417 28.0748 5.93417C28.2202 5.93417 27.881 6.05528 27.8084 6.07951C27.7357 6.10373 27.445 6.12795 27.5177 6.20062C27.5904 6.27329 27.9295 6.1764 28.2444 6.12795C28.5593 6.07951 29.0922 6.1764 29.0922 6.1764C29.0922 6.1764 29.0195 6.29751 28.85 6.32174ZM29.8916 8.21114C29.2376 8.13847 28.3413 7.67824 28.6078 7.46023C28.9711 7.12111 29.5282 7.41178 29.8916 7.46023C30.2307 7.48445 30.4729 7.38756 31.0785 7.29066C31.7083 7.16955 31.781 7.436 31.7568 7.65401C31.7568 7.89624 30.5214 8.25959 29.8916 8.21114ZM38.7331 14.8725L38.6604 14.8483C38.6604 14.8483 38.5393 14.703 38.5393 14.6545C38.5393 14.6061 38.612 14.5576 38.8057 14.5576C38.9753 14.5818 38.7815 14.703 38.7573 14.7999C38.7573 14.7999 38.83 14.8725 38.8542 15.0179C38.9026 15.1632 38.8784 15.1632 38.8784 15.2359C38.8784 15.3328 38.8784 15.5023 38.83 15.575C38.7573 15.6477 38.5877 15.6719 38.4908 15.6719C38.3697 15.6719 38.4666 15.5265 38.4666 15.4054C38.4666 15.2601 38.3455 15.1632 38.3697 15.0663C38.4182 14.9452 38.3697 15.0663 38.5393 15.0421C38.7089 14.9936 38.5393 15.0421 38.7331 14.9936C38.9511 14.9452 38.7331 14.8725 38.7331 14.8725Z" fill="url(#paint3_radial_2407_36682)"/>
<path style="mix-blend-mode:color-dodge" opacity="0.6" d="M35.3667 15.4059C35.3667 23.9083 28.4631 30.8119 19.9607 30.8119C11.4583 30.8119 4.55469 23.9083 4.55469 15.4059C4.55469 6.9036 11.4583 0 19.9607 0C28.4631 0 35.3667 6.9036 35.3667 15.4059Z" fill="url(#paint4_radial_2407_36682)"/>
<path d="M27.009 36.7718C12.1116 36.7718 0 31.1036 0 24.1757C0 21.1963 2.22855 18.3137 6.27384 16.061C6.4434 15.9641 6.66141 16.0367 6.7583 16.2063C6.85519 16.3759 6.78252 16.5939 6.61295 16.6908C2.8099 18.8224 0.726698 21.4627 0.726698 24.1757C0.726698 30.716 12.4992 36.0451 27.009 36.0451C41.4945 36.0451 53.2912 30.716 53.2912 24.1757C53.2912 21.4627 51.1838 18.8224 47.3807 16.6908C47.2112 16.5939 47.1385 16.3759 47.2354 16.2063C47.3323 16.0367 47.5745 15.9641 47.7441 16.061C51.7894 18.3137 54.0179 21.1963 54.0179 24.1757C54.0179 31.1036 41.8821 36.7718 27.009 36.7718Z" fill="#AFB6E5"/>
<g style="mix-blend-mode:multiply">
<path fill-rule="evenodd" clip-rule="evenodd" d="M47.1865 28.6328C45.8784 29.3352 44.425 29.9408 42.8263 30.498C43.4561 31.8787 43.9648 33.2594 44.3039 34.5432C44.1263 34.7855 43.9486 35.0277 43.771 35.2699C43.5772 34.4786 43.3269 33.647 43.0201 32.7749C42.7617 32.0967 42.471 31.4104 42.148 30.716C41.9058 30.7886 41.6636 30.8613 41.4213 30.934C41.3971 31.8787 40.6462 32.6538 39.6773 32.6538C39.0475 32.6538 38.4661 32.2905 38.1754 31.7576C34.76 32.4843 30.9811 32.8961 27.0085 32.8961C21.4856 32.8961 16.3502 32.0967 12.0627 30.7886C11.2634 32.1694 10.5851 33.5501 10.0037 34.8824C9.84226 34.6563 9.68077 34.4302 9.51928 34.2041C10.036 32.9929 10.6497 31.7737 11.3603 30.5464C9.71308 30.0135 8.23545 29.3837 6.90317 28.6812C6.80628 28.3744 6.71746 28.0676 6.63672 27.7607C8.11434 28.5843 9.80997 29.311 11.7236 29.9408C12.2565 29.0203 12.846 28.0999 13.4919 27.1794C13.1043 26.8645 12.8379 26.38 12.8379 25.8229C12.8379 24.8782 13.613 24.103 14.5577 24.103C14.9211 24.103 15.2844 24.2242 15.5509 24.4179C16.8347 22.8192 18.2639 21.2205 19.79 19.6944C22.2365 17.2479 24.8284 15.092 27.4445 13.2753C24.0775 10.7803 20.7104 8.93933 17.6583 7.94618C17.3676 8.45487 16.8105 8.79399 16.1807 8.79399C15.2844 8.79399 14.5335 8.06729 14.4851 7.17103C13.8552 7.07414 13.2497 7.02569 12.6925 7.04992C12.9348 6.82384 13.177 6.59775 13.4192 6.37167C13.7907 6.40397 14.1702 6.44434 14.5577 6.49279C14.8 5.81454 15.4298 5.33008 16.1807 5.33008C17.1496 5.33008 17.9248 6.10521 17.9248 7.04992C17.9248 7.13066 17.9167 7.21141 17.9005 7.29215C21.0738 8.35797 24.5862 10.2474 28.0743 12.8635C30.6662 11.1194 33.2581 9.76291 35.7773 8.81821C38.0301 7.99462 40.0648 7.55861 41.8816 7.51016C42.1238 7.7524 42.358 7.99463 42.5841 8.23686C40.6946 8.16419 38.4903 8.6002 36.0196 9.49645C33.6457 10.3927 31.1507 11.7008 28.6799 13.3237C30.3271 14.6076 31.9985 16.0609 33.573 17.6597C37.5456 21.608 40.5978 25.8713 42.5114 29.8682C44.3524 29.2384 46.0238 28.5359 47.4529 27.7365C47.3722 28.0433 47.2834 28.3421 47.1865 28.6328ZM41.8574 30.0862C39.8953 26.0893 36.8431 21.9472 33.0643 18.1684C31.4414 16.5454 29.7457 15.0678 28.0501 13.7597C25.4098 15.5523 22.7694 17.7323 20.2986 20.2031C18.7726 21.7534 17.3434 23.3521 16.0353 24.9751C16.1807 25.2173 16.2776 25.508 16.2776 25.8229C16.2776 26.7918 15.5024 27.567 14.5577 27.567C14.4124 27.5508 14.2751 27.5266 14.1459 27.4943C13.5323 28.3825 12.959 29.2707 12.4261 30.1588C16.5925 31.4184 21.6067 32.1694 27.0085 32.1694C30.9084 32.1694 34.6388 31.7576 37.9816 31.0551C37.9816 31.0066 37.9574 30.9582 37.9574 30.9098C37.9574 29.965 38.7326 29.1899 39.6773 29.1899C40.404 29.1899 41.0096 29.6259 41.276 30.2315C41.4698 30.1831 41.6636 30.1346 41.8574 30.0862Z" fill="#CED3F4"/>
<path d="M6.95164 17.2486C6.90319 17.0305 6.85475 16.7883 6.80631 16.5703C6.69327 16.9417 6.59637 17.3132 6.51562 17.6846C6.58022 17.7007 6.64481 17.7088 6.70941 17.7088C6.90319 17.6361 7.02431 17.4423 6.95164 17.2486Z" fill="#CED3F4"/>
</g>
<path d="M40.5021 45.2494C38.2978 45.2494 35.7059 44.668 32.896 43.4811C32.7022 43.3842 32.6053 43.1904 32.7022 42.9966C32.7749 42.8028 32.9929 42.7301 33.1624 42.8028C38.7096 45.1282 43.2151 45.104 45.589 42.7544C47.7933 40.5501 47.9628 36.5532 46.0977 31.4906C44.184 26.3553 40.381 20.7597 35.391 15.7697C30.401 10.7798 24.8054 6.97673 19.6701 5.0631C14.6074 3.19792 10.6106 3.36749 8.40624 5.5718C6.54105 7.4612 6.12925 10.7313 7.24353 14.8008C7.29197 14.9946 7.19508 15.1884 7.00129 15.2368C6.80751 15.3095 6.58949 15.1884 6.54104 14.9946C5.3541 10.586 5.81435 7.17052 7.89756 5.0631C10.3199 2.64078 14.5832 2.39855 19.9123 4.38485C25.1687 6.32271 30.837 10.1984 35.8997 15.2611C40.9865 20.3237 44.8381 26.0162 46.7759 31.2484C48.7622 36.5775 48.52 40.8407 46.0977 43.2631C44.7654 44.5953 42.8517 45.2494 40.5021 45.2494Z" fill="url(#paint5_linear_2407_36682)"/>
<path d="M13.4927 45.2493C11.143 45.2493 9.22938 44.5953 7.8971 43.263C5.47477 40.8407 5.23253 36.5774 7.21884 31.2483C9.1567 26.0161 13.0324 20.3237 18.0951 15.261C28.6322 4.72396 41.1799 0.145771 46.0972 5.06308C48.1562 7.12205 48.6407 10.5133 47.5022 14.825C47.4537 15.0188 47.2599 15.1399 47.0661 15.0672C46.8723 15.0188 46.7512 14.825 46.7997 14.6312C47.8655 10.586 47.4537 7.46118 45.5885 5.57177C40.9619 0.945144 28.8502 5.52332 18.6038 15.7697C13.6138 20.7597 9.81074 26.3553 7.8971 31.4906C6.03191 36.5532 6.20147 40.55 8.40578 42.7544C10.7554 45.104 15.261 45.1282 20.7597 42.827C20.9292 42.7544 21.1472 42.8512 21.2199 43.0208C21.3168 43.2146 21.2199 43.4326 21.0261 43.5053C18.2404 44.668 15.6728 45.2493 13.4927 45.2493Z" fill="#AFB6E5"/>
<path d="M27.009 36.7708C12.1116 36.7708 0 31.1026 0 24.1748C0 21.1953 2.22855 18.3128 6.27384 16.06C6.4434 15.9631 6.66141 16.0358 6.7583 16.2053C6.85519 16.3749 6.78252 16.5929 6.61295 16.6898C2.8099 18.8214 0.726698 21.4618 0.726698 24.1748C0.726698 30.715 12.4992 36.0441 27.009 36.0441C41.4945 36.0441 53.2912 30.715 53.2912 24.1748C53.2912 21.4618 51.1838 18.8214 47.3807 16.6898C47.2112 16.5929 47.1385 16.3749 47.2354 16.2053C47.3323 16.0358 47.5745 15.9631 47.7441 16.06C51.7894 18.3128 54.0179 21.1953 54.0179 24.1748C54.0179 31.1026 41.8821 36.7708 27.009 36.7708Z" fill="url(#paint6_linear_2407_36682)"/>
<path d="M13.4927 45.2494C11.143 45.2494 9.22938 44.5953 7.8971 43.2631C5.47477 40.8407 5.23253 36.5775 7.21884 31.2484C9.1567 26.0162 13.0324 20.3237 18.0951 15.2611C23.1578 10.1984 28.8502 6.32271 34.0825 4.38485C39.4116 2.39855 43.6749 2.64078 46.0972 5.0631C48.1562 7.12207 48.6407 10.5133 47.5022 14.825C47.4537 15.0188 47.2599 15.1399 47.0661 15.0673C46.8723 15.0188 46.7512 14.825 46.7997 14.6313C47.8655 10.586 47.4537 7.4612 45.5885 5.5718C43.3842 3.36749 39.3874 3.19792 34.3247 5.0631C29.1894 6.97673 23.5938 10.7798 18.6038 15.7697C13.6138 20.7597 9.81074 26.3553 7.8971 31.4906C6.03191 36.5532 6.20147 40.5501 8.40578 42.7544C10.7554 45.104 15.261 45.1282 20.7597 42.827C20.9292 42.7544 21.1472 42.8513 21.2199 43.0208C21.3168 43.2146 21.2199 43.4326 21.0261 43.5053C18.2404 44.668 15.6728 45.2494 13.4927 45.2494Z" fill="url(#paint7_linear_2407_36682)"/>
<path d="M14.1707 23.0854C14.1707 24.2723 13.1776 25.2654 11.9906 25.2654C10.7795 25.2654 9.81055 24.2723 9.81055 23.0854C9.81055 21.8742 10.7795 20.9053 11.9906 20.9053C13.1776 20.9053 14.1707 21.8742 14.1707 23.0854Z" fill="url(#paint8_radial_2407_36682)"/>
<path d="M43.0692 34.5424C43.0692 35.7536 42.1002 36.7225 40.8891 36.7225C39.6779 36.7225 38.709 35.7536 38.709 34.5424C38.709 33.3312 39.6779 32.3623 40.8891 32.3623C42.1002 32.3623 43.0692 33.3312 43.0692 34.5424Z" fill="url(#paint9_radial_2407_36682)"/>
<path d="M17.2235 3.53751C17.2235 4.74867 16.2545 5.71759 15.0434 5.71759C13.8564 5.71759 12.8633 4.74867 12.8633 3.53751C12.8633 2.32635 13.8564 1.35742 15.0434 1.35742C16.2545 1.35742 17.2235 2.32635 17.2235 3.53751Z" fill="url(#paint10_radial_2407_36682)"/>
<defs>
<radialGradient id="paint0_radial_2407_36682" cx="0" cy="0" r="1" gradientUnits="userSpaceOnUse" gradientTransform="translate(29.6415 35.8111) scale(18.8525 18.8524)">
<stop offset="0.192" stop-color="#AFB6E5"/>
<stop offset="1" stop-color="white"/>
</radialGradient>
<radialGradient id="paint1_radial_2407_36682" cx="0" cy="0" r="1" gradientUnits="userSpaceOnUse" gradientTransform="translate(20.4879 17.133) scale(30.2922 30.2921)">
<stop offset="0.141" stop-color="#66CCFF"/>
<stop offset="0.702" stop-color="#5277F7"/>
<stop offset="1" stop-color="#00C7C5"/>
</radialGradient>
<radialGradient id="paint2_radial_2407_36682" cx="0" cy="0" r="1" gradientUnits="userSpaceOnUse" gradientTransform="translate(49.5602 35.1886) scale(24.8785 24.8784)">
<stop stop-color="#AFB6E5"/>
<stop offset="1"/>
</radialGradient>
<radialGradient id="paint3_radial_2407_36682" cx="0" cy="0" r="1" gradientUnits="userSpaceOnUse" gradientTransform="translate(20.9287 18.7851) scale(28.5132 28.5131)">
<stop offset="0.141" stop-color="#E5E9FF"/>
<stop offset="0.702" stop-color="#AFB6E5"/>
<stop offset="1" stop-color="#CED3F4"/>
</radialGradient>
<radialGradient id="paint4_radial_2407_36682" cx="0" cy="0" r="1" gradientUnits="userSpaceOnUse" gradientTransform="translate(20.4587 15.9032) scale(11.2631 11.263)">
<stop offset="0.005" stop-color="#66CCFF"/>
<stop offset="1"/>
</radialGradient>
<linearGradient id="paint5_linear_2407_36682" x1="22.2058" y1="-16.7046" x2="68.5481" y2="18.6867" gradientUnits="userSpaceOnUse">
<stop stop-color="#CDD2F3"/>
<stop offset="0.252" stop-color="#E5E9FF"/>
<stop offset="0.374" stop-color="white"/>
<stop offset="0.763" stop-color="#AFB6E5"/>
<stop offset="0.909" stop-color="#AFB6E5"/>
<stop offset="1" stop-color="#AFB6E5"/>
</linearGradient>
<linearGradient id="paint6_linear_2407_36682" x1="51.6276" y1="31.9846" x2="0.627141" y2="43.7842" gradientUnits="userSpaceOnUse">
<stop stop-color="#CDD2F3"/>
<stop offset="0.252" stop-color="#E5E9FF"/>
<stop offset="0.374" stop-color="white"/>
<stop offset="0.763" stop-color="#AFB6E5"/>
<stop offset="0.909" stop-color="#AFB6E5"/>
<stop offset="1" stop-color="#AFB6E5"/>
</linearGradient>
<linearGradient id="paint7_linear_2407_36682" x1="-9.60447" y1="32.3454" x2="13.8348" y2="-11.8847" gradientUnits="userSpaceOnUse">
<stop stop-color="#CDD2F3"/>
<stop offset="0.252" stop-color="#E5E9FF"/>
<stop offset="0.374" stop-color="white"/>
<stop offset="0.763" stop-color="#AFB6E5"/>
<stop offset="0.909" stop-color="#AFB6E5"/>
<stop offset="1" stop-color="#AFB6E5"/>
</linearGradient>
<radialGradient id="paint8_radial_2407_36682" cx="0" cy="0" r="1" gradientUnits="userSpaceOnUse" gradientTransform="translate(11.4984 22.7523) scale(2.1801 2.18009)">
<stop stop-color="#F36DD4"/>
<stop offset="0.591" stop-color="#BB6DF3"/>
<stop offset="1" stop-color="#813FBF"/>
</radialGradient>
<radialGradient id="paint9_radial_2407_36682" cx="0" cy="0" r="1" gradientUnits="userSpaceOnUse" gradientTransform="translate(40.4049 34.2176) scale(2.1801 2.18009)">
<stop stop-color="#F36DD4"/>
<stop offset="0.591" stop-color="#BB6DF3"/>
<stop offset="1" stop-color="#813FBF"/>
</radialGradient>
<radialGradient id="paint10_radial_2407_36682" cx="0" cy="0" r="1" gradientUnits="userSpaceOnUse" gradientTransform="translate(14.5674 3.21268) scale(2.1801 2.18009)">
<stop stop-color="#F36DD4"/>
<stop offset="0.591" stop-color="#BB6DF3"/>
<stop offset="1" stop-color="#813FBF"/>
</radialGradient>
</defs>
</svg>
