<svg width="36" height="36" viewBox="0 0 36 36" fill="none" xmlns="http://www.w3.org/2000/svg">
<path fill-rule="evenodd" clip-rule="evenodd" d="M17.9986 31.0656C14.4948 31.0656 11.6445 28.2153 11.6445 24.7115C11.6445 21.2077 14.4948 18.3574 17.9986 18.3574C21.5025 18.3574 24.3528 21.2077 24.3528 24.7115C24.3528 28.2153 21.5025 31.0656 17.9986 31.0656ZM17.9986 19.7668C15.2743 19.7668 13.0539 21.9872 13.0539 24.7115C13.0539 27.4358 15.2743 29.6483 17.9986 29.6483C20.723 29.6483 22.9434 27.4358 22.9434 24.7115C22.9434 21.9872 20.723 19.7668 17.9986 19.7668Z" fill="#4D5E81"/>
<path fill-rule="evenodd" clip-rule="evenodd" d="M19.4971 27.4745C19.3868 27.4745 19.2687 27.443 19.1664 27.3958L18.001 26.7816L16.8357 27.3958C16.5917 27.5139 16.3082 27.4981 16.0877 27.3407C15.8752 27.1832 15.7649 26.9155 15.8122 26.6478L16.0326 25.3486L15.0878 24.4274C14.8988 24.2384 14.8279 23.955 14.9067 23.703C14.9933 23.451 15.2137 23.2621 15.4815 23.2227L16.7806 23.0337L17.3711 21.8527C17.4893 21.6086 17.7333 21.459 18.001 21.459C18.2688 21.459 18.5128 21.6086 18.6309 21.8527L19.2215 23.0337L20.5206 23.2227C20.7884 23.2621 21.0088 23.451 21.0954 23.703C21.1742 23.955 21.1033 24.2384 20.9143 24.4274L19.9695 25.3486L20.19 26.6478C20.2372 26.9155 20.127 27.1832 19.9144 27.3407C19.7884 27.4273 19.6467 27.4745 19.4971 27.4745ZM18.001 25.2777C18.1113 25.2777 18.2294 25.3014 18.3318 25.3565L18.5601 25.4746L18.5128 25.2226C18.4735 24.9943 18.5522 24.7581 18.7176 24.5927L18.9065 24.4116L18.6467 24.3801C18.4184 24.3408 18.2215 24.199 18.1192 23.9943L18.001 23.7581L17.8829 23.9943C17.7806 24.199 17.5837 24.3408 17.3554 24.3801L17.0956 24.4116L17.2845 24.5927C17.4499 24.7581 17.5286 24.9943 17.4893 25.2226L17.442 25.4746L17.6704 25.3565C17.7727 25.3014 17.8908 25.2777 18.001 25.2777Z" fill="#4D5E81"/>
<path d="M25.7475 19.4358C25.6136 19.4358 25.4876 19.3964 25.3695 19.3256C25.0388 19.113 24.9443 18.6799 25.1491 18.3492L34.3141 3.86159L30.6843 1.67269L21.472 16.2391C21.2673 16.5698 20.8342 16.6643 20.5036 16.4595C20.1729 16.2548 20.0705 15.8139 20.2831 15.4832L29.8654 0.32628C30.0702 0.00345724 30.4953 -0.0989003 30.826 0.105817L35.6605 3.02697C35.8259 3.12145 35.9361 3.27893 35.9833 3.4679C36.0227 3.64899 35.9912 3.84584 35.8889 4.00331L26.3459 19.1051C26.2041 19.3177 25.9758 19.4358 25.7475 19.4358Z" fill="#4D5E81"/>
<path d="M10.2523 19.4358C10.0239 19.4358 9.78771 19.3177 9.65386 19.1051L0.110885 4.00331C0.00852677 3.84584 -0.0229644 3.64899 0.0164044 3.4679C0.0636468 3.27893 0.173887 3.12145 0.339235 3.02697L5.17371 0.105817C5.5044 -0.0989003 5.92958 0.00345724 6.1343 0.32628L15.7166 15.4832C15.9292 15.8139 15.8269 16.2548 15.4962 16.4595C15.1655 16.6643 14.7324 16.5698 14.5277 16.2391L5.30756 1.67269L1.68563 3.86159L10.8507 18.3492C11.0554 18.6799 10.9609 19.113 10.6302 19.3256C10.5121 19.3964 10.3861 19.4358 10.2523 19.4358Z" fill="#4D5E81"/>
<path fill-rule="evenodd" clip-rule="evenodd" d="M17.998 36.0018C17.2107 36.0018 16.6516 35.4113 16.1635 34.8916C15.9351 34.6397 15.6123 34.3011 15.4391 34.2539C15.2422 34.2066 14.8013 34.3326 14.447 34.4428C13.7699 34.6476 13.014 34.8759 12.3526 34.4901C11.6754 34.1043 11.4943 33.3248 11.3369 32.6319C11.2503 32.2776 11.1479 31.8366 11.0062 31.6949C10.8723 31.5611 10.4314 31.4587 10.0771 31.3721C9.38418 31.2067 8.60467 31.0256 8.21885 30.3564C7.83304 29.695 8.06139 28.9312 8.2661 28.262C8.36846 27.9076 8.50232 27.4667 8.4472 27.2699C8.39996 27.0888 8.06139 26.7738 7.81731 26.5455C7.29764 26.0494 6.69922 25.4983 6.69922 24.7109C6.69922 23.9157 7.29764 23.3645 7.81731 22.8763C8.06139 22.6401 8.39996 22.3252 8.4472 22.1519C8.50232 21.9551 8.36846 21.5142 8.2661 21.1599C8.06139 20.4827 7.83304 19.719 8.21885 19.0576C8.60467 18.3883 9.38418 18.2072 10.0771 18.0419C10.4314 17.9631 10.8723 17.8529 11.0062 17.719C11.1479 17.5852 11.2503 17.1364 11.3369 16.7821C11.4943 16.097 11.6754 15.3097 12.3447 14.9239C13.014 14.5459 13.7699 14.7743 14.447 14.9711C14.8013 15.0813 15.2422 15.2152 15.4391 15.1601C15.6123 15.1128 15.9351 14.7743 16.1635 14.5302C16.6516 14.0026 17.2107 13.4121 17.998 13.4121C18.7854 13.4121 19.3445 14.0026 19.8326 14.5302C20.061 14.7743 20.3838 15.1128 20.557 15.1601C20.7538 15.2152 21.1948 15.0813 21.5491 14.9711C22.2184 14.7743 22.9821 14.5459 23.6435 14.9239C24.3207 15.3097 24.5018 16.097 24.6592 16.7821C24.7458 17.1364 24.8482 17.5852 24.9899 17.719C25.1238 17.8529 25.5647 17.9631 25.919 18.0419C26.6119 18.2072 27.3914 18.3883 27.7772 19.0576C28.1631 19.719 27.9347 20.4827 27.73 21.1599C27.6276 21.5142 27.4938 21.9551 27.5489 22.1519C27.5961 22.3252 27.9347 22.6401 28.1788 22.8763C28.6985 23.3645 29.289 23.9157 29.289 24.7109C29.289 25.4983 28.6985 26.0494 28.1788 26.5455C27.9347 26.7738 27.5961 27.0888 27.5489 27.2699C27.4938 27.4667 27.6276 27.9076 27.73 28.262C27.9347 28.9312 28.1631 29.695 27.7772 30.3564C27.3914 31.0256 26.6119 31.2067 25.919 31.3721C25.5647 31.4587 25.1238 31.5611 24.9899 31.6949C24.8482 31.8366 24.7458 32.2776 24.6592 32.6319C24.5018 33.3248 24.3207 34.1043 23.6435 34.4901C22.9821 34.8759 22.2184 34.6476 21.5491 34.4428C21.1948 34.3326 20.7538 34.2066 20.557 34.2539C20.3838 34.3011 20.061 34.6397 19.8326 34.8916C19.3445 35.4113 18.7854 36.0018 17.998 36.0018ZM15.3367 32.8366C15.4942 32.8366 15.6517 32.8523 15.8013 32.8917C16.3682 33.0413 16.7855 33.4901 17.1949 33.9232C17.4311 34.1751 17.8169 34.5924 17.998 34.5924C18.1791 34.5924 18.565 34.1751 18.8012 33.9232C19.2106 33.4901 19.6279 33.0413 20.1948 32.8917C20.7775 32.7342 21.3995 32.9232 21.9507 33.0885C22.2499 33.183 22.8089 33.3484 22.9428 33.2696C23.0845 33.183 23.2105 32.6397 23.2892 32.309C23.4231 31.7264 23.5648 31.1201 23.99 30.6949C24.4073 30.2776 25.0135 30.1359 25.5962 29.9942C25.9269 29.9233 26.4781 29.7895 26.5568 29.6477C26.6355 29.5139 26.4702 28.9627 26.3836 28.6635C26.2104 28.1124 26.0293 27.4825 26.1789 26.8998C26.3363 26.3408 26.7773 25.9156 27.2103 25.514C27.4623 25.2778 27.8796 24.8841 27.8796 24.7109C27.8796 24.5298 27.4623 24.1361 27.2103 23.8999C26.7773 23.4984 26.3363 23.081 26.1789 22.5141C26.0293 21.9315 26.2104 21.3016 26.3836 20.7504C26.4702 20.4512 26.6355 19.9001 26.5568 19.7662C26.4781 19.6245 25.9269 19.4985 25.5962 19.4198C25.0135 19.278 24.4073 19.1363 23.99 18.719C23.5648 18.2938 23.4231 17.6954 23.2892 17.1049C23.2105 16.7821 23.0845 16.2309 22.9428 16.1443C22.8089 16.0734 22.2499 16.2388 21.9507 16.3254C21.3995 16.4907 20.7775 16.6797 20.1948 16.5222C19.6279 16.3726 19.2106 15.9238 18.8012 15.4908C18.565 15.2467 18.1791 14.8215 17.998 14.8215C17.8169 14.8215 17.4311 15.2467 17.1949 15.4908C16.7855 15.9238 16.3682 16.3726 15.8013 16.5222C15.2186 16.6797 14.5966 16.4907 14.0376 16.3254C13.7462 16.2388 13.1872 16.0734 13.0533 16.1443C12.9116 16.2309 12.7856 16.7821 12.7069 17.1049C12.573 17.6954 12.4313 18.2938 12.0061 18.719C11.5888 19.1363 10.9825 19.278 10.3999 19.4198C10.0692 19.4985 9.51802 19.6245 9.43928 19.7662C9.36055 19.9001 9.52589 20.4512 9.6125 20.7504C9.77785 21.3016 9.96682 21.9315 9.80935 22.5141C9.65975 23.081 9.21882 23.4984 8.78576 23.8999C8.5338 24.1361 8.11649 24.5298 8.11649 24.7109C8.11649 24.8841 8.5338 25.2778 8.78576 25.514C9.21882 25.9156 9.65975 26.3408 9.80935 26.8998C9.96682 27.4825 9.77785 28.1124 9.6125 28.6635C9.52589 28.9627 9.36055 29.5139 9.43928 29.6477C9.51802 29.7895 10.0692 29.9233 10.3999 29.9942C10.9825 30.1359 11.5888 30.2776 12.0061 30.6949C12.4313 31.1201 12.573 31.7264 12.7069 32.309C12.7856 32.6397 12.9116 33.183 13.0533 33.2696C13.1872 33.3484 13.7462 33.183 14.0376 33.0885C14.447 32.9704 14.8958 32.8366 15.3367 32.8366Z" fill="#4D5E81"/>
<path d="M30.4968 1.42899H5.50551C5.1197 1.42899 4.79688 1.11404 4.79688 0.720354C4.79688 0.326668 5.1197 0.0117188 5.50551 0.0117188H30.4968C30.8826 0.0117188 31.2054 0.326668 31.2054 0.720354C31.2054 1.11404 30.8826 1.42899 30.4968 1.42899Z" fill="#4D5E81"/>
<path d="M27.3145 6.38895H8.6852C8.29151 6.38895 7.97656 6.074 7.97656 5.68032C7.97656 5.28663 8.29151 4.97168 8.6852 4.97168H27.3145C27.7081 4.97168 28.0231 5.28663 28.0231 5.68032C28.0231 6.074 27.7081 6.38895 27.3145 6.38895Z" fill="#4D5E81"/>
</svg>
